<svg xmlns="http://www.w3.org/2000/svg" viewBox="0 0 750.85 70.06"><defs><style>.cls-1{fill:#fff;}.cls-2{fill:#00caac;}.cls-3{fill:#9a9a9a;}</style></defs><title>ct_top_logo_merged_horizontal2</title><g id="レイヤー_2" data-name="レイヤー 2"><g id="レイヤー_1-2" data-name="レイヤー 1"><polygon class="cls-1" points="227.6 46.7 215.93 46.7 223.37 11.68 235.05 11.68 227.6 46.7"/><polygon class="cls-1" points="251.83 70.06 240.15 70.06 252.56 11.68 264.24 11.68 251.83 70.06"/><polygon class="cls-1" points="151.24 21.41 152.07 17.51 128.72 17.51 132.44 0 120.77 0 117.04 17.51 93.69 17.51 92.86 21.41 116.22 21.41 112.91 36.97 89.56 36.97 88.73 40.87 112.08 40.87 108.36 58.38 120.03 58.38 123.76 40.87 147.11 40.87 147.94 36.97 124.58 36.97 127.89 21.41 151.24 21.41"/><polygon class="cls-1" points="181.14 27.24 183.21 17.51 171.53 17.51 169.46 27.24 157.78 27.24 156.96 31.14 168.63 31.14 162.84 58.38 174.52 58.38 180.31 31.14 191.99 31.14 188.68 46.7 200.35 46.7 204.49 27.24 181.14 27.24"/><polygon class="cls-1" points="320.01 33.08 290.82 33.08 295.37 11.68 283.7 11.68 273.77 58.38 285.44 58.38 290 36.97 319.19 36.97 320.01 33.08"/><polygon class="cls-1" points="338.81 54.49 347.91 11.68 336.23 11.68 326.31 58.38 367.17 58.38 368 54.49 338.81 54.49"/><polygon class="cls-2" points="0 34.24 0 20.52 20.52 0 34.24 0 28.24 28.24 0 34.24"/><polygon class="cls-2" points="34.24 70.06 20.52 70.06 0 49.54 0 35.82 28.24 41.82 34.24 70.06"/><polygon class="cls-2" points="70.06 35.82 70.06 49.54 49.54 70.06 35.82 70.06 41.82 41.82 70.06 35.82"/><polygon class="cls-2" points="35.82 0 49.54 0 70.06 20.52 70.06 34.24 41.82 28.24 35.82 0"/><path class="cls-3" d="M534.49,24.1H547c4.89,0,8.16,1.37,8.16,5.32a4.52,4.52,0,0,1-2.4,4.32,5.56,5.56,0,0,1,3.2,5.12c0,3.92-3.12,6-8.18,6H534.49Zm12.79,8.21c2.66,0,3.83-.66,3.83-2.4s-1.17-2.43-3.83-2.43h-8.73v4.84Zm.11,9.22c2.58,0,4.52-.51,4.52-3,0-2.18-1.77-2.86-4.52-2.86h-8.84v5.84Z"/><path class="cls-3" d="M565.78,24.1h4.08V44.91h-4.08Z"/><path class="cls-3" d="M578.75,44.91v-2l14.54-15.31H579.49V24.1h19.8v2.29l-14.14,15h14.48v3.49Z"/><path class="cls-3" d="M608.93,24.1h12.51c4.92,0,8.47,1.12,8.47,6.21a5.89,5.89,0,0,1-5.81,6.12l6.38,8.47h-5l-6-8.19H613v8.19h-4.06Zm11.91,9.24c3.32,0,5-.49,5-2.95s-1.69-2.92-5-2.92H613v5.87Z"/><path class="cls-3" d="M639.58,24.1h18.66v3.49H643.64v4.84h12.56v3.49H643.64v5.5h14.94v3.49h-19Z"/><path class="cls-3" d="M675.15,24.1h4.64l10.1,20.81h-4.29l-2.17-4.78h-12l-2.2,4.78H664.9Zm6.67,12.53-4.35-9.27-4.35,9.27Z"/><path class="cls-3" d="M718.34,37.5c-.4,2.32-2.06,7.93-11.62,7.93-6.58,0-11.76-3.66-11.76-11.25,0-6.07,3.81-10.59,12.08-10.59,9.3,0,10.68,6,11,7.15H714c-.23-.72-1.83-3.66-6.7-3.66-5.75,0-8.16,3.23-8.16,7.56,0,4.78,3.46,7.3,7.93,7.3,4.75,0,6.84-2.83,7.24-4.43Z"/><path class="cls-3" d="M746.77,17.45v6.24H731.62V17.45h-4.08V44.91h4.08V38.67h15.15v6.24h4.08V17.45Zm0,9.24v3H731.62v-3Zm-15.15,9v-3h15.15v3Z"/><path class="cls-3" d="M384.43,31.12v1.76h.05a3.21,3.21,0,0,1,1.66-1.58,6.23,6.23,0,0,1,2.49-.49,5.88,5.88,0,0,1,2.63.55,5.34,5.34,0,0,1,1.86,1.5,6.58,6.58,0,0,1,1.12,2.18,8.87,8.87,0,0,1,.38,2.62,9.22,9.22,0,0,1-.36,2.62,6.19,6.19,0,0,1-1.11,2.15,5.2,5.2,0,0,1-1.86,1.45,6,6,0,0,1-2.61.53,6.44,6.44,0,0,1-1.07-.1,5.84,5.84,0,0,1-1.17-.33,4.54,4.54,0,0,1-1.1-.62,3.41,3.41,0,0,1-.87-1h-.05v6.7h-2.14v-18Zm7.69,4.62a4.8,4.8,0,0,0-.73-1.55,3.59,3.59,0,0,0-1.26-1.08,3.83,3.83,0,0,0-1.8-.4,3.53,3.53,0,0,0-3.07,1.55,4.7,4.7,0,0,0-.69,1.57,7.6,7.6,0,0,0,0,3.64,4.57,4.57,0,0,0,.72,1.58,3.69,3.69,0,0,0,1.27,1.09,4,4,0,0,0,1.89.41,3.65,3.65,0,0,0,1.85-.43A3.45,3.45,0,0,0,391.5,41a4.88,4.88,0,0,0,.66-1.61,8.56,8.56,0,0,0,.2-1.86A6.67,6.67,0,0,0,392.12,35.74Z"/><path class="cls-3" d="M397.64,35a6.09,6.09,0,0,1,1.21-2.16,5.67,5.67,0,0,1,2-1.45,7.27,7.27,0,0,1,5.45,0,5.71,5.71,0,0,1,2,1.45A6.09,6.09,0,0,1,409.47,35a8.69,8.69,0,0,1,.4,2.68,8.57,8.57,0,0,1-.4,2.67,6.1,6.1,0,0,1-1.21,2.15,5.6,5.6,0,0,1-2,1.44,7.47,7.47,0,0,1-5.45,0,5.57,5.57,0,0,1-2-1.44,6.1,6.1,0,0,1-1.21-2.15,8.57,8.57,0,0,1-.4-2.67A8.69,8.69,0,0,1,397.64,35Zm2.18,4.78a4.37,4.37,0,0,0,.87,1.54,3.74,3.74,0,0,0,1.3.94,4,4,0,0,0,3.15,0,3.74,3.74,0,0,0,1.3-.94,4.39,4.39,0,0,0,.87-1.54,7.2,7.2,0,0,0,0-4.2,4.54,4.54,0,0,0-.87-1.55,3.73,3.73,0,0,0-1.3-1A4,4,0,0,0,402,33a3.73,3.73,0,0,0-1.3,1,4.51,4.51,0,0,0-.87,1.55,7.17,7.17,0,0,0,0,4.2Z"/><path class="cls-3" d="M423.82,44.14l-2.64-10.35h-.05l-2.62,10.35h-2.32l-4.18-13h2.37l2.95,10.65h.05L420,31.12h2.34l2.72,10.65h.05L428,31.12h2.21l-4.15,13Z"/><path class="cls-3" d="M442.3,43.31a5.9,5.9,0,0,1-3.68,1.11,6.69,6.69,0,0,1-2.71-.5A5.34,5.34,0,0,1,434,42.5a6,6,0,0,1-1.17-2.17,10.39,10.39,0,0,1-.44-2.74,7.85,7.85,0,0,1,.45-2.72,6.53,6.53,0,0,1,1.27-2.14A5.82,5.82,0,0,1,436,31.33a5.92,5.92,0,0,1,2.45-.5,5.34,5.34,0,0,1,2.88.72,5.68,5.68,0,0,1,1.84,1.82,7.22,7.22,0,0,1,1,2.42,10.41,10.41,0,0,1,.21,2.49h-9.74a5.18,5.18,0,0,0,.2,1.62,3.65,3.65,0,0,0,.73,1.36,3.61,3.61,0,0,0,1.28.94,4.44,4.44,0,0,0,1.84.35,3.69,3.69,0,0,0,2.23-.63A3,3,0,0,0,442.07,40h2.11A5.2,5.2,0,0,1,442.3,43.31ZM441.78,35a3.67,3.67,0,0,0-.78-1.17,3.73,3.73,0,0,0-1.16-.78,3.69,3.69,0,0,0-1.47-.29,3.73,3.73,0,0,0-1.5.29,3.44,3.44,0,0,0-1.15.79A3.76,3.76,0,0,0,435,35a4.47,4.47,0,0,0-.33,1.42h7.48A4.41,4.41,0,0,0,441.78,35Z"/><path class="cls-3" d="M449.35,31.12v2.75h.05a5.78,5.78,0,0,1,1.91-2.34,4.8,4.8,0,0,1,2.87-.71v2.27a6.07,6.07,0,0,0-2.19.35,3.5,3.5,0,0,0-1.46,1,4.26,4.26,0,0,0-.81,1.65,8.94,8.94,0,0,0-.25,2.23v5.79h-2.14v-13Z"/><path class="cls-3" d="M465.81,43.31a5.9,5.9,0,0,1-3.68,1.11,6.69,6.69,0,0,1-2.71-.5,5.34,5.34,0,0,1-1.93-1.41,6,6,0,0,1-1.17-2.17,10.39,10.39,0,0,1-.44-2.74,7.85,7.85,0,0,1,.45-2.72,6.53,6.53,0,0,1,1.27-2.14,5.82,5.82,0,0,1,1.94-1.41,5.92,5.92,0,0,1,2.45-.5,5.34,5.34,0,0,1,2.88.72,5.68,5.68,0,0,1,1.84,1.82,7.22,7.22,0,0,1,1,2.42,10.41,10.41,0,0,1,.21,2.49h-9.74a5.18,5.18,0,0,0,.2,1.62,3.65,3.65,0,0,0,.73,1.36,3.61,3.61,0,0,0,1.28.94,4.44,4.44,0,0,0,1.84.35,3.69,3.69,0,0,0,2.23-.63A3,3,0,0,0,465.58,40h2.11A5.2,5.2,0,0,1,465.81,43.31ZM465.29,35a3.67,3.67,0,0,0-.78-1.17,3.73,3.73,0,0,0-1.16-.78,3.69,3.69,0,0,0-1.47-.29,3.73,3.73,0,0,0-1.5.29,3.44,3.44,0,0,0-1.15.79,3.76,3.76,0,0,0-.76,1.17,4.47,4.47,0,0,0-.33,1.42h7.48A4.41,4.41,0,0,0,465.29,35Z"/><path class="cls-3" d="M480.41,44.14V42.38h-.05a3.14,3.14,0,0,1-1.66,1.56,6.38,6.38,0,0,1-2.49.48,5.88,5.88,0,0,1-2.63-.55,5.44,5.44,0,0,1-1.86-1.48,6.47,6.47,0,0,1-1.12-2.17,8.9,8.9,0,0,1-.38-2.62,9.18,9.18,0,0,1,.37-2.62,6.16,6.16,0,0,1,1.11-2.15,5.32,5.32,0,0,1,1.86-1.46,5.9,5.9,0,0,1,2.61-.54,6.34,6.34,0,0,1,1.08.1,5.35,5.35,0,0,1,1.16.34,4.92,4.92,0,0,1,1.1.63,3.49,3.49,0,0,1,.87,1h.05V26.17h2.14v18Zm-7.69-4.62a4.83,4.83,0,0,0,.73,1.55,3.56,3.56,0,0,0,1.26,1.08,3.82,3.82,0,0,0,1.8.4A3.53,3.53,0,0,0,479.58,41a4.68,4.68,0,0,0,.69-1.57,7.6,7.6,0,0,0,.21-1.79,7.52,7.52,0,0,0-.23-1.85,4.56,4.56,0,0,0-.72-1.57,3.66,3.66,0,0,0-1.27-1.1,4,4,0,0,0-1.89-.41,3.7,3.7,0,0,0-1.84.43,3.43,3.43,0,0,0-1.21,1.13,4.94,4.94,0,0,0-.66,1.61,8.56,8.56,0,0,0-.2,1.86A6.63,6.63,0,0,0,472.72,39.52Z"/><path class="cls-3" d="M493.55,26.17v6.72h.05a3.21,3.21,0,0,1,1.66-1.58,6.23,6.23,0,0,1,2.49-.49,5.88,5.88,0,0,1,2.63.55,5.34,5.34,0,0,1,1.86,1.5,6.58,6.58,0,0,1,1.12,2.18,8.87,8.87,0,0,1,.38,2.62,9.22,9.22,0,0,1-.36,2.62,6.19,6.19,0,0,1-1.11,2.15,5.2,5.2,0,0,1-1.86,1.45,6,6,0,0,1-2.61.53,6.44,6.44,0,0,1-1.07-.1,5.84,5.84,0,0,1-1.17-.33,4.54,4.54,0,0,1-1.1-.62,3.41,3.41,0,0,1-.87-1h-.05v1.74h-2.14v-18Zm7.69,9.58a4.8,4.8,0,0,0-.73-1.55,3.59,3.59,0,0,0-1.26-1.08,3.83,3.83,0,0,0-1.8-.4,3.53,3.53,0,0,0-3.07,1.55,4.7,4.7,0,0,0-.69,1.57,7.6,7.6,0,0,0,0,3.64,4.57,4.57,0,0,0,.72,1.58,3.69,3.69,0,0,0,1.27,1.09,4,4,0,0,0,1.89.41,3.65,3.65,0,0,0,1.85-.43,3.45,3.45,0,0,0,1.2-1.13,4.88,4.88,0,0,0,.66-1.61,8.56,8.56,0,0,0,.2-1.86A6.67,6.67,0,0,0,501.24,35.74Z"/><path class="cls-3" d="M512.18,45.88a13.78,13.78,0,0,1-.74,1.61,4.46,4.46,0,0,1-.81,1.07,2.72,2.72,0,0,1-1,.6,3.72,3.72,0,0,1-1.25.19,5.7,5.7,0,0,1-.75,0,3.69,3.69,0,0,1-.73-.18v-2a3.69,3.69,0,0,0,.64.22,2.74,2.74,0,0,0,.62.09,1.84,1.84,0,0,0,1.1-.32,1.92,1.92,0,0,0,.67-.89l.88-2.19-5.16-12.94h2.42l3.8,10.65h.05l3.65-10.65h2.27Z"/></g></g></svg>