<svg xmlns="http://www.w3.org/2000/svg" viewBox="0 0 368.56 113.6"><defs><style>.cls-1{fill:#9a9a9a;}.cls-2{fill:#fff;}.cls-3{fill:#00caac;}</style></defs><title>ct_top_logo_merged_horizontal</title><g id="レイヤー_2" data-name="レイヤー 2"><g id="レイヤー_1-2" data-name="レイヤー 1"><path class="cls-1" d="M152.2,88.35h12.53c4.89,0,8.16,1.37,8.16,5.32a4.52,4.52,0,0,1-2.4,4.32,5.56,5.56,0,0,1,3.2,5.12c0,3.92-3.12,6-8.18,6H152.2ZM165,96.56c2.66,0,3.83-.66,3.83-2.4s-1.17-2.43-3.83-2.43h-8.73v4.84Zm.11,9.22c2.58,0,4.52-.51,4.52-3,0-2.18-1.77-2.86-4.52-2.86h-8.84v5.84Z"/><path class="cls-1" d="M183.49,88.35h4.08v20.81h-4.08Z"/><path class="cls-1" d="M196.47,109.15v-2L211,91.84H197.21V88.35H217v2.29l-14.14,15h14.48v3.49Z"/><path class="cls-1" d="M226.64,88.35h12.51c4.92,0,8.47,1.12,8.47,6.21a5.89,5.89,0,0,1-5.81,6.12l6.38,8.47h-5l-6-8.19h-6.44v8.19h-4.06Zm11.91,9.24c3.32,0,5-.49,5-2.95s-1.69-2.92-5-2.92h-7.84v5.87Z"/><path class="cls-1" d="M257.29,88.35H276v3.49H261.36v4.84h12.56v3.49H261.36v5.5H276.3v3.49h-19Z"/><path class="cls-1" d="M292.86,88.35h4.64l10.1,20.81h-4.29l-2.17-4.78h-12l-2.2,4.78h-4.32Zm6.67,12.53-4.35-9.27-4.35,9.27Z"/><path class="cls-1" d="M336.06,101.74c-.4,2.32-2.06,7.93-11.62,7.93-6.58,0-11.76-3.66-11.76-11.25,0-6.07,3.81-10.59,12.08-10.59,9.3,0,10.68,6,11,7.15h-4.06c-.23-.72-1.83-3.66-6.7-3.66-5.75,0-8.16,3.23-8.16,7.56,0,4.78,3.46,7.3,7.93,7.3,4.75,0,6.84-2.83,7.24-4.43Z"/><path class="cls-1" d="M364.49,81.69v6.24H349.34V81.69h-4.08v27.46h4.08v-6.24h15.15v6.24h4.08V81.69Zm0,9.24v3H349.34v-3Zm-15.15,9v-3h15.15v3Z"/><path class="cls-1" d="M2.14,95.37v1.76h.05a3.21,3.21,0,0,1,1.66-1.58,6.23,6.23,0,0,1,2.49-.49A5.88,5.88,0,0,1,9,95.62a5.34,5.34,0,0,1,1.86,1.5A6.58,6.58,0,0,1,12,99.3a8.87,8.87,0,0,1,.38,2.62,9.22,9.22,0,0,1-.36,2.62,6.19,6.19,0,0,1-1.11,2.15A5.2,5.2,0,0,1,9,108.13a6,6,0,0,1-2.61.53,6.44,6.44,0,0,1-1.07-.1,5.84,5.84,0,0,1-1.17-.33,4.54,4.54,0,0,1-1.1-.62,3.41,3.41,0,0,1-.87-1H2.14v6.7H0v-18ZM9.83,100a4.8,4.8,0,0,0-.73-1.55,3.59,3.59,0,0,0-1.26-1.08A3.83,3.83,0,0,0,6,97a3.69,3.69,0,0,0-1.84.43A3.7,3.7,0,0,0,3,98.51a4.7,4.7,0,0,0-.69,1.57,7.6,7.6,0,0,0,0,3.64A4.57,4.57,0,0,0,3,105.29a3.69,3.69,0,0,0,1.27,1.09,4,4,0,0,0,1.89.41A3.65,3.65,0,0,0,8,106.37a3.45,3.45,0,0,0,1.2-1.13,4.88,4.88,0,0,0,.66-1.61,8.56,8.56,0,0,0,.2-1.86A6.67,6.67,0,0,0,9.83,100Z"/><path class="cls-1" d="M15.36,99.21A6.09,6.09,0,0,1,16.56,97a5.67,5.67,0,0,1,2-1.45,6.59,6.59,0,0,1,2.72-.53A6.57,6.57,0,0,1,24,95.6,5.71,5.71,0,0,1,26,97a6.09,6.09,0,0,1,1.21,2.16,8.69,8.69,0,0,1,.4,2.68,8.57,8.57,0,0,1-.4,2.67A6.1,6.1,0,0,1,26,106.71a5.6,5.6,0,0,1-2,1.44,6.77,6.77,0,0,1-2.73.51,6.8,6.8,0,0,1-2.72-.51,5.57,5.57,0,0,1-2-1.44,6.1,6.1,0,0,1-1.21-2.15,8.57,8.57,0,0,1-.4-2.67A8.69,8.69,0,0,1,15.36,99.21ZM17.53,104a4.37,4.37,0,0,0,.87,1.54,3.74,3.74,0,0,0,1.3.94,4,4,0,0,0,3.15,0,3.74,3.74,0,0,0,1.3-.94A4.39,4.39,0,0,0,25,104a7.2,7.2,0,0,0,0-4.2,4.54,4.54,0,0,0-.87-1.55,3.73,3.73,0,0,0-1.3-1,4,4,0,0,0-3.15,0,3.73,3.73,0,0,0-1.3,1,4.51,4.51,0,0,0-.87,1.55,7.17,7.17,0,0,0,0,4.2Z"/><path class="cls-1" d="M41.54,108.39,38.89,98h-.05l-2.62,10.35H33.91l-4.18-13H32.1L35,106h.05l2.62-10.65h2.34L42.77,106h.05l2.92-10.65H48l-4.15,13Z"/><path class="cls-1" d="M60,107.55a5.9,5.9,0,0,1-3.68,1.11,6.69,6.69,0,0,1-2.71-.5,5.34,5.34,0,0,1-1.93-1.41,6,6,0,0,1-1.17-2.17,10.39,10.39,0,0,1-.44-2.74,7.85,7.85,0,0,1,.45-2.72A6.53,6.53,0,0,1,51.82,97a5.82,5.82,0,0,1,1.94-1.41,5.92,5.92,0,0,1,2.45-.5,5.34,5.34,0,0,1,2.88.72,5.68,5.68,0,0,1,1.84,1.82,7.22,7.22,0,0,1,1,2.42,10.41,10.41,0,0,1,.21,2.49H52.36a5.18,5.18,0,0,0,.2,1.62,3.65,3.65,0,0,0,.73,1.36,3.61,3.61,0,0,0,1.28.94,4.44,4.44,0,0,0,1.84.35,3.69,3.69,0,0,0,2.23-.63,3,3,0,0,0,1.15-1.91H61.9A5.2,5.2,0,0,1,60,107.55ZM59.5,99.2A3.67,3.67,0,0,0,58.72,98a3.73,3.73,0,0,0-1.16-.78A3.69,3.69,0,0,0,56.09,97a3.73,3.73,0,0,0-1.5.29,3.44,3.44,0,0,0-1.15.79,3.76,3.76,0,0,0-.76,1.17,4.47,4.47,0,0,0-.33,1.42h7.48A4.41,4.41,0,0,0,59.5,99.2Z"/><path class="cls-1" d="M67.06,95.37v2.75h.05A5.78,5.78,0,0,1,69,95.78a4.8,4.8,0,0,1,2.87-.71v2.27a6.07,6.07,0,0,0-2.19.35,3.5,3.5,0,0,0-1.46,1,4.26,4.26,0,0,0-.81,1.65,8.94,8.94,0,0,0-.25,2.23v5.79H65v-13Z"/><path class="cls-1" d="M83.53,107.55a5.9,5.9,0,0,1-3.68,1.11,6.69,6.69,0,0,1-2.71-.5,5.34,5.34,0,0,1-1.93-1.41A6,6,0,0,1,74,104.58a10.39,10.39,0,0,1-.44-2.74,7.85,7.85,0,0,1,.45-2.72A6.53,6.53,0,0,1,75.33,97a5.82,5.82,0,0,1,1.94-1.41,5.92,5.92,0,0,1,2.45-.5,5.34,5.34,0,0,1,2.88.72,5.68,5.68,0,0,1,1.84,1.82,7.22,7.22,0,0,1,1,2.42,10.41,10.41,0,0,1,.21,2.49H75.87a5.18,5.18,0,0,0,.2,1.62,3.65,3.65,0,0,0,.73,1.36,3.61,3.61,0,0,0,1.28.94,4.44,4.44,0,0,0,1.84.35,3.69,3.69,0,0,0,2.23-.63,3,3,0,0,0,1.15-1.91h2.11A5.2,5.2,0,0,1,83.53,107.55ZM83,99.2A3.67,3.67,0,0,0,82.23,98a3.73,3.73,0,0,0-1.16-.78A3.69,3.69,0,0,0,79.6,97a3.73,3.73,0,0,0-1.5.29A3.44,3.44,0,0,0,77,98a3.76,3.76,0,0,0-.76,1.17,4.47,4.47,0,0,0-.33,1.42h7.48A4.41,4.41,0,0,0,83,99.2Z"/><path class="cls-1" d="M98.13,108.39v-1.76h-.05a3.14,3.14,0,0,1-1.66,1.56,6.38,6.38,0,0,1-2.49.48,5.88,5.88,0,0,1-2.63-.55,5.44,5.44,0,0,1-1.86-1.48,6.47,6.47,0,0,1-1.12-2.17,8.9,8.9,0,0,1-.38-2.62,9.18,9.18,0,0,1,.37-2.62,6.16,6.16,0,0,1,1.11-2.15,5.32,5.32,0,0,1,1.86-1.46,5.9,5.9,0,0,1,2.61-.54,6.34,6.34,0,0,1,1.08.1,5.35,5.35,0,0,1,1.16.34,4.92,4.92,0,0,1,1.1.63,3.49,3.49,0,0,1,.87,1h.05V90.41h2.14v18Zm-7.69-4.62a4.83,4.83,0,0,0,.73,1.55,3.56,3.56,0,0,0,1.26,1.08,3.82,3.82,0,0,0,1.8.4,3.53,3.53,0,0,0,3.07-1.55,4.68,4.68,0,0,0,.69-1.57,7.6,7.6,0,0,0,.21-1.79A7.52,7.52,0,0,0,98,100a4.56,4.56,0,0,0-.72-1.57A3.66,3.66,0,0,0,96,97.37,4,4,0,0,0,94.1,97a3.7,3.7,0,0,0-1.84.43,3.43,3.43,0,0,0-1.21,1.13,4.94,4.94,0,0,0-.66,1.61,8.56,8.56,0,0,0-.2,1.86A6.63,6.63,0,0,0,90.44,103.77Z"/><path class="cls-1" d="M111.27,90.41v6.72h.05A3.21,3.21,0,0,1,113,95.56a6.23,6.23,0,0,1,2.49-.49,5.88,5.88,0,0,1,2.63.55,5.34,5.34,0,0,1,1.86,1.5,6.58,6.58,0,0,1,1.12,2.18,8.87,8.87,0,0,1,.38,2.62,9.22,9.22,0,0,1-.36,2.62,6.19,6.19,0,0,1-1.11,2.15,5.2,5.2,0,0,1-1.86,1.45,6,6,0,0,1-2.61.53,6.44,6.44,0,0,1-1.07-.1,5.84,5.84,0,0,1-1.17-.33,4.54,4.54,0,0,1-1.1-.62,3.41,3.41,0,0,1-.87-1h-.05v1.74h-2.14v-18ZM119,100a4.8,4.8,0,0,0-.73-1.55A3.59,3.59,0,0,0,117,97.36a3.83,3.83,0,0,0-1.8-.4,3.53,3.53,0,0,0-3.07,1.55,4.7,4.7,0,0,0-.69,1.57,7.6,7.6,0,0,0,0,3.64,4.57,4.57,0,0,0,.72,1.58,3.69,3.69,0,0,0,1.27,1.09,4,4,0,0,0,1.89.41,3.65,3.65,0,0,0,1.85-.43,3.45,3.45,0,0,0,1.2-1.13,4.88,4.88,0,0,0,.66-1.61,8.56,8.56,0,0,0,.2-1.86A6.67,6.67,0,0,0,119,100Z"/><path class="cls-1" d="M129.9,110.12a13.78,13.78,0,0,1-.74,1.61,4.46,4.46,0,0,1-.81,1.07,2.72,2.72,0,0,1-1,.6,3.72,3.72,0,0,1-1.25.19,5.7,5.7,0,0,1-.75,0,3.69,3.69,0,0,1-.73-.18v-2a3.69,3.69,0,0,0,.64.22,2.74,2.74,0,0,0,.62.09,1.84,1.84,0,0,0,1.1-.32,1.92,1.92,0,0,0,.67-.89l.88-2.19-5.16-12.94h2.42l3.8,10.65h.05l3.65-10.65h2.27Z"/><polygon class="cls-2" points="227.95 46.77 216.25 46.77 223.71 11.69 235.41 11.69 227.95 46.77"/><polygon class="cls-2" points="252.21 70.16 240.52 70.16 252.95 11.69 264.64 11.69 252.21 70.16"/><polygon class="cls-2" points="151.48 21.44 152.3 17.54 128.92 17.54 132.65 0 120.95 0 117.22 17.54 93.83 17.54 93.01 21.44 116.39 21.44 113.08 37.03 89.69 37.03 88.86 40.93 112.25 40.93 108.52 58.47 120.22 58.47 123.94 40.93 147.33 40.93 148.16 37.03 124.77 37.03 128.09 21.44 151.48 21.44"/><polygon class="cls-2" points="181.41 27.29 183.49 17.54 171.79 17.54 169.72 27.29 158.03 27.29 157.2 31.18 168.89 31.18 163.09 58.47 174.79 58.47 180.59 31.18 192.28 31.18 188.97 46.77 200.66 46.77 204.8 27.29 181.41 27.29"/><polygon class="cls-2" points="320.5 33.13 291.27 33.13 295.82 11.69 284.13 11.69 274.19 58.47 285.88 58.47 290.44 37.03 319.67 37.03 320.5 33.13"/><polygon class="cls-2" points="339.33 54.57 348.44 11.69 336.75 11.69 326.81 58.47 367.74 58.47 368.56 54.57 339.33 54.57"/><polygon class="cls-3" points="0 34.29 0 20.55 20.55 0 34.29 0 28.28 28.28 0 34.29"/><polygon class="cls-3" points="34.29 70.16 20.55 70.16 0 49.61 0 35.87 28.28 41.88 34.29 70.16"/><polygon class="cls-3" points="70.16 35.87 70.16 49.61 49.61 70.16 35.87 70.16 41.88 41.88 70.16 35.87"/><polygon class="cls-3" points="35.87 0 49.61 0 70.16 20.55 70.16 34.29 41.88 28.28 35.87 0"/></g></g></svg>