<svg xmlns="http://www.w3.org/2000/svg" width="108.28" height="21.98" viewBox="0 0 108.28 21.98"><title>check</title><g id="レイヤー_2" data-name="レイヤー 2"><g id="レイヤー_2-2" data-name="レイヤー 2"><path d="M14.75,18c-.12.2-.23.38-.36.57s-.17.43-.31.61-.34.29-.5.46-.21.44-.39.58-.28.4-.46.52a5.27,5.27,0,0,1-.59.37c-.19.11-.48,0-.69.12s-.46,0-.68.09-.36.48-.59.53a5.66,5.66,0,0,1-.72.07c-.23,0-.49-.24-.73-.23s-.46.08-.7.08H7.39l-.65-.07c-.22,0-.47.17-.68.12s-.41-.2-.62-.26-.32-.36-.52-.44-.61.08-.84,0a7.8,7.8,0,0,1-.7-.38,5.87,5.87,0,0,1-.65-.46c-.2-.17-.29-.47-.48-.65s-.35-.34-.5-.52-.13-.49-.26-.68S1.14,18,1,17.83s-.24-.4-.32-.62a6.83,6.83,0,0,1-.13-.68c-.06-.22,0-.46,0-.69s0-.48-.06-.74-.13-.48-.15-.73-.25-.49-.25-.75.19-.43.19-.65S0,12.55,0,12.33s.15-.43.15-.64,0-.43,0-.65S0,10.6,0,10.39s.07-.44.08-.65.13-.43.13-.64.09-.43.1-.64S.22,8,.24,7.7s-.1-.52-.08-.76.19-.5.23-.74,0-.47.08-.69.4-.35.47-.57,0-.49.09-.7a5.63,5.63,0,0,1,.24-.69c.12-.2.44-.26.59-.45s.3-.35.47-.53.32-.42.52-.58.31-.47.52-.62.55-.12.77-.24A6.51,6.51,0,0,1,4.86.82c.2-.08.37-.24.58-.31s.48.12.69.08.39-.23.61-.26L7.38.25c.22,0,.43,0,.65,0s.47.06.71.08.51-.3.74-.27.43.34.66.39.5,0,.72.05a6.36,6.36,0,0,1,.66.18c.21.09.29.43.49.54a6.46,6.46,0,0,1,.6.27c.19.13.38.24.55.38s.47.17.64.34a5.78,5.78,0,0,1,.5.49c.15.18,0,.59.1.78s.35.31.47.52a7.33,7.33,0,0,1,.45.64c.1.23.14.5.22.75s0,.53,0,.79.23.36.27.62c-.32.13-.31.2-.66.2s-.35.08-.7.08-.35-.2-.7-.2-.36-.17-.71-.17-.35.37-.71.37S12,7,11.69,6.85a4.43,4.43,0,0,0-.32-.7c-.11-.26-.37-.41-.52-.64s-.18-.53-.37-.73A2.21,2.21,0,0,0,10,4.39a3.3,3.3,0,0,0-.57-.34c-.21-.06-.45,0-.68,0S8.3,4,8.06,4a3.67,3.67,0,0,0-.75.11c-.27.05-.56-.06-.8,0a3.66,3.66,0,0,0-.68.25c-.19.13-.25.43-.41.6a3.47,3.47,0,0,0-.59.68,2.45,2.45,0,0,0-.17.54c0,.17,0,.36-.08.56s-.26.5-.28.82.07.55.06.85,0,.42,0,.64-.17.41-.17.63.3.42.3.65-.31.42-.31.64.3.43.3.64-.28.43-.28.64,0,.44,0,.64,0,.44,0,.63.39.57.42.83-.24.63-.2.87a5.51,5.51,0,0,0,.22.54c0,.2.24.32.32.47a3.52,3.52,0,0,0,.4.8,2.85,2.85,0,0,0,.58.4,4,4,0,0,0,.57.42c.24.1.53,0,.8.06s.49.27.76.27a4.55,4.55,0,0,0,.67-.08,4.73,4.73,0,0,0,.68-.07,3.32,3.32,0,0,0,.64-.27,2.79,2.79,0,0,0,.48-.49,4.63,4.63,0,0,0,.43-.71,4.63,4.63,0,0,0,.48-.68,3.61,3.61,0,0,0,.27-.67,1.26,1.26,0,0,1,.66-.13c.35,0,.35,0,.7,0s.35-.14.7-.14.36.13.71.13.35.13.71.13.35-.16.68,0c0,.27-.13.44-.18.69s.1.58,0,.82-.47.38-.57.62A7,7,0,0,1,14.75,18Z" fill="#007130"/><path d="M32.29,21.57c-.25-.27,0-.22,0-.59s-.19-.38-.19-.75-.12-.37-.12-.74.28-.37.28-.75-.11-.37-.11-.74,0-.37,0-.75,0-.37,0-.74.18-.37.18-.74.06-.37.06-.75-.15-.37-.15-.75.16-.37.16-.75,0-.43-.25-.7-.32,0-.68,0-.36,0-.72,0-.36-.11-.72-.11-.36.2-.72.2h-.73c-.36,0-.36-.17-.72-.17s-.36-.23-.72-.23-.36.31-.72.31-.37-.25-.73-.25-.48-.12-.74.14-.11.38-.11.75.33.37.33.74-.3.37-.3.74.2.38.2.75-.28.37-.28.74.3.38.3.75-.32.37-.32.74.11.37.11.74.17.38.17.75.09.37.09.75-.16.37-.16.75.16.4-.1.67-.26.1-.61.1-.35-.11-.69-.11-.35-.09-.7-.09-.34.18-.69.18-.35.2-.7.2-.59.18-.83-.07.11-.49.11-.85-.06-.35-.06-.71.2-.35.2-.71-.15-.35-.15-.71.07-.35.07-.71.13-.35.13-.71-.22-.35-.22-.71,0-.35,0-.71-.08-.35-.08-.71.14-.36.14-.71-.14-.36-.14-.71.23-.35.23-.71-.12-.35-.12-.7,0-.36,0-.71.17-.36.17-.71-.13-.36-.13-.72,0-.35,0-.71.09-.35.09-.71-.37-.35-.37-.71.12-.36.12-.71,0-.36,0-.72-.08-.35-.08-.71.12-.36.12-.71,0-.36,0-.72.19-.35.19-.71-.32-.36-.32-.71.34-.36.34-.72-.2-.36-.2-.72-.11-.36-.11-.72-.14-.45.1-.71.35.14.69.14.35-.33.7-.33.34.19.69.19h.7c.35,0,.35,0,.69,0s.48-.29.72,0,0,.38,0,.74.06.36.06.73-.25.36-.25.72.09.36.09.73.24.36.24.73-.3.36-.3.72.14.37.14.73.06.36.06.72,0,.37,0,.73.05.37.05.73S25,8,25,8.35s-.39.51-.14.77.4.1.76.1.36-.06.72-.06.36.06.73.06S27.44,9,27.8,9s.36-.06.72-.06.36,0,.72,0,.36.26.72.26.37-.29.73-.29.36.13.73.13.44.26.69,0-.18-.34-.18-.7.3-.36.3-.73S32,7.27,32,6.91s.08-.36.08-.73.23-.36.23-.72S32,5.09,32,4.73s.36-.36.36-.73S32,3.64,32,3.28s.1-.37.1-.73.09-.37.09-.73S32,1.45,32,1.09,31.77.5,32,.24s.47.26.81.26.35.05.7.05.34-.15.69-.15.35.16.7.16.35-.37.69-.37.48-.1.72.15,0,.37,0,.73-.11.35-.11.71.15.35.15.71,0,.35,0,.71,0,.35,0,.71,0,.35,0,.71.11.35.11.71-.06.36-.06.71.08.36.08.71,0,.36,0,.71-.38.36-.38.71.1.36.1.71.27.35.27.71-.29.35-.29.7.14.36.14.72.15.35.15.71-.05.35-.05.71-.11.35-.11.71-.2.36-.2.71.3.36.3.71-.12.36-.12.72.2.35.2.71,0,.36,0,.72-.18.35-.18.71.07.36.07.71.08.36.08.72-.1.35-.1.71-.07.36-.07.72.24.36.24.72-.06.36-.31.62-.24.08-.59.08-.35.15-.69.15-.35,0-.7,0-.34-.07-.69-.07-.36-.16-.7-.12S32.53,21.83,32.29,21.57Z" fill="#007130"/><path d="M42.48,21.64c-.25-.25-.11-.28-.11-.64s-.16-.35-.16-.71,0-.35,0-.71.06-.35.06-.71,0-.35,0-.71.07-.35.07-.71.17-.35.17-.71.08-.35.08-.71-.33-.35-.33-.71.24-.36.24-.71-.19-.36-.19-.71.25-.35.25-.71-.34-.35-.34-.7.14-.36.14-.71-.14-.36-.14-.71,0-.36,0-.72.29-.35.29-.71-.11-.35-.11-.71-.07-.35-.07-.71,0-.36,0-.71.21-.36.21-.72-.22-.35-.22-.71.17-.36.17-.71.06-.36.06-.72-.24-.35-.24-.71,0-.36,0-.71.22-.36.22-.72,0-.36,0-.72-.17-.36-.17-.72,0-.35.22-.61.24,0,.59,0,.35-.12.7-.12.35-.16.7-.16.35.05.7.05.35.08.7.08.35-.11.7-.11.35-.09.7-.09.35.05.71.05.35.31.7.31.35-.33.7-.33.35.11.71.11.35.09.7.09.35-.2.71-.2.35.36.7.36.35-.34.7-.34.36,0,.71,0,.35,0,.7,0,.36.09.71.09.36.28.71.28.46-.45.7-.2,0,.37,0,.73.15.38.15.75-.15.37-.15.74.12.38.12.75,0,.36-.25.63-.23.08-.58.08-.35-.17-.71-.17-.35.13-.7.13-.35.18-.71.18-.35-.26-.7-.26-.36.22-.71.22-.35.09-.71.09S51.18,4,50.83,4s-.36.13-.71.13-.35.09-.71.09-.35.06-.7.06-.36-.36-.71-.36-.36.2-.72.2-.48-.29-.73,0,0,.38,0,.74-.07.36-.07.71.12.36.12.72.11.35.11.71.07.36.07.72-.28.36-.28.72-.16.45.09.71.34.2.69.2.35-.3.7-.3.35.08.7.08.35.19.7.19.36-.3.71-.3.35.14.7.14.35,0,.7,0,.35-.16.7-.16h.7c.36,0,.36.16.71.16s.35-.08.7-.08.57-.23.82,0-.22.47-.22.84,0,.37,0,.74.21.37.21.74-.17.38-.17.75.41.59.15.86-.47.07-.82.07-.35-.32-.7-.32-.35.2-.7.2-.35-.12-.7-.12-.35-.12-.7-.12-.35,0-.71,0-.35,0-.7,0-.35.34-.7.34-.35-.15-.7-.15H48c-.36,0-.36,0-.71,0s-.55-.39-.79-.14.23.46.23.83.06.37.06.73-.27.37-.27.74.21.37.21.74-.25.38-.25.75.31.37.31.74-.37.39-.11.66.25,0,.61,0,.35.23.7.23.35-.2.7-.2.36-.07.71-.07h.71c.35,0,.35,0,.7,0s.36,0,.71,0,.35.3.71.3.35,0,.7,0,.36-.2.71-.2.35,0,.71,0,.35.07.71.07.35-.2.71-.2.32,0,.56.27,0,.23,0,.6.3.37.3.74.09.37.09.74-.38.38-.38.75.47.51.21.79-.39-.21-.74-.21-.35,0-.7,0-.35.07-.69.07-.35-.11-.7-.11-.35.34-.71.34-.35-.27-.7-.27-.35,0-.7,0-.35.15-.7.15-.35.11-.7.11-.36-.15-.71-.15-.35.16-.7.16-.35-.27-.71-.27h-.7c-.35,0-.35,0-.71,0s-.35.12-.7.12-.35-.13-.7-.13-.36.23-.71.23-.35-.27-.71-.27-.34.14-.69.19S42.73,21.89,42.48,21.64Z" fill="#007130"/><path d="M75.49,18c-.12.2.06.59-.06.77s-.56.17-.7.35-.19.44-.35.6a5.65,5.65,0,0,1-.57.38,4.73,4.73,0,0,1-.56.35c-.19.13-.2.55-.39.66s-.45.13-.66.22-.5-.07-.72,0-.37.42-.6.48-.51-.19-.75-.15-.44.2-.68.22-.47-.19-.71-.19-.43,0-.64,0-.48.33-.69.3-.45,0-.66-.1-.44-.11-.65-.18-.34-.36-.54-.44-.44-.27-.66-.39-.57-.07-.79-.21-.39-.35-.59-.52-.49-.25-.67-.44a4.75,4.75,0,0,1-.44-.59c-.16-.18-.16-.48-.29-.67s-.17-.44-.28-.65-.34-.35-.42-.56a5.46,5.46,0,0,1-.32-.64c-.06-.22-.15-.45-.19-.68s.25-.54.22-.79-.21-.48-.23-.74-.17-.49-.18-.75S61,13.19,61,13s0-.42,0-.64-.16-.42-.16-.64.3-.43.3-.65-.15-.44-.15-.65,0-.44,0-.65-.17-.43-.17-.64.15-.43.15-.64.2-.5.22-.75-.34-.54-.32-.78.31-.47.35-.72.16-.43.21-.65.18-.41.26-.62a6.8,6.8,0,0,1,.14-.68,5.37,5.37,0,0,1,.29-.65,5.86,5.86,0,0,1,.47-.54c.15-.18.34-.32.51-.49s.23-.52.43-.69a6.7,6.7,0,0,1,.7-.37,6.51,6.51,0,0,1,.72-.31c.23-.13.34-.52.58-.62s.45,0,.66-.12.42-.13.64-.18.44,0,.66,0,.43-.13.65-.15h.66c.24,0,.49-.11.72-.1s.48.12.72.15.43.28.66.34.44.15.67.22.43.09.64.18.47,0,.66.16.24.45.43.58.51,0,.69.19.28.37.45.53.47.2.62.38.2.43.33.62.11.47.22.68.41.37.51.61,0,.55.08.8.34.44.4.7,0,.4,0,.66c-.33.13-.3.19-.65.19s-.35-.08-.71-.08-.35-.09-.7-.09-.35,0-.71,0-.35.25-.7.25-.35-.14-.68-.26c-.07-.28-.3-.4-.41-.65a5.25,5.25,0,0,0-.67-1.54,3.29,3.29,0,0,0-.61-.34,3.18,3.18,0,0,0-.64-.19A4.19,4.19,0,0,0,69.42,4a4.75,4.75,0,0,0-.65,0c-.28,0-.56-.19-.81-.15s-.46.31-.7.41-.34.29-.53.42a3,3,0,0,0-.51.41c-.2.22-.48.37-.62.64a2.25,2.25,0,0,0-.27.49c0,.17,0,.38,0,.58s-.29.49-.32.81.23.56.21.86,0,.41,0,.64.08.41.07.63-.21.41-.21.64S65,10.82,65,11s0,.43,0,.64.25.43.25.63-.36.45-.35.65.13.43.14.63.31.56.33.82-.2.62-.16.87.3.32.35.49a2.36,2.36,0,0,0,.14.51,3.49,3.49,0,0,0,.39.8,2.35,2.35,0,0,0,.54.45,3.93,3.93,0,0,0,.66.23c.23.1.41.42.68.47s.53-.19.81-.19.46.18.67.15.41-.22.61-.29.52,0,.7-.07.18-.48.33-.63.57-.25.72-.48.08-.58.19-.84a6.76,6.76,0,0,0,.36-.77c.33-.12.37.13.72.13s.35-.14.7-.14.35.11.71.11.35-.11.7-.11.36.09.71.09.39-.19.72-.06c0,.26,0,.56,0,.81s-.1.52-.18.77-.15.52-.25.75S75.61,17.79,75.49,18Z" fill="#007130"/><path d="M93.83,21.78c-.3-.17-.1-.39-.27-.69s-.38-.19-.55-.49,0-.42-.12-.73-.38-.18-.55-.48-.14-.33-.31-.63,0-.4-.16-.71-.14-.32-.31-.62-.2-.29-.37-.6-.3-.23-.47-.53-.22-.28-.39-.58-.15-.31-.32-.62-.16-.31-.33-.62-.07-.36-.24-.66,0-.4-.19-.7-.48-.13-.65-.44.13-.69-.22-.72-.25.3-.48.57-.13.36-.36.63-.43.1-.66.38-.09.39-.32.67-.32.2-.55.47a1.36,1.36,0,0,0-.39.62c-.12.33.16.35.16.71s0,.35,0,.71-.41.36-.41.71.25.36.25.71,0,.36,0,.71,0,.36,0,.72.11.36.11.71-.31.36-.31.72.51.57.26.83-.46-.12-.81-.12-.34-.11-.69-.11-.34,0-.69,0-.35.18-.7.18-.35.12-.7.12-.44.09-.69-.16,0-.35,0-.71-.19-.35-.19-.71,0-.35,0-.71,0-.35,0-.71.28-.35.28-.71-.24-.35-.24-.71-.07-.35-.07-.71V16c0-.35.17-.35.17-.71s0-.36,0-.71.19-.36.19-.71,0-.35,0-.71.06-.35.06-.7-.19-.36-.19-.71.22-.36.22-.71-.4-.36-.4-.72.06-.35.06-.71.26-.35.26-.71.08-.35.08-.71-.15-.36-.15-.71,0-.36,0-.72-.16-.35-.16-.71.17-.36.17-.71-.15-.36-.15-.72.19-.35.19-.71.12-.36.12-.71-.29-.36-.29-.72.24-.36.24-.72-.2-.36-.2-.72-.28-.56,0-.82.45.27.8.27h.69c.35,0,.35-.06.69-.06h.7c.35,0,.35-.2.7-.2s.38-.07.62.18.13.28.13.64-.09.35-.09.71,0,.36,0,.71.17.36.17.72-.35.35-.35.71.21.36.21.72.09.36.09.71-.12.36-.12.72-.17.35-.17.71.18.36.18.72.13.36.13.72-.24.36-.24.72-.26.67.08.81.19-.42.41-.69.16-.32.38-.59S86.73,8.3,87,8s.32-.19.54-.46.18-.31.4-.58.06-.4.29-.67.45-.09.67-.37.16-.32.38-.6,0-.44.23-.71.2-.29.43-.56.28-.22.5-.5.21-.28.43-.55.26-.25.48-.52.17-.32.4-.59.24-.26.47-.53.19-.3.42-.58.32-.13.64-.28.28-.25.64-.25.36.29.72.29.36-.19.72-.19.36-.1.73-.1.36.25.72.25h.73c.36,0,.56-.49.71-.16s-.27.24-.51.52l-.47.56c-.23.28-.15.35-.39.63s-.21.3-.44.58-.43.12-.67.41,0,.49-.21.78-.4.15-.63.43-.36.18-.59.47-.22.29-.46.58-.16.34-.4.62-.28.24-.52.52-.18.33-.42.62-.27.25-.51.54,0,.45-.27.74-.57.11-.61.48.17.34.35.64.13.33.31.63.34.22.52.52,0,.4.2.7.15.32.33.63.4.17.58.48.2.29.38.6-.1.48.08.78.32.23.5.53.31.23.49.53,0,.39.23.7.19.3.37.61.23.27.41.58,0,.43.16.73.33.22.51.53.14.33.33.64.34.21.52.51,0,.4.22.71.08.37.26.67.15.33.33.64.62.15.45.47-.25.11-.6.11-.34.07-.69.07-.34-.24-.69-.24-.35-.06-.69-.06-.35.26-.7.26-.39-.35-.74-.28S94.13,22,93.83,21.78Z" fill="#007130"/><path d="M107.33,15.1c-.27.25-.44,0-.81,0s-.36,0-.73,0-.37-.13-.74-.13-.56.44-.83.18.2-.48.18-.84-.31-.35-.33-.71-.07-.36-.1-.73.4-.39.37-.75,0-.37-.07-.73,0-.37-.06-.74-.11-.36-.13-.72-.14-.36-.17-.73.09-.37.07-.73-.29-.35-.31-.72.13-.38.1-.75.15-.37.12-.74,0-.37,0-.74,0-.37,0-.73-.41-.35-.44-.71.25-.39.23-.75,0-.38,0-.74,0-.38,0-.75-.35-.35-.37-.72-.2-.51,0-.79.4,0,.74,0,.34.12.69.12.34-.22.68-.22.34.18.68.18.35,0,.69,0,.35,0,.69,0,.41-.29.64,0,.11.33.08.69-.26.35-.28.71.15.38.12.74.06.37,0,.74,0,.36,0,.73-.13.36-.15.73-.07.36-.09.72-.16.36-.18.73.09.37.07.74-.17.35-.19.72.34.39.32.76-.32.35-.34.71.17.38.14.75-.23.36-.26.72.16.38.13.75,0,.37,0,.73.09.38.06.75,0,.37,0,.74-.52.4-.45.76S107.6,14.84,107.33,15.1Zm-3.68,6.69c-.24-.23,0-.4,0-.74s0-.33,0-.66.12-.33.12-.66-.22-.34-.22-.67.27-.33.27-.67-.47-.54-.23-.78.45-.09.8-.09.34.42.68.42.35,0,.69,0h.69c.35,0,.35-.09.7-.09s.46-.35.71-.11-.1.36-.1.69.27.33.27.66-.16.33-.16.67-.16.33-.16.66,0,.34,0,.67.26.3,0,.54-.22.34-.56.34-.34-.27-.69-.27-.34-.07-.69-.07-.34-.05-.69-.05-.32.23-.65.32S103.9,22,103.65,21.79Z" fill="#007130"/></g></g></svg>