<svg xmlns="http://www.w3.org/2000/svg" width="135.79" height="135.79" viewBox="0 0 135.79 135.79"><title>num03</title><g id="レイヤー_2" data-name="レイヤー 2"><g id="bg"><path d="M67.88,135.79V135c-.48,0-1,.33-1.43.32s-1,0-1.43-.06-1,.28-1.45.25-.92-.6-1.39-.64l-1.43-.12c-.47,0-1,.31-1.47.25s-1-.08-1.43-.15-.85-.69-1.32-.77-.92-.23-1.39-.32-1.1.59-1.56.49-1-.16-1.42-.27-.8-.76-1.26-.88-.92-.26-1.38-.39-1,.13-1.49,0-1-.2-1.4-.35-.68-.95-1.13-1.11-1-.16-1.41-.32-1.08.15-1.53,0-.64-1-1.08-1.14-.9-.3-1.34-.5-.89-.33-1.32-.53-.81-.53-1.23-.74-.79-.54-1.22-.77-1-.06-1.46-.3-.67-.75-1.08-1-.75-.59-1.16-.84-.79-.53-1.19-.79-.95-.28-1.35-.55-1-.18-1.42-.46-.41-1.07-.79-1.36-1-.29-1.35-.58-.67-.69-1.05-1-.88-.43-1.25-.74-.46-.92-.82-1.24-.91-.41-1.26-.73-.92-.42-1.27-.75l-1-1c-.34-.34-.29-1.07-.62-1.41s-.49-.84-.82-1.19-1-.41-1.28-.77-.36-1-.67-1.31-.5-.81-.8-1.18-.88-.52-1.17-.9-.7-.67-1-1-.44-.86-.72-1.25-.47-.83-.74-1.23-.76-.64-1-1-.43-.86-.68-1.27-.7-.69-.94-1.1-.62-.75-.86-1.17-.21-1-.44-1.4-.54-.79-.76-1.22S7.25,97.44,7,97s-.58-.79-.77-1.22-.49-.83-.68-1.27-.59-.8-.77-1.24-.19-1-.36-1.41.17-1.08,0-1.53-.89-.7-1-1.16-.37-.89-.51-1.35.08-1,0-1.48-.57-.84-.69-1.3.41-1.09.3-1.55-.72-.82-.82-1.29.39-1,.3-1.52-.77-.83-.85-1.3.17-1,.1-1.47S1,77,.89,76.52s-.28-.93-.33-1.41.19-1,.15-1.45-.35-.93-.38-1.41.09-1,.07-1.44-.39-1-.4-1.43.27-1,.27-1.44h0c0-.48.24-1,.25-1.43s-.31-1-.29-1.45.29-.94.32-1.42-.35-1-.31-1.46.88-.88.93-1.35-.36-1-.3-1.47.55-.89.62-1.36.05-1,.13-1.42-.19-1-.1-1.48.59-.85.69-1.31.29-.91.4-1.37.05-1,.17-1.43.34-.89.46-1.35.1-1,.24-1.42.35-.89.5-1.34.46-.85.62-1.3-.4-1.16-.23-1.61.88-.68,1.05-1.12,0-1.05.17-1.49.92-.63,1.11-1.07.36-.88.56-1.31.16-1,.38-1.41.36-.88.59-1.31.36-.89.59-1.31.71-.69.95-1.1.5-.81.75-1.22.4-.87.66-1.27.77-.63,1-1,.35-.91.62-1.3.4-.9.69-1.28.6-.75.89-1.12.86-.54,1.16-.91.17-1.09.48-1.46.77-.6,1.08-1,.61-.75.93-1.1.62-.73.95-1.08.75-.6,1.09-.94.59-.76.94-1.09.66-.69,1-1,1.1-.2,1.46-.52.68-.65,1.05-1,.39-1,.76-1.33,1.08-.16,1.46-.46.73-.61,1.11-.89.56-.86.95-1.14.7-.67,1.09-.93,1-.31,1.35-.57.74-.62,1.14-.87.68-.74,1.09-1,1.08,0,1.5-.27.66-.78,1.08-1l1.27-.67c.43-.21,1.09,0,1.52-.16s.56-1.07,1-1.27.91-.32,1.35-.51,1.05,0,1.49-.15.79-.61,1.24-.78,1-.11,1.42-.27.93-.22,1.39-.37.72-.89,1.18-1,.93-.24,1.39-.37,1-.17,1.41-.29,1,.08,1.48,0,.92-.25,1.39-.35,1,.09,1.46,0,.91-.29,1.38-.37S57.38,1,57.85,1s1,.43,1.5.37.89-.53,1.37-.58.94-.2,1.42-.24,1,.32,1.46.29S64.54.7,65,.68,66,.16,66.44.15s1,.35,1.44.35V0c.48,0,1,.51,1.43.52s1-.15,1.44-.13,1,.07,1.43.1,1-.27,1.46-.23S74.54,1,75,1s1-.38,1.48-.32.86.78,1.33.85,1-.17,1.46-.09,1-.3,1.5-.21.79.92,1.26,1,1,0,1.44.08.85.53,1.31.65,1-.16,1.49,0,.82.58,1.28.72,1.08-.27,1.54-.12.76.73,1.21.88.93.23,1.38.4,1.07-.11,1.51.07.58,1.09,1,1.28.89.34,1.33.53,1.17-.26,1.6,0,.54,1.07,1,1.29,1,.18,1.39.4.67.77,1.08,1,1.11,0,1.52.23.63.81,1,1.06,1,.21,1.4.47.91.37,1.3.64.72.65,1.11.92.63.77,1,1.05.86.44,1.24.74.53.87.9,1.17.75.58,1.12.89.75.57,1.11.89,1.16.14,1.52.46.67.69,1,1,.58.79.92,1.13l1,1c.33.35.82.55,1.14.9s.58.77.9,1.13l1,1.08c.31.37,0,1.21.34,1.58s.62.71.92,1.09.66.69.94,1.08.9.53,1.17.92.34.93.61,1.32.37.9.63,1.3.42.86.67,1.26.89.57,1.13,1,.46.84.69,1.26.81.65,1,1.07.37.89.58,1.32,0,1.09.17,1.52.21.94.41,1.38.5.82.69,1.26.33.88.51,1.33.23.92.4,1.37.56.81.72,1.26.08,1,.23,1.42.79.75.93,1.21.37.89.5,1.35.1,1,.22,1.43.12.95.23,1.42.32.9.42,1.37.52.87.61,1.34-.6,1.08-.52,1.55.58.87.65,1.34,0,1,0,1.44.2.94.25,1.41.5.92.54,1.39-.29,1-.26,1.46,0,1,0,1.43.48,1,.49,1.43-.29,1-.29,1.44h.33c0,.48-.37,1-.38,1.43s-.18.95-.2,1.43-.07,1-.1,1.43,0,1,0,1.43.18,1,.13,1.46-.65.89-.71,1.36.38,1,.31,1.49-.77.84-.85,1.31.07,1,0,1.44,0,1-.13,1.44.19,1,.08,1.49-.87.77-1,1.23-.17.94-.3,1.4-.23.92-.37,1.38-.3.9-.45,1.35-.48.85-.64,1.29.15,1.07,0,1.52-.19,1-.37,1.4-.83.69-1,1.13-.34.88-.54,1.32-.32.9-.53,1.33-.52.8-.74,1.23-.48.82-.7,1.24-.43.85-.66,1.27-.63.73-.87,1.14-.18,1-.43,1.41-.38.89-.64,1.29-.22,1-.49,1.4-.63.74-.9,1.13-.68.7-1,1.08-.38.92-.67,1.3-1.09.36-1.39.73-.13,1.13-.44,1.5-.73.64-1,1-1.16.24-1.48.59-.35,1-.68,1.32-.4,1-.74,1.28-.63.73-1,1.07-1.27,0-1.62.36l-1.06,1c-.36.32-.36,1-.73,1.35s-.56.83-.93,1.13-1,.31-1.35.61-.62.76-1,1-.79.55-1.18.83l-1.19.81c-.39.26-1,.15-1.44.41s-.75.59-1.16.85-.59.86-1,1.1-1.19-.15-1.61.08-.58.91-1,1.14-.86.42-1.28.63-.91.32-1.34.52-.93.26-1.37.45-.73.71-1.17.9-.82.52-1.27.7-.9.33-1.34.5-.94.23-1.39.38-1,.06-1.45.21-1,0-1.45.15-.82.57-1.28.7-1,.09-1.42.21l-1.39.34c-.46.11-1,.07-1.42.17s-.86.51-1.33.6-.84.73-1.31.81-1-.22-1.48-.15-1-.3-1.48-.24-.92.35-1.39.4-1-.07-1.44,0-.91.55-1.39.58-1-.18-1.45-.16-.95-.19-1.43-.18S68.36,135.79,67.88,135.79Z" fill="#fff"/><path d="M78.73,58.89c-.15.33-.15.73-.31,1s-.56.49-.76.78a10.56,10.56,0,0,1-.48.95,9,9,0,0,1-.78.73,10.61,10.61,0,0,1-.65.85c-.27.23-.61.38-.89.58s-.5.55-.8.73-.79,0-1.1.17-.62.31-.95.44-.65.23-1,.34-.69.27-1.06.36-.69.37-1.06.44-.74.14-1.11.19-.77-.27-1.15-.24-.73.12-1.11.12-.73.09-1.09.07-.7-.24-1.06-.28-.78.31-1.14.25-.71-.18-1.06-.27-.67-.34-1-.44-.61-.36-.93-.48-.76,0-1.07-.13-.48-.57-.78-.75-.74-.12-1-.31-.45-.55-.72-.77a10.44,10.44,0,0,1-.89-.58c-.25-.24-.38-.6-.61-.87s-.57-.45-.77-.74-.25-.67-.43-1-.34-.6-.5-.92-.57-.66-.71-1.06-.17-.82-.27-1.24-.24-.8-.31-1.22,0-.83,0-1.26,0-.81,0-1.24a2.31,2.31,0,0,1,1.17-.1c.59,0,.59-.07,1.18-.07s.59,0,1.18,0h1.17c.59,0,.59.09,1.18.09s.59,0,1.19,0a2,2,0,0,1,1.15.14,7.63,7.63,0,0,0,.08,1.3,6.06,6.06,0,0,0,.34,1.35,6.06,6.06,0,0,0,.72.93,4.91,4.91,0,0,0,.75.88,6.08,6.08,0,0,0,.86.75c.32.18.78.08,1.15.19a7.15,7.15,0,0,0,1.14.2,8.8,8.8,0,0,0,1.15,0,7.31,7.31,0,0,0,1.16-.07,5.56,5.56,0,0,0,1.12-.28A5.37,5.37,0,0,0,68.89,58a6.19,6.19,0,0,0,.91-.71,5,5,0,0,0,.89-.89,5.32,5.32,0,0,0,.48-1.17c.13-.38.49-.74.55-1.19a12.31,12.31,0,0,0-.1-1.3,7.88,7.88,0,0,0-.27-1.21,7,7,0,0,0-.09-1.23,6.82,6.82,0,0,0-.32-1.24c-.22-.35-.7-.53-1-.82a5.34,5.34,0,0,0-.92-.92A6,6,0,0,0,67.77,47c-.39-.13-.73-.56-1.18-.62a11.92,11.92,0,0,0-1.31,0c-.6,0-.86.58-1.29.15s.25-.69.25-1.28-.17-.6-.17-1.2,0-.6,0-1.19,0-.6,0-1.2-.17-.6-.17-1.2-.34-.83.09-1.26.66,0,1.26,0c.43,0,.84.07,1.22,0a6.57,6.57,0,0,0,1.18-.29,5,5,0,0,0,1.18-.38c.35-.22.44-.73.7-1s.68-.42.85-.74,0-.76.14-1.11.5-.62.55-1a7.92,7.92,0,0,0,.09-1.11A8.64,8.64,0,0,0,71,32.5a5.66,5.66,0,0,0-.39-1.14,4.44,4.44,0,0,0-.56-1,4.51,4.51,0,0,0-.68-1,5.81,5.81,0,0,0-.86-.64,5.63,5.63,0,0,0-1-.38,5.66,5.66,0,0,0-1-.39,6.14,6.14,0,0,0-1.07-.21,7.5,7.5,0,0,0-1.07.21,5.5,5.5,0,0,0-1,.31,5.26,5.26,0,0,0-.9.57,5.08,5.08,0,0,0-.89.55,4.77,4.77,0,0,0-.66.89,4.88,4.88,0,0,0-.64.92,5.64,5.64,0,0,0-.4,1.07,7.06,7.06,0,0,0,0,1c-.56.19-.56.32-1.15.32s-.59-.17-1.18-.17-.59.14-1.18.14-.59-.16-1.17-.16-.59.15-1.18.15-.59-.13-1.19-.13a2.54,2.54,0,0,1-1.16-.12c0-.38-.12-.7-.09-1.07s.41-.7.47-1.06,0-.75.12-1.11.16-.73.28-1.07.07-.79.22-1.13.53-.68.74-1a10.16,10.16,0,0,1,.55-1.15c.25-.35.69-.54,1-.85a10.53,10.53,0,0,1,.86-.91,12.67,12.67,0,0,1,.95-.84c.34-.24.7-.47,1.07-.68s.71-.46,1.1-.64.77-.36,1.18-.5.67-.32,1-.42.72-.14,1.08-.21.76.14,1.13.09.71,0,1.08,0,.72-.35,1.08-.35.75.35,1.12.37.78-.21,1.15-.16.77,0,1.14.11.7.33,1.06.43.76.1,1.12.23.62.34.93.48.53.48.83.65.6.32.89.5.52.44.79.65.61.34.86.57a12.45,12.45,0,0,1,.81,1,10.3,10.3,0,0,1,.81.94,11.82,11.82,0,0,1,.7,1,10.78,10.78,0,0,1,.5,1.15c.14.33.52.57.63.91s.08.73.17,1.08,0,.71.09,1.07.36.68.39,1-.18.72-.18,1.09,0,.84,0,1.23-.07.84-.13,1.23A11.64,11.64,0,0,1,79,37.15a8.13,8.13,0,0,1-.61,1.08,6.06,6.06,0,0,1-.6,1.06,11.7,11.7,0,0,1-.69,1.08,9.51,9.51,0,0,1-1,.77c-.31.29-.46.78-.81,1a14.36,14.36,0,0,1-1.34.53c.33.17.89.29,1.2.49s.63.43.92.66.48.59.75.86.5.54.75.83.31.69.53,1,.7.46.88.81a9,9,0,0,1,.35,1.11c.13.35,0,.78.08,1.17s.56.66.61,1-.27.79-.25,1.18.22.75.22,1.15-.12.81-.14,1.21,0,.82,0,1.21,0,.84-.07,1.23a11.25,11.25,0,0,1-.42,1.15A10,10,0,0,1,78.73,58.89Z" fill="#007130"/></g></g></svg>