<svg xmlns="http://www.w3.org/2000/svg" width="135.64" height="135.86" viewBox="0 0 135.64 135.86"><title>num02</title><g id="レイヤー_2" data-name="レイヤー 2"><g id="bg"><path d="M67.82,135.62v-.31c-.47,0-.94-.24-1.42-.25s-1,.41-1.45.39-.95-.1-1.43-.13-1,.06-1.44,0-1-.06-1.43-.11-1,.12-1.46.06-.94-.21-1.41-.28-.88-.55-1.35-.63-1-.06-1.43-.15-.89-.41-1.36-.51-1,.27-1.51.16-.9-.35-1.36-.47-.83-.58-1.29-.71-1,0-1.46-.12-1-.14-1.42-.28-.94-.22-1.39-.38-.77-.7-1.21-.87-.9-.31-1.35-.49-1,0-1.49-.16-.79-.58-1.23-.78-.82-.5-1.25-.7-.74-.68-1.16-.89-1.11.06-1.53-.17-.66-.79-1.08-1-.92-.32-1.33-.56-.8-.53-1.21-.78-.59-.85-1-1.11-.88-.39-1.28-.66-.77-.56-1.16-.84-1.1-.11-1.48-.39-.3-1.2-.67-1.49-1.22,0-1.59-.31-.59-.78-1-1.09-.94-.38-1.3-.7-.33-1.06-.68-1.38-.49-.87-.83-1.2S20.37,116,20,115.7s-.43-.91-.76-1.25-.74-.62-1.06-1-.55-.78-.87-1.14-.85-.52-1.16-.89-.4-.91-.7-1.28-1.08-.36-1.37-.74,0-1.23-.25-1.61-1.08-.39-1.35-.78-.2-1-.47-1.42-1-.47-1.29-.87-.3-1-.55-1.35-.57-.78-.82-1.19-.28-.95-.51-1.36-.68-.72-.91-1.14-.11-1-.32-1.45-.31-.91-.51-1.34S6.78,96,6.58,95.6s-.41-.85-.6-1.29-.25-.92-.43-1.37-.43-.85-.6-1.29-.3-.9-.45-1.35S4,89.48,3.8,89s-.45-.85-.59-1.31-.07-1-.2-1.43-.55-.84-.67-1.31-.16-.94-.27-1.41-.32-.91-.42-1.37-.06-1-.15-1.44-.41-.9-.49-1.37L.77,78C.7,77.49.59,77,.53,76.54s.17-1,.11-1.46.23-1,.19-1.45,0-.95-.06-1.43S.6,71.26.58,70.78s-.26-.94-.27-1.42S0,68.4,0,67.92H.5c0-.48-.28-1-.27-1.43s-.06-1,0-1.44S0,64.08.05,63.6s.21-1,.25-1.43.78-.88.83-1.35,0-1,0-1.44S1,58.39,1,57.92s.19-.94.27-1.41.28-.92.37-1.39.26-.92.36-1.38-.23-1-.12-1.5.23-.93.35-1.39.34-.9.47-1.36.06-1,.2-1.44.75-.77.9-1.22.53-.83.69-1.28-.11-1,0-1.5.13-1,.31-1.42.46-.85.65-1.29.71-.73.91-1.17-.14-1.12.07-1.55.73-.71,1-1.14.18-1,.41-1.4.75-.69,1-1.1.77-.66,1-1.07,0-1.13.22-1.54.93-.55,1.18-.95.34-.92.61-1.31.88-.55,1.16-.94.05-1.14.34-1.52.86-.55,1.15-.93.22-1,.52-1.41,1.09-.34,1.4-.7,0-1.22.37-1.58.7-.67,1-1,.61-.75.94-1.09.72-.65,1.06-1,.84-.52,1.18-.85.87-.47,1.22-.79.61-.76,1-1.07.66-.71,1-1,.81-.52,1.18-.82.64-.73,1-1,1.14-.07,1.52-.35.73-.61,1.12-.89.32-1.21.72-1.48,1.25.15,1.65-.11.52-.95.93-1.2.72-.66,1.13-.9.85-.45,1.27-.68,1.08,0,1.5-.24.68-.77,1.1-1,.88-.37,1.32-.58,1,0,1.47-.22.87-.38,1.31-.57.59-1.07,1-1.25l1.35-.52c.44-.16,1-.1,1.43-.26s1,0,1.48-.12.71-.91,1.17-1,1,0,1.46-.12,1.07.31,1.53.19.75-1,1.21-1.08,1,.21,1.5.11.87-.48,1.34-.57,1,0,1.44-.11.88-.58,1.35-.65,1,.31,1.49.25,1,.33,1.47.28.88-.84,1.35-.88,1,0,1.44,0,1,.4,1.46.38S65.9.53,66.38.52s1-.29,1.43-.29V0c.47,0,1,.37,1.43.38s1-.13,1.44-.11,1-.13,1.45-.1,1,.2,1.42.24.9.68,1.37.73,1-.54,1.5-.48.85.83,1.32.9,1-.36,1.5-.28.86.61,1.32.7,1.09-.54,1.56-.44.93.26,1.39.37.75,1,1.21,1.07.94.14,1.4.27,1,0,1.44.19.89.34,1.34.48.9.32,1.35.48l1.34.5c.45.17,1.06-.09,1.51.09s.81.55,1.25.74.78.59,1.22.79.81.5,1.24.7.88.38,1.3.6.81.51,1.23.74.9.32,1.32.56.94.28,1.35.52l1.24.73c.4.25.87.41,1.27.67s.61.81,1,1.08,1,.29,1.36.57.9.39,1.28.68.64.74,1,1,.92.39,1.29.69.43,1,.79,1.3.92.39,1.28.71.79.56,1.14.88.19,1.2.54,1.53.92.41,1.26.75.6.74.93,1.09.82.53,1.14.89.79.58,1.1.94.54.8.85,1.16.31,1,.61,1.35.64.72.93,1.09.62.72.9,1.11.46.84.74,1.23,1.13.38,1.4.77,0,1.17.23,1.57.44.85.69,1.25.89.58,1.14,1,0,1.09.23,1.51.79.65,1,1.08.77.67,1,1.1.38.88.58,1.32,0,1.06.17,1.5,1,.62,1.14,1.06,0,1,.21,1.47.54.82.71,1.27.25.93.41,1.38.59.81.74,1.27,0,1,.13,1.46.28.92.41,1.38.2.93.32,1.4-.07,1,0,1.46.44.88.54,1.34.41.9.5,1.37.27.92.35,1.4-.25,1-.18,1.48,0,1,0,1.44.13.94.18,1.41,0,1,.05,1.43.24.93.27,1.41.66.92.68,1.4-.5,1-.49,1.45-.17,1-.17,1.43h0c0,.48.27,1,.26,1.44s.22,1,.2,1.44-.57.92-.6,1.4.39,1,.35,1.46-.08,1-.13,1.43-.41.91-.47,1.39-.11.94-.18,1.41.36,1,.28,1.5-.8.83-.89,1.29-.25.92-.35,1.39-.24.91-.35,1.38.44,1.09.32,1.55-.44.88-.57,1.34,0,1-.18,1.44-.33.9-.48,1.36-.35.89-.51,1.34-.89.69-1.05,1.14.24,1.12.07,1.56-1,.63-1.17,1.07-.21.94-.4,1.38,0,1.06-.2,1.49-1,.57-1.2,1-.15,1-.37,1.42-.27.93-.51,1.35-.57.78-.81,1.19-.21,1-.46,1.4-1,.49-1.26.89-.52.8-.79,1.19,0,1.13-.32,1.52-.66.71-1,1.09-.94.49-1.23.87-.14,1.11-.44,1.48-.7.67-1,1-1,.43-1.28.79-.45.88-.77,1.23-.39,1-.72,1.3-1.1.26-1.44.6-.27,1.08-.62,1.41-1,.33-1.36.65-.44.94-.8,1.25-.61.76-1,1.07-.8.55-1.17.85-1.12.11-1.5.41-.47,1-.86,1.24-.72.63-1.11.91-.77.58-1.16.85-1.11.06-1.51.32-.62.81-1,1.06-.65.79-1.06,1-1.08,0-1.49.29-.6.9-1,1.13-1,.1-1.46.32-1,.22-1.38.43-1,.19-1.39.39-.72.72-1.16.91-1,.19-1.4.37-.9.28-1.35.45-.75.72-1.2.88-.86.45-1.32.6-1-.1-1.49,0-.85.49-1.31.62-1,.14-1.41.26-.92.25-1.39.36-.94.15-1.41.25-.91.31-1.38.4-1-.26-1.48-.18-.81,1-1.29,1.07-1-.31-1.48-.25-.92.36-1.4.41-1-.29-1.46-.25-.93.31-1.41.34-1,.12-1.43.14-1,.35-1.43.36S68.29,135.62,67.82,135.62Z" fill="#fff"/><path d="M52.06,66.15c-.39-.35-.12-.61-.12-1.14s.17-.53.17-1.06S52,63.43,52,62.9s.16-.53.16-1.06.19-.53.19-1.07-.16-.53-.16-1.06-.2-.56,0-1.06.4-.38.76-.81.46-.34.83-.77.22-.55.58-1,.41-.38.78-.81.15-.61.52-1,.51-.3.87-.73.28-.5.65-.93.47-.33.84-.76.2-.56.57-1,.48-.32.85-.75.48-.32.85-.74.39-.41.76-.83.2-.57.57-1,.59-.23,1-.66.27-.5.64-.93.28-.5.65-.93.53-.28.9-.71.08-.67.44-1.1.41-.39.77-.82.57-.26.94-.69.39-.41.75-.84.32-.47.69-.9.35-.45.73-.88c.24-.28.3-.7.51-1s.6-.47.78-.76a6.78,6.78,0,0,0,.33-1c.12-.29.58-.47.66-.78s-.26-.69-.22-1,.26-.6.26-.93a7.79,7.79,0,0,0-.22-1.09,6.72,6.72,0,0,0-.24-1,5.35,5.35,0,0,0-.37-1,5.08,5.08,0,0,0-.55-1,4,4,0,0,0-.85-.75,4.28,4.28,0,0,0-1.06-.37A5.18,5.18,0,0,0,67,28.13c-.35-.05-.71-.35-1.1-.35a7,7,0,0,0-1,.08,7.57,7.57,0,0,0-1,.37,5,5,0,0,0-.91.43,5.48,5.48,0,0,0-.89.48,4.68,4.68,0,0,0-.59.92,6,6,0,0,0-1.08,2.21,12.66,12.66,0,0,0,0,1.62c-.54.23-.67-.33-1.26-.33s-.59,0-1.18,0-.59.2-1.18.2-.59-.18-1.18-.18-.59.23-1.18.23-.59-.16-1.18-.16-.66.38-1.22.2c0-.39-.07-.91-.05-1.28s.21-.75.26-1.12,0-.79,0-1.16.26-.73.38-1.08.51-.62.66-1,0-1,.18-1.34a11.83,11.83,0,0,1,.73-1.07c.25-.35.52-.7.8-1s.69-.53,1-.82.7-.49,1-.75.72-.43,1.09-.65.69-.49,1.08-.68.72-.48,1.13-.62.79.06,1.15,0,.66-.35,1-.42.69-.37,1.06-.41.75,0,1.12,0,.74.2,1.12.2.76-.22,1.13-.19.77.05,1.14.09.71.31,1.08.39.81-.12,1.17,0,.7.3,1,.43.82.31,1.2.49a11.19,11.19,0,0,1,1.11.66c.37.22.8.37,1.14.62a11.14,11.14,0,0,1,.93.89,11.2,11.2,0,0,1,1,.85,10.93,10.93,0,0,1,.76,1,11,11,0,0,1,.72,1.06,11.34,11.34,0,0,1,.51,1.18,9.74,9.74,0,0,1,.39,1.07c.11.35,0,.77.12,1.14s.12.73.17,1.11.12.73.14,1.11,0,.74,0,1.12,0,.67,0,1-.16.65-.2,1,.21.71.13,1a9.73,9.73,0,0,1-.39,1.3c-.15.42-.56.72-.76,1.12a13.85,13.85,0,0,1-.76,1.18c-.25.39-.46.8-.75,1.18s-.42.57-.65.86-.23.74-.47,1-.43.58-.67.86c-.37.43-.39.42-.76.85s-.62.21-1,.64-.3.49-.67.92-.24.55-.61,1-.5.32-.86.75-.49.33-.86.76-.27.51-.64.95-.48.34-.85.77l-.75.86c-.37.43-.06.7-.43,1.13s-.49.33-.86.76-.59.24-1,.68-.2.58-.57,1-.29.5-.66.93-.57.27-.94.71-.31.49-.68.92-.88.35-.64.87.51-.06,1.09-.06.58-.06,1.16-.06.58.24,1.16.24.58-.26,1.16-.26.58.21,1.16.21.58.14,1.16.14.58-.22,1.17-.22.58.19,1.16.19.58-.31,1.16-.31.59,0,1.17,0,.58.17,1.17.17.58,0,1.16,0,.58.12,1.17.12.58-.26,1.17-.26.79-.31,1.23.09.06.59.06,1.12,0,.53,0,1.06,0,.53,0,1.06-.2.53-.2,1.06.26.53.26,1.06-.12.53-.12,1.07.5.79.11,1.15-.66-.28-1.23-.28-.57.32-1.15.32-.57-.06-1.14-.06-.57.09-1.15.09H74c-.58,0-.58-.16-1.15-.16s-.57.22-1.15.22-.57,0-1.15,0S70,66,69.38,66s-.58.18-1.15.18-.57-.09-1.15-.09S66.51,66,65.94,66s-.57.13-1.15.13-.57.06-1.14.06-.58.11-1.15.11-.57-.07-1.15-.07H60.2c-.57,0-.57-.36-1.15-.36s-.57.07-1.15.07-.57.35-1.15.35-.57-.11-1.15-.11-.58.13-1.15.13-.56-.19-1.12-.06S52.49,66.54,52.06,66.15Z" fill="#007130"/></g></g></svg>