<svg xmlns="http://www.w3.org/2000/svg" width="135.83" height="135.52" viewBox="0 0 135.83 135.52"><title>num01</title><g id="レイヤー_2" data-name="レイヤー 2"><g id="bg"><path d="M67.92,135v.35c-.48,0-1,.2-1.43.19s-.94-.6-1.42-.62-1,.54-1.46.51-.94-.26-1.41-.3-1,.19-1.46.14-1,.05-1.45,0-.83-1-1.3-1-1,0-1.44,0-1,0-1.43-.14-.9-.37-1.36-.47-1,0-1.45-.08-.94-.15-1.41-.27-.85-.5-1.31-.62-.94-.17-1.4-.31-1,0-1.46-.13-.83-.52-1.28-.68-1-.18-1.4-.35-1-.14-1.42-.32-.68-.85-1.12-1-.81-.53-1.24-.72-.91-.31-1.34-.52-.82-.47-1.25-.69-1.2.24-1.62,0-.45-1.17-.86-1.4-.88-.38-1.29-.62-.83-.46-1.24-.71-.91-.34-1.31-.6-1-.26-1.37-.53-.91-.38-1.3-.66-.36-1.13-.74-1.42-.77-.55-1.15-.84-.95-.34-1.32-.64-.8-.54-1.16-.85-.38-1-.74-1.33-1.06-.25-1.41-.58-.5-.86-.84-1.19-.63-.72-1-1-1-.37-1.32-.72-.36-1-.68-1.32-.85-.52-1.17-.88-.55-.78-.86-1.15-.7-.66-1-1-.37-.93-.66-1.3-.5-.82-.79-1.2-.63-.71-.91-1.1-1-.45-1.31-.84-.19-1-.45-1.43-.18-1-.44-1.41-1-.49-1.26-.9.05-1.14-.18-1.55-.71-.7-.93-1.12-.51-.81-.72-1.24-.63-.75-.84-1.18-.11-1-.31-1.44-.8-.7-1-1.13.23-1.13,0-1.57-.57-.8-.74-1.25-.54-.82-.7-1.27-.56-.82-.71-1.28,0-1-.19-1.44.25-1.07.12-1.53-.89-.75-1-1.21.12-1,0-1.48-.46-.87-.56-1.34.05-1,0-1.45-.42-.9-.5-1.37.19-1,.12-1.47-.72-.87-.78-1.34.28-1,.23-1.47-.48-.92-.52-1.39.26-1,.23-1.46.19-1,.17-1.44.15-1,.14-1.44-.33-.94-.33-1.42H.39c0-.48-.4-1-.39-1.44s.19-1,.21-1.44.3-1,.33-1.42-.16-1-.12-1.45.65-.9.7-1.37-.35-1-.29-1.48,0-1,.08-1.44.45-.9.53-1.37-.19-1-.1-1.47.45-.89.55-1.36.36-.9.47-1.36.26-.92.38-1.38.14-.95.27-1.41-.11-1,0-1.49.7-.78.85-1.23-.05-1,.11-1.48.43-.87.6-1.31.11-1,.29-1.43.74-.74.93-1.17.06-1,.25-1.46,1-.6,1.2-1,.07-1,.29-1.45.69-.72.92-1.14.16-1,.39-1.41.27-1,.51-1.37.88-.59,1.13-1,.46-.83.72-1.23.38-.9.65-1.29.39-.9.67-1.29.66-.71.95-1.09.86-.55,1.15-.92.81-.58,1.11-1,.31-1,.62-1.34.38-.93.7-1.29.51-.83.83-1.18,1.09-.3,1.42-.64.37-1,.71-1.32,1.07-.27,1.41-.6.6-.75.95-1.07.75-.59,1.11-.91.4-1,.76-1.3.64-.75,1-1.05,1.17,0,1.55-.34.71-.64,1.09-.93.5-.93.89-1.21.74-.62,1.14-.89,1-.24,1.39-.5,1-.2,1.4-.45.51-1,.92-1.24.92-.33,1.33-.56.75-.65,1.17-.87.75-.64,1.17-.86.91-.33,1.35-.53,1.1.11,1.54-.08.6-1,1-1.2,1.13.24,1.58.06.74-.73,1.18-.9S45,4.26,45.4,4.1s1-.12,1.42-.27.89-.35,1.35-.49.95-.12,1.41-.25.93-.22,1.39-.34.85-.52,1.32-.63.89-.41,1.36-.51,1,0,1.44-.12.93-.25,1.4-.33.9-.44,1.37-.51,1,.21,1.47.15,1,.3,1.47.24,1,0,1.43,0,.94-.23,1.41-.26S64.57.22,65.05.2s1,.31,1.44.3,1-.26,1.43-.26v0c.48,0,1,.34,1.43.35s1-.65,1.46-.63.94.43,1.41.46.94.34,1.41.38,1-.52,1.49-.47.87.77,1.34.83S77.51.61,78,.68s.92.39,1.39.47.92.29,1.38.39.93.22,1.4.32.85.58,1.31.69l1.38.33c.47.12,1.08-.3,1.53-.17s.8.67,1.26.81.85.45,1.3.6,1,0,1.47.12.87.39,1.32.56.92.26,1.36.44.84.48,1.28.67,1,0,1.45.25.69.78,1.12,1,.87.39,1.3.6,1,.23,1.37.45.75.63,1.16.87.7.69,1.11.93,1.14,0,1.54.22.59.85,1,1.11,1,.24,1.38.51.65.75,1,1,.83.47,1.21.75,1,.26,1.39.55.48.93.86,1.23.85.47,1.21.78.43,1,.79,1.28.75.59,1.1.91.88.45,1.22.78.93.42,1.27.76.21,1.13.54,1.47.62.73.94,1.08.9.47,1.21.83.5.83.81,1.19.45.86.75,1.23.58.74.88,1.12.81.58,1.09,1,.32.95.59,1.34.67.68.94,1.08.6.74.86,1.15.58.75.83,1.16.74.67,1,1.08.37.9.6,1.31.63.75.85,1.17.46.85.67,1.27-.15,1.14.05,1.57,1.12.54,1.31,1,.4.88.59,1.32,0,1,.18,1.48.48.84.65,1.28.62.8.78,1.25,0,1,.18,1.46.61.81.75,1.27-.07,1,.06,1.48.18.94.3,1.4.28.92.39,1.39,0,1,.09,1.44.44.89.53,1.35,0,1,.08,1.44-.16,1-.09,1.46.44.9.5,1.38.38.91.43,1.39-.16,1-.12,1.45-.11,1-.08,1.44,0,.95,0,1.43.56.93.57,1.41,0,1,0,1.44H135c0,.48.85,1,.84,1.44s-.54.94-.56,1.42.35,1,.32,1.46-.47.92-.51,1.4.29,1,.24,1.46-.4.92-.46,1.39.17,1,.1,1.47-.58.87-.66,1.34-.36.91-.45,1.37-.17.94-.27,1.4.19,1,.08,1.49.06,1-.06,1.46-.18,1-.31,1.41-.85.75-1,1.21,0,1-.16,1.45-.69.77-.85,1.22-.29.91-.46,1.35-.15,1-.33,1.41-.15,1-.34,1.41-.15,1-.35,1.42-.49.83-.69,1.26-1,.56-1.25,1-.35.88-.58,1.3-.23,1-.47,1.37-.4.87-.65,1.28-.53.8-.78,1.2-.62.74-.88,1.14-.67.7-.94,1.09-.28,1-.55,1.36-.21,1-.49,1.42-.89.53-1.19.9-.94.47-1.24.84-.25,1-.56,1.4-.71.64-1,1-.79.56-1.11.91-.1,1.22-.43,1.57-1.13.24-1.46.58-.49.87-.83,1.2-.62.73-1,1.06-.61.76-1,1.07-.92.41-1.28.72-.66.7-1,1-1.12.13-1.5.42-.7.63-1.09.92-.72.62-1.11.9-.51.93-.91,1.2-.87.42-1.27.68-.69.69-1.1.94-.94.3-1.35.54-.64.82-1,1-1,.28-1.37.5-.74.66-1.17.87-1,.08-1.46.28-.74.69-1.18.88-1.18-.31-1.62-.12-.61,1-1,1.19-.83.53-1.28.69-1,0-1.47.18-1.06-.17-1.51,0-.84.51-1.3.65-.85.45-1.31.58-1,0-1.44.16-.94.16-1.41.27-.77.91-1.24,1l-1.41.3c-.47.09-1,0-1.45.07s-1,.11-1.43.18-1-.31-1.48-.25l-1.42.17c-.47.05-.91.44-1.39.48s-.94.28-1.42.31-1-.45-1.46-.43-1,.07-1.43.08S68.4,135,67.92,135Z" fill="#fff"/><path d="M64.21,66c-.41-.39.22-.61.22-1.17s0-.57,0-1.14-.12-.56-.12-1.13-.13-.57-.13-1.14.09-.56.09-1.13-.06-.56-.06-1.13.11-.56.11-1.13.16-.57.16-1.13-.31-.57-.31-1.14.08-.56.08-1.13-.12-.57-.12-1.14.22-.56.22-1.13-.24-.57-.24-1.13.25-.57.25-1.14,0-.57,0-1.13.07-.57.07-1.14V46.73c0-.57-.26-.57-.26-1.14s.24-.57.24-1.13.09-.57.09-1.13-.2-.57-.2-1.14-.18-.56-.18-1.13,0-.57,0-1.14.38-.56.38-1.13-.31-.57-.31-1.14.05-.57.05-1.14-.06-.56-.06-1.13.08-.57.08-1.14-.08-.57-.08-1.14.18-.57.18-1.14,0-.57,0-1.14.5-.94,0-1.2-.4.47-.82.83-.53.24-.94.6-.36.44-.77.8-.44.34-.86.71-.28.52-.7.89-.63.11-1,.47-.2.61-.61,1-.61.15-1,.51-.23.58-.65.94-.59.17-1,.54-.25.92-.76.7,0-.47,0-1,.09-.56.09-1.11S55,34.9,55,34.35s.26-.56.26-1.11-.38-.55-.38-1.11.38-.56.38-1.11-.34-.56-.34-1.12.13-.52.36-1,.26-.41.68-.78.52-.23.94-.6l.84-.72c.42-.36.27-.53.69-.89s.32-.48.74-.84.44-.34.86-.7.6-.15,1-.51.39-.41.81-.77.29-.51.71-.88.44-.34.86-.71.29-.68.81-.87.66.26,1.25.26.6.11,1.19.11h1.19c.59,0,.59-.13,1.19-.13s.59.07,1.18.07.6-.11,1.2-.11.62-.28,1.05.13.16.42.16,1-.24.57-.24,1.13.12.57.12,1.13.18.56.18,1.12.1.57.1,1.13-.06.56-.06,1.12-.07.57-.07,1.13-.07.56-.07,1.13.22.56.22,1.12-.25.57-.25,1.13-.09.57-.09,1.13.21.57.21,1.13-.16.57-.16,1.13.25.57.25,1.13-.2.56-.2,1.13-.17.56-.17,1.13.31.56.31,1.13-.12.56-.12,1.13.08.56.08,1.13-.09.56-.09,1.13.14.56.14,1.13-.08.56-.08,1.13,0,.56,0,1.13,0,.56,0,1.13-.29.57-.29,1.13.3.57.3,1.13-.13.57-.13,1.13-.11.57-.11,1.13,0,.57,0,1.13.26.57.26,1.13-.17.57-.17,1.13,0,.57,0,1.13,0,.57,0,1.14-.07.56-.07,1.13.15.57.15,1.14.11.56.11,1.13-.26.57-.26,1.13.15.57.15,1.14v1.14c0,.57.39.79,0,1.18s-.63-.24-1.23-.24-.59.2-1.18.2-.6.06-1.19.06-.6.13-1.19.13-.59-.13-1.19-.13-.62-.24-1.2-.11S64.65,66.45,64.21,66Z" fill="#007130"/></g></g></svg>