<svg xmlns="http://www.w3.org/2000/svg" width="128.7" height="147.89" viewBox="0 0 128.7 147.89"><title>sec2_icn03</title><g id="レイヤー_2" data-name="レイヤー 2"><g id="レイヤー_2-2" data-name="レイヤー 2"><path d="M128.35,83.61c0,.67.05,1.34,0,2s.36,1.37.32,2-1,1.27-1,1.94.38,1.39.3,2,.06,1.37,0,2-.52,1.27-.65,1.93-.68,1.22-.83,1.88.14,1.4,0,2,0,1.39-.22,2-1,1.11-1.16,1.75-.39,1.27-.61,1.9,0,1.42-.28,2.05-.33,1.32-.59,1.94-.95,1-1.24,1.65-.87,1.06-1.18,1.66-.49,1.24-.82,1.83-.21,1.42-.55,2-1.32.76-1.68,1.32-.55,1.23-.93,1.79-.21,1.49-.6,2-.77,1.13-1.18,1.66-1,.92-1.43,1.44-.83,1.06-1.27,1.57-1,.91-1.46,1.4-.81,1.1-1.28,1.57-1,.89-1.51,1.35-.93,1-1.43,1.43-1.57.22-2.09.65-.61,1.37-1.14,1.78-1.49.24-2,.63-.82,1.16-1.37,1.54-1,.95-1.55,1.31-1.45.18-2,.52-1.14.69-1.72,1-1,.95-1.6,1.26-1.25.5-1.86.78-1.21.56-1.82.83-1.14.75-1.76,1-1.23.56-1.86.79-1.46-.16-2.1,0-1,1.21-1.67,1.4-1.43-.13-2.08,0-1.38-.07-2,.08-1.28.34-1.94.46-1.27.46-1.93.57-1.34,0-2,.12-1.31.32-2,.39-1.34,0-2,0-1.31.73-2,.75-1.35-.37-2-.37-1.34-.07-2-.09-1.33-.17-2-.21-1.38.37-2,.31-1.29-.6-1.95-.69-1.31-.26-2-.36-1.44.43-2.09.3-1.34-.22-2-.36-1.11-1.12-1.76-1.28-1.4.05-2-.14-1.41,0-2-.21-1.15-.81-1.78-1-1.27-.44-1.89-.68-1.3-.37-1.91-.64-1-1.08-1.59-1.36-1.39-.19-2-.49-1.13-.72-1.71-1.05-1.42-.23-2-.58-.92-1.06-1.49-1.42-1-1-1.51-1.35-1-.83-1.57-1.23-1.23-.58-1.76-1-1.31-.5-1.83-.93-1.15-.73-1.65-1.17-.59-1.35-1.08-1.81-.86-1-1.34-1.49-1.4-.5-1.86-1-.38-1.46-.82-2-.93-.94-1.36-1.46-1.54-.48-2-1-.1-1.6-.5-2.14-1.06-.88-1.44-1.44-.53-1.25-.89-1.81-.59-1.2-.93-1.78-1.45-.72-1.77-1.3-.46-1.29-.77-1.89,0-1.47-.32-2.07-1.26-.91-1.52-1.52.13-1.51-.12-2.13-.82-1.12-1-1.75.06-1.43-.15-2.07-.37-1.27-.55-1.92-1.25-1-1.42-1.69-.38-1.3-.53-2-.28-1.32-.4-2,.34-1.42.24-2.09-.05-1.34-.13-2S.5,90.33.44,89.66s0-1.35,0-2S0,86.31,0,85.63s.14-1.35.14-2,.44-1.34.46-2,.23-1.33.27-2-.35-1.38-.28-2-.17-1.38-.08-2,.09-1.36.19-2,1-1.19,1.15-1.85-.13-1.39,0-2,0-1.39.13-2S3,66.46,3.22,65.82s.28-1.31.49-1.95.06-1.4.28-2,1.17-1,1.42-1.61.16-1.38.42-2,.51-1.24.8-1.84.18-1.41.48-2,.92-1,1.25-1.62,1.05-.93,1.39-1.51S9.62,49.6,10,49s1.24-.8,1.61-1.35.91-1,1.3-1.54.91-1,1.32-1.51.56-1.26,1-1.77.75-1.13,1.19-1.63,1-.89,1.47-1.38,1-.88,1.48-1.36.59-1.32,1.07-1.78,1.2-.68,1.71-1.13,1.18-.67,1.7-1.09.56-1.45,1.09-1.86,1.25-.59,1.79-1,1.09-.8,1.64-1.18,1.24-.57,1.8-.93,1-.88,1.61-1.22,1.17-.67,1.76-1,1.05-.91,1.65-1.21,1.29-.44,1.89-.73,1.44-.09,2.05-.35,1.26-.44,1.89-.69,1.19-.61,1.82-.84,1.14-.79,1.78-1,1.48.26,2.13.08,1.11-1,1.76-1.17,1.35-.1,2-.25,1.21-.78,1.87-.91,1.37,0,2-.09,1.39.21,2,.13,1.28-.63,2-.69,1.38.41,2,.37,1.31-.57,2-.59,1.35.54,2,.54,1.35-.47,2-.45,1.33.24,2,.28,1.32.32,2,.38,1.34.05,2,.13,1.42-.42,2.08-.32,1.21.87,1.87,1,1.43-.26,2.08-.12,1.23.64,1.88.81,1.19.71,1.83.89,1.36.11,2,.31,1.35.21,2,.44,1.28.4,1.91.65,1.3.38,1.91.64,1,1,1.61,1.33,1.42.16,2,.47,1.33.38,1.92.71,1.13.75,1.7,1.09,1,1,1.53,1.37,1,.88,1.58,1.26,1.29.49,1.83.88.76,1.22,1.29,1.63,1.48.3,2,.73,1,.9,1.51,1.34,1.16.74,1.65,1.2.61,1.31,1.09,1.78.82,1.06,1.28,1.55.92,1,1.36,1.48,1.35.61,1.78,1.13.12,1.62.53,2.15,1,.87,1.45,1.41,1.34.7,1.72,1.26.18,1.49.54,2,1.2.85,1.54,1.42.56,1.24.89,1.82.33,1.35.64,1.95.65,1.17.94,1.77.86,1.09,1.13,1.7-.07,1.48.17,2.11,1.09,1,1.32,1.65,0,1.42.2,2.06.76,1.17.94,1.81-.17,1.44,0,2.09,1,1.13,1.19,1.79-.37,1.44-.24,2.1.8,1.22.91,1.88,0,1.36.07,2-.19,1.37-.12,2,.47,1.31.52,2-.23,1.35-.21,2S128.35,82.94,128.35,83.61Z" fill="#007130"/><path d="M94.16,122c-1.48,0-1.48-.08-3-.08s-1.48.16-3,.16-1.48-.05-3-.05-1.48.06-3,.06-1.49-.13-3-.13-1.49.06-3,.06-1.49-.23-3-.23-1.49,0-3,0-1.49,0-3,0-1.49-.12-3-.12-1.48.24-3,.24-1.48.16-3,.16-1.49-.34-3-.34-1.49,0-3,0-1.48.11-3,.11-1.49.11-3,.11-1.49-.09-3-.09-1.48-.15-3-.15-1.49.08-3,.08-1.49-.1-3-.1a3.65,3.65,0,0,1-2.64-.78,3.66,3.66,0,0,1-.79-2.63c0-1.54-.17-1.54-.17-3.07s0-1.54,0-3.07.16-1.54.16-3.08-.15-1.53-.15-3.07,0-1.54,0-3.07S31,101.4,31,99.86s.06-1.53.06-3.07.12-1.54.12-3.08-.07-1.53-.07-3.07S31,89.1,31,87.56s.35-1.54.35-3.07,0-1.54,0-3.08-.23-1.54-.23-3.07S31,76.8,31,75.26s.07-1.54.07-3.08.19-1.55.19-3.09a3.67,3.67,0,0,1,.8-2.63,3.87,3.87,0,0,1,2.64-1c1.48,0,1.48,0,3,0s1.48.36,3,.36,1.48-.35,3-.35,1.48.24,3,.24,1.49-.18,3-.18,1.49,0,3,0,1.48.25,3,.25,1.49-.14,3-.14,1.48-.17,3-.17,1.48.08,3,.08,1.48.2,3,.2,1.49.08,3,.08,1.49-.09,3-.09,1.48,0,3,0,1.49-.24,3-.24,1.49-.11,3-.11,1.48.14,3,.14,1.49,0,3,0,1.49.2,3,.2,1.48-.1,3-.1a3.7,3.7,0,0,1,2.64.91,3.85,3.85,0,0,1,1.06,2.63c0,1.54-.21,1.54-.21,3.07s0,1.54,0,3.08.24,1.53.24,3.07-.18,1.54-.18,3.07.16,1.54.16,3.07-.06,1.54-.06,3.08.08,1.54.08,3.07-.15,1.54-.15,3.08.12,1.54.12,3.08-.11,1.53-.11,3.07-.05,1.54-.05,3.07.17,1.54.17,3.08-.3,1.54-.3,3.08.22,1.54.22,3.08-.31,1.54-.31,3.08,0,1.54,0,3.08a3.72,3.72,0,0,1-.74,2.66A3.86,3.86,0,0,1,94.16,122Z" fill="#007130"/><path d="M94.16,122c-1.48,0-1.48-.08-3-.08s-1.48.16-3,.16-1.48-.05-3-.05-1.48.06-3,.06-1.49-.13-3-.13-1.49.06-3,.06-1.49-.23-3-.23-1.49,0-3,0-1.49,0-3,0-1.49-.12-3-.12-1.48.24-3,.24-1.48.16-3,.16-1.49-.34-3-.34-1.49,0-3,0-1.48.11-3,.11-1.49.11-3,.11-1.49-.09-3-.09-1.48-.15-3-.15-1.49.08-3,.08-1.49-.1-3-.1a3.65,3.65,0,0,1-2.64-.78,3.66,3.66,0,0,1-.79-2.63c0-1.54-.17-1.54-.17-3.07s0-1.54,0-3.07.16-1.54.16-3.08-.15-1.53-.15-3.07,0-1.54,0-3.07S31,101.4,31,99.86s.06-1.53.06-3.07.12-1.54.12-3.08-.07-1.53-.07-3.07S31,89.1,31,87.56s.35-1.54.35-3.07,0-1.54,0-3.08-.23-1.54-.23-3.07S31,76.8,31,75.26s.07-1.54.07-3.08.19-1.55.19-3.09a3.67,3.67,0,0,1,.8-2.63,3.87,3.87,0,0,1,2.64-1c1.48,0,1.48,0,3,0s1.48.36,3,.36,1.48-.35,3-.35,1.48.24,3,.24,1.49-.18,3-.18,1.49,0,3,0,1.48.25,3,.25,1.49-.14,3-.14,1.48-.17,3-.17,1.48.08,3,.08,1.48.2,3,.2,1.49.08,3,.08,1.49-.09,3-.09,1.48,0,3,0,1.49-.24,3-.24,1.49-.11,3-.11,1.48.14,3,.14,1.49,0,3,0,1.49.2,3,.2,1.48-.1,3-.1a3.7,3.7,0,0,1,2.64.91,3.85,3.85,0,0,1,1.06,2.63c0,1.54-.21,1.54-.21,3.07s0,1.54,0,3.08.24,1.53.24,3.07-.18,1.54-.18,3.07.16,1.54.16,3.07-.06,1.54-.06,3.08.08,1.54.08,3.07-.15,1.54-.15,3.08.12,1.54.12,3.08-.11,1.53-.11,3.07-.05,1.54-.05,3.07.17,1.54.17,3.08-.3,1.54-.3,3.08.22,1.54.22,3.08-.31,1.54-.31,3.08,0,1.54,0,3.08a3.72,3.72,0,0,1-.74,2.66A3.86,3.86,0,0,1,94.16,122Z" fill="none" stroke="#fff" stroke-linecap="round" stroke-linejoin="round" stroke-width="2.13"/><path d="M27.46,87.3c1.48,0,1.48.08,3,.08s1.48.1,3,.1h2.95c1.48,0,1.48,0,3,0s1.48-.11,3-.11,1.48-.06,3-.06,1.48.27,3,.27,1.48-.37,3-.37,1.47,0,3,0,1.48.11,3,.11h3c1.48,0,1.48,0,3,0s1.48-.06,3-.06,1.48,0,3,0,1.48.38,3,.38,1.48-.4,3-.4,1.48.36,3,.36,1.48-.26,3-.26,1.48.22,3,.22,1.48,0,2.95,0,1.48-.18,3-.18,1.48-.15,3-.15,1.48.36,3,.36,1.48-.07,3-.07,1.49-.15,3-.15" fill="#007130"/><path d="M27.46,87.3c1.48,0,1.48.08,3,.08s1.48.1,3,.1h2.95c1.48,0,1.48,0,3,0s1.48-.11,3-.11,1.48-.06,3-.06,1.48.27,3,.27,1.48-.37,3-.37,1.47,0,3,0,1.48.11,3,.11h3c1.48,0,1.48,0,3,0s1.48-.06,3-.06,1.48,0,3,0,1.48.38,3,.38,1.48-.4,3-.4,1.48.36,3,.36,1.48-.26,3-.26,1.48.22,3,.22,1.48,0,2.95,0,1.48-.18,3-.18,1.48-.15,3-.15,1.48.36,3,.36,1.48-.07,3-.07,1.49-.15,3-.15" fill="none" stroke="#fff" stroke-miterlimit="10" stroke-width="4.27"/><path d="M82.32,121.81c-1.08,1-1.45.2-2.94.2s-1.49-.35-3-.35-1.49.29-3,.29-1.49,0-3,0-1.49,0-3,0-1.5,0-3,0-1.49-.08-3-.08-1.5.06-3,.06-1.49-.06-3-.06-1.49-.17-3-.17-1.5.11-3,.11-1.89,1-3,0-.07-1.41-.07-2.84,0-1.42,0-2.84,0-1.42,0-2.84.26-1.42.26-2.84,0-1.42,0-2.85-.35-1.42-.35-2.84.24-1.42.24-2.85.09-1.42.09-2.84-1.08-1.8,0-2.79,1.42-.13,2.91-.13,1.5.24,3,.24,1.49-.05,3-.05,1.5-.26,3-.26,1.49.26,3,.26,1.49-.09,3-.09,1.49-.05,3-.05h3c1.5,0,1.5.11,3,.11s1.49-.21,3-.21,1.49.13,3,.13,1.83-1,2.91.07-.1,1.34-.1,2.76.34,1.42.34,2.84-.15,1.42-.15,2.85-.07,1.42-.07,2.84,0,1.42,0,2.84.09,1.42.09,2.84-.06,1.43-.06,2.85a9,9,0,0,0,.16,2.83C82.78,120.46,83.35,120.83,82.32,121.81Z" fill="#007130"/><path d="M82.32,121.81c-1.08,1-1.45.2-2.94.2s-1.49-.35-3-.35-1.49.29-3,.29-1.49,0-3,0-1.49,0-3,0-1.5,0-3,0-1.49-.08-3-.08-1.5.06-3,.06-1.49-.06-3-.06-1.49-.17-3-.17-1.5.11-3,.11-1.89,1-3,0-.07-1.41-.07-2.84,0-1.42,0-2.84,0-1.42,0-2.84.26-1.42.26-2.84,0-1.42,0-2.85-.35-1.42-.35-2.84.24-1.42.24-2.85.09-1.42.09-2.84-1.08-1.8,0-2.79,1.42-.13,2.91-.13,1.5.24,3,.24,1.49-.05,3-.05,1.5-.26,3-.26,1.49.26,3,.26,1.49-.09,3-.09,1.49-.05,3-.05h3c1.5,0,1.5.11,3,.11s1.49-.21,3-.21,1.49.13,3,.13,1.83-1,2.91.07-.1,1.34-.1,2.76.34,1.42.34,2.84-.15,1.42-.15,2.85-.07,1.42-.07,2.84,0,1.42,0,2.84.09,1.42.09,2.84-.06,1.43-.06,2.85a9,9,0,0,0,.16,2.83C82.78,120.46,83.35,120.83,82.32,121.81Z" fill="none" stroke="#fff" stroke-linecap="round" stroke-linejoin="round" stroke-width="2.13"/><path d="M64.32,121.86c0-1.42.22-1.42.22-2.85s-.12-1.42-.12-2.84,0-1.42,0-2.84,0-1.42,0-2.84-.12-1.42-.12-2.85.14-1.42.14-2.84-.12-1.42-.12-2.85.17-1.42.17-2.84-.26-1.43-.26-2.85" fill="#007130"/><path d="M64.32,121.86c0-1.42.22-1.42.22-2.85s-.12-1.42-.12-2.84,0-1.42,0-2.84,0-1.42,0-2.84-.12-1.42-.12-2.85.14-1.42.14-2.84-.12-1.42-.12-2.85.17-1.42.17-2.84-.26-1.43-.26-2.85" fill="none" stroke="#fff" stroke-linecap="round" stroke-linejoin="round" stroke-width="2.13"/><path d="M75.37,87c0-1.53.25-1.53.25-3.06s-.25-1.53-.25-3,0-1.53,0-3.06.25-1.53.25-3.06,0-1.53,0-3.06-.06-1.53-.06-3.06-.19-1.53-.19-3.06" fill="#007130"/><path d="M75.37,87c0-1.53.25-1.53.25-3.06s-.25-1.53-.25-3,0-1.53,0-3.06.25-1.53.25-3.06,0-1.53,0-3.06-.06-1.53-.06-3.06-.19-1.53-.19-3.06" fill="none" stroke="#fff" stroke-linecap="round" stroke-linejoin="round" stroke-width="2.13"/><path d="M37.53,65c0-1.54-.31-1.54-.31-3.09s.38-1.55.38-3.09-.19-1.55-.19-3.1" fill="#007130"/><path d="M37.53,65c0-1.54-.31-1.54-.31-3.09s.38-1.55.38-3.09-.19-1.55-.19-3.1" fill="none" stroke="#fff" stroke-linecap="round" stroke-linejoin="round" stroke-width="2.84"/><path d="M57.5,65c0-1.54-.11-1.54-.11-3.09s.12-1.55.12-3.09-.21-1.55-.21-3.1" fill="#007130"/><path d="M57.5,65c0-1.54-.11-1.54-.11-3.09s.12-1.55.12-3.09-.21-1.55-.21-3.1" fill="none" stroke="#fff" stroke-linecap="round" stroke-linejoin="round" stroke-width="2.84"/><path d="M53.2,87c0-1.53.23-1.53.23-3.06s-.21-1.53-.21-3,.19-1.53.19-3.06-.23-1.53-.23-3.06.21-1.53.21-3.06-.12-1.53-.12-3.06.18-1.53.18-3.06" fill="#007130"/><path d="M53.2,87c0-1.53.23-1.53.23-3.06s-.21-1.53-.21-3,.19-1.53.19-3.06-.23-1.53-.23-3.06.21-1.53.21-3.06-.12-1.53-.12-3.06.18-1.53.18-3.06" fill="none" stroke="#fff" stroke-linecap="round" stroke-linejoin="round" stroke-width="2.13"/><path d="M63.7,57.49c-1,1.1-1.5-.2-3-.2s-1.47,0-2.95,0-1.48.07-3,.07-1.48-.1-3-.1H46c-1.48,0-1.48.22-3,.22s-1.48.12-3,.12h-3c-1.48,0-1.48-.23-3-.23s-2.08,1.28-3.07.18.16-1.74.16-3.38,0-1.64,0-3.28.09-1.64.09-3.28-1.22-2.06-.12-3.28,1.48-.1,3-.1,1.47.17,3,.17,1.48.07,3,.07,1.48-.24,3-.24,1.48.22,3,.22h3c1.47,0,1.47.06,3,.06s1.48,0,3,0,1.48-.31,3-.31h3c1.48,0,1.84-.81,2.83.29s.17,1.52.17,3.16.09,1.64.09,3.28-.4,1.66-.06,3.27S64.8,56.27,63.7,57.49Z" fill="#fff"/><path d="M63.7,57.49c-1,1.1-1.5-.2-3-.2s-1.47,0-2.95,0-1.48.07-3,.07-1.48-.1-3-.1H46c-1.48,0-1.48.22-3,.22s-1.48.12-3,.12h-3c-1.48,0-1.48-.23-3-.23s-2.08,1.28-3.07.18.16-1.74.16-3.38,0-1.64,0-3.28.09-1.64.09-3.28-1.22-2.06-.12-3.28,1.48-.1,3-.1,1.47.17,3,.17,1.48.07,3,.07,1.48-.24,3-.24,1.48.22,3,.22h3c1.47,0,1.47.06,3,.06s1.48,0,3,0,1.48-.31,3-.31h3c1.48,0,1.84-.81,2.83.29s.17,1.52.17,3.16.09,1.64.09,3.28-.4,1.66-.06,3.27S64.8,56.27,63.7,57.49Z" fill="none" stroke="#fff" stroke-linecap="round" stroke-linejoin="round" stroke-width="2.13"/><path d="M15.63,6.52c.4.52.64.34,1,.87s.2.68.6,1.21.51.44.91,1,.38.54.77,1.07.57.39,1,.92.39.53.79,1,.48.47.87,1,.11.75.51,1.28.63.35,1,.88.14.72.54,1.25.39.53.79,1,.54.42.94,1,.21.67.61,1.2.66.33,1.06.86.4.53.8,1.06.46.49.86,1" fill="none" stroke="#007130" stroke-linecap="round" stroke-linejoin="round" stroke-width="1.28"/><path d="M115.21,6.66c-.39.54-.49.46-.87,1s-.46.48-.85,1-.57.41-1,.94-.44.49-.83,1-.16.7-.54,1.23-.56.42-1,1-.17.69-.56,1.22-.53.44-.92,1-.14.72-.53,1.25-.81.22-1.21.76,0,.83-.36,1.37-.7.31-1.09.84-.42.51-.82,1-.42.51-.81,1-.21.67-.6,1.21-.31.6-.7,1.14" fill="none" stroke="#007130" stroke-linecap="round" stroke-linejoin="round" stroke-width="1.28"/><path d="M38.88,5.72a3.94,3.94,0,0,0-.15,1.13,8.76,8.76,0,0,1-.92,3.45A8.78,8.78,0,0,1,36.7,12a4.73,4.73,0,0,0-1.67-.7,6.43,6.43,0,0,0,1.41-2A5.84,5.84,0,0,0,37,7.17L30.15,10a13.75,13.75,0,0,0-1.74.81l-.67-1.63a12.09,12.09,0,0,0,1.84-.64l6.8-2.82a3.67,3.67,0,0,0,1.21-.64ZM34.27,9.55a6.24,6.24,0,0,0,.38,1.08c.87,2.25,1,3.65.63,5.15a8.28,8.28,0,0,1-2.39,3.74,5,5,0,0,0-1.65-1.06,6.49,6.49,0,0,0,1.82-2.05c.89-1.61.85-2.9-.18-5.37a3.69,3.69,0,0,0-.38-.75Z" fill="#007130"/><path d="M49.45,2.67c.24,0,.45-.1.75-.19a1.55,1.55,0,0,1,3-.64A1.56,1.56,0,0,1,52.07,3.7l-.16,0A14.35,14.35,0,0,1,51,8.58a12.25,12.25,0,0,1-2.7,4.08A15,15,0,0,1,46,14.6a5.11,5.11,0,0,0-1.57-1.37,11.38,11.38,0,0,0,2.71-2.07A9.79,9.79,0,0,0,50,4.24L43.45,5.68a10.55,10.55,0,0,0-1.72.46l-.39-1.79a11.07,11.07,0,0,0,1.78-.29Zm1.48-.32a.82.82,0,0,0,1,.61.8.8,0,0,0,.61-1,.78.78,0,0,0-1-.61A.82.82,0,0,0,50.93,2.35Z" fill="#007130"/><path d="M58.06.7a7.37,7.37,0,0,0,0,1.27l.19,3.89a6.64,6.64,0,0,0,.12,1.24l-1.93.09c0-.32,0-.76,0-1.27L56.26,2A9.45,9.45,0,0,0,56.14.78Zm6.4-.3a6.45,6.45,0,0,0,0,1.31l.09,1.91a16.49,16.49,0,0,1-.15,4.29,5.47,5.47,0,0,1-2.62,3.42,12.27,12.27,0,0,1-2.7,1.22A4.85,4.85,0,0,0,58,10.92a7.61,7.61,0,0,0,3-1.28A4,4,0,0,0,62.76,6c0-.61,0-1.23,0-2.36l-.09-1.76A7.21,7.21,0,0,0,62.5.5Z" fill="#007130"/><path d="M67.94,1.29C68,.86,68,.62,68,0a8.52,8.52,0,0,0,1,.16l2.06.23a4.6,4.6,0,0,0,1,0l.69,1.07a10,10,0,0,0-.56,1A21.67,21.67,0,0,1,70.93,4.8a5.74,5.74,0,0,1,.8,1.91,4.8,4.8,0,0,1,.06,1.41c-.09.83-.4,1.33-.94,1.51A3.6,3.6,0,0,1,69,9.69a3.6,3.6,0,0,0-.12-1.51,4.76,4.76,0,0,0,.61.13c.55.06.74-.08.8-.54a4,4,0,0,0-.15-1.48,5.44,5.44,0,0,0-.82-1.54,16.51,16.51,0,0,0,1.66-3L69.4,1.56,68.32,11.1c-.07.58-.1,1.11-.12,1.61l-1.62-.18a14.14,14.14,0,0,0,.27-1.6Zm5.84,5.84-.45,4a15.56,15.56,0,0,0,2.39-.34l-.12,1.42c-1.5.27-2.47.39-4.6.62a5.52,5.52,0,0,0-.73.11l-.11-1.61a12.94,12.94,0,0,0,1.69-.06l1-9.14A14.33,14.33,0,0,0,73,.65a7.94,7.94,0,0,0,1.34.22l4,.45a7.9,7.9,0,0,0,1.32.08A15,15,0,0,0,79.44,3l-.37,3.27A14.36,14.36,0,0,0,79,7.75l-.39-.07,1,1.1a2,2,0,0,0-.43.25c-.48.33-1.41.89-2.06,1.24a7.27,7.27,0,0,0,2.36,2.28,5.51,5.51,0,0,0-1,1.33,9,9,0,0,1-2.62-3.05,9.35,9.35,0,0,1-1-3.59Zm.14-1.28,3.69.42L77.75,5,74.07,4.6Zm.29-2.48,3.68.42L78,2.65l-3.69-.42Zm1.93,4A7.39,7.39,0,0,0,76.5,9a9.79,9.79,0,0,0,2-1.37l-.68-.09Z" fill="#007130"/><path d="M87.52,8.65l-2-.62a10.48,10.48,0,0,0-1.38-.37l.45-1.42a10.79,10.79,0,0,0,1.33.5l5.16,1.63a9.66,9.66,0,0,0,1.41.37l-.45,1.42a9.92,9.92,0,0,0-1.37-.5L88.94,9.1l-.55,1.72,2.55.81a7.06,7.06,0,0,0,1.34.33l-.45,1.44a10.58,10.58,0,0,0-1.3-.48L88,12.12l-.73,2.31a17,17,0,0,0,2.15.83c.78.25,1.71.49,3.12.81a5.27,5.27,0,0,0-.86,1.41c-1.11-.32-1.82-.53-2.88-.86-3.15-1-4.69-2.24-5.28-4.22a10,10,0,0,1-2.68,2A3.87,3.87,0,0,0,80,13a8.31,8.31,0,0,0,3.52-3.07,9.63,9.63,0,0,0,.73-1.37l1.4.75c-.14.21-.14.22-.44.74-.15.25-.33.53-.73,1.1A4.11,4.11,0,0,0,86,13.65Zm1.14-4.39a4.36,4.36,0,0,0,.19-.88l1.66.52a4.5,4.5,0,0,0-.34.82L90,5.24l3.64,1.14a15.62,15.62,0,0,0,1.51.42,7.23,7.23,0,0,0-.37,1l-.33,1a8.08,8.08,0,0,0-.28,1.07l-1.46-.46.54-1.68L84.56,5,84,6.69l-1.49-.47a7.14,7.14,0,0,0,.4-1l.33-1c.11-.35.19-.7.26-1,.47.19.92.35,1.46.52L88.5,4.76Z" fill="#007130"/><path d="M95.35,18.83l.86-1.73L98,18l-.86,1.73Zm1.55-2.68c.14-.26.22-.38.29-.53s.07-.14.41-.92l2-4.39c.26-.56.53-1.22.66-1.6l2.07,1c-.21.33-.58,1-.88,1.49l-2.31,4.21c-.39.72-.39.72-.47.9a4.33,4.33,0,0,0-.24.54Z" fill="#007130"/></g></g></svg>