<svg xmlns="http://www.w3.org/2000/svg" width="367.07" height="92.23" viewBox="0 0 367.07 92.23"><title>ttl02</title><g id="レイヤー_2" data-name="レイヤー 2"><g id="レイヤー_2-2" data-name="レイヤー 2"><path d="M38.07,16.33c-.16.68-.08,1.16-.64,1.64a2.6,2.6,0,0,1-1.6.68,2.47,2.47,0,0,0-1.08-.2,12.49,12.49,0,0,1-2.12-1,10.53,10.53,0,0,1-1.2-.72,10,10,0,0,1-1.2-.76c-.23-.44-.88-.36-1.15-.8-.56-.4-.77-.4-1.12-.8-.28-.16-.88-.32-1-.76-.24,0-.56-.4-.84-.68-.52-.12-.76-.6-1-.8a2.64,2.64,0,0,0-1-.8,4.51,4.51,0,0,1-1-.84,1.74,1.74,0,0,0-.92-.84c-.44-.16-.56-.76-.88-.88a1.66,1.66,0,0,1-.88-.92c-.48-.48-.68-.4-1.08-1.12a.72.72,0,0,0-1.08,0,7.57,7.57,0,0,1-.92,1c-.24.2-.56.68-.8.84a5.06,5.06,0,0,0-.8.84c-.16.24-.6.56-.8.8-.36.08-.48.52-.84.8-.72.68-1.28,1.12-1.68,1.52-.16.28-.52.32-.88.72a3.27,3.27,0,0,0-.88.76,12.46,12.46,0,0,1-1.84,1.36A8.79,8.79,0,0,0,7,16.65a13.18,13.18,0,0,0-1.92,1.24l-1.36.88a2.52,2.52,0,0,1-1.6.48,1.4,1.4,0,0,1-1.52-.68A2.83,2.83,0,0,1,0,17a4.31,4.31,0,0,1,.36-1.16A1.23,1.23,0,0,1,1.28,15c.36,0,.52-.36,1.12-.68a2.14,2.14,0,0,1,1.08-.68,6.2,6.2,0,0,1,1.56-1,10,10,0,0,0,1.64-1.16,18.38,18.38,0,0,1,1.6-1.28A4.23,4.23,0,0,0,9.92,8.81a13.84,13.84,0,0,1,1.56-1.44c.44-.48.8-.84,1.44-1.44.44-.6,1-1,1.36-1.48A7,7,0,0,0,15.48,3c.4-.44.56-.76.84-1,.12-.28.56-.48.76-1a2.36,2.36,0,0,1,2-1,4.22,4.22,0,0,1,1.56.52c.28.4.8.8.72,1.4a2,2,0,0,0,.68,1c.28.28.32.68.68.88.52.64.88.92,1.36,1.6a12.58,12.58,0,0,0,1.48,1.4,6,6,0,0,0,1.56,1.32c.56.32,1.12.92,1.76,1.32a20.64,20.64,0,0,0,1.79,1.28,10.36,10.36,0,0,0,1.92,1.2A7.3,7.3,0,0,0,34.51,13c.72.56,1.36.6,2,1.08a1.6,1.6,0,0,1,1.08.92C37.79,15.53,38.15,15.89,38.07,16.33Zm-2.68,6.83a1.48,1.48,0,0,1-.48,1.41,1.57,1.57,0,0,1-1.32.64,12.73,12.73,0,0,1-2,0,8.72,8.72,0,0,1-2,0,4.61,4.61,0,0,1-2,0,3.93,3.93,0,0,0-2,0,7.05,7.05,0,0,1-2,0,4.23,4.23,0,0,1-2,0,9.78,9.78,0,0,0-2.24,0c-.52.16-1,.31-1.32.39a1.74,1.74,0,0,0-.92.76c-.32.72-.48.88-.72,1.36-.2.28-.72.48-.52.92a12.32,12.32,0,0,1-1.16,2,3.4,3.4,0,0,0-.2,1c0,.28.12.32.32.24.84.12,1.76-.32,2.52-.2a14.73,14.73,0,0,1,2.36-.24,5.76,5.76,0,0,0,2.68-.28c.64,0,1-.72.6-1.44-.72-.4-1.2-1-1-1.72a2,2,0,0,1,.68-1.4c.4-.48.8-.35,1.52-.56.68.17,1,.4,1.64.6a11.39,11.39,0,0,0,1.28,1.08c.56.44.88.84,1.28,1.16A4.15,4.15,0,0,1,29.48,30a10.87,10.87,0,0,0,1.11,1.2,9.26,9.26,0,0,0,1.32,1.44c.24.56,1,1.16,1.12,1.6a2.25,2.25,0,0,1,.28,1.08,1.69,1.69,0,0,1-.72,1.48,2.15,2.15,0,0,1-1.52.6,2.55,2.55,0,0,1-2.19-1.16c-.72-.52-.84-1.12-1.28-1.6-.72,0-1.8.32-2.68.32a23.76,23.76,0,0,1-2.72.32,11.71,11.71,0,0,1-2.68.28,6.6,6.6,0,0,1-2.68.28,9,9,0,0,1-2.72.24c-1.08,0-1.8.32-2.72.24a10.29,10.29,0,0,1-2.64.24,13,13,0,0,1-2.8.12,2,2,0,0,1-1.6-.6,2.68,2.68,0,0,1-.64-1.56A2,2,0,0,1,4.32,33a2.13,2.13,0,0,1,1.48-.64,5,5,0,0,1,1.44-.08c.64-.08.8-.16,1,0,.6-.36.52-.64.8-.76a5.31,5.31,0,0,1,1-1.56,4.39,4.39,0,0,1,1-1.6,11.66,11.66,0,0,0,1-1.88c.4-.6-.28-1.19-.92-1.19-1.12.08-1.6,0-2.4,0a17.91,17.91,0,0,1-2.08,0c-.64-.09-1.56,0-2.12,0a1.31,1.31,0,0,1-1.32-.64,3.69,3.69,0,0,1-.48-1.41c.16-.31.12-1,.48-1.43a1.93,1.93,0,0,1,1.32-.6,4.13,4.13,0,0,1,1.88,0,5.44,5.44,0,0,0,1.8,0,5.41,5.41,0,0,1,1.8,0c.76-.08,1.36.2,1.8,0a9,9,0,0,1,1.8,0,3.43,3.43,0,0,0,1.8,0,7.07,7.07,0,0,0,1.84,0,3,3,0,0,0,1.8,0c.56,0,1.2,0,1.84,0a4.53,4.53,0,0,1,1.8,0,3.59,3.59,0,0,0,1.84,0,9,9,0,0,1,1.8,0,5.42,5.42,0,0,0,1.8,0,4.53,4.53,0,0,1,1.8,0,3.36,3.36,0,0,0,1.79,0,9.78,9.78,0,0,1,1.88,0c.36.08,1.16.16,1.32.6A1.36,1.36,0,0,1,35.39,23.16ZM10.84,15.93a1.36,1.36,0,0,1,.68-1.28c.24-.2.4-.84,1.12-.8s1,.08,1.64,0c.44-.12,1.08.12,1.56,0a20.83,20.83,0,0,0,3.16,0,17,17,0,0,1,3.2,0c.52-.08,1.12.12,1.56,0a3.78,3.78,0,0,1,1.64,0c.68,0,.64.56,1.32.64,0,.64.64.92.48,1.44a1.31,1.31,0,0,1-.48,1.4A2.72,2.72,0,0,1,25.4,18a3.83,3.83,0,0,1-1.64,0c-.72-.12-1.12.2-1.56,0A28.46,28.46,0,0,1,19,18c-1.24-.16-2,.16-3.16,0a5.3,5.3,0,0,0-1.6,0c-.36-.16-1.12.12-1.6,0a2.07,2.07,0,0,1-1.32-.64A1.62,1.62,0,0,1,10.84,15.93Z" fill="#007130"/><path d="M52.68,33.16A1.94,1.94,0,0,1,52,34.6a14.91,14.91,0,0,0-1.6.8,3.31,3.31,0,0,1-2,.8,2.62,2.62,0,0,1-1.36.44,5.8,5.8,0,0,1-1.4.48,11,11,0,0,1-1.44.44c-.56,0-.88.44-1.36.36-.76,0-1.52.44-2,.28a1.18,1.18,0,0,1-1.28-.68,1.27,1.27,0,0,1-.52-1.4c-.2-.6.2-.8.52-1.28a1.76,1.76,0,0,1,1.2-.72c.48-.12.68-.12,1.16-.24s1.08-.2,1.92-.48a12.23,12.23,0,0,1,1.92-.6c.68-.28,1.32-.24,1.84-.48a5.2,5.2,0,0,0,1.92-.72,4.46,4.46,0,0,0,1.28-.36,4.52,4.52,0,0,1,1.28.6A1.57,1.57,0,0,1,52.68,33.16ZM61.16,31c-.88.16-1.68,0-2.28,0a3.36,3.36,0,0,1-2.08.2,6.43,6.43,0,0,1-2.08-.2,13.79,13.79,0,0,1-2.28,0,20.92,20.92,0,0,0-2.24,0,21.3,21.3,0,0,1-2.28,0,4,4,0,0,1-2.16,0,3.3,3.3,0,0,1-2-1.08A3.18,3.18,0,0,1,43,28.56a3.29,3.29,0,0,1-.16-1.48,9.35,9.35,0,0,1,0-2.59,19.37,19.37,0,0,1,0-2.64c.12-1,0-1.6,0-2.6a19.34,19.34,0,0,1,0-2.64A6.26,6.26,0,0,1,43.08,15a4.1,4.1,0,0,1,.88-1.4c.6-.6,1.28-.56,2-.92.48,0,1.48-.08,2.12-.16s1.28.08,2.16,0a20.18,20.18,0,0,0,2.2,0,10,10,0,0,0,2.2,0,5.8,5.8,0,0,0,2.2,0,5.06,5.06,0,0,1,2.2,0,8.1,8.1,0,0,0,2.2,0,4.92,4.92,0,0,0,2.16,0,10.11,10.11,0,0,1,2.2,0c.56.08,1.36.08,2.28.2a4.84,4.84,0,0,1,2,1.12c.2.48.72.88.72,1.32a9.13,9.13,0,0,0,.16,1.48,19.38,19.38,0,0,0,0,2.64c-.12,1,.08,1.76,0,2.6a8.32,8.32,0,0,1,0,2.64c-.08,1,.12,1.67,0,2.59a13.72,13.72,0,0,1-.36,2,3.11,3.11,0,0,1-1.28,1.48,2.66,2.66,0,0,1-1.72.6A7.4,7.4,0,0,1,65.6,31a19.15,19.15,0,0,0-2.16,0A10.79,10.79,0,0,1,61.16,31ZM44.72,4.93a1.6,1.6,0,0,1,.2-1.36,1.77,1.77,0,0,1,.72-1.16,3.79,3.79,0,0,1,1.76-.8c.8,0,1.24-.16,1.92-.16a4,4,0,0,0,1.84,0,3.71,3.71,0,0,0,1.88,0,14.44,14.44,0,0,1,1.88,0,14.09,14.09,0,0,1,1.84,0c.48.12,1.2-.08,1.88,0a5.91,5.91,0,0,1,1.88,0,7.39,7.39,0,0,0,1.88,0,7,7,0,0,1,1.84,0c.48.12,1.24,0,2,.16.52.24,1.52.36,1.8,1a3.3,3.3,0,0,1,.76,2.36c.12.92,0,1.6,0,2.44a12.51,12.51,0,0,1-.44,1.84,2.1,2.1,0,0,1-1.48,1.28,4.18,4.18,0,0,1-2.68.4c-.76.16-1.2-.16-1.84,0a4.24,4.24,0,0,1-1.88,0c-.8-.16-1.32.2-1.88,0a9.83,9.83,0,0,1-1.88,0c-.48.16-1.44-.12-1.84,0-.48-.16-1.4.2-1.88,0-.8-.12-1.24.16-1.88,0a3.58,3.58,0,0,1-1.84,0c-.68-.08-1.2-.08-2-.2a2.69,2.69,0,0,1-1.8-1,6.25,6.25,0,0,1-.76-2.36C44.56,6.61,44.88,5.69,44.72,4.93Zm16.16,23a5.58,5.58,0,0,0,2,0,6.85,6.85,0,0,0,2,0c.76.16,1.6,0,1.44-1.08.08-.32-.48-1-1.76-.92a11.77,11.77,0,0,0-3,0,9.64,9.64,0,0,1-2.4,0,9.92,9.92,0,0,0-2.44,0,16.4,16.4,0,0,1-2.44,0,16.56,16.56,0,0,0-2.44,0,7.53,7.53,0,0,1-2.68,0c-1.16-.16-2,.52-2,.92-.16,1,.56,1,1.44,1.08a3.76,3.76,0,0,0,2,0,11.52,11.52,0,0,0,2,0,17.34,17.34,0,0,0,2,0,8.61,8.61,0,0,1,2,0,17.26,17.26,0,0,1,2,0A17.34,17.34,0,0,1,60.88,27.88ZM49,17.73a18.1,18.1,0,0,1,3,0,8.28,8.28,0,0,0,2.44,0c.8-.08,1.48.08,2.44,0,.6.12,1.72-.08,2.44,0a8,8,0,0,0,2.4,0,10.24,10.24,0,0,0,3,0c.72-.12,1.8-.16,1.76-.84.24-1-.44-1.08-1.44-1a17.17,17.17,0,0,1-2,0,16.65,16.65,0,0,1-2,0,11.56,11.56,0,0,0-2,0c-.84-.08-1.24,0-2,0-.52-.08-1.44,0-2,0a17.35,17.35,0,0,0-2,0,5,5,0,0,0-2,0c-.8-.12-1.28.08-2,0s-1.4,0-1.44,1C47.16,17.41,48.24,17.69,49,17.73Zm0,5a18.19,18.19,0,0,1,3,0c1-.16,1.56.15,2.44,0s1.52.08,2.44,0c.72-.12,1.64.12,2.44,0s1.68.12,2.4,0a12,12,0,0,1,3,0,1.41,1.41,0,0,0,1.52-.44,1.56,1.56,0,0,0,.36-1c-.32-.68-1.08-.6-1.88-.44a10.35,10.35,0,0,1-3,0,6.06,6.06,0,0,0-2.4,0,6.24,6.24,0,0,1-2.44,0,10,10,0,0,0-2.44,0,9.91,9.91,0,0,1-2.44,0c-1-.12-1.68.2-3,0a1.65,1.65,0,0,0-1.36.24c-.24.12-.36.8-.2,1.16A2.53,2.53,0,0,0,49,22.77Zm.16-17.24c-.16.48.08.84,0,1.24,0,.6.36.72,1.12.8a2.82,2.82,0,0,0,1.64,0,11.22,11.22,0,0,1,1.64,0c.68-.16,1.08.12,1.64,0s1,.12,1.64,0c.4.08,1.08,0,1.64,0s1.08,0,1.64,0a5.63,5.63,0,0,1,1.64,0c.72,0,1.2-.16,1.64,0s1.24-.08,1.08-.8c-.2-.28-.08-.72,0-1.24s-.4-.88-1.08-.76a5.62,5.62,0,0,1-1.64,0,2.52,2.52,0,0,1-1.64,0c-.6,0-1.12,0-1.64,0a3.76,3.76,0,0,0-1.64,0,2.86,2.86,0,0,1-1.64,0,7.48,7.48,0,0,0-1.64,0,4.5,4.5,0,0,1-1.64,0,3.77,3.77,0,0,0-1.64,0C49.64,4.69,48.8,4.81,49.12,5.53ZM74.28,36a2.39,2.39,0,0,1-.56,1.44c-.4.48-1,.48-1.44.64-.48-.16-1.16-.12-2-.32a18.39,18.39,0,0,0-2-.56c-.76,0-1.32-.56-2-.6a14.79,14.79,0,0,0-1.64-.6,5.85,5.85,0,0,1-1.92-.68A2.82,2.82,0,0,1,61,34.24a1.3,1.3,0,0,1-.28-1.12c.08-.48.2-1.12.56-1.28a1.67,1.67,0,0,1,1.48-.6c.48-.2.64.32,1,.32a7.59,7.59,0,0,0,2.2.76,4.09,4.09,0,0,0,1.88.44,8.49,8.49,0,0,0,1.8.48,6.79,6.79,0,0,0,1.76.4,2.81,2.81,0,0,0,1.24.28c.52.12.76.44,1.24.76A5.07,5.07,0,0,1,74.28,36Z" fill="#007130"/><path d="M93.08,12.65c-.52.08-1,.24-1.91.48a2.27,2.27,0,0,0-1.16.72,5,5,0,0,0-.56,1.28A15.73,15.73,0,0,0,88.93,17c0,.44-.44,1.12-.32,1.36a11.64,11.64,0,0,1-.68,2.48,20,20,0,0,0-.64,2.44c-.28,1-.56,1.75-.68,2.43a10.41,10.41,0,0,0-.72,2.44c-.16,1-.52,1.56-.72,2.4a2.11,2.11,0,0,0-.4,1.2,9.77,9.77,0,0,0-.44,1.2c-.24.56-.24.6-.44,1.16a10,10,0,0,0-.6,1.12,2,2,0,0,1-.72.84,2.9,2.9,0,0,1-1.4.32,3.51,3.51,0,0,1-1.6-.6,1.86,1.86,0,0,1-.72-1.52,2.55,2.55,0,0,1,.24-1.16c.32-1,.64-1.44.76-2a9.48,9.48,0,0,1,.76-2A15.31,15.31,0,0,1,81.29,27a5.48,5.48,0,0,1,.64-2.08,11.94,11.94,0,0,1,.6-2.11,6.9,6.9,0,0,1,.52-2.08,22,22,0,0,0,.48-2.16c.08-.68.4-1.24.56-2.48a1.28,1.28,0,0,0-1.44-1.36c-1.08,0-2.08.16-2.84.2a1.83,1.83,0,0,1-1.64-.56,2.89,2.89,0,0,1-.64-1.6,2.46,2.46,0,0,1,.6-1.6,2.43,2.43,0,0,1,1.48-.72,10.34,10.34,0,0,1,1.68-.12c.56-.16,1.12-.12,2.2-.28a3.51,3.51,0,0,0,1.24-.52,2,2,0,0,0,.76-1,4.81,4.81,0,0,0,.16-1.6,9.3,9.3,0,0,0,.16-1.48A10.41,10.41,0,0,1,86,3.81a2.47,2.47,0,0,1,.72-1.52,1.9,1.9,0,0,1,1.6-.56,2.56,2.56,0,0,1,1.72.64A2.26,2.26,0,0,1,90.69,4c.08.4-.08.64-.16,1.4,0,.36-.2,1.08-.24,1.64-.28,1.12,0,1.56.56,1.56a8.13,8.13,0,0,1,1.44-.32A5.17,5.17,0,0,1,94,8a1.61,1.61,0,0,1,1.48.68,2.22,2.22,0,0,1,.6,1.52,2,2,0,0,1-1,1.76A9.53,9.53,0,0,1,93.08,12.65Zm17.8,20a3.84,3.84,0,0,1-.36,1.2,11,11,0,0,1-1,.84,7.19,7.19,0,0,1-1.4.32,4.61,4.61,0,0,1-1.88.2c-.52-.08-1.16.12-1.88.08a4,4,0,0,0-1.48,0,14.17,14.17,0,0,1-1.8-.08,4.53,4.53,0,0,1-1.84-.16,4.58,4.58,0,0,1-1.84-.44A3.16,3.16,0,0,1,95.76,34a5.44,5.44,0,0,0-1.4-1.08c-.48-.32-.63-.92-1-1.4a2.27,2.27,0,0,1-.6-1.56,4,4,0,0,1-.24-1.8,3.78,3.78,0,0,1,.68-1.72,2.33,2.33,0,0,1,1.67-.64,2.41,2.41,0,0,1,1.36.45,1.53,1.53,0,0,1,.6,1.31c.12.6.36,1.08.4,1.48.28.52.56.64,1.12,1a4.34,4.34,0,0,0,2.2.6,11.17,11.17,0,0,0,2.32.08,4.48,4.48,0,0,0,1.92-.08,5.74,5.74,0,0,0,1.92-.12,8.21,8.21,0,0,1,2.16-.2,2.23,2.23,0,0,1,1.48.76A2.12,2.12,0,0,1,110.88,32.68ZM95.08,15.73c.4-.28.72-.8,1.2-.8a5.88,5.88,0,0,1,2.24-.44c.8,0,1.2-.32,2.08-.32.88-.24,1.28,0,2.08-.2.56-.2,1.4,0,2.12-.16a5.44,5.44,0,0,0,2.12,0,2.28,2.28,0,0,1,1.6.68,3,3,0,0,1,.64,1.6,1.51,1.51,0,0,1-.6,1.52,2.61,2.61,0,0,1-1.52.6c-.28-.12-.64,0-1.2,0a4.86,4.86,0,0,1-1.88.08,8.6,8.6,0,0,1-1.88.2c-.6,0-1.4.2-1.92.24-.68,0-1.2.4-1.84.32a11,11,0,0,0-1.12.2,3.6,3.6,0,0,1-1.92-.64,1.91,1.91,0,0,1-.64-1.52A1.47,1.47,0,0,1,95.08,15.73Zm5.16-9.88c-.16-.48.24-.8.56-1.12a2,2,0,0,1,1.2-.48,4,4,0,0,1,1.68.8c.52.6.88.88,1.24,1.32.36.24.72.92,1.16,1.32a3.65,3.65,0,0,1,.68,1.72,1.34,1.34,0,0,1-.52,1.16c-.36.28-.6.56-1.16.52a1.44,1.44,0,0,1-1.56-1c-.36-.6-.92-.92-1.36-1.6a8.66,8.66,0,0,0-1.44-1.6A1.12,1.12,0,0,1,100.24,5.85Zm4.52-4.32a1.48,1.48,0,0,1,1.2-.44,1.92,1.92,0,0,1,1.68.76,6.34,6.34,0,0,0,1.24,1.28c.4.48.88.84,1.24,1.32a2.49,2.49,0,0,1,.72,1.72,1.57,1.57,0,0,1-.52,1.16,1.74,1.74,0,0,1-1.16.44,2.59,2.59,0,0,1-1.52-.72,8.57,8.57,0,0,1-.84-1c-.4-.2-.44-.56-.72-.84a10.57,10.57,0,0,0-1.44-1.56c-.32-.24-.36-.52-.44-1A1.25,1.25,0,0,1,104.76,1.53Z" fill="#007130"/><path d="M122.87,5.25a19.27,19.27,0,0,0-.52,2.56A4.89,4.89,0,0,1,122,9.49a4.22,4.22,0,0,0-.28,1.68c0,.8-.16,1-.24,1.72a7.52,7.52,0,0,0-.2,1.72,5.28,5.28,0,0,1-.12,1.72,12.43,12.43,0,0,1-.12,1.72,3.2,3.2,0,0,0-.08,1.72,4.15,4.15,0,0,0,0,1.72,7.93,7.93,0,0,0,0,2.39,20.26,20.26,0,0,1,.16,2.37,11.91,11.91,0,0,0,.28,2.35c.08,1,.24,1.64.36,2.44a2.35,2.35,0,0,1-.68,2.16,2.58,2.58,0,0,1-1.68.68c-.4-.08-.92,0-1.28-.32a1.27,1.27,0,0,1-.88-1c-.4-.44-.36-1.2-.6-2.28-.12-.44,0-.84-.2-1.52a10,10,0,0,0-.16-1.64,5.85,5.85,0,0,1-.12-1.68,5.05,5.05,0,0,0-.08-1.52c0-.88-.12-1.67,0-2.43-.2-.76.08-1,0-1.76a14.09,14.09,0,0,1,0-1.8,3.89,3.89,0,0,0,.12-1.76c0-.52.2-1.24.16-1.76a3.87,3.87,0,0,1,.2-1.76,8.87,8.87,0,0,1,.24-1.8c.2-.64.12-1,.28-1.72a11.88,11.88,0,0,1,.32-1.76,10.44,10.44,0,0,0,.32-1.48,12.17,12.17,0,0,1,.44-1.48c.28-.52.6-.56.92-1a4.58,4.58,0,0,1,1.28-.32,4,4,0,0,1,1.64.56A2,2,0,0,1,122.87,5.25Zm25.47,7.44a2.29,2.29,0,0,1-.88,1.68,6,6,0,0,1-1.92.6c-.56.28-1,.08-1.72.32a3.76,3.76,0,0,0-1.28.8,2.07,2.07,0,0,0-.48,1.48,18.83,18.83,0,0,0,0,2,5,5,0,0,0,0,1.52c-.12,1.16-.32,2-.32,2.83a10.92,10.92,0,0,1-.24,1.45,5.31,5.31,0,0,0-.32,1.39,17.18,17.18,0,0,1-.72,2.32,4.28,4.28,0,0,1-.52,1.32,3.07,3.07,0,0,1-.6,1.32c-.2.32-.48.88-.68,1.24s-.64.64-.72,1.2c-.2.36-.68.76-.76,1-.4.44-.68.56-.88.88a1.67,1.67,0,0,1-1.6.56A3.62,3.62,0,0,1,133,36a1.83,1.83,0,0,1-.72-1.56,3.06,3.06,0,0,1,.64-1.68,5.2,5.2,0,0,0,.92-1.2,2.29,2.29,0,0,0,.8-1.2,5.53,5.53,0,0,1,.68-1.28c.32-.48.2-.76.6-1.32.28-.84.48-1.68.72-2.28.16-.8.28-1.68.48-2.32a16.29,16.29,0,0,1,.24-2.35c.08-.84,0-1.24,0-2a8.83,8.83,0,0,0,0-1.52,1.63,1.63,0,0,0-1.72-1.24,28.64,28.64,0,0,1-3,.08c-.72,0-1.24.08-2,0a8.27,8.27,0,0,1-2-.16,2,2,0,0,1-1.08-.92,3.15,3.15,0,0,1-.35-1.24,2.24,2.24,0,0,1,.6-1.56,2.44,2.44,0,0,1,1.55-.6,10.2,10.2,0,0,0,1.6.08,7.09,7.09,0,0,0,1.6,0c.88,0,1.52,0,3-.08.8,0,1.84-1.08,1.8-1.6a8.16,8.16,0,0,0-.2-2,8.5,8.5,0,0,0-.08-1.32,7.06,7.06,0,0,0-.16-2.32c-.16-.6.36-1.16.68-1.52a3.93,3.93,0,0,1,1.64-.52,2.34,2.34,0,0,1,1.72.6,1.65,1.65,0,0,1,.64,1.36c.24.6,0,1.24.08,1.6,0,.52.12,1.32.12,1.72a11,11,0,0,0,.12,1.92,1.89,1.89,0,0,0,1.84,1.2,19.09,19.09,0,0,0,2.64-.36,1.51,1.51,0,0,1,1.4.68A2,2,0,0,1,148.34,12.69Z" fill="#007130"/><path d="M185,21.21a6.08,6.08,0,0,1-.24,1.56c0,.68-.4.92-.36,1.56a9.67,9.67,0,0,1-.56,1.47c-.36.36-.44,1.12-.68,1.4a4.45,4.45,0,0,1-.84,1.36,3.11,3.11,0,0,1-1,1.24c-.4.6-.88.76-1.16,1.16s-.92.68-1.4,1.08c-.64.52-1.36.76-1.76,1.08-.72.4-1.32.64-1.84.88-.68.16-1.08.4-1.76.56a2.45,2.45,0,0,1-2.16-.64,1.69,1.69,0,0,1-.76-1.68c-.16-.36.24-1,.48-1.4s.8-.52,1.24-.88a7,7,0,0,0,1.56-.68,13.53,13.53,0,0,0,1.4-.76,13,13,0,0,0,1.36-.88,4.67,4.67,0,0,0,1.2-1.12c.52-.23.64-1,1.08-1.52.12-.47.68-1,.76-1.67a11.54,11.54,0,0,0,.44-1.84,7.67,7.67,0,0,1,.12-1.88c-.2-.52,0-1.16-.16-1.84a13.57,13.57,0,0,0-.48-1.8,8.8,8.8,0,0,0-.8-1.64,12.29,12.29,0,0,0-1.08-1.44A6.73,6.73,0,0,0,176,11.45a8,8,0,0,0-1.92-1,3.83,3.83,0,0,0-1.6-.44,1.88,1.88,0,0,0-1.8,1.28c-.24,1.2-.16,1.84-.32,2.4,0,.8-.28,1.52-.32,2a10.75,10.75,0,0,0-.4,2,12,12,0,0,1-.52,2c-.32.76-.36,1.52-.6,2-.24.84-.68,1.39-.76,1.92-.24.55-.56,1.07-.84,1.87a4.63,4.63,0,0,1-.75,1.4,2.93,2.93,0,0,1-.84,1.32,4.84,4.84,0,0,1-1,1.24,6.07,6.07,0,0,0-1.2,1,9.09,9.09,0,0,1-2.2,1,7.51,7.51,0,0,1-2.36.36,4.12,4.12,0,0,1-2.68-.56,5.94,5.94,0,0,1-1.2-.64c-.56-.2-.6-.56-1.08-.88a5,5,0,0,1-1.24-1.64,3.14,3.14,0,0,1-.84-1.87,18.83,18.83,0,0,0-.44-2.05,11.53,11.53,0,0,1-.12-2,7.39,7.39,0,0,0,.08-1.59,6.08,6.08,0,0,0,.24-1.56,6.06,6.06,0,0,1,.4-1.52,2.88,2.88,0,0,1,.52-1.48,6.63,6.63,0,0,1,.68-1.44,4.31,4.31,0,0,1,.8-1.32c.36-.36.6-1,1-1.28a4.72,4.72,0,0,1,1-1.16c.6-.6,1.08-.88,1.44-1.28a3,3,0,0,1,1.6-1.12c.4-.12,1.08-.8,1.64-.92a6.33,6.33,0,0,1,1.76-.76,3.32,3.32,0,0,0,1.84-.56c.67-.32,1.28-.16,1.87-.4s1-.08,1.88-.24a7.22,7.22,0,0,1,1.92-.08c.44,0,.92.08,1.6,0a7.93,7.93,0,0,1,1.56.2c.68,0,1,.28,1.56.28a4.78,4.78,0,0,0,1.52.44,6,6,0,0,0,1.48.6,4.93,4.93,0,0,0,1.4.76,15.05,15.05,0,0,0,1.32.88c.52.4.84.76,1.2,1.08s.52.72.92,1a9,9,0,0,0,.8,1.12,8.74,8.74,0,0,0,.64,1.2c.08.52.48.84.56,1.24a1.94,1.94,0,0,1,.44,1.32c0,.48.32.8.28,1.32a10.9,10.9,0,0,1,.24,2.72A4.36,4.36,0,0,0,185,21.21Zm-19.35-9.76a1.14,1.14,0,0,0-1.32-.88,3.81,3.81,0,0,0-1.28.36c-.4.2-.8.48-1.16.64s-.76.72-1.24.8c-.52.44-.8.52-1.08.92-.36.2-.48.64-1,1s-.52.92-.84,1.12c-.08.4-.4.64-.72,1.24a4,4,0,0,0-.56,1.28,4.05,4.05,0,0,0-.4,1.36,7.34,7.34,0,0,0-.36,2.79,6.93,6.93,0,0,1,.12,1.53c.12.35,0,1.11.4,1.6a5.6,5.6,0,0,0,.84,1.27,2,2,0,0,0,1.4.52,4,4,0,0,0,1.48-.4c.32-.2.6-.68,1.08-1,.4-.48.6-1,.92-1.35a8,8,0,0,0,.68-1.4,7.82,7.82,0,0,1,.68-1.52c.16-.6.44-1.08.56-1.6a7.51,7.51,0,0,0,.52-1.6,3.7,3.7,0,0,1,.4-1.64,6.6,6.6,0,0,1,.32-1.64,13.29,13.29,0,0,0,.27-1.68C165.44,12.69,165.77,12.29,165.69,11.45Z" fill="#007130"/><path d="M216.76,11.89A3.89,3.89,0,0,1,216.4,14a19.45,19.45,0,0,1-.8,2.32c-.32,1-.72,1.68-.92,2.24a4.07,4.07,0,0,1-.52,1.12c-.16.48-.48.76-.56,1-.24.28-.32.92-.56,1.08-.4.2-.32.84-.64,1-.24.4-.28.84-.64,1-.2.49-.28.88-.68,1a5.55,5.55,0,0,1-.72,1,4.44,4.44,0,0,1-.72,1,7.2,7.2,0,0,0-.8.92,1.94,1.94,0,0,1-.76.92,4.11,4.11,0,0,1-.84.88,1.4,1.4,0,0,0-.84.88,2.67,2.67,0,0,0-.92.88,3,3,0,0,0-1,.88c-.36.48-.84.52-1,.92a9.53,9.53,0,0,0-1.08.88,3.42,3.42,0,0,1-1.12.84c-.28.48-.64.52-1.12.8a2.58,2.58,0,0,0-1.12.64,3.26,3.26,0,0,1-1.2.6,2.42,2.42,0,0,1-1.2.28,2.34,2.34,0,0,1-1.68-.72,2.66,2.66,0,0,1-.68-1.68,2.34,2.34,0,0,1,.36-1.24c.08-.32.72-.72.92-.92a13.54,13.54,0,0,1,1.2-.76c.16-.16.88-.56,1.12-.72.52-.32.84-.56,1.12-.76.52-.08.68-.52,1.08-.8s.88-.88,1.32-1.12c.44-.4.76-.76,1.28-1.16.28-.32.92-.68,1.24-1.24a5.19,5.19,0,0,0,1.2-1.28c.16-.51.72-.72,1.08-1.35s.72-1,1-1.4a8.86,8.86,0,0,0,1-1.44c.28-.28.36-.88.84-1.52,0-.24.48-.6.6-1.2.28-.36.44-1.16.72-1.64a11,11,0,0,1,.68-1.64,2.49,2.49,0,0,0,.32-1.24.84.84,0,0,0-.84-.8c-.88,0-1.6,0-2.2,0-.88-.08-1.56.16-2.24,0s-1.52.08-2.24,0a4.61,4.61,0,0,0-2,.24,2,2,0,0,0-.8.72c-.28.36-.6.44-.68.92-.36.8-1.08,1.2-1.4,1.8-.2.28-.68.6-.76.84a6.52,6.52,0,0,0-.76.84,7.58,7.58,0,0,1-.76.84,4.1,4.1,0,0,0-.84.8,3,3,0,0,1-1.2,1,2.9,2.9,0,0,1-1.44.44,2,2,0,0,1-1.6-.64c-.48-.52-.8-.88-.72-1.56a3.73,3.73,0,0,1,1-2,10.93,10.93,0,0,0,1.4-1.32c.2-.16.68-.88,1-1.08a5,5,0,0,1,1-1.2,2.35,2.35,0,0,0,1-1.36,10.26,10.26,0,0,0,1-1.36,5.66,5.66,0,0,1,1-1.48,4.6,4.6,0,0,1,.84-1.36,7.55,7.55,0,0,0,.8-1.4,3.27,3.27,0,0,0,.68-1.4c.08-.4.6-1.12.8-1.8a3,3,0,0,1,1-1.12c.52-.24.76-.48,1.36-.44a2.88,2.88,0,0,1,1.68.6,2.56,2.56,0,0,1,.8,1.6,3.25,3.25,0,0,1-.64,1.92c-.08.52-.28.52-.56,1.24-.28.52-.16,1.44.64,1.4,1,0,1.64.08,2.16,0a9.7,9.7,0,0,0,1.88,0c.68-.08,1.24.12,1.88,0a5.18,5.18,0,0,1,2.28.24,2.47,2.47,0,0,1,2,1.12,3.49,3.49,0,0,1,.68,1.12A4.82,4.82,0,0,1,216.76,11.89Z" fill="#007130"/><path d="M255.58,21.09a1.62,1.62,0,0,1-1.6.72,9.64,9.64,0,0,1-1.88,0,7.07,7.07,0,0,1-1.84,0c-.52-.12-1.12.2-1.8,0a5.66,5.66,0,0,1-1.84,0,9,9,0,0,1-1.8,0,14.12,14.12,0,0,1-1.84,0c-.6-.08-1.28.12-1.84,0a5.67,5.67,0,0,1-1.84,0,7.08,7.08,0,0,1-1.84,0,14.12,14.12,0,0,1-1.84,0c-.64-.12-1.4.2-1.8,0a14.09,14.09,0,0,1-1.84,0,7,7,0,0,1-1.84,0c-.8.08-1-.08-1.8,0a14,14,0,0,0-1.84,0,2.22,2.22,0,0,1-.76.08c-.36,0-.8-.08-1.12-.08a1.84,1.84,0,0,1-1.6-.72,2.7,2.7,0,0,1-.6-1.68,2.93,2.93,0,0,1,.6-1.64,3.68,3.68,0,0,1,1.64-.72,5.78,5.78,0,0,0,1.84,0,14.06,14.06,0,0,0,1.84,0,9,9,0,0,1,1.8,0A7.08,7.08,0,0,0,232,17c.44,0,1.28,0,1.84,0a5.37,5.37,0,0,0,1.8,0,5.63,5.63,0,0,0,1.84,0c.72,0,1.12,0,1.84,0a14.11,14.11,0,0,0,1.84,0c.44,0,1.36,0,1.84,0a7,7,0,0,1,1.84,0c.76,0,1.32,0,1.8,0a5.68,5.68,0,0,0,1.84,0,5.41,5.41,0,0,1,1.8,0,7.08,7.08,0,0,1,1.84,0,7.53,7.53,0,0,1,1.88,0,1.9,1.9,0,0,1,1.6.72,1.46,1.46,0,0,1,.6,1.64A2.12,2.12,0,0,1,255.58,21.09Z" fill="#007130"/><path d="M267.48,24c-.36.25-.48,1-.64,1.16-.12.52-.48.68-.68,1.13s-.68.59-.76,1.07a6.55,6.55,0,0,1-.8,1c-.44.2-.56.8-.84,1a2.34,2.34,0,0,1-.92,1,2.18,2.18,0,0,1-2,.88c-.56-.16-1.16-.08-1.72-.68a2.19,2.19,0,0,1-.76-1.6c0-.76.4-1.16.84-1.84.44-.44,1-.75,1.32-1.4a3.58,3.58,0,0,0,1.16-1.56c.32-.55.64-1,1-1.63a4.2,4.2,0,0,0,.88-1.68,3.86,3.86,0,0,0,.48-1,2.43,2.43,0,0,1,.92-1.08c.44-.08.68-.4,1.32-.4a3.16,3.16,0,0,1,1.68.64,2,2,0,0,1,.76,1.6c.08.52-.2.6-.2,1a5.81,5.81,0,0,0-.52,1.2C267.84,23.37,267.56,23.69,267.48,24Zm14.8-9.23c-.4,0-1.36,0-2,0a2.15,2.15,0,0,0-1.56.4,2.27,2.27,0,0,0-.68,1.44,16.51,16.51,0,0,0,.08,2.24,4.56,4.56,0,0,0,0,2.08,12.39,12.39,0,0,0,0,2.11,6.29,6.29,0,0,0,0,2.12,12,12,0,0,1,0,2.08c-.08.72.08,1.56,0,2.12a6,6,0,0,1,0,2.08,6.84,6.84,0,0,1-.32,2.4,2.34,2.34,0,0,0-.48,1.12c-.08.16-.44.84-.76,1a12.53,12.53,0,0,1-1.92,1c-.6.08-1.6.16-2.12.24a4.29,4.29,0,0,0-1.6,0,16.29,16.29,0,0,0-1.68-.28A1.84,1.84,0,0,1,268,36a2.49,2.49,0,0,1-.52-1.52,2.81,2.81,0,0,1,.6-1.72,1.5,1.5,0,0,1,1.56-.8,8.27,8.27,0,0,1,2.4.2c.88,0,1.08-.52,1.08-1.32-.12-.52.08-1.32,0-2a16.55,16.55,0,0,0,0-2,8.7,8.7,0,0,1,0-2,5.76,5.76,0,0,1,0-2c0-.76,0-1.36,0-2a16.68,16.68,0,0,1,0-2c0-.68-.08-1.48-.08-2.28a1.79,1.79,0,0,0-.64-1.16,1.94,1.94,0,0,0-1.36-.4,7.79,7.79,0,0,1-2.08-.08c-.72,0-1.16.16-1.52,0-.84-.08-2,.12-2.92,0a14.56,14.56,0,0,1-3,0,4.25,4.25,0,0,1-1.44-.68,8.87,8.87,0,0,1-.52-1.56c.12-.44.16-1.16.52-1.52a1.91,1.91,0,0,1,1.44-.68c.88,0,1.88.08,3,0s1.8,0,2.92,0c.52-.12.8.08,1.52,0a19.22,19.22,0,0,0,2-.08c.6-.16,1-.12,1.44-.68a2.26,2.26,0,0,0,.72-1.44,12.47,12.47,0,0,0,0-2.12,7,7,0,0,1,0-1.6A4,4,0,0,1,274,2.77a2.75,2.75,0,0,1,1.72-.52c.44,0,1.36.08,1.68.48a2.42,2.42,0,0,1,.76,1.52,5.8,5.8,0,0,0,0,1.64,9.36,9.36,0,0,0,0,2.12,2.2,2.2,0,0,0,.6,1.64,2,2,0,0,0,1.48.6c.64,0,1.52,0,2,0s1.32,0,1.8.08c1.12-.08,1.84,0,2.6,0s2,0,2.88,0a1.82,1.82,0,0,1,1.56.64,2.43,2.43,0,0,1,.44,1.48A3.22,3.22,0,0,1,291,14a1.89,1.89,0,0,1-1.44.68,10.28,10.28,0,0,1-2.92,0,17.31,17.31,0,0,1-2.88,0C283.12,14.81,282.8,14.69,282.28,14.73Zm9.08,15.43c-.32.64-1.12.68-1.76.72a1.42,1.42,0,0,1-1.28-.36c-.6-.16-.6-.64-1-.92A8.6,8.6,0,0,0,286,27.76a5.38,5.38,0,0,1-.84-1.24,4,4,0,0,1-.84-1.4,6.94,6.94,0,0,1-.8-1.39,9.17,9.17,0,0,1-.68-1.32c-.56-1-.8-1.64-.64-2,0-.76.12-1,.76-1.56a3.65,3.65,0,0,1,1.64-.56,7.13,7.13,0,0,1,1.32.36,3.39,3.39,0,0,1,1,1c.4.76.76,1.24,1.16,2a17.84,17.84,0,0,0,1.08,1.8A8,8,0,0,0,290.2,25c.48.37.8,1.17,1.16,1.48.32.76.56,1.36.76,1.92A1.84,1.84,0,0,1,291.36,30.16Zm2.12-23.51a8.46,8.46,0,0,1-.92,1.4c-.56.48-.8.84-1.4,1a2.24,2.24,0,0,1-1.72.36A5.71,5.71,0,0,1,287.72,9a4.1,4.1,0,0,1-1.44-1,3,3,0,0,1-1-1.44A2.42,2.42,0,0,1,285,4.93a3.25,3.25,0,0,1,.32-1.76,2.82,2.82,0,0,1,1-1.36,6.41,6.41,0,0,1,1.44-1c.64-.16,1.2-.24,1.72-.32s1.16.28,1.72.32a2.62,2.62,0,0,1,1.4,1c.28.48.76,1.08.92,1.4.24.72.16,1.24.36,1.72A3.43,3.43,0,0,1,293.48,6.65ZM291,3.37a3.65,3.65,0,0,0-1.6-.64,2.19,2.19,0,0,0-1.48.64,2,2,0,0,0-.72,1.68,1.73,1.73,0,0,0,.76,1.44,1.66,1.66,0,0,0,1.48.64A2.35,2.35,0,0,0,291,6.61a1.81,1.81,0,0,0,.64-1.68A1.81,1.81,0,0,0,291,3.37Z" fill="#007130"/><path d="M300.36,10.57a4.29,4.29,0,0,1-1.28-1.28,1.87,1.87,0,0,1-.36-1.12,2.79,2.79,0,0,1,.84-1.8,4.1,4.1,0,0,1,1.8-.76,1.86,1.86,0,0,1,1.16.28,5.55,5.55,0,0,1,1.12.64c.24.28.8.52,1,.76.12.4.64.48.88.72s.4.56,1,.8a3.3,3.3,0,0,0,1,.84c.32.24.84.56,1,.92.48.36.52.76.84,1a1.45,1.45,0,0,1,.44,1.48,3.38,3.38,0,0,1-.8,1.88,3.36,3.36,0,0,1-1.88.84,3.09,3.09,0,0,1-1.84-.8c-.28-.28-.84-.8-1.2-1.12-.52-.44-.64-.84-1.2-1.12a4,4,0,0,0-1.2-1.08C301.36,11.45,300.76,10.93,300.36,10.57Zm28.27,3c-.32.84-.92,1.28-1.12,1.84a8.48,8.48,0,0,1-1.2,1.76,7.21,7.21,0,0,1-1.24,1.72c-.6.68-.8,1.16-1.28,1.64a12.92,12.92,0,0,1-1.4,1.59A16.14,16.14,0,0,1,321,23.69c-.49.39-1.08,1.11-1.52,1.43-.44.68-1.24,1-1.64,1.44s-1.2.76-1.56,1.24c-.52.4-1.12.72-1.64,1.2a6.7,6.7,0,0,1-1.68,1.16,4.85,4.85,0,0,1-1.76,1.08,7.53,7.53,0,0,0-1.76,1,15.77,15.77,0,0,1-1.84.92,5.85,5.85,0,0,1-1.84.84c-.52.32-1.32.52-1.92.8a2.63,2.63,0,0,1-1.12.16,2.37,2.37,0,0,1-1.76-.76,2.93,2.93,0,0,1-.72-1.8,2.07,2.07,0,0,1,1-1.8,10.27,10.27,0,0,1,2-1c.24-.16.52-.2,1.12-.48a2.72,2.72,0,0,1,1.08-.52,7.31,7.31,0,0,1,1.12-.56c.32-.12.56-.52,1.08-.56.4-.2.56-.36,1.08-.6a4.37,4.37,0,0,1,1-.63c.44-.17.68-.61,1-.69a5.29,5.29,0,0,1,1-.68c.2-.16.76-.35,1-.72a2.25,2.25,0,0,0,1-.75c.16-.33.64-.33,1-.76s.64-.61,1-.8a2.59,2.59,0,0,0,.92-.8c.28-.08.4-.44.88-.84.32-.4.56-.76.88-.88.24-.32.47-.76.84-.92.28-.44,1-.88,1.35-1.52.45-.36.8-1.16,1.24-1.6a9.22,9.22,0,0,1,1.17-1.68c.51-.64.59-1,1.07-1.72.32-.48.76-.88,1-1.32.48-.4.76-.72,1.52-.6a3.74,3.74,0,0,1,1.76.64,2.39,2.39,0,0,1,.8,1.68A4.74,4.74,0,0,1,328.63,13.61Z" fill="#007130"/><path d="M367.07,17a7.2,7.2,0,0,0-.12,1.56,13.88,13.88,0,0,1-.4,1.48,4.57,4.57,0,0,1-.68,1.4,2.1,2.1,0,0,1-1,1.2c-.56.51-.88,1-1.4,1.11a3.14,3.14,0,0,1-1.6.73,8.08,8.08,0,0,0-1.76.43,8.35,8.35,0,0,0-1.76.12,4.38,4.38,0,0,1-1.76,0,3.44,3.44,0,0,1-2-.28c-.88-.27-1.24-.27-1.68-.88a3,3,0,0,1-.68-1.63,2.89,2.89,0,0,1,.68-1.6,2.54,2.54,0,0,1,1.6-.68c.68.08,1.23.24,1.72.24a12.34,12.34,0,0,0,1.92.2,5.47,5.47,0,0,0,1.72-.24,3.21,3.21,0,0,0,1.43-.88,3.4,3.4,0,0,0,.8-2.2,3.6,3.6,0,0,0-.52-1.6,8.51,8.51,0,0,0-1.28-.92,4.48,4.48,0,0,0-1.68-.44A8.76,8.76,0,0,0,357,14a4,4,0,0,0-1.52,0c-.6.12-.88,0-1.52.16s-1.12.2-1.52.24a5.72,5.72,0,0,0-1.48.28,11.48,11.48,0,0,1-1.48.36,5.87,5.87,0,0,1-1.48.4c-.52.2-.68.2-1.36.44a1.9,1.9,0,0,0-.84,2,5.44,5.44,0,0,0,.44,1.6,9.32,9.32,0,0,0,.44,1.12c.28.92.52,1.56.72,2.2a9.33,9.33,0,0,0,.76,2.19,16.32,16.32,0,0,0,.76,2.24,15.74,15.74,0,0,0,.76,2.2,14.14,14.14,0,0,0,.72,2.2c.16.88.6,1.52.76,2.24a2.81,2.81,0,0,1-.68,2.28,1.69,1.69,0,0,1-1.64.72,1.1,1.1,0,0,1-1.24-.4,1.47,1.47,0,0,1-.8-1.08,6.55,6.55,0,0,1-.76-2.2c-.2-.6-.56-1.52-.76-2.2s-.68-1.56-.76-2.2c-.08-.88-.6-1.24-.72-2.2a8.62,8.62,0,0,1-.76-2.15,11,11,0,0,1-.76-2.2,1.94,1.94,0,0,1-.4-1.16c-.28-.4-.24-.92-.48-1.4a2.2,2.2,0,0,0-1.92-1c-.72.16-.88.44-1.32.48a14.91,14.91,0,0,1-1.4.64c-.4.12-1,.52-1.4.64a5.36,5.36,0,0,1-1.36.36,1.68,1.68,0,0,1-1.52-.72,2.32,2.32,0,0,1-.6-1.56c.08-.92.24-1.48,1-1.84a13.85,13.85,0,0,1,1.8-.8c.6,0,1.28-.64,1.8-.88s1-.4,1.48-.68a2.08,2.08,0,0,0,.8-1.92,8.07,8.07,0,0,0-.52-1.76,7.88,7.88,0,0,0-.56-1.72c-.08-.52-.48-1-.56-1.72a2.29,2.29,0,0,1,.72-2,2.69,2.69,0,0,1,1.68-.6,1.77,1.77,0,0,1,1.24.32c.48.36.72.56.84,1a13.32,13.32,0,0,1,.56,1.64c.08.48.44,1.12.48,1.6a8.92,8.92,0,0,0,.56,1.68,2,2,0,0,0,1.76,1,7.86,7.86,0,0,0,2-.6,13,13,0,0,0,1.56-.48,6.47,6.47,0,0,0,1.68-.4,13.2,13.2,0,0,1,1.68-.32,3.93,3.93,0,0,1,1.68-.24,6.27,6.27,0,0,1,1.72-.16,8,8,0,0,1,1.72,0,9.61,9.61,0,0,0,1.67.08,14.13,14.13,0,0,0,1.68.24c.64,0,1.2.48,1.64.44a5.61,5.61,0,0,0,1.56.72c.56.16.88.68,1.44,1.08s.6,1,1.08,1.4c.16.64.68,1.12.68,1.64C367,16,367,16.53,367.07,17ZM348.16,5.61A2,2,0,0,1,347,3.69a1.62,1.62,0,0,1,.72-1.6,2.21,2.21,0,0,1,1.6-.68,4.35,4.35,0,0,1,2.36.84c.4.12.72.52,1.12.72s.48.32.88.68a10,10,0,0,0,1.6,1.24c.32.36,1,1.2.84,1.8a1.78,1.78,0,0,1-.76,1.64c-.4.52-1,.52-1.64.68a2.54,2.54,0,0,1-1.88-.8,6.23,6.23,0,0,1-1.76-1.36C349.24,6.49,349,5.93,348.16,5.61Z" fill="#007130"/><path d="M40.5,77.73c0,.72.28,1.52.24,2a20.22,20.22,0,0,0-.2,2.08,7.62,7.62,0,0,1-.68,2c-.32.6-.8,1.2-1.12,1.76-.64.6-.92,1.12-1.6,1.44a3.26,3.26,0,0,1-1.44.84c-.52.16-1.16.56-1.72.76s-1.4.2-1.84.48a4.83,4.83,0,0,1-1.68,0c-.48-.12-1.2-.44-1.32-.76a2.42,2.42,0,0,1-.52-1.44,1.43,1.43,0,0,1,.52-1.44,1.88,1.88,0,0,1,1.36-.76,5.88,5.88,0,0,0,1.36-.28,4.89,4.89,0,0,0,1.76-.68,3.48,3.48,0,0,0,1.44-1.2c.16-.36.68-.88.68-1.32a1.91,1.91,0,0,0,.2-1.44,2.44,2.44,0,0,0-.56-1.84c-.44-.51-1-.8-1.36-1.23A7.14,7.14,0,0,0,32.18,76a5.28,5.28,0,0,0-2-.2c-.68.2-1.16-.16-1.76.08a4.74,4.74,0,0,0-1.68.19,13.43,13.43,0,0,1-2.2.41A1.57,1.57,0,0,0,23.46,78c0,1,.08,1.84,0,2.29-.12.71.08,1.23,0,1.75a3.89,3.89,0,0,1,0,1.8,7.05,7.05,0,0,1-.28,2.44,1.91,1.91,0,0,1-.48,1.16,2.31,2.31,0,0,1-.76,1,2.65,2.65,0,0,1-2,1,9.93,9.93,0,0,1-2.16.24,5.24,5.24,0,0,1-2.6-.48c-.36,0-1.08-.44-1.32-.52-.24-.4-.92-.28-1.16-.76-.52-.4-.72-.44-1-.92-.2-.24-.72-.52-.76-1.12a3.1,3.1,0,0,1-.52-1.2,2.06,2.06,0,0,1-.2-1.36c0-.8.24-1.24.2-1.76A14.1,14.1,0,0,1,11.06,80c.4-.52.64-1.12.92-1.4a6,6,0,0,1,1.2-1.23,15.7,15.7,0,0,0,1.36-1c.32-.52.88-.44,1.48-1a5.41,5.41,0,0,0,1.84-1,3.79,3.79,0,0,0,1-1.68,19.08,19.08,0,0,1,0-2.16c-.08-.64,0-.92,0-2,0-.52-.76-1.2-1.16-1.08a11.42,11.42,0,0,1-1.76.12,7.05,7.05,0,0,1-2.56.08A1.54,1.54,0,0,1,12,67c-.52-.32-.48-.88-.56-1.48A1.75,1.75,0,0,1,12,64a1.83,1.83,0,0,1,1.44-.68,6.14,6.14,0,0,0,1.72-.08,5,5,0,0,0,2-.12,2.93,2.93,0,0,0,1.32-.8,3.28,3.28,0,0,0,.48-1.6,7.81,7.81,0,0,0,0-2.16,10.71,10.71,0,0,1,0-1.68c.16-.4.24-1.12.68-1.48a3.32,3.32,0,0,1,1.56-.52,3.61,3.61,0,0,1,1.56.52c.48.44.76.64.68,1.48,0,.4,0,1.16,0,1.48a7.3,7.3,0,0,0,0,1.88,1.92,1.92,0,0,0,.72,1.32,2.15,2.15,0,0,0,1.4.36c1.08-.24,1.48-.32,2.12-.44a2.61,2.61,0,0,1,1.72.64,5.21,5.21,0,0,1,.68,1.52c0,1-.44,1.24-1,1.68-.6.2-1.52.72-2,.64-.56.32-.72.28-1.88.4a2.57,2.57,0,0,0-1.28.84,1.94,1.94,0,0,0-.56,1.64c0,.32,0,.8,0,1.32a2.5,2.5,0,0,0,.36,1.44,1,1,0,0,0,1,.48,5.76,5.76,0,0,1,1.84-.24,5.36,5.36,0,0,0,1.76-.16,6,6,0,0,0,1.72,0,4.22,4.22,0,0,0,1.76.08A3.43,3.43,0,0,1,33.7,72a4.14,4.14,0,0,1,1.68.48c.52.36,1,.36,1.64.76s1,.92,1.56,1.2c.28.4.88,1.16,1.2,1.56A3.62,3.62,0,0,1,40.5,77.73ZM18.9,80.56c0-1.08-.44-1.48-1.08-1.27a10.08,10.08,0,0,0-1.52,1.07,2.74,2.74,0,0,0-1,1.24,2.08,2.08,0,0,0-.36,1.56c-.12.84.56,1.24.92,1.52a1.9,1.9,0,0,0,1.88.48c1-.08,1.08-.56,1.16-1.68A23.62,23.62,0,0,1,18.9,80.56ZM43.26,66.49a4.71,4.71,0,0,1-.72,1.68,2,2,0,0,1-1.68.72,3.14,3.14,0,0,1-1.72-.68c-.24-.4-.76-.48-1-.88a2.69,2.69,0,0,1-1-.84,6.16,6.16,0,0,1-1.12-.76A3.57,3.57,0,0,1,34.82,65a2.3,2.3,0,0,1-1.32-1.08c-.48-.32-.28-.6-.4-1.12a2.87,2.87,0,0,1,.72-1.72,2.43,2.43,0,0,1,1.64-.76,12.88,12.88,0,0,1,2,.68c.76.32,1.24,1,1.72,1.08.64.24,1.28,1,1.84,1.28.28.24.44.6.92.76a3.79,3.79,0,0,1,.8.8A1.46,1.46,0,0,1,43.26,66.49Z" fill="#007130"/><path d="M70.77,75.37A2.7,2.7,0,0,1,70.09,77a2.09,2.09,0,0,1-1.68.76,2,2,0,0,1-1.24-.27c-.36-.16-.6-.49-1.08-.72a14.46,14.46,0,0,1-1.72-1.2c-.56-.4-1.24-.76-1.72-1.12a9,9,0,0,0-1.8-1.08,10.34,10.34,0,0,0-1.68-1,.71.71,0,0,0-1,.76c0,.8,0,1.72,0,2.32a19.37,19.37,0,0,0,0,2.16c-.2.76.12,1.56,0,2.15,0,.88,0,1.36,0,2.16a6.52,6.52,0,0,0,0,2.16,9.74,9.74,0,0,1,0,2.16,6.83,6.83,0,0,0,0,2.2c0,.6-.44,1.12-.76,1.56a3.65,3.65,0,0,1-1.68.56A2.2,2.2,0,0,1,54,90a1.71,1.71,0,0,1-.76-1.56,16.93,16.93,0,0,1,0-2,10.2,10.2,0,0,1,0-1.92,5.91,5.91,0,0,1,0-1.88c0-.68,0-1.36,0-1.92s0-1.2,0-1.92a6.14,6.14,0,0,0,0-1.92,9.72,9.72,0,0,1,0-1.87c.12-.68-.2-1.16,0-1.92-.16-.52.16-1.24,0-1.92a7.56,7.56,0,0,1,0-1.92,3.89,3.89,0,0,1,0-1.92,15.32,15.32,0,0,0,0-1.92,7.39,7.39,0,0,0,0-1.88,7.66,7.66,0,0,1,0-1.92c.08-.68,0-1.08,0-1.92.12-.6-.08-1.24,0-1.92a2.31,2.31,0,0,1,.76-1.6,2.42,2.42,0,0,1,1.68-.6,2.75,2.75,0,0,1,1.68.6,1.75,1.75,0,0,1,.84,1.52,11.8,11.8,0,0,1,0,2.92,11.24,11.24,0,0,1,0,2.84,25.69,25.69,0,0,1,0,3c0,1.24.6,1.6,1.64,1.2a1.79,1.79,0,0,1,1.4.32c.36.24,1,.4,1.36.64a3.48,3.48,0,0,0,1.48.8c.56.32,1,.64,1.4.8.56.28.8.64,1.4.88a15.63,15.63,0,0,0,1.8,1.2c.72.48,1.12,1.08,1.68,1.48A2.59,2.59,0,0,1,70.77,75.37Z" fill="#007130"/><path d="M104.27,65.89a3.89,3.89,0,0,1-.36,2.12,19.45,19.45,0,0,1-.8,2.32c-.32,1-.72,1.68-.92,2.24a4.07,4.07,0,0,1-.52,1.12c-.16.48-.48.76-.56,1-.23.28-.32.92-.56,1.08-.4.2-.32.84-.63,1-.25.4-.28.84-.65,1-.19.49-.27.88-.67,1a5.55,5.55,0,0,1-.72,1,4.44,4.44,0,0,1-.72,1,7.2,7.2,0,0,0-.8.92,1.94,1.94,0,0,1-.76.92,4.11,4.11,0,0,1-.84.88,1.4,1.4,0,0,0-.84.88,2.67,2.67,0,0,0-.92.88,3,3,0,0,0-1,.88c-.36.48-.84.52-1,.92a9.53,9.53,0,0,0-1.08.88,3.42,3.42,0,0,1-1.12.84c-.28.48-.64.52-1.12.8a2.58,2.58,0,0,0-1.12.64,3.26,3.26,0,0,1-1.2.6,2.42,2.42,0,0,1-1.2.28,2.34,2.34,0,0,1-1.68-.72,2.66,2.66,0,0,1-.68-1.68,2.34,2.34,0,0,1,.36-1.24c.08-.32.72-.72.92-.92a13.54,13.54,0,0,1,1.2-.76c.16-.16.88-.56,1.12-.72.52-.32.84-.56,1.12-.76.52-.08.68-.52,1.08-.8s.88-.88,1.32-1.12c.44-.4.76-.76,1.28-1.16.28-.32.92-.68,1.24-1.24a5.19,5.19,0,0,0,1.2-1.28c.16-.51.72-.72,1.08-1.35s.72-1,1-1.4a8.86,8.86,0,0,0,1-1.44c.28-.28.36-.88.84-1.52,0-.24.48-.6.6-1.2.28-.36.44-1.16.72-1.64a11,11,0,0,1,.68-1.64,2.37,2.37,0,0,0,.31-1.24.82.82,0,0,0-.83-.8c-.88,0-1.6,0-2.2,0-.88-.08-1.56.16-2.24,0s-1.52.08-2.24,0a4.61,4.61,0,0,0-2,.24,2,2,0,0,0-.8.72c-.28.36-.6.44-.68.92-.36.8-1.08,1.2-1.4,1.8-.2.28-.68.6-.76.84a6.52,6.52,0,0,0-.76.84,7.58,7.58,0,0,1-.76.84,4.1,4.1,0,0,0-.84.8,3,3,0,0,1-1.2,1,2.9,2.9,0,0,1-1.44.44,2,2,0,0,1-1.6-.64c-.48-.52-.8-.88-.72-1.56a3.73,3.73,0,0,1,1-2,10.93,10.93,0,0,0,1.4-1.32c.2-.16.68-.88,1-1.08a5,5,0,0,1,1-1.2,2.35,2.35,0,0,0,1-1.36,10.26,10.26,0,0,0,1-1.36,5.66,5.66,0,0,1,1-1.48,4.6,4.6,0,0,1,.84-1.36,7.55,7.55,0,0,0,.8-1.4,3.27,3.27,0,0,0,.68-1.4c.08-.4.6-1.12.8-1.8a3,3,0,0,1,1-1.12c.52-.24.76-.48,1.36-.44A2.88,2.88,0,0,1,93,56a2.56,2.56,0,0,1,.8,1.6,3.25,3.25,0,0,1-.64,1.92c-.08.52-.28.52-.56,1.24-.28.52-.16,1.44.64,1.4,1,0,1.64.08,2.16,0a9.7,9.7,0,0,0,1.88,0c.68-.08,1.24.12,1.88,0a5.12,5.12,0,0,1,2.27.24,2.47,2.47,0,0,1,2,1.12,3.49,3.49,0,0,1,.68,1.12A4.82,4.82,0,0,1,104.27,65.89Z" fill="#007130"/><path d="M120.39,71.73c-.08.68-.64.92-.68,1.6a10.82,10.82,0,0,1-.68,1.56c-.4.36-.48,1.15-.76,1.52a8.67,8.67,0,0,1-.76,1.51,4.82,4.82,0,0,1-.84,1.49,5.71,5.71,0,0,1-1.16,1.71,2.57,2.57,0,0,1-1.8.84,2.33,2.33,0,0,1-2.36-2.2,2.88,2.88,0,0,1,.88-2.19,8.66,8.66,0,0,1,.72-1.2,3.25,3.25,0,0,1,.72-1.24c.2-.6.6-.88.64-1.28s.52-.68.64-1.24a4.41,4.41,0,0,0,.6-1.28,5.7,5.7,0,0,1,.48-1,5.64,5.64,0,0,0,.52-1.28,1.05,1.05,0,0,0-1.12-1.32,5.36,5.36,0,0,1-1.32.08,3.14,3.14,0,0,1-2.44-.68,2.26,2.26,0,0,1-.72-1.6,2.78,2.78,0,0,1,1-1.88,6.51,6.51,0,0,1,2.8-.4h.84a5.7,5.7,0,0,0,1.92-.2c.32-.08,1.52-.92,1.6-1.32a14,14,0,0,0,.4-1.4c0-.76.52-1.4.56-2.2a3.47,3.47,0,0,1,.84-2.32,2.15,2.15,0,0,1,1.68-.68,2.24,2.24,0,0,1,1.52.48c.6.4.52.76.76,1.32a5,5,0,0,1-.28,2,7.74,7.74,0,0,1-.44,1.72c-.24.68.08,1.56.64,1.52a6.14,6.14,0,0,0,1.2-.2,13.06,13.06,0,0,1,1.68-.24,2.48,2.48,0,0,1,1.44.72,2.78,2.78,0,0,1,.6,1.52,1.63,1.63,0,0,1-1.08,1.8,4.53,4.53,0,0,1-2.16.6c-.6.12-.88.12-1.4.2-.32.16-.84.12-1.68.36a4.15,4.15,0,0,0-1.76,1.76c-.36.88-.44,1.16-.56,1.52A7.94,7.94,0,0,1,120.39,71.73Zm22.52,13.51a2.23,2.23,0,0,1-.64,1.6c-.44.32-1.16.92-1.56.72a2,2,0,0,1-1.44-.48,2.34,2.34,0,0,0-1.28-.84c-.52-.2-.68-.52-1.56-.92a1.44,1.44,0,0,0-1.88,1.12c-.32.88-.64,1-.72,1.52a7,7,0,0,1-.88,1,7.78,7.78,0,0,0-1.2.84,12,12,0,0,1-1.32.48,3.08,3.08,0,0,1-1.44.28c-.48-.08-1,.12-1.44.08a8.86,8.86,0,0,1-2.6-.24c-.36-.24-.8,0-1.28-.36-.52-.12-1-.2-1.2-.52-.6-.44-1-.6-1.16-.92-.44-.16-.6-.88-.84-1.12a3.73,3.73,0,0,1-.52-1.32,3.65,3.65,0,0,1-.16-1.44,3.78,3.78,0,0,1,.6-2.48,5.24,5.24,0,0,0,.76-1.08c.4-.44.72-.56,1-.83a13,13,0,0,1,1.28-.77,4.89,4.89,0,0,0,1.44-.48,2.74,2.74,0,0,0,1.44-.24c.44-.08.92,0,1.84-.08a1.35,1.35,0,0,0,1.24-1.43c.08-1-.16-1.84-.12-2.56a23.8,23.8,0,0,0,.12-2.8c.2-1.2.32-2,.84-2.32a7.63,7.63,0,0,1,1.52-.48c.32.08,1.24.08,1.52.44a1.27,1.27,0,0,1,.8,1.28c.12.68-.2,1.24-.16,1.6,0,1-.12,1.52-.12,2.2a8.64,8.64,0,0,1,.08,1.43,9.22,9.22,0,0,0,.2,2,2.53,2.53,0,0,0,.36,1.33,2.06,2.06,0,0,0,1.08.79,14.78,14.78,0,0,0,2.28.88c.6.2,1,.52,1.68.84s1.08.72,1.64.92.92.76,1.28,1A15.38,15.38,0,0,1,142.91,85.24Zm-13.12-2a3.88,3.88,0,0,0-2-.4,5.63,5.63,0,0,0-2.28.32,1.6,1.6,0,0,0-1.28,1.56c-.12.92.4,1.08,1.12,1.4a11.43,11.43,0,0,0,2.16.28,2.92,2.92,0,0,0,2.2-.76c.32-.16.4-.32.44-.88A1.85,1.85,0,0,0,129.79,83.24ZM143.51,69c-.6.36-1,.88-1.56.72-.6,0-.72-.2-1.24-.36a2.69,2.69,0,0,1-1.28-.72,6.38,6.38,0,0,1-1.28-.64c-.48-.28-.76-.2-1.24-.6-.64-.36-.8-.24-1.32-.56a2.94,2.94,0,0,1-1.64-1,1.94,1.94,0,0,1,.2-2.84,1.68,1.68,0,0,1,1.64-.68,12.85,12.85,0,0,1,1.84.4,7.41,7.41,0,0,0,1.68.68,6.19,6.19,0,0,1,2,.92,2.52,2.52,0,0,1,1,.6,6.79,6.79,0,0,0,.92.68,1.64,1.64,0,0,1,.84,1.76A2.06,2.06,0,0,1,143.51,69Z" fill="#007130"/><path d="M152,64.53a3.61,3.61,0,0,1-.08,1.44,2.91,2.91,0,0,0-.24,1.6,3.56,3.56,0,0,0-.36,1.56,4.62,4.62,0,0,1-.4,1.4,1.77,1.77,0,0,1-1.72,1.28,9,9,0,0,1-1.16-.44c-.32-.32-.68-.8-.52-1.12a5.14,5.14,0,0,0,.4-1.76c.12-.64.16-1,.28-1.48a5.16,5.16,0,0,1,.24-1.44,7.1,7.1,0,0,1,.24-1.48,1.76,1.76,0,0,1,1.6-1.28,1.08,1.08,0,0,1,1.24.48A1.8,1.8,0,0,1,152,64.53ZM156.84,88a6.51,6.51,0,0,1,0,2.16c-.2.72-.16,1.12-.72,1.4a1.55,1.55,0,0,1-1.56.44c-.52-.16-1.24-.16-1.52-.44s-.92-.68-.72-1.4a19.64,19.64,0,0,0,0-2.16,18.61,18.61,0,0,1,0-2.12,9.21,9.21,0,0,1,0-2.12,7.5,7.5,0,0,1,0-2.12,18.71,18.71,0,0,0,0-2.12,5.33,5.33,0,0,1,0-2.11,7.51,7.51,0,0,1,0-2.12,19.44,19.44,0,0,0,0-2.16,12.38,12.38,0,0,0,0-2.12,4.21,4.21,0,0,1,0-2.12,5.35,5.35,0,0,1,0-2.12c.12-.6-.16-1.36,0-2.12a9.33,9.33,0,0,1,0-2.12,4.74,4.74,0,0,0,0-2.12c0-.68,0-1.56,0-2.12a14,14,0,0,1,0-2.2,1.92,1.92,0,0,1,.72-1.32,10.78,10.78,0,0,1,1.52-.48,3.94,3.94,0,0,1,1.52.48,1.51,1.51,0,0,1,.76,1.32,10.08,10.08,0,0,0,0,2.2,4.67,4.67,0,0,0,0,2.12,12.51,12.51,0,0,0,0,2.12,3.79,3.79,0,0,0,0,2.12c-.08.88.12,1.52,0,2.12s.08,1.24,0,2.12a12.44,12.44,0,0,0,0,2.12,9.35,9.35,0,0,1,0,2.12,6.45,6.45,0,0,0,0,2.16c.08.68,0,1.32,0,2.12a9.3,9.3,0,0,1,0,2.11c0,.65,0,1.56,0,2.12a9.39,9.39,0,0,0,0,2.12,18.73,18.73,0,0,1,0,2.12C156.76,86.48,156.92,87.32,156.84,88Zm2.56-19.71c-.64.08-1.12-.56-1.36-.88a4.19,4.19,0,0,1-.44-1.64,16.94,16.94,0,0,0-.44-2.2,2.43,2.43,0,0,1,.36-1.8,2.74,2.74,0,0,1,1.08-.48,1.83,1.83,0,0,1,1.68,1.4,6.41,6.41,0,0,0,.52,1.76,6.07,6.07,0,0,1,.32,1.84c-.12.6,0,1.12-.44,1.4A1.13,1.13,0,0,1,159.4,68.33Zm25.88.48a1.88,1.88,0,0,1-1.44,1.8c-.88-.12-2,.08-2.76,0s-2,.16-2.72,0a15.32,15.32,0,0,1-2.72,0,9.1,9.1,0,0,1-2.76,0,7.73,7.73,0,0,0-2.72,0,12.37,12.37,0,0,1-2.72,0,7.77,7.77,0,0,1-2.72,0,16.36,16.36,0,0,0-2.8,0,1.68,1.68,0,0,1-1.44-1.8c.08-.6.76-1.8,1.44-1.84A18.71,18.71,0,0,0,164,67c.52-.16,1.32.2,2.08,0a32.78,32.78,0,0,0,3.52,0c.68-.08.64-.76.56-1.16,0-.16-.36-.24-.88-.28a13.84,13.84,0,0,0-1.72.12c-1,.12-1.88-.08-2.72,0s-1.52-.76-1.4-1.76c.08-.64.48-1.68,1.4-1.72.44.12,1-.16,1.44,0a4.91,4.91,0,0,1,1.88,0c1.68-.12,2.12-.16,2-1,0-.32-.76-.28-1.4-.16a19.22,19.22,0,0,1-2.2,0,14.09,14.09,0,0,0-1.84,0c-.52-.08-1.28.08-1.88,0a.81.81,0,0,1-1-.56,1,1,0,0,1-.4-1.2,1.77,1.77,0,0,1,1.44-1.8,6.21,6.21,0,0,0,1.92,0,5.38,5.38,0,0,1,1.8,0c.52.08,1.32,0,2.2,0s1.2,0,1.32-1.36c.08-.88.4-1,.72-1.48a5.57,5.57,0,0,1,1.48-.4,7.58,7.58,0,0,1,1.48.4c.56.4.6.8.72,1.48A1.46,1.46,0,0,0,176,57.37c1.16,0,1.64.08,2.44,0a11.58,11.58,0,0,0,2,0c.48-.12,1.44.2,2,0a1.89,1.89,0,0,1,1.44,1.76c-.2.56,0,.8-.36,1.24a1,1,0,0,1-1,.56,4.59,4.59,0,0,1-2.08,0,5,5,0,0,1-2,0,12.19,12.19,0,0,1-2.68,0c-.84-.12-1.4.08-1.32.92,0,.36.84.28,2.24.32.92,0,1.52-.08,2,0s1.08,0,1.56,0a1.59,1.59,0,0,1,1.44,1.72,1.84,1.84,0,0,1-1.44,1.76,2.59,2.59,0,0,1-1.56,0c-.4-.08-2.8,0-3.68,0-.6.12-.52.68-.52,1,.24.32.92.24,1.72.2,1.44.16,1.92-.12,2.88,0,1-.16,1.44.2,2.36,0,.64-.12,1.6.16,2.4,0,.4.12.68.44,1.08.6C185.16,67.81,185.12,68.45,185.28,68.81ZM181.56,81.4a15.78,15.78,0,0,1,0,2.76,15.9,15.9,0,0,0,0,2.76,18.51,18.51,0,0,0-.2,2,2.42,2.42,0,0,1-1,1.8c-.64.44-.88.76-1.56.8-.52.28-1.2.08-1.72.16-.44-.08-1.08.16-1.64,0a2.39,2.39,0,0,1-1.64-.32,3,3,0,0,1-1.08-1.88,2.74,2.74,0,0,1,.44-1.24,1.91,1.91,0,0,1,1.12-.68,17.39,17.39,0,0,1,2,.08c.8.24,1-.08.92-1.2.08-.8.12-1.2-1.24-1.08s-2.68,0-3.44,0a7.14,7.14,0,0,1-3,0c-.4.12-.88,0-1.36.24s-.24,1.08-.36,1.6a4.51,4.51,0,0,1,0,1.84,13.3,13.3,0,0,1,0,1.36,1,1,0,0,1-.72,1.28,3,3,0,0,1-1.44.36,2.42,2.42,0,0,1-1.44-.36c-.6-.16-.8-.6-.72-1.28a4.1,4.1,0,0,1,0-1.84,9.43,9.43,0,0,0,0-1.84,3.43,3.43,0,0,1,0-1.8,4,4,0,0,0,0-1.84,6.78,6.78,0,0,1,0-1.8,4.53,4.53,0,0,1,0-1.8c0-.68,0-1.23,0-1.83s.12-1.12,0-1.8a13.73,13.73,0,0,1,.24-1.6c.32-.48.32-.88.84-1.4a4.11,4.11,0,0,1,1.68-.8,12.61,12.61,0,0,1,1.84-.16,10.45,10.45,0,0,0,2.24,0,20.83,20.83,0,0,1,2.24,0,8.28,8.28,0,0,1,2.24,0c.6.2,1.48-.16,2.24,0a5.23,5.23,0,0,1,2,.2,4.4,4.4,0,0,1,1.72,1,10.19,10.19,0,0,0,.68,1.32c-.08.56.32.92.16,1.48a21,21,0,0,0,0,2.75C181.52,79.56,181.68,80.6,181.56,81.4ZM168.28,77A10.1,10.1,0,0,0,171,77a13.07,13.07,0,0,0,2.64,0,23.33,23.33,0,0,0,3.08,0c.68-.12.68-1.11.16-1.51a6.71,6.71,0,0,0-2.56-.08,5.18,5.18,0,0,0-1.76,0,6.2,6.2,0,0,1-1.72,0,11.89,11.89,0,0,0-2.36,0C167.84,75.61,167.6,76.77,168.28,77Zm7.2,3.48c-1.56,0-2.28-.12-3,0-1,0-2.44-.08-3.84,0-.72-.08-.8.56-.8,1.2a1.65,1.65,0,0,0,1.68.28,18.85,18.85,0,0,0,4,0,9.76,9.76,0,0,0,3.2-.08c.8-.12.68-.44.6-1.16C177.24,80.29,176.2,80.4,175.48,80.44Z" fill="#007130"/><path d="M187.58,66.69c0-.52,0-1.12.4-1.32s.48-.68,1.16-.6a4.5,4.5,0,0,0,1.64,0,6.51,6.51,0,0,1,2.16,0,8.7,8.7,0,0,0,2-.2c.32-.28.28-1.16.24-1.68,0-.36-.6-.4-1.76-.4a5.88,5.88,0,0,1-2.4,0,.86.86,0,0,1-1.16-.6,2.36,2.36,0,0,1-.4-1.32,2.86,2.86,0,0,1,.4-1.32c.16-.28.68-.4,1.16-.6.56.12,1.48-.2,2.64,0a1.65,1.65,0,0,0,1.36-.48,2.46,2.46,0,0,0,.2-1.8,1.76,1.76,0,0,1,.72-1.52c.2-.32.92-.2,1.4-.36a2.71,2.71,0,0,1,1.4.36,2,2,0,0,1,.72,1.52c.16.48-.24,1.4.28,1.8a2.46,2.46,0,0,0,1.28.48c1.32.16,2,0,2.72,0a1.9,1.9,0,0,1,1.2.6,1.54,1.54,0,0,1,.4,1.32,2.42,2.42,0,0,1-.4,1.32,1.56,1.56,0,0,1-1.2.6c-.88-.12-1.64.16-2.8,0a1.19,1.19,0,0,0-1.24.48,2.44,2.44,0,0,0-.2,1.48c.36.48,1.4.44,2.2.4a19.45,19.45,0,0,0,2.16,0,2.88,2.88,0,0,0,1.64,0,1,1,0,0,1,1.2.6,2.33,2.33,0,0,1,.28,1.32A4.39,4.39,0,0,1,206.7,68a2.62,2.62,0,0,1-1.2.6c-.68,0-1.6.24-2.08,0a17.34,17.34,0,0,1-2,0,8.61,8.61,0,0,0-2,0,16.59,16.59,0,0,0-2,0,17.34,17.34,0,0,0-2,0,5.81,5.81,0,0,1-2,0,6.85,6.85,0,0,1-2,0,7.37,7.37,0,0,0-2.08,0A1.81,1.81,0,0,1,188,68,1.6,1.6,0,0,1,187.58,66.69ZM207,76.29a2.46,2.46,0,0,1-.32,1.51,2.3,2.3,0,0,1-1.2.61,3.59,3.59,0,0,0-1.64,0,19.46,19.46,0,0,0-2.16,0c-.36.12-1,0-1.84.27a2.27,2.27,0,0,0-.36,1.8c.24.64.92.56,1.68.44a25.43,25.43,0,0,0,3,0,1.13,1.13,0,0,1,1.2.6,2.35,2.35,0,0,1,.4,1.32,1.45,1.45,0,0,1-.4,1.32,5.57,5.57,0,0,1-1.2.6,18.82,18.82,0,0,0-3,0,4.67,4.67,0,0,0-1.4.56c-.48.32-.16,1.28-.28,1.56.12.88-.08,1.48,0,2a3.43,3.43,0,0,0,0,1.56,1.68,1.68,0,0,1-.72,1.2,1.63,1.63,0,0,1-1.4.36,1.71,1.71,0,0,1-1.4-.36c-.4-.16-.56-.44-.72-1.2a6.79,6.79,0,0,1,0-1.56,17.32,17.32,0,0,1,0-2,2,2,0,0,0-.24-1.64c-.2-.52-1.2-.52-1.44-.48-1.44.12-2.16-.08-2.88,0-.4-.08-.92-.12-1.16-.6a1.56,1.56,0,0,1-.4-1.32,1.43,1.43,0,0,1,.4-1.32,1.12,1.12,0,0,1,1.16-.6,21.05,21.05,0,0,1,2.88,0c.4.08,1.4,0,1.56-.44a2.33,2.33,0,0,0,0-1.48c-.16-.47-1.12-.44-2.12-.59a9.08,9.08,0,0,1-2.12,0,2.29,2.29,0,0,1-1.68,0A1.12,1.12,0,0,1,188,77.8a3.08,3.08,0,0,1-.4-1.31,1.77,1.77,0,0,1,1.76-2,8,8,0,0,0,2,0,12,12,0,0,1,2,.16c.52,0,2.12,0,2.72,0a2,2,0,0,0,1.28-.24c.36-.12.4-1,.76-1.28.12-.56.48-1,.68-1.68a2.65,2.65,0,0,0,.44-1.16c.32-.44.52-.8.76-1.16a2.92,2.92,0,0,1,1.28-.24,2.09,2.09,0,0,1,1.36.48c.44.2.84.52.76,1.08a7,7,0,0,1-.48,1.64,3.64,3.64,0,0,0-.64,1.52c-.44.68,0,1,1,.92,1.12,0,1.72.12,2.28,0a1.41,1.41,0,0,1,1.2.6C207,75.37,207,76,207,76.29ZM196.3,72.57c0,.56-.32.84-.76,1.16a1.76,1.76,0,0,1-1.4.48,3.36,3.36,0,0,1-1.2-.24c-.36-.12-.64-.72-.72-1.16a10.68,10.68,0,0,0-.68-1.28,2.55,2.55,0,0,1-.28-1.08c.16-.6.4-1.08.72-1A2.87,2.87,0,0,1,193.3,69c.4-.16,1.12.4,1.44.4a11.66,11.66,0,0,1,.92,1.36C195.78,71.49,196.38,72,196.3,72.57Zm29.4,16.59c-.12.72-.16,1.12-.6,1.52a4.89,4.89,0,0,1-1.48.68,1.49,1.49,0,0,1-1.32-.48c-.48-.36-.88-.68-1.4-1.12a11.1,11.1,0,0,1-1.4-1.52c-.6-.68-1.2,0-1.52.48-.24.28-.6.72-.88,1.08-.2.52-.48.56-.72.84a3,3,0,0,1-1.92,1,9.13,9.13,0,0,1-1.4-.52,3.73,3.73,0,0,1-.68-1.32,2.77,2.77,0,0,1,1-2c.44-.44.6-.44.88-1a2.84,2.84,0,0,1,.76-1,1.53,1.53,0,0,0,.76-1.08c.08-.4.36-.72.44-1s-.32-.44-.4-1.08a4.7,4.7,0,0,1-.6-1.28,6.41,6.41,0,0,1-.52-1.24c-.24-.24-.2-.72-.48-1.28-.24-.35-.2-1-.4-1.27a5.77,5.77,0,0,1-.48-1.49c-.08-.35-.44-1-.76-.79-.52.28-.32.92-.32,1.28a8.84,8.84,0,0,1-.08,1.55,12.33,12.33,0,0,0,.08,1.8,9.14,9.14,0,0,0,0,2.12c0,.72,0,1.4-.08,2.12s.08,1.28,0,2.12,0,1.56,0,2.12a13.47,13.47,0,0,1,0,2.2,1.6,1.6,0,0,1-.72,1.2,3.07,3.07,0,0,1-1.44.36,1.93,1.93,0,0,1-1.44-.36c-.32-.32-.84-.6-.72-1.2,0-.64,0-1.36,0-2a14.61,14.61,0,0,0,0-1.88,14.74,14.74,0,0,1,0-1.88c-.08-.48.12-1.12,0-1.88a15.14,15.14,0,0,1,0-1.92,7.17,7.17,0,0,1,0-1.87,14.6,14.6,0,0,0,0-1.88,4.42,4.42,0,0,1,0-1.92,4.44,4.44,0,0,1,0-1.92,4.26,4.26,0,0,1,0-1.88,14.74,14.74,0,0,0,0-1.88,15.38,15.38,0,0,1,0-1.92c-.08-.72,0-1.12,0-1.88a14.74,14.74,0,0,0,0-1.88,14.61,14.61,0,0,1,0-1.88,7.24,7.24,0,0,1,0-1.88c-.16-.52.16-1.08.24-1.6a2.06,2.06,0,0,1,.84-1.4,3.36,3.36,0,0,1,1.6-.8c.76-.08,1.12,0,1.8-.16a7.77,7.77,0,0,1,1.68,0c.6-.12,1,.08,1.68,0s.92.16,1.68,0a5.82,5.82,0,0,0,1.68,0c.56.16,1.16.08,2,.24a5.23,5.23,0,0,1,1.76,1,1.79,1.79,0,0,1,.72,1.36,3.52,3.52,0,0,1,.16,1.52,8.7,8.7,0,0,0,0,2,16.38,16.38,0,0,0,0,2,10,10,0,0,0-.24,1.56c-.36.6-.28.92-.88,1.36-.48.28-1.16.84-1.56.8a3.85,3.85,0,0,1-1.72.2,8.17,8.17,0,0,1-2.88-.24,6.39,6.39,0,0,1-1.2-.68,1.29,1.29,0,0,1-.52-1.32,1.25,1.25,0,0,1,.36-1.32,1.27,1.27,0,0,1,1.36-.64c1.2.36,1.92.68,2.76.12a2.75,2.75,0,0,0,.32-1.52A18.36,18.36,0,0,0,219.3,61c.08-.56-.4-.64-1-.8-.76.16-2-.12-2.64,0-.72-.16-1.88.2-2.6,0-.6.2-.92.24-.92.84a10.48,10.48,0,0,0,0,2.24,21.67,21.67,0,0,1,0,2.28c-.08.6,0,1.52,0,2.76s.48,1.64,1.36,1.64a22,22,0,0,1,2.32,0c.8-.16,1.28.12,1.92,0s1.24.12,1.88,0a15.48,15.48,0,0,1,2,.2,3.38,3.38,0,0,1,1.68,1,3.16,3.16,0,0,1,.76,2.28c-.2.64,0,1.08-.12,1.48a10.76,10.76,0,0,1-.32,1.48,12.71,12.71,0,0,1-.48,1.88,9.34,9.34,0,0,1-.64,1.87,6.81,6.81,0,0,0-.36,1c-.36.32-.24,1-.56,1.4a1.88,1.88,0,0,0-.08,1.72c.36.72.76.76,1.08,1.16a7.74,7.74,0,0,0,.84.8,11.05,11.05,0,0,0,.88.76c.6.36.72.76,1.12,1.2C225.7,88.4,225.5,88.72,225.7,89.16Zm-5.92-14.55c-.08-1-.88-.76-1.76-.8-1.4-.08-1.48.48-1,1a4.35,4.35,0,0,0,.48,1.84,2.68,2.68,0,0,1,.16,1.11c.28.61.36,1.24.76,1.36.52,0,.36-.75.64-1.36a6.17,6.17,0,0,1,.32-1.23C219.38,76,219.74,75.45,219.78,74.61Z" fill="#007130"/><path d="M250.33,76.81a7.08,7.08,0,0,1-.16,2.4,7.28,7.28,0,0,0-.36,2.39c-.24,1-.32,1.4-.52,2.36-.12.56-.36.92-.4,1.32-.2.48-.2,1-.52,1.32-.2.52-.28,1-.68,1.2-.36.36-.68.84-1,1.08a11.74,11.74,0,0,0-1,.68,3.34,3.34,0,0,1-1.16.44,5.94,5.94,0,0,1-2.48.28,3.71,3.71,0,0,1-1.48,0A5.33,5.33,0,0,0,239,90c-.6-.08-.84-.44-1.24-.76a1.32,1.32,0,0,1-.52-1.44,2.68,2.68,0,0,1,.52-1.52c.4-.2.64-.72,1.36-.76,1-.08,2,.32,2.8.16a1.71,1.71,0,0,0,2-1,10,10,0,0,0,.88-2.2,2.53,2.53,0,0,1,.28-1.36,3.77,3.77,0,0,1,.24-1.44c0-1.08.24-1.8.24-2.91s.16-1.64.08-2.44a14.84,14.84,0,0,0,0-1.84,4.72,4.72,0,0,0-.52-1.72c-.28-.44-1-.68-2.32-.8a2.69,2.69,0,0,0-1.76.4,2,2,0,0,0-.8,1.08,8.36,8.36,0,0,0-.52,1.6c0,.44-.28.72-.36,1.16-.28.88-.6,1.52-.72,2.12a7.86,7.86,0,0,0-.76,2.12,17.26,17.26,0,0,1-.8,2.07c-.16.88-.76,1.28-.84,2.08a18.7,18.7,0,0,1-.92,2,18.51,18.51,0,0,0-1,2c-.52.72-.76,1.36-1.16,1.8a1.8,1.8,0,0,1-1.88.88,2,2,0,0,1-1.6-.56c-.6-.36-.64-.92-.72-1.52.12-.52.28-1,.36-1.28.16-.56.76-1.2.92-1.68a3.71,3.71,0,0,1,.84-1.68,10.72,10.72,0,0,1,.76-1.68,8.46,8.46,0,0,1,.72-1.71c.2-.76.6-1.21.68-1.76s.48-1,.6-1.76a5.38,5.38,0,0,0,.56-1.8,15.89,15.89,0,0,1,.56-1.76c.28-1-.36-1.52-.76-1.52-.68,0-1.2.28-1.68.28a21.59,21.59,0,0,0-2.32.4,1.35,1.35,0,0,1-1.4-.64,2.18,2.18,0,0,1-.56-1.52,2,2,0,0,1,1.24-2,2.55,2.55,0,0,1,1.32-.4c.56-.12,1-.16,1.76-.28.48,0,1.12-.2,1.76-.24a3.86,3.86,0,0,0,1.72-.64,2.11,2.11,0,0,0,.64-1.08,4.3,4.3,0,0,0,.32-1.8c.2-.76.24-1.68.4-2.56a12.37,12.37,0,0,0,.16-1.4,2.71,2.71,0,0,1,.56-1.24,2.14,2.14,0,0,1,1.76-.76,3.05,3.05,0,0,1,1.72.64,1.8,1.8,0,0,1,.64,1.72,6.66,6.66,0,0,1-.2,1.68,14.13,14.13,0,0,1-.24,1.68,8.17,8.17,0,0,0-.28,1.64,1.54,1.54,0,0,0,1.64,1.4,6.24,6.24,0,0,1,1.56.16,2.91,2.91,0,0,1,1.4.28,7.81,7.81,0,0,1,1.36.56c.4.12.76.6,1.16.92a8,8,0,0,1,1,1.56,7.68,7.68,0,0,1,.52,1.72,7.21,7.21,0,0,1,.2,1.84c0,.48,0,1,0,1.76A9.87,9.87,0,0,1,250.33,76.81Zm12.59-3.6c.08.56-.2,1.48-.71,1.68a2,2,0,0,1-1.72.72A1.46,1.46,0,0,1,259,75a4.51,4.51,0,0,1-1-1.4c-.4-.48-.72-1.48-1.16-2-.24-.28-.6-.72-.6-1a3.93,3.93,0,0,0-.68-1,3.35,3.35,0,0,1-.64-1,3,3,0,0,1-.72-.92c-.16-.44-.44-.6-.72-.92s-.4-.52-.8-.92c-.32-.56-1-1.08-.8-1.68-.16-.48.48-1.08.8-1.48a9.79,9.79,0,0,1,1.6-.6c.52-.16.76.12,1.28.32s.52.64,1,.84a4.56,4.56,0,0,0,.88.88c.4.32.48.68.8.92a2.19,2.19,0,0,1,.8,1c.24.52.64.68.72,1,.36.52.36.84.72,1,.36.36.32.52.68,1a2.47,2.47,0,0,0,.6,1.08c.31.2.4.88.6,1.08A5.14,5.14,0,0,1,262.92,73.21Zm-7.39-14.16c-.16-.44-.32-.68-.48-1.08a1.34,1.34,0,0,1,.56-1.12,1.42,1.42,0,0,1,1.2-.48,2.48,2.48,0,0,1,1.68.8,8.19,8.19,0,0,0,1.24,1.32c.44.4.68,1,1.16,1.32a7.74,7.74,0,0,1,.68,1.72c.16.28-.2,1-.53,1.16s-.75.64-1.15.52c-.56,0-1-.48-1.56-1-.44-.64-1-1.12-1.36-1.64A9.12,9.12,0,0,1,255.53,59.05Zm10-.84a1.59,1.59,0,0,1-.39,1.24,1.38,1.38,0,0,1-1.17.48c-.71.16-1-.24-1.47-.72-.24-.28-.76-.52-.88-1a2.65,2.65,0,0,1-.72-.84c-.44-.32-.84-1-1.44-1.52a1.3,1.3,0,0,1-.44-1c-.08-.6.32-.84.56-1.12a2.61,2.61,0,0,1,1.2-.36,2.1,2.1,0,0,1,1.68.68,6.34,6.34,0,0,0,1.27,1.28,12.1,12.1,0,0,1,1.2,1.36C265.28,57.33,265.52,57.53,265.52,58.21Z" fill="#007130"/><path d="M274.54,67.69a1.27,1.27,0,0,0-.44,1.36c-.08.92.08,1.44,0,1.8a7.76,7.76,0,0,0-.08,1.36,22.41,22.41,0,0,0-.24,2.6,15.92,15.92,0,0,1-.32,2.6,8.51,8.51,0,0,1-.44,2.51c-.24.8-.44,1.8-.6,2.52-.08.36-.28,1-.36,1.24a4.06,4.06,0,0,0-.4,1.24,6.26,6.26,0,0,1-.48,1.2c-.24.24-.24.8-.48,1.2-.52.68-.52,1.48-1.12,2a2.33,2.33,0,0,1-3.52.36,1.64,1.64,0,0,1-.68-1.52c.12-.56.28-1.12.36-1.4.36-.68.36-1.28.84-1.76a5.14,5.14,0,0,0,.68-1.56,3.64,3.64,0,0,0,.56-1.64c.16-.68.28-1.08.44-1.68a5.07,5.07,0,0,1,.4-1.63c0-.41.28-1,.28-1.56a3.37,3.37,0,0,0,.24-1.56c0-.4.24-1,.16-1.52a4.25,4.25,0,0,1,.12-1.56,6.5,6.5,0,0,1,.12-1.56,6.73,6.73,0,0,0,0-1.56,16.11,16.11,0,0,1,.08-3.12c0-1,0-2,0-2.68a20.51,20.51,0,0,1,0-2.72,6.54,6.54,0,0,1,.24-1.68,4,4,0,0,1,.92-1.48c.64-.6,1.36-.6,2-1,.56,0,1.56-.08,2.24-.16a9.62,9.62,0,0,1,2.4,0,12,12,0,0,0,2.4,0,12,12,0,0,1,2.4,0c.64.16,1.64-.16,2.4,0a6.89,6.89,0,0,0,2.4,0c.64-.16,1.52.2,2.4,0a15.36,15.36,0,0,0,2.35,0c.92.16,1.4-.12,2.4,0,.52.08,1.36.08,2.28.2a4.8,4.8,0,0,1,2,1.08c.16.48.68.8.64,1.2a6.62,6.62,0,0,0,.2,1.36,27.74,27.74,0,0,0,0,3.16,6.71,6.71,0,0,1-.56,2.08,3.11,3.11,0,0,1-1.6,1.36,2.33,2.33,0,0,1-1.48.36c-.44.24-.88.08-1.48.08-.88-.08-1.64,0-2.52,0a17.66,17.66,0,0,1-2.52,0,7.74,7.74,0,0,1-2.55,0,6.64,6.64,0,0,1-2.52,0c-1,0-1.8-.12-2.52,0-1,0-1.68-.12-2.56,0s-1.76-.08-2.8,0C275.62,67.13,274.78,67.25,274.54,67.69Zm1.4-4.24a18,18,0,0,1,3,0c.64-.08,1.56,0,2.44,0,1-.16,1.64.2,2.48,0a16.36,16.36,0,0,0,2.44,0,9.89,9.89,0,0,0,2.44,0c.63,0,1.63,0,2.43,0a16.44,16.44,0,0,0,2.44,0c.84,0,1.48,0,1.36-1a4.07,4.07,0,0,1,0-1.4c-.08-.64-.52-.84-1.36-.92a13.87,13.87,0,0,0-2.24,0c-.72-.12-1.63.08-2.24,0a20.73,20.73,0,0,1-2.23,0,10.36,10.36,0,0,1-2.24,0,6.22,6.22,0,0,1-2.28,0,5.25,5.25,0,0,0-2.24,0,8.4,8.4,0,0,1-2.24,0,5.1,5.1,0,0,1-2.2,0c-.84.2-1.6,0-1.48,1.32a1.73,1.73,0,0,0,.44,1.72A1.3,1.3,0,0,0,275.94,63.45Zm23.67,20.83a6.72,6.72,0,0,0,0,2.36,3.88,3.88,0,0,1-.36,2.08,3.66,3.66,0,0,1-1.32,1.6,4.61,4.61,0,0,1-1.76.6c-.68,0-1.08.12-1.84.16-.4-.16-1.2.2-1.64,0-.72-.12-1.12.16-1.64,0a2.82,2.82,0,0,1-1.63,0,3.41,3.41,0,0,1-1.68,0,4.5,4.5,0,0,1-1.64,0,11.19,11.19,0,0,1-1.64,0c-.64-.08-1.08.2-1.64,0-.76-.16-1,.16-1.68,0a4.4,4.4,0,0,1-2.32-.24c-.56,0-.68-.16-1.08-.4a2.76,2.76,0,0,0-1-.72c-.2-.48-.52-1-.76-1.48,0-.32-.2-1-.16-1.6a11.6,11.6,0,0,0,0-2.36,8,8,0,0,0,0-2.4,5.84,5.84,0,0,1,0-2.36,16,16,0,0,1,0-2.4,2.34,2.34,0,0,1,.24-1.75c0-.48.6-1.16.92-1.52.52-.64,1-.6,2-1,.84-.2,1.44,0,2.12-.16.72.16,1.32-.08,2.72,0a1.57,1.57,0,0,0,1.28-.6,11.09,11.09,0,0,0,.2-2.24c.2-.88.56-1.24.92-1.24a10.69,10.69,0,0,1,1.36-.36c.32,0,1.2.08,1.43.36.57-.12.92.68,1,1.48a7.59,7.59,0,0,0,.16,2.12c.48.44,1,.32,1.33.48a21.86,21.86,0,0,1,2.83,0,11.87,11.87,0,0,1,2.32.2,4.48,4.48,0,0,1,2,1.16,8.19,8.19,0,0,0,.76,1.44,2.88,2.88,0,0,1,.16,1.59c0,.72,0,1.56,0,2.4a11.45,11.45,0,0,1,0,2.36A16,16,0,0,1,299.61,84.28ZM285.3,76.85c-.36-.48-1-.32-1.44-.44-.92.12-1.52-.08-2,0s-1,0-1.4.4a3.14,3.14,0,0,0-.24,2.27c-.16.6,1,1.13,2,1,.24.08.4-.16,1.24,0,.4-.08,1.44.12,1.72-.32.48-.47.12-1.08.28-1.51A6.88,6.88,0,0,0,285.3,76.85ZM285,87c.32-.36.4-.64.4-1.76,0-.8,0-1.32-.44-1.4-.36-.44-1.32-.08-1.52-.28a2.35,2.35,0,0,1-1.24,0c-.48,0-1.32-.16-1.72.44-.56.64-.32,1.24-.28,1.88.08,1.4,1,1.48,1.64,1.52s1.4,0,2.28,0A1.13,1.13,0,0,0,285,87Zm8.63-10.59a5.06,5.06,0,0,1-2.19,0,1.87,1.87,0,0,0-1.33.32,7.29,7.29,0,0,0-.12,1.68c.16.59,0,1.19.41,1.35.23.4.91.4,1.51.28.24.28.48.21,1.28,0,.48,0,1.28.36,1.88-.16.24-.28,0-1.28.2-2C295.13,76.69,294.65,76.33,293.61,76.41Zm-.44,7.15c-.24-.24-.48-.08-1.28,0a1.93,1.93,0,0,0-1.56.44,1.55,1.55,0,0,0-.28,1.28c.16.44-.12,1.36.2,1.56.13.32.52.44,1,.56a24,24,0,0,0,2.4,0c.36.2.88,0,1.32-.48s.32-1.6.28-2.6C294.85,83.48,294.05,83.68,293.17,83.56Z" fill="#007130"/><path d="M323.15,90.12a2.65,2.65,0,0,1-1.8.68,2.1,2.1,0,0,1-1.64-.6c-.56-.32-.6-.88-1.08-1.32a6.2,6.2,0,0,1-1-1.56,5.49,5.49,0,0,1-1-1.48,7,7,0,0,0-1-1.48,4,4,0,0,1-1.12-1.48,3.48,3.48,0,0,1-1.12-1.44,7.18,7.18,0,0,0-1.16-1.4,11.94,11.94,0,0,0-1.16-1.4,5.21,5.21,0,0,1-1.16-1.39c-.52-.21-.56-.6-.92-1-.2-.4-.56-.6-.76-1.16-.08-.32-.48-.76-.52-1.2a4.92,4.92,0,0,1-.2-1.4,4.79,4.79,0,0,1,.52-2.28c.32-.28.32-.6.6-1s.6-.44.8-.92c.28-.2.52-.68,1.12-1.2.48-.32.52-.56.92-1,.12-.32.68-.72.88-1.08a10.55,10.55,0,0,1,.88-1.08c.36-.28.48-.76.84-1.12a13.6,13.6,0,0,0,.84-1.12,6.08,6.08,0,0,1,.84-1.16,11.44,11.44,0,0,1,.84-1.16c.2-.44.68-.8.76-1.16.4-.32.52-.8,1-1.44s1.28-1.24,2-1.08a3.3,3.3,0,0,1,1.72.64,2.29,2.29,0,0,1,.8,1.68c0,.8-.28,1.08-.6,1.76A7.88,7.88,0,0,1,321,61.17a7.23,7.23,0,0,0-.76,1,5,5,0,0,1-.76,1,2,2,0,0,1-.8,1,4,4,0,0,0-.8,1c-.12.28-.72.8-.76,1-.44.44-.4.68-.84,1a4,4,0,0,1-.84,1,3.89,3.89,0,0,0-.84.92,7,7,0,0,0-1.48,1.56c-.4.48-1,1.08-.84,1.8a2.71,2.71,0,0,0,.84,1.68c.44.24.64.72.84,1s.6.48.84.92.76.56.88.91a2.49,2.49,0,0,1,.84,1,10.05,10.05,0,0,0,1.4,1.68,11.92,11.92,0,0,0,1.4,1.72A19.8,19.8,0,0,0,320.67,83c.4.44.84,1.16,1.32,1.76a19.46,19.46,0,0,1,1.24,1.64,4.64,4.64,0,0,1,.76,2A2.14,2.14,0,0,1,323.15,90.12Z" fill="#007130"/><path d="M344.69,88a2.84,2.84,0,0,1-2.24.88,2.71,2.71,0,0,1-2.24-.88,3.62,3.62,0,0,1-.92-2.2,4,4,0,0,1,.92-2.2,3.19,3.19,0,0,1,4.48,0,2.67,2.67,0,0,1,.92,2.2A3.25,3.25,0,0,1,344.69,88Zm-5.2-27.95c.08-.32,0-1,.24-1.4,0-.36.52-.64.64-1a4,4,0,0,1,2.2-.8,4.9,4.9,0,0,1,2,.76,2.89,2.89,0,0,1,.88,2c-.2.72.12,1.2,0,1.88a3.34,3.34,0,0,1-.16,1.64,6.19,6.19,0,0,1-.12,1.6,7.57,7.57,0,0,0-.12,1.56c0,1.12-.16,1.8-.16,2.8a11.43,11.43,0,0,0-.12,2.84,16.52,16.52,0,0,1-.12,2.84,9.84,9.84,0,0,0-.12,2.84,2.62,2.62,0,0,1-.56,2.27,1.88,1.88,0,0,1-1.48.44c-.92-.07-1.72-.24-1.76-1.11a3.55,3.55,0,0,1-.2-1.6,14.55,14.55,0,0,1-.08-2.6c0-.64-.08-1.8-.12-2.56a6,6,0,0,1-.08-1.72,11.83,11.83,0,0,0-.08-1.76,11.23,11.23,0,0,1-.12-2.24c0-.8-.16-1.64-.16-2.24a9.58,9.58,0,0,0-.2-2.2A12.59,12.59,0,0,1,339.49,60.09Z" fill="#007130"/></g></g></svg>