<svg xmlns="http://www.w3.org/2000/svg" width="465.29" height="91.98" viewBox="0 0 465.29 91.98"><title>ttl03</title><g id="レイヤー_2" data-name="レイヤー 2"><g id="レイヤー_2-2" data-name="レイヤー 2"><path d="M24.59,3.48c.28.36.84.84.76,1.52a8.8,8.8,0,0,1-.44,2.56,10.34,10.34,0,0,1-.28,1.56,15.45,15.45,0,0,1-.28,1.64c-.28.4,0,.88-.2,1.56a3.33,3.33,0,0,0-.2,1.6,6.54,6.54,0,0,1-.24,2.24,21.86,21.86,0,0,0-.16,2.24c0,.64-.12,1.68-.08,2.28a5.28,5.28,0,0,0,0,2.24,3.45,3.45,0,0,0,0,1.8,6.8,6.8,0,0,0,.08,1.8,10.63,10.63,0,0,0,.16,1.8c.24.6,0,1.2.2,1.8s.2,1.32.28,1.76a6.09,6.09,0,0,1,.16,1.79,2.74,2.74,0,0,1-.76,1.56,3,3,0,0,1-1.68.6c-.64.12-.92-.2-1.28-.36-.44-.36-.76-.6-.88-1a5.59,5.59,0,0,1-.52-2.31c0-.45-.16-1-.16-1.57a12.8,12.8,0,0,1-.16-1.71c0-.6-.16-1.16-.12-1.72s-.24-1-.08-1.68A6.37,6.37,0,0,1,18.63,23a3.6,3.6,0,0,1,0-1.6,2.67,2.67,0,0,0,0-1.6c-.08-.32.16-1,.08-1.56a4.72,4.72,0,0,1,.12-1.6c0-.52.2-1.24.12-1.6a9.62,9.62,0,0,1,.16-1.56c-.12-.56.28-.92.2-1.6.2-.44,0-1.08.24-1.56-.08-.6.2-.92.24-1.4A2.5,2.5,0,0,1,20,7.6a7.5,7.5,0,0,0,.24-1.48,15,15,0,0,1,.4-1.56,10.32,10.32,0,0,1,.8-1.16A2.13,2.13,0,0,1,23,2.92,1.82,1.82,0,0,1,24.59,3.48ZM50.87,28.6a2.53,2.53,0,0,1,.56,1.52,2.18,2.18,0,0,1-.68,1.51,1.71,1.71,0,0,1-1.52.68,3.84,3.84,0,0,1-1.76-.64,5.11,5.11,0,0,0-1.08-.75,4.89,4.89,0,0,0-1.2-.76,1.47,1.47,0,0,0-1.88,1,11.47,11.47,0,0,0-.8,1.43c-.32.29-.56.8-.92.88-.24.36-1,.41-1.24.76-.6.16-1,.56-1.36.48a8.25,8.25,0,0,1-2.84.32,6.59,6.59,0,0,1-2.4-.24A4.36,4.36,0,0,1,31.47,34a2.48,2.48,0,0,1-1.16-.88A4.71,4.71,0,0,1,29.47,32c-.32-.37-.28-.76-.52-1.33-.08-.35,0-1-.16-1.43a3.31,3.31,0,0,1,.2-1.4c0-.44.4-1,.52-1.28s.52-.64.84-1.08a5.74,5.74,0,0,1,1.12-.88A10.93,10.93,0,0,1,32.71,24a5.25,5.25,0,0,1,1.36-.36,2.5,2.5,0,0,1,1.4-.2c.52.08,1.12-.12,1.8,0,1.28.16,1.92-.4,1.84-1.08,0-.48-.12-1.08,0-1.32A10,10,0,0,0,39,19.56a1.54,1.54,0,0,0-1.76-1.08c-1.12,0-1.92,0-2.88,0a12.34,12.34,0,0,0-1.72,0,2.75,2.75,0,0,1-1.72-.16c-.56,0-1-.16-1-.52a1.23,1.23,0,0,1-.56-1.52,1.68,1.68,0,0,1,.56-1.52,2.51,2.51,0,0,1,1.44-.6,14.08,14.08,0,0,0,2.88,0,13.71,13.71,0,0,0,2.84,0,1.7,1.7,0,0,0,1.64-1.36,12.43,12.43,0,0,1,0-2.08c0-.6-.88-1.08-1.64-1a20.29,20.29,0,0,1-2.64,0,11.94,11.94,0,0,1-1.2,0,3.11,3.11,0,0,1-1.64-.2,1.71,1.71,0,0,1-1-.52A1.94,1.94,0,0,1,30,7.52,1.84,1.84,0,0,1,30.55,6,2.51,2.51,0,0,1,32,5.48a16.9,16.9,0,0,0,2.4,0c.72.08,1.64-.08,2.6,0a20.37,20.37,0,0,0,2.64-.08,9.85,9.85,0,0,0,2.6-.24c.92-.08,1.88-.32,2.56-.4s1-.2,1.28-.24A2.31,2.31,0,0,1,48,5.28a3.47,3.47,0,0,1,.56,1.48,1.4,1.4,0,0,1-.4,1.2,1.86,1.86,0,0,1-1,.76,10.66,10.66,0,0,1-2.64.52,2.26,2.26,0,0,0-1,.6A1.57,1.57,0,0,0,43,11a5.45,5.45,0,0,0,.08,1.8,1.2,1.2,0,0,0,1,.84,9.58,9.58,0,0,0,1.56-.32c1.16-.2,2-.44,2.24-.28a3.07,3.07,0,0,1,1.4.68,2.68,2.68,0,0,1,.56,1.48,1.8,1.8,0,0,1-.44,1.24,2,2,0,0,1-1.08.72,7.93,7.93,0,0,0-1.4.32,9.79,9.79,0,0,1-1.88.32,1.71,1.71,0,0,0-1.4.68,2.76,2.76,0,0,0-.36,1.68c0,1,.08,1.64.12,2.2a3.17,3.17,0,0,0,.24,1.16A2.49,2.49,0,0,0,45,24.8a10,10,0,0,1,1.72.92,5.21,5.21,0,0,0,1.48.92,5.79,5.79,0,0,1,1.44.92A6.34,6.34,0,0,1,50.87,28.6Zm-11.6.16a1.24,1.24,0,0,0-.16-.92c-.28-.28-.6-.24-.92-.4-.4,0-1-.08-1.44-.12a7.36,7.36,0,0,0-2.32.32c-.72.28-1.28.6-1.28,1.6a1.25,1.25,0,0,0,1,1.43,3.26,3.26,0,0,0,2,.25c.4-.09,1,0,1.36-.21s.84-.39,1.12-.71A2.07,2.07,0,0,0,39.27,28.76Z" fill="#007130"/><path d="M82.92,26.16a2,2,0,0,1-.56,1.56c-.36.36-.48.8-.76,1-.12.2-.52.52-.76.88-.4.36-.52.76-.84.84-.28.48-.6.39-.88.8a2.14,2.14,0,0,0-.92.76c-.36.2-.72.28-1,.67s-.8.37-1,.64a8.7,8.7,0,0,0-1,.56,8,8,0,0,1-1.8.8,14.58,14.58,0,0,1-1.88.56,5,5,0,0,1-2,.32,5.46,5.46,0,0,1-2,.12,5.08,5.08,0,0,1-1.88-.12c-.52-.2-1.16,0-1.84-.4a3.1,3.1,0,0,1-1.68-.76c-.44-.39-1-.6-1.44-1.23-.44-.24-.44-.53-.72-1a2.17,2.17,0,0,1-.56-1c-.48-.6-.36-1.44-.72-2.28a6.36,6.36,0,0,1-.32-2.32,4.54,4.54,0,0,1-.08-2.32c0-.68,0-1.6,0-2.52a10.35,10.35,0,0,0,.08-2.52,13.26,13.26,0,0,1,.08-2.56,17.68,17.68,0,0,1,.08-2.48c.12-.88,0-1.64.16-2.56.16-.72,0-1.72.12-2.52.12-.64,0-1.48.12-2.48a5.74,5.74,0,0,1,.28-2.48,1.63,1.63,0,0,1,.8-1.36,2.88,2.88,0,0,1,1.56-.48c.72.2,1.28.12,1.72.6s.8,1,.72,1.68A17.33,17.33,0,0,1,64,6.68a18,18,0,0,0-.12,2,5.31,5.31,0,0,0-.16,2,6.59,6.59,0,0,1-.12,2,21.57,21.57,0,0,1-.12,2.88,10.22,10.22,0,0,0-.12,2.88,17.43,17.43,0,0,0,0,2.88c-.08.84.12,1.84,0,2.84a7.59,7.59,0,0,0,.12,2.28,5.27,5.27,0,0,0,.56,2.2c0,.48.52.64.6,1a3.41,3.41,0,0,1,.84.69,8,8,0,0,0,2.24.52,7.39,7.39,0,0,0,2.28-.25A8.89,8.89,0,0,0,72,30.08a6.33,6.33,0,0,0,2-1,16.32,16.32,0,0,0,1.8-1.36,4.64,4.64,0,0,0,1.4-1.4,10.58,10.58,0,0,0,1.32-1.52c.6-.6,1.32-1,1.88-.88a4.19,4.19,0,0,1,1.72.68A1.63,1.63,0,0,1,82.92,26.16Z" fill="#007130"/><path d="M104.67,26c0,.76-.48,1.44-.56,2-.4.68-.28,1.12-.64,1.72a4.26,4.26,0,0,1-.8,1.48c-.16.68-.68.92-1,1.27a3.51,3.51,0,0,1-1.8,1.24,18.89,18.89,0,0,1-2.08.44c-.68.2-1.12-.19-1.6-.15-.6-.25-1-.37-1.44-.57-.44,0-.67-.31-1.23-.84-.32-.51-.69-.55-1.09-1.15a4,4,0,0,1-.87-1.32c-.32-.6-.56-1.08-.76-1.56a9.63,9.63,0,0,0-.64-1.68,10.34,10.34,0,0,0-.52-1.76c-.16-.76-.32-1.2-.4-1.88a6.4,6.4,0,0,1-.32-1.88,7.32,7.32,0,0,1-.2-1.88,4.53,4.53,0,0,1-.16-1.8A10.86,10.86,0,0,0,88.4,16a5.45,5.45,0,0,1,0-1.6,15.15,15.15,0,0,1,0-2.68c0-.84.12-1.72,0-2.32a8.4,8.4,0,0,0,.2-1.92c.24-.44.32-.84.48-1.08a2.27,2.27,0,0,1,1.88-.8,3,3,0,0,1,1.76.64c.28.44.88.92.71,1.68,0,1-.08,1.48-.12,2.08a13.74,13.74,0,0,0,0,1.6,4.43,4.43,0,0,0,0,1.36,9.27,9.27,0,0,0,0,2.48c.12.68.08,1.68.29,2.64-.12.56.15,1.12.11,1.52a10.78,10.78,0,0,0,.2,1.56,3.18,3.18,0,0,0,.28,1.48,8.26,8.26,0,0,1,.29,1.48,4.11,4.11,0,0,0,.35,1.36,4,4,0,0,0,.44,1.2,4.75,4.75,0,0,0,1,1.8,1.23,1.23,0,0,0,1.32.68,1.69,1.69,0,0,0,1.8-1.36,13.27,13.27,0,0,1,.48-1.28,3.21,3.21,0,0,0,.36-1.2A4.46,4.46,0,0,1,101,24.2a5.9,5.9,0,0,1,1.28-.44,2.05,2.05,0,0,1,1.68.64A1.86,1.86,0,0,1,104.67,26Zm15.92-1a2.07,2.07,0,0,1-1.6.72,4.69,4.69,0,0,1-1.16-.32,2.53,2.53,0,0,1-.88-.84c-.24-.52-.24-1-.6-1.36a2.86,2.86,0,0,1-.56-1.28,6,6,0,0,0-.6-1.16c-.24-.44-.52-.92-.64-1.16a2.57,2.57,0,0,1-.68-1.12,6.09,6.09,0,0,0-.76-1.12,4.18,4.18,0,0,1-.76-1.08,12.6,12.6,0,0,0-.8-1c-.24-.48-.72-.68-.84-1s-.8-.56-.92-1a1.33,1.33,0,0,1-.64-1.52,2.14,2.14,0,0,1,.76-1.52,3.23,3.23,0,0,1,1.6-.64,4.57,4.57,0,0,1,1.2.36,4.77,4.77,0,0,1,1.16.84c.28.2.44.88.92,1,.48.28.56.84.76.92.52.48.84,1.24,1.28,1.64.52.6.68,1.16,1.16,1.68s.64,1.28,1,1.8c.4.8.64,1.12.92,1.8a12.68,12.68,0,0,0,.68,1.48,11.4,11.4,0,0,1,.56,1.64C121.35,23.84,121.15,24.64,120.59,25Z" fill="#007130"/><path d="M153.94,24.76c-.05.64.31,1.2.16,1.88s-.12,1.24-.16,2.12-.44,1.28-.57,2a13.44,13.44,0,0,1-.91,1.88,5.13,5.13,0,0,1-1.44,1.6,12.19,12.19,0,0,1-1.84,1.28,4.63,4.63,0,0,1-2.12.8,4.32,4.32,0,0,1-2.2.48,10.39,10.39,0,0,0-2.24.12,16.38,16.38,0,0,1-2.12-.16,4.52,4.52,0,0,1-2.08-.44,3.45,3.45,0,0,1-1.92-.92A3.68,3.68,0,0,1,134.86,34a4.88,4.88,0,0,1-1.12-1.6,6,6,0,0,1-.72-1.84,4.26,4.26,0,0,1-.36-1.91c0-.56-.12-1.44-.12-1.92.08-.72,0-1.24.08-2.24a1.83,1.83,0,0,0-1.48-1.88,10,10,0,0,0-1.56-.28,3.45,3.45,0,0,1-1.2-.24,1.79,1.79,0,0,1-1.52-.8,2.09,2.09,0,0,1-.6-1.56,2.29,2.29,0,0,1,.6-1.6,1.92,1.92,0,0,1,1.52-.72,2.26,2.26,0,0,1,1.32.2,14.36,14.36,0,0,0,2.48.48,1.43,1.43,0,0,0,1.24-1c.12-1,.24-1.56.36-2.36a1.81,1.81,0,0,0-.28-1.36,2.35,2.35,0,0,0-1.08-.64c-.6-.16-1.16-.16-1.68-.28s-.72-.36-1.16-.36a1.26,1.26,0,0,1-1-.76,1.88,1.88,0,0,1-.4-1.2,2.63,2.63,0,0,1,.6-1.56,2.18,2.18,0,0,1,1.48-.72c.48,0,1.12.36,1.6.24.28,0,1.12.32,1.64.28A1.23,1.23,0,0,0,135,7.56c.16-.8.2-1.32.32-1.8a4.75,4.75,0,0,0,.24-1.44,6.44,6.44,0,0,0,.28-1.48,1.76,1.76,0,0,1,.84-1.28,3.21,3.21,0,0,1,1.52-.44,3,3,0,0,1,1.76.64,1.58,1.58,0,0,1,.56,1.72,5.14,5.14,0,0,0-.24,1.44c0,.52-.24,1.2-.32,1.84a1.57,1.57,0,0,0,.28,1.64c.24.24.52.36,1.32.36,1.32,0,1.64-.24,2.4-.2a2.26,2.26,0,0,1,1.56.6,2.26,2.26,0,0,1,.6,1.64,1.76,1.76,0,0,1-.48,1.4,1.68,1.68,0,0,1-1.28.72,12.55,12.55,0,0,1-2.28.2,11.68,11.68,0,0,1-1.68,0c-.68,0-1.24.64-1.48,1a2,2,0,0,0-.28,1.08,15.38,15.38,0,0,0-.4,2.12c-.12.84.84,1.28,1.72,1.2s2.08-.12,2.52-.16c1.24-.08,1.8-.52,2.88-.32a2.93,2.93,0,0,1,1.4.72c.52.44.44,1,.52,1.48a4,4,0,0,1-.32,1.2c-.24.4-.48.76-.88.84a5.17,5.17,0,0,1-1.64.4c-.84.12-1.44.12-2.12.28a20.68,20.68,0,0,0-2.16.12,2.62,2.62,0,0,0-2,.36,2,2,0,0,0-.8,1.36c0,.84,0,1.16-.08,1.64a6.74,6.74,0,0,0,.28,2.52c.2.36,0,.91.44,1.16,0,.44.6.67.76,1a3.39,3.39,0,0,0,1.72.88,3.9,3.9,0,0,0,2,.2c.52-.08.8,0,1.48-.08a5.33,5.33,0,0,0,1.48-.25,1.9,1.9,0,0,0,1.36-.51c.44-.36.64-.53,1.12-.88s.76-1.16,1-1.72a10.86,10.86,0,0,0,.24-2c0-.56-.2-1.08-.12-1.48,0-.6-.4-1.12-.36-1.52a2.57,2.57,0,0,1,.72-2,2.14,2.14,0,0,1,1.6-.6,2.29,2.29,0,0,1,1.52.48c.48.4.87.68.92,1.28A6.2,6.2,0,0,1,153.94,24.76Z" fill="#007130"/><path d="M193.9,21.24a6.08,6.08,0,0,1-.24,1.56c0,.68-.4.92-.36,1.56a9.4,9.4,0,0,1-.56,1.48c-.36.36-.44,1.12-.68,1.4a4.45,4.45,0,0,1-.84,1.36,3,3,0,0,1-1,1.23c-.4.61-.88.76-1.16,1.17s-.92.67-1.4,1.08c-.64.51-1.36.75-1.76,1.08-.72.39-1.32.63-1.84.87-.68.16-1.08.4-1.76.56a2.48,2.48,0,0,1-2.16-.63,1.7,1.7,0,0,1-.76-1.68c-.16-.36.24-1,.48-1.4s.8-.52,1.24-.88a7,7,0,0,0,1.56-.68,13.53,13.53,0,0,0,1.4-.76,13,13,0,0,0,1.36-.88,4.67,4.67,0,0,0,1.2-1.12c.52-.24.64-1,1.08-1.52.12-.48.68-1,.76-1.68a11.29,11.29,0,0,0,.44-1.84,7.67,7.67,0,0,1,.12-1.88c-.2-.52,0-1.16-.16-1.84a13.57,13.57,0,0,0-.48-1.8,8.8,8.8,0,0,0-.8-1.64,12.29,12.29,0,0,0-1.08-1.44,6.73,6.73,0,0,0-1.68-1.44,8,8,0,0,0-1.92-1,3.83,3.83,0,0,0-1.6-.44,1.88,1.88,0,0,0-1.8,1.28c-.24,1.2-.16,1.84-.32,2.4,0,.8-.28,1.52-.32,2a10.75,10.75,0,0,0-.4,2,12,12,0,0,1-.52,2c-.32.76-.36,1.52-.6,2-.24.84-.68,1.4-.76,1.92-.24.56-.56,1.08-.84,1.88a4.48,4.48,0,0,1-.76,1.4,2.84,2.84,0,0,1-.84,1.32,4.84,4.84,0,0,1-1,1.24,5.76,5.76,0,0,0-1.2,1,8.69,8.69,0,0,1-2.2,1,7.51,7.51,0,0,1-2.36.36,4.12,4.12,0,0,1-2.68-.55,6,6,0,0,1-1.2-.65c-.56-.19-.6-.55-1.08-.88a4.81,4.81,0,0,1-1.24-1.63,3.14,3.14,0,0,1-.84-1.88,19.21,19.21,0,0,0-.44-2,11.64,11.64,0,0,1-.12-2,7.51,7.51,0,0,0,.08-1.6A6.08,6.08,0,0,0,160.1,19a6.06,6.06,0,0,1,.4-1.52A2.88,2.88,0,0,1,161,16a6.63,6.63,0,0,1,.68-1.44,4.31,4.31,0,0,1,.8-1.32c.36-.36.6-1,1-1.28a4.72,4.72,0,0,1,1-1.16c.6-.6,1.08-.88,1.44-1.28a3,3,0,0,1,1.6-1.12c.4-.12,1.08-.8,1.64-.92a6.33,6.33,0,0,1,1.76-.76,3.32,3.32,0,0,0,1.84-.56c.68-.32,1.28-.16,1.88-.4s1-.08,1.88-.24a7.22,7.22,0,0,1,1.92-.08c.44,0,.92.08,1.6,0a7.93,7.93,0,0,1,1.56.2c.68,0,1,.28,1.56.28a4.78,4.78,0,0,0,1.52.44,6,6,0,0,0,1.48.6,4.93,4.93,0,0,0,1.4.76,15.05,15.05,0,0,0,1.32.88c.52.4.84.76,1.2,1.08s.52.72.92,1a9,9,0,0,0,.8,1.12,8.74,8.74,0,0,0,.64,1.2c.08.52.48.84.56,1.24a1.94,1.94,0,0,1,.44,1.32c0,.48.32.8.28,1.32a10.9,10.9,0,0,1,.24,2.72A4.36,4.36,0,0,0,193.9,21.24Zm-19.36-9.76a1.14,1.14,0,0,0-1.32-.88,3.81,3.81,0,0,0-1.28.36c-.4.2-.8.48-1.16.64s-.76.72-1.24.8c-.52.44-.8.52-1.08.92-.36.2-.48.64-1,1s-.52.92-.84,1.12c-.08.4-.4.64-.72,1.24a4,4,0,0,0-.56,1.28,4.05,4.05,0,0,0-.4,1.36,7.37,7.37,0,0,0-.36,2.8,6.85,6.85,0,0,1,.12,1.52c.12.36,0,1.12.4,1.6a5.44,5.44,0,0,0,.84,1.28,2,2,0,0,0,1.4.52,4,4,0,0,0,1.48-.4c.32-.2.6-.68,1.08-1,.4-.48.6-1,.92-1.36a7.64,7.64,0,0,0,.68-1.4,7.82,7.82,0,0,1,.68-1.52c.16-.6.44-1.08.56-1.6a7.51,7.51,0,0,0,.52-1.6,3.84,3.84,0,0,1,.4-1.64,7.11,7.11,0,0,1,.32-1.64,13.37,13.37,0,0,0,.28-1.68A8.47,8.47,0,0,0,174.54,11.48Z" fill="#007130"/><path d="M232.19,21.24A6.08,6.08,0,0,1,232,22.8c0,.68-.4.92-.36,1.56a9.4,9.4,0,0,1-.56,1.48c-.36.36-.44,1.12-.68,1.4a4.66,4.66,0,0,1-.83,1.36,3.18,3.18,0,0,1-1,1.23c-.4.61-.88.76-1.16,1.17s-.92.67-1.4,1.08c-.64.51-1.36.75-1.76,1.08-.72.39-1.32.63-1.84.87-.68.16-1.08.4-1.76.56a2.48,2.48,0,0,1-2.16-.63,1.7,1.7,0,0,1-.76-1.68c-.16-.36.24-1,.48-1.4s.8-.52,1.24-.88a7,7,0,0,0,1.56-.68,13.53,13.53,0,0,0,1.4-.76,13,13,0,0,0,1.36-.88,4.67,4.67,0,0,0,1.2-1.12c.52-.24.64-1,1.08-1.52.12-.48.68-1,.76-1.68a11.29,11.29,0,0,0,.44-1.84,7.67,7.67,0,0,1,.12-1.88c-.2-.52,0-1.16-.16-1.84a13.57,13.57,0,0,0-.48-1.8,8.8,8.8,0,0,0-.8-1.64,12.29,12.29,0,0,0-1.08-1.44,6.73,6.73,0,0,0-1.68-1.44,8,8,0,0,0-1.92-1,3.83,3.83,0,0,0-1.6-.44,1.88,1.88,0,0,0-1.8,1.28c-.24,1.2-.16,1.84-.32,2.4,0,.8-.28,1.52-.32,2a10.75,10.75,0,0,0-.4,2,12,12,0,0,1-.52,2c-.32.76-.36,1.52-.6,2-.24.84-.68,1.4-.76,1.92-.24.56-.56,1.08-.84,1.88a4.48,4.48,0,0,1-.76,1.4,2.84,2.84,0,0,1-.84,1.32,4.84,4.84,0,0,1-1,1.24,5.76,5.76,0,0,0-1.2,1,8.69,8.69,0,0,1-2.2,1,7.51,7.51,0,0,1-2.36.36,4.12,4.12,0,0,1-2.68-.55,6,6,0,0,1-1.2-.65c-.56-.19-.6-.55-1.08-.88a4.81,4.81,0,0,1-1.24-1.63,3.14,3.14,0,0,1-.84-1.88,19.21,19.21,0,0,0-.44-2,11.64,11.64,0,0,1-.12-2,7.51,7.51,0,0,0,.08-1.6A6.08,6.08,0,0,0,198.4,19a6.06,6.06,0,0,1,.4-1.52,2.88,2.88,0,0,1,.52-1.48,6.63,6.63,0,0,1,.68-1.44,4.31,4.31,0,0,1,.8-1.32c.36-.36.6-1,1-1.28a4.72,4.72,0,0,1,1-1.16c.6-.6,1.08-.88,1.44-1.28a3,3,0,0,1,1.6-1.12c.4-.12,1.08-.8,1.64-.92a6.33,6.33,0,0,1,1.76-.76,3.32,3.32,0,0,0,1.84-.56c.68-.32,1.28-.16,1.88-.4s1-.08,1.88-.24a7.22,7.22,0,0,1,1.92-.08c.44,0,.92.08,1.6,0a7.93,7.93,0,0,1,1.56.2c.68,0,1,.28,1.56.28A4.78,4.78,0,0,0,223,6.4a6,6,0,0,0,1.48.6,4.93,4.93,0,0,0,1.4.76,15.05,15.05,0,0,0,1.32.88,15.55,15.55,0,0,1,1.19,1.08c.36.32.52.72.92,1a10.23,10.23,0,0,0,.8,1.12,8.74,8.74,0,0,0,.64,1.2c.08.52.48.84.56,1.24a1.94,1.94,0,0,1,.44,1.32c0,.48.32.8.28,1.32a10.9,10.9,0,0,1,.24,2.72A4.36,4.36,0,0,0,232.19,21.24Zm-19.35-9.76a1.14,1.14,0,0,0-1.32-.88,3.81,3.81,0,0,0-1.28.36c-.4.2-.8.48-1.16.64s-.76.72-1.24.8c-.52.44-.8.52-1.08.92-.36.2-.48.64-1,1s-.52.92-.84,1.12c-.08.4-.4.64-.72,1.24a4,4,0,0,0-.56,1.28,4.05,4.05,0,0,0-.4,1.36,7.37,7.37,0,0,0-.36,2.8,6.85,6.85,0,0,1,.12,1.52c.12.36,0,1.12.4,1.6a5.44,5.44,0,0,0,.84,1.28,2,2,0,0,0,1.4.52,4,4,0,0,0,1.48-.4c.32-.2.6-.68,1.08-1,.4-.48.6-1,.92-1.36a7.64,7.64,0,0,0,.68-1.4,7.82,7.82,0,0,1,.68-1.52c.16-.6.44-1.08.56-1.6a7.51,7.51,0,0,0,.52-1.6,3.84,3.84,0,0,1,.4-1.64,7.11,7.11,0,0,1,.32-1.64,13.37,13.37,0,0,0,.28-1.68A8.47,8.47,0,0,0,212.84,11.48Z" fill="#007130"/><path d="M247.9,16.4a9.27,9.27,0,0,0-1.24,1.76,14,14,0,0,0,0,2.24,7.52,7.52,0,0,0,0,2.32,14.4,14.4,0,0,1,0,2.28c-.08.76.08,1.72,0,2.32a7.25,7.25,0,0,1,0,2.28,14.46,14.46,0,0,0,0,2.28,10.65,10.65,0,0,0,0,2.27,9.38,9.38,0,0,0,0,2.36c.08.8-.44,1.08-.68,1.36-.6.36-.84.6-1.52.48a2.16,2.16,0,0,1-1.52-.48c-.36-.4-.72-.64-.68-1.36a4.75,4.75,0,0,1,0-1.68,3.78,3.78,0,0,1,0-1.64c0-.64,0-1.11,0-1.68s.12-1,0-1.63a2.82,2.82,0,0,1,0-1.64,3.7,3.7,0,0,1,0-1.64,3.58,3.58,0,0,1,0-1.84c.08-.2,0-.32-.24-.32a1.8,1.8,0,0,0-.92.36c-.4.2-.56.64-.92.92-.12.32-.48.36-.84.8a3.9,3.9,0,0,1-2,.92c-.72.12-1-.16-1.44-.6s-.68-.72-.64-1.44c-.16-.64,0-1,.44-1.2a8.11,8.11,0,0,0,.88-.92,8.83,8.83,0,0,1,1.52-1.48c.48-.32.84-1.08,1.48-1.56s.92-1.12,1.4-1.6a10,10,0,0,0,1.24-1.56,5.14,5.14,0,0,1,0-2.08c.16-.52.2-1,.68-1.36s1-.28,1.48-.48c.64-.2.8-.6,1.16-1.12s-.36-1-.76-1a5.9,5.9,0,0,1-2.12-.32c-.52-.24-1.2.08-1.88-.12a7.61,7.61,0,0,1-2,0A.94.94,0,0,1,237.5,10a1.18,1.18,0,0,1-.48-1.4c.12-.56,0-.92.44-1.4a2.29,2.29,0,0,1,1.32-.64,8.11,8.11,0,0,1,2.44,0c.68.2,1.6-.16,2.4,0a25.38,25.38,0,0,1,3.08,0A3.08,3.08,0,0,0,247.94,6a10.46,10.46,0,0,1,.88-.92c0-.72.36-1,.6-1.6a5.68,5.68,0,0,1,.36-1.12c.4-.6.56-1.36,1-1.72a2.86,2.86,0,0,1,1.44-.52c.4.08,1.36.16,1.64.6a1.4,1.4,0,0,1,.76,1.52c.12.48-.24.68-.2,1s-.48,1.12-.52,1.6c-.2.92.08,1.72.88,1.56,1.08,0,1.6.08,2.44,0a12,12,0,0,0,2.08,0c.52-.16,1.48.16,2.12,0a9,9,0,0,0,2.08,0,7.18,7.18,0,0,1,2.08,0c.64.08,1.52,0,2.08,0a18.32,18.32,0,0,0,2.16,0c.72-.08,1,.4,1.32.64.16.48.36.92.48,1.4a2,2,0,0,1-.48,1.4c-.36.28-1,.84-1.32.64a11.64,11.64,0,0,1-2.36,0c-.68.16-1.76-.12-2.32,0-.6-.16-1.68.2-2.32,0-.92-.12-1.56.16-2.32,0a5.66,5.66,0,0,1-2.32,0,6.46,6.46,0,0,1-2.32,0,14.79,14.79,0,0,1-3,0,1.42,1.42,0,0,0-1.28.48c-.32.2-.72.8-1,.84-.44.8-.52,1.2-.84,1.48a5.6,5.6,0,0,0-.64,1A6.35,6.35,0,0,1,247.9,16.4ZM272.22,33a1.88,1.88,0,0,1,.44,1.35,6,6,0,0,1-.44,1.36,1,1,0,0,1-1.24.6c-.84,0-2,0-2.68,0s-1.8.12-2.6,0a14.53,14.53,0,0,1-2.64,0,11.65,11.65,0,0,1-2.64,0,7.08,7.08,0,0,1-2.6,0c-1,0-1.84.08-2.64,0a14.08,14.08,0,0,1-2.6,0c-.76-.12-1.68,0-2.68,0a1.28,1.28,0,0,1-1.24-.6c-.44-.32-.36-.88-.44-1.36a1.64,1.64,0,0,1,.44-1.35,1.38,1.38,0,0,1,1.24-.61,11.55,11.55,0,0,1,2,0,18.2,18.2,0,0,1,2,0,16,16,0,0,0,2.4,0c.48.16,1.2-.91,1.4-1.56a12.26,12.26,0,0,1,0-2.71c0-.8,0-1.64,0-2.68,0-.32-.52-.64-.72-1.08a4,4,0,0,1-1.4-.52c-1,.08-1.48,0-2,0a10.56,10.56,0,0,1-1.6,0c-.44.2-.92-.24-1.24-.6a1.5,1.5,0,0,1-.44-1.32c-.16-.28.24-.88.44-1.32s.76-.44,1.24-.6c.68-.16,1,.08,1.6,0s1.2.12,2,0c.4,0,1-.44,1.4-.68a2.15,2.15,0,0,0,.72-1.4,5.6,5.6,0,0,1,0-2c.08-.56,0-1.16,0-1.56.08-.68.08-1.12.72-1.36.48-.08,1-.56,1.52-.44a1.89,1.89,0,0,1,1.52.44c.48.24.56.68.72,1.36-.16.6.12,1.08,0,1.56a8.1,8.1,0,0,1,0,2,1.66,1.66,0,0,0,.4,1.4c.32.52.32.76.76.68a16.59,16.59,0,0,0,2,0,5.89,5.89,0,0,1,1.68,0,3.55,3.55,0,0,0,1.72,0c.68,0,1.08.2,1.24.6s.52.88.44,1.32,0,1-.44,1.32a1.57,1.57,0,0,1-1.24.6c-.56,0-1.28,0-1.72,0a4.74,4.74,0,0,1-1.68,0,4.06,4.06,0,0,1-1.84,0c-.56-.16-1.32,1.12-1.32,1.6a11.76,11.76,0,0,0,0,2.68c.08.84,0,1.32,0,2.71-.2.61.8,1.56,1.56,1.56,1.24-.11,2,0,2.72,0s1.32-.15,2.2,0c.8,0,1.36,0,2.28,0C271.62,32.31,271.82,32.63,272.22,33Z" fill="#007130"/><path d="M282.84,22.08a7,7,0,0,0-.24,1.64,5,5,0,0,0-.28,1.64c-.16.4,0,1-.36,1.64a12.33,12.33,0,0,1-.4,1.64,8.29,8.29,0,0,0-.44,1.48,5.72,5.72,0,0,1-.64,2,5.6,5.6,0,0,1-.8,1.88,4.51,4.51,0,0,0-.92,1.31,1.5,1.5,0,0,1-1.56.6,1.45,1.45,0,0,1-1.51-.56,2.48,2.48,0,0,1-.65-1.43,11.76,11.76,0,0,1,.28-1.17c.44-.75.52-1.59.92-2.12a6,6,0,0,1,.72-2.15,8.27,8.27,0,0,0,.6-2.16,6.93,6.93,0,0,1,.44-2.24,4.42,4.42,0,0,0,.36-2.24,10.39,10.39,0,0,1,.24-2.24,7.42,7.42,0,0,1,.12-2.28c0-.84.08-1.52,0-2.28a20.83,20.83,0,0,0,0-3.16,16.67,16.67,0,0,0,0-3.16,3.38,3.38,0,0,1,.24-2,3.34,3.34,0,0,1,1-1.68,2.88,2.88,0,0,1,2-1,4.56,4.56,0,0,1,2.2-.2,10,10,0,0,1,2.2,0c.56.16,1.48-.16,2.2,0a8.3,8.3,0,0,0,2.68,0,2.38,2.38,0,0,0,1.4-.64,14.39,14.39,0,0,0,.16-1.44,2.24,2.24,0,0,1,.76-1.48A8.92,8.92,0,0,1,295.12,0a14.8,14.8,0,0,1,1.44.36c.56.36.64.72.72,1.48a1.89,1.89,0,0,0,1.2,2.08c1-.12,1.32.08,2,0s.92.16,1.68,0a5.82,5.82,0,0,0,1.68,0,3.4,3.4,0,0,0,1.68,0,3,3,0,0,1,1.68,0,4.51,4.51,0,0,0,1.64,0,3.75,3.75,0,0,0,1.76,0c.32.12,1,.28,1.16.56.2.56.28,1,.4,1.28s-.32.92-.4,1.28-.88.68-1.16.56a11.86,11.86,0,0,1-1.64,0c-.64.16-1-.08-1.56,0-.92-.16-2.12.12-3.16,0s-2.16.12-3.16,0a2.7,2.7,0,0,1-1.6,0,10.15,10.15,0,0,0-1.56,0c-1.24.08-2.12,0-3.16,0s-2.16,0-3.16,0a20.83,20.83,0,0,0-3.16,0,27,27,0,0,0-3.12,0c-.6,0-1.44-.08-1.84.48s-.48,1-.28,1.28c0,.88,0,2,0,3a14.64,14.64,0,0,0,0,3,11.35,11.35,0,0,1,0,1.68,3.38,3.38,0,0,0-.08,1.64A6.89,6.89,0,0,0,283,20.4,3.37,3.37,0,0,0,282.84,22.08Zm29.56,9.43a5.09,5.09,0,0,1-.44,1.24,1.37,1.37,0,0,1-1.12.56c-1.16-.08-2,.2-3,0a8.94,8.94,0,0,1-2.92,0,3.23,3.23,0,0,0-1.52,0,5.79,5.79,0,0,0-2,0,1.34,1.34,0,0,0-1.4.4c-.28.17-.32.44-.72.8,0,1.12-.12,1.76,0,2.16s-.2.92-.68,1.24c-.2.48-.92.4-1.36.4a1.44,1.44,0,0,1-1.4-.4c-.6-.2-.52-.76-.68-1.24s0-1,0-2.16a2.49,2.49,0,0,0-2-1.2c-.64,0-1.2-.08-1.88,0s-1,0-1.44,0c-.8.16-2-.12-2.72,0-.76-.16-2,.2-2.8,0a1.21,1.21,0,0,1-1.12-.56c-.36-.12-.52-.87-.4-1.24-.08-.27,0-.59.4-1.23.16-.36.48-.36,1.12-.56s1.8.16,2.8,0a22.44,22.44,0,0,0,2.72,0c.48.15,1.08-.08,1.44,0a9.54,9.54,0,0,1,1.88,0,3.49,3.49,0,0,0,1.76-.12c.24-.16.08-.68.36-1-.24-.72-1-.52-1.68-.36-1.2,0-2,0-2.6,0-.72-.12-1.6.16-2.08-.16s-1.36-.32-1.84-1c-.52-.36-.4-.72-.64-1.32a5.91,5.91,0,0,1-.16-1.52,8.1,8.1,0,0,1,0-2.2,20.89,20.89,0,0,0,0-2.24,5.76,5.76,0,0,1,.2-1.64c.2-.32.2-1,.8-1.4a5.42,5.42,0,0,1,1.76-.8c.8-.08,1.28-.12,2-.16s1.84,0,3.2,0c.48.12,1.12.08,1-.56-.24-.84-1.2-.76-2.28-.88a11.62,11.62,0,0,1-2.36,0,9,9,0,0,1-2.32,0,5.43,5.43,0,0,1-2.4,0c-.4.12-.76-.36-1.12-.56a1.2,1.2,0,0,1-.4-1.2,1.23,1.23,0,0,1,.4-1.2c.32-.2.64-.64,1.12-.56.68,0,1.48,0,2.4,0a22.41,22.41,0,0,1,2.32,0c.92-.08,1.52.12,2.88,0s1.76-.6,1.68-.92c.08-.76.2-1,.76-1.16a1.56,1.56,0,0,1,1.36-.4c.36.16,1,.2,1.32.44a1.23,1.23,0,0,1,.72,1.12c-.2.48.68.92,1.84.92s2.32,0,3.08,0a10.55,10.55,0,0,1,2.52,0c.76.08,1.84,0,2.6,0,1.08-.08,1.64.72,1.52,1.76a1.27,1.27,0,0,1-.4,1.24c-.12.36-.52.48-1.12.52a19.08,19.08,0,0,1-2.6,0,17.66,17.66,0,0,1-2.52,0c-1-.16-1.6.16-2.8,0a7.44,7.44,0,0,0-1.68.2c-.36.28-.64.52-.52,1-.08.16.12.28.44.32a3.88,3.88,0,0,0,1.36,0,8.64,8.64,0,0,0,2.88,0,18.29,18.29,0,0,1,2.08.2c.52.2,1.48.4,1.8,1a2.2,2.2,0,0,1,.68,1.32c.2.48,0,1.08.16,1.52a13.9,13.9,0,0,1,0,2.24,20.79,20.79,0,0,0,0,2.24c-.16.56,0,1.08-.2,1.6a5.4,5.4,0,0,1-.8,1.4,4.4,4.4,0,0,1-1.8.8,3.9,3.9,0,0,1-1.92.16c-1-.08-1.56.16-2.88,0-1.48-.08-1.8.72-1.44,1.32.08.31.88.08,1.88.2a6.31,6.31,0,0,0,2,0c.68.11,1.08-.16,1.52,0a10.57,10.57,0,0,0,2.92,0,18.51,18.51,0,0,0,3,0c.32-.08,1,.07,1.12.56S312.44,31,312.4,31.51Zm-22-12.15c-.16.12-.2.28-.08.36.16.56.6.8,1.4.88.52,0,1.32,0,2.08,0s1.44.44,1.36-.92c0-.6-.92-.88-1.48-.72-1-.16-1.64.16-2.28,0A3,3,0,0,0,290.4,19.36Zm2.88,4a5.06,5.06,0,0,0-1.12,0c-.84,0-1.8.36-1.76.76-.12.68.48,1,1,.8a27.75,27.75,0,0,1,3.08,0c1,.08.72-.64.52-1C295,23.44,294.2,23.6,293.28,23.4Zm5.84-3.32c.12.28,1,.44,2,.36a5.1,5.1,0,0,0,2.48,0c1.08-.28.8-1.28-.16-1.52-1-.08-1.64,0-2.76,0C299.08,18.84,299,19.72,299.12,20.08Zm2.16,5c1,.2,1.32-.24,2-.08a.71.71,0,0,0,1-.8c.08-.24-.2-.12-.72-.48a11.9,11.9,0,0,0-2.12-.28c-.4.16-1.36-.16-1.76.2a1,1,0,0,0-.2,1.12C299.84,25.28,300.44,24.88,301.28,25Z" fill="#007130"/><path d="M347,17.08A2.06,2.06,0,0,1,346,19c-.48.24-1.48.4-1.92.68a18.35,18.35,0,0,0-2.36.64,15.28,15.28,0,0,1-2.2.84c-.28.16-.88.24-1.24.44a15.38,15.38,0,0,0-1.6.56c-.48.32-.84.44-1.16,1a2.07,2.07,0,0,0-.28,1.4c.12,1,.08,1.48.12,2a10.14,10.14,0,0,1,0,1.56,2.11,2.11,0,0,1-.72,1.56,3.09,3.09,0,0,1-1.64.56,2,2,0,0,1-1.52-.49c-.39-.15-.67-.63-.67-1.39s-.08-1.44-.13-2.32a.81.81,0,0,0-1.15-.8,15.66,15.66,0,0,0-2.08,1.36c-.48.56-1,1.08-1.28,1.44a2.47,2.47,0,0,0-.48,1.79c0,.61.12,1.13.68,1.37.24.47.88.47,1.64.72s1.32,0,2,.24c.63,0,1.12,0,1.63,0s1.25,0,1.68,0A5.75,5.75,0,0,0,335,32a12.5,12.5,0,0,1,1.72-.16c.52,0,1-.17,1.68-.25a5.82,5.82,0,0,1,1.72-.19,2.29,2.29,0,0,1,2,2.31,1.55,1.55,0,0,1-.36,1.24c-.44.48-.68.72-1,.8-.56.4-1.12.2-1.88.48-.84,0-1.68.16-2.52.24a11.62,11.62,0,0,1-2.55.12,10.86,10.86,0,0,0-2,0c-.45,0-1.29-.12-1.68,0-.45-.2-1.32.12-1.8-.2-.76-.2-1.24,0-1.8-.32a2.84,2.84,0,0,1-1.76-.6,3.07,3.07,0,0,1-1.52-.84,2.23,2.23,0,0,1-1.2-1.16,3.16,3.16,0,0,1-.84-1.47,5.26,5.26,0,0,1-.28-1.92,14.17,14.17,0,0,1,.24-1.8c0-.56.44-.92.64-1.6.4-.52.68-1.16,1-1.44A5.34,5.34,0,0,1,323.93,24c.4-.24.8-.68,1.44-1.16.36-.28.88-.48,1.48-1a14.09,14.09,0,0,0,2.28-1.24c.43-.24.51-1-.08-1.56a1.9,1.9,0,0,0-1.88-.48,6,6,0,0,0-1.76.32,12.21,12.21,0,0,1-1.88.76c-.44.16-1,.68-1.68,1a5,5,0,0,0-1.48,1,7.7,7.7,0,0,0-1.36,1,3.28,3.28,0,0,1-1.52.52,3.34,3.34,0,0,1-1.56-.68c-.24-.36-.76-.8-.68-1.52a2.12,2.12,0,0,1,.92-1.84,6.2,6.2,0,0,0,1-.88,2.45,2.45,0,0,0,.8-.76c.16-.2.56-.48.8-.8a7.44,7.44,0,0,0,1.48-1.68,11.35,11.35,0,0,0,1.44-1.8c.24-.36.56-.8.52-1.12,0-.48-.36-.52-1.08-.48-.48,0-.88,0-1.36,0a3.29,3.29,0,0,1-1.08.08,1.67,1.67,0,0,1-1.56-.68,1.92,1.92,0,0,1-.68-1.56,2.22,2.22,0,0,1,.6-1.48,2.41,2.41,0,0,1,1.48-.64c.84,0,1.72,0,2.56-.08a6,6,0,0,0,1.64-.08,7.15,7.15,0,0,0,1.56-.08,2.58,2.58,0,0,0,1.2-1,8.66,8.66,0,0,0,.64-1.6c.28-.8.48-1.24.76-2.12a1.64,1.64,0,0,1,.8-1.08A1.86,1.86,0,0,1,329,1c.59-.08,1.08.32,1.55.52a2.34,2.34,0,0,1,.76,1.4,3.36,3.36,0,0,1-.35,1.48c-.12.32-.33.68-.52,1.2s.32,1,1,.88c1-.16,1.84-.16,2.41-.28a14.33,14.33,0,0,1,2.47-.4,1.48,1.48,0,0,1,1.36.6,2.43,2.43,0,0,1,.56,1.4,1.66,1.66,0,0,1-.4,1.24,2.06,2.06,0,0,1-.92.68,10.11,10.11,0,0,1-2.52.52c-.59.08-1.43.2-2.12.32a13.78,13.78,0,0,1-2.15.28,5.55,5.55,0,0,0-2.08.44,2.13,2.13,0,0,0-.88,1c-.2.32-.56.8-.72,1.08a5,5,0,0,1-.48.68c-.24.36-.36.56-.16.8s.32.24,1.12,0a9.28,9.28,0,0,1,1.52-.2,7.19,7.19,0,0,1,2.15.24,3.3,3.3,0,0,1,1.92,1,10,10,0,0,1,1.16,1.52,1.56,1.56,0,0,0,1.8.52,5.41,5.41,0,0,0,1.8-.76c.32,0,.6-.36,1.16-.44a15.72,15.72,0,0,1,2.24-.8c.68-.16,1.64-.56,2.28-.76.44,0,1.36-.48,1.92-.44A2.19,2.19,0,0,1,347,17.08Z" fill="#007130"/><path d="M351.27,11.84a1.19,1.19,0,0,1-1.24-.68,3.71,3.71,0,0,1-.4-1.4c0-.4,0-1.16.4-1.4a1.4,1.4,0,0,1,1.24-.68,23.17,23.17,0,0,1,2.88,0c1.08-.16,1.84.12,2.8,0s1.84.12,2.8,0c.76.08,1.92,0,2.88,0a3,3,0,0,1,1.24.68c-.16.36.2,1.08.2,1.4s-.28,1-.2,1.4c-.44.48-.6.8-1.24.68-1.08.08-1.88-.12-2.88,0a13.09,13.09,0,0,1-2.8,0,10.92,10.92,0,0,0-2.8,0A7.65,7.65,0,0,1,351.27,11.84Zm35,9.68c0,.4,0,1.28,0,1.64s.12,1,0,1.64a5.6,5.6,0,0,0,0,1.64,3.74,3.74,0,0,0,0,1.64,5.63,5.63,0,0,0,0,1.64c-.2.64.12,1,0,1.6s0,1.15,0,1.64-.12,1.15-.24,1.95a5.13,5.13,0,0,1-1,1.72,2.18,2.18,0,0,1-1.6.8,13,13,0,0,0-1.8.2,2.4,2.4,0,0,1-1.4,0,2.32,2.32,0,0,1-1.52-.24c-.48-.16-1-.28-1.12-.72a2.12,2.12,0,0,1-.48-1.4,2.94,2.94,0,0,1,.52-1.48,3.39,3.39,0,0,1,1.4-.67,4.9,4.9,0,0,0,2.2.11c.68.2.72-.31.72-.8a26.11,26.11,0,0,1,0-3.07,11.93,11.93,0,0,1,0-3.16c0-1.12,0-1.92,0-3.12a27,27,0,0,0,0-3.12c-.16-1.16.12-2.08,0-3.16.16-1.12-.08-2,0-3.12s.08-2.16,0-3.12c0-1.2.08-2.2,0-3.12.08-1-.6-1.32-1.68-1.24a6.75,6.75,0,0,0-2.24.28c-.56.56-.36,1.56-.36,2.16s1.08.64,2.12.56,1.48.76,1.44,1.68-.2,1.36-.52,1.48c-.36.28-.64.16-1.16.2-.6.24-1.32,0-1.68.4a3.49,3.49,0,0,0-.16,1.92c.32.48,1.16,0,2.4.28.8.2,1.08.8,1.16,1.72-.12,1-.16,1.76-1.16,1.72a19.1,19.1,0,0,1-2.16,0,9.39,9.39,0,0,0-2.12,0,12,12,0,0,0-2.08,0c-.68-.12-1.6.08-2.16,0-.76,0-1-1-1.16-1.72.12-1,.4-1.68,1.44-1.72a2.35,2.35,0,0,0,1.84-.2c.48-.28.36-1.4.2-1.92s-1-.36-1.68-.48A1.45,1.45,0,0,1,371,12c-.12-.48-.48-.64-.4-1.16s.08-1,.4-1.16a3.42,3.42,0,0,1,1.2-.52c.28-.08,1.36.12,1.48-.64a5.09,5.09,0,0,0,.2-1.84c-.08-.44-1.2-.64-2.56-.52-1.28,0-1.64.48-1.68,1.24a11.58,11.58,0,0,1,0,2,4.39,4.39,0,0,0,0,2,5,5,0,0,1,0,2,8.36,8.36,0,0,0,0,2c-.12.68,0,1.68,0,2.44-.08,1,.08,1.84,0,2.6a24,24,0,0,0-.12,2.64,24.92,24.92,0,0,0-.2,2.68,24.73,24.73,0,0,1-.32,2.64,12.4,12.4,0,0,0-.52,2.6,13.59,13.59,0,0,0-.68,2.47,10.79,10.79,0,0,0-.92,2.32c0,.64-.56.88-.92,1.16a1.7,1.7,0,0,1-1.4.48A4,4,0,0,1,363,37c-.48-.44-1.4-.76-1.8-.36a6.94,6.94,0,0,1-2.08.32c-.48-.16-1.36.2-1.88,0-.8-.12-1.28.16-1.92,0-.36-.08-1.12.12-1.68-.16a1.75,1.75,0,0,1-1.48-.88,2.58,2.58,0,0,1-.6-1.24c-.16-.56-.36-.71-.16-1.4s0-1.76,0-2.56-.2-1.83,0-2.55c.08-.32-.12-1,.2-1.56-.08-.44.48-.84.8-1.32a4.55,4.55,0,0,1,1.4-.68,10.32,10.32,0,0,1,1.56-.16,4.23,4.23,0,0,0,1.88,0c.48-.16,1.2.2,1.88,0,.36.12,1.2.12,1.68.2a4.1,4.1,0,0,1,1.48.84c.48.44.44.88.64,1.24a2.64,2.64,0,0,1,.16,1.44,7,7,0,0,0,0,1.59A19,19,0,0,0,363,32.2c0,.23.16.31.24.27s.4-.31.48-.8.4-1.19.48-1.67c0-.68.44-2.24.52-2.88a10.11,10.11,0,0,1,.32-2.36,22,22,0,0,0,.16-2.4,6.12,6.12,0,0,1,.12-2.36,8.15,8.15,0,0,1,0-2.4,6.06,6.06,0,0,1,0-2.4c-.12-.48.16-1.4,0-2.08.12-.56-.12-1.28,0-2.12s-.12-1.6,0-2.12a5.39,5.39,0,0,1,0-2.12,4.13,4.13,0,0,1,.24-1.84,2.12,2.12,0,0,1,1-1.6,4.37,4.37,0,0,1,1.72-.88c.52,0,1.48-.16,2-.2,1.08-.08,1.64.16,2.76,0a15.81,15.81,0,0,0,2.76,0,9.38,9.38,0,0,0,2.8,0,8.17,8.17,0,0,1,2.8,0c.72.2,1.48.08,2.08.24s1.16.52,1.8,1.08a3.09,3.09,0,0,1,.8,1.52,9.92,9.92,0,0,1,.2,1.68,3.78,3.78,0,0,0,0,1.64,6.93,6.93,0,0,1,0,1.6,4.4,4.4,0,0,0,0,1.64,3.78,3.78,0,0,1,0,1.64,5.59,5.59,0,0,1,0,1.64c0,.76,0,1.08,0,1.64s0,1,0,1.64c-.12.4.12,1,0,1.68A3.7,3.7,0,0,1,386.23,21.52ZM351.71,4.12a1.48,1.48,0,0,1,.4-1.32c.24-.16.8-.44,1.16-.64a3.63,3.63,0,0,0,2,0c.52,0,1.2,0,1.88,0a4.93,4.93,0,0,1,1.88,0,4.07,4.07,0,0,0,2,0,1.42,1.42,0,0,1,1.2.64,2.25,2.25,0,0,1,.4,1.32c-.2.48-.2.88-.4,1.32a1.38,1.38,0,0,1-1.2.64,7.61,7.61,0,0,1-2,0,9.84,9.84,0,0,0-1.88,0,3.73,3.73,0,0,1-1.88,0,6.28,6.28,0,0,1-2,0c-.44-.16-.88-.08-1.16-.64A1.1,1.1,0,0,1,351.71,4.12Zm10.44,12.6a1.28,1.28,0,0,1-1.2.64,10.1,10.1,0,0,0-2,0,14.65,14.65,0,0,0-1.88,0,14.74,14.74,0,0,0-1.88,0,4.65,4.65,0,0,1-2,0c-.52.12-.76,0-1.16-.64a1.44,1.44,0,0,1-.4-1.32,1.77,1.77,0,0,1,.4-1.32c.2-.32.76-.48,1.16-.64a6.56,6.56,0,0,0,2,0,4.88,4.88,0,0,1,1.88,0,5.93,5.93,0,0,0,1.88,0,5.44,5.44,0,0,1,2,0c.36-.16.76.2,1.2.64.16.56.4.68.4,1.32A1.45,1.45,0,0,1,362.15,16.72Zm0,2.88c.4.28.36,1,.4,1.32-.08.56,0,.92-.4,1.32s-.8.72-1.2.64-1.36.2-2,0-1.36.08-1.88,0c-.72-.12-1.24.12-1.88,0a16.19,16.19,0,0,1-2,0c-.64.12-.84-.24-1.16-.64-.12-.44-.28-1-.4-1.32-.08-.56.16-.76.4-1.32,0-.52.72-.48,1.16-.64a5.32,5.32,0,0,1,2,0,3.32,3.32,0,0,0,1.88,0c.64-.08,1,.2,1.88,0s1.24.2,2,0C361.51,18.88,361.71,19.2,362.15,19.6Zm-3.24,11.11c-.16-.43,0-1.31-.32-2.07a4.51,4.51,0,0,0-2.72,0,8.23,8.23,0,0,0-.32,2.07c-.08.57.08,1.29,0,1.68s.28.73.64.77a5.83,5.83,0,0,0,2.4-.37A3.08,3.08,0,0,0,358.91,30.71Zm18.24.53c-.88.12-2,0-3,0a9.74,9.74,0,0,1-1.4-.16,2.77,2.77,0,0,1-1.2-.72,6.11,6.11,0,0,1-.68-2.16,10.81,10.81,0,0,1,0-2.28,20.91,20.91,0,0,1,0-2.24,2.94,2.94,0,0,1,.84-2.36c.2-.2.76-.64,1.16-.56.56,0,.8-.12,1.32-.16,1,0,1.92,0,3,0,.4.08.88,0,1.4.16s1.08.32,1.24.72a9.69,9.69,0,0,1,.68,2.2,20.74,20.74,0,0,0,0,2.24,20.68,20.68,0,0,1,0,2.24,2.76,2.76,0,0,1-.84,2.32A2.84,2.84,0,0,1,377.15,31.24Zm-.56-7.16c-.2-.32-1.24-.24-1.92,0-.4.44-.28,1.24-.2,1.84a4.17,4.17,0,0,0,.12,1.92,1.86,1.86,0,0,0,2.12,0c.2-.28.08-1,.12-1.92C376.87,25.2,376.87,24.32,376.59,24.08Z" fill="#007130"/><path d="M424.83,29.48c-.36.68-1.24.76-1.76.8a4.27,4.27,0,0,1-2.24-.76,18,18,0,0,1-1.8-1.16c-.64-.44-1.12-.72-1.64-1a5.34,5.34,0,0,1-1.6-1.08c-.48-.56-1-.6-1.64-1.12A4.42,4.42,0,0,1,412.59,24,11.28,11.28,0,0,1,411,22.8a8,8,0,0,0-1.56-1.2c-.36-.36-.92-.72-1.48-1.24s-1-.8-1.52-1.24c-.28-.44-.68-.48-1.12-1a8.72,8.72,0,0,1-1.12-1,1.22,1.22,0,0,0-1-.44,1.53,1.53,0,0,0-1.12.44,7.22,7.22,0,0,0-1,.8c-.28.24-.6.24-.84.68a5.74,5.74,0,0,1-1.32,1c-.4.56-.88.6-1.32,1.08a3.23,3.23,0,0,0-.84.72,4.05,4.05,0,0,1-1,.8,9.53,9.53,0,0,1-1,.8,3.82,3.82,0,0,1-.88.6,2.93,2.93,0,0,1-1.24.36,4.48,4.48,0,0,1-1.64-.72,2.53,2.53,0,0,1-.72-1.68,1.8,1.8,0,0,1,.76-1.68,10.42,10.42,0,0,1,1.44-1.2,8.05,8.05,0,0,1,1.72-1.36A8.71,8.71,0,0,1,396,16c.32-.08.6-.4,1.08-.84a9.36,9.36,0,0,1,1.08-.8c.36-.08.56-.48,1.16-.88a2.85,2.85,0,0,1,1.24-.88A2.36,2.36,0,0,1,402,12c.4,0,.8-.32,1.48-.24.6-.12,1,.32,1.76.36s1.08.76,1.56,1c.48.4,1,.88,1.68,1.48A5.64,5.64,0,0,0,410,15.92a8.87,8.87,0,0,0,1.6,1.24,9.36,9.36,0,0,1,1.64,1.16,4.69,4.69,0,0,0,1.64,1.2,10.66,10.66,0,0,0,1.72,1.16,18.43,18.43,0,0,1,1.72,1.16c.6.36,1.08.76,1.76,1.12A7.16,7.16,0,0,0,421.91,24c.48.16.52.52,1.08.6.2.32.88.44,1.08.64s.92.68,1.08,1a2.54,2.54,0,0,1-.32,3.24Zm-12.56-18a1.66,1.66,0,0,1-.48-1,1.34,1.34,0,0,1,.56-1.12,3.28,3.28,0,0,1,1.2-.48,2.69,2.69,0,0,1,1.64.76,4.56,4.56,0,0,1,1.24,1.36c.44.28.68.84,1.2,1.32a2.57,2.57,0,0,1,.68,1.72,2.13,2.13,0,0,1-.56,1.12,2.18,2.18,0,0,1-1.4.52c-.6-.08-.88-.44-1.28-1s-1-1-1.36-1.6C413.35,12.6,412.87,12.08,412.27,11.44Zm3.44-4.36a3.32,3.32,0,0,1,.6-1,2.07,2.07,0,0,1,2.88.32c.64.48.84,1,1.24,1.28a10.66,10.66,0,0,0,1.16,1.4,3.43,3.43,0,0,1,.8,1.68,1.32,1.32,0,0,1-.52,1.12,3.44,3.44,0,0,1-1.2.48,1.42,1.42,0,0,1-1.48-.76c-.2-.16-.44-.72-.84-1-.2-.48-.6-.64-.68-.88-.64-.52-.8-1.16-1.48-1.52A1.23,1.23,0,0,1,415.71,7.08Z" fill="#007130"/><path d="M458.68,9.08a1.85,1.85,0,0,1-1.37.8,15,15,0,0,0-2.51.72,9.77,9.77,0,0,0-1.92.88,14,14,0,0,1-1.72,1,11.62,11.62,0,0,0-1.72,1.4A10,10,0,0,0,448,15.4c-.28.52-.76,1-1.16,1.72-.2.64-.64.88-.64,1.36-.4.52-.24,1.08-.48,1.44,0,.64-.24.88-.24,1.48-.08.36-.28,1.2-.08,1.52a3.36,3.36,0,0,0,.2,1.72,7.93,7.93,0,0,0,.52,1.56,7.07,7.07,0,0,0,.92,1.4c.4.32.76.92,1.28,1.12a11,11,0,0,0,1.8,1,7.66,7.66,0,0,0,2,.56,7,7,0,0,0,1.92.35c.44.25,1.12.49,1.6.81a2,2,0,0,1,.64,1.68,1.93,1.93,0,0,1-.8,1.79,2.52,2.52,0,0,1-1.88.64,9.7,9.7,0,0,1-2.76-.36,1.85,1.85,0,0,1-1.32-.36c-.36-.32-.84-.16-1.32-.52-.52-.2-1-.28-1.24-.6a5.29,5.29,0,0,1-1.16-.75,9.62,9.62,0,0,0-1.08-.84c-.24-.24-.6-.53-1-1-.68-.45-.8-1.08-1.36-1.76a3.94,3.94,0,0,1-1-2,3.68,3.68,0,0,1-.6-2.16c0-.64-.28-1.4-.2-2.24a10.79,10.79,0,0,1,.16-2.12,9,9,0,0,0,.48-2,5.73,5.73,0,0,1,.76-2A12.76,12.76,0,0,1,443,15c.24-.28.4-.92.88-1.28a7.38,7.38,0,0,1,1-1.16,6.15,6.15,0,0,0,.48-.52.73.73,0,0,0,.24-.92c-.12-.28-.56-.28-.88-.24a3,3,0,0,0-1.28.24c-.64,0-1.32.24-1.88.28s-1.44,0-1.88.28c-.6.08-1.44.2-1.88.24-.76.24-1.36.12-1.92.32a18.62,18.62,0,0,0-1.88.24l-1.88.28a23.47,23.47,0,0,0-2.48.28c-.76.16-1.08-.24-1.52-.76a2.6,2.6,0,0,1-.6-1.6,2.26,2.26,0,0,1,.76-1.76c.2,0,.4-.28,1-.48A4,4,0,0,0,431,8.16a13.63,13.63,0,0,1,2.64-.32c.92.08,1.72-.32,2.6-.32a3.44,3.44,0,0,0,1.76-.2,3.37,3.37,0,0,0,1.72-.16,3.75,3.75,0,0,1,1.76-.2,3.93,3.93,0,0,1,1.72-.2,5.42,5.42,0,0,0,1.72-.2,3.39,3.39,0,0,0,1.76-.2,17.13,17.13,0,0,0,1.72-.16,7,7,0,0,1,1.76-.2c.64.16,1-.08,1.56-.16a5.44,5.44,0,0,0,1.68-.16c.44,0,1-.12,1.6-.16a9.1,9.1,0,0,1,1.72-.12,2.1,2.1,0,0,1,1.76.56,2,2,0,0,1,.71,1.64A1.69,1.69,0,0,1,458.68,9.08Z" fill="#007130"/><path d="M30.32,77.76c0,.72.28,1.52.24,2a20.22,20.22,0,0,0-.2,2.08,7.43,7.43,0,0,1-.68,2c-.32.61-.8,1.21-1.12,1.76-.64.61-.92,1.12-1.6,1.45a3.36,3.36,0,0,1-1.44.83c-.52.17-1.16.56-1.72.76s-1.4.2-1.84.48a4.83,4.83,0,0,1-1.68,0c-.48-.12-1.2-.44-1.32-.76a2.41,2.41,0,0,1-.52-1.43A1.45,1.45,0,0,1,19,85.47a1.91,1.91,0,0,1,1.36-.76,6.41,6.41,0,0,0,1.36-.27,4.71,4.71,0,0,0,1.76-.69,3.38,3.38,0,0,0,1.44-1.19c.16-.36.68-.88.68-1.32a1.91,1.91,0,0,0,.2-1.44A2.43,2.43,0,0,0,25.2,78c-.44-.52-1-.8-1.36-1.24A7.53,7.53,0,0,0,22,76a5.28,5.28,0,0,0-2-.2c-.68.2-1.16-.16-1.76.08a4.52,4.52,0,0,0-1.68.2,14.8,14.8,0,0,1-2.2.4A1.57,1.57,0,0,0,13.28,78c0,1,.08,1.84,0,2.28-.12.72.08,1.24,0,1.76a3.89,3.89,0,0,1,0,1.8A7,7,0,0,1,13,86.31a1.89,1.89,0,0,1-.48,1.16,2.31,2.31,0,0,1-.76,1,2.65,2.65,0,0,1-2,1,9.93,9.93,0,0,1-2.16.24A5.24,5.24,0,0,1,5,89.19c-.36,0-1.08-.44-1.32-.52-.24-.4-.92-.28-1.16-.75-.52-.41-.72-.45-1-.92-.2-.25-.72-.53-.76-1.12a3.16,3.16,0,0,1-.52-1.21A2,2,0,0,1,0,83.32c0-.8.24-1.24.2-1.76A14.1,14.1,0,0,1,.88,80c.4-.52.64-1.12.92-1.4A5.81,5.81,0,0,1,3,77.4a13.89,13.89,0,0,0,1.36-1c.32-.52.88-.44,1.48-1a5.41,5.41,0,0,0,1.84-1,3.79,3.79,0,0,0,1-1.68,19.08,19.08,0,0,1,0-2.16c-.08-.64,0-.92,0-2,0-.52-.76-1.2-1.16-1.08a11.42,11.42,0,0,1-1.76.12,7.05,7.05,0,0,1-2.56.08A1.54,1.54,0,0,1,1.8,67c-.52-.32-.48-.88-.56-1.48A1.75,1.75,0,0,1,1.8,64a1.83,1.83,0,0,1,1.44-.68A6.14,6.14,0,0,0,5,63.28a5,5,0,0,0,2-.12,2.93,2.93,0,0,0,1.32-.8,3.28,3.28,0,0,0,.48-1.6,7.81,7.81,0,0,0,0-2.16,10.71,10.71,0,0,1,0-1.68c.16-.4.24-1.12.68-1.48A3.32,3.32,0,0,1,11,54.92a3.61,3.61,0,0,1,1.56.52c.48.44.76.64.68,1.48,0,.4,0,1.16,0,1.48a7.3,7.3,0,0,0,0,1.88A1.92,1.92,0,0,0,14,61.6a2.15,2.15,0,0,0,1.4.36c1.08-.24,1.48-.32,2.12-.44a2.61,2.61,0,0,1,1.72.64,5.21,5.21,0,0,1,.68,1.52c0,1-.44,1.24-1,1.68-.6.2-1.52.72-2,.64-.56.32-.72.28-1.88.4a2.57,2.57,0,0,0-1.28.84,1.94,1.94,0,0,0-.56,1.64c0,.32,0,.8,0,1.32a2.5,2.5,0,0,0,.36,1.44,1,1,0,0,0,1,.48,5.76,5.76,0,0,1,1.84-.24,5.36,5.36,0,0,0,1.76-.16,6,6,0,0,0,1.72,0,4.22,4.22,0,0,0,1.76.08,3.43,3.43,0,0,1,1.76.24,4.14,4.14,0,0,1,1.68.48c.52.36,1,.36,1.64.76s1,.92,1.56,1.2c.28.4.88,1.16,1.2,1.56A3.66,3.66,0,0,1,30.32,77.76ZM8.72,80.6c0-1.08-.44-1.48-1.08-1.28A10.83,10.83,0,0,0,6.12,80.4a2.74,2.74,0,0,0-1,1.24,2.08,2.08,0,0,0-.36,1.56c-.12.84.56,1.24.92,1.51a1.89,1.89,0,0,0,1.88.49c1-.08,1.08-.57,1.16-1.68A23.62,23.62,0,0,1,8.72,80.6ZM33.08,66.52a4.71,4.71,0,0,1-.72,1.68,2,2,0,0,1-1.68.72A3.14,3.14,0,0,1,29,68.24c-.24-.4-.76-.48-1-.88a2.69,2.69,0,0,1-1-.84,6.16,6.16,0,0,1-1.12-.76A3.57,3.57,0,0,1,24.64,65,2.3,2.3,0,0,1,23.32,64c-.48-.32-.28-.6-.4-1.12a2.87,2.87,0,0,1,.72-1.72,2.43,2.43,0,0,1,1.64-.76,12.88,12.88,0,0,1,2,.68c.76.32,1.24,1,1.72,1.08.64.24,1.28,1,1.84,1.28.28.24.44.6.92.76a3.79,3.79,0,0,1,.8.8A1.46,1.46,0,0,1,33.08,66.52Z" fill="#007130"/><path d="M53.35,84.24a1.5,1.5,0,0,1-.64,1.51,1.69,1.69,0,0,1-1.52.64,2.66,2.66,0,0,1-1.56-.64c-.28-.39-.64-.43-.88-.83-.44-.17-.56-.52-.84-.72a2,2,0,0,0-1.48.68,2.49,2.49,0,0,0-.8,1.08c-.32.51-.32.67-.68.83a15.61,15.61,0,0,0-1.32,1.52c-.64.56-.88,1-1.44,1.36-.2.36-.6.44-1,.8-.32.08-.92.44-1.24.36-.72,0-.92-.28-1.48-.64a9.28,9.28,0,0,1-.64-1.44A2,2,0,0,1,38.67,87a8.57,8.57,0,0,0,.92-.84c.12-.45.44-.32.76-.76s.88-1.08,1.36-1.52a19.65,19.65,0,0,0,1.36-1.76c.4-.88.28-1.2-.4-1.52a3.3,3.3,0,0,0-1.48-.32c-.56,0-.56.52-1.2.64a2.61,2.61,0,0,1-1.48-.48,1.9,1.9,0,0,1-.72-1.36,4.84,4.84,0,0,1,.4-1.48,1.92,1.92,0,0,1,.44-1.36c0-.32.32-.92.4-1.24a4,4,0,0,1,.4-1.36c.08-.6.44-.92.4-1.32s.32-.72.36-1.32a3.29,3.29,0,0,0,.36-1.36,6,6,0,0,1,.36-1.56c.2-.32-.2-.68-.6-.84s-1.12,0-1.72-.12c-1,.08-1.36-.2-1.6-.64a4.11,4.11,0,0,1-.44-1.4c.16-.44.08-.88.44-1.36.12-.32.8-.6,1.24-.6s1.32.12,2.48,0c.68,0,1.32-.8,1.52-1.16a11.28,11.28,0,0,0,.4-2.12c.12-.52,0-1,.24-1.32a2.53,2.53,0,0,1,.2-1.52,2.31,2.31,0,0,1,.48-1.44,3.5,3.5,0,0,1,1.76-.76,1.84,1.84,0,0,1,1.64.6,1.79,1.79,0,0,1,.64,1.6,15.18,15.18,0,0,1-.24,1.6,4.35,4.35,0,0,0-.28,1.56c-.28.6,0,1-.36,1.84-.2.68.36,1.08,1.16,1.12a9.42,9.42,0,0,1,2.28.28,17.57,17.57,0,0,1,1.6,1,4.09,4.09,0,0,1,.68,1.4,6.69,6.69,0,0,0,.08,1.56,2.91,2.91,0,0,1-.12,1.6,5.75,5.75,0,0,0-.24,1.6,5.18,5.18,0,0,0-.28,1.6c-.16.44-.2,1-.36,1.56s-.16,1.12-.44,1.56a5.18,5.18,0,0,0-.52,1.52,8.58,8.58,0,0,0-.72,1.92c-.16.56-.12,1.24.84,2a12.61,12.61,0,0,1,1.12.92,3,3,0,0,1,.76.68A1.83,1.83,0,0,1,53.35,84.24ZM47,67.16c-.28-.16-1.12-.08-1.28.28a1.54,1.54,0,0,0-.52,1.28,2.89,2.89,0,0,1-.44,1.68c-.16.48-.16.64-.32,1.2s-.16.84-.32,1.16a14.6,14.6,0,0,0-.64,2.36c-.08.8.12,1.28,1,1.48a1.3,1.3,0,0,0,1.64-.44A8.27,8.27,0,0,1,46.91,74a7.07,7.07,0,0,1,.32-1.24,6.76,6.76,0,0,0,.48-2.44c.08-.84.16-1.52.28-2.44C48.11,67.2,47.67,67.08,47,67.16Zm26,8.16a1.13,1.13,0,0,1-1.28.64A3.26,3.26,0,0,1,70,76a5.18,5.18,0,0,1-1.76,0,17.8,17.8,0,0,1-2.08,0c-.35-.08-1.27.36-1.19,1.92.12.88-.16,1.44,0,1.84a4.33,4.33,0,0,0,0,1.44,14.44,14.44,0,0,0,0,2.63c.08,1-.16,2,0,2.68,0,.65-.12,1.24-.24,2.08a5.89,5.89,0,0,1-1.08,1.84,2.33,2.33,0,0,1-1.64.84,15,15,0,0,0-1.88.2,4,4,0,0,1-1.52,0c-.48-.16-1,0-1.72-.24s-1.16-.44-1.32-.8c-.48-.16-.56-1-.56-1.48a2.9,2.9,0,0,1,.56-1.56,5.39,5.39,0,0,1,1.52-.72,4.67,4.67,0,0,0,2.4.2c.72.21.92-.32.92-.87s0-1.72,0-2.52-.2-1.8,0-2.52c.16-1-.12-1.48,0-3.08a3.52,3.52,0,0,0-.68-1.4A2.24,2.24,0,0,0,58.19,76a18.65,18.65,0,0,0-2.12,0c-.44-.16-1.12.12-1.64,0a1.1,1.1,0,0,1-1.24-.64c-.48-.36-.32-.8-.44-1.4a3.17,3.17,0,0,1,.44-1.4,1.65,1.65,0,0,1,1.24-.64,3.27,3.27,0,0,1,1.64,0,4.61,4.61,0,0,0,2.12,0,2.37,2.37,0,0,0,1.72-.6c.6-.52.4-1,.48-1.64-.12-.8.08-1.68,0-2.12s.08-1,0-1.64.32-1,.72-1.36A6.14,6.14,0,0,1,62.63,64c.2,0,.36-.48.84-.56.36-.24.52-.48,1.4-1.2.36-.36.4-1.32-.68-1.24-1.32-.16-2.84.08-3.6-.08a11,11,0,0,1-2.32,0,7.8,7.8,0,0,1-2.36,0,1.24,1.24,0,0,1-1.24-.64,3.62,3.62,0,0,1-.44-1.36,2.12,2.12,0,0,1,.44-1.4,1.3,1.3,0,0,1,1.24-.68,11.06,11.06,0,0,1,2.8,0c.84.08,2,0,2.76,0s1.68.08,2.76,0c.91-.08,1.64,0,2.71,0a4.1,4.1,0,0,1,1.4.2,2.43,2.43,0,0,1,1.28.64,2.25,2.25,0,0,1,.88,1,3.29,3.29,0,0,1,.32,1.4c.12.64-.36,1.4-.44,1.84-.44.68-.48,1.12-1,1.6a7.24,7.24,0,0,0-1,1.2c-.36.6-.56,1-1.07,1.16-.33.2-.73.84-1.17,1a6.71,6.71,0,0,0-1.15,1c0,.76-.08,1.52,0,2.56,0,.88,0,1.48,1.19,1.52.88-.08,1.56.2,2.12,0,.36-.16,1.2.16,1.72,0a8.63,8.63,0,0,0,1.76,0c.64.2,1.08.24,1.28.64.32.24.28.88.44,1.4A2.62,2.62,0,0,1,73,75.32Z" fill="#007130"/><path d="M106.09,68.36a1.58,1.58,0,0,1-.8,1.48,4,4,0,0,1-1.72.72,11.19,11.19,0,0,0-1.48.4,3.91,3.91,0,0,1-1.52.4,7.69,7.69,0,0,1-1.76.4c-.68.24-.6,1.12-.36,1.56a7,7,0,0,0,1,1.56,8,8,0,0,0,1.08,1.36c.44.56.68.72,1.08,1.32a5.56,5.56,0,0,1,1.12,2,2.63,2.63,0,0,1-.56,2,2.78,2.78,0,0,1-1.6.64,3.43,3.43,0,0,1-1.08-.2c-.28.12-.72-.2-1.08-.36a6.74,6.74,0,0,0-1.84-.52c-.48-.12-1.16-.2-1.92-.36a10.5,10.5,0,0,0-1.92-.24c-.68,0-1.44-.08-1.92,0s-1.12,0-1.84,0-1.36.36-2,.4a3.37,3.37,0,0,0-1.68.88c-.6.4-.68.88-.64,1.68a3.46,3.46,0,0,0,.84,1.76,5.87,5.87,0,0,0,2,1c.68.39,1.68.11,2.48.31.72,0,1.52,0,2.08.08a5.28,5.28,0,0,0,2-.08,6,6,0,0,0,2-.08,3.36,3.36,0,0,1,1.72.53,2.3,2.3,0,0,1,.72,1.63,1.52,1.52,0,0,1-.4,1.2,2.1,2.1,0,0,1-1,.76,7.39,7.39,0,0,1-2.48.36c-1-.08-2.12.24-2.52,0a6.25,6.25,0,0,1-1.92,0,3.63,3.63,0,0,1-1.92-.16,12.24,12.24,0,0,1-1.88-.32,6.34,6.34,0,0,1-1.84-.56,4.11,4.11,0,0,1-2-1A4.16,4.16,0,0,1,81,87.43a5.22,5.22,0,0,1-.92-1.84,6.43,6.43,0,0,1-.28-2,4.59,4.59,0,0,1,.28-2,5.77,5.77,0,0,1,.8-1.56c.2-.64.68-.68,1.2-1.24.56-.2.92-.72,1.52-.92s1-.6,1.72-.64c.8-.36,1.12-.12,1.88-.44.44-.2,1.2,0,1.84-.2a3.75,3.75,0,0,0,1.76,0,19.31,19.31,0,0,1,2.84.2c.6.12,1.2.16,1.44-.16s-.08-1-.44-1.56a8.69,8.69,0,0,0-1-1.44,2.74,2.74,0,0,0-1.56-.6,8.45,8.45,0,0,0-1.8.32c-.6.12-.88.08-1.52.2a15.2,15.2,0,0,1-1.52.16,5.87,5.87,0,0,1-1.56.16,6.87,6.87,0,0,0-1.56.16c-.44-.08-1,.32-1.52.16a3.82,3.82,0,0,1-1.64,0,1.49,1.49,0,0,1-1.52-.6,2.23,2.23,0,0,1-.6-1.52c-.16-.44.36-1,.52-1.44A5.44,5.44,0,0,1,80.73,70c.44-.08.92.08,1.32-.08a11.76,11.76,0,0,0,2.36-.2c.6-.2,1.64,0,2.36-.24a12.09,12.09,0,0,0,2.8-.36c.32,0,.8,0,1.08-.56a2.17,2.17,0,0,0-.24-1.68,1.91,1.91,0,0,0-2.2-1.36,19.62,19.62,0,0,1-2.72.36,5.39,5.39,0,0,1-2.08.24,3.64,3.64,0,0,1-2,.12c-.52.2-1-.24-1.48-.6-.36-.56-.76-.92-.6-1.52a1.86,1.86,0,0,1,.48-1.4,2.73,2.73,0,0,1,1.28-.64,11.61,11.61,0,0,0,2.16-.16,6.15,6.15,0,0,0,1.88-.2c.64-.08,1-.08,2.08-.28a.85.85,0,0,0,.76-1,4.72,4.72,0,0,0-.36-1.48,12.84,12.84,0,0,1-.44-2.16c.08-.68.16-1.12.76-1.36A1.88,1.88,0,0,1,89.45,55a1.94,1.94,0,0,1,2,1.2,11.22,11.22,0,0,1,.36,1.24,9.47,9.47,0,0,0,.56,1.88,2.7,2.7,0,0,0,1.4.84A4.27,4.27,0,0,0,96,59.8a4.6,4.6,0,0,1,1.64-.32A5.46,5.46,0,0,1,99.33,59c.48-.2.8-.36,1-.2a1.79,1.79,0,0,1,1.48.64c.24.56.68,1,.6,1.48-.16.88-.28,1.28-1,1.64a14.29,14.29,0,0,1-2,.68,3.9,3.9,0,0,1-1.68.44,13.11,13.11,0,0,1-2.28.52c-.6.16-1.08.68-.64,1.76.24.4.68,1.44,1.08,1.52.28.4.6.32,1.08.28,1-.32,1.8-.2,2.44-.52a10.34,10.34,0,0,1,1.92-.48c.52-.12,1.24-.36,2-.56a2.27,2.27,0,0,1,2.08.56A1.77,1.77,0,0,1,106.09,68.36Z" fill="#007130"/><path d="M120.9,71.76c-.08.68-.64.92-.68,1.6a10.82,10.82,0,0,1-.68,1.56c-.4.36-.48,1.16-.76,1.52A8.83,8.83,0,0,1,118,78a4.84,4.84,0,0,1-.83,1.48A5.78,5.78,0,0,1,116,81.16a2.57,2.57,0,0,1-1.8.84,2.33,2.33,0,0,1-2.36-2.2,2.92,2.92,0,0,1,.88-2.2,8.66,8.66,0,0,1,.72-1.2,3.33,3.33,0,0,1,.72-1.24c.2-.6.6-.88.64-1.28s.52-.68.64-1.24a4.41,4.41,0,0,0,.6-1.28,5.63,5.63,0,0,1,.47-1,5.21,5.21,0,0,0,.52-1.28A1,1,0,0,0,116,67.76a5.36,5.36,0,0,1-1.32.08,3.14,3.14,0,0,1-2.44-.68,2.26,2.26,0,0,1-.72-1.6,2.78,2.78,0,0,1,1-1.88,6.51,6.51,0,0,1,2.8-.4h.84a5.64,5.64,0,0,0,1.91-.2c.32-.08,1.52-.92,1.6-1.32a14,14,0,0,0,.4-1.4c0-.76.52-1.4.56-2.2a3.47,3.47,0,0,1,.84-2.32,2.15,2.15,0,0,1,1.68-.68,2.24,2.24,0,0,1,1.52.48c.6.4.52.76.76,1.32a5,5,0,0,1-.28,2,7.74,7.74,0,0,1-.44,1.72c-.24.68.08,1.56.64,1.52a6.14,6.14,0,0,0,1.2-.2,13.06,13.06,0,0,1,1.68-.24,2.48,2.48,0,0,1,1.44.72,2.78,2.78,0,0,1,.6,1.52,1.63,1.63,0,0,1-1.08,1.8,4.53,4.53,0,0,1-2.16.6c-.6.12-.88.12-1.4.2-.32.16-.84.12-1.68.36a4.15,4.15,0,0,0-1.76,1.76c-.36.88-.44,1.16-.56,1.52A7.94,7.94,0,0,1,120.9,71.76Zm22.52,13.52a2.25,2.25,0,0,1-.64,1.6c-.44.31-1.16.91-1.56.71a2.06,2.06,0,0,1-1.44-.47,2.23,2.23,0,0,0-1.28-.84c-.52-.2-.68-.53-1.56-.92a1.44,1.44,0,0,0-1.88,1.11c-.32.88-.64,1-.72,1.53a7.48,7.48,0,0,1-.88,1,7.78,7.78,0,0,0-1.2.84,12,12,0,0,1-1.32.48,3.08,3.08,0,0,1-1.44.28c-.48-.08-1,.12-1.44.08a8.86,8.86,0,0,1-2.6-.24c-.36-.24-.8,0-1.28-.36-.52-.12-1-.2-1.2-.52-.6-.44-1-.6-1.16-.92-.44-.16-.6-.88-.84-1.12a5.37,5.37,0,0,1-.68-2.76,3.77,3.77,0,0,1,.6-2.47,5.24,5.24,0,0,0,.76-1.08c.4-.44.72-.56,1-.84.4-.2.72-.52,1.28-.76a5.54,5.54,0,0,0,1.44-.48,2.74,2.74,0,0,0,1.44-.24c.44-.08.92,0,1.84-.08a1.35,1.35,0,0,0,1.24-1.44c.08-1-.16-1.84-.12-2.56a23.8,23.8,0,0,0,.12-2.8c.2-1.2.32-2,.84-2.32a7.63,7.63,0,0,1,1.52-.48c.32.08,1.24.08,1.52.44a1.27,1.27,0,0,1,.8,1.28c.12.68-.2,1.24-.16,1.6,0,1-.12,1.52-.12,2.2a8.69,8.69,0,0,1,.08,1.44,9.28,9.28,0,0,0,.2,2,2.46,2.46,0,0,0,.36,1.32,2,2,0,0,0,1.08.8,14.78,14.78,0,0,0,2.28.88c.6.2,1,.52,1.68.84s1.08.72,1.64.92.92.76,1.28,1C143,84.36,143.3,84.71,143.42,85.28Zm-13.12-2a3.88,3.88,0,0,0-2-.4,5.63,5.63,0,0,0-2.28.32,1.6,1.6,0,0,0-1.28,1.55c-.12.92.4,1.08,1.12,1.41a11.35,11.35,0,0,0,2.16.27,2.92,2.92,0,0,0,2.2-.76c.32-.16.4-.31.44-.88A1.84,1.84,0,0,0,130.3,83.28ZM144,69c-.6.36-1,.88-1.56.72-.6,0-.72-.2-1.24-.36a2.69,2.69,0,0,1-1.28-.72,6.38,6.38,0,0,1-1.28-.64c-.48-.28-.76-.2-1.24-.6-.64-.36-.8-.24-1.32-.56a2.94,2.94,0,0,1-1.64-1,1.94,1.94,0,0,1,.2-2.84,1.68,1.68,0,0,1,1.64-.68,12.85,12.85,0,0,1,1.84.4,7.41,7.41,0,0,0,1.68.68,6.19,6.19,0,0,1,2,.92,2.52,2.52,0,0,1,1,.6,6.79,6.79,0,0,0,.92.68,1.64,1.64,0,0,1,.84,1.76A2.06,2.06,0,0,1,144,69Z" fill="#007130"/><path d="M183.93,61.12c-.2.6-.12,1-.4,1.36s-.72.8-1.2.64c-1.16.2-2.24-.12-3.12,0-1.12-.16-2.12.2-3,0a19.19,19.19,0,0,1-3,0,19.28,19.28,0,0,1-3,0,12.78,12.78,0,0,0-3,0,19.28,19.28,0,0,0-3,0,8.61,8.61,0,0,1-3,0c-1.2,0-1.84.12-3,0a2,2,0,0,0-1.92.52,1.91,1.91,0,0,0-.28,1.24,18.22,18.22,0,0,1,0,2.56,17.66,17.66,0,0,0,0,2.52c-.08.76.08,1.28,0,1.68a11.35,11.35,0,0,1,0,1.68c-.24.44.08,1-.12,1.68a3.54,3.54,0,0,0-.16,1.68,7.18,7.18,0,0,1-.24,1.64c-.24.76-.16,1.32-.32,1.68a6.74,6.74,0,0,1-.36,1.64c-.24.52-.24,1.08-.44,1.6a3.23,3.23,0,0,1-.48,1.51,18.07,18.07,0,0,1-.68,1.92c-.32.64-.6,1.32-.84,1.8-.48.4-.6,1-1,1.28a1.69,1.69,0,0,1-1.64.6,1.78,1.78,0,0,1-1.56-.64,2.69,2.69,0,0,1-.68-1.52,4.24,4.24,0,0,1,.36-1.4c.36-.63.36-1.2.8-1.63a5.42,5.42,0,0,1,.72-1.72c.28-.72.28-1.12.6-1.88a16.79,16.79,0,0,1,.48-1.92,8.84,8.84,0,0,0,.36-2,4.68,4.68,0,0,0,.28-2,15.55,15.55,0,0,1,.16-2c.08-.84,0-1.16.08-2a4.92,4.92,0,0,1,0-1.88,24.3,24.3,0,0,0,0-3,10.76,10.76,0,0,1,0-3,4,4,0,0,1,.24-2,2.37,2.37,0,0,1,1.08-1.68,4.8,4.8,0,0,1,2.12-1c.6,0,1.76-.16,2.32-.2a5.83,5.83,0,0,0,2,0,17.3,17.3,0,0,0,2,0,7.53,7.53,0,0,0,2.52,0c.52.2,1.4-.52,1.44-1.16a6.22,6.22,0,0,1,0-2.16,1.63,1.63,0,0,1,.72-1.28c.4-.4.8-.2,1.52-.4a10.16,10.16,0,0,1,1.48.4c.24.32.88.84.76,1.28,0,.76,0,1.36,0,2.16-.2.68.4,1.12,1.12,1.16,1,.08,1.24,0,2,0,.52,0,1,0,1.6,0,.36.12,1-.08,1.64,0s1,0,1.6,0a3.6,3.6,0,0,0,1.6,0,3.19,3.19,0,0,0,1.64,0,4.53,4.53,0,0,0,1.68,0,1.69,1.69,0,0,1,1.2.64A2.82,2.82,0,0,1,183.93,61.12ZM182.53,71a2.5,2.5,0,0,1-.44,1.36c-.16.52-.76.6-1.24.64a12.2,12.2,0,0,1-2.68,0,9.72,9.72,0,0,0-2.64,0,17.7,17.7,0,0,1-2.92,0,3.42,3.42,0,0,0-1.84.12,2.23,2.23,0,0,0-.32,1.6c.12.16-.16.36,0,1.08-.16.56.12.8.52,1.12a1.34,1.34,0,0,0,1,.6,8.4,8.4,0,0,0,2.68,0c.88.08,1.8.16,2.52.2a1.41,1.41,0,0,1,1.2.44c.24.28.88.36,1,.76s.68.92.72,1.4a5.69,5.69,0,0,0,.2,1.56,17.64,17.64,0,0,0,0,2.52c0,.76,0,1.8,0,2.48a3.77,3.77,0,0,1-.56,2.35c-.2.36-.48.48-.68.92a1.85,1.85,0,0,1-1.08.64,6,6,0,0,1-1.68.4,12.68,12.68,0,0,0-1.68.08,15.44,15.44,0,0,1-2.72,0,15.44,15.44,0,0,1-2.72,0c-.88.08-1.72-.12-2.76,0a20,20,0,0,0-2.68,0,5.69,5.69,0,0,1-2.52-.2,1.73,1.73,0,0,1-1.24-.44c-.36-.24-.6-.44-1-.76-.24-.44-.52-.92-.76-1.4,0-.32-.2-1-.16-1.59,0-1,0-1.68,0-2.48a17.1,17.1,0,0,1,0-2.48,2.36,2.36,0,0,1,.24-1.76c0-.44.6-1.12.88-1.48a2.16,2.16,0,0,1,1-.64c.36,0,.8-.36,1.16-.36.92-.2,1.6,0,2.84-.16a1.64,1.64,0,0,0,1.4-.72c.12-.28.12-.8.28-1.4a17.26,17.26,0,0,1,0-2c-.08-.4.08-1,0-1.52A7.17,7.17,0,0,1,166,69c0-1,0-2,0-3a1.22,1.22,0,0,1,.72-1.32,3.05,3.05,0,0,1,1.52-.24,5.35,5.35,0,0,1,1.48.24,2.14,2.14,0,0,1,.72,1.68c.16.84,0,1.72.44,2.16a1.56,1.56,0,0,0,1.48.44c.8-.16,1.12.12,1.84,0,.56.08,1-.08,1.36,0,1,.2,1.84-.16,2.64,0a19.67,19.67,0,0,0,2.68,0c.36,0,1.12.2,1.24.64A1.19,1.19,0,0,1,182.53,71ZM169.25,81.48a7.61,7.61,0,0,1-2.52,0c-.76,0-1.52-.08-2.52,0-.6.2-1,0-1.44.36a9,9,0,0,0-.12,2.44c-.08.6.08,1.35,0,1.8-.08,1.27.52,1.11,1.56,1.23,1-.12,1.6.08,2.52,0s1.56,0,2.52,0c.72.08,1.72-.08,2.52,0s1.8-.08,2.52,0a1.29,1.29,0,0,0,1.4-.31,21.87,21.87,0,0,0,.16-2.6,3.41,3.41,0,0,1,0-1.68c.08-1.12-.44-1.08-1.6-1.24-.92.08-1.72-.08-2.48,0S169.89,81.32,169.25,81.48Z" fill="#007130"/><path d="M202.09,65.08a1.49,1.49,0,0,1-1.44.64,6.31,6.31,0,0,1-1.16-.4c-.24-.32-.56-.36-.92-.88a8.73,8.73,0,0,1-.84-.88c-.48-.2-.64-.68-.88-.88s-.68-.52-1.12-1-1-.28-1.48.44a7.44,7.44,0,0,1-1.52,1.68c-.6.44-.68,1-1.32,1.32-.32.52-1.08.8-1.4,1.24-.6.44-1.2,1.12-2.08,1a2,2,0,0,1-2-2,3.27,3.27,0,0,1,.4-1.2c.24-.36.56-.48.88-.88a5.82,5.82,0,0,1,.92-.76,4.46,4.46,0,0,0,.88-.84,8.32,8.32,0,0,1,.84-.84,3.5,3.5,0,0,0,.8-.88c.2-.36.48-.44.76-.92.28-.16.56-.68.76-.92s.36-.6.76-1c.16-.32.52-.6.64-1a2.3,2.3,0,0,1,.84-.92,1.41,1.41,0,0,1,1.16-.36c.64-.12,1,.28,1.48.52s.6.8.64,1.64c-.16.72-.08,1.08.56,1.44.76.6.84,1,1.36,1.12a1.73,1.73,0,0,0,1.08,1,2.41,2.41,0,0,0,1,1c.64.8,1.08,1.2,1.08,2.08C202.85,64.32,202.37,64.68,202.09,65.08Zm.48,10.12c0,1.08-.36,1.72-1.32,1.84-.64.2-1.08,0-1.68,0s-1.16-.12-1.64,0-1.08-.08-1.6,0-1-.16-1.64,0c-.68-.08-1.12.16-1.6,0-.68.2-1.08-.08-1.64,0-.72.2-.92-.08-1.6,0a5.54,5.54,0,0,1-1.68,0c-.64.16-.88-.08-1.12-.6a1.33,1.33,0,0,1-.4-1.24c.16-.32,0-1,.4-1.24.36-.48.56-.68,1.12-.6a21.45,21.45,0,0,1,3,0,1.6,1.6,0,0,0,1.44-.4,2.23,2.23,0,0,0,.2-1.52c-.24-.6-1.08-.12-2-.36-.76.08-1.08-.08-1.32-.56a3.55,3.55,0,0,1-.44-1.24c-.08-.64.12-.68.48-1.16a2.16,2.16,0,0,1,1.32-.64,2.87,2.87,0,0,0,1.76-.28,1.69,1.69,0,0,0,.24-1.32c.12-.64.16-1.12.68-1.52.56-.08,1-.56,1.4-.48a2.56,2.56,0,0,1,1.4.48,1.94,1.94,0,0,1,.64,1.52,2.37,2.37,0,0,0,.48,1.44,3.87,3.87,0,0,0,1.52.16c.6.2,1.24.16,1.4.56a1.11,1.11,0,0,1,.44,1.24,1.49,1.49,0,0,1-.44,1.24A1.7,1.7,0,0,1,199,71c-.4.2-1.24-.12-1.68.2s-.32,1-.28,1.72c.28.56.88.2,1.52.36,1.28-.12,1.84.12,2.72,0A1.8,1.8,0,0,1,202.57,75.2Zm-1,12.55c.12.56-.24.92-.2,1.56-.32.48-.56,1.2-.84,1.36a2,2,0,0,1-1.4.72c-.48.2-.92,0-1.56.16a6.52,6.52,0,0,1-2.64,0,18.8,18.8,0,0,1-2.6,0,2.89,2.89,0,0,1-1.72-.2,3.13,3.13,0,0,1-1.48-.88,2,2,0,0,1-.64-1.28,3.13,3.13,0,0,1-.16-1.44c0-.87,0-1.32,0-2.24a6.18,6.18,0,0,1,0-2.27,7,7,0,0,0,.16-1.6c.24-.44.4-1.12.84-1.36a2.11,2.11,0,0,1,1.32-.68,2.78,2.78,0,0,1,1.48-.16,16.27,16.27,0,0,0,2.8,0c1-.16,1.72.16,2.8,0,.68.2,1.16-.12,1.6.2a6.46,6.46,0,0,1,1.44.84c.32.2.44.72.64,1.28a12.06,12.06,0,0,1,.16,1.44,14.76,14.76,0,0,0,0,2.31A20.92,20.92,0,0,1,201.57,87.75ZM197.41,84c-.12-.56-.12-.84-.92-.88a20.31,20.31,0,0,1-3.12,0c-.52,0-.76.12-.88.84a26.33,26.33,0,0,0,0,3.08c.12.47.4.84.88.84a20.83,20.83,0,0,0,3.16,0c.6-.09.8-.29.88-.84A15.44,15.44,0,0,0,197.41,84Zm17.8-18c.12.36.64.44,1.16.4.76,0,1.52.2,2,0a6.57,6.57,0,0,1,1.92.2c.52.28,1.2.36,1.64,1a7.4,7.4,0,0,1,.76,1.48c0,.56.12,1,.16,1.68a11.49,11.49,0,0,1,0,2,11.58,11.58,0,0,0,0,2,18,18,0,0,1,0,2.08,6,6,0,0,0,0,2.08c0,.88-.08,1.36,0,2a9,9,0,0,0,0,2.08,11.58,11.58,0,0,0,0,2c.12.8-.12,1.39,0,2a3,3,0,0,1-.2,1.91,3.59,3.59,0,0,1-1,1.68,4.47,4.47,0,0,1-1.28.68c-.32,0-.8.12-1.44.16s-1.32-.2-2.12-.24-.68-.44-1.12-.68c-.28-.16-.36-.68-.36-1.28a3.48,3.48,0,0,1,.36-1.28.89.89,0,0,1,.92-.64c.52.08.92,0,1.48.08.56,0,.56-.43.56-.84a25.13,25.13,0,0,0,0-2.67c-.08-.84-.72-.72-1.84-.76-.72,0-1.44-.12-1.68.47a8.1,8.1,0,0,0-.12,1.84,10.36,10.36,0,0,0,0,2.24c-.08.36,0,.88,0,1.72,0,.64-.2,1.12-.64,1.2a3,3,0,0,1-1.36.44c-.52.16-.88-.12-1.36-.4a1.58,1.58,0,0,1-.68-1.24,6.16,6.16,0,0,1,0-1.72,10.45,10.45,0,0,0,0-2.24,4.06,4.06,0,0,0-.2-1.84,1.64,1.64,0,0,0-1.4-.47c-1.08.08-1.52.36-1.6,1.2-.12,1.15.12,1.56,0,2.15a3.11,3.11,0,0,0,0,1.72,14.09,14.09,0,0,1,0,1.8,1.36,1.36,0,0,1-.64,1.24,2,2,0,0,1-1.4.4,2,2,0,0,1-1.4-.4c-.48-.2-.56-.84-.68-1.24a10.22,10.22,0,0,1,0-2.48c-.12-.75.12-1.67,0-2.43a16,16,0,0,0,0-2.4,8.27,8.27,0,0,1,0-2.44,8.31,8.31,0,0,1,0-2.44c-.2-1,.12-1.48,0-2.4a7.14,7.14,0,0,1,0-2.44,15.93,15.93,0,0,0,0-2.4c.16-.56,0-1,.2-1.8a2.42,2.42,0,0,1,.92-1.56,3.51,3.51,0,0,1,1.64-.8c.4,0,1,0,2.4-.16a2.63,2.63,0,0,0,1.72-.12c.52-.2.44-1.32.36-1.84s-.64-.48-1.12-.4c-1,.16-1.64-.16-2,0-.68-.16-1.2.2-1.64,0a4.83,4.83,0,0,1-1.68,0c-.56.08-.8,0-1.16-.64a2.12,2.12,0,0,1-.24-1.2,2.19,2.19,0,0,1,.24-1.36c.24-.48.64-.48,1.16-.64.4,0,1.28-.12,1.68,0s.88,0,1.64,0a4.07,4.07,0,0,0,2,0c.56-.12,1-.88,1.12-1.36a7.07,7.07,0,0,1,0-2.44,1.37,1.37,0,0,1,.72-1.32c.28-.44.88-.28,1.44-.44a6.91,6.91,0,0,1,1.44.44,1.66,1.66,0,0,1,.68,1.32c-.16.56.2,1.2,0,2.44a1.88,1.88,0,0,0,.32,1,2.21,2.21,0,0,0,1.6.32,4.16,4.16,0,0,0,1.24-.12c.16,0,.24-.16.2-.28-.52-.6-1.28-.64-1.52-1-.76-.32-1.36-.88-1.24-1.68a2.21,2.21,0,0,1,.52-1.24c.16-.44.68-.44,1.24-.56.6.16.8,0,1.24.32s.6.28,1.08.64,1,.44,1.28.88a1.78,1.78,0,0,1,.68,1.44c-.12.8-.52.8-.28,1.24s.56.44,1,.48a1.45,1.45,0,0,1,1.16.52,2.38,2.38,0,0,1,0,2.64c-.4.36-.84.68-1.16.6a15.7,15.7,0,0,0-2,0c-.52,0-1.08,0-1.84,0a10,10,0,0,0-2.88,0C215.21,64.08,215,65,215.21,66ZM211,77.28c-.24-.32-.56-.52-1.6-.52s-1.32.16-1.48.44a3.34,3.34,0,0,0-.12,1.92c0,.48.84.56,1.6.52s1.2,0,1.52-.4A4.34,4.34,0,0,0,211,77.28Zm0-6.52c-.12-.48-.84-.56-1.88-.52s-1.48.16-1.32,1.28c-.08,1.36.12,1.52,1.2,1.6.48,0,1.36.2,1.8-.32S211.09,71.36,211,70.76Zm4.08,1.84c.28.56,1,.52,2.84.44.68,0,.76-.4.76-1.52,0-.88-.44-1.36-1.4-1.28a4.25,4.25,0,0,0-1.84.28C215,70.72,215,71.2,215.09,72.6Zm1.8,4.16c-.56-.16-1.56,0-1.72.48a5.94,5.94,0,0,0-.08,1.88c.24.48.88.56,2.08.64.6-.12.84,0,1.32-.36s.36-1.36.2-2.12C218.57,76.8,218.09,76.68,216.89,76.76Z" fill="#007130"/><path d="M255.75,87a2.39,2.39,0,0,1-.8,1.83,2.18,2.18,0,0,1-1.88.64,17.81,17.81,0,0,1-2.76-.36,4.5,4.5,0,0,1-1.32-.4c-.36-.16-.84-.24-1.32-.48a2.29,2.29,0,0,1-1.23-.64c-.37-.2-.92-.36-1.17-.71-.47-.37-.71-.37-1.08-.84a11.84,11.84,0,0,1-2.35-2.76,6.26,6.26,0,0,1-1-2,4.46,4.46,0,0,1-.6-2.12c0-.64-.12-1.64-.2-2.24a5.22,5.22,0,0,1,.16-2.12c.16-.76.4-1.4.48-2a10.88,10.88,0,0,0,.76-2,9.13,9.13,0,0,1,1-1.84,15.35,15.35,0,0,0,.87-1.28c.21-.4.53-.56,1-1.16a6.19,6.19,0,0,0,.64-.64c.32-.24.53-.48.32-.88-.12-.24-.55-.2-1.27-.08-.4.08-.84.12-1.12.16a8.07,8.07,0,0,1-1.88.24,9.72,9.72,0,0,0-1.88.28c-.72.16-1.16.16-1.88.28s-1.4.28-1.92.28a13.25,13.25,0,0,0-1.88.28c-.48,0-1.28.32-1.88.28s-1.52.12-2.48.24a2.47,2.47,0,0,1-1.52-.72,2.86,2.86,0,0,1-.6-1.64,2.55,2.55,0,0,1,.76-1.72c.32-.08.4-.28,1-.48a5.57,5.57,0,0,0,1.76-.28c1-.08,1.88-.28,2.64-.32a14.89,14.89,0,0,0,2.6-.32,6.08,6.08,0,0,0,1.76-.2c.68-.2,1.24-.08,1.72-.2a4.33,4.33,0,0,1,1.76-.2c.44.12,1.12-.28,1.72-.2a6.87,6.87,0,0,0,1.72-.16,4.76,4.76,0,0,0,1.71-.2,3.16,3.16,0,0,0,1.76-.2c.48-.08,1.08,0,1.76-.16a4.56,4.56,0,0,1,1.56-.16,14.59,14.59,0,0,0,1.68-.2,10.84,10.84,0,0,0,1.6-.16,13.84,13.84,0,0,0,1.72-.12,2.39,2.39,0,0,1,1.72.6,2.42,2.42,0,0,1,.76,1.64,4.7,4.7,0,0,1-.52,1.48c-.24.48-.88.64-1.36.76-1.2.36-1.88.52-2.52.72a8.48,8.48,0,0,1-1.92.92c-.68.48-1.28.56-1.72,1A8.85,8.85,0,0,0,249,67.8c-.51.64-1,1-1.43,1.52A11.1,11.1,0,0,1,246.35,71c-.4.56-.44,1.12-.67,1.36-.16.68-.53,1.08-.45,1.44a6.43,6.43,0,0,0-.23,1.52,11.21,11.21,0,0,0-.16,1.44,7.83,7.83,0,0,0,.23,1.8,6.41,6.41,0,0,0,.57,1.52,4.11,4.11,0,0,0,.92,1.4c.47.36.79.72,1.27,1.12a5.81,5.81,0,0,0,1.8,1,6.23,6.23,0,0,0,2,.6,12.79,12.79,0,0,1,1.92.32,4.92,4.92,0,0,1,1.6.84A2.2,2.2,0,0,1,255.75,87ZM259,74.32a1.85,1.85,0,0,1-.52,1.16,1.5,1.5,0,0,1-1.16.52,2,2,0,0,1-1.56-1c-.36-.4-1-1.2-1.36-1.64-.52-.6-.84-.92-1.44-1.6a1.29,1.29,0,0,1-.48-1,2.28,2.28,0,0,1,.56-1.12,1.94,1.94,0,0,1,1.2-.48,2,2,0,0,1,1.64.8,13.57,13.57,0,0,0,1.24,1.32c.36.52.76.72,1.2,1.36A3.74,3.74,0,0,1,259,74.32Zm3.56-2.08a3.57,3.57,0,0,1-1.2.48,2.47,2.47,0,0,1-1.48-.72c-.4-.48-.6-.76-.84-1s-.36-.4-.76-.88a5.62,5.62,0,0,0-1.4-1.52,1.08,1.08,0,0,1-.44-1c0-.48.2-.68.56-1.12a2.57,2.57,0,0,1,1.2-.44,2.1,2.1,0,0,1,1.68.76c.48.44,1,1,1.24,1.28a4.25,4.25,0,0,0,1.24,1.36,2.16,2.16,0,0,1,.72,1.72A1.57,1.57,0,0,1,262.55,72.24Z" fill="#007130"/><path d="M301.89,88.87c.12.68-.24,1-.56,1.4A1.91,1.91,0,0,1,300,91c-.6,0-1.24,0-2-.12a4.7,4.7,0,0,1-2.36-.52c-.76-.36-1.6-.28-2.36-.68-.84-.24-1.6-.32-1.84-.6a11.48,11.48,0,0,1-1.8-.68,10,10,0,0,0-1.75-.8c-.72-.4-1.29-.55-1.68-.84-.68-.08-1.16-.75-1.6-.87a12.44,12.44,0,0,1-1.84,1,6.07,6.07,0,0,1-1.92.92,4.5,4.5,0,0,1-2,.84c-.76.2-1.44.56-2,.72a18.38,18.38,0,0,0-2,.64,9.31,9.31,0,0,0-1.28.4,5.14,5.14,0,0,1-1.4.36,3.24,3.24,0,0,1-1.36.36,2,2,0,0,1-1.24.24c-.76.08-1.64.36-2.08.16a1.59,1.59,0,0,1-1.28-.68c-.24-.44-.64-.84-.52-1.4-.16-.48.28-1,.52-1.32a2.33,2.33,0,0,1,1.28-.68,7.12,7.12,0,0,1,1.88-.35c.64-.08.88-.37,1.52-.33a7,7,0,0,1,1.48-.32c.6-.27,1-.08,1.48-.39.36,0,.76-.37,1.48-.49a2.79,2.79,0,0,0,1.44-.47,10.64,10.64,0,0,1,1.44-.52c.44-.2.76-.28,1.64-.69.48-.31.32-1-.32-1.59-.68-.28-.68-.76-1.12-1s-.68-.36-.8-.8c-.4-.4-.48-.48-.8-.84-.32-.16-.4-.48-.76-.92A4.31,4.31,0,0,1,274.86,77a6.3,6.3,0,0,0-1.48,0,2.23,2.23,0,0,1-1.2-.56,2.1,2.1,0,0,1-.44-1.28,1.26,1.26,0,0,1,.44-1.28,1.55,1.55,0,0,1,1.2-.56,5.13,5.13,0,0,0,2.2,0c.64,0,1.4,0,2.16,0a6.28,6.28,0,0,1,2.12,0,4.92,4.92,0,0,0,2.16,0,13,13,0,0,1,2.16,0,8.08,8.08,0,0,0,2.2,0,6.22,6.22,0,0,1,2.11,0,4.7,4.7,0,0,0,2.12,0,1.78,1.78,0,0,1,1.4.16,3,3,0,0,0,1.28.52,1.16,1.16,0,0,1,1,.88c.16.44.52.76.4,1.36A4.28,4.28,0,0,1,294,78.2c-.08.24-.68.84-.76,1-.48.28-.68.88-.92,1a6.85,6.85,0,0,1-1,1c-.52.12-.84.44-1.32,1.08a1.39,1.39,0,0,0-.8,1c0,.24.08.4.28.4.4.32.88.32,1.4.6.24.16.84.16,1.2.43s.76.21,1.24.41c.64.28,1.64.43,2.52.71.88.13,1.8.41,2.52.52.52.32,1,.08,1.48.28a1.77,1.77,0,0,1,1.48.76A1.37,1.37,0,0,1,301.89,88.87ZM266.34,72c0-.72,0-1.16,0-1.8a5.56,5.56,0,0,1,.2-1.68c0-.64.44-.92.88-1.48a3.59,3.59,0,0,1,2.24-1c.64-.08,1.72,0,2.8-.16.76,0,1.52-.8,1.24-1.28a4.43,4.43,0,0,1-.8-2c.28-.44-.6-.76-1.16-.92-.84,0-1-.32-1.64-.56a4.06,4.06,0,0,1-.64-1.52,2,2,0,0,1,1.24-1.8c.56-.12,1.48-.2,2.36-.28a11.92,11.92,0,0,1,1.68,0c.72-.2,1.16,0,1.72-.08s1.08,0,1.68-.12c.44,0,1.16-.12,1.72-.12s1.12-.08,1.68-.16a6.27,6.27,0,0,1,1.72-.16c.72,0,1.2-.28,1.72-.2.6-.16,1,0,1.67-.2.88-.24,1.64,0,2.72-.4.36-.16,1,0,1.36-.24.24-.24,1,0,1.36-.28a4.63,4.63,0,0,1,2.08-.32,3.34,3.34,0,0,1,1.44.6,2.32,2.32,0,0,1,.6,1.48,2,2,0,0,1-1.32,1.84,9.31,9.31,0,0,1-2,.44,6.13,6.13,0,0,1-2,.32,3.51,3.51,0,0,1-1.84.28,5.19,5.19,0,0,1-1.79.28,15.9,15.9,0,0,1-2,.24.72.72,0,0,0-.6.24c-.2.2-.28.44-.08.52.4.44.4.76.68,1.12.24.8.59,1.48.8,2.2-.25.76-.12,1.28.59,1.08.57.12,1.16-.08,1.72,0,.12-.44.76-1.16,1.08-1.92a14.84,14.84,0,0,0,1-2.12c.44-.68.56-1.16,1.12-1.36.44-.44.88-.24,1.28-.44.48.2,1,0,1.48.28s.52.84.68,1.4a5.08,5.08,0,0,1-.8,2.24,5,5,0,0,1-.76,1.32c-.08,0-.08.12,0,.2a1.13,1.13,0,0,0,.44.2,4.44,4.44,0,0,0,1.36.2c1.32,0,1.88.12,3,.16.6,0,.72.44,1.24.4.24.08.72.6,1,.76.44.6.72.92.72,1.4.16.36,0,1.08.16,1.6a4.72,4.72,0,0,0,0,1.68,12.49,12.49,0,0,0,0,1.72,1.7,1.7,0,0,1-.76,1.32,1.59,1.59,0,0,1-1.52.44,5.78,5.78,0,0,1-1.52-.44,1.17,1.17,0,0,1-.76-1.32,11.82,11.82,0,0,1,0-2.64c.08-.2-.16-.64-.24-1a4.25,4.25,0,0,0-1.36-.32,13,13,0,0,1-2.8,0,11.19,11.19,0,0,0-2.84,0,13.1,13.1,0,0,1-2.8,0,13.34,13.34,0,0,0-2.83,0,22.27,22.27,0,0,1-2.84,0,22.43,22.43,0,0,0-2.84,0,8.22,8.22,0,0,1-2.8,0,16.33,16.33,0,0,1-2.8,0,3,3,0,0,0-1.44.4c.08.76-.2,1.56-.16,2.2a2.82,2.82,0,0,0,0,1.52,1.51,1.51,0,0,1-.76,1.32,9.5,9.5,0,0,1-1.52.44,8.38,8.38,0,0,1-1.56-.44c-.56-.2-.68-.52-.76-1.32A5.42,5.42,0,0,0,266.34,72Zm10.92-10a.56.56,0,0,0,.2.8,4,4,0,0,1,1,2.24c0,.32.6.76,1.88.84,1.28-.08,1.76-.56,1.52-1a6.56,6.56,0,0,1-.64-1.4c-.36-.16-.28-.6-.36-1.08.36-.88-.12-1.16-.52-1.12a7.61,7.61,0,0,0-1.8.12A1.49,1.49,0,0,0,277.26,62Zm10.23,15a13.53,13.53,0,0,0-3.35,0,14.85,14.85,0,0,1-2.64,0,1,1,0,0,0-.84.24.46.46,0,0,0,0,.68,9.45,9.45,0,0,0,1.4,1.28,9.2,9.2,0,0,0,1.72,1.4c.48.2,1.2.48,1.6.16s1-.92,1.31-1a4.47,4.47,0,0,0,1-.84c.16-.48.52-.44,1.08-1.12C288.81,77.48,288.69,76.84,287.49,77Z" fill="#007130"/><path d="M313.32,59.28a19.27,19.27,0,0,0-.52,2.56,4.89,4.89,0,0,1-.36,1.68,4.22,4.22,0,0,0-.28,1.68c0,.8-.16,1-.24,1.72a7.52,7.52,0,0,0-.2,1.72,5.28,5.28,0,0,1-.12,1.72,12.43,12.43,0,0,1-.12,1.72,3.2,3.2,0,0,0-.08,1.72,4.15,4.15,0,0,0,0,1.72,8,8,0,0,0,0,2.4,19.92,19.92,0,0,1,.16,2.36,11.92,11.92,0,0,0,.28,2.36c.08,1,.24,1.64.36,2.44a2.33,2.33,0,0,1-.68,2.15,2.65,2.65,0,0,1-1.68.69c-.4-.09-.92,0-1.28-.33a1.25,1.25,0,0,1-.88-1c-.4-.43-.36-1.19-.6-2.27-.12-.44,0-.84-.2-1.52a10,10,0,0,0-.16-1.64,5.85,5.85,0,0,1-.12-1.68,5,5,0,0,0-.08-1.52c0-.88-.12-1.68,0-2.44-.2-.76.08-1,0-1.76a14.09,14.09,0,0,1,0-1.8,3.89,3.89,0,0,0,.12-1.76c0-.52.2-1.24.16-1.76a3.87,3.87,0,0,1,.2-1.76,8.87,8.87,0,0,1,.24-1.8c.2-.64.12-1,.28-1.72a11.88,11.88,0,0,1,.32-1.76,10.44,10.44,0,0,0,.32-1.48,12.17,12.17,0,0,1,.44-1.48c.28-.52.6-.56.92-1a4.58,4.58,0,0,1,1.28-.32,4,4,0,0,1,1.64.56A2,2,0,0,1,313.32,59.28Zm25.48,7.44a2.29,2.29,0,0,1-.88,1.68A6,6,0,0,1,336,69c-.56.28-1,.08-1.72.32a3.76,3.76,0,0,0-1.28.8,2.07,2.07,0,0,0-.48,1.48,18.83,18.83,0,0,0,0,2,5,5,0,0,0,0,1.52c-.12,1.16-.32,2-.32,2.84a10.79,10.79,0,0,1-.24,1.44,5.48,5.48,0,0,0-.32,1.4,17.18,17.18,0,0,1-.72,2.32,4.28,4.28,0,0,1-.52,1.32,3,3,0,0,1-.6,1.31c-.2.33-.48.88-.68,1.25s-.64.63-.72,1.19c-.2.36-.68.76-.76,1-.4.44-.68.56-.88.88a1.67,1.67,0,0,1-1.6.56,3.62,3.62,0,0,1-1.64-.64,1.83,1.83,0,0,1-.72-1.56,3.09,3.09,0,0,1,.64-1.68,5,5,0,0,0,.92-1.2,2.26,2.26,0,0,0,.8-1.19,5.34,5.34,0,0,1,.68-1.28c.32-.48.2-.76.6-1.32.28-.84.48-1.68.72-2.28.16-.8.28-1.68.48-2.32a16.28,16.28,0,0,1,.24-2.36c.08-.84,0-1.24,0-2a8.83,8.83,0,0,0,0-1.52,1.63,1.63,0,0,0-1.72-1.24,28.64,28.64,0,0,1-3,.08c-.72,0-1.24.08-2,0a8.27,8.27,0,0,1-2-.16,1.93,1.93,0,0,1-1.08-.92,3,3,0,0,1-.36-1.24,2.24,2.24,0,0,1,.6-1.56,2.49,2.49,0,0,1,1.56-.6,10.2,10.2,0,0,0,1.6.08,7.09,7.09,0,0,0,1.6,0c.88,0,1.52,0,3-.08.8,0,1.84-1.08,1.8-1.6a8.16,8.16,0,0,0-.2-2,8.5,8.5,0,0,0-.08-1.32,7.06,7.06,0,0,0-.16-2.32c-.16-.6.36-1.16.68-1.52a3.93,3.93,0,0,1,1.64-.52,2.34,2.34,0,0,1,1.72.6,1.65,1.65,0,0,1,.64,1.36c.24.6,0,1.24.08,1.6,0,.52.12,1.32.12,1.72a11,11,0,0,0,.12,1.92,1.89,1.89,0,0,0,1.84,1.2,19.09,19.09,0,0,0,2.64-.36,1.51,1.51,0,0,1,1.4.68A2,2,0,0,1,338.8,66.72Z" fill="#007130"/><path d="M357.26,62.08a13.6,13.6,0,0,1,0,2.24,3.57,3.57,0,0,0,0,1.84,4.23,4.23,0,0,1,0,1.88,7.08,7.08,0,0,0,0,1.84,4.74,4.74,0,0,0,0,1.84c0,.56,0,1.24,0,1.88s.12,1.32,0,1.84a3.54,3.54,0,0,0,0,1.84,4.88,4.88,0,0,0,0,1.88,3.58,3.58,0,0,0,0,1.84,9.42,9.42,0,0,0,0,1.84,4.9,4.9,0,0,0,0,1.87,9.35,9.35,0,0,1,0,1.84c-.08.61.08,1.37,0,1.84a4.29,4.29,0,0,1,0,1.88c.12.72-.36,1-.72,1.28A2.75,2.75,0,0,1,355,92a1.87,1.87,0,0,1-1.48-.4c-.32-.32-.84-.64-.72-1.28a6.26,6.26,0,0,0,0-1.72c0-.67,0-1.2,0-2.12a2.24,2.24,0,0,0-.32-1.51c-.32-.56-.4-.64-.68-.64-.88.12-1.16.47-1.6.43a5.21,5.21,0,0,0-1.4.37,2.93,2.93,0,0,1-1.4.32,3.15,3.15,0,0,0-1.36.23,6.4,6.4,0,0,1-1.36.29c-.76.12-1.64.16-2.68.39a1.83,1.83,0,0,1-1.64-.56c-.6-.28-.72-.87-.64-1.59a2.89,2.89,0,0,1,.44-1.4,3.66,3.66,0,0,1,1.28-.72,3.63,3.63,0,0,0,1.76-.24c.52-.16.28-1,.48-2,0-.72,0-1.52,0-1.88s0-.84,0-1.4,0-1.68,0-2.68a14.5,14.5,0,0,1,0-2.64c0-.88-.12-1.68,0-2.64-.08-1,0-1.6,0-2.68,0-.4-.2-.76,0-1.4a3.38,3.38,0,0,1,0-1.84c-.12-.44-.24-1-.52-1.24-.16-.48-.6-.48-1.16-.68a1.54,1.54,0,0,1-1.44-.68c-.44-.16-.36-.76-.44-1.32s0-1.08.44-1.36c.36-.48.48-.72,1.2-.68.88.16,2.12-.16,3.08,0a10.75,10.75,0,0,0,3,0c.84-.16,1.92.2,3,0a25.68,25.68,0,0,0,3,0c1.12.16,1.8-.12,3,0,1.16-.16,1.88.2,3,0,.84-.12,2,.16,3,0a9.93,9.93,0,0,0,3.08,0c.4.2,1,.32,1.24.64a3.39,3.39,0,0,1,.44,1.4,1.42,1.42,0,0,1-.44,1.36c-.12.4-.6.6-1.24.64-.68-.16-1.48.2-2.28,0a13.34,13.34,0,0,1-2.2,0c-.92,0-1.48-.08-2.44,0C358.18,60.68,357.1,61.6,357.26,62.08ZM352.78,78c-.08-.36.08-1-.4-1.48a1.25,1.25,0,0,0-1.4-.36c-.28-.16-.44-.16-1.12,0s-1.24-.16-1.48.2c-.56.24-.4,1.44-.32,1.64s0,.24,0,1.08.2,1.8,1.2,1.6a9.73,9.73,0,0,0,2.36-.52.79.79,0,0,0,.92-.52C352.94,79.08,352.7,78.52,352.78,78Zm0-7.64a2,2,0,0,0-.32-1.56c-.32-.4-1.16-.24-1.48-.4-.2.16-.56-.08-1.12,0s-1.2.12-1.44.28a1.83,1.83,0,0,0-.36,1.68c0,.48,0,1.4.24,1.64a8.25,8.25,0,0,0,1.56.32,3,3,0,0,1,1.12,0,2.8,2.8,0,0,0,1.52-.4A2.45,2.45,0,0,0,352.78,70.36Zm-.2-9.24a2.13,2.13,0,0,0-1.6-.32c-.16.16-.44.08-1.12,0-.48-.08-1.36-.08-1.52.4a2,2,0,0,0-.28,1.48c.16.6,0,1.4.36,1.56.16.4.88.44,1.44.32.24.2.52,0,1.12,0,.32-.12,1,.32,1.44,0s.32-1.32.36-1.84A1.89,1.89,0,0,0,352.58,61.12Zm25.24,27a3.66,3.66,0,0,1-.72,1.68,2.46,2.46,0,0,1-1.68.68A5.47,5.47,0,0,1,373.9,90a5.4,5.4,0,0,1-1.2-1c-.36-.4-1-.76-1.2-1.2a5.14,5.14,0,0,1-1.12-1.24A11.69,11.69,0,0,0,369.1,85a1,1,0,0,0-1.72.24,11.4,11.4,0,0,1-1,1.07c-.2.28-.56.48-.76.81-.48.39-1,1.07-1.56,1.51s-1.2.76-1.6,1.4c-.52.32-.68.48-1.08.72a1.83,1.83,0,0,1-1.24.36,1.42,1.42,0,0,1-1.48-.6c-.6-.32-.48-1-.64-1.48a2.36,2.36,0,0,1,1.12-2c.32-.33.68-.37,1-.77a11.9,11.9,0,0,0,1.64-1.39,5.37,5.37,0,0,0,1.52-1.48c.12-.48.56-.44.76-.88.36-.4.68-.88,1-1.24a4.82,4.82,0,0,0,.32-2.16,8,8,0,0,1-1-2.12c-.28-.48-.32-.92-.68-1.64-.2-.4-.24-.88-.6-1.64a5.94,5.94,0,0,1-.56-1.68,9.21,9.21,0,0,0-.48-1.68,7.77,7.77,0,0,0-.56-2.16c-.32-.6-.84-1.2-1.32-1.2-.76-.12-1.32-.08-1.4-.68-.12-.44-.44-.72-.44-1.4-.2-.44.28-.84.44-1.36.32-.2.68-.72,1.24-.64a13,13,0,0,1,2.8,0c.76.2,1.8-.16,2.72,0a20.56,20.56,0,0,1,2.72,0A6.22,6.22,0,0,0,371,63a12.21,12.21,0,0,1,2.08.2,7.42,7.42,0,0,1,1.8,1.08c.4.28.48.88.64,1.12.28.48.12.92.2,1.32a3.9,3.9,0,0,1-.16,1.68,8.56,8.56,0,0,0-.36,1.6c-.32.32-.16,1.08-.36,1.36-.24.56-.2.92-.4,1.32A3.34,3.34,0,0,1,374,74a12.1,12.1,0,0,1-.48,1.28,2.73,2.73,0,0,0-.56,1.28,4,4,0,0,0-.6,1.24,9.06,9.06,0,0,1-.84,1.6c-.32.56.12,1.32.28,1.76a16.57,16.57,0,0,0,1.48,1.76,5,5,0,0,0,1.28,1.32,4.7,4.7,0,0,0,1.32,1.2,5.23,5.23,0,0,0,.8.64,2.1,2.1,0,0,1,.8,1C377.86,87.35,377.9,87.55,377.82,88.15ZM371.1,67.48c-.08-.56-.8-.32-1-.44a7.73,7.73,0,0,1-2.72,0c-.8.12-1.56,1.2-1.24,1.76a5.16,5.16,0,0,0,.44,1.56,5.37,5.37,0,0,0,.36,1.2c0,.56.4.84.4,1.16s.4.68.52,1.36c.44.92,1,1.12,1.4.28a8.36,8.36,0,0,1,.84-2.24c0-.44.6-1.36.68-2.28A19.81,19.81,0,0,0,371.1,67.48Z" fill="#007130"/><path d="M415.3,80a2.5,2.5,0,0,1,.72,1.6,3.62,3.62,0,0,1-.76,1.76c-.44.56-1,1-1.56,1.6a5.29,5.29,0,0,1-1.84,1.24,3.59,3.59,0,0,1-2,.88c-.67,0-1.59.31-2.19.31-.69-.16-1.44-.08-2.36-.31a6.39,6.39,0,0,1-2-1.24,5,5,0,0,1-.92-2c-.28-.64,0-1.48-.12-2.12s.08-.92.08-1.68c-.16-.76.16-1,.08-1.72-.08-.44.16-1.08.12-1.68a4.32,4.32,0,0,0,.08-1.72c0-.48.16-1.2.08-1.72a4.84,4.84,0,0,1,.08-1.68,7.74,7.74,0,0,1,.12-1.72c.12-.64,0-1,.08-1.68a2.08,2.08,0,0,0-.16-1.44c0-.32-.48-.52-1-.56a3.79,3.79,0,0,0-1.92.64,19.11,19.11,0,0,0-1.72,1.28c-.36.32-.76.32-.92.76a10.16,10.16,0,0,0-.92.8c-.4.4-.68.48-.88.84s-.6.4-.88.84a3.86,3.86,0,0,0-.92.88c-.44.36-.52.72-.88.88A3,3,0,0,1,392,74a1.84,1.84,0,0,0-.6.8,4,4,0,0,0-.2,1.6c.16.76-.16,1,0,1.72.16.4-.12,1.32,0,1.68a6.19,6.19,0,0,0,0,1.72c.08.68-.16,1.32,0,1.68a12.16,12.16,0,0,1,0,1.72,5.79,5.79,0,0,0,0,1.67c0,.57-.12,1.24,0,1.72a1.71,1.71,0,0,1-.68,1.52,1.61,1.61,0,0,1-1.56.6,1.46,1.46,0,0,1-1.56-.6,1.53,1.53,0,0,1-.68-1.52,21.19,21.19,0,0,1,0-2.31,14,14,0,0,1,0-2.25c0-.59,0-1.67,0-2.43a.45.45,0,0,0-.8-.36c-.16.28-.32.44-.48.72-.36.48-.52.88-.76,1.16a8,8,0,0,0-.76,1.2,1.77,1.77,0,0,1-1.8,1,3.93,3.93,0,0,1-1.56-.64,2.2,2.2,0,0,1-.72-1.52,5.31,5.31,0,0,1,.8-1.88,5.62,5.62,0,0,1,.84-1.24,2,2,0,0,0,.84-1.32c.36-.6.6-.68.8-1.28a4,4,0,0,1,.84-1.36c.32-.48.48-1,.76-1.36a4.86,4.86,0,0,0,.68-1.24,3.3,3.3,0,0,0,.76-1.36,5.74,5.74,0,0,0,.56-1.36c.08-.4.2-1.32-.28-1.72a1.53,1.53,0,0,0-1.2-.24c-.48,0-1.08.2-1.68.32s-.76.2-1.32.24a1.86,1.86,0,0,1-1.6-.48A2.29,2.29,0,0,1,380,67a1.6,1.6,0,0,1,.4-1.36c.4-.52.68-.48,1.2-.72a4.63,4.63,0,0,1,1.48-.28c.36,0,1.08-.28,2-.36.52-.2,1-.16,1.52-.72a2,2,0,0,0,.48-1.28c0-.8,0-2,0-2.84,0-.6,0-1.28,0-1.72a1.72,1.72,0,0,1,.76-1.4,2.57,2.57,0,0,1,1.52-.52,2.64,2.64,0,0,1,1.52.48,1.58,1.58,0,0,1,.68,1.44c-.08.52,0,1.2,0,1.56a14.75,14.75,0,0,0,0,1.88c0,1,0,1.68.4,1.92a2,2,0,0,1,.92,1.64,2.35,2.35,0,0,1-.48,1.56c-.16.52-.64.88-.88,1.32a.32.32,0,0,0,.08.48c.16.12.52.08.84-.32.68-.6,1.08-1,1.68-1.56s1.08-.68,1.52-1.32c.32-.32,1.12-.76,1.64-1.28.52-.32.6-.44,1.24-.8a15.17,15.17,0,0,0,1.36-.72,3.81,3.81,0,0,0,1.4-.52c.32,0,.84-.12,1.52-.16.6.2,1.56.2,2.16.36a5.44,5.44,0,0,1,1.8,1.28c.6.52.64,1.24,1,2.08a6.92,6.92,0,0,1,.19,2.32,9.23,9.23,0,0,0-.11,1.76,8.82,8.82,0,0,1-.08,1.76,6.31,6.31,0,0,1-.08,1.76,6.64,6.64,0,0,0-.12,1.76,5.07,5.07,0,0,1-.08,1.76,5.26,5.26,0,0,1-.08,1.76,3,3,0,0,0-.12,1.76,8.81,8.81,0,0,0-.09,1.76c.09.64.25.92.84,1.08a5.62,5.62,0,0,0,2.08-.76c.48-.24.72-.68.92-.76.48-.44.6-.72.8-.84a2.36,2.36,0,0,1,1.88-.84A4.31,4.31,0,0,1,415.3,80Z" fill="#007130"/><path d="M447.1,76.8a9.09,9.09,0,0,1,.13,1.64c-.21.68,0,1.64-.21,2.2a6.93,6.93,0,0,1-.55,2.12,7.21,7.21,0,0,1-1,1.95,7.67,7.67,0,0,1-1.37,1.76c-.2.16-.67.84-1,.92-.43.4-.91.49-1.07.72a1.86,1.86,0,0,1-1.24.64c-.56.12-.8.36-1.24.48a4.53,4.53,0,0,1-1.28.36c-.48,0-.8.16-1.28.24a5.8,5.8,0,0,1-2.72.2,8.13,8.13,0,0,1-1.8-.12c-.52,0-1.2-.32-1.8-.32A8.18,8.18,0,0,1,429,89a3,3,0,0,1-1.56-1,3.62,3.62,0,0,1-.92-.92c-.24-.33-.68-.65-.72-1a9.11,9.11,0,0,1-.6-2.48,6,6,0,0,1,.36-2,3.08,3.08,0,0,1,1-1.72,8.76,8.76,0,0,1,2-1.16,19.42,19.42,0,0,1,2.28-.36,6.44,6.44,0,0,1,1.64.16A4,4,0,0,1,434,79a9.87,9.87,0,0,1,1.4.84A6,6,0,0,1,436.59,81a2.4,2.4,0,0,0,.72,1,13.55,13.55,0,0,0,.72,1.32c.28.72,1,1.28,1.52,1A3.12,3.12,0,0,0,441,82.84c.4-.72.72-1.44,1-2a17.83,17.83,0,0,0,.32-2.32,2.27,2.27,0,0,0-.36-1.8c-.32-.4-.44-1-1-1.52a10.86,10.86,0,0,0-1-.76c-.32-.28-.76-.28-1.16-.52a4.4,4.4,0,0,0-2.48-.4,6.49,6.49,0,0,0-1.8.12c-.44,0-1.2.28-1.72.28a10.2,10.2,0,0,1-1.68.48,6.34,6.34,0,0,1-1.64.64,2.89,2.89,0,0,1-1.52.76,10.22,10.22,0,0,0-1.52.88,5.24,5.24,0,0,1-1.48,1,11,11,0,0,1-1.48,1.08,4.65,4.65,0,0,1-1.76.64,2.15,2.15,0,0,1-1.6-.68c-.6-.4-.56-1-.72-1.6a2.56,2.56,0,0,1,1-2,10.87,10.87,0,0,0,1.68-1.36c.28-.08.52-.52,1-.8s.48-.44.88-.76c.24-.36.64-.36.92-.84.08-.44.64-.36.88-.84a5.52,5.52,0,0,0,.84-.84,5,5,0,0,0,.8-.76c.2-.24.68-.64.88-.92a4.11,4.11,0,0,1,.84-.88c.48-.56.88-.68,1.24-1.36.2-.32.84-.8,1.2-1.36.68-.84,1.12-1.4.92-1.8s-.76-.56-2-.36a17.49,17.49,0,0,1-2.24.24,4.79,4.79,0,0,1-2.32.2,1.51,1.51,0,0,1-1.6-.64,2.86,2.86,0,0,1-.64-1.64c.16-.56.12-1,.56-1.48a2.14,2.14,0,0,1,1.44-.68c.48.16.88-.2,1.28-.12a5.31,5.31,0,0,0,1.6-.12,2.69,2.69,0,0,0,1.64-.16,11.72,11.72,0,0,0,1.64-.2,4.91,4.91,0,0,0,1.56-.2,7.58,7.58,0,0,0,1.56-.2,8.26,8.26,0,0,1,1.56-.24c.52.12.72-.08,1.32-.08a2.53,2.53,0,0,1,1.88.76,3.31,3.31,0,0,1,.8,1.84,2.48,2.48,0,0,1-.64,1.84,6.41,6.41,0,0,1-1.2,1.52c-.36.36-.4.72-.8,1-.44.52-.76.84-.88,1-.44.48-.64.8-.84,1a1.89,1.89,0,0,0-.84,1,4,4,0,0,0-.88,1,7.65,7.65,0,0,0-.88,1c-.28.24-.44.36-.52.6s.16.76.92.56a12.08,12.08,0,0,1,2.84-.44,14.07,14.07,0,0,0,2.24.16c.84.32,1.64.28,2.24.52a8.49,8.49,0,0,1,2,1c.75.36,1,1,1.75,1.48a3.88,3.88,0,0,1,1,1.32,7,7,0,0,1,.68,1.44A6.37,6.37,0,0,0,447.1,76.8Zm-14.11,9a.79.79,0,0,0,.72-.87,5.71,5.71,0,0,0-.64-1.48c-.2-.56-.52-.52-.92-.92a3.44,3.44,0,0,0-1.36-.36,1.3,1.3,0,0,0-1.32,1.4,1.09,1.09,0,0,0,.48,1.23c.16.49.76.37,1.24.69A6.81,6.81,0,0,0,433,85.75Z" fill="#007130"/><path d="M464.35,88.07a2.84,2.84,0,0,1-2.24.88,2.71,2.71,0,0,1-2.24-.88,3.59,3.59,0,0,1-.92-2.19,4,4,0,0,1,.92-2.2,3.19,3.19,0,0,1,4.48,0,2.67,2.67,0,0,1,.92,2.2A3.25,3.25,0,0,1,464.35,88.07Zm-5.2-27.95c.08-.32,0-1,.24-1.4,0-.36.52-.64.64-1a4,4,0,0,1,2.2-.8,4.9,4.9,0,0,1,2,.76,2.89,2.89,0,0,1,.88,2c-.2.72.12,1.2,0,1.88a3.34,3.34,0,0,1-.16,1.64,6.19,6.19,0,0,1-.12,1.6,7.57,7.57,0,0,0-.12,1.56c0,1.12-.16,1.8-.16,2.8a11.43,11.43,0,0,0-.12,2.84,16.52,16.52,0,0,1-.12,2.84,9.84,9.84,0,0,0-.12,2.84,2.65,2.65,0,0,1-.56,2.28,1.88,1.88,0,0,1-1.48.44c-.92-.08-1.72-.24-1.76-1.12a3.53,3.53,0,0,1-.2-1.6,14.55,14.55,0,0,1-.08-2.6c0-.64-.08-1.8-.12-2.56a6,6,0,0,1-.08-1.72,11.83,11.83,0,0,0-.08-1.76,11.23,11.23,0,0,1-.12-2.24c0-.8-.16-1.64-.16-2.24a9.58,9.58,0,0,0-.2-2.2A12.59,12.59,0,0,1,459.15,60.12Z" fill="#007130"/></g></g></svg>