<svg xmlns="http://www.w3.org/2000/svg" width="381.02" height="92.83" viewBox="0 0 381.02 92.83"><title>ttl01</title><g id="レイヤー_2" data-name="レイヤー 2"><g id="レイヤー_2-2" data-name="レイヤー 2"><path d="M13.84,12.72a24.52,24.52,0,0,1-.72,2.44,4.85,4.85,0,0,1-.44,1.2,2.12,2.12,0,0,0-.44,1.2,6.4,6.4,0,0,0-.52,1.2c-.32.44-.24.88-.48,1.16a8,8,0,0,1-.56,1.16c-.4.28-.4.88-.56,1.12a9.18,9.18,0,0,1-.64,1.12c-.32.44-.36.92-.6,1.08-.2.52-.64.8-.64,1a2.9,2.9,0,0,0-.68,1,2.19,2.19,0,0,0-.68,1c-.28.48-.64.56-.72.92A20.47,20.47,0,0,0,4.72,30c-.44.44-.72.48-1,.76a2,2,0,0,1-1.2.28,2.35,2.35,0,0,1-1.76-.72A2.32,2.32,0,0,1,0,28.64a3.05,3.05,0,0,1,.8-1.88c.32-.28.56-.84,1.08-1.32.28-.36.6-.84,1-1.32.28-.52.8-.92.92-1.36.48-.4.52-.8.88-1.4a10.31,10.31,0,0,1,1-1.72c.16-.52.8-1.28,1-1.84A6.78,6.78,0,0,0,7.52,16c.4-.4.44-1.24.72-1.88a15.29,15.29,0,0,0,.64-1.92c.16-.36.52-1.08.92-1.24a3.58,3.58,0,0,1,1.48-.48,2.9,2.9,0,0,1,1.76.64A1.65,1.65,0,0,1,13.84,12.72ZM34.48,29.84a2.87,2.87,0,0,1-1.84.72A2.2,2.2,0,0,1,31.12,30c-.6-.2-.76-.76-1-1.24A17.9,17.9,0,0,1,29.36,27c-.08-.4-.52-.88-.64-1.4A8.57,8.57,0,0,0,28,24.28c-.44-.32-.44-.8-.72-1.32s-.52-.72-.72-1.36c-.12-.36-.6-.8-.8-1.28s-.56-.76-.8-1.32a5.11,5.11,0,0,1-.8-1.24c-.48-.4-.44-.72-.84-1.28a3.66,3.66,0,0,0-1.12-1.6,6.67,6.67,0,0,0-1.2-1.6,2.68,2.68,0,0,1-.48-1.4,2.62,2.62,0,0,1,.76-1.56A2.66,2.66,0,0,1,23,9.72a4.37,4.37,0,0,1,2.16,1,6.07,6.07,0,0,1,.76.88c.24.2.44.64.72.92s.28.76.72.92c.08.44.6.68.68,1a5,5,0,0,0,.64,1c.28.32.28.72.68,1,.16.52.28.8.6,1a1.54,1.54,0,0,0,.64,1,11,11,0,0,1,.6,1,3.1,3.1,0,0,0,.6,1c.28.56.52.68.6,1,.24.2.24.72.56,1,0,.36.32.64.56,1.08a2.55,2.55,0,0,1,.52,1,11,11,0,0,1,1,2.24,9.43,9.43,0,0,1,.28,1.24A1.77,1.77,0,0,1,34.48,29.84Z" fill="#007130"/><path d="M40.22,11.28A4.29,4.29,0,0,1,38.94,10a1.87,1.87,0,0,1-.36-1.12,2.79,2.79,0,0,1,.84-1.8,4.1,4.1,0,0,1,1.8-.76,1.86,1.86,0,0,1,1.16.28,5.55,5.55,0,0,1,1.12.64c.24.28.8.52,1,.76.12.4.64.48.88.72s.4.56,1,.8a3.3,3.3,0,0,0,1,.84c.32.24.84.56,1,.92.48.36.52.76.84,1a1.45,1.45,0,0,1,.44,1.48,3.38,3.38,0,0,1-.8,1.88,3.36,3.36,0,0,1-1.88.84,3.09,3.09,0,0,1-1.84-.8c-.28-.28-.84-.8-1.2-1.12-.52-.44-.64-.84-1.2-1.12a4,4,0,0,0-1.2-1.08C41.22,12.16,40.62,11.64,40.22,11.28Zm28.27,3c-.32.84-.92,1.28-1.12,1.84a8.48,8.48,0,0,1-1.2,1.76,7.21,7.21,0,0,1-1.24,1.72c-.6.68-.79,1.16-1.27,1.64a13.82,13.82,0,0,1-1.4,1.6,17.4,17.4,0,0,1-1.44,1.52c-.48.4-1.08,1.12-1.52,1.44-.44.68-1.24,1-1.64,1.44s-1.2.76-1.56,1.24c-.52.4-1.12.72-1.64,1.2a6.7,6.7,0,0,1-1.68,1.16A4.85,4.85,0,0,1,51,32a7.53,7.53,0,0,0-1.76,1,15.77,15.77,0,0,1-1.84.92,5.85,5.85,0,0,1-1.84.84c-.52.32-1.32.52-1.92.8a2.63,2.63,0,0,1-1.12.16,2.37,2.37,0,0,1-1.76-.76,2.93,2.93,0,0,1-.72-1.8,2.07,2.07,0,0,1,1-1.8,10.27,10.27,0,0,1,2-1c.24-.16.52-.2,1.12-.48a2.72,2.72,0,0,1,1.08-.52,7.31,7.31,0,0,1,1.12-.56c.32-.12.56-.52,1.08-.56.4-.2.56-.36,1.08-.6a4.71,4.71,0,0,1,1-.64c.44-.16.68-.6,1-.68a4.86,4.86,0,0,1,1-.68c.2-.16.76-.36,1-.72a2.21,2.21,0,0,0,1-.76c.16-.32.64-.32,1-.76s.64-.6,1-.8a2.59,2.59,0,0,0,.92-.8c.28-.08.4-.44.88-.84.32-.4.56-.76.88-.88.24-.32.48-.76.84-.92.28-.44,1-.88,1.36-1.52.44-.36.8-1.16,1.24-1.6a9.12,9.12,0,0,1,1.16-1.68c.52-.64.6-1,1.08-1.72.32-.48.76-.88,1-1.32.48-.4.77-.72,1.52-.6a3.74,3.74,0,0,1,1.76.64,2.39,2.39,0,0,1,.8,1.68A4.74,4.74,0,0,1,68.49,14.32Z" fill="#007130"/><path d="M103.36,33.76a1.91,1.91,0,0,1-.84,1.76,2.72,2.72,0,0,1-1.8.72c-.88.2-1.48-.44-2-1s-.6-.72-1-1.16c-.4-.28-.52-.8-1-1.12a3.91,3.91,0,0,1-1-1.12c-.32-.44-.88-.72-1.08-1.08s-.76-.56-1.08-1a3.37,3.37,0,0,1-1.12-1,8.21,8.21,0,0,1-1.16-1c-.44-.36-.76-.52-1.28-1a1.39,1.39,0,0,0-1.92,0,5.74,5.74,0,0,0-1,1,5.82,5.82,0,0,1-.71.68c-.6.52-.88,1-1.4,1.24a9.76,9.76,0,0,1-1.44,1.2A7.21,7.21,0,0,0,82.05,32a5.57,5.57,0,0,0-1.52,1.08c-.56.52-1.2.6-1.56,1a11.64,11.64,0,0,0-1.64,1,10,10,0,0,0-1.24.68,4.2,4.2,0,0,1-1.4.32A2.43,2.43,0,0,1,73,35.36a3.26,3.26,0,0,1-.72-1.72,1.87,1.87,0,0,1,.36-1.2,1.51,1.51,0,0,1,.88-.84,5,5,0,0,0,1.28-.72,6.35,6.35,0,0,0,1.24-.68,9.12,9.12,0,0,0,1.2-.68c.48,0,.64-.52,1.16-.76s.92-.68,1.6-1.12a14.75,14.75,0,0,1,1.52-1.16c.56-.32,1-1,1.48-1.24.48-.44.84-.84,1.4-1.28.32-.4,1-.8,1.36-1.4A5.43,5.43,0,0,0,87,21.16c.2-.56.8-.84,1.2-1.52S89,18.52,89.32,18c0-.48.28-.64.72-1.12a7.57,7.57,0,0,0,.88-1.6,6.92,6.92,0,0,0,.84-1.6c.08-.32.32-.44.36-.8.28-.8-.36-1-.84-1s-1.24.16-1.64,0a5.36,5.36,0,0,1-1.8,0,6.83,6.83,0,0,1-1.79,0c-.56,0-1.32.08-1.8,0-.68-.08-1.16.2-1.8,0s-1.12.2-1.8,0a5.23,5.23,0,0,1-1.76,0,10.32,10.32,0,0,0-1.88,0,2.68,2.68,0,0,1-1.48-.72c-.56-.44-.48-.92-.56-1.56a2.7,2.7,0,0,1,.52-1.6A1.8,1.8,0,0,1,77,7.48a7.31,7.31,0,0,1,2-.08c.52.16,1.4-.16,2,0a4.25,4.25,0,0,0,2,0,6.63,6.63,0,0,0,2,0,16.53,16.53,0,0,0,2,0c.8.12,1.12-.16,2,0,.84-.2,1.2.16,2,0,.48-.12,1.32.12,2,0a8.13,8.13,0,0,1,2.16.24,3.83,3.83,0,0,1,1.84,1,3,3,0,0,1,.84,2.28,2.81,2.81,0,0,1-.16,1.36,7.93,7.93,0,0,0-.48,1.48c-.2.64-.48,1-.72,1.64a8.55,8.55,0,0,1-.88,1.68,4.8,4.8,0,0,1-1,1.64c-.32.4-.72,1.08-1,1.52s-.56.76-.92,1.4a1.44,1.44,0,0,0,.24,1.72,4.75,4.75,0,0,0,1.56,1.12c.56.44.92.76,1.32,1a4.08,4.08,0,0,1,1.24,1,14.76,14.76,0,0,0,1.24,1.08c.28.6.8.6,1.2,1.16a15.77,15.77,0,0,1,1.16,1.16A5.55,5.55,0,0,0,101.8,31c.12.48.64.88,1,1.24A2,2,0,0,1,103.36,33.76ZM97.24,5.64c-.76-1-.76-1.72,0-2.28a2.25,2.25,0,0,1,1.24-.52,2,2,0,0,1,1.56.84c.4.52,1,1,1.16,1.48.24.24.64,1.08,1,1.4a2.81,2.81,0,0,1,.6,1.64c0,.48-.12,1-.52,1.16-.48.48-.92.64-1.2.52A1.59,1.59,0,0,1,99.6,9a8.2,8.2,0,0,1-1.12-1.68C97.92,6.44,97.48,6,97.24,5.64Zm9.92-.24a1.85,1.85,0,0,1-.52,1.16,4.75,4.75,0,0,1-1.16.48c-.56.2-1.24-.4-1.6-.92-.44-.28-.36-.72-.72-1.08-.2-.2-.44-.72-.68-.92-.48-.64-.84-1-1.28-1.68a1.44,1.44,0,0,1,.24-1.88A1.46,1.46,0,0,1,102.56,0,2,2,0,0,1,104,.6c.32.32.52.65.88,1l1,1.28c.24.36.64.8,1,1.36A2.09,2.09,0,0,1,107.16,5.4Z" fill="#007130"/><path d="M134,12.6a3.89,3.89,0,0,1-.36,2.12,19.45,19.45,0,0,1-.8,2.32c-.32,1-.72,1.68-.92,2.24a4.07,4.07,0,0,1-.52,1.12c-.16.48-.48.76-.56,1-.24.28-.32.92-.56,1.08-.4.2-.32.84-.64,1-.24.4-.28.84-.64,1-.2.48-.28.88-.68,1a5.94,5.94,0,0,1-.72,1,4.44,4.44,0,0,1-.72,1,7.2,7.2,0,0,0-.8.92,1.94,1.94,0,0,1-.76.92,4.11,4.11,0,0,1-.84.88,1.4,1.4,0,0,0-.84.88,2.67,2.67,0,0,0-.92.88,3,3,0,0,0-1,.88c-.36.48-.84.52-1,.92a11.69,11.69,0,0,0-1.08.88,3.39,3.39,0,0,1-1.11.84c-.28.48-.64.52-1.12.8a2.58,2.58,0,0,0-1.12.64,3.26,3.26,0,0,1-1.2.6,2.42,2.42,0,0,1-1.2.28,2.34,2.34,0,0,1-1.68-.72,2.66,2.66,0,0,1-.68-1.68,2.34,2.34,0,0,1,.36-1.24c.08-.32.72-.72.92-.92a13.54,13.54,0,0,1,1.2-.76c.16-.16.88-.56,1.12-.72.52-.32.84-.56,1.12-.76.52-.08.68-.52,1.08-.8s.88-.88,1.32-1.12c.44-.4.76-.76,1.28-1.16.27-.32.92-.68,1.23-1.24a5.38,5.38,0,0,0,1.2-1.28c.16-.52.72-.72,1.08-1.36s.72-1,1-1.4a8.86,8.86,0,0,0,1-1.44c.28-.28.36-.88.84-1.52,0-.24.48-.6.6-1.2.28-.36.44-1.16.72-1.64a11,11,0,0,1,.68-1.64,2.49,2.49,0,0,0,.32-1.24.84.84,0,0,0-.84-.8c-.88,0-1.6,0-2.2,0-.88-.08-1.56.16-2.24,0s-1.52.08-2.24,0a4.56,4.56,0,0,0-2,.24,1.91,1.91,0,0,0-.8.72c-.28.36-.6.44-.68.92-.36.8-1.08,1.2-1.4,1.8-.2.28-.68.6-.76.84a6.52,6.52,0,0,0-.76.84,7.58,7.58,0,0,1-.76.84,4.1,4.1,0,0,0-.84.8,3,3,0,0,1-1.2,1,2.9,2.9,0,0,1-1.44.44,2,2,0,0,1-1.6-.64c-.48-.52-.8-.88-.72-1.56a3.73,3.73,0,0,1,1-2,10.93,10.93,0,0,0,1.4-1.32c.2-.16.68-.88,1-1.08a5,5,0,0,1,1-1.2,2.35,2.35,0,0,0,1-1.36,10.26,10.26,0,0,0,1-1.36,5.66,5.66,0,0,1,1-1.48,4.6,4.6,0,0,1,.84-1.36,7.55,7.55,0,0,0,.8-1.4,3.27,3.27,0,0,0,.68-1.4c.08-.4.6-1.12.8-1.8a3.22,3.22,0,0,1,1-1.12c.52-.24.77-.48,1.36-.43a2.93,2.93,0,0,1,1.68.59,2.59,2.59,0,0,1,.8,1.6,3.25,3.25,0,0,1-.64,1.92c-.08.52-.28.52-.56,1.24-.28.52-.16,1.44.64,1.4,1,0,1.64.08,2.16,0a9.7,9.7,0,0,0,1.88,0c.68-.08,1.24.12,1.88,0a5.18,5.18,0,0,1,2.28.24,2.47,2.47,0,0,1,2,1.12,3.49,3.49,0,0,1,.68,1.12A4.82,4.82,0,0,1,134,12.6Z" fill="#007130"/><path d="M169.59,20.28a9.4,9.4,0,0,1-.68,1.8,16,16,0,0,1-.87,1.76c-.21.76-.8,1.12-1,1.68-.56.56-.64,1.16-1.16,1.56-.36.68-.84.92-1.24,1.48a13.26,13.26,0,0,0-1.32,1.4,7.64,7.64,0,0,1-1.44,1.32c-.64.52-1.12.84-1.52,1.2-.76.48-1,.76-1.8,1.28-.56.36-.64.52-1,.64a2.82,2.82,0,0,1-1,.64,17.81,17.81,0,0,1-2.16,1.12,7.63,7.63,0,0,1-2.16.72,2.8,2.8,0,0,1-2.2-.64,2.33,2.33,0,0,1-.8-1.68,2,2,0,0,1,.48-1.4,4.06,4.06,0,0,1,1.2-.88c.32,0,.64-.32,1.24-.56.32-.08.72-.36,1.2-.52a4.46,4.46,0,0,0,1.8-.88,8.49,8.49,0,0,1,1.72-1.12,11.69,11.69,0,0,0,1.68-1.28,8.54,8.54,0,0,0,1.6-1.4A8.1,8.1,0,0,0,161.56,25a14.47,14.47,0,0,1,1.28-1.68,6.56,6.56,0,0,0,1-1.72,6.67,6.67,0,0,0,.8-1.8,1,1,0,0,0-1-1.32,17.64,17.64,0,0,0-2.52,0,17.57,17.57,0,0,1-2.52,0,17.82,17.82,0,0,1-2.56,0c-1,0-1.88.12-2.52,0-1,0-1.72-.08-2.56,0s-1.56,0-2.52,0a17.16,17.16,0,0,1-2.52,0c-.84-.12-1.76,0-2.6,0a1.78,1.78,0,0,1-1.52-.68,2,2,0,0,1-.56-1.56,3.4,3.4,0,0,1,.52-1.6,1.84,1.84,0,0,1,1.48-.68,20.17,20.17,0,0,0,2.68,0,11.58,11.58,0,0,0,2.64,0,7.31,7.31,0,0,0,2.64,0c.8-.08,1.68,0,2.64,0a11.85,11.85,0,0,0,2.68,0c1-.12,1.88,0,2.64,0a11,11,0,0,1,2.6,0c.76.2,1.76-.16,2.64,0a13.51,13.51,0,0,1,1.88.12,5.86,5.86,0,0,1,1.83.64,3.69,3.69,0,0,1,1.36,1.4A4.81,4.81,0,0,1,170,18,4.2,4.2,0,0,1,169.59,20.28ZM145.28,7.48a1.78,1.78,0,0,1,.56-1.56c.48-.44.64-.8,1.44-.72a10.65,10.65,0,0,1,2.24,0,5.6,5.6,0,0,0,2.16,0,5.09,5.09,0,0,0,2.2,0,6.77,6.77,0,0,1,2.2,0,8.08,8.08,0,0,1,2.2,0,19.36,19.36,0,0,0,2.16,0,13.46,13.46,0,0,1,2.2,0,7,7,0,0,0,2.24,0,2.56,2.56,0,0,1,1.48.68,2.79,2.79,0,0,1,.55,1.6A1.68,1.68,0,0,1,166.36,9c-.28.6-.88.68-1.48.68a19.74,19.74,0,0,0-2.24,0c-.68,0-1.6,0-2.2,0-.84.12-1.52-.08-2.16,0a20.18,20.18,0,0,0-2.2,0c-.72,0-1.6,0-2.2,0a8.1,8.1,0,0,1-2.2,0,5.61,5.61,0,0,1-2.16,0,20.15,20.15,0,0,1-2.24,0A1.89,1.89,0,0,1,145.84,9,1.94,1.94,0,0,1,145.28,7.48Z" fill="#007130"/><path d="M202.86,12a8.15,8.15,0,0,1-.28,2.32,9.75,9.75,0,0,1-.48,1.8,18.88,18.88,0,0,1-.6,1.8,4.66,4.66,0,0,1-.72,1.76,12.92,12.92,0,0,1-.8,1.68,10.14,10.14,0,0,0-.92,1.64,12.89,12.89,0,0,0-1,1.56,10.2,10.2,0,0,1-1.12,1.56c-.36.6-.88,1-1.16,1.44-.48.52-.72,1.12-1.28,1.4-.44.6-.72,1.12-1.32,1.32-.56.4-1,1-1.4,1.28a4.65,4.65,0,0,1-1.48,1.16,10.73,10.73,0,0,1-1.52,1.12,3.84,3.84,0,0,0-1.6,1c-.64.52-1,.44-1.6.92a7.33,7.33,0,0,0-1.68.84,5.48,5.48,0,0,1-1.4.32,2.32,2.32,0,0,1-1.68-.72,4,4,0,0,1-.72-1.72,1.75,1.75,0,0,1,.36-1.24,6.65,6.65,0,0,1,.92-.92c.32-.24.84-.36,1.28-.72.52,0,.68-.48,1.28-.72.2-.2,1-.4,1.24-.76.44-.08.76-.6,1.2-.8s1-.48,1.36-1c.44-.16.64-.6,1.28-1.08a4.77,4.77,0,0,1,1.24-1.16,4.92,4.92,0,0,1,1.16-1.24c.32-.24.56-.92,1.08-1.28s.64-1,1-1.32a9.28,9.28,0,0,0,1-1.4,3.35,3.35,0,0,0,.84-1.48c.32-.56.56-.64.72-1.32,0-.32.44-.84.6-1.36a5.32,5.32,0,0,0,.52-1.4,2.66,2.66,0,0,0,.36-1.44A1.36,1.36,0,0,0,196,12.52c-.76,0-1.76,0-2.4,0-.92.12-1.68,0-2.4,0a16.82,16.82,0,0,0-2.44,0c-.8,0-1.72,0-2.4,0a8.34,8.34,0,0,1-2.44,0,6.93,6.93,0,0,1-2.4,0c-1-.08-1.6.16-2.4,0s-1.6,0-2.44,0c-.64-.08-1.52-.36-1.72-.72a2.51,2.51,0,0,1-.68-1.76,1.7,1.7,0,0,1,.6-1.6A1.85,1.85,0,0,1,176.42,8a10.89,10.89,0,0,0,2.6,0c1-.16,1.76.12,2.56,0a14,14,0,0,0,2.56,0c.64,0,1.68-.08,2.56,0,.88-.08,1.84,0,2.56,0a18.16,18.16,0,0,0,2.56,0,18,18,0,0,1,2.56,0c.8.08,1.52-.16,2.52,0a10.89,10.89,0,0,1,2.12.16c.6.28,1.56.24,2,.68A7.86,7.86,0,0,1,202.42,10,2.5,2.5,0,0,1,202.86,12Zm2.52-5.48c.12.64.76,1.08.6,1.64a1.68,1.68,0,0,1-1.76,1.68c-.76.2-1-.28-1.44-.88s-.84-1.2-1.12-1.72a6.41,6.41,0,0,0-1.24-1.6c-.72-1-.64-1.76-.2-2.24a2.12,2.12,0,0,1,1.32-.64,1.91,1.91,0,0,1,1.68.88c.64.72.84,1.12,1.16,1.52A3.71,3.71,0,0,0,205.38,6.52Zm4.44,0a2.66,2.66,0,0,1-1.16.48,1.57,1.57,0,0,1-1.36-.76c-.28-.52-.84-.92-.92-1.28s-.4-.64-.6-.92a12.74,12.74,0,0,0-1.4-1.64A1.21,1.21,0,0,1,204.5.56,1.77,1.77,0,0,1,205.74,0c.64,0,.92.37,1.4.56.28.12.4.53.88.92s.52.92,1,1.28a6.1,6.1,0,0,0,.8,1.36,4.36,4.36,0,0,1,.48,1.2A1.58,1.58,0,0,1,209.82,6.52Z" fill="#007130"/><path d="M218.8,24.68c-.36.24-.48,1-.64,1.16-.12.52-.48.68-.68,1.12s-.68.6-.76,1.08a6.55,6.55,0,0,1-.8,1c-.44.2-.56.8-.84,1a2.34,2.34,0,0,1-.92,1,2.18,2.18,0,0,1-2,.88c-.56-.16-1.16-.08-1.72-.68a2.19,2.19,0,0,1-.76-1.6c0-.76.4-1.16.84-1.84.44-.44,1-.76,1.32-1.4A3.64,3.64,0,0,0,213,24.8c.32-.56.64-1,1-1.64a4.2,4.2,0,0,0,.88-1.68,3.86,3.86,0,0,0,.48-1,2.43,2.43,0,0,1,.92-1.08c.44-.08.68-.4,1.32-.4a3.16,3.16,0,0,1,1.68.64,2,2,0,0,1,.76,1.6c.08.52-.2.6-.2,1a6.06,6.06,0,0,0-.52,1.2C219.16,24.08,218.88,24.4,218.8,24.68Zm14.8-9.24c-.4,0-1.36,0-2,0a2.15,2.15,0,0,0-1.56.4,2.27,2.27,0,0,0-.68,1.44,16.51,16.51,0,0,0,.08,2.24,4.56,4.56,0,0,0,0,2.08,12.5,12.5,0,0,0,0,2.12,6.29,6.29,0,0,0,0,2.12,12,12,0,0,1,0,2.08c-.08.72.08,1.56,0,2.12a6,6,0,0,1,0,2.08,6.84,6.84,0,0,1-.32,2.4,2.34,2.34,0,0,0-.48,1.12c-.08.16-.44.84-.76,1a12.53,12.53,0,0,1-1.92,1c-.6.08-1.6.16-2.12.24a4.29,4.29,0,0,0-1.6,0,16.29,16.29,0,0,0-1.68-.28,1.84,1.84,0,0,1-1.28-.8,2.49,2.49,0,0,1-.52-1.52,2.81,2.81,0,0,1,.6-1.72,1.5,1.5,0,0,1,1.56-.8,8.27,8.27,0,0,1,2.4.2c.88,0,1.08-.52,1.08-1.32-.12-.52.08-1.32,0-2a16.55,16.55,0,0,0,0-2,8.7,8.7,0,0,1,0-2,5.81,5.81,0,0,1,0-2c0-.76,0-1.36,0-2a16.68,16.68,0,0,1,0-2c0-.68-.08-1.48-.08-2.28a1.79,1.79,0,0,0-.64-1.16,1.94,1.94,0,0,0-1.36-.4,7.79,7.79,0,0,1-2.08-.08c-.72,0-1.16.16-1.52,0-.84-.08-2,.12-2.92,0a14.56,14.56,0,0,1-3,0,4.25,4.25,0,0,1-1.44-.68,8.87,8.87,0,0,1-.52-1.56c.12-.44.16-1.16.52-1.52a1.91,1.91,0,0,1,1.44-.68c.88,0,1.88.08,3,0s1.8,0,2.92,0c.52-.12.8.08,1.52,0a19.22,19.22,0,0,0,2-.08c.6-.16,1-.12,1.44-.68a2.26,2.26,0,0,0,.72-1.44,12.47,12.47,0,0,0,0-2.12,7,7,0,0,1,0-1.6,4,4,0,0,1,.84-1.56A2.81,2.81,0,0,1,227,3c.44,0,1.36.08,1.68.48A2.42,2.42,0,0,1,229.44,5a5.8,5.8,0,0,0,0,1.64,9.36,9.36,0,0,0,0,2.12,2.2,2.2,0,0,0,.6,1.64,2,2,0,0,0,1.48.6c.64,0,1.52,0,2,0s1.32,0,1.8.08c1.12-.08,1.84,0,2.6,0s2,0,2.88,0a1.82,1.82,0,0,1,1.56.64,2.43,2.43,0,0,1,.44,1.48,3.22,3.22,0,0,1-.52,1.56,1.89,1.89,0,0,1-1.44.68,10.28,10.28,0,0,1-2.92,0,17.31,17.31,0,0,1-2.88,0C234.44,15.52,234.12,15.4,233.6,15.44Zm9.08,15.44c-.32.64-1.12.68-1.76.72a1.42,1.42,0,0,1-1.28-.36c-.6-.16-.6-.64-1-.92a8.6,8.6,0,0,0-1.28-1.84,5.38,5.38,0,0,1-.84-1.24,4.09,4.09,0,0,1-.84-1.4,7,7,0,0,1-.8-1.4,8.23,8.23,0,0,1-.68-1.32c-.56-1-.8-1.64-.64-2,0-.76.12-1,.76-1.56a3.65,3.65,0,0,1,1.64-.56,7.13,7.13,0,0,1,1.32.36,3.39,3.39,0,0,1,1,1c.4.76.76,1.24,1.16,2a17.84,17.84,0,0,0,1.08,1.8,8.19,8.19,0,0,0,1.08,1.56c.48.36.8,1.16,1.16,1.48.32.76.56,1.36.76,1.92A1.84,1.84,0,0,1,242.68,30.88ZM244.8,7.36a8.46,8.46,0,0,1-.92,1.4c-.56.48-.8.84-1.4,1a2.24,2.24,0,0,1-1.72.36A5.71,5.71,0,0,1,239,9.72a4.1,4.1,0,0,1-1.44-1,3,3,0,0,1-1-1.44,2.42,2.42,0,0,1-.32-1.68,3.25,3.25,0,0,1,.32-1.76,2.82,2.82,0,0,1,1-1.36,6.41,6.41,0,0,1,1.44-1c.64-.15,1.2-.23,1.72-.31a11.3,11.3,0,0,1,1.72.31,2.62,2.62,0,0,1,1.4,1c.28.48.76,1.08.92,1.4.24.72.16,1.24.36,1.72A3.43,3.43,0,0,1,244.8,7.36Zm-2.52-3.28a3.65,3.65,0,0,0-1.6-.64,2.19,2.19,0,0,0-1.48.64,2,2,0,0,0-.72,1.68,1.73,1.73,0,0,0,.76,1.44,1.66,1.66,0,0,0,1.48.64,2.35,2.35,0,0,0,1.56-.52,1.81,1.81,0,0,0,.64-1.68A1.81,1.81,0,0,0,242.28,4.08Z" fill="#007130"/><path d="M272.47,3.72c.52.64.8.88.8,1.68a6.92,6.92,0,0,1-.6,1.64c-.28.4-.92.88-1.08,1.32-.32.52-.72.6-.88,1a10.92,10.92,0,0,0-.88,1,3.51,3.51,0,0,1-.88,1,1.8,1.8,0,0,1-.92,1,3.14,3.14,0,0,0-1,1c-.16.24-.8.72-.92.88-.48.44-.84.6-1.12,1s.12,1,.56,1.2a1.76,1.76,0,0,1,.72,1.52c-.12.72.08,1.6,0,2.2,0,.84-.08,1.64,0,2.2a8.1,8.1,0,0,0,0,2.2,13.43,13.43,0,0,1,0,2.2,19.94,19.94,0,0,0,0,2.2,8,8,0,0,0,0,2.2c0,.68,0,1.32,0,2.2a13.87,13.87,0,0,0,0,2.24,1.9,1.9,0,0,1-.8,1.6,2.7,2.7,0,0,1-1.68.56,2.66,2.66,0,0,1-1.68-.56,1.82,1.82,0,0,1-.8-1.6c0-.68.08-1.4,0-2.24s0-1.4,0-2.16a8.1,8.1,0,0,1,0-2.2,13,13,0,0,1,0-2.16,8.1,8.1,0,0,1,0-2.2,20.17,20.17,0,0,0,0-2.2c0-.76,0-1.68,0-2.44,0-.36-.52-1.12-1.16-.76a2.24,2.24,0,0,0-.84.64c-.56.28-.64.64-1.12.8-.36.44-.8.44-1.12.76-.44.16-.52.6-1.16.8a3.6,3.6,0,0,1-1.16.72c-.56.36-.92.52-1.16.72-.6.32-.64.4-1.2.68a2.67,2.67,0,0,1-1.2.64,4.56,4.56,0,0,1-1.32.32,1.76,1.76,0,0,1-1.59-.72,2.67,2.67,0,0,1-.69-1.64,3.24,3.24,0,0,1,.45-1.36,2.26,2.26,0,0,1,1.12-1,5.87,5.87,0,0,0,1.19-.68,10,10,0,0,1,1.16-.68c.56-.16.68-.4,1.16-.72s.84-.28,1.12-.72A7.15,7.15,0,0,0,255,17a5,5,0,0,0,1.08-.8,5.24,5.24,0,0,0,1.12-.8,9.37,9.37,0,0,0,1.08-.8c.36-.4,1-.68,1.2-1a3.79,3.79,0,0,0,1-1c.24-.28.84-.64,1.12-1,.2-.2.68-.6,1.12-1a8.55,8.55,0,0,0,1-1c.52-.16.64-.72,1-1a8.85,8.85,0,0,1,1-1.08c.28-.28.56-.72,1-1.12a2.3,2.3,0,0,0,.92-1.12c.4-.44.52-.76,1-1.2a2.33,2.33,0,0,1,2.08-1A2.21,2.21,0,0,1,272.47,3.72Z" fill="#007130"/><path d="M282.82,11.28A4.29,4.29,0,0,1,281.54,10a1.87,1.87,0,0,1-.36-1.12,2.79,2.79,0,0,1,.84-1.8,4.1,4.1,0,0,1,1.8-.76A1.86,1.86,0,0,1,285,6.6a5.55,5.55,0,0,1,1.12.64c.24.28.8.52,1,.76.12.4.64.48.88.72s.4.56,1,.8a3.3,3.3,0,0,0,1,.84c.32.24.84.56,1,.92.48.36.52.76.84,1a1.45,1.45,0,0,1,.44,1.48,3.38,3.38,0,0,1-.8,1.88,3.36,3.36,0,0,1-1.88.84,3.09,3.09,0,0,1-1.84-.8c-.28-.28-.84-.8-1.2-1.12-.52-.44-.64-.84-1.2-1.12a4,4,0,0,0-1.2-1.08C283.82,12.16,283.22,11.64,282.82,11.28Zm28.27,3c-.32.84-.92,1.28-1.12,1.84a8.86,8.86,0,0,1-1.19,1.76,7.81,7.81,0,0,1-1.24,1.72c-.6.68-.8,1.16-1.28,1.64a13.82,13.82,0,0,1-1.4,1.6,17.4,17.4,0,0,1-1.44,1.52c-.48.4-1.08,1.12-1.52,1.44-.44.68-1.24,1-1.64,1.44s-1.2.76-1.56,1.24c-.52.4-1.12.72-1.64,1.2a6.7,6.7,0,0,1-1.68,1.16A4.85,4.85,0,0,1,293.62,32a7.53,7.53,0,0,0-1.76,1,15.77,15.77,0,0,1-1.84.92,5.85,5.85,0,0,1-1.84.84c-.52.32-1.32.52-1.92.8a2.63,2.63,0,0,1-1.12.16,2.37,2.37,0,0,1-1.76-.76,2.93,2.93,0,0,1-.72-1.8,2.07,2.07,0,0,1,1-1.8,10.27,10.27,0,0,1,2-1c.24-.16.52-.2,1.12-.48a2.72,2.72,0,0,1,1.08-.52,7.31,7.31,0,0,1,1.12-.56c.32-.12.56-.52,1.08-.56.4-.2.56-.36,1.08-.6a4.71,4.71,0,0,1,1-.64c.44-.16.68-.6,1-.68a4.86,4.86,0,0,1,1-.68c.2-.16.76-.36,1-.72a2.21,2.21,0,0,0,1-.76c.16-.32.64-.32,1-.76s.64-.6,1-.8a2.59,2.59,0,0,0,.92-.8c.28-.08.4-.44.88-.84.32-.4.56-.76.88-.88.24-.32.48-.76.84-.92.28-.44,1-.88,1.36-1.52.44-.36.8-1.16,1.24-1.6a9.12,9.12,0,0,1,1.16-1.68c.52-.64.6-1,1.07-1.72.33-.48.76-.88,1-1.32.49-.4.76-.72,1.52-.6a3.74,3.74,0,0,1,1.76.64,2.39,2.39,0,0,1,.8,1.68A4.74,4.74,0,0,1,311.09,14.32Z" fill="#007130"/><path d="M339.31,22.08a2.75,2.75,0,0,1-.68,1.68,2.13,2.13,0,0,1-1.68.76,2,2,0,0,1-1.24-.28c-.36-.16-.6-.48-1.08-.72a14.46,14.46,0,0,1-1.72-1.2c-.56-.4-1.24-.76-1.72-1.12a9,9,0,0,0-1.8-1.08,10.34,10.34,0,0,0-1.68-1,.71.71,0,0,0-1,.76c0,.8,0,1.72,0,2.32a19.36,19.36,0,0,0,0,2.16c-.2.76.12,1.56,0,2.16,0,.88,0,1.36,0,2.16a6.52,6.52,0,0,0,0,2.16,9.74,9.74,0,0,1,0,2.16,6.83,6.83,0,0,0,0,2.2c0,.6-.44,1.12-.76,1.56a3.65,3.65,0,0,1-1.68.56,2.2,2.2,0,0,1-1.68-.56,1.71,1.71,0,0,1-.76-1.56,16.93,16.93,0,0,1,0-2,10.2,10.2,0,0,1,0-1.92,5.91,5.91,0,0,1,0-1.88c0-.68,0-1.36,0-1.92s0-1.2,0-1.92a6.14,6.14,0,0,0,0-1.92,9.82,9.82,0,0,1,0-1.88c.12-.68-.2-1.16,0-1.92-.16-.52.16-1.24,0-1.92a7.56,7.56,0,0,1,0-1.92,3.89,3.89,0,0,1,0-1.92,15.32,15.32,0,0,0,0-1.92,7.39,7.39,0,0,0,0-1.88,7.66,7.66,0,0,1,0-1.92c.08-.68,0-1.08,0-1.92.12-.6-.08-1.24,0-1.92a2.31,2.31,0,0,1,.76-1.6,2.42,2.42,0,0,1,1.68-.6,2.75,2.75,0,0,1,1.68.6,1.75,1.75,0,0,1,.84,1.52,11.8,11.8,0,0,1,0,2.92,11.24,11.24,0,0,1,0,2.84,25.69,25.69,0,0,1,0,3c0,1.24.6,1.6,1.64,1.2a1.79,1.79,0,0,1,1.4.32c.36.24,1,.4,1.36.64a3.48,3.48,0,0,0,1.48.8c.56.32,1,.64,1.4.8.56.28.8.64,1.4.88a15.63,15.63,0,0,0,1.8,1.2c.72.48,1.12,1.08,1.68,1.48A2.59,2.59,0,0,1,339.31,22.08Z" fill="#007130"/><path d="M365.82,23.52a7.08,7.08,0,0,1-.16,2.4,7.38,7.38,0,0,0-.36,2.4c-.24,1-.32,1.4-.52,2.36-.12.56-.36.92-.4,1.32-.2.48-.2,1-.52,1.32-.2.52-.28,1-.68,1.2-.35.36-.68.84-1,1.08s-.84.48-1,.68a3.28,3.28,0,0,1-1.15.44,5.94,5.94,0,0,1-2.48.28,3.71,3.71,0,0,1-1.48,0,5.33,5.33,0,0,0-1.56-.24c-.6-.08-.84-.44-1.24-.76a1.32,1.32,0,0,1-.52-1.44,2.68,2.68,0,0,1,.52-1.52c.4-.2.64-.72,1.36-.76,1-.08,2,.32,2.8.16a1.69,1.69,0,0,0,2-1,9.09,9.09,0,0,0,.88-2.2,2.63,2.63,0,0,1,.28-1.36,3.63,3.63,0,0,1,.25-1.44c0-1.08.24-1.8.24-2.92s.15-1.64.07-2.44a14.63,14.63,0,0,0,0-1.84,4.75,4.75,0,0,0-.53-1.72c-.28-.44-1-.68-2.31-.8a2.69,2.69,0,0,0-1.76.4,2,2,0,0,0-.8,1.08,8.36,8.36,0,0,0-.52,1.6c0,.44-.28.72-.36,1.16-.28.88-.6,1.52-.72,2.12a8,8,0,0,0-.76,2.12,17.45,17.45,0,0,1-.8,2.08c-.16.88-.76,1.28-.84,2.08a18.7,18.7,0,0,1-.92,2,18.51,18.51,0,0,0-1,2c-.52.72-.76,1.36-1.16,1.8a1.8,1.8,0,0,1-1.88.88,2,2,0,0,1-1.6-.56c-.6-.36-.64-.92-.72-1.52.12-.52.28-1,.36-1.28.16-.56.76-1.2.92-1.68a3.71,3.71,0,0,1,.84-1.68,10.72,10.72,0,0,1,.76-1.68,8.78,8.78,0,0,1,.72-1.72c.2-.76.6-1.2.68-1.76s.48-1,.6-1.76a5.38,5.38,0,0,0,.56-1.8,15.89,15.89,0,0,1,.56-1.76c.28-1-.36-1.52-.76-1.52-.68,0-1.2.28-1.68.28a21.59,21.59,0,0,0-2.32.4,1.35,1.35,0,0,1-1.4-.64,2.18,2.18,0,0,1-.56-1.52,2,2,0,0,1,1.24-2,2.55,2.55,0,0,1,1.32-.4c.56-.12,1-.16,1.76-.28.48,0,1.12-.2,1.76-.24a3.86,3.86,0,0,0,1.72-.64,2.11,2.11,0,0,0,.64-1.08,4.3,4.3,0,0,0,.32-1.8c.2-.76.24-1.68.4-2.56a12.37,12.37,0,0,0,.16-1.4,2.71,2.71,0,0,1,.56-1.24,2.14,2.14,0,0,1,1.76-.76,3.05,3.05,0,0,1,1.72.64,1.77,1.77,0,0,1,.63,1.72,6.27,6.27,0,0,1-.19,1.68,14.13,14.13,0,0,1-.24,1.68,8.17,8.17,0,0,0-.28,1.64,1.53,1.53,0,0,0,1.63,1.4,6.32,6.32,0,0,1,1.57.16,2.9,2.9,0,0,1,1.39.28,7.81,7.81,0,0,1,1.36.56c.4.12.76.6,1.16.92a8,8,0,0,1,1,1.56,7.68,7.68,0,0,1,.52,1.72,7.21,7.21,0,0,1,.2,1.84c0,.48,0,1,0,1.76A9.86,9.86,0,0,1,365.82,23.52Zm12.6-3.6c.08.56-.2,1.48-.72,1.68a2,2,0,0,1-1.72.72,1.46,1.46,0,0,1-1.52-.6,4.51,4.51,0,0,1-1-1.4c-.4-.48-.72-1.48-1.16-2-.24-.28-.6-.72-.6-1a3.93,3.93,0,0,0-.68-1,3.35,3.35,0,0,1-.64-1,3,3,0,0,1-.72-.92c-.16-.44-.44-.6-.72-.92s-.4-.52-.8-.92c-.32-.56-1-1.08-.8-1.68-.16-.48.48-1.08.8-1.48a9.79,9.79,0,0,1,1.6-.6c.52-.16.76.12,1.28.32s.52.64,1,.84a4.56,4.56,0,0,0,.88.88c.4.32.48.68.8.92a2.19,2.19,0,0,1,.8,1c.24.52.64.68.72,1,.36.52.36.84.72,1,.36.36.32.52.68,1a2.47,2.47,0,0,0,.6,1.08c.32.2.4.88.6,1.08A5,5,0,0,1,378.42,19.92ZM371,5.76c-.16-.44-.32-.68-.48-1.08a1.34,1.34,0,0,1,.56-1.12,1.38,1.38,0,0,1,1.2-.47,2.43,2.43,0,0,1,1.68.79,8.19,8.19,0,0,0,1.24,1.32c.44.4.68,1,1.16,1.32a7.29,7.29,0,0,1,.68,1.72c.16.28-.2,1-.52,1.16s-.76.64-1.16.52c-.56,0-1-.48-1.56-1-.44-.64-1-1.12-1.36-1.64A9.12,9.12,0,0,1,371,5.76Zm10-.84a1.56,1.56,0,0,1-.4,1.24,1.36,1.36,0,0,1-1.16.48c-.72.16-1-.24-1.48-.72-.24-.28-.76-.52-.88-1a2.65,2.65,0,0,1-.72-.84c-.44-.32-.84-1-1.44-1.52a1.29,1.29,0,0,1-.44-1c-.08-.6.32-.84.56-1.11.52-.2.64-.37,1.2-.37a2.12,2.12,0,0,1,1.68.68A6.09,6.09,0,0,0,379.22,2a12.1,12.1,0,0,1,1.2,1.36C380.78,4,381,4.24,381,4.92Z" fill="#007130"/><path d="M58.2,85.32a6.93,6.93,0,0,1-.6,1.88c-.31.72-.52,1.48-.88,1.68a11.94,11.94,0,0,0-.87,1.52,4.55,4.55,0,0,1-1.2,1.4c-.32.52-.92.48-1.44.48s-1-.24-1.52-.56a1.26,1.26,0,0,1-.68-1.4c0-.56.28-.8.52-1.36a17.52,17.52,0,0,0,1.28-1.8,7.08,7.08,0,0,0,1-1.92,16.73,16.73,0,0,1,1-1.36,1.82,1.82,0,0,1,1.16-.4,2.24,2.24,0,0,0,1.43.52A2.74,2.74,0,0,1,58.2,85.32Zm.48-2.48a3.67,3.67,0,0,1-1.75,0,2.89,2.89,0,0,1-1.8-.2,2.6,2.6,0,0,1-1.56-.92,3.25,3.25,0,0,1-.72-1.44c-.28-.48-.08-1-.16-1.6a10.11,10.11,0,0,0,0-2.2c0-.8,0-1.36,0-2.2a10.48,10.48,0,0,1,0-2.24,20.18,20.18,0,0,0,0-2.2c-.08-.92.08-1.48,0-2.24a6.76,6.76,0,0,0,0-2.2,14,14,0,0,1,0-2.24c.16-.8-.2-1.28,0-2.2a3.29,3.29,0,0,1,.2-1.72,4,4,0,0,1,.88-1.52c.6-.16.92-.59,1.52-.76.43,0,.91-.12,1.64-.16a6.41,6.41,0,0,0,1.75,0,6.13,6.13,0,0,1,1.72,0,7.1,7.1,0,0,1,1.8.2,2.34,2.34,0,0,1,1.6.92c.52.36.56,1.08.72,1.44a4.93,4.93,0,0,0,.16,1.6,13.46,13.46,0,0,0,0,2.2,10.42,10.42,0,0,0,0,2.24c-.08.92.12,1.6,0,2.2-.12.8.08,1.32,0,2.24a13.4,13.4,0,0,0,0,2.2,10.42,10.42,0,0,1,0,2.24,6.69,6.69,0,0,0,0,2.2c.08.76,0,1.4,0,2.2a4.94,4.94,0,0,1-.24,1.76,6.28,6.28,0,0,1-.88,1.48c-.32.6-1.12.64-1.52.76a3.38,3.38,0,0,1-1.64.16C59.68,83,59.28,82.68,58.68,82.84Zm1-3.76c.8-.08.68-.36.88-1.32a4,4,0,0,0-.48-2.28c-.4-.64-.84-.24-1.4-.36-.6.16-1.39.16-1.64.48a3,3,0,0,0-.23,2.12c0,1.24.48,1.12.87,1.36C58.32,79.48,59,79,59.68,79.08Zm-2.52-7.8a1.73,1.73,0,0,0,1.52.2,1.5,1.5,0,0,0,1.6-.28c.52-.48.2-1,.28-1.52-.08-.36.24-1-.24-1.44a1.58,1.58,0,0,0-1.64-.4c-.68-.08-1.44,0-1.64.36a2.82,2.82,0,0,0-.23,1.48A1.65,1.65,0,0,0,57.16,71.28ZM56.81,62a6,6,0,0,0,.23,2,2.16,2.16,0,0,0,1.64.32c.52-.08,1.28.2,1.52-.36.44-.56.2-1.44.36-1.92,0-1.08-.32-1.4-.88-1.32s-1.48,0-2,0C56.85,60.56,56.72,60.84,56.81,62Zm8.07,24.92a4.35,4.35,0,0,1,.68,2c-.2.48-.28,1.28-.68,1.48a1.44,1.44,0,0,1-1.52.6c-.32.16-.64.08-1.2-.36-.2-.4-.76-.4-.84-1A4.38,4.38,0,0,1,60.6,88c-.2-.36-.56-1-.84-1.48A2.25,2.25,0,0,1,59.2,85c-.08-.6.32-.76.68-1.28.28-.24,1-.08,1.44-.24a2,2,0,0,1,1.24.16c.4.28.52.72.92,1a1.53,1.53,0,0,0,.76,1.16A1.61,1.61,0,0,0,64.88,86.88ZM88.4,73.6A14.32,14.32,0,0,0,88,75c-.44.6-.72.48-1.28.68-.8,0-1.32.2-1.88,0a3.73,3.73,0,0,1-1.76,0,5.09,5.09,0,0,0-2.2,0c-.44-.28-.68.36-.84.8A3.53,3.53,0,0,0,79.6,78a7.5,7.5,0,0,0,0,2.12,11.22,11.22,0,0,1,0,1.64,9.93,9.93,0,0,0,0,3.08,11,11,0,0,1,0,3,7.88,7.88,0,0,1-.24,2c-.4.56-.48,1.4-1,1.72a5.63,5.63,0,0,1-1.6.84,3.54,3.54,0,0,1-1.8.16,12.31,12.31,0,0,1-1.76,0,13,13,0,0,1-1.8-.36,1.75,1.75,0,0,1-1-.8A1.58,1.58,0,0,1,70,90a6.82,6.82,0,0,1,.52-1.52A1.76,1.76,0,0,1,72,87.8a4.56,4.56,0,0,0,2.36.16c.6.16.6,0,.72-.76a9.92,9.92,0,0,1,0-2.88,23.7,23.7,0,0,0,0-2.92c.16-.56-.08-.84,0-1.56a5,5,0,0,1,0-2c.16-.52-.24-1-.44-1.4-.44-.48-.48-.68-.88-.72a8.58,8.58,0,0,1-2.28,0,3.59,3.59,0,0,1-1.84,0,7.71,7.71,0,0,0-1.92,0A1.4,1.4,0,0,1,66.48,75,5.7,5.7,0,0,1,66,73.6a4.05,4.05,0,0,1,.4-1.4c.2-.36.52-.52,1.28-.64a7.84,7.84,0,0,1,2.4,0,9.32,9.32,0,0,0,2.36,0,9.28,9.28,0,0,1,2.36,0,15.37,15.37,0,0,0,2.36,0,15.49,15.49,0,0,1,2.36,0,5.85,5.85,0,0,0,2.36,0,11.21,11.21,0,0,0,2.32,0,5.45,5.45,0,0,0,2.44,0,1.43,1.43,0,0,1,1.24.64C88.24,72.8,88.56,73.32,88.4,73.6Zm-22-8.52a3,3,0,0,1,.2-1.68,2.05,2.05,0,0,1,.84-1.48,3.25,3.25,0,0,1,1.68-.8A7.48,7.48,0,0,0,71,61a20.94,20.94,0,0,1,2.32,0c.4.08,1.24-.6,1.4-1.28a15.3,15.3,0,0,0,0-2.4A1.87,1.87,0,0,1,75.48,56,3.89,3.89,0,0,1,77,55.6c.28.12,1.08.24,1.48.4a1.6,1.6,0,0,1,.76,1.28,7.88,7.88,0,0,0,0,2.36c.16.68.76,1.48,1.4,1.32,1,0,1.8-.12,2.44,0l2,.2a3.28,3.28,0,0,1,1.68,1c.32.6.48,1,.72,1.4a3.91,3.91,0,0,0,.16,1.56c-.12,1,0,1.88,0,2.76.12.56-.48,1.16-.72,1.32a1.83,1.83,0,0,1-1.48.44c-.44.2-1-.16-1.48-.44-.4-.44-.88-.76-.76-1.32a5,5,0,0,0,0-2c.24-.8-.36-1-1.16-.88-1,0-1.64,0-2.48,0a17.6,17.6,0,0,1-2.52,0c-.84-.08-1.6,0-2.48,0a16.56,16.56,0,0,1-2.44,0c-.72,0-1.28.08-1.16.88a5.86,5.86,0,0,1,0,2.2c0,.56-.36.92-.72,1.32a1.6,1.6,0,0,1-1.48.4,4.33,4.33,0,0,1-1.48-.44A1.19,1.19,0,0,1,66.44,68C66.28,67.08,66.6,66,66.44,65.08Z" fill="#007130"/><path d="M120.35,84.12a2,2,0,0,1,.76,1.72,2.39,2.39,0,0,1-.72,1.72,2.66,2.66,0,0,1-1.72.76c-.72.2-1.36-.4-2-.8a5,5,0,0,0-1.64-1c-.72-.48-1.28-.68-1.68-.92-.72-.08-1.16-.72-2-1a1,1,0,0,0-1.44.76,4.17,4.17,0,0,1-.68,1.8,11.84,11.84,0,0,1-1,1.28,2.43,2.43,0,0,1-1.28,1,3.64,3.64,0,0,1-1.28.6,2.7,2.7,0,0,1-1.36.4,7.64,7.64,0,0,1-2.84.28,9,9,0,0,1-2.76-.28c-.4-.16-1.08-.2-1.32-.36s-.92-.24-1.28-.6c-.56-.12-.8-.52-1.24-.92a3.85,3.85,0,0,0-.92-1.2c-.36-.36-.36-1-.6-1.4a2.17,2.17,0,0,1-.2-1.52,3.07,3.07,0,0,1,.2-1.52,3.64,3.64,0,0,1,.6-1.36c.16-.48.6-.6.92-1.16.2-.32.84-.52,1.2-.92.52-.16.68-.48,1.4-.64.48-.12,1-.24,1.44-.4a5.65,5.65,0,0,1,1.48-.24c.44,0,1.12,0,1.48,0,.6-.16.92,0,1.92.08.72,0,1.08-.4,1-1.36,0-.56-.08-1.2-.12-1.48s-.68-1.08-1-1.08a7.55,7.55,0,0,0-1.28,0c-.36,0-.8,0-1.36,0a16.69,16.69,0,0,1-2,0c-.52-.16-1.48.16-2-.12-.76-.16-1.12,0-1.44-.28a1.25,1.25,0,0,1-1-.8,4.69,4.69,0,0,1-.36-1.24,1.68,1.68,0,0,1,.52-1.48,1.64,1.64,0,0,1,1.32-.76c.88-.12,1.92.28,2.72.16a5.5,5.5,0,0,1,1.8.08,6.84,6.84,0,0,1,1.28,0c.64,0,.92,0,1.36,0a1.25,1.25,0,0,0,1.16-1.44,10,10,0,0,0-.12-1.76,1.22,1.22,0,0,0-1.12-.8c-.56,0-1.36.08-1.88,0a4.67,4.67,0,0,1-1.84,0,4.75,4.75,0,0,1-1.8.08,8.53,8.53,0,0,1-2.84.12,4.33,4.33,0,0,1-1.52-.68c-.48-.32-.56-.76-.6-1.56a2.32,2.32,0,0,1,.44-1.44c.2-.32.56-.4,1-.64.72-.36,2-.08,2.84-.28.52-.08,1.64,0,2.32-.08.44,0,1.4,0,1.84,0,.24,0,.72,0,1.72,0a1.47,1.47,0,0,0,1.32-1.48,16.69,16.69,0,0,1,0-2.56c.08-.52.32-1.23.76-1.4a2.41,2.41,0,0,1,1.56-.44,2.26,2.26,0,0,1,1.56.48,1.82,1.82,0,0,1,.72,1.36V59a3,3,0,0,0,.32,1.72,1.61,1.61,0,0,0,1.08.48c.8.08,1,0,1.48,0a12.92,12.92,0,0,1,1.76,0,14.77,14.77,0,0,1,2.28,0,9.46,9.46,0,0,1,1.52,0,3,3,0,0,1,1.48.24,1.69,1.69,0,0,1,1,.84,2.49,2.49,0,0,1,.32,1.24,2,2,0,0,1-.6,1.52,2,2,0,0,1-1.48.6,11.52,11.52,0,0,1-2.44,0,6,6,0,0,0-1.92.08,14.48,14.48,0,0,1-1.8-.08c-.8.12-1.52,0-2,.12a1.24,1.24,0,0,0-.72,1,5.3,5.3,0,0,0,.08,1.56c0,.84.52,1.24,1.36,1.28a10.82,10.82,0,0,0,2.36-.2c.48,0,1,0,1.4-.12,1,.08,1.8-.32,2.84-.24a3.52,3.52,0,0,1,1.4.68,2,2,0,0,1,.56,1.48,2.55,2.55,0,0,1-.4,1.28,1.4,1.4,0,0,1-1,.72,16.37,16.37,0,0,1-2.56.44c-.48.12-1.2.08-1.92.2a9.73,9.73,0,0,1-1.52.12,2.59,2.59,0,0,0-1.76.44,2,2,0,0,0-.32,1.68,7.64,7.64,0,0,0,.32,2.28,3.36,3.36,0,0,0,.84.72,2.08,2.08,0,0,0,1.2.52,1.56,1.56,0,0,0,1.2.56c.2.2.64.2,1.16.52.2.2.8.24,1.12.52s.68.28,1.12.56a2.54,2.54,0,0,1,1.08.56,5.1,5.1,0,0,0,1.08.64A10.67,10.67,0,0,1,120.35,84.12Zm-15.68,1.16a1.93,1.93,0,0,0,.4-2c-.4-.64-.8-.52-1.4-.64a10.63,10.63,0,0,0-1.8-.16,17.31,17.31,0,0,0-2.52.32,2.52,2.52,0,0,0-1,.64c-.36.4-.32.44-.36,1,.08.92.48,1.2,1.28,1.56a6.35,6.35,0,0,0,2.2.36,8.51,8.51,0,0,0,1.8-.24A3.69,3.69,0,0,0,104.67,85.28Z" fill="#007130"/><path d="M153,77.48a10.17,10.17,0,0,1,.12,1.64c-.2.68,0,1.64-.2,2.2a6.69,6.69,0,0,1-.56,2.12,6.87,6.87,0,0,1-1,2A7.91,7.91,0,0,1,150,87.16c-.2.16-.68.84-1,.92-.44.4-.92.48-1.08.72a1.86,1.86,0,0,1-1.24.64c-.56.12-.8.36-1.24.48a4.53,4.53,0,0,1-1.28.36c-.48,0-.8.16-1.28.24a5.8,5.8,0,0,1-2.72.2,8.13,8.13,0,0,1-1.8-.12c-.52,0-1.2-.32-1.8-.32a8.18,8.18,0,0,1-1.68-.64,2.94,2.94,0,0,1-1.56-1,3.33,3.33,0,0,1-.92-.92c-.24-.32-.68-.64-.72-1a9,9,0,0,1-.6-2.48,6,6,0,0,1,.36-2,3.08,3.08,0,0,1,1-1.72,8.76,8.76,0,0,1,2-1.16,19.42,19.42,0,0,1,2.28-.36,6.44,6.44,0,0,1,1.64.16,4,4,0,0,1,1.52.52,9.87,9.87,0,0,1,1.4.84,6,6,0,0,1,1.16,1.12,2.4,2.4,0,0,0,.72,1,13.55,13.55,0,0,0,.72,1.32c.28.72,1,1.28,1.52,1a3.08,3.08,0,0,0,1.44-1.44c.4-.72.72-1.44,1-2a17.83,17.83,0,0,0,.32-2.32,2.27,2.27,0,0,0-.36-1.8c-.32-.4-.44-1-1-1.52a10.86,10.86,0,0,0-1-.76c-.32-.28-.76-.28-1.16-.52a4.4,4.4,0,0,0-2.48-.4,6.49,6.49,0,0,0-1.8.12c-.44,0-1.2.28-1.72.28A10.2,10.2,0,0,1,137,75a6.34,6.34,0,0,1-1.64.64,2.89,2.89,0,0,1-1.52.76,10.22,10.22,0,0,0-1.52.88,5.24,5.24,0,0,1-1.48,1,11,11,0,0,1-1.48,1.08,4.65,4.65,0,0,1-1.76.64,2.15,2.15,0,0,1-1.6-.68c-.6-.4-.56-1-.72-1.6a2.56,2.56,0,0,1,1-2A10.87,10.87,0,0,0,128,74.36c.28-.08.52-.52,1-.8s.48-.44.88-.76c.24-.36.64-.36.92-.84.08-.44.64-.36.88-.84a5.52,5.52,0,0,0,.84-.84,5,5,0,0,0,.8-.76c.2-.24.68-.64.88-.92a4.11,4.11,0,0,1,.84-.88c.48-.56.88-.68,1.24-1.36.2-.32.84-.8,1.2-1.36.68-.84,1.12-1.4.92-1.8s-.76-.56-2-.36a17.49,17.49,0,0,1-2.24.24,4.79,4.79,0,0,1-2.32.2,1.51,1.51,0,0,1-1.6-.64,2.86,2.86,0,0,1-.64-1.64c.16-.56.12-1,.56-1.48a2.14,2.14,0,0,1,1.44-.68c.48.16.88-.2,1.28-.12a5.31,5.31,0,0,0,1.6-.12,2.69,2.69,0,0,0,1.64-.16,11.72,11.72,0,0,0,1.64-.2,4.91,4.91,0,0,0,1.56-.2,7.58,7.58,0,0,0,1.56-.2,8.26,8.26,0,0,1,1.56-.24c.52.12.72-.08,1.32-.08a2.53,2.53,0,0,1,1.88.76,3.31,3.31,0,0,1,.8,1.84,2.48,2.48,0,0,1-.64,1.84,6.41,6.41,0,0,1-1.2,1.52c-.36.36-.4.72-.8,1-.44.52-.76.84-.88,1-.44.48-.64.8-.84,1a1.89,1.89,0,0,0-.84,1,4,4,0,0,0-.88,1,7.65,7.65,0,0,0-.88,1c-.28.24-.44.36-.52.6s.16.76.92.56a12.08,12.08,0,0,1,2.84-.44,14.07,14.07,0,0,0,2.24.16c.84.32,1.64.28,2.24.52a8.49,8.49,0,0,1,2,1c.76.36,1,1,1.76,1.48a4,4,0,0,1,1,1.32,8.18,8.18,0,0,1,.68,1.44A6.37,6.37,0,0,0,153,77.48Zm-14.12,9a.8.8,0,0,0,.72-.88,5.71,5.71,0,0,0-.64-1.48c-.2-.56-.52-.52-.92-.92a3.44,3.44,0,0,0-1.36-.36,1.3,1.3,0,0,0-1.32,1.4,1.11,1.11,0,0,0,.48,1.24c.16.48.76.36,1.24.68A6.32,6.32,0,0,0,138.84,86.44Z" fill="#007130"/><path d="M170.2,88.76a2.84,2.84,0,0,1-2.24.88,2.71,2.71,0,0,1-2.24-.88,3.62,3.62,0,0,1-.92-2.2,4,4,0,0,1,.92-2.2,3.19,3.19,0,0,1,4.48,0,2.67,2.67,0,0,1,.92,2.2A3.25,3.25,0,0,1,170.2,88.76Zm-5.2-28c.08-.32,0-1,.24-1.4,0-.36.52-.64.64-1a4,4,0,0,1,2.2-.8,4.9,4.9,0,0,1,2,.76,2.89,2.89,0,0,1,.88,2c-.2.72.12,1.2,0,1.88a3.34,3.34,0,0,1-.16,1.64,6.19,6.19,0,0,1-.12,1.6,7.57,7.57,0,0,0-.12,1.56c0,1.12-.16,1.8-.16,2.8a11.43,11.43,0,0,0-.12,2.84,16.52,16.52,0,0,1-.12,2.84,9.84,9.84,0,0,0-.12,2.84,2.65,2.65,0,0,1-.56,2.28,1.88,1.88,0,0,1-1.48.44c-.92-.08-1.72-.24-1.76-1.12a3.53,3.53,0,0,1-.2-1.6,14.55,14.55,0,0,1-.08-2.6c0-.64-.08-1.8-.12-2.56a6,6,0,0,1-.08-1.72,11.83,11.83,0,0,0-.08-1.76,11.23,11.23,0,0,1-.12-2.24c0-.8-.16-1.64-.16-2.24a9.58,9.58,0,0,0-.2-2.2A12.59,12.59,0,0,1,165,60.8Z" fill="#007130"/><path d="M197.2,67a1.33,1.33,0,0,0,.52,1.48,7.3,7.3,0,0,1,.72,1.24,15.44,15.44,0,0,1,0,2.72c0,.8,0,1.88,0,2.64a14.55,14.55,0,0,0,0,2.64c.12.92,0,1.84,0,2.68s.08,1.8,0,2.68a9.71,9.71,0,0,1,0,2.64,20,20,0,0,0,0,2.68c.16.8-.2,2,0,2.72.12.48-.32.88-.76,1.24s-1,.6-1.48.4a1.5,1.5,0,0,1-1.48-.4c-.64-.36-.76-.52-.76-1.24a9.14,9.14,0,0,1,0-2.32c-.08-.52.12-1.36,0-2.24-.12-.68.08-1.64,0-2.24a13.87,13.87,0,0,1,0-2.24,10.42,10.42,0,0,0,0-2.24,6.93,6.93,0,0,1,0-2.24c.08-.76,0-1.56,0-2.4a6.48,6.48,0,0,0-.16-1.24s-.08,0-.12,0c-.36.48-.8,1-1,1.24-.56.4-.76.64-1.4.52a1.9,1.9,0,0,1-1.56-.64,2.55,2.55,0,0,1-.68-1.44,3.17,3.17,0,0,1,.44-1.44c.16-.64.52-.76.88-1.4.36-.32.52-1,.84-1.48s.24-1,.68-1.36c.4-.68.32-.8.68-1.48a14.11,14.11,0,0,0,.76-1.88,7.85,7.85,0,0,0,.72-1.84,11.59,11.59,0,0,1,.64-1.88,16,16,0,0,1,.52-1.92,7.32,7.32,0,0,1,.52-2c.08-.44.28-1.08.84-1.16a2.42,2.42,0,0,1,1.4-.4,3.62,3.62,0,0,1,1.68.52,2.09,2.09,0,0,1,.76,1.52c.08.44-.28,1.16-.28,1.4a1.87,1.87,0,0,0-.32,1.24,10,10,0,0,1-.64,2,6.57,6.57,0,0,0-.56,1.56,4.69,4.69,0,0,0-.56,1.52C197.68,65.56,197.68,66.2,197.2,67Zm29.36,22a3.57,3.57,0,0,1-.64,1.6,2.2,2.2,0,0,1-1.64.64,24.09,24.09,0,0,0-2.52-.08,19.11,19.11,0,0,1-2.52-.36,10,10,0,0,1-2.44-.52c-.76-.28-1.76-.44-2.4-.72s-.84-.12-1.36-.48-.8-.2-1.32-.56c-.56-.08-.8-.36-1.64-.8-.44-.28-1.6-.12-1.8.4-.44.28-.68.72-1.08.84-.2.08-.72.32-.8.6a10.36,10.36,0,0,1-1.56,1,9.4,9.4,0,0,1-1.68.84,11.56,11.56,0,0,1-1.76.56,4.1,4.1,0,0,1-1.44-.64,2.41,2.41,0,0,1-.6-1.48,1.13,1.13,0,0,1,.4-1.16,2,2,0,0,1,1-.76c.44-.4,1.12-.36,1.6-.76a3,3,0,0,0,1.36-.72,3.38,3.38,0,0,0,1.36-.92c.36-.24.32-1-.28-1.44-.92-.6-1-1.2-1.56-1.6a2.51,2.51,0,0,1-.76-1.56,3.06,3.06,0,0,1,.68-1.4,2.67,2.67,0,0,1,1.48-.56,9.36,9.36,0,0,1,1.72.8c.4.36.6,1,1.36,1.36.08.24.36.2.68-.08a3.14,3.14,0,0,0,.8-1.2c.48-1.2.4-1.76-.24-1.88-.84-.16-2,.16-2.8,0a4,4,0,0,1-2-.2,2.92,2.92,0,0,1-2.44-2.36,3.48,3.48,0,0,1-.16-1.52,7.13,7.13,0,0,1,0-1.6,7.47,7.47,0,0,1,0-1.64,8.69,8.69,0,0,1,.2-1.64,4.1,4.1,0,0,1,.88-1.4c.48-.52,1-.44,1.52-.76a15.27,15.27,0,0,0,1.72-.16,13.14,13.14,0,0,1,2.88,0,3.92,3.92,0,0,0,1.4-.32,1.68,1.68,0,0,0,.28-1.68,5.49,5.49,0,0,0-1.52-.4,7.68,7.68,0,0,1-2.6,0,4.7,4.7,0,0,1-2.12,0,21.51,21.51,0,0,0-2.2,0,1.06,1.06,0,0,1-1.24-.64c-.08-.32-.48-.8-.4-1.36-.16-.4.32-1,.4-1.36a3.38,3.38,0,0,1,1.24-.68,13.38,13.38,0,0,0,2.2,0,18.74,18.74,0,0,1,2.12,0,18.5,18.5,0,0,0,2.6,0c.16.2,1,0,1.24-.64.36-.36.32-1.24.28-2.12s.16-1.4.72-1.72a3.71,3.71,0,0,1,1.52-.43c.52.16,1,.23,1.52.43a1.82,1.82,0,0,1,.72,1.72c0,1,0,1.68.48,2.12s1,.56,1.32.64a26.28,26.28,0,0,0,3.08,0,10.55,10.55,0,0,0,2.52,0c.68,0,1.72,0,2.56,0a2.84,2.84,0,0,1,1.24.64,2.17,2.17,0,0,1,.44,1.4,3.78,3.78,0,0,1-.44,1.36,3.33,3.33,0,0,1-1.24.64,13.69,13.69,0,0,0-2.56,0c-1-.08-1.76,0-2.52,0-.72-.16-1.68.2-2.8,0-.6.16-1.12.08-1.44.28a3.3,3.3,0,0,0-.4,1.84c.48.48.84.32,1.56.28,1.2,0,2.16-.08,3,0a3.31,3.31,0,0,1,1.84.2,2.46,2.46,0,0,1,1.64.92,3.11,3.11,0,0,1,.68,1.36c0,.52.32,1,.16,1.48a7.49,7.49,0,0,1,0,1.64,2.72,2.72,0,0,0,0,1.6,2.56,2.56,0,0,1-.2,1.68,4,4,0,0,1-.84,1.44,4.32,4.32,0,0,1-1.68.8,3.91,3.91,0,0,1-1.84.16,2,2,0,0,1-1.44,0c-.52-.08-1.32.2-1.92,0-.4-.16-.84,0-1.36.36-.56.12-.56.32-.84.76-.32,1.08-.6,1.52-.72,2a6.83,6.83,0,0,1-.84,1.88c-.36.64-.16,1.44.28,1.48a3.75,3.75,0,0,0,1.6.6,1.89,1.89,0,0,0,1.32.44,3.64,3.64,0,0,1,1.36.4c.32.32,1,.2,1.36.28a1.69,1.69,0,0,0,1.36.24,24,24,0,0,0,2.8.32,7.67,7.67,0,0,1,1.88.12,1.76,1.76,0,0,1,1.56.68A2.14,2.14,0,0,1,226.56,89ZM210.48,71.08c.12-.68-.84-.64-1.44-.72a15.37,15.37,0,0,0-1.92,0c-.72.2-1,.28-1.12.84a8.65,8.65,0,0,0,0,2c.08.52.44,1,1.12.88a9,9,0,0,0,2.08,0,1.34,1.34,0,0,0,1-.68A8.63,8.63,0,0,0,210.48,71.08Zm4.48.72c-.08.72-.28,1.44.12,1.92a1.75,1.75,0,0,0,1.12.4,15.86,15.86,0,0,0,2.4,0,1.07,1.07,0,0,0,1.12-.88,17.26,17.26,0,0,0,0-2c.12-.52-.4-.68-1.12-.84s-1.08.2-2.32,0C215.56,70.52,215.16,70.72,215,71.8Z" fill="#007130"/><path d="M263.78,86.48a2.31,2.31,0,0,1-1.2,2,13.26,13.26,0,0,0-1.72.48,13.74,13.74,0,0,0-2.24.32,18.78,18.78,0,0,1-2.32.2,12.38,12.38,0,0,0-1.8,0c-.68-.08-1,.16-1.48,0a5.11,5.11,0,0,0-1.44-.28,1.87,1.87,0,0,1-1.36-.56,1.49,1.49,0,0,1-1.16-.92c-.48-.24-.52-.6-.84-1.12a3.77,3.77,0,0,1-.52-1.32,7.56,7.56,0,0,1-.4-2.76,4.55,4.55,0,0,0-.36-2.2c0-.24-.52-.72-1-.72a4.63,4.63,0,0,0-2.32.56,2,2,0,0,0-1,.6,2.75,2.75,0,0,1-1,.72,3.52,3.52,0,0,1-1,.88,3.23,3.23,0,0,0-.92.88,2.13,2.13,0,0,0-.88.92c-.24.2-.4.56-.8.8s-.72.44-.84.88c-.2.28-.68.64-.8.88-.4.4-.64.52-.8.88s-.56.44-.84.92a1.88,1.88,0,0,1-1.92.84,1.57,1.57,0,0,1-1.6-.64c-.64-.32-.56-1-.72-1.56a3.72,3.72,0,0,1,.76-1.8,4.46,4.46,0,0,1,1-1c.28-.48.8-.68,1-1s.72-.52,1-1c.48-.32.72-.84,1-1a7.58,7.58,0,0,1,1-1,5.85,5.85,0,0,0,1-1c.16-.48.56-.48,1-1,.4-.2.6-.72,1-1s.44-.8,1-1c.48-.52.52-.48,1-1,.12-.4.6-.44.92-1,.4-.24.48-.52,1-1a2.49,2.49,0,0,0,.92-1c.28-.16.52-.68,1-1a2.33,2.33,0,0,0,.68-.8c.08-.08,0-.32-.08-.48s-.44-.28-1-.16a3.49,3.49,0,0,1-1.52.24c-.68.12-1,0-1.36.24a21.32,21.32,0,0,1-2.64.44c-.88,0-1.8.36-2.64.44-1.12.08-1.8-.16-2-.76a2.82,2.82,0,0,1-.52-1.6,1.91,1.91,0,0,1,.44-1.36,2,2,0,0,1,1.4-.76,11,11,0,0,0,1.8-.28,13.41,13.41,0,0,0,1.76-.28c.56-.12,1.32-.16,1.76-.28s1.08-.08,1.76-.24a5.8,5.8,0,0,0,1.76-.28c.72-.2,1.32-.12,1.76-.28a4.45,4.45,0,0,1,1.76-.24c.48.12,1.2-.36,1.8-.28.36-.08.8.12,1.16,0,.72,0,1.24.56,1.76.92a3.78,3.78,0,0,1,.72,1.84c-.16,1-.24,1.56-.8,2-.36.2-.52.76-.84.88-.48.12-.48.72-.84.84a9.11,9.11,0,0,1-.84.88,5.89,5.89,0,0,1-.88.88,5.56,5.56,0,0,1-.84.84,4.77,4.77,0,0,0-.8.88,4.36,4.36,0,0,0-.72.76c-.16.28,0,.8.8.64a4.94,4.94,0,0,1,1.72.16,4.13,4.13,0,0,1,1.44,1c.28.64.72,1.24,1,1.84A4.72,4.72,0,0,1,251.9,81c.2.88,0,1.72.16,2.24a1.74,1.74,0,0,0,.64,1.32,3.07,3.07,0,0,0,1.72.44,2.89,2.89,0,0,0,1.64-.08,3.42,3.42,0,0,0,1.6-.16,6,6,0,0,1,1.56-.28,9.19,9.19,0,0,0,1.68-.28,3.75,3.75,0,0,1,2.16.68A1.64,1.64,0,0,1,263.78,86.48ZM239.9,57.2a1.5,1.5,0,0,1,1.4-.76c.48-.19,1.08.16,1.68,0a7.39,7.39,0,0,0,2.08.4,17.37,17.37,0,0,0,2.12.48c.76.2,1.08.36,1.56.44a6,6,0,0,1,2.24.84c.56.56,1.24,1,1.16,1.88-.16.64-.08,1.16-.64,1.6a2,2,0,0,1-1.52.72,13.65,13.65,0,0,1-2.28-.64,3.85,3.85,0,0,1-2-.48,7.37,7.37,0,0,1-1.8-.44,7.47,7.47,0,0,1-1.76-.32,7,7,0,0,1-2.16-.84c-.44-.16-.68-1-.68-1.44A1.5,1.5,0,0,1,239.9,57.2Z" fill="#007130"/><path d="M293.94,77.48a10.17,10.17,0,0,1,.12,1.64c-.2.68,0,1.64-.2,2.2a6.69,6.69,0,0,1-.56,2.12,6.87,6.87,0,0,1-1,2A7.91,7.91,0,0,1,291,87.16c-.2.16-.68.84-1,.92-.44.4-.92.48-1.08.72a1.86,1.86,0,0,1-1.24.64c-.56.12-.8.36-1.24.48a4.53,4.53,0,0,1-1.28.36c-.48,0-.8.16-1.28.24a5.8,5.8,0,0,1-2.72.2,8.13,8.13,0,0,1-1.8-.12c-.52,0-1.2-.32-1.8-.32a8.18,8.18,0,0,1-1.68-.64,2.94,2.94,0,0,1-1.56-1,3.33,3.33,0,0,1-.92-.92c-.24-.32-.68-.64-.72-1a9,9,0,0,1-.6-2.48,6,6,0,0,1,.36-2,3.08,3.08,0,0,1,1-1.72,8.76,8.76,0,0,1,2-1.16A19.42,19.42,0,0,1,277.7,79a6.44,6.44,0,0,1,1.64.16,4,4,0,0,1,1.52.52,9.87,9.87,0,0,1,1.4.84,6,6,0,0,1,1.16,1.12,2.4,2.4,0,0,0,.72,1,13.55,13.55,0,0,0,.72,1.32c.28.72,1,1.28,1.52,1a3.08,3.08,0,0,0,1.44-1.44c.4-.72.72-1.44,1-2a17.83,17.83,0,0,0,.32-2.32,2.27,2.27,0,0,0-.36-1.8c-.32-.4-.44-1-1-1.52a10.86,10.86,0,0,0-1-.76c-.32-.28-.76-.28-1.16-.52a4.4,4.4,0,0,0-2.48-.4,6.49,6.49,0,0,0-1.8.12c-.44,0-1.2.28-1.72.28A10.2,10.2,0,0,1,278,75a6.34,6.34,0,0,1-1.64.64,2.89,2.89,0,0,1-1.52.76,10.22,10.22,0,0,0-1.52.88,5.33,5.33,0,0,1-1.47,1,11.22,11.22,0,0,1-1.49,1.08,4.52,4.52,0,0,1-1.76.64,2.15,2.15,0,0,1-1.59-.68c-.6-.4-.56-1-.72-1.6a2.56,2.56,0,0,1,1-2A10.87,10.87,0,0,0,269,74.36c.28-.08.51-.52,1-.8s.47-.44.88-.76c.24-.36.63-.36.91-.84.09-.44.64-.36.88-.84a5.1,5.1,0,0,0,.84-.84,5,5,0,0,0,.8-.76c.2-.24.68-.64.88-.92a4.11,4.11,0,0,1,.84-.88c.48-.56.88-.68,1.24-1.36.2-.32.84-.8,1.2-1.36.68-.84,1.12-1.4.92-1.8s-.76-.56-2-.36a17.49,17.49,0,0,1-2.24.24,4.79,4.79,0,0,1-2.32.2,1.51,1.51,0,0,1-1.6-.64A2.93,2.93,0,0,1,270.5,61c.16-.56.12-1,.57-1.48a2.09,2.09,0,0,1,1.43-.68c.48.16.88-.2,1.28-.12a5.31,5.31,0,0,0,1.6-.12,2.69,2.69,0,0,0,1.64-.16,11.72,11.72,0,0,0,1.64-.2,4.91,4.91,0,0,0,1.56-.2,7.58,7.58,0,0,0,1.56-.2,8.26,8.26,0,0,1,1.56-.24c.52.12.72-.08,1.32-.08a2.53,2.53,0,0,1,1.88.76,3.31,3.31,0,0,1,.8,1.84A2.48,2.48,0,0,1,286.7,62a6.41,6.41,0,0,1-1.2,1.52c-.36.36-.4.72-.8,1-.44.52-.76.84-.88,1-.44.48-.64.8-.84,1a1.89,1.89,0,0,0-.84,1,4,4,0,0,0-.88,1,7.65,7.65,0,0,0-.88,1c-.28.24-.44.36-.52.6s.16.76.92.56a12.08,12.08,0,0,1,2.84-.44,14.07,14.07,0,0,0,2.24.16c.84.32,1.64.28,2.24.52a8.49,8.49,0,0,1,2,1c.76.36,1,1,1.76,1.48a4,4,0,0,1,1,1.32,8.18,8.18,0,0,1,.68,1.44A6.37,6.37,0,0,0,293.94,77.48Zm-14.12,9a.8.8,0,0,0,.72-.88,5.71,5.71,0,0,0-.64-1.48c-.2-.56-.52-.52-.92-.92a3.44,3.44,0,0,0-1.36-.36,1.3,1.3,0,0,0-1.32,1.4,1.11,1.11,0,0,0,.48,1.24c.16.48.76.36,1.24.68A6.32,6.32,0,0,0,279.82,86.44Z" fill="#007130"/><path d="M311.18,88.76a2.84,2.84,0,0,1-2.24.88,2.71,2.71,0,0,1-2.24-.88,3.62,3.62,0,0,1-.92-2.2,4,4,0,0,1,.92-2.2,3.19,3.19,0,0,1,4.48,0,2.67,2.67,0,0,1,.92,2.2A3.25,3.25,0,0,1,311.18,88.76Zm-5.2-28c.08-.32,0-1,.24-1.4,0-.36.52-.64.64-1a4,4,0,0,1,2.2-.8,4.9,4.9,0,0,1,2,.76,2.89,2.89,0,0,1,.88,2c-.2.72.12,1.2,0,1.88a3.34,3.34,0,0,1-.16,1.64,6.19,6.19,0,0,1-.12,1.6,7.57,7.57,0,0,0-.12,1.56c0,1.12-.16,1.8-.16,2.8a11.43,11.43,0,0,0-.12,2.84,16.52,16.52,0,0,1-.12,2.84,9.84,9.84,0,0,0-.12,2.84,2.65,2.65,0,0,1-.56,2.28,1.88,1.88,0,0,1-1.48.44c-.92-.08-1.72-.24-1.76-1.12a3.53,3.53,0,0,1-.2-1.6,14.55,14.55,0,0,1-.08-2.6c0-.64-.08-1.8-.12-2.56a6,6,0,0,1-.08-1.72,11.83,11.83,0,0,0-.08-1.76,11.23,11.23,0,0,1-.12-2.24c0-.8-.16-1.64-.16-2.24a9.58,9.58,0,0,0-.2-2.2A12.59,12.59,0,0,1,306,60.8Z" fill="#007130"/></g></g></svg>