<svg xmlns="http://www.w3.org/2000/svg" width="408.42" height="34.06" viewBox="0 0 408.42 34.06"><title>ttl_movie</title><g id="レイヤー_2" data-name="レイヤー 2"><g id="レイヤー_2-2" data-name="レイヤー 2"><path d="M47,10.92a2.44,2.44,0,0,1-.24,1.13,3.79,3.79,0,0,1-.6,1.1,12,12,0,0,1-.77,1c-.22.43-.62.58-.74.84a2.17,2.17,0,0,0-.53.55c-.1.27-.43.46-.6.61s-.36.5-.63.55c-.33.24-.4.38-.64.45a2.85,2.85,0,0,1-.8.22,1.15,1.15,0,0,1-.93-.43,1.86,1.86,0,0,1-.41-1c0-.39,0-.53.19-.72.22-.36.38-.39.51-.55a3.06,3.06,0,0,1,.79-.7c.36-.31.48-.51.86-.86.19-.24.65-.61.72-.89a.48.48,0,0,0,0-.63,1.73,1.73,0,0,0-1-.17c-.36,0-.64,0-.89,0-.57,0-1.22-.07-1.7,0s-1.22,0-1.68,0c-.67.08-1.2,0-1.73,0s-1.15-.1-1.7,0-1.23,0-1.73,0a8,8,0,0,1-1.7,0,5.29,5.29,0,0,1-1.73,0,1.59,1.59,0,0,1-.94-.41,1.69,1.69,0,0,1-.36-1,1.63,1.63,0,0,1,.36-1,1.58,1.58,0,0,1,.94-.43c.57,0,1.2,0,1.85,0a5.67,5.67,0,0,0,1.8,0c.64-.1,1.22.07,1.8,0a15.33,15.33,0,0,0,1.8,0c.5,0,1.2-.08,1.82,0s1.27,0,1.8,0a13.26,13.26,0,0,0,1.8,0c.6-.08,1.2,0,1.8,0,.24,0,.79.09,1.11.09a5.09,5.09,0,0,1,1,.39c.29.09.48.53.77.69A1.4,1.4,0,0,1,47,10.92Zm-8.36,3.41a9.82,9.82,0,0,0,0,1.17c-.07.41,0,.84-.05,1.11a8.19,8.19,0,0,0-.12,1.1c0,.31-.14.63-.19,1.08a7.63,7.63,0,0,0-.29,1.06c-.12.45-.34.65-.36,1s-.31.62-.48,1a4.68,4.68,0,0,1-.55,1,2.06,2.06,0,0,1-.65.89c-.29.28-.43.62-.82,1a4.36,4.36,0,0,1-.91.86c-.43.29-.6.53-1,.77s-.75.5-1.08.67a1.81,1.81,0,0,1-.87.24,1.5,1.5,0,0,1-1-.43,1.75,1.75,0,0,1-.44-1,1.7,1.7,0,0,1,.27-.79,1.93,1.93,0,0,1,.65-.6,5.58,5.58,0,0,0,.93-.65c.41-.09.58-.45.89-.69s.43-.48.79-.79.46-.58.7-.89c.05-.27.29-.34.41-.67a4.71,4.71,0,0,0,.36-.7,1.44,1.44,0,0,0,.26-.72,1.34,1.34,0,0,0,.24-.74,9.5,9.5,0,0,1,.26-1.52c0-.43.1-1.1.1-1.56a11.66,11.66,0,0,1,0-1.17,1,1,0,0,1,.46-.92,1.64,1.64,0,0,1,1-.31c.41.08.75,0,1,.31A1.44,1.44,0,0,1,38.68,14.33Z" fill="#fff"/><path d="M67.68,12.31a2.93,2.93,0,0,1-.16,1.39c-.12.48-.24.72-.29,1.08s-.31.79-.36,1.08a9,9,0,0,1-.43,1.06c-.27.24-.27.77-.48,1a8.54,8.54,0,0,1-.56,1,3.42,3.42,0,0,1-.6.94,6.29,6.29,0,0,1-.67.93,5.78,5.78,0,0,0-.69.87,6,6,0,0,0-.77.84,4.92,4.92,0,0,1-.79.79c-.29.34-.63.55-.84.77a4,4,0,0,1-.89.72,2,2,0,0,1-.91.65,11,11,0,0,0-.94.62,2.77,2.77,0,0,1-1,.55,9.36,9.36,0,0,1-1,.51,2.83,2.83,0,0,1-.84.19,1.77,1.77,0,0,1-1-.43,1.8,1.8,0,0,1-.43-1,2,2,0,0,1,.21-.74c.17-.34.44-.41.56-.55l.79-.43a3.2,3.2,0,0,0,.74-.44c.22,0,.43-.21.75-.45a6.69,6.69,0,0,1,.72-.48,2.51,2.51,0,0,0,.81-.63c.15-.26.51-.33.77-.64s.5-.51.74-.7a4.27,4.27,0,0,0,.7-.74c.22-.12.31-.41.65-.75a3.47,3.47,0,0,1,.6-.81,3.24,3.24,0,0,1,.57-.85c.15-.19.24-.62.51-.88s.26-.55.41-.77a4.87,4.87,0,0,0,.38-.84c.12-.31.22-.55.31-.84a5,5,0,0,0,.22-.87c0-.62-.53-.79-.91-.79-.56,0-.92.05-1.44,0s-1,.05-1.44,0a14,14,0,0,0-1.47,0l-1.44,0c-.55.07-1,0-1.46,0s-1-.08-1.44,0-1,0-1.44,0a5.56,5.56,0,0,1-1.47,0,1.5,1.5,0,0,1-1-.43,1.52,1.52,0,0,1-.41-1,1.75,1.75,0,0,1,.36-1,1.31,1.31,0,0,1,.94-.4,15.48,15.48,0,0,1,1.56,0c.48,0,1-.09,1.54,0a11.14,11.14,0,0,1,1.53,0,3.45,3.45,0,0,0,1.54,0c.55-.1,1,.09,1.53,0s.89,0,1.54,0a15,15,0,0,1,1.54,0c.52,0,1.08,0,1.51,0a2.93,2.93,0,0,1,1.27.07,4.64,4.64,0,0,1,1.1.5,1.87,1.87,0,0,1,.84.89C67.64,11.45,67.59,11.86,67.68,12.31Zm3.6-3.46a7.91,7.91,0,0,1-.55.85,1.66,1.66,0,0,1-.84.57,1.78,1.78,0,0,1-1,.22,2,2,0,0,1-1-.22c-.29-.19-.63-.26-.87-.57a2.36,2.36,0,0,1-.55-.85,2.07,2.07,0,0,1-.21-1,2.24,2.24,0,0,1,.21-1c.17-.41.39-.5.58-.84a4.78,4.78,0,0,1,.84-.58,2.61,2.61,0,0,1,1-.19,2.35,2.35,0,0,1,1,.19,1.48,1.48,0,0,1,.84.58,2.4,2.4,0,0,1,.55.84,7.42,7.42,0,0,1,.2,1.06A2.38,2.38,0,0,1,71.28,8.85Zm-1.12-1a1.45,1.45,0,0,0-.39-.93,1,1,0,0,0-.93-.39,1.34,1.34,0,0,0-.92.39,1.1,1.1,0,0,0-.38.93,1,1,0,0,0,.38.92,1,1,0,0,0,.92.4.94.94,0,0,0,.93-.38A1.83,1.83,0,0,0,70.16,7.82Z" fill="#fff"/><path d="M78.24,18.6a1.53,1.53,0,0,1-.48,1,1.72,1.72,0,0,1-1,.34,1.54,1.54,0,0,1-1-.34,1.14,1.14,0,0,1-.46-1c0-.43,0-.79,0-1.2a9.27,9.27,0,0,0,0-1.18c0-.48,0-.77,0-1.17a4,4,0,0,1,0-1.2,5.82,5.82,0,0,1,0-1.18,3.89,3.89,0,0,1,0-1.18,9.6,9.6,0,0,0,0-1.2,5.36,5.36,0,0,1,0-1.2,1.49,1.49,0,0,1,.46-1,1.41,1.41,0,0,1,1-.33c.46.07.77.07,1,.33a1.41,1.41,0,0,1,.48,1,10.09,10.09,0,0,1,0,1.23c0,.46,0,.86,0,1.17a3.89,3.89,0,0,0,0,1.18,5.79,5.79,0,0,1,0,1.18,11.89,11.89,0,0,0,0,1.2,3.78,3.78,0,0,0,0,1.17c0,.34,0,.7,0,1.18A8,8,0,0,0,78.24,18.6Zm9.22-2.74c0,.51,0,.87,0,1.23a2.61,2.61,0,0,1-.12,1.2,9.23,9.23,0,0,0-.19,1.17c0,.39-.31.87-.31,1.18-.22.46-.17.79-.41,1.13s-.41.81-.53,1.08a6.92,6.92,0,0,0-.65,1,3.43,3.43,0,0,1-.76,1,2.77,2.77,0,0,1-1,.93c-.2.27-.46.27-.56.48a4.48,4.48,0,0,0-.57.43,5.27,5.27,0,0,0-.6.41,2,2,0,0,0-.63.39,7.48,7.48,0,0,1-1.24.52,1.5,1.5,0,0,1-1.42-.36,1.38,1.38,0,0,1-.5-1,1.51,1.51,0,0,1,.26-.77c.07-.09.46-.36.65-.52a2.58,2.58,0,0,1,.65-.36,3.79,3.79,0,0,0,.64-.39c.1-.09.46-.26.6-.38s.34-.24.58-.46a3.21,3.21,0,0,0,.67-.65c.31-.12.39-.48.6-.72a9,9,0,0,1,.53-.79,8.51,8.51,0,0,1,.43-.84c.15-.45.19-.67.41-1.2a2.48,2.48,0,0,0,.29-1.27c0-.34.12-.84.12-1.3a6.06,6.06,0,0,0,0-1.29c0-.6,0-1.06,0-1.71a17,17,0,0,0,0-1.75c0-.58.07-1.08,0-1.73,0-.48,0-1.22,0-1.77a1.08,1.08,0,0,1,.48-.94,1.41,1.41,0,0,1,1-.31,1.72,1.72,0,0,1,1,.33,1.08,1.08,0,0,1,.46.92c0,.69,0,1.34,0,1.82,0,.67,0,1.23,0,1.78s0,1.29,0,1.8S87.41,15.29,87.46,15.86Z" fill="#fff"/><path d="M112.48,18.31a3.78,3.78,0,0,1-.15.94c0,.41-.24.55-.21.93a5.28,5.28,0,0,1-.34.89c-.22.22-.26.67-.41.84a2.78,2.78,0,0,1-.5.82,1.86,1.86,0,0,1-.58.74c-.24.36-.53.46-.69.7s-.56.41-.84.65-.82.45-1.06.64c-.43.24-.79.39-1.1.53s-.65.24-1.06.34a1.49,1.49,0,0,1-1.3-.39,1,1,0,0,1-.45-1c-.1-.22.14-.58.29-.84s.48-.32.74-.53a4.29,4.29,0,0,0,.94-.41,7.12,7.12,0,0,0,.84-.46,8.42,8.42,0,0,0,.81-.52,2.79,2.79,0,0,0,.72-.68c.31-.14.39-.57.65-.91.07-.29.41-.57.46-1a7.42,7.42,0,0,0,.26-1.1,4.43,4.43,0,0,1,.07-1.13c-.12-.31,0-.69-.09-1.1a9.82,9.82,0,0,0-.29-1.08,5.94,5.94,0,0,0-.48-1,7.47,7.47,0,0,0-.65-.86,4.35,4.35,0,0,0-1-.87,4.46,4.46,0,0,0-1.15-.59,2.24,2.24,0,0,0-1-.27,1.13,1.13,0,0,0-1.08.77c-.14.72-.1,1.1-.19,1.44s-.17.91-.19,1.2a5.46,5.46,0,0,0-.24,1.22,7.85,7.85,0,0,1-.32,1.18c-.19.46-.21.91-.36,1.18-.14.5-.4.84-.45,1.15a11.7,11.7,0,0,0-.51,1.13,2.8,2.8,0,0,1-.45.84,1.81,1.81,0,0,1-.51.79,2.84,2.84,0,0,1-.62.74,3.66,3.66,0,0,0-.72.63,6,6,0,0,1-1.32.6,4.53,4.53,0,0,1-1.42.21A2.52,2.52,0,0,1,95,24.34a4.4,4.4,0,0,1-.72-.39c-.33-.12-.36-.33-.64-.53a2.86,2.86,0,0,1-.75-1,1.89,1.89,0,0,1-.5-1.13,9.92,9.92,0,0,0-.27-1.22A7.19,7.19,0,0,1,92,18.86a4,4,0,0,0,0-1,3.3,3.3,0,0,0,.14-.93,3.57,3.57,0,0,1,.24-.91c0-.24.1-.7.32-.89a3.71,3.71,0,0,1,.4-.87,3,3,0,0,1,.48-.79c.22-.22.36-.62.58-.77a2.88,2.88,0,0,1,.62-.69c.36-.36.65-.53.87-.77a1.77,1.77,0,0,1,1-.67c.24-.08.65-.48,1-.56A3.89,3.89,0,0,1,98.7,9.6a2,2,0,0,0,1.1-.34c.41-.19.77-.09,1.13-.24s.62,0,1.13-.14a4.13,4.13,0,0,1,1.15-.05,9.23,9.23,0,0,0,1,0,5.9,5.9,0,0,1,.94.12c.41,0,.6.17.93.17a3.16,3.16,0,0,0,.92.27,4,4,0,0,0,.88.36,3.19,3.19,0,0,0,.84.45,7.93,7.93,0,0,0,.8.53c.31.24.5.46.72.65s.31.43.55.6a5.55,5.55,0,0,0,.48.67,4.53,4.53,0,0,0,.38.72c0,.31.29.51.34.75a1.14,1.14,0,0,1,.26.79c0,.29.19.48.17.79a6.24,6.24,0,0,1,.14,1.63A2.61,2.61,0,0,0,112.48,18.31Zm-11.62-5.86a.69.69,0,0,0-.79-.52,2.51,2.51,0,0,0-.77.21c-.24.12-.48.29-.7.39s-.45.43-.74.48c-.31.26-.48.31-.65.55s-.29.38-.58.62-.31.56-.5.68-.24.38-.43.74a2.39,2.39,0,0,0-.34.77,2.55,2.55,0,0,0-.24.81,4.22,4.22,0,0,0-.21,1.68,5.06,5.06,0,0,1,.07.92c.07.21,0,.67.24,1a3.44,3.44,0,0,0,.5.76,1.21,1.21,0,0,0,.84.32,2.58,2.58,0,0,0,.89-.24c.19-.12.36-.41.65-.6s.36-.58.55-.82a5.07,5.07,0,0,0,.41-.84,4.55,4.55,0,0,1,.41-.91c.09-.36.26-.65.33-1a5.14,5.14,0,0,0,.32-1,2.32,2.32,0,0,1,.23-1,4.4,4.4,0,0,1,.2-1,7.89,7.89,0,0,0,.17-1A5,5,0,0,0,100.86,12.45Z" fill="#fff"/><path d="M119.85,20c-.21.14-.28.57-.38.69-.07.32-.29.41-.41.68s-.41.36-.45.64a4.77,4.77,0,0,1-.48.63c-.27.12-.34.48-.51.57a1.33,1.33,0,0,1-.55.58,1.31,1.31,0,0,1-1.18.53c-.33-.1-.69-.05-1-.41a1.31,1.31,0,0,1-.45-1c0-.46.24-.7.5-1.1s.62-.46.79-.84a2.22,2.22,0,0,0,.7-.94c.19-.34.38-.6.62-1a2.44,2.44,0,0,0,.53-1,2.23,2.23,0,0,0,.29-.6,1.46,1.46,0,0,1,.55-.65c.26-.05.41-.24.79-.24a1.9,1.9,0,0,1,1,.38,1.23,1.23,0,0,1,.46,1c0,.32-.12.36-.12.63a3.19,3.19,0,0,0-.32.72C120.07,19.61,119.9,19.8,119.85,20Zm8.89-5.55c-.24,0-.82,0-1.18,0a1.31,1.31,0,0,0-.94.24,1.37,1.37,0,0,0-.4.86,12,12,0,0,0,0,1.35,2.77,2.77,0,0,0,0,1.25,9,9,0,0,0,0,1.27,4.16,4.16,0,0,0,0,1.27,6.49,6.49,0,0,1,0,1.25c0,.43,0,.93,0,1.27a3.49,3.49,0,0,1,0,1.25,3.84,3.84,0,0,1-.19,1.44c-.19.17-.21.45-.29.67s-.26.5-.45.58a8.42,8.42,0,0,1-1.15.6c-.36,0-1,.09-1.28.14a2.38,2.38,0,0,0-1,0,9.26,9.26,0,0,0-1-.17,1.07,1.07,0,0,1-.76-.48,1.52,1.52,0,0,1-.32-.91,1.75,1.75,0,0,1,.36-1,.92.92,0,0,1,.94-.48,5.46,5.46,0,0,1,1.44.12c.53,0,.65-.31.65-.79-.07-.31.05-.79,0-1.22a9.54,9.54,0,0,0,0-1.2,5.06,5.06,0,0,1,0-1.23,3.56,3.56,0,0,1,0-1.22c0-.46,0-.82,0-1.22a9.61,9.61,0,0,1,0-1.2c0-.41,0-.89,0-1.37a1.09,1.09,0,0,0-.38-.7,1.16,1.16,0,0,0-.82-.24,4.51,4.51,0,0,1-1.25-.05c-.43,0-.69.1-.91,0-.5-.05-1.2.07-1.75,0a8.78,8.78,0,0,1-1.78,0,2.58,2.58,0,0,1-.86-.41,4.81,4.81,0,0,1-.31-.93c.07-.27.09-.7.31-.92a1.14,1.14,0,0,1,.86-.4c.53,0,1.13,0,1.78,0s1.08,0,1.75,0c.31-.08.48,0,.91,0s.6,0,1.2-.05c.36-.1.6-.08.87-.41a1.34,1.34,0,0,0,.43-.87,7.66,7.66,0,0,0,0-1.27,4.35,4.35,0,0,1,0-1,2.34,2.34,0,0,1,.5-.93,1.71,1.71,0,0,1,1-.32c.26,0,.81.05,1,.29a1.43,1.43,0,0,1,.46.91,3.73,3.73,0,0,0,0,1,6,6,0,0,0,0,1.27,1.34,1.34,0,0,0,.36,1,1.22,1.22,0,0,0,.89.37c.39,0,.91,0,1.2,0s.79,0,1.08,0c.67,0,1.11,0,1.56,0l1.73,0a1.13,1.13,0,0,1,.94.39,1.47,1.47,0,0,1,.26.89A2,2,0,0,1,134,14a1.14,1.14,0,0,1-.87.41,6.07,6.07,0,0,1-1.75,0,10,10,0,0,1-1.73,0A8.58,8.58,0,0,1,128.74,14.42Zm5.44,9.27c-.19.38-.67.41-1.05.43a.85.85,0,0,1-.77-.22c-.36-.09-.36-.38-.62-.55a5.35,5.35,0,0,0-.77-1.1,3.25,3.25,0,0,1-.51-.75,2.41,2.41,0,0,1-.5-.84,3.89,3.89,0,0,1-.48-.84,5.36,5.36,0,0,1-.41-.79c-.33-.62-.48-1-.38-1.22,0-.46.07-.6.45-.94a2.3,2.3,0,0,1,1-.34,4.82,4.82,0,0,1,.79.22,2.05,2.05,0,0,1,.58.63c.24.45.45.74.69,1.22a10.66,10.66,0,0,0,.65,1.08,5.08,5.08,0,0,0,.65.94c.29.21.48.69.69.88.2.46.34.82.46,1.16A1.09,1.09,0,0,1,134.18,23.69Zm1.28-14.12a4.91,4.91,0,0,1-.56.84c-.33.29-.48.51-.84.58a1.37,1.37,0,0,1-1,.22,3.62,3.62,0,0,1-1-.22,2.23,2.23,0,0,1-.86-.58,1.76,1.76,0,0,1-.58-.86,1.46,1.46,0,0,1-.19-1,2,2,0,0,1,.19-1,1.71,1.71,0,0,1,.58-.82,3.82,3.82,0,0,1,.86-.58c.38-.09.72-.14,1-.19s.7.17,1,.19a1.55,1.55,0,0,1,.84.58c.17.29.46.65.56.84.14.43.09.74.21,1A2.05,2.05,0,0,1,135.46,9.57Zm-1.52-2a2.15,2.15,0,0,0-1-.39,1.28,1.28,0,0,0-.88.39,1.19,1.19,0,0,0-.44,1,1.05,1.05,0,0,0,.46.87,1,1,0,0,0,.89.38,1.35,1.35,0,0,0,.93-.31,1.08,1.08,0,0,0,.39-1A1.08,1.08,0,0,0,133.94,7.61Z" fill="#fff"/><path d="M152.24,7.39c.32.38.48.53.48,1a3.71,3.71,0,0,1-.36,1c-.16.24-.55.53-.64.79s-.44.36-.53.63a6.1,6.1,0,0,0-.53.57,2,2,0,0,1-.53.58,1.08,1.08,0,0,1-.55.58,1.85,1.85,0,0,0-.58.57c-.09.15-.48.43-.55.53-.29.27-.5.36-.67.63s.07.57.34.72a1,1,0,0,1,.43.91c-.07.43,0,1,0,1.32s-.05,1,0,1.32a4.86,4.86,0,0,0,0,1.32,8.28,8.28,0,0,1,0,1.32,11.49,11.49,0,0,0,0,1.32,4.79,4.79,0,0,0,0,1.32c0,.41,0,.79,0,1.32a7.45,7.45,0,0,0,0,1.34,1.16,1.16,0,0,1-.48,1,1.68,1.68,0,0,1-1,.34,1.62,1.62,0,0,1-1-.34,1.1,1.1,0,0,1-.48-1c0-.41.05-.84,0-1.34s0-.84,0-1.3a5.3,5.3,0,0,1,0-1.32,9.26,9.26,0,0,1,0-1.29,4.86,4.86,0,0,1,0-1.32,11.61,11.61,0,0,0,0-1.32c0-.46,0-1,0-1.47,0-.21-.31-.67-.69-.45a1.22,1.22,0,0,0-.51.38c-.34.17-.38.38-.67.48-.22.26-.48.26-.67.46s-.31.36-.7.48a2.4,2.4,0,0,1-.69.43,7.72,7.72,0,0,0-.7.43c-.36.19-.39.24-.72.41a1.59,1.59,0,0,1-.72.38,2.54,2.54,0,0,1-.79.19,1,1,0,0,1-1-.43,1.57,1.57,0,0,1-.41-1,1.94,1.94,0,0,1,.26-.82,1.41,1.41,0,0,1,.67-.6,3,3,0,0,0,.72-.41,6.25,6.25,0,0,1,.7-.4c.34-.1.41-.24.7-.44s.5-.16.67-.43a4.44,4.44,0,0,0,.7-.43,3.15,3.15,0,0,0,.64-.48,3.06,3.06,0,0,0,.67-.48,4.72,4.72,0,0,0,.65-.48c.22-.24.58-.41.72-.58a2.17,2.17,0,0,0,.63-.57c.14-.17.5-.39.67-.6s.41-.36.67-.6A6.42,6.42,0,0,0,147,11c.31-.1.38-.44.62-.63a4.06,4.06,0,0,1,.58-.64c.16-.17.33-.44.57-.68a1.34,1.34,0,0,0,.55-.67c.24-.26.32-.46.58-.72A1.41,1.41,0,0,1,151.19,7,1.32,1.32,0,0,1,152.24,7.39Z" fill="#fff"/><path d="M158.66,11.93a2.6,2.6,0,0,1-.76-.77,1.12,1.12,0,0,1-.22-.67,1.66,1.66,0,0,1,.5-1.08A2.46,2.46,0,0,1,159.26,9a1.1,1.1,0,0,1,.7.17,3.06,3.06,0,0,1,.67.38c.15.17.48.32.63.46s.38.29.52.43.25.34.58.48a1.89,1.89,0,0,0,.58.5c.19.15.5.34.57.56.29.21.32.45.51.57a.88.88,0,0,1,.26.89,2,2,0,0,1-.48,1.13,1.91,1.91,0,0,1-1.13.5,1.84,1.84,0,0,1-1.1-.48c-.17-.17-.5-.48-.72-.67s-.38-.5-.72-.67a2.3,2.3,0,0,0-.72-.65C159.26,12.45,158.91,12.14,158.66,11.93Zm17,1.82c-.19.51-.55.77-.67,1.11a5.24,5.24,0,0,1-.72,1.05,4.07,4.07,0,0,1-.74,1c-.36.41-.48.7-.77,1a8.88,8.88,0,0,1-.84,1,12.45,12.45,0,0,1-.86.91c-.29.24-.65.67-.92.86-.26.41-.74.58-1,.87s-.72.45-.94.74-.67.43-1,.72a4.11,4.11,0,0,1-1,.7,3.07,3.07,0,0,1-1,.65,4.17,4.17,0,0,0-1.06.57,8.67,8.67,0,0,1-1.1.55,3.46,3.46,0,0,1-1.11.51c-.31.19-.79.31-1.15.48a1.68,1.68,0,0,1-.67.09,1.41,1.41,0,0,1-1.06-.45,1.76,1.76,0,0,1-.43-1.08,1.22,1.22,0,0,1,.57-1.08,6.44,6.44,0,0,1,1.21-.58c.14-.09.31-.12.67-.29a1.71,1.71,0,0,1,.65-.31,4.15,4.15,0,0,1,.67-.33c.19-.08.33-.32.65-.34s.33-.22.64-.36a2.89,2.89,0,0,1,.63-.38c.26-.1.41-.36.62-.41a2.75,2.75,0,0,1,.6-.41c.12-.1.46-.22.6-.43a1.27,1.27,0,0,0,.58-.46c.09-.19.38-.19.57-.45s.39-.36.58-.48a1.7,1.7,0,0,0,.55-.48c.17,0,.24-.27.53-.51a1.66,1.66,0,0,1,.53-.53,1.66,1.66,0,0,1,.5-.55c.17-.26.63-.53.82-.91.26-.22.48-.7.74-1a5.8,5.8,0,0,1,.7-1c.31-.38.36-.62.65-1s.45-.53.6-.79.45-.44.91-.36a2.22,2.22,0,0,1,1,.38,1.41,1.41,0,0,1,.48,1A2.39,2.39,0,0,1,175.63,13.75Z" fill="#fff"/><path d="M192.8,18.41a1.64,1.64,0,0,1-.41,1,1.28,1.28,0,0,1-1,.45,1.15,1.15,0,0,1-.75-.17c-.21-.09-.36-.28-.65-.43a8.14,8.14,0,0,1-1-.72c-.34-.24-.74-.45-1-.67a5.34,5.34,0,0,0-1.08-.65,6.41,6.41,0,0,0-1-.6.42.42,0,0,0-.6.46c0,.48,0,1,0,1.39a11.23,11.23,0,0,0,0,1.3c-.12.45.07.93,0,1.29,0,.53,0,.82,0,1.3a4,4,0,0,0,0,1.29,5.65,5.65,0,0,1,0,1.3,3.93,3.93,0,0,0,0,1.32c0,.36-.27.67-.46.94a2.28,2.28,0,0,1-1,.33,1.33,1.33,0,0,1-1-.33,1,1,0,0,1-.45-.94,9.93,9.93,0,0,1,0-1.18,7.32,7.32,0,0,1,0-1.15,3.88,3.88,0,0,1,0-1.13c0-.4,0-.81,0-1.15s0-.72,0-1.15a3.39,3.39,0,0,0,0-1.15,7.09,7.09,0,0,1,0-1.13c.08-.41-.12-.7,0-1.15-.09-.31.1-.75,0-1.15a4.91,4.91,0,0,1,0-1.16,2.48,2.48,0,0,1,0-1.15,7.33,7.33,0,0,0,0-1.15,4.27,4.27,0,0,0,0-1.13c-.12-.31,0-.72,0-1.15s0-.65,0-1.15,0-.75,0-1.16a1.42,1.42,0,0,1,.45-1,1.51,1.51,0,0,1,1-.36,1.73,1.73,0,0,1,1,.36,1.06,1.06,0,0,1,.5.92,6.79,6.79,0,0,1,0,1.75,6.45,6.45,0,0,1,0,1.7,14,14,0,0,1,0,1.83c0,.74.36,1,1,.72a1.08,1.08,0,0,1,.84.19c.22.14.58.24.82.38a2,2,0,0,0,.89.48,8.55,8.55,0,0,0,.84.48,9.13,9.13,0,0,0,.84.53,8.81,8.81,0,0,0,1.08.72c.43.29.67.65,1,.89A1.53,1.53,0,0,1,192.8,18.41Z" fill="#fff"/><path d="M216.09,15.82a1.23,1.23,0,0,1-.63,1.12c-.29.15-.89.24-1.15.41a10.83,10.83,0,0,0-1.42.39,9.49,9.49,0,0,1-1.32.5c-.16.1-.52.14-.74.26a8.55,8.55,0,0,0-1,.34,1.67,1.67,0,0,0-.7.6,1.27,1.27,0,0,0-.16.84c.07.62,0,.89.07,1.22a7.36,7.36,0,0,1,0,.94,1.31,1.31,0,0,1-.43.94,1.94,1.94,0,0,1-1,.33,1.18,1.18,0,0,1-.91-.29c-.24-.09-.41-.38-.41-.84s-.05-.86-.07-1.39a.5.5,0,0,0-.7-.48,8.51,8.51,0,0,0-1.24.82c-.29.33-.63.65-.77.86a1.49,1.49,0,0,0-.29,1.08c0,.36.07.67.41.82.14.29.53.29,1,.43s.79,0,1.18.14.67,0,1,0,.75,0,1,0a3.65,3.65,0,0,0,1-.05,7.16,7.16,0,0,1,1-.09,9.55,9.55,0,0,0,1-.15,3.73,3.73,0,0,1,1-.12,1.66,1.66,0,0,1,.8.41,1.53,1.53,0,0,1,.38,1,.92.92,0,0,1-.22.75c-.26.29-.4.43-.6.48-.33.24-.67.12-1.12.29s-1,.09-1.52.14a6.94,6.94,0,0,1-1.53.07,5.88,5.88,0,0,0-1.2,0c-.27,0-.77-.08-1,0-.26-.12-.79.07-1.08-.12-.46-.12-.74,0-1.08-.19a1.72,1.72,0,0,1-1.06-.36,1.85,1.85,0,0,1-.91-.5,1.4,1.4,0,0,1-.72-.7,1.9,1.9,0,0,1-.5-.89,2.94,2.94,0,0,1-.17-1.15,9.37,9.37,0,0,1,.14-1.08c0-.34.27-.55.39-1s.41-.7.57-.86a3,3,0,0,1,.75-.77c.24-.15.48-.41.86-.7.22-.17.53-.29.89-.57a9.2,9.2,0,0,0,1.37-.75c.26-.14.31-.6-.05-.93a1.12,1.12,0,0,0-1.13-.29,3.44,3.44,0,0,0-1.05.19,7.76,7.76,0,0,1-1.13.46c-.27.09-.63.4-1,.6a2.93,2.93,0,0,0-.89.6,4.78,4.78,0,0,0-.82.62,2,2,0,0,1-.91.31,2,2,0,0,1-.93-.41,1.3,1.3,0,0,1,.14-2,4.43,4.43,0,0,0,.58-.53,1.42,1.42,0,0,0,.48-.46c.09-.12.33-.28.48-.48a4.54,4.54,0,0,0,.89-1,6.58,6.58,0,0,0,.86-1.08c.14-.21.34-.47.31-.67s-.21-.31-.65-.29c-.28,0-.52,0-.81,0a2.06,2.06,0,0,1-.65.05,1,1,0,0,1-.94-.41,1.21,1.21,0,0,1-.41-.94,1.37,1.37,0,0,1,.37-.89A1.41,1.41,0,0,1,199,10c.51,0,1,0,1.54,0a3.44,3.44,0,0,0,1-.05,4.4,4.4,0,0,0,.94,0,1.58,1.58,0,0,0,.72-.58,5,5,0,0,0,.38-1c.17-.48.29-.74.46-1.27a1,1,0,0,1,.48-.65,1.13,1.13,0,0,1,.79-.24c.36-.05.65.19.94.31a1.43,1.43,0,0,1,.45.84,2,2,0,0,1-.21.89c-.07.19-.19.41-.31.72s.19.6.6.53c.57-.1,1.1-.1,1.44-.17a9,9,0,0,1,1.48-.24.91.91,0,0,1,.82.36,1.51,1.51,0,0,1,.34.84,1,1,0,0,1-.24.74,1.21,1.21,0,0,1-.56.41,6.19,6.19,0,0,1-1.51.32c-.36,0-.86.12-1.27.19a8.54,8.54,0,0,1-1.3.16,3.22,3.22,0,0,0-1.24.27,1.23,1.23,0,0,0-.53.62c-.12.2-.34.48-.43.65a4,4,0,0,1-.29.41c-.15.22-.22.33-.1.48s.19.14.67,0a5.38,5.38,0,0,1,.92-.12,4.37,4.37,0,0,1,1.29.14,2,2,0,0,1,1.15.6,6.12,6.12,0,0,1,.7.92,1,1,0,0,0,1.08.31,3.21,3.21,0,0,0,1.08-.46c.19,0,.36-.21.7-.26a8.64,8.64,0,0,1,1.34-.48c.41-.1,1-.34,1.37-.46s.81-.29,1.15-.26a1.38,1.38,0,0,1,.94.41A1.41,1.41,0,0,1,216.09,15.82Z" fill="#fff"/><path d="M229.6,26.33a2,2,0,0,1-.86.26,8.47,8.47,0,0,0-1.16.19,9.63,9.63,0,0,1-1.2.17c-.43.05-.74.12-.93.12-.31.17-.67.07-.89.12a5.89,5.89,0,0,1-.91.1c-.36,0-.58.19-.91.09s-.56.15-.92.1-.93.1-1.24.12a4.78,4.78,0,0,1-1.32,0c-.44.05-.53-.12-.84-.36a.79.79,0,0,1-.34-.87,1.64,1.64,0,0,1,.26-.74,1,1,0,0,1,.72-.36c.53-.07,1.2,0,1.73-.1a4.09,4.09,0,0,1,1.08-.07,3.94,3.94,0,0,0,1.39-.29c.51-.07.32-.79.2-1s-1.16-.12-1.49-.09a2,2,0,0,1-1,0,1.29,1.29,0,0,1-.91,0,2.35,2.35,0,0,1-.67-.31,2.85,2.85,0,0,1-.24-.72c0-.41.36-1.08.91-1,.39.05.6,0,1,.05a3.55,3.55,0,0,1,1.13,0c.31.1,1.05.19,1.27,0,.14,0,.19-.38.07-.74,0-.1-.17-.17-.48-.19a5.68,5.68,0,0,0-1,0,2.48,2.48,0,0,1-1.34-.12,1.73,1.73,0,0,1-1-.6,1.88,1.88,0,0,1-.48-1.42,9.58,9.58,0,0,0,0-1.7,9.42,9.42,0,0,1,0-1.68,1.36,1.36,0,0,1,.12-.85,1.5,1.5,0,0,1,.48-.71,1.33,1.33,0,0,1,1-.49,3.15,3.15,0,0,1,1.46-.09,2.39,2.39,0,0,0,1.06,0c.31,0,.19-.39.17-.65s-.56-.29-.84-.22a5.76,5.76,0,0,1-1.44,0c-.51,0-.79,0-1.2,0a5.48,5.48,0,0,1-1.23,0c-.21,0-.4-.2-.67-.34a1,1,0,0,1-.24-.74,5.06,5.06,0,0,1,.24-.72.63.63,0,0,1,.67-.36,10,10,0,0,1,1.23,0c.48-.1.79.12,1.2,0a7.47,7.47,0,0,0,1.17,0c.72-.05,1.08,0,1.11-.41s-.19-.41-1.23-.29c-.45.05-.84.07-1,.07a1.48,1.48,0,0,0-.8,0,1,1,0,0,1-.79-.32c-.31-.16-.29-.45-.33-.79a.82.82,0,0,1,.31-.76,1,1,0,0,1,.77-.34,2.81,2.81,0,0,0,1-.05,9.12,9.12,0,0,1,1.2-.07c.48-.1.79,0,1.22-.12A5.22,5.22,0,0,0,225,6.93a4.79,4.79,0,0,0,1.22-.16c.43.07.65-.12,1-.17a4.34,4.34,0,0,0,1.08-.17,1.83,1.83,0,0,1,.7-.1c.17.08.67.12.77.39a.73.73,0,0,1,.33.81.86.86,0,0,1-.6,1,2.93,2.93,0,0,1-1.2.29,2.21,2.21,0,0,1-.79.12c-.45.17-1,.15-1.22.34a.53.53,0,0,0,.45.89h1.32a2.11,2.11,0,0,0,1.06,0,3.55,3.55,0,0,1,1.13,0,1,1,0,0,1,.67.34c.1.29.26.43.24.74a1,1,0,0,1-.24.72.62.62,0,0,1-.67.34c-.48,0-.79.14-1.13,0a2.23,2.23,0,0,1-1.06,0,4.85,4.85,0,0,0-1.7,0c-.34-.05-.31.53-.26.67.12.34.6.34,1.24.22a9.79,9.79,0,0,1,1.56.12,1.73,1.73,0,0,1,1,.58,1.37,1.37,0,0,1,.39.69,1.27,1.27,0,0,0,.09.77,9.19,9.19,0,0,1,0,1.66,6.75,6.75,0,0,1,0,1.68c.05.48-.17.69-.19,1-.26.34-.29.65-.67.77a1.83,1.83,0,0,1-.89.31,5.49,5.49,0,0,1-1.3.08c-.36.12-.91-.05-1.12.12s-.36.28-.32.55c.2.26.84.09,1.23.19s.84.12,1.13,0a8.36,8.36,0,0,0,.86,0,1.1,1.1,0,0,1,.91,1,.84.84,0,0,1-.24.69c-.26.12-.45.36-.67.31-.29.15-.46,0-.86,0a3.2,3.2,0,0,0-1.13,0c-.15.07-.67-.1-1,.05s-.31.45-.27.69,0,.19.15.22a1.06,1.06,0,0,0,.57-.1,4.47,4.47,0,0,0,1.11-.17,14.66,14.66,0,0,0,1.46-.21c.34-.05.58.26.72.33.05.29.31.53.15.72A1.18,1.18,0,0,1,229.6,26.33Zm-7.08-8.4c-.65-.05-1,0-1,.5s.31.46.7.48.91.17,1.15-.09.19-.39.17-.68C223.41,17.9,223.12,17.83,222.52,17.93Zm-.24-1.87a1.92,1.92,0,0,0,1,0c.22,0,.31-.29.19-.63s-.46-.26-1-.26c-.65-.05-.77,0-.86.38S221.89,16.1,222.28,16.06Zm5.18,2.85c.36,0,.68-.24.53-.65s-.89-.36-1.51-.31-.55.41-.58.72C226.07,19,226.5,19,227.46,18.91Zm.41-2.88c.29-.07.07-.6-.14-.84a4.32,4.32,0,0,0-1.56,0,.66.66,0,0,0-.19.77C226.17,16.2,227,16.13,227.87,16Zm12.1-.55a2.14,2.14,0,0,0,0,1,9,9,0,0,0,0,1,4.91,4.91,0,0,0,0,1,7.17,7.17,0,0,1-.05,1c-.07.38,0,.6,0,1s0,.74-.07,1a4.67,4.67,0,0,1-.07,1.06,6.57,6.57,0,0,0-.1,1.05,8.39,8.39,0,0,0-.12,1.18,5.2,5.2,0,0,0-.26,1.13,3,3,0,0,1-.48,1c-.27.48-.51.72-1,.77a3.29,3.29,0,0,1-1.23.22,10.4,10.4,0,0,1-1.68-.17,1,1,0,0,1-.69-.41,5.22,5.22,0,0,1-.27-.79.78.78,0,0,1,.29-.89c.12-.14.48-.53.79-.46a6.8,6.8,0,0,1,1.2.1c.43.1.65-.31.67-.79a1.63,1.63,0,0,1,.12-.89,4.16,4.16,0,0,1,.12-.89,1.91,1.91,0,0,1,.08-.91c0-.41.14-.62,0-.89,0-.6.1-1.05.1-1.58s.12-1,.05-1.59a4.4,4.4,0,0,1,0-1.56,5.53,5.53,0,0,1,0-1.58c0-.41-.27-.46-.72-.46-.17,0-.56-.07-.82.19s-.12.77-.17,1a4.71,4.71,0,0,0-.07,1.13,2.09,2.09,0,0,1,0,.86,7.59,7.59,0,0,1-.19,1.61c-.05.5-.19,1.15-.26,1.61a2.45,2.45,0,0,1-.17.79,1.09,1.09,0,0,0-.19.79,1.08,1.08,0,0,0-.24.77c0,.31-.27.55-.27.77a1.8,1.8,0,0,0-.29.77c0,.19-.12.6-.33.72a6.4,6.4,0,0,0-.36.74,7,7,0,0,1-.43.7c-.27.4-.41.86-.72,1.05a1.23,1.23,0,0,1-1.16.53c-.43-.05-.64,0-.88-.34a1.61,1.61,0,0,1-.41-.81,1.1,1.1,0,0,1,.31-.89c0-.31.17-.38.41-.6,0-.29.17-.36.33-.6.15-.46.44-.67.63-1.15a11.24,11.24,0,0,0,.48-1.15,4,4,0,0,0,.41-1.18,2.51,2.51,0,0,1,.19-.77,5.6,5.6,0,0,0,.19-.79c.17-.46.07-1.15.26-1.61.17-.62,0-1,.17-1.61a2.08,2.08,0,0,1,.05-.84,1.88,1.88,0,0,1,0-1.15c0-.38-.48-.41-1.12-.48s-.68-.07-.92-.36a1,1,0,0,1-.26-.84c0-.24.1-.67.24-.79s.34-.36.89-.38c.26-.08.69-.1.84-.29a.77.77,0,0,0,.38-.58,4.62,4.62,0,0,0,0-1.46,7.74,7.74,0,0,1,0-1.18c.1-.46-.12-.72,0-1.22a.87.87,0,0,1,.38-.8,1.3,1.3,0,0,1,.89-.28,1.16,1.16,0,0,1,.86.28,1.31,1.31,0,0,1,.39.8,6,6,0,0,0,0,1.2,9.13,9.13,0,0,1,0,1.17c-.05.31.05.79,0,1.44a.57.57,0,0,0,.41.55c.24.29.41.22.77.27a4,4,0,0,1,1.49.1,2.15,2.15,0,0,1,1,.55c.16.26.26.65.45.91a4.6,4.6,0,0,0,.1,1C240,14.81,239.85,15.22,240,15.48Z" fill="#fff"/><path d="M263.93,8.54c.07.39-.12.58-.26.84-.29.24-.34.36-.77.39a3.54,3.54,0,0,1-1.13,0,2.14,2.14,0,0,1-1.1,0c-.41,0-.77.05-1.08,0a4.1,4.1,0,0,1-1.11,0,9.64,9.64,0,0,0-1.08,0,3.63,3.63,0,0,0-1.1,0c-.43.12-.72-.09-1.2,0s-.89.1-.89,1c.09.33-.07.69.24.86.12.24.65.19,1,.12.84.05,1.29.1,1.63.12a2.45,2.45,0,0,1,1.08.62c.14.29.43.58.46.91a3.26,3.26,0,0,0,.12,1,6.6,6.6,0,0,0,0,1.54,11.29,11.29,0,0,1,0,1.54,12.9,12.9,0,0,0,0,1.53,6.54,6.54,0,0,0,0,1.54,2.68,2.68,0,0,1-.15,1.08,1.3,1.3,0,0,1-.55.91A2,2,0,0,1,257,23a3.51,3.51,0,0,1-1.15.12,14.2,14.2,0,0,0-1.46,0c-.48,0-1,0-1.44,0a6,6,0,0,1-1.47,0,4.1,4.1,0,0,1-1.44,0c-.31,0-.79-.05-1.25-.12a1.8,1.8,0,0,1-1.1-.62,1.16,1.16,0,0,1-.46-.92c-.19-.26,0-.69-.09-1,0-.58,0-1,0-1.54a6,6,0,0,1,0-1.53,9.89,9.89,0,0,1,0-1.54,6.35,6.35,0,0,1,0-1.51,1.65,1.65,0,0,1,.12-1.08,4.61,4.61,0,0,1,.57-.94c.17-.26.75-.36,1.06-.52a14,14,0,0,1,1.51-.1,1.92,1.92,0,0,0,.94-.29.8.8,0,0,0,.24-.69c0-.63-.19-1-.77-1a8.05,8.05,0,0,0-1.32,0,1.66,1.66,0,0,1-1.08,0c-.31-.09-.7.1-1.08,0a5.47,5.47,0,0,1-1.08,0,7.71,7.71,0,0,0-1.08,0,7.76,7.76,0,0,0-1.08,0,5.16,5.16,0,0,1-1.1,0,1.09,1.09,0,0,1-.75-.39c-.12-.29-.38-.6-.26-.84-.07-.21.14-.57.26-.84a.61.61,0,0,1,.75-.38,3.82,3.82,0,0,1,1.27,0c.5,0,.91.12,1.22,0a8.69,8.69,0,0,1,1.25,0,2.63,2.63,0,0,0,1.25,0,4.51,4.51,0,0,0,1.22,0,2.39,2.39,0,0,0,1.25,0c.36,0,.82,0,1.25,0a4,4,0,0,1,1.25,0,2.6,2.6,0,0,0,1.24,0,8.69,8.69,0,0,1,1.25,0,3.9,3.9,0,0,0,1.23,0,4,4,0,0,1,1.25,0,2.58,2.58,0,0,0,1.24,0c.46,0,.8,0,1.23,0s.84.08,1.25,0,.81.08,1.27,0a.63.63,0,0,1,.77.38A.84.84,0,0,1,263.93,8.54Zm-.77,8.21c-.05.53.07,1,0,1.47a5,5,0,0,0,0,1.44,11.85,11.85,0,0,0,0,1.46,13.83,13.83,0,0,1,0,1.44,9.87,9.87,0,0,0,0,1.44,4.33,4.33,0,0,1-.19,1.39,2.66,2.66,0,0,1-.74,1.18c-.22.26-.53.26-.65.43s-.51.14-.75.24a4.93,4.93,0,0,1-1.53.17c-.46.09-1.18-.07-1.59,0-.4-.1-1.1.12-1.56,0-.62-.07-1,.09-1.58,0a4.58,4.58,0,0,1-1.61,0,4.92,4.92,0,0,1-1.58,0,7,7,0,0,1-1.59,0c-.5,0-1.13.05-1.58,0a11.6,11.6,0,0,1-1.56,0,4.5,4.5,0,0,1-1.66-.19,6.24,6.24,0,0,0-.79-.32,5.66,5.66,0,0,1-.67-.52,4.29,4.29,0,0,1-.6-1.13c-.22-.31-.12-.77-.15-1.25a5.19,5.19,0,0,1,0-1.42,8.63,8.63,0,0,0,0-1.44c0-.48.05-.86,0-1.44a4.63,4.63,0,0,0,0-1.44,11.53,11.53,0,0,1,0-1.44,7.32,7.32,0,0,1,0-1.41,5.34,5.34,0,0,1,0-1.44c.05-.39,0-1,0-1.47a.7.7,0,0,1,.45-.81,3.16,3.16,0,0,1,.94-.27c.22.07.77.1.94.27a2.14,2.14,0,0,1,.45.81,7.49,7.49,0,0,0,0,1.42,4.32,4.32,0,0,0,0,1.39c0,.41,0,.94,0,1.39s.07,1,0,1.4a3.23,3.23,0,0,0,0,1.39,4.28,4.28,0,0,0,0,1.39,3.25,3.25,0,0,0,0,1.39,7.82,7.82,0,0,0,0,1.37,3.31,3.31,0,0,0,.26.94,2.24,2.24,0,0,0,1.2.28,4,4,0,0,1,1.47,0,5.94,5.94,0,0,0,1.46,0,3.74,3.74,0,0,0,1.49,0,7.91,7.91,0,0,1,1.46,0c.39,0,1,0,1.49,0s1,.12,1.49,0a8.79,8.79,0,0,0,1.46,0,5.28,5.28,0,0,0,1.44,0,1.22,1.22,0,0,0,1.23-.31c.28-.14.19-.5.26-.91a6.46,6.46,0,0,1,0-1.39,12.89,12.89,0,0,0,0-1.39c-.05-.58.05-.94,0-1.42a4.51,4.51,0,0,0,0-1.42,8.07,8.07,0,0,1,0-1.39c.1-.53-.12-.84,0-1.41a3.86,3.86,0,0,1,0-1.4,6.39,6.39,0,0,1,0-1.44c0-.45.1-.62.46-.81a2,2,0,0,1,.94-.27c.31.1.64.15.93.27.31.29.53.45.46.81a14.89,14.89,0,0,0,0,1.49c-.07.55,0,1,0,1.44A4.08,4.08,0,0,1,263.16,16.75Zm-11.54,2.91a2.71,2.71,0,0,0-.19-1c-.29-.29-.56-.07-.8-.19a.86.86,0,0,0-.91.36,3,3,0,0,0-.05,1.22c.08.41.22.8.84.8a2.34,2.34,0,0,0,.82-.15C251.62,20.4,251.57,20.09,251.62,19.66Zm-.24-5.43a1.08,1.08,0,0,0-.89-.17c-.63,0-.79.17-.82.77s-.07,1.15.15,1.32.5.1.81.12.75,0,.84-.24.08-.65.15-.86A1.22,1.22,0,0,0,251.38,14.23ZM256,18.7c-.29-.36-.44-.2-.82-.22a1.28,1.28,0,0,0-.91.29c-.17.17-.08.65-.1.89a2,2,0,0,0,.31,1,1.55,1.55,0,0,0,.89.17c.51-.05.75-.2.75-.82A2.5,2.5,0,0,0,256,18.7Zm-1.83-3.53c.1.26,0,.69.27.86a.93.93,0,0,0,.74.24c.34-.09.55.07.79-.24s.1-.53.12-1c-.09-.67-.14-1-.72-1s-.65-.12-.93.15C254.14,14.33,254.18,14.9,254.16,15.17Z" fill="#fff"/><path d="M282.88,25.37a1.44,1.44,0,0,1-.48,1.1,1.35,1.35,0,0,1-1.13.39,10.82,10.82,0,0,1-1.65-.22,2.59,2.59,0,0,1-.8-.24c-.21-.1-.5-.14-.79-.29a1.42,1.42,0,0,1-.74-.38,2,2,0,0,1-.7-.43c-.29-.22-.43-.22-.65-.51a4.16,4.16,0,0,1-.6-.57,4.17,4.17,0,0,1-.81-1.08,3.76,3.76,0,0,1-.6-1.2,2.66,2.66,0,0,1-.36-1.28c0-.38-.07-1-.12-1.34a3.26,3.26,0,0,1,.09-1.27c.1-.46.24-.84.29-1.23a6.35,6.35,0,0,0,.46-1.2,5.59,5.59,0,0,1,.62-1.1c.22-.36.36-.43.53-.77s.31-.34.62-.69a4.59,4.59,0,0,0,.39-.39c.19-.14.31-.29.19-.53s-.34-.12-.77-.05c-.24.05-.5.08-.67.1a4.65,4.65,0,0,1-1.13.14,6.47,6.47,0,0,0-1.13.17c-.43.1-.69.1-1.12.17s-.85.17-1.16.17a7.52,7.52,0,0,0-1.12.17c-.29,0-.77.19-1.13.17s-.91.07-1.49.14a1.5,1.5,0,0,1-.91-.43,1.68,1.68,0,0,1-.36-1,1.49,1.49,0,0,1,.45-1c.2,0,.24-.17.58-.29a3.29,3.29,0,0,0,1.05-.17c.63,0,1.13-.16,1.59-.19a8.52,8.52,0,0,0,1.56-.19,3.55,3.55,0,0,0,1.06-.12,9.64,9.64,0,0,1,1-.12,2.77,2.77,0,0,1,1-.12c.27.07.68-.17,1-.12a4,4,0,0,0,1-.1,2.68,2.68,0,0,0,1-.12,1.85,1.85,0,0,0,1.06-.12c.28,0,.64,0,1.05-.09a2.91,2.91,0,0,1,.94-.1,8.31,8.31,0,0,0,1-.12,6.35,6.35,0,0,0,1-.09,10.08,10.08,0,0,0,1-.07,1.4,1.4,0,0,1,1,.35,1.5,1.5,0,0,1,.46,1,2.91,2.91,0,0,1-.32.89c-.14.28-.52.38-.81.45-.72.22-1.13.32-1.51.44a5.37,5.37,0,0,1-1.16.55c-.4.29-.76.33-1,.62a5.45,5.45,0,0,0-1,.82c-.31.38-.62.62-.86.91a6.93,6.93,0,0,1-.7,1c-.24.33-.26.67-.41.81-.09.41-.31.65-.26.87a3.64,3.64,0,0,0-.15.91,7.62,7.62,0,0,0-.09.86,4,4,0,0,0,.14,1.08,4.09,4.09,0,0,0,.34.92,2.55,2.55,0,0,0,.55.84c.29.21.48.43.77.67a3.66,3.66,0,0,0,1.08.6,3.72,3.72,0,0,0,1.17.36,6.8,6.8,0,0,1,1.16.19,3.15,3.15,0,0,1,1,.5A1.39,1.39,0,0,1,282.88,25.37Zm1.94-7.61a1.12,1.12,0,0,1-.31.7.91.91,0,0,1-.69.31,1.22,1.22,0,0,1-.94-.58c-.22-.24-.58-.72-.82-1s-.5-.55-.86-1a.78.78,0,0,1-.29-.63,1.33,1.33,0,0,1,.34-.67,1.2,1.2,0,0,1,.72-.29,1.22,1.22,0,0,1,1,.48,8.52,8.52,0,0,0,.75.8c.21.31.45.43.72.81A2.25,2.25,0,0,1,284.82,17.76ZM287,16.51a2.09,2.09,0,0,1-.72.29,1.47,1.47,0,0,1-.89-.43c-.24-.29-.36-.46-.5-.6s-.22-.24-.46-.53a3.16,3.16,0,0,0-.84-.91.67.67,0,0,1-.26-.63c0-.29.12-.41.33-.67a1.57,1.57,0,0,1,.72-.26,1.27,1.27,0,0,1,1,.45c.29.27.58.63.75.77a2.5,2.5,0,0,0,.74.82,1.27,1.27,0,0,1,.43,1A.94.94,0,0,1,287,16.51Z" fill="#fff"/><path d="M309.92,16.13a1.94,1.94,0,0,1-.26.89c-.22.38-.58.36-.82.43a6.15,6.15,0,0,1-1,0c-.36-.05-.64.05-.93,0a11.44,11.44,0,0,0-1.61.05c-.43-.1-.94,0-1.37-.07a5,5,0,0,1-1.25,0,1.44,1.44,0,0,0-1,.31,1.15,1.15,0,0,0-.51.8,8.75,8.75,0,0,0-.24,1.1c-.05.24-.24.53-.21.79a3.86,3.86,0,0,1-.25.75c-.16.28-.16.6-.28.74-.12.36-.34.53-.36.7a3,3,0,0,0-.39.69c0,.15-.17.29-.36.55a3.48,3.48,0,0,1-.45.58,4.09,4.09,0,0,0-.48.58c-.29.26-.31.48-.55.57a1.6,1.6,0,0,1-.58.53c-.31.14-.38.43-.6.48a3.79,3.79,0,0,1-1.2.72c-.15.05-.39.05-.67.14-.48.1-.72-.14-1-.43a1.25,1.25,0,0,1-.43-1,2,2,0,0,1,.46-1c.36-.24.67-.51.91-.68a4.12,4.12,0,0,0,.84-.67,5.35,5.35,0,0,0,.77-.74c.29-.15.36-.53.67-.82.07-.26.46-.53.55-.91a2.64,2.64,0,0,0,.41-.94c0-.24.24-.57.31-1a3.67,3.67,0,0,0,.27-1.17.62.62,0,0,0-.55-.7,9.25,9.25,0,0,1-1.18,0,4.46,4.46,0,0,1-1,0,6.44,6.44,0,0,0-1,0,6.39,6.39,0,0,0-1,0,4.08,4.08,0,0,1-1,0,8,8,0,0,0-1,0,4.23,4.23,0,0,1-1,0,.93.93,0,0,1-.8-.43c-.26-.22-.24-.56-.26-.89a1.8,1.8,0,0,1,.26-.89c.17-.31.39-.38.8-.41s.64,0,1.05,0a6.51,6.51,0,0,0,1,0c.4,0,.74,0,1,0a4.09,4.09,0,0,1,1,0,8.91,8.91,0,0,1,1,0,4.19,4.19,0,0,1,1,0,3.55,3.55,0,0,0,1.22,0,1,1,0,0,0,.75-.79c0-.53,0-.84,0-1.54,0-.41-.38-1-.93-.89a10.75,10.75,0,0,1-1.54.17,5.22,5.22,0,0,1-1.25.12c-.38,0-.79,0-1.2.07a1.21,1.21,0,0,1-1-.38,1.18,1.18,0,0,1-.43-1,1.18,1.18,0,0,1,.38-.94,1.38,1.38,0,0,1,1-.38c.55,0,1,0,1.44-.07A5.52,5.52,0,0,0,296.17,9a2.29,2.29,0,0,0,1.15-.14,11.06,11.06,0,0,0,1.18-.17,4.83,4.83,0,0,0,1.1-.19,3.2,3.2,0,0,0,1.13-.22,2.88,2.88,0,0,0,1.08-.21,4,4,0,0,1,1.11-.24c.43-.12.6-.12,1.08-.29a3.88,3.88,0,0,0,1.17-.36,1.28,1.28,0,0,1,1.44.38,1.5,1.5,0,0,1,.46,1c.05.6-.19.84-.7,1.13a7.53,7.53,0,0,1-1.32.45,10.66,10.66,0,0,0-1.1.29,9.21,9.21,0,0,0-1.51.34,1.68,1.68,0,0,0-.58.53,1.41,1.41,0,0,0-.29.86,7.61,7.61,0,0,1,0,.87c0,.91.19,1.46.58,1.53a4.19,4.19,0,0,0,1.05.15c.22.07.7-.08,1,0a7.14,7.14,0,0,0,1,0c.45.05,1,0,1.7.05a11.66,11.66,0,0,1,1.87,0,.85.85,0,0,1,.8.41A1.79,1.79,0,0,1,309.92,16.13Z" fill="#fff"/><path d="M329.37,24.82a1.28,1.28,0,0,1-.29.84c-.27.31-.58.45-.79.38a14.74,14.74,0,0,1-1.88,0c-.55,0-1.29,0-1.84,0s-1.28.07-1.85,0a9.73,9.73,0,0,1-1.87,0A12.69,12.69,0,0,1,319,26c-.6.1-1.25-.05-1.85,0s-1.35.12-1.85,0-1.22.1-1.87,0a.87.87,0,0,1-.79-.38,1.17,1.17,0,0,1-.29-.84,1.54,1.54,0,0,1,.29-.87,2.41,2.41,0,0,1,.79-.38,10.41,10.41,0,0,1,1.58,0,8.8,8.8,0,0,0,1.54,0c.41,0,.86,0,1.68,0a2,2,0,0,0,.91-.48,2.3,2.3,0,0,0,.39-.91c0-.44,0-.82,0-1.32a2.71,2.71,0,0,1,0-1c0-.38,0-.74,0-1a7.27,7.27,0,0,1,0-1.32,1.84,1.84,0,0,0-.27-.91,1,1,0,0,0-.5-.48,11.61,11.61,0,0,0-1.32,0,3.13,3.13,0,0,1-1.11,0,8.35,8.35,0,0,1-1.12,0,.87.87,0,0,1-.8-.38,2,2,0,0,1-.28-.87,1.87,1.87,0,0,1,.28-.81.8.8,0,0,1,.8-.39c.47,0,.91,0,1.48,0a11.53,11.53,0,0,0,1.44,0,6.3,6.3,0,0,0,1.44,0,3.18,3.18,0,0,0,1.44,0,8.58,8.58,0,0,0,1.44,0,7.22,7.22,0,0,0,1.47,0c.53-.07,1,.12,1.41,0a5.7,5.7,0,0,0,1.49,0,1,1,0,0,1,.79.36,1.17,1.17,0,0,1,.29.84,1.33,1.33,0,0,1-.29.87,1,1,0,0,1-.79.38,4.93,4.93,0,0,1-1.22,0c-.51.05-.67,0-1.15,0a8.87,8.87,0,0,0-1.25,0,1.39,1.39,0,0,0-.82.43,1.64,1.64,0,0,0-.21,1,4.42,4.42,0,0,0,0,1.32c0,.34,0,.63,0,1s0,.67,0,1c0,.5,0,.79,0,1.32a1.4,1.4,0,0,0,.38.91c.24.33.43.48.72.48a10,10,0,0,0,1.9,0,6.5,6.5,0,0,0,1.53,0c.58,0,1,0,1.59,0a1.26,1.26,0,0,1,.79.38A1,1,0,0,1,329.37,24.82Z" fill="#fff"/><path d="M337.18,18.12a1.37,1.37,0,0,1-1,.34,1.2,1.2,0,0,1-1.16-.77,3.48,3.48,0,0,0-.4-.94c0-.17-.29-.55-.39-.81a1.24,1.24,0,0,1-.38-.7,2.84,2.84,0,0,1-.39-.7c-.33-.6,0-1,.32-1.36a1.8,1.8,0,0,1,.91-.39,1.86,1.86,0,0,1,.72.22,3.75,3.75,0,0,1,.53.55,6.63,6.63,0,0,0,.47.79c.27.26.37.75.56,1,.07.41.36.67.45,1s.29.58.2.84C337.66,17.71,337.44,17.83,337.18,18.12Zm11.5-4.54a3.41,3.41,0,0,1-.36,1.49c-.17.6-.39,1-.48,1.35a5.4,5.4,0,0,0-.56,1.24,4.66,4.66,0,0,1-.6,1.18c-.28.38-.33.77-.6,1a4.14,4.14,0,0,1-.62,1c-.34.28-.46.74-.7,1s-.48.57-.74.93-.48.72-.79.89a6.63,6.63,0,0,1-.82.84,4,4,0,0,0-.89.77,4.15,4.15,0,0,0-.93.74,4,4,0,0,0-.75.53.87.87,0,0,0-.43.29,4.22,4.22,0,0,0-.79.41A1.32,1.32,0,0,1,337,27a1.44,1.44,0,0,1-.39-.92,1.53,1.53,0,0,1,.6-1.1,10.16,10.16,0,0,1,1.08-.67,10.66,10.66,0,0,0,1-.7,3.47,3.47,0,0,0,1-.79c.32-.36.58-.55.89-.86s.48-.7.84-.92.43-.62.77-1a7.84,7.84,0,0,1,.7-1c.26-.31.43-.82.62-1.08a10.68,10.68,0,0,1,.55-1.13c.12-.17.17-.62.39-.86s.19-.65.33-.92.17-.55.29-.88a2.31,2.31,0,0,0,.31-1c0-.24.31-.46.48-.58a1.42,1.42,0,0,1,.75-.19,1.37,1.37,0,0,1,1,.31A1.1,1.1,0,0,1,348.68,13.58Zm-10.44-.24a1,1,0,0,1,.31-1.32,2,2,0,0,1,.89-.36,1.32,1.32,0,0,1,.74.22,1.23,1.23,0,0,1,.53.57c.17.12.31.58.43.77a9.18,9.18,0,0,0,.5,1c.22.33.29.79.44,1a2.48,2.48,0,0,1,.16.82.85.85,0,0,1-.43.86,1.25,1.25,0,0,1-.93.34,1.1,1.1,0,0,1-1.18-.82c-.12-.38-.29-.58-.38-.94-.08-.14-.24-.55-.36-.79a3.66,3.66,0,0,0-.34-.69C338.52,13.87,338.33,13.51,338.24,13.34Z" fill="#fff"/><path d="M368.68,12.72a2.37,2.37,0,0,1-.22,1.27,12.39,12.39,0,0,1-.48,1.39c-.19.58-.43,1-.55,1.35a2.72,2.72,0,0,1-.31.67c-.1.29-.29.46-.34.62s-.19.56-.34.65-.19.51-.38.63-.17.5-.38.6c-.13.28-.17.52-.41.6-.22.28-.24.43-.43.6a2.71,2.71,0,0,1-.44.57,5,5,0,0,0-.48.55,1.15,1.15,0,0,1-.45.56,2.68,2.68,0,0,1-.51.52.87.87,0,0,0-.5.53,1.59,1.59,0,0,0-.55.53,1.58,1.58,0,0,0-.6.53c-.22.29-.51.31-.63.55A5.43,5.43,0,0,0,360,26a2,2,0,0,1-.67.5c-.17.29-.38.31-.67.48a1.59,1.59,0,0,0-.67.39,2,2,0,0,1-.72.36,1.46,1.46,0,0,1-.72.16,1.36,1.36,0,0,1-1-.43,1.62,1.62,0,0,1-.41-1,1.45,1.45,0,0,1,.22-.74c.05-.19.43-.43.55-.55a7.3,7.3,0,0,1,.72-.46c.1-.09.53-.33.67-.43a6.54,6.54,0,0,0,.67-.46c.32,0,.41-.31.65-.48s.53-.52.79-.67.46-.45.77-.69.56-.41.75-.75a3.41,3.41,0,0,0,.72-.77c.09-.31.43-.43.64-.81a9.61,9.61,0,0,0,.63-.84,4.66,4.66,0,0,0,.57-.87c.17-.16.22-.52.51-.91,0-.14.29-.36.36-.72s.26-.7.43-1a7.19,7.19,0,0,1,.41-1,1.51,1.51,0,0,0,.19-.74.5.5,0,0,0-.5-.48c-.53,0-1,0-1.32,0-.53-.05-.94.1-1.35,0s-.91.05-1.34,0a3,3,0,0,0-1.2.14,1.13,1.13,0,0,0-.48.44c-.17.21-.36.26-.41.55-.21.48-.65.72-.84,1.08-.12.16-.41.36-.46.5a3.73,3.73,0,0,0-.45.51,4.33,4.33,0,0,1-.46.5,2.32,2.32,0,0,0-.5.48,1.9,1.9,0,0,1-.72.6,1.68,1.68,0,0,1-.87.26,1.2,1.2,0,0,1-1-.38c-.28-.31-.48-.53-.43-.94a2.28,2.28,0,0,1,.6-1.22,7,7,0,0,0,.84-.79c.12-.1.41-.53.63-.65a2.85,2.85,0,0,1,.62-.72,1.39,1.39,0,0,0,.62-.82,5.56,5.56,0,0,0,.63-.81,3.15,3.15,0,0,1,.58-.89,2.57,2.57,0,0,1,.5-.82,4.18,4.18,0,0,0,.48-.84,2.06,2.06,0,0,0,.41-.84c0-.24.36-.67.48-1.08a1.87,1.87,0,0,1,.57-.67c.31-.14.46-.29.82-.26a1.69,1.69,0,0,1,1,.36,1.61,1.61,0,0,1,.48,1A2,2,0,0,1,362,8.88c0,.31-.16.31-.33.74s-.1.87.38.84,1,0,1.3,0a5.18,5.18,0,0,0,1.12,0c.41,0,.75.07,1.13,0a3,3,0,0,1,1.37.14,1.52,1.52,0,0,1,1.18.67,2.23,2.23,0,0,1,.41.68A3.21,3.21,0,0,1,368.68,12.72Z" fill="#fff"/><path d="M379.85,26a1.71,1.71,0,0,1-1.34.52,1.62,1.62,0,0,1-1.35-.52,2.15,2.15,0,0,1-.55-1.32,2.41,2.41,0,0,1,.55-1.32,1.9,1.9,0,0,1,2.69,0,1.58,1.58,0,0,1,.55,1.32A2,2,0,0,1,379.85,26ZM376.73,9.24c0-.19,0-.6.14-.84,0-.22.32-.39.39-.6a2.3,2.3,0,0,1,1.32-.48,2.88,2.88,0,0,1,1.17.45,1.73,1.73,0,0,1,.53,1.2c-.12.44.07.73,0,1.13a2,2,0,0,1-.1,1,3.83,3.83,0,0,1-.07,1A4,4,0,0,0,380,13c0,.68-.1,1.08-.1,1.68a6.63,6.63,0,0,0-.07,1.71,10.5,10.5,0,0,1-.07,1.7,5.87,5.87,0,0,0-.07,1.71,1.6,1.6,0,0,1-.34,1.36,1.14,1.14,0,0,1-.89.27c-.55-.05-1-.15-1.05-.67a2,2,0,0,1-.12-1,8.39,8.39,0,0,1-.05-1.56c0-.39-.05-1.08-.07-1.54a3.14,3.14,0,0,1-.05-1,6.85,6.85,0,0,0-.05-1.06,6.4,6.4,0,0,1-.07-1.34c0-.48-.1-1-.1-1.35a5.54,5.54,0,0,0-.12-1.32A7.68,7.68,0,0,1,376.73,9.24Z" fill="#fff"/><path d="M1,1c.38.72.08.88.46,1.61s.21.81.6,1.54.3.77.68,1.49.7.56,1.09,1.28.12.87.5,1.59.55.64.93,1.37.37.73.75,1.46.62.6,1,1.32.38.73.77,1.45.49.67.87,1.4,0,.93.39,1.65.7.56,1.08,1.29.05.9.44,1.62.38.73.77,1.45.57.63,1,1.35.14.86.53,1.58.73.54,1.11,1.27.4.72.79,1.45.46.68.85,1.41.24.8.63,1.53.1.88.49,1.61.45.69.83,1.42" fill="none" stroke="#fff" stroke-linecap="round" stroke-linejoin="round" stroke-width="1.91"/><path d="M407.46,1.26c-.39.73-.51.66-.9,1.38s-.47.68-.86,1.4-.61.6-1,1.32-.46.69-.85,1.41-.08.89-.47,1.61-.6.61-1,1.34-.11.87-.5,1.59-.56.63-.94,1.36-.07.9-.45,1.62-.94.43-1.33,1.15.15,1-.24,1.74-.78.51-1.17,1.24-.43.7-.82,1.42-.43.7-.81,1.42-.15.86-.53,1.58-.28.79-.67,1.51-.56.63-.95,1.36-.42.71-.81,1.43-.21.82-.59,1.55-.7.56-1.09,1.29-.39.72-.77,1.45-.19.84-.58,1.57" fill="none" stroke="#fff" stroke-linecap="round" stroke-linejoin="round" stroke-width="1.91"/></g></g></svg>