<svg xmlns="http://www.w3.org/2000/svg" width="332.42" height="34.06" viewBox="0 0 332.42 34.06"><title>ttl_download</title><g id="レイヤー_2" data-name="レイヤー 2"><g id="レイヤー_2-2" data-name="レイヤー 2"><path d="M49.94,13a4.83,4.83,0,0,1-.21,1.29,2.77,2.77,0,0,1-.24.72,2.41,2.41,0,0,0-.27.75,2.07,2.07,0,0,1-.31.72c-.17.31-.31.43-.31.69a1,1,0,0,1-.36.67c-.22.22-.24.48-.36.68a2.8,2.8,0,0,0-.41.67,7.37,7.37,0,0,0-.41.65c-.19.24-.21.48-.45.62a5,5,0,0,0-.48.65c-.27.31-.27.43-.43.55a1.33,1.33,0,0,0-.51.6,5,5,0,0,0-.53.6,2.65,2.65,0,0,0-.52.58c-.2.07-.27.33-.53.52s-.31.46-.55.53-.41.48-.6.55a1.79,1.79,0,0,1-.6.53,1.52,1.52,0,0,1-.65.53c-.24.29-.48.34-.65.51s-.51.35-.65.47-.43.41-.69.44-.41.38-.7.43a2.71,2.71,0,0,1-.75.36.75.75,0,0,1-.74.19,1,1,0,0,1-1-.43c-.38-.22-.31-.65-.41-1a1,1,0,0,1,.44-1c.38-.32.62-.36.95-.65.36-.14.58-.41.8-.48s.52-.43.77-.5a3.75,3.75,0,0,0,.74-.56c.14-.29.43-.26.72-.6.29-.09.43-.41.7-.6s.33-.5.67-.65c.31-.31.48-.43.65-.64a1,1,0,0,0,0-1.23,2.12,2.12,0,0,0-.62-.48,6.56,6.56,0,0,0-.67-.53,4.35,4.35,0,0,0-.73-.5,1.33,1.33,0,0,1-.71-1.2,1.17,1.17,0,0,1,.4-.94,1.4,1.4,0,0,1,1-.38,3.16,3.16,0,0,1,1.32.55c.29.1.39.31.65.46s.43.38.58.48c.31.19.33.38.77.6a.79.79,0,0,0,.91-.34,6.9,6.9,0,0,0,.55-1,1.9,1.9,0,0,0,.46-.89,5.36,5.36,0,0,1,.48-1c.12-.43.28-.74.33-1a.55.55,0,0,0-.5-.74c-.43-.07-.87,0-1.42,0a10.58,10.58,0,0,0-1.49,0c-.52,0-1,0-1.44,0a3.34,3.34,0,0,0-1.24.14,1.51,1.51,0,0,0-.58.43c-.19.24-.24.44-.41.58a2.08,2.08,0,0,1-.43.58,2.56,2.56,0,0,0-.46.55c-.21.31-.31.29-.45.57a1.29,1.29,0,0,0-.48.53c-.17.29-.24.46-.51.53s-.31.43-.5.5a1.56,1.56,0,0,1-.67.53,1,1,0,0,1-.84.27,1.09,1.09,0,0,1-1-.41,1.43,1.43,0,0,1-.44-.94,1,1,0,0,1,.29-.84c.24-.26.46-.45.63-.65a7.39,7.39,0,0,0,.81-.84,7.05,7.05,0,0,0,.79-.84,5.27,5.27,0,0,1,.73-.91,6.4,6.4,0,0,1,.69-.93,7.69,7.69,0,0,0,.67-1c.22-.27.31-.58.58-1a9.35,9.35,0,0,0,.55-1,5.88,5.88,0,0,0,.51-1,2.28,2.28,0,0,1,.57-.89,2.74,2.74,0,0,1,.94-.31,1.21,1.21,0,0,1,1,.33,1.15,1.15,0,0,1,.46.94,5.08,5.08,0,0,1-.46,1.37c-.07.24-.24.36-.36.69s.12.46.65.44.91,0,1.44,0a6.7,6.7,0,0,1,1.25,0,9.89,9.89,0,0,1,1.22,0,11.22,11.22,0,0,1,1.37.12,3,3,0,0,1,1.18.67.89.89,0,0,1,.4.7A1.51,1.51,0,0,1,49.94,13ZM51.6,9.32a2.38,2.38,0,0,1,.36,1,1,1,0,0,1-1.06,1c-.38.05-.62-.19-.86-.55a3.13,3.13,0,0,1-.67-1c-.15-.26-.53-.57-.75-1-.52-.62-.38-1-.14-1.29a1.42,1.42,0,0,1,.91-.39c.41,0,.58.29.91.48.36.34.46.7.7.92S51.43,9.13,51.6,9.32Zm3-.67a1,1,0,0,1-1.95.43,2.11,2.11,0,0,1-.48-.65,1.44,1.44,0,0,1-.38-.55,7.34,7.34,0,0,1-.84-1c-.31-.4-.07-.81.21-1.13a1,1,0,0,1,.65-.28,1,1,0,0,1,.89.33,5.84,5.84,0,0,1,.5.53,3.61,3.61,0,0,1,.63.77,3,3,0,0,1,.55.84A1.77,1.77,0,0,1,54.58,8.65Z" fill="#fff"/><path d="M73,12.71c0,.4.19.67.14,1a5.57,5.57,0,0,1-.24,1.58c-.22.6-.19,1.08-.36,1.51A7.36,7.36,0,0,1,72,18.2a7.84,7.84,0,0,1-.58,1.35,1.85,1.85,0,0,1-.33.64c-.1.29-.29.46-.34.63-.14.33-.17.53-.41.62-.07.1-.24.48-.41.58s-.35.26-.43.55a1.47,1.47,0,0,0-.45.53c-.15.14-.24.36-.48.53a1.29,1.29,0,0,1-.51.5,2,2,0,0,1-.57.5,1.12,1.12,0,0,1-.63.48,2.64,2.64,0,0,0-.62.48c-.15.12-.55.36-.65.44a2.2,2.2,0,0,1-.67.41,1.08,1.08,0,0,1-.7.35c-.31.17-.55.27-.69.34a1.78,1.78,0,0,1-.77.27,5.64,5.64,0,0,1-.65.12,1.59,1.59,0,0,1-1-.41,1.64,1.64,0,0,1-.43-1,3,3,0,0,1,.16-.76c.1-.29.27-.34.56-.46a1.65,1.65,0,0,1,.67-.38,1.92,1.92,0,0,1,.67-.29c.14-.17.53-.17.79-.41s.51-.36.77-.48a1.67,1.67,0,0,0,.74-.5c.24-.05.34-.29.7-.55a2.85,2.85,0,0,1,.67-.61A2,2,0,0,1,67,21c.19-.15.29-.51.58-.7s.33-.55.5-.74a9.43,9.43,0,0,0,.6-1c.22-.24.24-.72.48-1.08,0-.33.34-.67.39-1.1s.17-.82.26-1.15a3.79,3.79,0,0,0,.12-1.13c-.05-.34-.36-.55-1-.55-.38,0-.77,0-1.1,0s-.84-.1-1.13,0-.84,0-1.1,0c-.46.07-.8-.05-1.13,0a8.52,8.52,0,0,0-1.13,0c-.36,0-.82,0-1.1,0a3.57,3.57,0,0,1-1.13,0,3,3,0,0,1-1.11,0,1.29,1.29,0,0,0-.86.26,1.09,1.09,0,0,0-.26.72c0,.6,0,1.08,0,1.51a14.15,14.15,0,0,0,0,1.59c-.07.48-.14.72-.46.89a4.57,4.57,0,0,1-1,.31,5.51,5.51,0,0,1-1-.31,1.9,1.9,0,0,1-.48-.89,10.2,10.2,0,0,0,0-1.92c.09-.51,0-1.27,0-1.87a6.42,6.42,0,0,1,.17-1.2c0-.34.43-.75.64-1A11.85,11.85,0,0,1,58,11a4.86,4.86,0,0,1,1.32-.14,2.7,2.7,0,0,0,.94,0,4,4,0,0,0,1.49,0,1.22,1.22,0,0,0,.77-.28.93.93,0,0,0,.33-.63c0-.6,0-1.27,0-1.68a1.45,1.45,0,0,1,.43-.91,2.32,2.32,0,0,1,1-.34,1.26,1.26,0,0,1,1,.34,1,1,0,0,1,.46.91c0,.53-.07.94,0,1.68a.93.93,0,0,0,.46.7,1.43,1.43,0,0,0,.91.24c.48,0,.91.05,1.32,0a3.18,3.18,0,0,0,1,0,10.84,10.84,0,0,1,1.63.19c.25,0,.41.29.77.29s.48.41.68.53A2.31,2.31,0,0,1,73,12.71Z" fill="#fff"/><path d="M77.9,12.23a2.66,2.66,0,0,1-.77-.77,1.12,1.12,0,0,1-.22-.67,1.68,1.68,0,0,1,.51-1.08,2.37,2.37,0,0,1,1.08-.46,1.07,1.07,0,0,1,.69.17,3.06,3.06,0,0,1,.67.38c.15.17.48.31.63.46s.38.29.53.43.24.34.57.48a1.89,1.89,0,0,0,.58.5c.19.15.5.34.57.56.29.21.32.45.51.57a.88.88,0,0,1,.26.89A2,2,0,0,1,83,14.82a2,2,0,0,1-1.13.5,1.84,1.84,0,0,1-1.1-.48c-.17-.17-.5-.48-.72-.67s-.38-.5-.72-.67a2.3,2.3,0,0,0-.72-.65C78.5,12.75,78.14,12.44,77.9,12.23Zm17,1.82c-.19.5-.55.77-.67,1.1a5,5,0,0,1-.72,1.06,4.26,4.26,0,0,1-.74,1c-.36.41-.48.7-.77,1a10,10,0,0,1-.84,1,12.45,12.45,0,0,1-.86.91c-.29.24-.65.67-.92.86-.26.41-.74.58-1,.87s-.72.45-.94.74-.67.43-1,.72a4.11,4.11,0,0,1-1,.7,2.9,2.9,0,0,1-1.05.64,4.54,4.54,0,0,0-1.06.58,8.67,8.67,0,0,1-1.1.55,3.46,3.46,0,0,1-1.11.51c-.31.19-.79.31-1.15.48a1.68,1.68,0,0,1-.67.09,1.41,1.41,0,0,1-1.06-.45,1.82,1.82,0,0,1-.43-1.08,1.23,1.23,0,0,1,.58-1.08,5.56,5.56,0,0,1,1.2-.58,7.25,7.25,0,0,1,.67-.29,1.71,1.71,0,0,1,.65-.31,5.28,5.28,0,0,1,.67-.34c.19-.07.33-.31.65-.33s.33-.22.64-.36a3.32,3.32,0,0,1,.63-.39c.26-.09.41-.36.62-.4a2.75,2.75,0,0,1,.6-.41c.12-.1.46-.22.6-.43a1.42,1.42,0,0,0,.58-.46c.09-.19.38-.19.57-.46s.39-.36.58-.48a1.49,1.49,0,0,0,.55-.48c.17,0,.24-.26.53-.5s.34-.46.53-.53a1.66,1.66,0,0,1,.5-.55c.17-.26.63-.53.82-.91.26-.22.48-.7.74-1a5.8,5.8,0,0,1,.7-1c.31-.38.36-.62.65-1s.45-.53.6-.79.45-.44.91-.36a2.12,2.12,0,0,1,1.05.38,1.41,1.41,0,0,1,.48,1A2.39,2.39,0,0,1,94.86,14.05Z" fill="#fff"/><path d="M116,19a6.64,6.64,0,0,0,0,1.1c0,.51-.12.82,0,1.13s0,.65,0,1.1a3.33,3.33,0,0,1-.2,1.4,6.35,6.35,0,0,1-.28.65c-.22.09-.34.5-.46.55-.12.31-.46.33-.7.45a2.42,2.42,0,0,1-.74.27,8.09,8.09,0,0,1-1.61.14,3.69,3.69,0,0,1-1.15,0,5.17,5.17,0,0,1-1.18,0,9.13,9.13,0,0,1-1.17,0c-.41-.07-.89.12-1.18,0a8.8,8.8,0,0,1-1.15,0,5.1,5.1,0,0,1-1.18,0c-.5.05-.69,0-1.17,0a11.12,11.12,0,0,0-1.16,0c-.19-.1-.64.12-.86,0-.38-.09-.58,0-.86-.14a1.08,1.08,0,0,1-.82-.31,2.53,2.53,0,0,1-.7-.56,2.81,2.81,0,0,1-.6-1.12c0-.46-.26-.89-.14-1.25s0-.67,0-1.13a3.57,3.57,0,0,1,0-1.13c.1-.31,0-.69,0-1.1a4.27,4.27,0,0,0,0-1.13,4.26,4.26,0,0,1,0-1.13c0-.41,0-.65,0-1.13s0-.72,0-1.1,0-.7,0-1.13A4.53,4.53,0,0,1,98.91,12a1.78,1.78,0,0,1,.75-1.2,4,4,0,0,0,.67-.43,3.49,3.49,0,0,1,.77-.27,8.37,8.37,0,0,1,1.6-.16,3.47,3.47,0,0,1,1.16,0A11.35,11.35,0,0,0,105,10a5.82,5.82,0,0,1,1.18,0,3.41,3.41,0,0,0,1.15,0,3.86,3.86,0,0,0,1.18,0,4.58,4.58,0,0,1,1.17,0,11.6,11.6,0,0,0,1.18,0A4.92,4.92,0,0,0,112,10a5.16,5.16,0,0,0,.87,0c.36.12.45,0,.86.15.24.12.5.19.82.33a1.29,1.29,0,0,1,.67.53,5.4,5.4,0,0,1,.62,1.13A2.77,2.77,0,0,1,116,13.4a5.15,5.15,0,0,0,0,1.11,6.91,6.91,0,0,0,0,1.12c0,.46,0,.84,0,1.13a3.57,3.57,0,0,0,0,1.13A6.06,6.06,0,0,1,116,19Zm-3,.93a5.06,5.06,0,0,0,0-1c0-.43,0-.67,0-1s0-.74,0-1.06,0-.64,0-1a7,7,0,0,1,0-1,6.79,6.79,0,0,0,0-1,1.32,1.32,0,0,0-.24-.79,1.51,1.51,0,0,0-1.15-.29,3.74,3.74,0,0,1-1.06,0,9.1,9.1,0,0,0-1,0,3.49,3.49,0,0,0-1.08,0c-.44.12-.75-.09-1.11,0a5.55,5.55,0,0,0-1.08,0,4.86,4.86,0,0,1-1.08,0,4.69,4.69,0,0,1-1.06,0c-.43,0-.71,0-1.08,0a1.86,1.86,0,0,0-1.2.34c-.14.29-.24.55-.16.72,0,.41.07.67,0,1a2.24,2.24,0,0,0,0,1,4.43,4.43,0,0,0,0,1,9.37,9.37,0,0,1,0,1.06,4.42,4.42,0,0,0,0,1,8.78,8.78,0,0,1,0,1,3.92,3.92,0,0,1,0,1,4.43,4.43,0,0,0,0,1,1.15,1.15,0,0,0,.28.81,1.26,1.26,0,0,0,1.08.24,1.89,1.89,0,0,0,1.08,0,2.11,2.11,0,0,0,1.06,0c.34.13.65,0,1.08,0a7.78,7.78,0,0,0,1.08,0c.31,0,.77.13,1.11,0s.76.1,1.08,0a3.36,3.36,0,0,0,1,0c.46,0,.75,0,1.08,0a3.14,3.14,0,0,0,1-.19c.27-.12.34-.57.34-.86s0-.72,0-1A4,4,0,0,0,113.05,20Z" fill="#fff"/><path d="M139.66,18.54a1,1,0,0,1-1,.43,5.86,5.86,0,0,1-1.12,0,4.12,4.12,0,0,1-1.11,0c-.31-.07-.67.12-1.08,0a3.37,3.37,0,0,1-1.1,0,4.87,4.87,0,0,1-1.08,0,10.27,10.27,0,0,1-1.11,0c-.36,0-.77.07-1.1,0a3.44,3.44,0,0,1-1.11,0,4.5,4.5,0,0,1-1.1,0,8.07,8.07,0,0,1-1.1,0c-.39-.07-.84.12-1.08,0a8.21,8.21,0,0,1-1.11,0,4.45,4.45,0,0,1-1.1,0c-.48.05-.63,0-1.08,0a10.18,10.18,0,0,0-1.11,0,1.24,1.24,0,0,1-.45.05c-.22,0-.48-.05-.67-.05a1.08,1.08,0,0,1-1-.43,1.64,1.64,0,0,1-.36-1,1.68,1.68,0,0,1,.36-1,2.13,2.13,0,0,1,1-.44,3.43,3.43,0,0,0,1.1,0,8.19,8.19,0,0,0,1.11,0,5.56,5.56,0,0,1,1.08,0,4.5,4.5,0,0,0,1.1,0c.27,0,.77,0,1.11,0a3.22,3.22,0,0,0,1.08,0,3.35,3.35,0,0,0,1.1,0c.43,0,.67,0,1.1,0a8.21,8.21,0,0,0,1.11,0c.26,0,.81,0,1.1,0a4.09,4.09,0,0,1,1.11,0c.45,0,.79,0,1.08,0a3.38,3.38,0,0,0,1.1,0,3.25,3.25,0,0,1,1.08,0,4.12,4.12,0,0,1,1.11,0,4.74,4.74,0,0,1,1.12,0,1.12,1.12,0,0,1,1,.44.85.85,0,0,1,.36,1A1.26,1.26,0,0,1,139.66,18.54Z" fill="#fff"/><path d="M156.68,18.11A1.4,1.4,0,0,1,157,19a3.09,3.09,0,0,1-.41,1,2.37,2.37,0,0,1-1,.46c-.31.05-.53-.17-.74-.19a7.23,7.23,0,0,1-.65-.44c-.29-.31-.62-.36-1-.69a3.89,3.89,0,0,1-1-.67,9.66,9.66,0,0,1-1.08-.65,5.73,5.73,0,0,0-1.08-.67c-.29-.1-.51.21-.53.5,0,.48,0,.86,0,1.39a7,7,0,0,0,0,1.3,4.29,4.29,0,0,0,0,1.29c0,.41,0,.82,0,1.3s0,.91,0,1.3a7.94,7.94,0,0,1,0,1.29c0,.34,0,.72,0,1.27a1.09,1.09,0,0,1-.48,1,1.17,1.17,0,0,1-1,.34,1.34,1.34,0,0,1-1.11-.34,1.1,1.1,0,0,1-.38-1c0-.38,0-.69,0-1.17s0-.8,0-1.13a4.91,4.91,0,0,0,0-1.15,3.56,3.56,0,0,0,0-1.13c0-.46,0-.75,0-1.15a3.76,3.76,0,0,1,0-1.16,5.52,5.52,0,0,1,0-1.15,3.69,3.69,0,0,1,0-1.15,8.82,8.82,0,0,0,0-1.15,6.31,6.31,0,0,1,0-1.15c-.1-.34.05-.68,0-1.13s0-.67,0-1.15a3.76,3.76,0,0,1,0-1.16,6,6,0,0,0,0-1.12,8.87,8.87,0,0,1,0-1.16c0-.26,0-.74,0-1.22a1.06,1.06,0,0,1,.5-.91,1.5,1.5,0,0,1,1-.34,3.65,3.65,0,0,1,1,.34,1.08,1.08,0,0,1,.45,1c0,.55,0,1.2,0,1.73a8.56,8.56,0,0,1,0,1.68c0,.69,0,1.22,0,1.82s.05,1,.36,1a1.35,1.35,0,0,1,.74-.24,1,1,0,0,1,.65.15A4.89,4.89,0,0,1,152,15c.38.19.5.29.86.46a3.63,3.63,0,0,0,.87.5c.31.26.52.29.84.53s.57.38,1.1.69c.26.1.36.36.55.46A2.13,2.13,0,0,0,156.68,18.11Zm0-6.89c.2.29.51.67.41,1a1.66,1.66,0,0,1-.31.7.66.66,0,0,1-.72.31,1.1,1.1,0,0,1-.91-.6c-.17-.22-.55-.65-.82-1a3.15,3.15,0,0,1-.86-1,.6.6,0,0,1-.29-.63,1.75,1.75,0,0,1,.34-.67.85.85,0,0,1,.72-.29c.43,0,.62.27,1,.46s.6.6.77.82A6.12,6.12,0,0,0,156.68,11.22Zm2.86-.91a.83.83,0,0,1-.31.69,1.19,1.19,0,0,1-.7.29,1.12,1.12,0,0,1-.91-.46c-.22-.26-.43-.4-.5-.6s-.36-.31-.46-.5a3.37,3.37,0,0,0-.84-.94.65.65,0,0,1-.26-.6,1,1,0,0,1,1.05-.93,1.56,1.56,0,0,1,1,.45c.26.27.65.51.77.77s.43.48.72.79A2.16,2.16,0,0,1,159.54,10.31Z" fill="#fff"/><path d="M166.74,8.6a6,6,0,0,1-.29,1.56c0,.24-.19.7-.22,1s-.16.65-.16,1a6.38,6.38,0,0,0-.15,1c-.14.34,0,.6-.14,1a4.22,4.22,0,0,0-.14,1.2c0,.55-.2.72-.1,1.23a9.72,9.72,0,0,0-.07,1.22,4,4,0,0,1,0,1.2c0,.53.05.94,0,1.3a5.09,5.09,0,0,0,0,1.29c.05.48,0,1,.1,1.3a8,8,0,0,0,.12,1.29c.1.68.12,1.11.19,1.68a1.51,1.51,0,0,1-.43,1.42,1.58,1.58,0,0,1-1.73.15.84.84,0,0,1-.53-.58,9,9,0,0,1-.31-1.51c-.09-.48,0-1.13-.14-1.54a10.45,10.45,0,0,1-.1-1.2,11.09,11.09,0,0,0-.07-1.22c-.14-.46.07-.89-.05-1.2a3,3,0,0,1,0-1.2,2.19,2.19,0,0,1,0-1.11,4.06,4.06,0,0,1,0-1.1,5.14,5.14,0,0,1,.08-1.11c.14-.4,0-.74.12-1.12a2.65,2.65,0,0,0,.14-1.08,5.83,5.83,0,0,1,.17-1.11c.07-.45.09-.65.19-1.1a2.12,2.12,0,0,1,.19-1.08c0-.27.17-.67.17-.91s.05-.58.29-.94a1,1,0,0,1,.53-.55,2.18,2.18,0,0,1,.76-.19,2.41,2.41,0,0,1,1,.31C166.45,7.93,166.81,8.17,166.74,8.6Zm15,16.32a1.19,1.19,0,0,1-.94.41,2.1,2.1,0,0,1-1-.36,2.73,2.73,0,0,0-.69-.5,3.47,3.47,0,0,0-.8-.53c-.33-.24-1,.14-1.12.57a3.33,3.33,0,0,0-.51.85c-.17.14-.31.31-.53.52s-.45.24-.76.46a1.89,1.89,0,0,1-.82.29,2.18,2.18,0,0,1-.86.16,1.67,1.67,0,0,0-.87.05,2.43,2.43,0,0,1-1.41-.17,2.46,2.46,0,0,1-1.35-.47,4.63,4.63,0,0,1-.72-.56c-.31-.21-.46-.31-.53-.69a3.86,3.86,0,0,1-.33-.82,2.8,2.8,0,0,1-.1-.89c.07-.19,0-.5.12-.86.17-.14.12-.55.31-.77s.41-.43.53-.67a5.21,5.21,0,0,1,.72-.53,3.05,3.05,0,0,0,.72-.34c.19-.07.51-.14.79-.21s.46,0,.84-.12a7.58,7.58,0,0,0,1.08,0c.6.1,1.16-.19,1.13-.74s0-.91-.07-1.39a4.73,4.73,0,0,1,0-1c0-.29,0-.6-.08-1s-.62-.79-1.08-.79a16.56,16.56,0,0,0-1.8,0,7.75,7.75,0,0,1-1.7-.14,1.31,1.31,0,0,1-.58-.48,1.14,1.14,0,0,1-.21-.77,1.64,1.64,0,0,1,.36-.91c.24-.31.48-.24.91-.34a9.69,9.69,0,0,1,1.22,0c.58,0,1.06,0,1.83,0a.94.94,0,0,0,1.05-.86c0-.6,0-1.08,0-1.46a10.2,10.2,0,0,1,0-1.28,1.27,1.27,0,0,1,.41-.84,1.22,1.22,0,0,1,.88-.31,2.53,2.53,0,0,1,.89.31c.31.27.46.46.41.84a10.43,10.43,0,0,0,0,1.25c0,.53,0,.75,0,1.42,0,.48.53.53,1.13.48.31-.1.84-.12,1.06-.17a2.19,2.19,0,0,1,.74-.1,2.55,2.55,0,0,1,.82.39,1.12,1.12,0,0,1,.33.84,1,1,0,0,1-.19.72.76.76,0,0,1-.57.5,5.41,5.41,0,0,1-1.47.34,9.83,9.83,0,0,0-1.2.19,1,1,0,0,0-.62,1c0,.41.07.72.05,1.13s0,.89,0,1.34a6.51,6.51,0,0,0,.1,1.78,1.7,1.7,0,0,0,.72,1.15,10.11,10.11,0,0,0,1.2.6,7.92,7.92,0,0,1,.91.5,3.19,3.19,0,0,0,.84.58,3.2,3.2,0,0,1,.75.65,2.2,2.2,0,0,1,.33.89A.91.91,0,0,1,181.79,24.92Zm-7-2.45c-.19-.16-.43-.16-.62-.28a3.14,3.14,0,0,1-.87-.1,2.7,2.7,0,0,0-1.39.22c-.53.14-.67.38-.74,1a.79.79,0,0,0,.57.84,1.51,1.51,0,0,0,1.2.19c.24-.07.55.07.84-.1s.53-.26.67-.43a1.27,1.27,0,0,0,.41-.82A.58.58,0,0,0,174.78,22.47Z" fill="#fff"/><path d="M201.77,25.14a.88.88,0,0,1-.58.5c-.16.15-.45.1-.72.27s-.6.12-.81.16c-.7.15-1,.1-1.56.22a9.15,9.15,0,0,1-1.11.12,4.57,4.57,0,0,1-1.1.1,4.89,4.89,0,0,0-1.08,0c-.41,0-.72,0-1.1,0a4.34,4.34,0,0,1-1.4,0,3.18,3.18,0,0,1-1.41-.09,5.27,5.27,0,0,1-1.39-.27c-.39-.17-.92-.31-1.32-.46s-.68-.26-1-.57a1.46,1.46,0,0,1-.81-.79c-.12-.19-.36-.39-.36-.63a1.26,1.26,0,0,1-.27-.69,10,10,0,0,1-.17-1.44c0-.29.1-.53.08-.92a8,8,0,0,1,.21-.93c.12-.36.22-.58.53-.72a1.65,1.65,0,0,1,.86-.27,1.48,1.48,0,0,1,.94.32.84.84,0,0,1,.43.84c-.07.81-.17,1.27-.17,1.58a1.62,1.62,0,0,0,.1.77A2.09,2.09,0,0,0,189,23a2.24,2.24,0,0,0,1,.44,4.47,4.47,0,0,0,1.27.26,4,4,0,0,0,1.32.07,1.76,1.76,0,0,0,1.11,0A9.77,9.77,0,0,0,195,23.7a9.3,9.3,0,0,1,1.29-.07c.41,0,.82-.15,1.28-.15a9.44,9.44,0,0,0,1.24-.16,5.51,5.51,0,0,1,.92-.2,8.08,8.08,0,0,1,1-.12,1.23,1.23,0,0,1,.93.41,1.53,1.53,0,0,1,.39,1A1.87,1.87,0,0,1,201.77,25.14ZM187.51,10.52c0-.41,0-.74.36-1a1.06,1.06,0,0,1,.92-.43,4.44,4.44,0,0,1,1.68.24,10.28,10.28,0,0,0,1.68.19,12.51,12.51,0,0,1,1.7.05,13.63,13.63,0,0,1,1.66,0c.64,0,1.17-.09,1.65-.12a7,7,0,0,1,1.59-.17,1.58,1.58,0,0,1,.88.46c.12.29.44.58.34.94.05.72-.24,1.1-.74,1.22a4.83,4.83,0,0,1-1.54.29,2.6,2.6,0,0,1-1.2.12,8,8,0,0,1-1.32.07,4.71,4.71,0,0,1-1.3,0,5.56,5.56,0,0,1-1.22,0,6.57,6.57,0,0,1-1.63-.08,8.84,8.84,0,0,1-1.61-.19,1.88,1.88,0,0,1-1.15-.29c-.22,0-.43-.38-.55-.52A1.52,1.52,0,0,1,187.51,10.52Z" fill="#fff"/><path d="M222.2,22.62a1.43,1.43,0,0,1-.26.7c-.12.33-.29.43-.36.62a1.75,1.75,0,0,1-.43.57c-.22.2-.39.41-.51.53a4.3,4.3,0,0,0-.55.48,2.67,2.67,0,0,1-.62.41,2.71,2.71,0,0,1-.67.39c-.24.12-.39.31-.7.31a1,1,0,0,1-.72.26c-.29.05-.53.19-.72.22a9.74,9.74,0,0,1-1.51.29c-.6,0-1,0-1.47.07-.28.12-.76-.12-1-.36a.82.82,0,0,1-.41-1c-.12-.29.21-.67.31-.84a1.39,1.39,0,0,1,.77-.41c.53-.12.86,0,1.27-.17a3.56,3.56,0,0,0,1.22-.19c.44-.12.82-.24,1.35-.41a1.88,1.88,0,0,1,.6-.31.58.58,0,0,0,.57-.39,2.41,2.41,0,0,0,.87-1,2.37,2.37,0,0,0,.33-1.34,2.32,2.32,0,0,0-.14-.82c-.12-.34-.38-.36-.48-.7-.22-.12-.7-.38-.94-.48a9.85,9.85,0,0,1-1.12-.12,14.42,14.42,0,0,0-1.44.12,9.59,9.59,0,0,0-1.42.34,7.26,7.26,0,0,0-1.37.55.8.8,0,0,0-.65.36c-.28.24-.43.17-.64.39a8.07,8.07,0,0,1-.82.64c-.26.22-.6.58-.86.77a1.09,1.09,0,0,1-1,.36,1.15,1.15,0,0,1-1-.38,1.26,1.26,0,0,1-.44-.94,4.41,4.41,0,0,1,.39-1.46,1.45,1.45,0,0,0,.21-.7,1.62,1.62,0,0,0,.25-.74c.09-.43.26-1,.38-1.49.1-.26.05-.46.19-.79s.17-.48.22-1c0-.36.09-.5-.12-.76a1.08,1.08,0,0,0-.89-.29c-.51,0-.87,0-1.18,0a5.14,5.14,0,0,1-.79,0,1.48,1.48,0,0,1-.91-.39,1.84,1.84,0,0,1-.36-.93,2,2,0,0,1,.36-.89.91.91,0,0,1,.86-.39,8.91,8.91,0,0,0,1,0,3.37,3.37,0,0,0,1,0c.36-.09.6,0,1.11-.17a1,1,0,0,0,.57-.38,3,3,0,0,0,.29-.74A5.48,5.48,0,0,0,210,8.39,2.39,2.39,0,0,1,210.32,7a2.18,2.18,0,0,1,1.11-.46c.29,0,.81.1,1,.36a.81.81,0,0,1,.36,1c0,.39-.12.68-.1.87a5.42,5.42,0,0,0-.14,1.1c0,.34.05.63.24.75a1,1,0,0,0,.67.24,13.35,13.35,0,0,0,1.63-.27,5.09,5.09,0,0,0,1.3-.24,10.47,10.47,0,0,1,1.32-.24,1.69,1.69,0,0,1,1.2.36,1.8,1.8,0,0,1,.41.89,1.33,1.33,0,0,1-.29.79,1.16,1.16,0,0,1-.7.46,3.51,3.51,0,0,0-.93.24c-.22.05-.65.07-.89.14-.41.12-.6.07-1,.17a3.91,3.91,0,0,1-.84.17c-.32.09-.44,0-.75.12a7.17,7.17,0,0,1-.93.17,1.37,1.37,0,0,0-.77.38,1.48,1.48,0,0,0-.41.6c-.14.55-.24,1.08-.31,1.42-.12.52-.27.76-.34,1.22a.44.44,0,0,0,.36.53,1,1,0,0,0,.67-.17,4.68,4.68,0,0,0,.77-.31,4,4,0,0,1,.77-.24c.5-.05,1-.31,1.58-.34a5.18,5.18,0,0,1,1.61-.12c.34.05.82,0,1.23.07a7.68,7.68,0,0,0,1.2.24,2.54,2.54,0,0,1,1.1.48,3.24,3.24,0,0,1,1,.8,5.34,5.34,0,0,0,.48.64,1.34,1.34,0,0,1,.34.72,10.18,10.18,0,0,1,.26,1.61A3.56,3.56,0,0,1,222.2,22.62Z" fill="#fff"/><path d="M243.37,20.77a4.26,4.26,0,0,1-.19,1.51,4.92,4.92,0,0,1-.56,1.37c-.12.36-.16.55-.4.65s-.29.48-.48.57a3.47,3.47,0,0,0-.56.53,2.33,2.33,0,0,0-.62.46c-.26.12-.51.34-.67.41a1.52,1.52,0,0,1-.72.38c-.2,0-.43.24-.77.31a1.48,1.48,0,0,0-.77.27c-.34.21-.5.07-.77.24a3,3,0,0,0-.79.17,11.76,11.76,0,0,1-1.63.21,1.63,1.63,0,0,1-1.11-.33,2.78,2.78,0,0,1-.48-1,1.29,1.29,0,0,1,.36-.91,1.14,1.14,0,0,1,.89-.43,14.21,14.21,0,0,0,1.59-.27,4.08,4.08,0,0,1,.84-.16,5.5,5.5,0,0,0,.81-.27c.19-.12.46-.19.8-.36a5.7,5.7,0,0,1,.71-.45,1.93,1.93,0,0,0,.63-.56,3.75,3.75,0,0,0,.5-.67,1.38,1.38,0,0,0,.32-.74,1.69,1.69,0,0,0,.12-.84,6.89,6.89,0,0,0-.2-.89,1.79,1.79,0,0,0-.52-.72,4.19,4.19,0,0,0-1.18-.58,7.08,7.08,0,0,0-1.32-.16c-.46-.08-.72.12-1.06.07a2.42,2.42,0,0,1-1,.19,2.65,2.65,0,0,1-1,.34c-.36.24-.72.26-1,.43s-.67.38-.91.53-.56.52-.89.62-.51.55-.82.7c-.31.31-.41.5-.72.76a1.23,1.23,0,0,1-1.25.58,1.15,1.15,0,0,1-1-.34,2,2,0,0,1-.5-.88c.05-.24,0-.8.07-1.23a3.33,3.33,0,0,1,.24-1.2c.1-.21,0-.67.17-1-.05-.33.19-.62.19-1.05s.07-.67.19-1.06.12-.65.22-1.08a8.8,8.8,0,0,0,.22-1.27c.19-.53.26-1,.36-1.25a1.36,1.36,0,0,1,1.24-.67,1.51,1.51,0,0,1,1,.24,1.22,1.22,0,0,1,.43,1c0,.34-.1.5-.15.89a5.72,5.72,0,0,0-.21.93,6.09,6.09,0,0,0-.22,1c-.17.39-.09.72-.21,1-.15.62-.22.93.07,1.13s.6-.1,1-.34a7.63,7.63,0,0,0,.86-.43,5.39,5.39,0,0,1,.86-.36c.29-.07.51-.31.92-.29a11.29,11.29,0,0,1,1.87-.36c.38,0,.65-.14,1-.05a4.17,4.17,0,0,1,1.17.07,5.88,5.88,0,0,0,1.18.24c.43.22.82.24,1.11.41a4.07,4.07,0,0,1,1.08.6c.26.34.4.46.64.75a2.38,2.38,0,0,1,.53.84,7.27,7.27,0,0,1,.34.93C243.3,20.19,243.34,20.39,243.37,20.77ZM232.9,9.92a3.06,3.06,0,0,1-1.05-.57,1.1,1.1,0,0,1-.32-.77A2.27,2.27,0,0,1,232,7.47a1.45,1.45,0,0,1,.79-.4,2.31,2.31,0,0,1,1.13.24c.29,0,.58.19.82.21s.43.19.74.24a2.75,2.75,0,0,1,.89.34c.21.09.6.29.84.36s.48.36.67.4a1.4,1.4,0,0,1,.62,1.23,1.38,1.38,0,0,1-.38,1,1.77,1.77,0,0,1-.94.41,1.08,1.08,0,0,1-.74-.17c-.24-.14-.65-.24-.89-.38a1.92,1.92,0,0,0-.86-.34,3.66,3.66,0,0,1-.87-.34C233.45,10.07,233.12,10,232.9,9.92Z" fill="#fff"/><path d="M259.6,17.63a7.14,7.14,0,0,0,0,1.46,8.37,8.37,0,0,1-.1,1.44c-.12.53-.1,1.08-.22,1.44a12.79,12.79,0,0,1-.31,1.42c-.07.31-.14.43-.24.79a5.4,5.4,0,0,0-.31.79c-.22.31-.22.58-.41.72a1.43,1.43,0,0,1-.57.63,4.18,4.18,0,0,1-.63.43c-.29.19-.5.14-.69.26a7.65,7.65,0,0,1-1.49.17,7.87,7.87,0,0,0-.89,0,2.93,2.93,0,0,1-.94-.15c-.31-.17-.6-.22-.74-.45a1.16,1.16,0,0,1-.31-.87,1.34,1.34,0,0,1,.31-.91,1.16,1.16,0,0,1,.82-.46c.57,0,1.17.19,1.68.1a1,1,0,0,0,1.2-.6,3.38,3.38,0,0,0,.52-1.32,1.49,1.49,0,0,0,.17-.82c0-.24.17-.6.15-.86a7.47,7.47,0,0,1,.14-1.75,6.65,6.65,0,0,1,0-1.47c0-.41,0-.74,0-1.08a2,2,0,0,0-.31-1,1.58,1.58,0,0,0-1.37-.55,2,2,0,0,0-1.2.24,1.14,1.14,0,0,0-.36.69,2.89,2.89,0,0,0-.31,1,2,2,0,0,0-.21.7,5.13,5.13,0,0,1-.44,1.27,5.11,5.11,0,0,1-.45,1.27,2.77,2.77,0,0,0-.48,1.25,13.22,13.22,0,0,0-.51,1.25,9.16,9.16,0,0,0-.55,1.22A6.61,6.61,0,0,1,250,25a2.55,2.55,0,0,1-.7,1.08,1.51,1.51,0,0,1-1.13.53,1.5,1.5,0,0,1-1-.34,1.35,1.35,0,0,1-.43-.91,7.59,7.59,0,0,1,.22-.77,2.63,2.63,0,0,1,.55-1,3.92,3.92,0,0,1,.5-1,6.1,6.1,0,0,1,.46-1,4.24,4.24,0,0,0,.43-1c.14-.28.22-.69.41-1.05a6.25,6.25,0,0,0,.36-1.06,2.51,2.51,0,0,0,.33-1.08,7.12,7.12,0,0,0,.32-1.13c.14-.45-.2-.84-.46-.81a5.16,5.16,0,0,0-.91.14c-.48.1-1,.19-1.47.24a1,1,0,0,1-.84-.38.94.94,0,0,1-.33-.91,1.19,1.19,0,0,1,.74-1.18,3.1,3.1,0,0,1,.79-.24,3.74,3.74,0,0,0,1.06-.17,8.18,8.18,0,0,0,1.06-.14,2.32,2.32,0,0,0,.86-.22,1.63,1.63,0,0,0,.5-.55,3.23,3.23,0,0,0,.24-1.34,8.3,8.3,0,0,0,.24-1.54c0-.27.05-.55.1-.82a1,1,0,0,1,.34-.76,1.64,1.64,0,0,1,1.05-.46,1.47,1.47,0,0,1,1,.38,1.41,1.41,0,0,1,.39,1,4,4,0,0,1-.12,1,4.05,4.05,0,0,1-.15,1c0,.36-.12.48-.16,1s.45.89.88.86.7,0,1,0a7.58,7.58,0,0,1,.84.17c.28,0,.45.19.81.34s.36.4.7.55a2.38,2.38,0,0,1,.57.93c.1.29.2.58.32,1a4,4,0,0,0,.12,1.1C259.62,16.91,259.58,17.24,259.6,17.63Zm7.78-.7c0,.46-.1.84-.43,1a1.31,1.31,0,0,1-1,.43c-.36-.05-.69-.07-.91-.36a1.65,1.65,0,0,1-.6-.84,1.83,1.83,0,0,1-.34-.6c-.07-.14-.19-.34-.36-.62,0-.1-.21-.34-.36-.58a1.12,1.12,0,0,1-.38-.58c-.12-.19-.36-.33-.41-.57a2.76,2.76,0,0,1-.43-.55,3,3,0,0,1-.43-.56c-.24-.09-.27-.33-.48-.55s-.6-.65-.48-1a1.33,1.33,0,0,1,.48-.88,1.88,1.88,0,0,1,1-.36c.33-.08.6.19.77.19.12.21.45.36.62.5a3.3,3.3,0,0,0,.53.53,1.33,1.33,0,0,1,.48.55c.07.29.34.29.48.6a1.76,1.76,0,0,0,.43.58c.29.31.26.48.43.62s.24.39.41.63.12.36.38.64c.22.12.15.56.34.65A1.75,1.75,0,0,1,267.38,16.93Z" fill="#fff"/><path d="M286.64,20.77a4,4,0,0,1-.19,1.51,4.93,4.93,0,0,1-.55,1.37c-.12.36-.17.55-.41.65s-.29.48-.48.57a3.42,3.42,0,0,0-.55.53,2.18,2.18,0,0,0-.62.46c-.27.12-.51.34-.68.41a1.43,1.43,0,0,1-.72.38c-.19,0-.43.24-.76.31a1.48,1.48,0,0,0-.77.27c-.34.21-.51.07-.77.24a3,3,0,0,0-.79.17,11.76,11.76,0,0,1-1.63.21,1.63,1.63,0,0,1-1.11-.33,2.78,2.78,0,0,1-.48-1,1.24,1.24,0,0,1,.36-.91,1.14,1.14,0,0,1,.89-.43,13.64,13.64,0,0,0,1.58-.27,4.34,4.34,0,0,1,.84-.16,5.25,5.25,0,0,0,.82-.27c.19-.12.46-.19.79-.36a6.67,6.67,0,0,1,.72-.45,2.16,2.16,0,0,0,.63-.56c.19-.14.28-.4.5-.67a1.37,1.37,0,0,0,.31-.74,1.58,1.58,0,0,0,.12-.84c-.05-.36-.12-.58-.19-.89a1.73,1.73,0,0,0-.53-.72,4,4,0,0,0-1.17-.58,7.08,7.08,0,0,0-1.32-.16c-.46-.08-.72.12-1.06.07a2.44,2.44,0,0,1-1.06.19,2.55,2.55,0,0,1-1,.34c-.36.24-.72.26-1,.43s-.68.38-.92.53-.55.52-.88.62-.51.55-.82.7c-.31.31-.41.5-.72.76a1.23,1.23,0,0,1-1.25.58,1.14,1.14,0,0,1-1-.34,2,2,0,0,1-.5-.88,10.17,10.17,0,0,1,.07-1.23,3.13,3.13,0,0,1,.24-1.2c.09-.21,0-.67.17-1-.05-.33.19-.62.19-1.05s.07-.67.19-1.06.12-.65.22-1.08a10.51,10.51,0,0,0,.21-1.27c.19-.53.27-1,.36-1.25a1.38,1.38,0,0,1,1.25-.67,1.47,1.47,0,0,1,1,.24,1.2,1.2,0,0,1,.44,1c0,.34-.1.5-.15.89a4.83,4.83,0,0,0-.21.93,6.09,6.09,0,0,0-.22,1c-.17.39-.1.72-.22,1-.14.62-.21.93.07,1.13s.61-.1,1-.34a7.06,7.06,0,0,0,.87-.43,5.39,5.39,0,0,1,.86-.36c.29-.07.51-.31.91-.29a8.75,8.75,0,0,1,.94-.22,8,8,0,0,1,.94-.14c.38,0,.64-.14,1-.05a4.21,4.21,0,0,1,1.17.07,5.88,5.88,0,0,0,1.18.24c.43.22.81.24,1.1.41a3.92,3.92,0,0,1,1.08.6c.27.34.41.46.65.75a2.38,2.38,0,0,1,.53.84,7.41,7.41,0,0,1,.33.93C286.57,20.19,286.62,20.39,286.64,20.77ZM276.18,9.92a3.24,3.24,0,0,1-1.06-.57,1.13,1.13,0,0,1-.31-.77,2.18,2.18,0,0,1,.46-1.11,1.45,1.45,0,0,1,.79-.4,2.34,2.34,0,0,1,1.13.24c.29,0,.57.19.81.21s.44.19.75.24a2.85,2.85,0,0,1,.89.34c.21.09.6.29.84.36s.48.36.67.4a1.4,1.4,0,0,1,.62,1.23,1.38,1.38,0,0,1-.38,1,1.77,1.77,0,0,1-.94.41,1.07,1.07,0,0,1-.74-.17c-.24-.14-.65-.24-.89-.38a2,2,0,0,0-.86-.34,3.5,3.5,0,0,1-.87-.34C276.73,10.07,276.4,10,276.18,9.92Z" fill="#fff"/><path d="M297.18,26.32a1.73,1.73,0,0,1-1.35.52,1.61,1.61,0,0,1-1.34-.52,2.18,2.18,0,0,1-.55-1.33,2.37,2.37,0,0,1,.55-1.32,2,2,0,0,1,1.34-.55,2,2,0,0,1,1.35.55,1.61,1.61,0,0,1,.55,1.32A2,2,0,0,1,297.18,26.32ZM294.06,9.54c.05-.19,0-.6.14-.84,0-.22.31-.39.39-.6a2.27,2.27,0,0,1,1.32-.48,2.88,2.88,0,0,1,1.17.45,1.75,1.75,0,0,1,.53,1.2c-.12.44.07.72,0,1.13a2,2,0,0,1-.1,1,3.87,3.87,0,0,1-.07,1,4,4,0,0,0-.07.93c0,.67-.1,1.08-.1,1.68a6.63,6.63,0,0,0-.07,1.71,10.55,10.55,0,0,1-.07,1.7,6.19,6.19,0,0,0-.08,1.7,1.57,1.57,0,0,1-.33,1.37,1.14,1.14,0,0,1-.89.27c-.55-.05-1-.15-1.06-.68a2.26,2.26,0,0,1-.12-1,9.26,9.26,0,0,1,0-1.56c0-.38,0-1.08-.08-1.53a3.46,3.46,0,0,1,0-1,8.37,8.37,0,0,0-.05-1.06,6.4,6.4,0,0,1-.07-1.34c0-.48-.1-1-.1-1.35a6.11,6.11,0,0,0-.12-1.32A7.68,7.68,0,0,1,294.06,9.54Z" fill="#fff"/><path d="M1,1c.38.72.08.88.46,1.61s.21.81.6,1.54.3.77.68,1.49.7.56,1.09,1.28.12.87.5,1.59.55.64.93,1.37.37.73.75,1.46.62.6,1,1.32.38.73.77,1.45.49.67.87,1.4,0,.93.39,1.65.7.56,1.08,1.29.05.9.44,1.62.38.73.77,1.45.57.63,1,1.35.14.86.53,1.58.73.54,1.11,1.27.4.72.79,1.45.46.68.85,1.41.24.8.63,1.53.1.88.49,1.61.45.69.83,1.42" fill="none" stroke="#fff" stroke-linecap="round" stroke-linejoin="round" stroke-width="1.91"/><path d="M331.46,1.26c-.39.73-.51.66-.9,1.38s-.47.68-.86,1.4-.61.6-1,1.32-.46.69-.85,1.41-.08.89-.47,1.61-.6.61-1,1.34-.11.87-.5,1.59-.56.63-.94,1.36-.07.9-.45,1.62-.94.43-1.33,1.15.15,1-.24,1.74-.78.51-1.17,1.24-.43.7-.82,1.42-.43.7-.81,1.42-.15.86-.53,1.58-.28.79-.67,1.51-.56.63-.95,1.36-.42.71-.81,1.43-.21.82-.59,1.55-.7.56-1.09,1.29-.39.72-.77,1.45-.19.84-.58,1.57" fill="none" stroke="#fff" stroke-linecap="round" stroke-linejoin="round" stroke-width="1.91"/></g></g></svg>