<?xml version="1.0" encoding="utf-8"?>
<!-- Generator: Adobe Illustrator 23.0.1, SVG Export Plug-In . SVG Version: 6.00 Build 0)  -->
<svg version="1.1" id="レイヤー_1" xmlns="http://www.w3.org/2000/svg" xmlns:xlink="http://www.w3.org/1999/xlink" x="0px"
	 y="0px" viewBox="0 0 1463.92 281.9" style="enable-background:new 0 0 1463.92 281.9;" xml:space="preserve">
<style type="text/css">
	.st0{fill:#E9DCF4;}
	.st1{fill:#FF4754;}
	.st2{fill:#FFFFFF;}
	.st3{fill:#351558;}
	.st4{fill:#EDEDED;}
	.st5{fill:#662C8E;}
	.st6{fill:#813DAF;}
	.st7{fill:#241C45;}
	.st8{fill:#32348D;}
	.st9{fill:#2C1763;}
	.st10{fill:#505FC3;}
	.st11{fill:#71FBFC;}
	.st12{fill:#452583;}
	.st13{fill:#FF346A;}
	.st14{fill:#3067CF;}
	.st15{fill:#FFDE9A;}
	.st16{fill:#4882EF;}
	.st17{fill:#FFA19E;}
	.st18{fill:#28235C;}
	.st19{fill:#B797FE;}
	.st20{fill:#D4B9FE;}
	.st21{fill:#E52058;}
	.st22{fill:#273B5B;}
	.st23{fill:#FF4CC3;}
	.st24{fill:#293137;}
	.st25{fill:#FFE83E;}
</style>
<path class="st0" d="M1454.55,197.06H9.36c-5.17,0-9.36-3.25-9.36-7.25c0-4,4.19-7.25,9.36-7.25h1445.19c5.17,0,9.36,3.25,9.36,7.25
	C1463.92,193.81,1459.72,197.06,1454.55,197.06z"/>
<g>
	<path class="st1" d="M398.23,73.74c-5.79-9.75-25.03,2.81-19.22,12.59c6.36,10.72,20.27,28.35,24.27,47.85l17.25-6
		C416.73,113.75,405.87,86.61,398.23,73.74z"/>
	<ellipse class="st1" cx="361.03" cy="59.94" rx="28.43" ry="15.59"/>
	<g>
		<path class="st1" d="M324.19,63.6c-9.65,16.95-16.75,31.6-21.5,50.56c-4.76,19.02-3.39,39.17-2.45,58.64
			c0.55,11.4,14.68,10.82,14.13-0.65c-0.86-17.88,2.62-34.35,7-51.83c4.39-17.56,16.04-29.86,24.97-45.55
			C352.02,64.77,329.88,53.6,324.19,63.6L324.19,63.6z"/>
	</g>
	<path class="st1" d="M326.14,61.89c-5.37,6.65-5,10.59-5,18.15c0,13.77,12.27,26.1,12.27,38.46c0,14.81-3.24,30.71-3.24,45.76
		c0,6.34-5.14,10.98,7.57,10.98c2.42,0,4.5-0.25,6.39-0.64l-4.65-118.7C331.72,58.4,326.62,61.29,326.14,61.89z"/>
	<path class="st2" d="M354.38,52.32c-5.55,0.58-10.62,2-14.79,3.58l3.95,118.7c8.27-2.05,11.29-8.6,17.44-11.74
		c6.05-3.1,10.57-6.15,13.94-9.21l7.92-95.05C373.94,53.83,362.77,51.44,354.38,52.32z"/>
	<path class="st1" d="M397.77,77.96c0-8.12-6.44-14.82-14.92-19.36l-7.92,95.05c20.91-18.96,4.34-34.29,20.59-68.7
		C396.62,82.63,397.77,80.47,397.77,77.96z"/>
	<path class="st3" d="M375.32,16.96l-0.47,6.57c-0.7,9.79-7.11,17.39-14.26,16.88c-7.15-0.51-12.43-8.93-11.73-18.73l0.47-6.57
		c0-0.05,0.01-0.1,0.02-0.15c7.82-4.06,16.68-4.65,25.59-4.18C375.31,12.73,375.47,14.8,375.32,16.96z"/>
	<path class="st4" d="M352.77,29.74c0,0-0.01-3-0.01-3l15.3-9.72c2.21,2.27,3.67,5.73,3.69,9.62l0.01,1.73
		c0.13-0.02,0.25-0.03,0.39-0.03c1.62,0.02,2.93,1.73,2.94,3.81c0.01,2.09-1.3,3.76-2.91,3.74c-0.13,0-0.26-0.02-0.39-0.04l0,0.66
		c0.02,3.94-1.43,7.44-3.68,9.66l0.04,12.63c1.67,1.25,2.72,2.92,1.68,4.72c-2.32,4.01-1.15,2.13-5.3,8.39
		c-0.56,0.84-1.48,1.24-2.38,1.2c-0.9,0.05-1.82-0.35-2.38-1.2c-4.15-6.26-2.99-4.38-5.3-8.39c-1.15-1.99,0.25-3.82,2.24-5.1
		l-0.04-12.25c-2.13-2.07-3.59-5.26-3.83-8.85c-1.65-0.02-2.97-1.72-2.98-3.81C349.85,31.39,351.15,29.72,352.77,29.74z"/>
	<path class="st4" d="M306.23,185.04c-5.18,0.54-9.7-2.03-10.09-5.75c-0.39-3.72,3.49-7.18,8.67-7.72c5.18-0.54,9.7,2.03,10.09,5.75
		C315.29,181.04,311.41,184.5,306.23,185.04z"/>
	<g>
		<path class="st5" d="M354.75,144.94c-2.74,0-8.99,3.15-11.15,4.84c-8.44,6.63-15.08,9.31-15.08,19.08
			c0,8.75,6.47,14.62,14.76,14.62c1.06,0,70.25-1.65,70.25-21.77c0-8.2,10.01-15.96-30.41-18.44c-9.27-0.57-19.02,1.67-28.33,1.67
			C354.78,144.94,354.77,144.94,354.75,144.94z"/>
	</g>
	<g>
		<path class="st6" d="M348.98,162.96c6.07,34.59,17.18,67.86,23.25,102.45c0.99,5.62,7.44,8.88,13.04,7.5
			c6.65-1.65,4.82-6.15,3.83-11.79c-6.07-34.59-7.81-70.34-13.88-104.93c-0.99-5.62-8.78-8.73-14.38-7.35
			C354.19,150.48,347.99,157.32,348.98,162.96L348.98,162.96z"/>
	</g>
	<g>
		<path class="st6" d="M392.29,157.96c0.12,34.83,8.38,69.29,8.5,104.12c0.05,13.39,15.99,13.65,15.94,0.24
			c-0.12-34.83,1.61-69.65,1.49-104.48C418.18,144.46,392.24,144.55,392.29,157.96L392.29,157.96z"/>
	</g>
	<path class="st7" d="M393.38,272.4l-9.5-6.87c-0.71-0.35-7.35-0.82-7.48-0.06c0,0-4.38,7.6-1.34,13.26
		c0.14,0.48,0.6,0.84,1.15,0.84l15.44-0.09C395.7,279.45,396.99,274.18,393.38,272.4z"/>
	<path class="st7" d="M421.36,272.04l-9.5-6.87c-0.71-0.35-7.35-0.82-7.48-0.06c0,0-4.38,7.6-1.34,13.26
		c0.14,0.48,0.6,0.84,1.15,0.84l15.44-0.09C423.68,279.1,424.98,273.82,421.36,272.04z"/>
	<path class="st8" d="M368.98,97.26h-12.17c-1.79,0-3.25-1.46-3.25-3.25V67.26c0-1.79,1.46-3.25,3.25-3.25h12.17
		c1.79,0,3.25,1.46,3.25,3.25v26.75C372.23,95.81,370.77,97.26,368.98,97.26z"/>
	<path class="st4" d="M370.32,98.3c0.03,5.21-2.99,9.45-6.73,9.46c-3.74,0.02-6.8-4.19-6.82-9.4c-0.03-5.21,2.99-9.45,6.73-9.46
		C367.24,88.88,370.3,93.09,370.32,98.3z"/>
	<path class="st1" d="M408.52,127.22c-12.79-9.2-25.02-17.69-38.04-26.64c-9.59-6.58-17.63,4.46-8.04,11.05
		c8.3,5.7,15.74,12.65,23.34,19.22c6.51,5.64,13.62,13.09,21.91,16.1c0.28,0.1,0.56,0.18,0.84,0.26V127.22z"/>
	<path class="st1" d="M408.52,147.21c0,0,17,4.59,12-19.03C420.52,128.18,391.35,132.62,408.52,147.21z"/>
</g>
<g>
	<path class="st1" d="M1014.82,272.59l-20.02-6.37c-0.99-0.31-2.18,0.06-2.37,0.75l-3.06,10.92c-0.18,0.64,0.6,1.21,1.63,1.21
		l21.4-0.13C1018.02,278.94,1019.82,274.18,1014.82,272.59z"/>
	<path class="st9" d="M890.59,171.75c0.52-5.41,5.35-9.41,10.83-9.41c54.1,0,54.53-0.26,56.57,0.6
		c-10.2,1.45-16.97,10.05-21.7,20.21h-35.23C894.94,183.16,890,177.92,890.59,171.75z"/>
	<path class="st1" d="M1046.02,252.55l-18.61-11.2c-0.92-0.55-2.21-0.46-2.57,0.19l-5.74,10.27c-0.33,0.6,0.31,1.37,1.35,1.61
		l21.59,4.98C1047.7,259.71,1050.68,255.35,1046.02,252.55z"/>
	<path class="st8" d="M923.7,68.82c3.46-2.48,5.59-5.25,7.96-1.3c5.35,8.89,13.86,21.41,17.84,30.96c1.97,4.73,3.81,9.52,5.56,14.34
		c1.46,4.01,3.29,9.03,1.8,15.38l-15.48-2.06c0.07-0.73-0.02-1.47-0.27-2.17c-2.37-6.7-10.37-28.54-19.3-43.38
		C919.47,76.68,919.76,71.64,923.7,68.82z"/>
	<path class="st10" d="M924.36,58.37c5.32,4.03,9.28,11.29,10.55,19.44c4.35,27.92-2.55,43.33-7.83,74.18
		c-0.3,1.76-0.68,3.39-1.14,4.92c-0.73,2.47-1.65,4.63-2.71,6.57l0.77-105.36C924.12,58.2,924.24,58.28,924.36,58.37z"/>
	<path class="st11" d="M896.02,53.73c7.23-2.14,15.43-1.83,22.78,1.42c2.04,0.9,3.73,1.89,5.2,2.97l-0.77,105.36
		c-1.96,3.57-4.41,6.3-7.14,8.33L896.02,53.73z"/>
	<path class="st10" d="M896.02,53.73l20.08,118.08c-10.73,7.99-25.59,5.43-30.15,3.41c-7.38-3.27-11.51-97.95-7.69-106.58
		C881.56,61.2,888.23,56.04,896.02,53.73z"/>
	<g>
		<g>
			<g>
				<path class="st3" d="M930.37,25.91c-1.89,8.81-8.74,14.85-15.22,13.43c-6.48-1.42-10.24-9.78-8.35-18.59l1.27-5.91
					c0.01-0.04,0.02-0.09,0.03-0.13c7.68-2.64,15.87-1.99,23.97-0.38C932.27,17.86,931.71,19.66,930.37,25.91z"/>
			</g>
			<g>
				<path class="st4" d="M905.96,30.64c-0.39,1.83,0.53,3.59,2.06,3.93c1.53,0.34,3.1-0.88,3.49-2.71
					C912.46,27.46,906.9,26.25,905.96,30.64z"/>
			</g>
			<g>
				<path class="st4" d="M926.44,19.78c3.39,4.95,1.59,9.49-0.2,17.84c-1.27,5.92-6.37,9.88-11.32,8.8
					c-4.95-1.08-7.97-6.82-6.7-12.74l1.8-8.38L926.44,19.78z"/>
			</g>
			<g>
				<path class="st4" d="M904.99,56.89l6.63,1.45c0.91,0.2,1.83-0.45,2.04-1.43l3.98-18.52c0.21-0.99-0.36-1.96-1.27-2.16
					l-6.62-1.45c-0.91-0.2-1.83,0.45-2.04,1.43l-3.98,18.52C903.51,55.72,904.08,56.69,904.99,56.89z"/>
			</g>
		</g>
		<path class="st4" d="M913.56,56.04l-8.48-2.62c-1.16-0.36-2.23,0.1-2.5,1.33c-0.16,0.72-0.06,1.57,0.42,2.57
			c5.25,10.92,6,11.93,7.5,12.3c0.79,0.29,1.55,0.11,1.97-0.64c3.09-5.56,2.23-3.87,3.91-7.53c0.34-0.75,0.31-1.59,0.02-2.45
			C915.91,57.55,914.72,56.4,913.56,56.04z"/>
	</g>
	<path class="st12" d="M890.38,158.37c13.91-3.82,32.57-5.63,46.28-10.06c6.56-2.12,13.57-4.75,20.58-4.67
		c6.74,0.08,15.98,4.51,20.47,9.27c13.97,14.8,36.67,56.37,55.14,83.77c3.3,4.9,5.55,10.31,0.63,13.16c-5.4,3.13-11.75,1-15.06-3.91
		c-30.57-45.35-51.76-69.39-59.14-77.4c-1.84-1.99-6.22-0.67-8.84,0.08c-9.26,2.65-26.02,15.25-46.79,15.9
		C883.87,185.14,876.72,162.13,890.38,158.37z"/>
	<path class="st8" d="M920.6,163.81c-3.92,2.32-4.64,0.8-7.5-3.14c-2.52-3.47-4.07-5.31-0.13-7.65
		c18.31-10.85,25.41-20.67,27.8-24.87c0.36-0.62,0.56-1.31,0.63-2.01l15.48,2.06C954.77,137.13,946.11,148.69,920.6,163.81z"/>
	<path class="st4" d="M921.17,160.56c-0.92,4.77-4.48,8.11-7.94,7.45c-3.46-0.66-5.52-5.06-4.59-9.83c0.92-4.77,4.48-8.11,7.94-7.45
		C920.03,151.38,922.09,155.79,921.17,160.56z"/>
	<path class="st9" d="M957.99,162.94c0.13,0.06,0.28,0.12,0.44,0.19c3.09,0.54,5.95,2.23,7.26,5.11
		c13.92,30.47,25.01,62.66,36.29,94.23c1.98,5.55,1.28,9.7-4.16,11.18c-6.09,1.66-9.03,0.34-11.02-5.23
		c-9.79-27.39-24.76-55.82-36.91-82.19c-0.86-1.87-2.74-3.07-4.81-3.07h-20.99C938.46,173.34,947.79,164.39,957.99,162.94z"/>
	<path class="st3" d="M961.26,99.54h-10.72c-1.08,0-1.51-0.88-0.96-1.96l10.23-20c0.55-1.08,1.88-1.96,2.96-1.96h10.72
		c1.08,0,1.51,0.88,0.96,1.96l-10.23,20C963.67,98.66,962.34,99.54,961.26,99.54z"/>
	<path class="st4" d="M946.67,100.39c1.62-4.62,5.6-7.4,8.9-6.21c3.29,1.19,4.65,5.89,3.03,10.51c-1.62,4.62-5.6,7.4-8.9,6.21
		C946.41,109.71,945.05,105.01,946.67,100.39z"/>
	<path class="st8" d="M877.21,74.62c1.28,21.54,8.96,53.16,27.7,60.06c8.34,3.07,16.87-2.58,24.02-6.28
		c8.03-4.15,14.87-10.18,22.67-14.75c3.96-2.32,5.52-6.61,3.01-10.06c-2.87-3.95-4.18-3.08-8.11-0.78
		c-5.92,3.46-31.49,13.82-36.37,15.74c-9.93-7.16-11.82-28.97-12.9-47.13C896.59,60.57,876.56,63.8,877.21,74.62z"/>
</g>
<g>
	<path class="st13" d="M678.12,271.39l-17.89-6.18c-0.88-0.3-1.96,0.01-2.15,0.63l-2.98,9.83c-0.17,0.57,0.52,1.11,1.44,1.13
		l19.26,0.32C680.86,277.2,682.59,272.93,678.12,271.39z"/>
	<path class="st14" d="M620.56,183.98c-0.18-0.43-0.38-0.84-0.59-1.22c-1.83-3.24-4.48-4.75-7.77-6.16
		c2.64,1.13-1.66-0.82-2.11-1.03c-1.16-0.55-2.32-1.11-3.49-1.63c-2.06-0.93-4.1-1.82-6.2-2.56c-0.09-5.83,3.62-11.44,11.1-10.73
		c18.03,1.71,36.08-0.15,54.08,1.22c12.32,0.94,26.08,5.49,26.64,20.02c0.47,12.13-2.8,26.01-4.95,37.94
		c-2.78,15.46-11.35,32.64-16.51,47.45c-2.9,8.32-15.27,5.52-12.69-1.41c16.6-44.6,13.93-79.54,14.15-80.94
		C669.7,184.82,639.46,184.84,620.56,183.98z"/>
</g>
<path class="st3" d="M71.64,27.25c-0.49-0.78-1.52-1.04-2.1-1.75c-0.76-0.92-0.57-2.32-0.11-3.42c0.46-1.1,1.15-2.13,1.29-3.32
	c0.12-1.02-0.18-2.05-0.14-3.08c0.04-1.03,0.62-2.18,1.62-2.26c0.47-0.04,0.94,0.18,1.41,0.14c1.33-0.1,1.69-1.86,2.33-3.06
	c0.72-1.34,2.19-2.21,3.68-2.17c1.07,0.03,2.28,0.44,3.13-0.23c0.67-0.53,0.86-1.6,1.64-1.92c1.15-0.47,2.19,1.11,3.43,1.21
	c0.87,0.07,1.61-0.59,2.39-0.98c1.46-0.73,3.34-0.46,4.57,0.65c0.66,0.59,1.16,1.41,1.97,1.76c1.04,0.45,2.33-0.01,3.3,0.6
	c0.86,0.55,1.09,1.74,0.99,2.76c-0.1,1.03-0.45,2.03-0.4,3.06c0.11,2.76,2.93,5.38,1.79,7.87c-0.27,0.58-0.75,1.11-0.71,1.76
	c0.04,0.66,0.61,1.18,0.71,1.83c0.25,1.52-2.06,2.53-1.78,4.04c-1.19-2.94-1.25-6.26-2.53-9.16c-1.28-2.9-4.66-5.35-7.37-3.87
	c-1.47,0.81-2.24,2.5-2.85,4.09c-0.92,2.36-1.73,4.76-2.55,7.17c-1.22,3.59-3.63,7.57-7.98,7.18c-1.53-0.14-2.73-1.02-3.74-2.22
	C71.79,31.78,72.93,29.29,71.64,27.25z"/>
<path class="st13" d="M640.46,272.18l-18-5.83c-0.89-0.29-1.96,0.05-2.14,0.67l-2.79,9.89c-0.16,0.58,0.54,1.1,1.46,1.1l19.27-0.06
	C643.32,277.94,644.96,273.64,640.46,272.18z"/>
<g>
	<path class="st15" d="M638.86,82.58c7.96,0.72,12.55-5.72,15.33-12.86c-4.96-1.94-10.23-3.47-15.3-4.67
		c-3.27-0.77-6.45-1.41-9.43-1.92c-1.41-0.24-2.79-0.47-4.09-0.66c-0.42-0.06-0.83-0.11-1.24-0.17
		C623.98,71.31,629.76,81.63,638.86,82.58z"/>
	<path class="st15" d="M654.01,131.28c3.19-8.92,10.18-16.05,12.55-25.28c1.75-6.82,0.89-13.95-0.82-20.75
		c-1.26-2.92-2.2-5.99-3.33-8.96c-3.71-4.24-7.16-6.16-8.22-6.57c-2.78,7.14-7.37,13.58-15.33,12.86
		c-9.1-0.96-14.88-11.27-14.73-20.28c-2.13-0.29-4.09-0.51-5.76-0.66c-4.88-0.42-17-1.31-20.76,1.99
		c-4.28,3.76,1.9,11.18,1.72,16.93c-0.88,28.24-1.26,56.5-1.14,84.74c1.05,0.27,2.11,0.53,3.16,0.8c3.53,0.9,7.06,1.79,10.59,2.69
		c6.79,1.69,13.94,3.51,21.04,5.32c3.61,0.92,7.21,1.84,10.72,2.73c1.49,0.38,2.97,0.75,4.43,1.13
		C652,162.85,648.65,146.26,654.01,131.28z"/>
</g>
<path class="st15" d="M592.87,69.31c-2.07,7.81-7.22,23.92-7.33,24.27c-2.06,6.84-5.75,15.09-5.41,22.34
	c0.02,0.37,0.1,0.74,0.24,1.12l23.83-7.76c0.86-3.02,7.66-24.66,9.62-32.03C617.47,63.47,596.56,55.41,592.87,69.31z"/>
<path class="st16" d="M666.4,191.61c1.58-14.07-11.37-20.33-23.41-22.92c-17.6-3.78-35.73-4.47-53.31-8.58
	c-14.25-3.34-17.89,18.52-3.71,21.85c15.17,3.55,57.23,9.33,60.21,9.84c-0.42,1.31-2.91,35.32-25.88,75.98
	c-3.57,6.33,8.26,10.71,12.34,3.1c7.28-13.56,18.27-28.92,23.29-43.42C659.81,216.26,665.08,203.35,666.4,191.61z"/>
<g>
	<path class="st17" d="M640.36,75.6c-1.58,2.21-2.04,7.21-2.25,10.03c1.83,3.17,7.4,4,8.47,2.81c2.22-2.48,3.45-10.21-0.13-13.62
		C644.09,72.58,641.56,73.93,640.36,75.6z"/>
</g>
<g>
	<g>
		<g>
			<path class="st3" d="M653.5,34.51c-2.45,8.67-9.67,14.27-16.05,12.44c-6.38-1.83-9.59-10.41-7.15-19.08l1.64-5.82
				c0.01-0.04,0.03-0.08,0.04-0.13c7.83-2.15,15.97-0.98,23.95,1.15C655.91,26.6,655.23,28.36,653.5,34.51z"/>
		</g>
		<g>
			<path class="st4" d="M628.84,37.68c-0.51,1.8,0.3,3.62,1.81,4.05c1.51,0.43,3.15-0.68,3.66-2.48
				C635.52,34.92,630.06,33.36,628.84,37.68z"/>
		</g>
		<g>
			<path class="st4" d="M649.96,28.14c3.07,5.16,0.98,9.57-1.34,17.79c-1.65,5.83-6.98,9.45-11.86,8.06
				c-4.88-1.4-7.52-7.31-5.87-13.14l2.33-8.25L649.96,28.14z"/>
		</g>
		<g>
			<path class="st4" d="M626.2,63.81l6.52,1.87c0.9,0.26,1.85-0.33,2.13-1.3l5.15-18.23c0.27-0.97-0.23-1.98-1.13-2.23l-6.52-1.87
				c-0.9-0.26-1.85,0.33-2.13,1.3l-5.15,18.23C624.79,62.55,625.3,63.56,626.2,63.81z"/>
		</g>
	</g>
	<path class="st4" d="M634.41,63.55l-8.72-1.64c-1.2-0.23-2.2,0.35-2.34,1.61c-0.08,0.73,0.12,1.57,0.71,2.51
		c6.45,10.26,7.31,11.18,8.84,11.38c0.82,0.2,1.56-0.07,1.88-0.86c2.44-5.88,1.78-4.1,3.04-7.92c0.26-0.78,0.13-1.61-0.26-2.43
		C636.91,64.79,635.6,63.78,634.41,63.55z"/>
</g>
<path class="st8" d="M632.04,38.22c-0.17,0.91-0.86,1.54-1.56,1.41c-0.7-0.13-1.13-0.96-0.96-1.87c0.16-0.9,0.86-1.54,1.56-1.41
	C631.77,36.48,632.2,37.32,632.04,38.22z"/>
<g>
	<path class="st8" d="M634.94,164.16c0.03,0,0.05-0.02,0.08-0.02c0.33,0,0.58,0.14,0.74,0.33c1.34-6.24,0-13.38-4.1-21.78
		c-1.16-2.38-2.46-4.74-3.71-7.03c-2.53-4.61-5.14-9.37-6.72-14.44c-4.1-13.2-1.02-27.62,2.91-41.23c0.4-1.4,0.82-2.81,1.23-4.21
		c3.56-12.09,7.24-24.59,6.1-37.23l-0.86,0.08c1.12,12.47-2.53,24.9-6.07,36.91c-0.41,1.41-0.83,2.82-1.24,4.22
		c-3.97,13.74-7.07,28.31-2.91,41.73c1.6,5.15,4.24,9.95,6.78,14.6c1.25,2.28,2.54,4.63,3.69,6.99
		C634.86,151.22,636.19,158.15,634.94,164.16z"/>
</g>
<path class="st4" d="M630.94,87.24c-8.06,4.4-17.77,7.64-26.84,11.86c-24.85,7.43-23.74,17.93-23.74,17.93s6.89,12.47,18.31,7.08
	c12.41-3.19,37.32-24.38,43.36-29.68C652.76,85.02,643.58,80.34,630.94,87.24z"/>
<path class="st18" d="M636.56,84.07l20.05,3.04c1.68,0.25,3.91-0.88,4.99-2.53l16.51-25.34c1.08-1.65,0.59-3.2-1.09-3.45
	l-20.06-3.04c-1.68-0.25-3.91,0.88-4.99,2.53l-16.51,25.34C634.39,82.27,634.88,83.82,636.56,84.07z"/>
<g>
	<path class="st4" d="M683.04,129.18c0.64-5.05-2.55-13.24-2.89-13.18c-4.3-9.28-10.24-18.1-13.88-26.8
		c-5.19-12.39-14.62-14.32-12.29-1.21c1.54,8.69,9.3,48.63,18.23,49.8c0.84,0.11,1.7,0.16,2.57,0.17c2.73,0.02,5.25-1.52,6.44-3.96
		c0.6-1.23,1.09-2.51,1.52-3.65C682.88,129.96,682.99,129.58,683.04,129.18z"/>
</g>
<g>
	<path class="st4" d="M656.19,72.02c-1.58,2.21-2.04,7.21-2.25,10.03c1.83,3.17,7.4,4,8.47,2.81c2.22-2.48,3.45-10.22-0.13-13.62
		C659.92,68.99,657.39,70.34,656.19,72.02z"/>
</g>
<g>
	<g>
		<path class="st4" d="M159.59,104.91l-11.85,13.9c-3.94-2.86-8.88-6.93-14.05-11.5l12.49-13.43
			C149.74,97.6,154.05,101.33,159.59,104.91z"/>
		<path class="st16" d="M129.68,72.18c5.13,6.56,9.3,14.15,16.49,21.68l-12.49,13.43c-10.67-9.44-22.37-21.09-28.58-29.03
			C98.12,69.34,122.68,63.22,129.68,72.18z"/>
		<path class="st4" d="M151.19,107.27c-3.93-15.26-7.4-29.74-11.01-45.12c-2.65-11.32,10.56-14.81,13.21-3.49
			c2.3,9.81,6.07,19.26,9.44,28.72c2.89,8.12,7.25,17.44,7.05,26.26c-0.01,0.3-0.03,0.59-0.06,0.88L151.19,107.27z"/>
		<path class="st4" d="M169.83,114.53c0,0-1.89,17.51-22.09,4.27C147.74,118.8,162.46,93.24,169.83,114.53z"/>
	</g>
	<path class="st8" d="M168.5,49.25l-6.03-10.15c-0.59-0.99-1.89-1.81-2.88-1.81h-22.1c-0.99,0-1.32,0.81-0.73,1.81l6.03,10.15
		c0.59,0.99,1.89,1.81,2.88,1.81h22.1C168.76,51.06,169.09,50.25,168.5,49.25z"/>
	<path class="st4" d="M154.4,55.66c-2.36,4.65-6.97,7.04-10.31,5.34c-3.34-1.69-4.13-6.83-1.77-11.48
		c2.36-4.65,6.97-7.04,10.31-5.34C155.97,45.87,156.76,51.01,154.4,55.66z"/>
	<path class="st16" d="M53.12,77.27c-4.81,6.66,2.84-1.2,2.84,6.36c0,13.77,12.27,26.1,12.27,38.46c0,14.81-3.24,30.71-3.24,45.76
		c0,6.34-5.14,10.98,7.57,10.98c2.42,0,4.51-0.25,6.39-0.64L74.3,59.5C59.64,63.81,53.57,76.66,53.12,77.27z"/>
	<path class="st16" d="M89.2,55.92c-5.55,0.58-10.62,2-14.79,3.58l3.95,118.7c8.27-2.05,11.29-8.6,17.44-11.74
		c6.05-3.1,11.32-5.4,14.69-8.46l7.17-95.81C108.75,57.42,97.58,55.04,89.2,55.92z"/>
	<path class="st16" d="M132.59,81.55c0-8.12-6.44-14.82-14.92-19.36l-7.48,100.37c20.91-18.96,3.9-39.6,20.16-74.01
		C131.43,86.23,132.59,84.06,132.59,81.55z"/>
	<g>
		<g>
			<g>
				<path class="st3" d="M99.35,16.58l1.32,5.78c1.97,8.6-1.56,16.82-7.84,18.26c-6.28,1.44-13.03-4.42-15.01-13.03l-1.32-5.78
					c-0.01-0.04-0.02-0.09-0.02-0.13c5.66-5.54,13.13-8.37,20.91-10.31C98.24,12.94,98.91,14.69,99.35,16.58z"/>
			</g>
			<g>
				<path class="st4" d="M83.12,32.86c-1.49,0.34-2.36,2.07-1.95,3.86c0.41,1.79,1.95,2.97,3.43,2.63c1.49-0.34,2.36-2.07,1.95-3.86
					C86.14,33.69,84.61,32.52,83.12,32.86z"/>
			</g>
			<g>
				<path class="st4" d="M94.69,18.55c2.47,1.47,4.48,4.11,5.24,7.45l1.94,8.47c1.33,5.79-1.52,11.42-6.32,12.52
					c-4.8,1.1-9.82-2.73-11.14-8.52l-1.88-8.19L94.69,18.55z"/>
			</g>
			<g>
				<path class="st4" d="M91.15,60.42l6.42-1.47c0.88-0.2,1.42-1.16,1.2-2.12l-4.14-18.09c-0.22-0.96-1.12-1.59-2.01-1.39
					l-6.42,1.47c-0.88,0.2-1.42,1.16-1.2,2.12l4.14,18.09C89.36,60,90.27,60.62,91.15,60.42z"/>
			</g>
		</g>
		<path class="st4" d="M97.5,56.49l-8.53,2.08c-1.17,0.28-1.72,1.36-1.12,2.78c0.35,0.83,1,1.65,2.04,2.41
			c5.13,3.72,2.66,1.99,11.15,7.69c1.14,0.77,2.26,0.99,3.01,0.75c0.82-0.14,1.32-0.76,1.16-1.77c-1.21-7.47-0.78-5.24-1.85-9.95
			c-0.22-0.96-0.8-1.81-1.6-2.53C100.39,56.73,98.67,56.21,97.5,56.49z"/>
	</g>
	<g>
		<path class="st1" d="M132.77,151.44c8.44,6.24,0.97,9,0.97,18.21c0,8.25-6.47,13.78-14.76,13.78c-1.06,0-75.86,0.46-78.16-18.38
			c-0.83-6.83-2.1-17.18,38.32-19.52C88.4,144.99,130.61,149.84,132.77,151.44z"/>
	</g>
	<g>
		<path class="st4" d="M143.28,165.22c-6.07,34.59-17.18,67.86-23.25,102.45c-0.99,5.62-7.44,8.88-13.04,7.5
			c-6.65-1.65-4.82-6.15-3.83-11.79c6.07-34.59,7.81-70.34,13.88-104.93c0.99-5.62,8.78-8.73,14.38-7.35
			C138.07,152.74,144.26,159.58,143.28,165.22L143.28,165.22z"/>
	</g>
	<g>
		<path class="st4" d="M64.87,158.73c10.26,33.29,12.64,68.64,22.9,101.93c3.94,12.79-11.19,17.8-15.14,4.98
			c-10.26-33.29-22.29-66.01-32.55-99.29C36.13,153.54,60.91,145.91,64.87,158.73L64.87,158.73z"/>
	</g>
	<path class="st15" d="M68.88,274.66l9.5-6.87c0.71-0.35,7.35-0.82,7.48-0.06c0,0,4.38,7.6,1.34,13.26
		c-0.14,0.48-0.6,0.84-1.15,0.84l-15.44-0.09C66.56,281.71,65.27,276.44,68.88,274.66z"/>
	<path class="st15" d="M123.43,274.32l-10.04-7.26c-0.75-0.37-7.76-0.86-7.91-0.06c0,0-4.62,8.03-1.42,14.01
		c0.15,0.51,0.63,0.89,1.22,0.88l16.32-0.1C125.88,281.77,127.25,276.2,123.43,274.32z"/>
	<path class="st16" d="M51,81.07c2.88-10.96,24.84-4.18,21.94,6.81c-2.17,8.24-6.83,20.56-9.08,33.88l-18.62-1.02
		C46.31,106.69,48.47,90.67,51,81.07z"/>
	<path class="st4" d="M63.86,121.76c-1.04,6.16-1.57,12.53-1.09,18.8l-18.23-1.02c-0.11-5.02,0.16-11.66,0.7-18.8L63.86,121.76z"/>
	<path class="st4" d="M112.85,134.11c5.57,2.7,8.66,7.82,6.9,11.45c-1.76,3.63-7.7,4.39-13.26,1.69c-5.57-2.7-8.66-7.82-6.9-11.45
		C101.34,132.16,107.28,131.41,112.85,134.11z"/>
	<path class="st4" d="M54.84,134.88c15.69-1.47,30.53-2.61,46.29-3.74c11.6-0.83,12.96,12.76,1.35,13.6
		c-10.05,0.72-19.98,2.95-29.86,4.78c-8.47,1.57-9.29,2.13-18.67,3.07C53.66,152.62,54.84,134.88,54.84,134.88z"/>
	<path class="st4" d="M57.49,152.21c0,0-17,4.59-12-19.03C45.49,133.18,74.65,137.62,57.49,152.21z"/>
</g>
<g>
	<path class="st8" d="M542.84,67.2H530.8c-1.29,0-1.93-1.06-1.41-2.35l10.68-26.58c0.52-1.29,2.01-2.35,3.3-2.35h12.04
		c1.29,0,1.93,1.06,1.41,2.35l-10.68,26.58C545.62,66.14,544.13,67.2,542.84,67.2z"/>
	<g>
		<path class="st7" d="M549.74,273.95l-18.08-5.81c-0.89-0.29-1.97,0.06-2.14,0.68l-2.77,9.96c-0.16,0.58,0.54,1.11,1.47,1.1
			l19.33-0.12C552.63,279.74,554.26,275.41,549.74,273.95z"/>
		<path class="st4" d="M536.61,229.4l17.75,0.3c-3.59,10.8-7.93,22.21-12.81,37.69c-4.16,13.2-16.7,8.88-12.51-4.41
			C533.16,249.87,535.19,239.45,536.61,229.4z"/>
		<path class="st19" d="M536.61,229.4l17.75,0.3c3.13-9.42,5.68-18.38,7.51-29.16c1.28-7.55,3.76-15.14-2.04-21.41
			c-10.05-10.87-34.22-13.68-59.24-22.38c-5.53-1.92-11.8,2.19-13.27,7.54c-1.62,5.88,2.03,11.36,7.54,13.27
			c12.57,4.37,37.83,10.37,46.61,14.81C539.1,206.57,538.26,217.73,536.61,229.4z M539.39,191.38
			C540.28,191.74,540.24,191.76,539.39,191.38L539.39,191.38z"/>
		<g>
			<path class="st11" d="M494.46,63.67c0.71-0.13,4.61,1.38,7.08,4.82c6.43,8.92,12.44,19.17,18.26,29.08
				c1.21,2.06,2.41,4.1,3.58,6.09l0.38,0.64l0.44-0.6c2.61-3.55,6.12-8.34,9.03-13.85l10.51,4.97c-3.58,10.11-8.8,18.44-15.52,24.58
				c-1.09,1-2.42,1.42-3.95,1.26c-3.48-0.37-7.3-3.67-9.38-6.58c-4.91-6.88-8.27-13.37-11.51-19.64
				c-3.31-6.4-6.73-13.02-11.79-20.05C488.96,70.75,491.86,66,494.46,63.67z"/>
			<path class="st4" d="M540.92,68.19c0.05-0.5,0.09-0.93,0.12-1.29c0.08-0.84,0.14-1.51,0.27-1.65c0.05-0.05,0.21-0.07,0.42-0.07
				c0.24,0,0.55,0.02,0.88,0.04c0.59,0.04,1.39,0.09,2.43,0.09c1.3,0,2.21,0.32,2.81,0.98c0.9,1,1.14,2.82,0.79,6.08
				c-0.88,8.2-2.54,15.71-4.93,22.44l-10.51-4.97C537.2,82.31,540.33,73.76,540.92,68.19z"/>
		</g>
		<path class="st11" d="M458.96,160.78c19.36-44.38-1.94-101.68,27.41-101.68c7.86,0,13.97,5.8,18.18,12.09
			c2.49,3.72,4.62,7.58,6.21,11.58c1.09,5.14,2.28,10.26,1.93,15.56c-0.42,6.38-2.34,12.6-3.55,18.85
			c-4.88,25.09-2.19,24.18-0.88,36.09c0.82,7.45,1.12,12.56-1.36,18.63c-0.29,0.72-0.74,1.37-1.29,1.92
			c-4.43,4.52-11.82,8.3-27.28,8.3c-14.64,0-21.99-0.31-21.99-10.25C456.33,168.18,457.53,164.06,458.96,160.78z"/>
		<g>
			<path class="st4" d="M501.57,265.25c-0.57,5.8-0.96,10.95-7.19,10.95c-5.4,0-6.46-4.95-5.89-10.79
				c0.69-7.03,3.02-22.5,5.26-36.74l15.44,0.26C506.05,238.85,503,250.67,501.57,265.25z"/>
			<path class="st20" d="M469.37,160.07c14.68,4.39,39.12,11.53,46.75,25.24c6.2,11.14-0.53,23.36-6.94,43.63l-15.44-0.26
				c2.28-14.58,4.46-27.86,4.63-29.47c0.25-2.3-21.01-14.02-31.47-16.72c-1.3-0.34-4.09-0.45-4.09-0.45
				C449.55,178.07,456.01,156.08,469.37,160.07z"/>
		</g>
		<g>
			<g>
				<g>
					<path class="st4" d="M481.19,36.83c-0.13,1.8,0.97,3.36,2.47,3.47c1.5,0.11,2.82-1.26,2.95-3.06
						C486.93,32.91,481.51,32.52,481.19,36.83z"/>
				</g>
				<g>
					<path class="st4" d="M499.18,23.68c3.86,4.26,2.74,8.84,2.13,17.05c-0.43,5.83-4.75,10.3-9.58,9.94
						c-4.84-0.36-8.44-5.42-8-11.25l0.62-8.25L499.18,23.68z"/>
				</g>
				<g>
					<path class="st4" d="M483.68,62.02l6.47,0.48c0.89,0.07,1.68-0.67,1.75-1.64l1.36-18.22c0.07-0.97-0.6-1.82-1.48-1.89
						l-6.47-0.48c-0.89-0.07-1.68,0.67-1.75,1.65l-1.36,18.22C482.12,61.11,482.79,61.96,483.68,62.02z"/>
				</g>
			</g>
			<path class="st4" d="M491.69,60.04l-8.38-1.35c-1.15-0.19-2.1,0.4-2.2,1.61c-0.06,0.71,0.15,1.51,0.74,2.4
				c6.4,9.71,7.24,10.57,8.71,10.73c0.78,0.17,1.49-0.11,1.78-0.88c2.2-5.73,1.61-4,2.73-7.72c0.23-0.76,0.09-1.56-0.3-2.34
				C494.11,61.17,492.84,60.23,491.69,60.04z"/>
		</g>
		<path class="st4" d="M549.23,66.6c-0.76,3.94-3.41,6.74-5.92,6.26c-2.51-0.48-3.94-4.07-3.18-8.01c0.76-3.94,3.41-6.74,5.92-6.26
			C548.56,59.08,549.99,62.66,549.23,66.6z"/>
		<path class="st4" d="M491.55,166.71c3.76,3,5.06,7.62,2.9,10.32c-2.15,2.7-6.95,2.46-10.7-0.54c-3.76-3-5.06-7.62-2.9-10.32
			C483,163.47,487.79,163.71,491.55,166.71z"/>
		<path class="st7" d="M506.87,273.52l-8.77-6.34c-0.66-0.32-6.78-0.75-6.91-0.05c0,0-4.04,7.01-1.24,12.24
			c0.13,0.44,0.55,0.78,1.06,0.77l14.25-0.09C509.01,280.03,510.2,275.16,506.87,273.52z"/>
		<path class="st11" d="M478.15,61.23c0,0-8.75,3.31-12.47,7.36l9.2,0.94L478.15,61.23z"/>
		<g>
			<path class="st11" d="M447.89,125.1c-0.09-5.75,2.02-12.12,3.32-17.64c2.94-12.54,6.7-25.13,12.76-36.55
				c5.03-9.49,19.43-1.07,14.4,8.42c-6.51,12.29-20.31,44.11-16.84,52.19c1.09,2.54,2.66,5.43,4.54,8.44l-10.08,9.24
				C451.16,142.34,448.04,134.51,447.89,125.1z"/>
			<path class="st4" d="M466.06,139.96c6.17,9.87,15.72,21.15,22.92,26.71c3.57,2.76,2.25,4.87-0.65,7.77
				c-3.52,3.52-6.72-1.16-10.3-3.92c-8.33-6.44-16.37-13.21-22.05-21.31L466.06,139.96z"/>
		</g>
	</g>
</g>
<g>
	<path class="st3" d="M743.1,40.43c-1.37,8.01,5.72,17.29-1.8,23.56c-3.56,2.96-9.58,4.24-12.88,7.34
		c-7.2,6.77,2.18,16.09,5.22,20.99c3.73,6-2.14,7.25-6.31,11.32c-4.13,4.03-3.24,9.69,0.42,13.91c5.69,6.55,22.7,14.06,31.63,15.01
		c20.32,2.17,45.34-15.28,44.96-36.12c-0.15-7.94-3.81-15.98-0.96-23.69c1.79-4.86,6.04-9.13,8.45-13.86
		c3.92-7.71,2.58-16.57-3.58-23.56c-2.18-2.48-4.8-3.6-7.92-5.35c-4.61-2.59-4.3-2.93-6.47-6.65c-2.84-4.88-7.95-4.73-15.89-3.71
		C762.9,21.52,744.96,29.5,743.1,40.43z"/>
</g>
<g>
	<path class="st4" d="M805.2,114.89c0.41,1.58,0.87,3.1,1.36,4.51c7.77-7.22,15.69-16.9,23.01-24.98c-0.89-1.21-0.91-2.94-0.33-4.35
		c0.62-1.49,1.79-2.67,2.97-3.76c1.5-1.37,3.09-2.62,4.73-3.82c0.04,0,0.08,0,0.12,0c0.68-0.04,1.34-0.01,2.02-0.02
		c0.15,0.01,0.25,0.02,0.34,0.03c0.2,0.04,0.4,0.07,0.6,0.11c0.24,0.05,1.22,0.41,1.45,0.45c0.6,0.37,1.33,0.85,0.27-0.01
		c0.28,0.22,0.56,0.4,0.85,0.59c-0.06,0.04-0.11,0.08-0.17,0.12c0.14,0.07,0.29,0.1,0.42,0.19c1.38,0.92,1.78,2.9,1.3,4.51
		c-0.23,0.78-0.63,1.49-1.11,2.14c-3.5,6.49-15.43,26.8-37.52,46.65c-2.36,2.66-6.71,1.79-7.87-1.57l-5.84-16.97
		C796.51,118.67,801.27,117.74,805.2,114.89z"/>
	<path class="st20" d="M791.81,118.72l-3.03-8.8c4.85,1.17,7.25-9.07,11.87-12.32c0.53,3.25,3.78,14.32,4.56,17.3
		C801.27,117.74,796.51,118.67,791.81,118.72z"/>
</g>
<g>
	<path class="st11" d="M819.22,271.78l-17.2-5.65c-0.85-0.28-1.88,0.04-2.05,0.64l-2.69,9.48c-0.16,0.55,0.51,1.06,1.4,1.06h18.42
		C821.94,277.32,823.52,273.2,819.22,271.78z"/>
	<path class="st4" d="M828.33,215.27c-0.41,2.35-0.81,4.65-1.17,6.88c-2.41,14.88-10.34,31.49-15.04,45.78
		c-2.64,8.03-14.51,5.54-12.16-1.16c6.53-18.52,9.66-35.26,11.14-48.44C816.72,219.73,823.11,218.47,828.33,215.27z"/>
	<path class="st21" d="M753.77,166.58c17.26,1.36,34.5-0.72,51.73,0.31c11.79,0.7,25.02,4.85,25.79,18.78
		c0.52,9.37-1.27,19.87-2.96,29.59c-5.22,3.21-11.62,4.46-17.22,3.07c1.96-17.46,1-28.67,1.11-29.43
		c-2.42-0.04-31.34,0.46-49.42-0.07c-0.18-0.41-0.37-0.8-0.59-1.17c-1.8-3.08-4.36-4.49-7.53-5.79c2.54,1.04-1.6-0.76-2.03-0.95
		c-1.12-0.51-2.23-1.02-3.36-1.51c-1.98-0.86-3.95-1.68-5.96-2.36C743.15,171.46,746.61,166.02,753.77,166.58z"/>
</g>
<path class="st11" d="M776.24,271.73l-17.22-5.6c-0.85-0.28-1.88,0.05-2.05,0.65l-2.67,9.49c-0.16,0.55,0.51,1.06,1.4,1.06
	l18.42-0.05C778.97,277.26,780.54,273.13,776.24,271.73z"/>
<path class="st20" d="M798.57,87.5c0.08-0.07,0.15-0.14,0.22-0.2c-0.5-1.23-1.03-2.46-1.63-3.69c-1.38-2.86-7.14-11.4-9.53-14.13
	c-10.03-8.98-18.81-4.32-25.02,0.29c-0.04,0.05-0.08,0.09-0.12,0.14c-0.7,0.86-1.48,1.68-2.34,2.4c-0.37,0.68-0.77,1.34-1.21,1.97
	c-1.11,1.57-2.1,3.2-3.02,4.87c-0.08,0.24-0.17,0.48-0.26,0.71c-0.11,0.29-0.22,0.57-0.33,0.87c-0.59,1.54-0.94,3.12-1.18,4.71
	c-0.01,1.04-0.04,2.09-0.02,3.13c0.22,10.56,5.04,19.99,5.32,30.4c0.07,2.56-0.22,5.03-0.71,7.45c-0.23,0.81-0.48,1.6-0.76,2.39
	c-2.64,13.61-10.88,25.34-13.06,38.84c0.14,0.63,0.29,1.26,0.47,1.89c1.44-2.57,4.51-3.7,7.33-3.54c2.82,0.16,5.47,1.4,8.05,2.62
	c7.13,3.39,14.44,6.9,22.24,7.34c4.33,0.24,8.64-0.48,12.91-1.37c1.2-3.76,2.19-7.58,2.72-11.49c0.92-6.79-2.09-13.82-3.05-20.54
	c-1.8-12.61-2.06-25.62,2.12-38c0.62-1.82,1.87-2.87,3.27-3.29C801.16,100.13,799.81,90.87,798.57,87.5z"/>
<g>
	<path class="st20" d="M727.72,163.58c18.53-18.85,41.87-9.51,51.08-4.62c-0.04,1.57,0.08,3.26-0.14,4.82
		c-0.69,4.83-2.16,9.51-3.86,14.1c-26.11,9.79-42.45-2.06-48.27-7.62C727.02,168.05,727.4,165.83,727.72,163.58z"/>
</g>
<path class="st4" d="M800.48,218.2c-2,4.48-4.1,8.87-5.96,13c-6.04,13.42-17.86,27.14-25.97,39.47c-4.55,6.92-15.22,1.35-11.26-4.38
	c13.02-18.89,20.54-36.21,25.07-49.13C787.78,220.19,794.15,220.89,800.48,218.2z"/>
<path class="st13" d="M737.3,161.08c16.38,5.46,33.59,7.69,50.02,12.84c11.24,3.52,23.03,10.63,20.3,23.94
	c-1.37,6.66-4.13,13.61-7.13,20.34c-6.33,2.7-12.7,1.99-18.12-1.04c4.31-12.3,5.72-20.29,5.97-20.88
	c-2.79-0.75-42.34-9.92-56.48-14.64C718.64,177.23,724.01,156.65,737.3,161.08z"/>
<path class="st20" d="M762.62,69.76c0,0-15.73,10.71-12.46,36.71c0,0,4.75,3.27,14.67-3.99L762.62,69.76z"/>
<path class="st17" d="M839.98,78.59c-0.39-0.04-0.76,0.15-1.09,0.37c-1.45,0.97-2.3,2.59-3.1,4.13c-0.34,0.66-0.68,1.32-0.86,2.04
	c-0.6,2.43,0.8,4.87,2.22,6.93c2.49,3.62,7.11-0.16,7.36-3.59C844.67,86.27,842.49,78.84,839.98,78.59z"/>
<g>
	<g>
		<path class="st4" d="M775.49,42.56c-0.47,1.67,0.28,3.36,1.68,3.76c1.4,0.4,2.92-0.63,3.39-2.3
			C781.7,39.99,776.62,38.55,775.49,42.56z"/>
	</g>
	<g>
		<path class="st4" d="M795.1,33.71c2.85,4.78,0.91,8.88-1.24,16.51c-1.53,5.41-6.48,8.77-11,7.48c-4.52-1.3-6.98-6.78-5.45-12.19
			l2.16-7.66L795.1,33.71z"/>
	</g>
	<g>
		<path class="st4" d="M773.04,66.81l6.05,1.73c0.83,0.24,1.72-0.3,1.98-1.21l4.78-16.91c0.25-0.9-0.22-1.83-1.05-2.07l-6.05-1.73
			c-0.83-0.24-1.72,0.3-1.98,1.21L772,64.73C771.74,65.63,772.21,66.57,773.04,66.81z"/>
	</g>
</g>
<path class="st8" d="M838.47,93.06h-42.31c-1.83,0-2.67-1.48-1.89-3.3l10.38-24.21c0.78-1.83,2.9-3.3,4.72-3.3h42.31
	c1.83,0,2.67,1.48,1.89,3.3l-10.38,24.21C842.4,91.58,840.29,93.06,838.47,93.06z"/>
<g>
	<path class="st4" d="M766.34,112.52c0.34,1.69,0.72,3.31,1.15,4.82c8.1-7.23,16.46-17.06,24.15-25.21
		c-0.83-1.32-0.77-3.15-0.12-4.61c0.69-1.54,1.91-2.73,3.15-3.82c1.56-1.37,3.21-2.62,4.9-3.79c0.04,0,0.08,0.01,0.12,0.01
		c0.68-0.01,1.34,0.06,2.02,0.08c0.15,0.02,0.25,0.04,0.34,0.05c0.2,0.05,0.4,0.09,0.59,0.15c0.23,0.07,1.2,0.49,1.43,0.54
		c0.58,0.42,1.29,0.96,0.27,0.01c0.26,0.25,0.54,0.45,0.82,0.66c-0.06,0.04-0.12,0.08-0.18,0.12c0.13,0.08,0.28,0.12,0.41,0.22
		c1.33,1.04,1.64,3.15,1.09,4.82c-0.27,0.81-0.7,1.54-1.21,2.2c-3.8,6.67-16.67,27.51-39.65,47.36c-2.48,2.69-6.79,1.56-7.79-2.04
		l-5.05-18.19C757.47,116.07,762.27,115.33,766.34,112.52z"/>
	<path class="st20" d="M752.78,115.9l-2.62-9.44c4.79,1.47,9.9-0.79,14.67-3.99c0.38,3.45,0.87,6.87,1.51,10.04
		C762.27,115.33,757.47,116.07,752.78,115.9z"/>
</g>
<path class="st4" d="M780.69,74.22h-8.75c-2.38,0-4.33-1.95-4.33-4.33c0-2.38,1.95-4.33,4.33-4.33h8.75c2.38,0,4.33,1.95,4.33,4.33
	C785.02,72.27,783.07,74.22,780.69,74.22z"/>
<rect x="74.08" y="196.06" class="st0" width="8.66" height="82.5"/>
<rect x="1365.04" y="196.06" class="st0" width="14.91" height="82.5"/>
<g>
	<path class="st3" d="M259.77,33.58c1.23,8-5.16,17.27,1.61,23.53c3.21,2.96,8.64,4.23,11.61,7.32c6.49,6.75-1.97,16.08-4.72,20.96
		c-3.37,5.99,1.93,7.24,5.68,11.3c3.72,4.02,2.92,9.68-0.38,13.89c-5.13,6.54-20.47,14.05-28.52,15
		c-18.32,2.18-40.88-15.24-40.53-36.06c0.13-7.93,3.44-15.97,0.88-23.66c-1.62-4.85-5.45-9.12-7.62-13.84
		c-3.53-7.7-2.32-16.55,3.24-23.53c1.97-2.48,4.33-3.59,7.14-5.35c4.16-2.59,3.88-2.93,5.83-6.65c2.56-4.87,7.17-4.72,14.33-3.71
		C241.92,14.71,258.09,22.67,259.77,33.58z"/>
</g>
<g>
	<path class="st15" d="M255.19,74.39c1.98,2.66,12.9,35.84,14.37,40.87l-15.32-1.55c-4.89-12.35-10.04-25.56-12.28-34.08
		c-0.47-1.79-1.23-4.69-1.71-7.58L255.19,74.39z"/>
	<path class="st4" d="M263.24,135.71c-2.09-5.64-5.48-13.61-9.01-22l15.32,1.55c0.37,1.19,0.73,2.38,1.1,3.56
		c1.76,5.58,3.94,10.23,4.95,13.72l-12.19,3.42C263.44,135.89,263.26,135.77,263.24,135.71z"/>
</g>
<path class="st15" d="M255.99,76.77c0,4.98-12.6,9.02-28.15,9.02s-28.15-4.04-28.15-9.02s12.6-11.59,28.15-11.59
	S255.99,71.79,255.99,76.77z"/>
<path class="st22" d="M202.94,149.36c0,0-6.24,19.94-0.06,32.3C202.88,181.66,219.87,162.14,202.94,149.36z"/>
<path class="st22" d="M251.97,149.29c0,0,6.93,19.71,1.17,32.28C253.14,181.57,235.49,162.64,251.97,149.29z"/>
<path class="st22" d="M248.39,152.19c-6.3,1.75-12.42,4-17.99,5.95c-0.83,0.29-1.61,0.67-2.35,1.11c-0.26-0.06-0.51-0.12-0.77-0.18
	c-0.26,0.06-0.51,0.12-0.77,0.18c-0.74-0.44-1.52-0.82-2.35-1.11c-5.2-1.82-10.88-3.9-16.73-5.6v25.87
	c1.58,0.99,3.34,1.96,5.65,2.77c1.09,0.38,8.05,0.62,14.2,0.59c6.16,0.03,13.11-0.21,14.2-0.59c2.94-1.03,4.99-2.32,6.91-3.58
	V152.19z"/>
<path class="st15" d="M250.09,83.28c0.1-3.01-1.36-6.4-3.67-9.6h-37.18c-2.34,3.08-3.82,6.43-3.59,9.6
	c0.63,8.47,3.05,29.02,3.05,37.52c0,21.82-5.52,14.77-5.52,29.01c0,13.43,5.79,16.96,21.84,16.96c0.95,0,1.9-0.01,2.84-0.02
	c0.94,0.02,1.89,0.02,2.84,0.02c16.05,0,21.48-3.23,21.48-16.66c0-14.24-6.34-6.88-6.34-28.7
	C245.85,112.91,249.79,91.76,250.09,83.28z"/>
<path class="st4" d="M237.36,42.94c0,0,0.01-2.54,0.01-2.54l-12.96-8.23c-1.87,1.93-3.11,4.85-3.12,8.15l-0.01,1.46
	c-0.11-0.02-0.22-0.03-0.33-0.03c-1.37,0.02-2.49,1.46-2.49,3.23c-0.01,1.77,1.1,3.19,2.47,3.17c0.11,0,0.22-0.02,0.33-0.03l0,0.56
	c-0.01,3.34,1.21,6.3,3.12,8.18l-0.04,10.7c-1.42,1.06-2.3,2.47-1.42,3.99c1.96,3.4,0.98,1.8,4.49,7.11
	c0.47,0.72,1.25,1.05,2.01,1.02c0.76,0.04,1.54-0.3,2.01-1.02c3.52-5.3,2.53-3.71,4.49-7.11c0.97-1.68-0.22-3.24-1.9-4.32
	l0.04-10.38c1.81-1.76,3.04-4.45,3.25-7.5c1.4-0.01,2.52-1.46,2.52-3.23C239.84,44.35,238.73,42.93,237.36,42.94z"/>
<path class="st4" d="M230.15,85.27h-1.89c-3.98,0-7.24-3.26-7.24-7.24V73.5c0-3.98,3.26-7.24,7.24-7.24h1.89
	c3.98,0,7.24,3.26,7.24,7.24v4.53C237.39,82.01,234.13,85.27,230.15,85.27z"/>
<g>
	<path class="st15" d="M200.16,75.24c-1.99,2.66-11.86,35.32-13.34,40.35l15.32-1.5c4.92-12.33,10.11-25.53,12.37-34.05
		c0.48-1.79,1.24-4.69,1.73-7.57L200.16,75.24z"/>
	<path class="st4" d="M193.07,136.06c2.11-5.63,5.52-13.59,9.07-21.97l-15.32,1.5c-0.37,1.19-0.74,2.37-1.11,3.56
		c-1.78,5.57-3.72,9.56-4.75,13.05l12.13,4.07C193.07,136.19,193.06,136.11,193.07,136.06z"/>
</g>
<path class="st4" d="M203.85,125.86c-3.43,0.81-11.82,1.77-12.97,1.14l-9.4,5.31c2.07,3.7,4.66,5.63,11.53,5.56
	c11.13-0.12,18.99-4.81,28.56-9.87c1.36-0.72,2.46-1.58,3.34-2.48l-6.88-5.3C213.45,122.56,208.72,124.7,203.85,125.86z"/>
<path class="st4" d="M253.57,125.86c3.43,0.81,11.82,1.77,12.97,1.14l9.4,5.31c-2.07,3.7-4.66,5.63-11.53,5.56
	c-11.13-0.12-18.99-4.81-28.56-9.87c-1.36-0.72-2.46-1.58-3.34-2.48l6.88-5.3C243.98,122.56,248.7,124.7,253.57,125.86z"/>
<path class="st8" d="M234.5,124.92h-10.58c-1.29,0-2.35-1.06-2.35-2.35V98.72c0-1.29,1.06-2.35,2.35-2.35h10.58
	c1.29,0,2.35,1.06,2.35,2.35v23.85C236.85,123.86,235.79,124.92,234.5,124.92z"/>
<ellipse class="st4" cx="220.27" cy="124.78" rx="8.17" ry="5.26"/>
<ellipse class="st4" cx="238.02" cy="124.78" rx="8.17" ry="5.26"/>
<path class="st23" d="M203.06,168.26c2.45-4.58,8.3-6.31,12.89-3.87c0.02,0.01,0.04,0.02,0.05,0.03c7.79,3.87,8.85,20.42,8.88,20.85
	c2.12,26.94-0.43,54.27,1.79,81.18c0.44,5.28,0.86,9.74-4.54,10.69c-3.24,0.57-6.04-1.84-6.21-5.13
	c-1.43-26.43-10.27-51.91-12.5-78.25c-0.55-6.44-1.3-12.89-1.64-19.34C201.64,172.09,202.12,170.02,203.06,168.26z"/>
<path class="st23" d="M252.39,167.77c-2.45-4.58-8.3-6.31-12.89-3.87c-0.02,0.01-0.04,0.02-0.05,0.03
	c-7.79,3.87-8.85,20.42-8.88,20.85c-2.12,26.94,0.43,54.27-1.79,81.18c-0.44,5.28-0.86,9.74,4.54,10.69
	c3.24,0.57,6.04-1.84,6.21-5.13c1.43-26.43,10.27-51.91,12.5-78.25c0.55-6.44,1.3-12.89,1.64-19.34
	C253.8,171.6,253.33,169.53,252.39,167.77z"/>
<path class="st24" d="M208.65,273.65l9.04-6.53c0.68-0.33,6.99-0.78,7.12-0.05c0,0,4.16,7.23,1.28,12.61
	c-0.13,0.46-0.57,0.8-1.1,0.8l-14.69-0.09C206.44,280.36,205.21,275.34,208.65,273.65z"/>
<path class="st24" d="M245.87,273.65l-9.04-6.53c-0.68-0.33-6.99-0.78-7.12-0.05c0,0-4.16,7.23-1.28,12.61
	c0.13,0.46,0.57,0.8,1.1,0.8l14.69-0.09C248.08,280.36,249.31,275.34,245.87,273.65z"/>
<g>
	<path class="st8" d="M1385.82,73.44c-5.79-9.75-25.03,2.81-19.22,12.59c6.36,10.72,20.27,28.35,24.27,47.85l17.25-6
		C1404.33,113.45,1393.46,86.31,1385.82,73.44z"/>
	<ellipse class="st8" cx="1348.62" cy="59.63" rx="28.43" ry="15.59"/>
	<g>
		<path class="st8" d="M1311.78,63.29c-9.65,16.94-16.75,31.6-21.5,50.56c-4.76,19.02-3.39,39.17-2.45,58.64
			c0.55,11.4,14.68,10.82,14.13-0.65c-0.86-17.88,2.62-34.35,7-51.83c4.4-17.56,16.04-29.86,24.97-45.55
			C1339.62,64.46,1317.48,53.29,1311.78,63.29L1311.78,63.29z"/>
	</g>
	<path class="st8" d="M1313.74,61.58c-5.37,6.65-5,10.59-5,18.15c0,13.77,12.27,26.1,12.27,38.46c0,14.81-3.24,30.71-3.24,45.76
		c0,6.34-5.14,10.98,7.57,10.98c2.42,0,4.51-0.25,6.39-0.64l-4.65-118.7C1319.32,58.1,1314.22,60.99,1313.74,61.58z"/>
	<path class="st2" d="M1341.98,52.02c-5.55,0.58-10.62,2-14.79,3.58l3.95,118.7c8.27-2.05,11.29-8.6,17.44-11.74
		c6.05-3.1,10.57-6.15,13.94-9.21l7.92-95.05C1361.54,53.52,1350.36,51.14,1341.98,52.02z"/>
	<path class="st8" d="M1385.37,77.65c0-8.12-6.44-14.82-14.92-19.36l-7.92,95.05c20.91-18.96,4.34-34.29,20.59-68.7
		C1384.21,82.33,1385.37,80.16,1385.37,77.65z"/>
	<path class="st3" d="M1362.91,16.65l-0.47,6.57c-0.7,9.79-7.11,17.39-14.26,16.88c-7.15-0.51-12.43-8.93-11.73-18.73l0.47-6.57
		c0-0.05,0.01-0.1,0.02-0.15c7.82-4.06,16.68-4.65,25.59-4.18C1362.91,12.42,1363.07,14.5,1362.91,16.65z"/>
	<path class="st4" d="M1340.36,29.43c0,0-0.01-3-0.01-3l15.3-9.72c2.21,2.27,3.67,5.73,3.69,9.62l0.01,1.73
		c0.13-0.02,0.25-0.03,0.39-0.03c1.62,0.02,2.93,1.73,2.94,3.81c0.01,2.09-1.3,3.76-2.91,3.74c-0.13,0-0.26-0.02-0.39-0.04l0,0.66
		c0.02,3.94-1.43,7.44-3.68,9.66l0.04,12.63c1.67,1.25,2.72,2.92,1.68,4.72c-2.32,4.01-1.15,2.13-5.3,8.39
		c-0.56,0.84-1.48,1.24-2.38,1.2c-0.9,0.05-1.82-0.35-2.38-1.2c-4.15-6.26-2.99-4.38-5.3-8.39c-1.15-1.99,0.25-3.82,2.24-5.1
		l-0.04-12.25c-2.13-2.07-3.59-5.26-3.83-8.85c-1.65-0.02-2.97-1.72-2.98-3.81C1337.44,31.09,1338.75,29.41,1340.36,29.43z"/>
	<path class="st4" d="M1293.82,184.74c-5.18,0.54-9.7-2.03-10.09-5.75c-0.39-3.72,3.49-7.18,8.67-7.72
		c5.18-0.54,9.7,2.03,10.09,5.75C1302.89,180.74,1299,184.2,1293.82,184.74z"/>
	<g>
		<path class="st5" d="M1342.35,144.64c-2.74,0-8.99,3.15-11.15,4.84c-8.44,6.63-15.08,9.31-15.08,19.08
			c0,8.75,6.47,14.62,14.76,14.62c1.06,0,70.25-1.65,70.25-21.77c0-8.2,10.01-15.96-30.41-18.44c-9.27-0.57-19.02,1.67-28.33,1.67
			C1342.38,144.64,1342.36,144.64,1342.35,144.64z"/>
	</g>
	<g>
		<path class="st6" d="M1336.58,162.65c6.07,34.59,17.18,67.86,23.25,102.45c0.99,5.62,7.44,8.88,13.04,7.5
			c6.65-1.65,4.82-6.15,3.83-11.79c-6.07-34.59-7.81-70.34-13.88-104.93c-0.99-5.62-8.78-8.73-14.38-7.35
			C1341.78,150.17,1335.59,157.02,1336.58,162.65L1336.58,162.65z"/>
	</g>
	<g>
		<path class="st6" d="M1379.88,157.66c0.12,34.83,8.38,69.29,8.5,104.12c0.05,13.39,15.99,13.65,15.94,0.24
			c-0.12-34.83,1.61-69.65,1.49-104.48C1405.78,144.15,1379.84,144.25,1379.88,157.66L1379.88,157.66z"/>
	</g>
	<path class="st7" d="M1380.97,272.09l-9.5-6.87c-0.71-0.35-7.35-0.82-7.48-0.06c0,0-4.38,7.6-1.34,13.26
		c0.14,0.48,0.6,0.84,1.15,0.84l15.44-0.09C1383.29,279.14,1384.59,273.87,1380.97,272.09z"/>
	<path class="st7" d="M1408.96,271.74l-9.5-6.87c-0.71-0.35-7.35-0.82-7.48-0.06c0,0-4.38,7.6-1.34,13.26
		c0.14,0.48,0.6,0.84,1.15,0.84l15.44-0.09C1411.28,278.79,1412.57,273.52,1408.96,271.74z"/>
	<path class="st8" d="M1356.58,96.96h-12.17c-1.79,0-3.25-1.45-3.25-3.25V66.96c0-1.79,1.46-3.25,3.25-3.25h12.17
		c1.79,0,3.25,1.46,3.25,3.25v26.75C1359.83,95.5,1358.37,96.96,1356.58,96.96z"/>
	<path class="st4" d="M1357.92,97.99c0.03,5.21-2.99,9.45-6.73,9.46c-3.74,0.02-6.8-4.19-6.82-9.4c-0.03-5.21,2.99-9.45,6.73-9.46
		C1354.84,88.57,1357.89,92.78,1357.92,97.99z"/>
	<path class="st8" d="M1396.12,126.91c-12.79-9.2-25.02-17.69-38.04-26.64c-9.59-6.58-17.63,4.46-8.04,11.05
		c8.31,5.7,15.74,12.65,23.34,19.22c6.51,5.64,13.62,13.09,21.91,16.1c0.28,0.1,0.56,0.18,0.84,0.26V126.91z"/>
	<path class="st8" d="M1396.12,146.91c0,0,17,4.59,12-19.03C1408.12,127.88,1378.95,132.32,1396.12,146.91z"/>
</g>
<path class="st3" d="M1115.49,26.94c0.49-0.78,1.52-1.04,2.1-1.75c0.76-0.92,0.57-2.32,0.1-3.42c-0.46-1.1-1.15-2.13-1.29-3.32
	c-0.12-1.02,0.18-2.05,0.14-3.08c-0.04-1.03-0.62-2.18-1.62-2.26c-0.47-0.04-0.94,0.18-1.41,0.14c-1.33-0.1-1.69-1.86-2.33-3.06
	c-0.72-1.34-2.19-2.21-3.68-2.17c-1.07,0.03-2.28,0.44-3.13-0.23c-0.67-0.53-0.86-1.6-1.64-1.92c-1.15-0.47-2.19,1.11-3.43,1.21
	c-0.87,0.07-1.61-0.59-2.39-0.98c-1.46-0.73-3.34-0.46-4.57,0.65c-0.66,0.59-1.16,1.41-1.97,1.76c-1.04,0.45-2.33-0.01-3.3,0.6
	c-0.86,0.55-1.09,1.74-0.99,2.76c0.1,1.03,0.45,2.03,0.4,3.06c-0.11,2.76-2.93,5.38-1.79,7.87c0.27,0.58,0.75,1.11,0.71,1.76
	c-0.04,0.66-0.61,1.18-0.71,1.83c-0.25,1.52,2.06,2.53,1.78,4.04c1.19-2.94,1.25-6.26,2.53-9.16c1.28-2.9,4.66-5.35,7.37-3.87
	c1.47,0.81,2.24,2.5,2.85,4.09c0.92,2.36,1.73,4.76,2.55,7.17c1.22,3.59,3.63,7.57,7.98,7.18c1.53-0.14,2.73-1.02,3.74-2.22
	C1115.34,31.47,1114.2,28.99,1115.49,26.94z"/>
<g>
	<g>
		<path class="st4" d="M1027.55,104.6l11.85,13.9c3.94-2.86,8.88-6.93,14.05-11.5l-12.49-13.43
			C1037.39,97.3,1033.09,101.02,1027.55,104.6z"/>
		<path class="st13" d="M1057.46,71.88c-5.13,6.56-9.3,14.15-16.49,21.68l12.49,13.43c10.67-9.44,22.37-21.09,28.58-29.03
			C1089.01,69.03,1064.46,62.92,1057.46,71.88z"/>
		<path class="st4" d="M1035.94,106.97c3.93-15.26,7.4-29.74,11.01-45.12c2.65-11.32-10.56-14.81-13.21-3.49
			c-2.3,9.81-6.07,19.26-9.44,28.72c-2.89,8.12-7.25,17.44-7.05,26.26c0.01,0.3,0.03,0.59,0.06,0.88L1035.94,106.97z"/>
		<path class="st4" d="M1017.31,114.22c0,0,1.89,17.51,22.09,4.27C1039.4,118.5,1024.67,92.93,1017.31,114.22z"/>
	</g>
	<path class="st8" d="M1018.63,48.95l6.03-10.15c0.59-0.99,1.89-1.81,2.88-1.81h22.1c0.99,0,1.32,0.81,0.73,1.81l-6.03,10.15
		c-0.59,0.99-1.89,1.81-2.88,1.81h-22.1C1018.37,50.76,1018.04,49.94,1018.63,48.95z"/>
	<path class="st4" d="M1032.73,55.35c2.36,4.65,6.97,7.04,10.31,5.34c3.34-1.69,4.13-6.83,1.77-11.48
		c-2.36-4.65-6.97-7.04-10.31-5.34C1031.17,45.57,1030.37,50.7,1032.73,55.35z"/>
	<path class="st13" d="M1134.01,76.97c4.81,6.66-2.84-1.2-2.84,6.36c0,13.77-12.27,26.1-12.27,38.46c0,14.81,3.24,30.71,3.24,45.76
		c0,6.34,5.14,10.98-7.57,10.98c-2.42,0-4.51-0.25-6.39-0.64l4.65-118.7C1127.5,63.5,1133.57,76.35,1134.01,76.97z"/>
	<path class="st13" d="M1097.94,55.61c5.55,0.58,10.62,2,14.79,3.58l-3.95,118.7c-8.27-2.05-11.29-8.6-17.44-11.74
		c-6.05-3.1-11.32-5.4-14.69-8.46l-7.17-95.81C1078.38,57.12,1089.55,54.73,1097.94,55.61z"/>
	<path class="st13" d="M1054.55,81.24c0-8.12,6.44-14.82,14.92-19.36l7.48,100.37c-20.91-18.96-3.9-39.6-20.16-74.01
		C1055.7,85.92,1054.55,83.76,1054.55,81.24z"/>
	<g>
		<g>
			<g>
				<path class="st3" d="M1087.79,16.27l-1.32,5.78c-1.97,8.6,1.56,16.82,7.84,18.26c6.28,1.44,13.03-4.42,15.01-13.03l1.32-5.78
					c0.01-0.04,0.02-0.09,0.02-0.13c-5.66-5.54-13.13-8.37-20.91-10.31C1088.9,12.64,1088.22,14.38,1087.79,16.27z"/>
			</g>
			<g>
				<path class="st4" d="M1104.01,32.55c1.49,0.34,2.36,2.07,1.95,3.86c-0.41,1.79-1.95,2.97-3.43,2.63
					c-1.49-0.34-2.36-2.07-1.95-3.86C1100.99,33.39,1102.53,32.21,1104.01,32.55z"/>
			</g>
			<g>
				<path class="st4" d="M1092.45,18.25c-2.47,1.47-4.48,4.11-5.24,7.45l-1.94,8.47c-1.33,5.79,1.52,11.42,6.32,12.52
					c4.8,1.1,9.82-2.73,11.14-8.52l1.88-8.19L1092.45,18.25z"/>
			</g>
			<g>
				<path class="st4" d="M1095.98,60.11l-6.42-1.47c-0.88-0.2-1.42-1.16-1.2-2.12l4.14-18.09c0.22-0.96,1.12-1.59,2.01-1.39
					l6.42,1.47c0.88,0.2,1.42,1.16,1.2,2.12l-4.14,18.09C1097.77,59.69,1096.87,60.32,1095.98,60.11z"/>
			</g>
		</g>
		<path class="st4" d="M1089.64,56.19l8.53,2.08c1.17,0.28,1.72,1.36,1.12,2.78c-0.35,0.83-1,1.65-2.04,2.41
			c-5.13,3.72-2.66,1.99-11.15,7.69c-1.14,0.77-2.26,0.99-3.01,0.75c-0.82-0.14-1.32-0.76-1.16-1.77c1.21-7.47,0.78-5.24,1.85-9.95
			c0.22-0.96,0.8-1.81,1.6-2.53C1086.75,56.42,1088.47,55.9,1089.64,56.19z"/>
	</g>
	<g>
		<path class="st9" d="M1054.37,151.14c-8.44,6.24-0.97,9-0.97,18.21c0,8.25,6.47,13.78,14.76,13.78c1.06,0,75.86,0.46,78.16-18.38
			c0.83-6.83,2.1-17.18-38.32-19.52C1098.74,144.69,1056.53,149.54,1054.37,151.14z"/>
	</g>
	<g>
		<path class="st4" d="M1043.86,164.91c6.07,34.59,17.18,67.86,23.25,102.45c0.99,5.62,7.44,8.88,13.04,7.5
			c6.65-1.65,4.82-6.15,3.83-11.79c-6.07-34.59-7.81-70.34-13.88-104.93c-0.99-5.62-8.78-8.73-14.38-7.35
			C1049.07,152.43,1042.87,159.28,1043.86,164.91L1043.86,164.91z"/>
	</g>
	<g>
		<path class="st4" d="M1122.27,158.42c-10.26,33.29-12.64,68.64-22.9,101.93c-3.94,12.79,11.19,17.8,15.14,4.98
			c10.26-33.29,22.29-66.01,32.55-99.29C1151.01,153.24,1126.22,145.6,1122.27,158.42L1122.27,158.42z"/>
	</g>
	<path class="st15" d="M1118.25,274.35l-9.5-6.87c-0.71-0.35-7.35-0.82-7.48-0.06c0,0-4.38,7.6-1.34,13.26
		c0.14,0.48,0.6,0.84,1.15,0.84l15.44-0.09C1120.57,281.4,1121.87,276.13,1118.25,274.35z"/>
	<path class="st15" d="M1063.7,274.02l10.04-7.26c0.75-0.37,7.76-0.86,7.91-0.06c0,0,4.62,8.03,1.42,14.01
		c-0.15,0.51-0.63,0.89-1.22,0.88l-16.32-0.1C1061.25,281.47,1059.88,275.9,1063.7,274.02z"/>
	<path class="st13" d="M1136.14,80.76c-2.88-10.96-24.83-4.18-21.94,6.81c2.17,8.24,6.83,20.56,9.08,33.88l18.62-1.02
		C1140.82,106.38,1138.66,90.36,1136.14,80.76z"/>
	<path class="st4" d="M1123.28,121.45c1.04,6.16,1.57,12.53,1.09,18.8l18.23-1.02c0.11-5.02-0.16-11.66-0.7-18.8L1123.28,121.45z"/>
	<path class="st4" d="M1074.29,133.8c-5.57,2.7-8.66,7.82-6.9,11.45c1.76,3.63,7.7,4.39,13.26,1.69c5.57-2.7,8.66-7.82,6.9-11.45
		C1085.79,131.86,1079.85,131.1,1074.29,133.8z"/>
	<path class="st4" d="M1132.29,134.57c-15.69-1.47-30.53-2.61-46.29-3.74c-11.6-0.83-12.96,12.76-1.35,13.6
		c10.05,0.72,19.98,2.95,29.86,4.78c8.47,1.57,9.29,2.13,18.67,3.07C1133.48,152.31,1132.29,134.57,1132.29,134.57z"/>
	<path class="st4" d="M1129.65,151.91c0,0,17,4.59,12-19.03C1141.65,132.88,1112.48,137.32,1129.65,151.91z"/>
</g>
<g>
	<path class="st16" d="M1242.79,74.08c1.98,2.66,12.9,35.84,14.37,40.87l-15.32-1.55c-4.89-12.35-10.04-25.56-12.28-34.08
		c-0.47-1.79-1.23-4.69-1.71-7.58L1242.79,74.08z"/>
	<path class="st4" d="M1250.84,135.41c-2.09-5.64-5.48-13.61-9.01-22l15.32,1.55c0.37,1.19,0.73,2.38,1.1,3.56
		c1.76,5.58,3.94,10.23,4.95,13.72l-12.19,3.42C1251.04,135.58,1250.86,135.46,1250.84,135.41z"/>
</g>
<path class="st16" d="M1243.59,76.46c0,4.98-12.6,9.02-28.15,9.02c-15.54,0-28.15-4.04-28.15-9.02c0-4.98,12.6-11.59,28.15-11.59
	C1230.99,64.87,1243.59,71.48,1243.59,76.46z"/>
<path class="st22" d="M1190.53,149.05c0,0-6.24,19.94-0.06,32.3C1190.48,181.36,1207.47,161.83,1190.53,149.05z"/>
<path class="st22" d="M1239.56,148.98c0,0,6.93,19.71,1.17,32.28C1240.74,181.27,1223.08,162.34,1239.56,148.98z"/>
<path class="st22" d="M1235.99,151.89c-6.3,1.75-12.42,4-17.99,5.95c-0.83,0.29-1.61,0.67-2.35,1.11c-0.26-0.06-0.51-0.12-0.77-0.18
	c-0.26,0.06-0.51,0.12-0.77,0.18c-0.74-0.44-1.52-0.82-2.35-1.11c-5.2-1.82-10.88-3.9-16.73-5.6v25.87
	c1.58,0.99,3.34,1.96,5.65,2.77c1.09,0.38,8.05,0.62,14.2,0.59c6.16,0.03,13.11-0.21,14.2-0.59c2.94-1.03,4.99-2.31,6.91-3.58
	V151.89z"/>
<path class="st16" d="M1237.68,82.97c0.1-3.01-1.36-6.4-3.67-9.6h-37.18c-2.34,3.08-3.82,6.43-3.59,9.6
	c0.63,8.47,3.05,29.02,3.05,37.52c0,21.82-5.52,14.77-5.52,29.01c0,13.43,5.79,16.96,21.84,16.96c0.95,0,1.9-0.01,2.84-0.02
	c0.94,0.02,1.89,0.02,2.84,0.02c16.05,0,21.48-3.23,21.48-16.66c0-14.24-6.34-6.88-6.34-28.7
	C1233.45,112.6,1237.39,91.46,1237.68,82.97z"/>
<path class="st4" d="M1224.96,42.64c0,0,0.01-2.54,0.01-2.54l-12.96-8.23c-1.87,1.93-3.11,4.85-3.12,8.15l-0.01,1.46
	c-0.11-0.02-0.22-0.03-0.33-0.03c-1.37,0.02-2.49,1.46-2.49,3.23c-0.01,1.77,1.1,3.19,2.47,3.17c0.11,0,0.22-0.02,0.33-0.03l0,0.56
	c-0.01,3.34,1.21,6.3,3.12,8.18l-0.04,10.7c-1.42,1.06-2.3,2.47-1.42,3.99c1.96,3.4,0.98,1.8,4.49,7.11
	c0.47,0.72,1.25,1.05,2.01,1.02c0.76,0.04,1.54-0.3,2.01-1.02c3.52-5.3,2.53-3.71,4.49-7.11c0.97-1.68-0.22-3.24-1.9-4.32
	l0.04-10.38c1.81-1.76,3.04-4.45,3.25-7.5c1.4-0.01,2.52-1.46,2.52-3.23C1227.43,44.04,1226.33,42.62,1224.96,42.64z"/>
<path class="st4" d="M1217.75,84.96h-1.89c-3.98,0-7.24-3.26-7.24-7.24v-4.53c0-3.98,3.26-7.24,7.24-7.24h1.89
	c3.98,0,7.24,3.26,7.24,7.24v4.53C1224.99,81.71,1221.73,84.96,1217.75,84.96z"/>
<g>
	<path class="st16" d="M1187.75,74.94c-1.99,2.66-11.86,35.32-13.34,40.35l15.32-1.5c4.92-12.33,10.11-25.53,12.37-34.04
		c0.48-1.79,1.24-4.69,1.73-7.57L1187.75,74.94z"/>
	<path class="st4" d="M1180.67,135.75c2.11-5.63,5.52-13.59,9.07-21.97l-15.32,1.5c-0.37,1.19-0.74,2.37-1.11,3.56
		c-1.78,5.57-3.72,9.56-4.75,13.05l12.13,4.07C1180.67,135.88,1180.65,135.8,1180.67,135.75z"/>
</g>
<path class="st4" d="M1191.45,125.56c-3.43,0.81-11.82,1.77-12.97,1.14l-9.4,5.31c2.07,3.7,4.66,5.63,11.53,5.56
	c11.13-0.12,18.99-4.81,28.56-9.87c1.36-0.72,2.46-1.58,3.34-2.48l-6.88-5.3C1201.04,122.25,1196.32,124.4,1191.45,125.56z"/>
<path class="st4" d="M1241.17,125.56c3.43,0.81,11.82,1.77,12.97,1.14l9.4,5.31c-2.07,3.7-4.66,5.63-11.53,5.56
	c-11.13-0.12-18.99-4.81-28.56-9.87c-1.36-0.72-2.46-1.58-3.34-2.48l6.88-5.3C1231.57,122.25,1236.3,124.4,1241.17,125.56z"/>
<path class="st23" d="M1201.65,167.95c2.45-4.58,8.3-6.31,12.89-3.87c0.02,0.01,0.04,0.02,0.05,0.03
	c7.79,3.87,8.85,20.42,8.88,20.85c2.12,26.94-0.43,54.27,1.79,81.18c0.44,5.28,0.86,9.74-4.54,10.69c-3.24,0.57-6.04-1.84-6.21-5.13
	c-1.43-26.43-10.27-51.91-12.5-78.25c-0.55-6.44-1.3-12.89-1.64-19.34C1200.24,171.78,1200.71,169.71,1201.65,167.95z"/>
<path class="st23" d="M1250.99,167.46c-2.45-4.58-8.3-6.31-12.89-3.87c-0.02,0.01-0.04,0.02-0.05,0.03
	c-7.79,3.87-8.85,20.42-8.88,20.85c-2.12,26.94,0.43,54.27-1.79,81.18c-0.44,5.28-0.86,9.74,4.54,10.69
	c3.24,0.57,6.04-1.84,6.21-5.13c1.43-26.43,10.27-51.91,12.5-78.25c0.55-6.44,1.3-12.89,1.64-19.34
	C1252.4,171.29,1251.92,169.22,1250.99,167.46z"/>
<path class="st24" d="M1207.25,273.34l9.04-6.53c0.68-0.33,6.99-0.78,7.12-0.05c0,0,4.16,7.23,1.28,12.61
	c-0.13,0.46-0.57,0.8-1.1,0.8l-14.69-0.09C1205.04,280.05,1203.81,275.03,1207.25,273.34z"/>
<path class="st24" d="M1244.47,273.34l-9.04-6.53c-0.68-0.33-6.99-0.78-7.12-0.05c0,0-4.16,7.23-1.28,12.61
	c0.13,0.46,0.57,0.8,1.1,0.8l14.69-0.09C1246.67,280.05,1247.9,275.03,1244.47,273.34z"/>
<path class="st3" d="M1198.27,46.64c-0.49-0.78-1.52-1.04-2.1-1.75c-0.76-0.92-0.57-2.32-0.11-3.42c0.46-1.1,1.15-2.13,1.29-3.32
	c0.12-1.02-0.18-2.05-0.14-3.08c0.04-1.03,0.62-2.18,1.62-2.26c0.47-0.04,0.94,0.18,1.41,0.14c1.33-0.1,1.69-1.86,2.33-3.06
	c0.72-1.34,2.19-2.21,3.68-2.17c1.07,0.03,2.28,0.44,3.13-0.23c0.66-0.53,0.86-1.6,1.64-1.92c1.15-0.47,2.19,1.11,3.43,1.21
	c0.87,0.07,1.61-0.59,2.39-0.98c1.46-0.73,3.34-0.46,4.57,0.65c0.66,0.59,1.16,1.41,1.97,1.76c1.04,0.45,2.33-0.01,3.3,0.6
	c0.86,0.55,1.09,1.74,0.99,2.76c-0.1,1.03-0.45,2.03-0.4,3.06c0.11,2.76,2.93,5.38,1.79,7.87c-0.27,0.58-0.75,1.12-0.71,1.76
	c0.04,0.66,0.61,1.18,0.71,1.83c0.25,1.52-2.06,2.53-1.78,4.04c-1.19-2.94-1.25-6.26-2.53-9.16c-1.28-2.9-4.66-5.35-7.37-3.87
	c-1.47,0.81-2.24,2.5-2.85,4.09c-0.92,2.36-1.73,4.76-2.55,7.17c-1.22,3.59-3.77,10.72-8.13,10.33c-1.53-0.14-2.59-4.18-3.59-5.37
	C1198.41,51.17,1199.56,48.69,1198.27,46.64z"/>
<path class="st3" d="M506.16,22.34c0,0-27.03,18.99-28.91,18.87c-1.88-0.11-5.12-15.86,2.51-18.87
	C487.39,19.33,490.39,16.34,506.16,22.34z"/>
<path class="st3" d="M479.41,38.87c0.68,0.16-4.61-7.7-11.09,0c-6.48,7.7-3.97,21.44-9.72,17.81c-5.75-3.63,11.84,7.12,13.32,0.06
	C473.39,49.67,474.49,37.73,479.41,38.87z"/>
<polyline class="st25" points="132.2,0 129.29,13.72 115.57,16.64 115.57,17.4 129.29,20.32 132.2,34.04 132.97,34.04 135.89,20.32 
	149.61,17.4 149.61,16.64 135.89,13.72 132.97,0 "/>
<polyline class="st25" points="268.94,27.71 265.25,45.06 247.9,48.74 247.9,49.71 265.25,53.4 268.94,70.75 269.91,70.75 
	273.59,53.4 290.94,49.71 290.94,48.74 273.59,45.06 269.91,27.71 "/>
<polyline class="st25" points="402.72,26.39 399.77,40.29 385.87,43.25 385.86,44.02 399.77,46.98 402.72,60.88 403.5,60.88 
	406.45,46.98 420.35,44.02 420.35,43.25 406.45,40.29 403.5,26.39 "/>
<polyline class="st25" points="528.81,6.27 525.46,22.04 509.69,25.39 509.69,26.27 525.46,29.62 528.81,45.39 529.69,45.39 
	533.04,29.62 548.81,26.27 548.81,25.39 533.04,22.04 529.69,6.27 "/>
<polyline class="st25" points="682.69,19 679.34,34.76 663.57,38.11 663.57,38.99 679.34,42.34 682.69,58.11 683.57,58.11 
	686.92,42.34 702.69,38.99 702.69,38.11 686.92,34.76 683.57,19 "/>
<polyline class="st25" points="953.93,31.2 950.58,46.96 934.82,50.32 934.82,51.2 950.58,54.55 953.93,70.31 954.81,70.31 
	958.16,54.55 973.93,51.2 973.93,50.32 958.16,46.96 954.81,31.2 "/>
<polyline class="st25" points="1057.38,4.12 1054.03,19.89 1038.26,23.24 1038.26,24.12 1054.03,27.47 1057.38,43.24 1058.26,43.24 
	1061.61,27.47 1077.38,24.12 1077.38,23.24 1061.61,19.89 1058.26,4.12 "/>
<polyline class="st25" points="1256.08,34.73 1252.73,50.49 1236.97,53.85 1236.97,54.73 1252.73,58.08 1256.08,73.84 
	1256.96,73.84 1260.32,58.08 1276.08,54.73 1276.08,53.85 1260.32,50.49 1256.96,34.73 "/>
<polyline class="st25" points="1389.12,8.59 1385.77,24.35 1370,27.7 1370,28.58 1385.77,31.93 1389.12,47.7 1390,47.7 
	1393.35,31.93 1409.11,28.58 1409.12,27.7 1393.35,24.35 1390,8.59 "/>
<polyline class="st25" points="836.92,9.7 832.94,28.41 814.24,32.39 814.24,33.43 832.94,37.41 836.92,56.12 837.97,56.12 
	841.94,37.41 860.65,33.43 860.65,32.39 841.94,28.41 837.97,9.7 "/>
<path class="st8" d="M1221.65,125.27h-10.58c-1.29,0-2.35-1.06-2.35-2.35V99.07c0-1.29,1.06-2.35,2.35-2.35h10.58
	c1.29,0,2.35,1.06,2.35,2.35v23.85C1224,124.21,1222.94,125.27,1221.65,125.27z"/>
</svg>
