<?xml version="1.0" encoding="utf-8"?>
<!-- Generator: Adobe Illustrator 23.0.1, SVG Export Plug-In . SVG Version: 6.00 Build 0)  -->
<svg version="1.1" id="レイヤー_1" xmlns="http://www.w3.org/2000/svg" xmlns:xlink="http://www.w3.org/1999/xlink" x="0px"
	 y="0px" viewBox="0 0 575.47 272.3" style="enable-background:new 0 0 575.47 272.3;" xml:space="preserve">
<style type="text/css">
	.st0{fill:#333333;}
</style>
<g>
	<path class="st0" d="M37.31,20.05c-1.18-6.76-1.72-9.01-2.79-12.12l19.73-3c0.11,3.32,0.64,6.97,1.5,11.9l1.18,5.9l16.73-2.57
		c7.61-1.18,10.62-1.72,15.33-3.11l3,18.01c-3.65,0.32-3.65,0.32-15.23,2.04l-16.73,2.57l2.57,13.51l19.84-3
		c7.4-1.18,10.94-1.93,15.44-3.32l3.22,18.12C95,65.62,95,65.62,85.99,66.9l-20.27,3.11l3,15.55c1.72,9.22,1.93,10.29,3.22,14.37
		l-20.37,3.32c0-3.65-0.43-6.75-1.93-14.9l-2.79-15.44l-21.23,3.32c-7.4,1.18-7.93,1.29-14.69,3L8.04,61
		c4.4-0.21,8.9-0.64,15.33-1.72l20.48-3.22l-2.47-13.51l-14.8,2.36c-9.11,1.39-11.58,1.82-15.98,3l-2.9-18.34
		c4.72-0.11,8.26-0.54,15.76-1.72l14.9-2.25L37.31,20.05z"/>
	<path class="st0" d="M145.96,32.91c-0.75-4.4-1.29-6.33-2.25-9.11l17.58-2.57c0,3.22,0.32,5.47,0.97,9.22l1.29,6.43l31.63-5.25
		c3.54-0.54,4.72-0.97,6.33-2.04l10.08,9.22c-1.07,1.39-1.29,1.72-2.68,5.79c-4.5,12.44-10.51,21.02-21.44,30.45
		c-4.93-5.04-7.93-7.29-13.62-10.29c7.08-4.61,11.9-9.76,16.08-16.94l-23.59,4.07l6.33,33.02c1.5,8.04,2.04,10.4,3.54,14.9
		l-18.66,3.22c-0.21-4.29-0.64-7.72-1.93-14.9l-5.79-33.45l-6.97,1.18c-4.29,0.75-7.08,1.39-10.62,2.47l-2.9-16.41
		c3.97-0.21,6.54-0.43,11.37-1.18l6.43-1.07L145.96,32.91z"/>
	<path class="st0" d="M267.74,8.57c-0.43,4.93-0.54,6.86-0.54,14.37v21.34c0,7.61,0.11,11.04,0.54,15.33h-20.8
		c0.54-3.86,0.64-7.61,0.64-15.65V22.73c0-6.54-0.11-9.44-0.64-14.15H267.74z M317.6,8.57c-0.43,6-0.54,7.61-0.54,14.48v12.55
		c0,14.69-0.86,24.98-2.47,31.2c-3.22,11.69-10.51,20.48-22.3,27.23c-6.11,3.54-11.79,5.79-22.3,8.79
		c-2.47-7.18-5.15-11.69-10.94-18.34c10.29-1.93,15.76-3.65,21.23-6.54c9.44-5.04,14.26-11.37,15.98-20.8
		c0.64-3.97,1.18-13.4,1.18-22.73V23.26c0-7.83-0.11-10.08-0.64-14.69H317.6z"/>
	<path class="st0" d="M444.79,21.22c-1.61,1.72-1.93,2.25-3.32,5.58c-6.86,16.08-16.08,26.91-29.92,35.49
		c-3.75-4.82-7.29-8.26-12.01-11.69c-0.64,11.15-2.47,18.98-6.22,26.06c-3.75,6.86-9.33,12.97-16.73,18.12
		c-4.4,3-8.04,4.93-15.12,8.26c-4.29-8.47-6-11.04-12.22-17.37c11.79-3.75,19.51-8.47,24.55-14.9c5.15-6.65,6.97-14.26,6.97-28.52
		c0-3.43-0.11-5.04-0.64-7.4h20.16c-0.32,2.14-0.43,3.11-0.54,9.22c0,0.11-0.11,2.68-0.11,3.75c0.64-0.43,0.64-0.43,2.47-1.29
		c7.83-3.97,14.15-10.4,18.01-18.23h-51.15c-8.15,0-11.9,0.21-17.05,0.75V10.29c4.93,0.75,8.58,0.96,17.37,0.96h56.19
		c6,0,6.76-0.11,9.22-1.18L444.79,21.22z"/>
	<path class="st0" d="M473.35,14.36c4.61,1.07,11.04,1.5,22.2,1.5c0.64,0,1.72,0,3,0c2.14-5.15,2.9-8.04,3.32-11.9l19.62,1.5
		c-0.86,1.61-0.96,1.72-2.25,5.04c-1.39,3.11-2.04,4.82-2.14,5.04c1.07-0.11,1.07-0.11,6.54-0.43c10.51-0.54,21.44-1.93,27.13-3.43
		l0.64,17.05c-3.32,0.32-6.54,0.64-9.65,0.96c-7.61,0.75-21.02,1.5-31.95,1.82c-1.82,3.22-2.57,4.5-5.15,7.93
		c4.61-2.14,9.01-3.22,13.62-3.22c8.9,0,14.26,3.43,16.41,10.4c1.82-0.64,1.82-0.64,7.51-2.57c0.32-0.11,3.22-1.07,6.65-2.14
		c6.11-2.04,6.86-2.25,8.58-3.22l6.54,16.94c-5.58,0.75-17.05,3.75-27.34,7.29c0.11,2.9,0.11,3,0.11,7.72
		c0,4.82,0.11,6.43,0.43,9.22l-17.48,0.54c0.32-1.61,0.43-4.93,0.54-11.37l-0.96,0.43c-4.93,2.36-5.58,2.79-7.51,4.5
		c-1.82,1.61-2.79,3.54-2.79,5.47c0,4.07,3.97,5.68,14.37,5.68c12.87,0,25.2-1.93,34.31-5.36l1.18,19.3
		c-3.11,0.11-3.11,0.11-9.54,0.96c-8.58,1.07-17.48,1.61-25.84,1.61c-12.12,0-19.73-1.5-25.52-4.93c-5.36-3.11-8.47-8.79-8.47-15.23
		c0-5.04,1.61-9.11,5.25-13.51c3.97-4.61,8.79-8.15,15.44-11.47c2.57-1.29,3.65-1.72,7.93-3.65c-0.96-1.82-2.25-2.68-4.29-2.68
		c-5.47,0-12.87,3.75-20.37,10.29c-4.5,3.97-7.4,6.97-10.29,10.83l-13.62-13.51c3.43-2.57,7.93-6.97,11.37-11.15
		c2.36-2.9,6.65-9.11,8.26-11.69c1.61-2.68,1.61-2.68,2.04-3.43c-1.5,0-2.68,0-3.43,0c-4.61,0-4.61,0-9.22-0.11
		c-1.5-0.11-2.25-0.11-3.75-0.11c-0.21,0-0.86,0-1.61,0L473.35,14.36z"/>
	<path class="st0" d="M40.1,182.74c0.32-4.18,0.54-10.4,0.54-13.72c0-2.25,0-3.11-0.32-5.36l20.16,0.54
		c-0.54,2.47-0.54,2.79-1.18,12.97c-0.11,2.9-0.11,2.9-0.32,5.47h23.37c3.54,0,4.83-0.21,7.18-1.18l8.36,7.29
		c-1.18,2.14-1.39,3-1.5,7.93c-0.75,22.95-2.36,40.85-4.5,47.93c-3.11,9.97-8.26,13.4-20.16,13.4c-4.18,0-5.79-0.11-14.05-0.86
		c-0.43-8.58-1.18-12.12-3.65-18.87c5.36,1.39,10.62,2.14,13.94,2.14c5.15,0,6.43-1.72,7.83-11.04c1.07-7.18,2.04-20.69,2.04-29.92
		H57.36c-0.86,7.08-0.86,7.08-1.61,10.72c-4.72,21.66-14.9,35.6-36.67,49.97c-4.83-7.61-8.04-11.26-13.94-16.3
		c14.26-7.5,22.52-15.12,27.88-25.95c2.68-5.47,3.86-9.33,5.36-18.34h-13.4c-7.18,0-9.44,0.11-14.48,0.64l-0.11-18.33
		c5.36,0.75,7.29,0.86,14.9,0.86H40.1z"/>
	<path class="st0" d="M224.7,178.24c-2.68,0.64-2.68,0.64-6,1.82c-6.33,2.04-12.22,3.54-20.8,5.15c-0.11,5.36-0.21,12.22-0.32,14.58
		h17.58c8.26,0,12.33-0.21,16.94-0.75v17.58c-4.4-0.43-6.97-0.54-16.62-0.54h-19.09c-1.29,9.86-3.32,16.41-7.18,22.73
		c-3.97,6.22-10.29,12.44-17.8,17.16c-3.11,2.04-5.25,3.22-10.4,5.47c-4.07-7.18-6.86-10.72-13.3-16.08
		c12.97-4.72,19.62-8.9,24.23-15.33c2.9-3.86,4.29-7.61,5.25-13.94h-21.12c-9.76,0-12.22,0.11-16.73,0.54v-17.58
		c4.5,0.64,7.08,0.75,17.05,0.75h22.52c0.21-3.22,0.21-5.25,0.21-9.01v-3c-10.19,1.07-11.04,1.07-28.31,1.82
		c-1.07-6-2.36-9.86-5.47-16.3c3.65,0.21,5.58,0.21,7.18,0.21c14.26,0,34.74-2.47,46.96-5.58c5.47-1.39,9.44-2.9,13.51-4.93
		L224.7,178.24z"/>
	<path class="st0" d="M281.35,258.87c0.43-4.83,0.64-7.93,0.64-16.41v-62.4c0-8.69-0.11-9.76-0.75-15.55h20.69
		c-0.43,3.11-0.54,8.47-0.54,15.65v14.69c18.23,6,32.06,12.33,48.79,22.3L340,235.39c-10.4-7.18-23.05-14.15-33.78-18.66
		c-3.75-1.5-3.75-1.5-4.83-2.14v27.88c0,7.18,0.21,12.54,0.64,16.41H281.35z"/>
	<path class="st0" d="M419.99,166.77c-0.54,4.07-0.64,6.86-0.75,13.19l-0.64,56.83c21.66-4.83,37.74-17.05,47.5-36.46
		c4.93,7.08,8.26,10.72,14.48,15.44c-15.55,24.02-35.38,36.46-67.02,41.92c-3.97,0.75-4.61,0.86-6.43,1.93l-9.54-11.15
		c1.07-2.25,1.18-3.43,1.29-8.79l0.43-59.62c0-0.54,0-1.18,0-1.72c0-5.04-0.21-8.47-0.64-11.69L419.99,166.77z"/>
	<path class="st0" d="M563.98,242.04c0,11.26-9.11,20.37-20.37,20.37c-11.15,0-20.37-9.22-20.37-20.37
		c0-11.26,9.11-20.37,20.37-20.37C554.87,221.66,563.98,230.78,563.98,242.04z M534.28,242.04c0,5.15,4.18,9.33,9.33,9.33
		c5.15,0,9.33-4.18,9.33-9.33s-4.18-9.33-9.33-9.33C538.46,232.71,534.28,236.89,534.28,242.04z"/>
</g>
</svg>
