<svg id="レイヤー_1" data-name="レイヤー 1" xmlns="http://www.w3.org/2000/svg" width="65" height="65" viewBox="0 0 65 65"><defs><style>.cls-1{fill:#3296d4;}.cls-2{fill:#fff;}</style></defs><title>btn_twitter</title><path class="cls-1" d="M63.452,32.5A30.952,30.952,0,1,1,32.5,1.548,30.952,30.952,0,0,1,63.452,32.5Z"/><path class="cls-2" d="M26.837,48.826c13.725,0,21.23-11.37,21.23-21.23,0-.323-.007-.645-.021-.965a15.187,15.187,0,0,0,3.722-3.864,14.908,14.908,0,0,1-4.285,1.175,7.487,7.487,0,0,0,3.281-4.128,14.955,14.955,0,0,1-4.738,1.812A7.468,7.468,0,0,0,33.31,28.432a21.185,21.185,0,0,1-15.38-7.8A7.467,7.467,0,0,0,20.24,30.6a7.405,7.405,0,0,1-3.379-.933c0,.031,0,.062,0,.1a7.465,7.465,0,0,0,5.986,7.315,7.456,7.456,0,0,1-3.37.128,7.47,7.47,0,0,0,6.971,5.182,14.971,14.971,0,0,1-9.267,3.194,15.21,15.21,0,0,1-1.78-.1,21.123,21.123,0,0,0,11.438,3.352"/></svg>