<svg id="レイヤー_1" data-name="レイヤー 1" xmlns="http://www.w3.org/2000/svg" viewBox="0 0 38 71"><defs><style>.cls-1{fill:#3b0000;fill-rule:evenodd;}</style></defs><title>copy_main_01</title><path class="cls-1" d="M4.73.14c.36-.05.54,3.2.89,6.85S7,20.24,7.64,23.08c.77,3.36,1.94,4.92,3.23,6s7,2.77,11.65,11.77c0,0,1.77,3.48,3.7,7.18,4.6,8.82,3.69,7.94,5.48,10.71C33.85,62,35.19,64,36.05,65.1c2.87,3.76.81,5.76-.36,5.19-.62-.31-2-1.33-3.74-4.87-1.35-2.78-6.35-13.93-7.42-16.26s-3.23-6.34-4.22-8c-1.79-3-3.57-5.22-6.55-6.48a31.62,31.62,0,0,1-8-5c-2.4-2.21-4-6.6-4.59-10.87C.38,13.24.49,9.62,1.72,5,2.42,2.42,3.65.3,4.73.14Z"/></svg>