<svg xmlns="http://www.w3.org/2000/svg" width="57.8" height="48.34" viewBox="0 0 57.8 48.34"><title>arw_bottom_tr</title><g id="レイヤー_2" data-name="レイヤー 2"><g id="レイヤー_2-2" data-name="レイヤー 2"><path d="M1.28,29l.74.5c.37.24.48.08.85.33s.41.19.78.44.08.67.46.91.74-.31,1.11-.06.15.59.52.83.19.51.57.76.4.21.77.46.47.1.84.34.3.36.67.61.45.13.82.37.33.32.7.57.66-.19,1,.06.2.52.57.76.35.29.72.54.32.33.69.57.58,0,1,.2.17.55.54.8.33.31.7.56.66-.19,1,.05.39.22.77.47,0,.8.37,1,.55,0,.93.22.54,0,.91.24.2.51.57.76.39.23.76.47.44.16.81.4.11.64.48.89.57,0,.94.21.33.33.7.58.59-.07,1,.17.18.54.55.79.25.44.62.69.33.32.7.57.5.08.87.33.56,0,.94.22.23.33.68.33.49.21.86,0,.43-.16.81-.4.08-.68.45-.93.69.23,1.06,0,.33-.3.7-.55,0-.83.35-1.08.77.34,1.14.09.21-.48.59-.73.48-.08.85-.33.43-.16.81-.4,0-.84.35-1.09.46-.11.83-.36.64.17,1-.08,0-.75.41-1,.68.22,1.06,0,.21-.48.58-.73.61.1,1-.15.39-.22.76-.47,0-.86.34-1.11.34-.28.71-.53l.74-.49c.38-.25.64.15,1-.1s.44-.15.81-.4.12-.63.49-.88.43-.16.8-.4.23-.46.61-.71.45-.14.82-.39.56,0,.93-.21.46-.13.83-.38.18-.54.55-.79.24-.45.62-.7.33-.31.7-.55.74.29,1.11,0,.2-.52.57-.76.22-.49.59-.74.7.23,1.08,0,.33-.32.7-.57" fill="none" stroke="#007130" stroke-linecap="round" stroke-linejoin="round" stroke-width="2.55"/><path d="M1.52,14.85c.37.25.19.52.56.77l.75.49c.37.24.58-.08.95.17s.32.32.69.57.41.2.78.44.06.71.43,1,.64-.16,1,.09.44.14.82.38l.74.5c.37.25.18.53.56.78l.73.51c.37.25.16.56.53.8s.42.18.79.43.31.35.68.6.59-.08,1,.17.13.62.5.87.82-.43,1.19-.18.31.35.68.6.08.69.45.94.29.37.66.61.53,0,.9.26.43.15.8.4.55,0,.93.23.18.54.55.79.54,0,.91.23.16.57.53.82.25.44.62.69.69-.22,1.06,0,.12.63.49.88.59-.08,1,.17.45.13.82.38,0,.77.4,1,.37.26.74.5.44.16.82.4.39.23.76.48.6-.08,1,.18.19.87.64.87.31-.54.68-.79.48-.09.85-.34.34-.29.71-.53.19-.53.56-.77.75.33,1.12.08.14-.6.51-.84.27-.41.64-.66.51,0,.89-.29.56,0,.93-.21.17-.55.54-.79.23-.47.6-.71.64.15,1-.1.36-.28.73-.52.17-.56.54-.81.28-.38.66-.62.56,0,.94-.21.51,0,.88-.27.32-.34.69-.59.15-.59.52-.84.7.25,1.07,0,.27-.38.64-.63.08-.7.45-.94.35-.29.72-.54.47-.11.84-.35.35-.28.72-.53.43-.16.8-.41.3-.36.67-.61.41-.2.78-.45.34-.3.71-.55.75.32,1.13.07.07-.7.45-.95.69.23,1.06,0,.17-.56.54-.81.27-.41.64-.66.65.16,1-.09.37-.26.74-.52.22-.48.6-.73" fill="none" stroke="#007130" stroke-linecap="round" stroke-linejoin="round" stroke-width="2.55"/><path d="M1.39,1.28c.37.24.24.43.61.68s.67-.2,1,0,.2.5.57.75.19.52.56.77.35.28.72.53.34.29.71.54.8-.4,1.18-.16.07.7.44.95.3.36.67.61.32.33.69.58.73-.29,1.1,0,.29.37.66.62.3.35.67.6.24.46.61.71.62-.12,1,.12.18.55.55.8.32.32.69.57.42.18.79.42.39.23.76.48.53,0,.9.26.11.64.48.89.56,0,.93.2.46.12.84.37.39.21.76.46.25.43.63.68.32.32.69.56.23.48.6.72.5.06.88.31.21.48.58.73.78-.36,1.16-.11,0,.74.42,1,.58-.07,1,.18.13.6.51.85.57,0,.94.2.41.2.79.45.5.07.87.32.11.38.56.39.61.5,1,.26.05-.72.42-1,.5-.05.87-.3.11-.64.48-.89.65.16,1-.08.1-.65.48-.89.41-.19.78-.43.61.09,1-.16.42-.18.79-.42.33-.31.71-.55.21-.49.58-.74.3-.34.68-.59.39-.21.77-.46.39-.21.76-.46.5-.06.88-.31.57.06.94-.19,0-.83.35-1.08.58.05,1-.19.35-.28.73-.53.22-.46.59-.71.67.2,1,0,.17-.55.54-.8.51,0,.88-.3.26-.41.63-.66.19-.52.56-.77.33-.31.71-.55.83.44,1.2.19.1-.66.47-.91.36-.28.73-.53l.75-.49c.38-.25.26-.43.63-.68s.72.27,1.09,0,0-.76.4-1,.56,0,.93-.23.5-.06.88-.31.4-.21.78-.46.18-.54.56-.79" fill="none" stroke="#007130" stroke-linecap="round" stroke-linejoin="round" stroke-width="2.55"/></g></g></svg>