<svg xmlns="http://www.w3.org/2000/svg" width="128.38" height="128.58" viewBox="0 0 128.38 128.58"><title>sec2_icn05</title><g id="レイヤー_2" data-name="レイヤー 2"><g id="レイヤー_2-2" data-name="レイヤー 2"><path d="M128.05,64.44c0,.67.35,1.35.33,2s0,1.35,0,2-.88,1.27-1,1.93.49,1.4.4,2.06.14,1.39,0,2-.46,1.29-.58,2-.58,1.25-.72,1.9-.59,1.23-.76,1.88.52,1.53.33,2.17-.77,1.18-1,1.81,0,1.43-.22,2.06-.86,1.12-1.11,1.74-.92,1.07-1.19,1.68-.47,1.25-.76,1.85-.25,1.37-.56,2-.65,1.17-1,1.76-.93,1-1.28,1.58-.17,1.47-.53,2-1.36.71-1.73,1.27-.53,1.25-.93,1.79-1.07.86-1.48,1.39-.08,1.65-.51,2.17-1.45.52-1.89,1-1,.88-1.47,1.37-.51,1.36-1,1.84-.82,1.09-1.31,1.55-1.33.53-1.83,1-.63,1.33-1.14,1.76-1.52.24-2,.66-.72,1.27-1.26,1.67-1,.91-1.55,1.29-1.4.33-2,.69-.8,1.27-1.37,1.61-1.18.67-1.77,1-1.34.35-1.94.65-1.16.7-1.76,1-1.43.09-2,.36-1.3.33-1.93.58-1,1.19-1.61,1.42-1.34.21-2,.42-1.32.27-2,.46-1.26.46-1.91.63-1.28.44-1.93.58-1.32.25-2,.37-1.37-.09-2,0-1.28.44-1.95.52-1.29.55-2,.61-1.38-.34-2-.3-1.32.32-2,.34-1.34-.63-2-.63-1.34.08-2,.06-1.34,0-2,0-1.37.3-2,.24-1.31-.34-2-.42-1.38.11-2,0-1.37,0-2-.11-1.24-.66-1.89-.81-1.26-.49-1.91-.66-1.2-.63-1.85-.82-1.28-.35-1.91-.56-1.32-.25-2-.48-1.35-.21-2-.45-1.17-.69-1.78-1-1.22-.54-1.82-.83-1.36-.27-2-.57-.94-1.07-1.53-1.39-1.27-.46-1.85-.8-1.43-.24-2-.6-1-.92-1.57-1.3-.94-1-1.48-1.38-.87-1-1.4-1.47-1.16-.68-1.68-1.1-1-.89-1.49-1.34-1.17-.7-1.66-1.15-.71-1.19-1.18-1.66-1-.89-1.45-1.38-.77-1.09-1.22-1.59-.92-1-1.35-1.47-1.25-.71-1.66-1.24-.57-1.24-1-1.79-.64-1.17-1-1.72-1-.92-1.4-1.48-1-.94-1.38-1.52-.3-1.37-.63-2S7.71,94,7.41,93.39s-1.07-1-1.36-1.57-.24-1.37-.51-2-.85-1.1-1.1-1.73-.45-1.27-.68-1.9-.67-1.2-.88-1.83,0-1.41-.19-2.06S2.27,81,2.1,80.39s-.45-1.27-.6-1.93-.17-1.34-.29-2-.4-1.29-.51-2-.33-1.31-.41-2,.5-1.41.44-2.08-.57-1.29-.61-2,0-1.35,0-2,0-1.35,0-2,.33-1.34.35-2S0,61.06,0,60.4s.78-1.29.85-2S.27,57,.36,56.37s.06-1.37.16-2,1.25-1.14,1.38-1.8.19-1.31.34-2,.26-1.31.42-2,.14-1.34.32-2,.1-1.37.31-2,.69-1.18.92-1.81-.16-1.5.08-2.12S5.16,39.6,5.42,39s.93-1,1.21-1.65.62-1.18.93-1.77.68-1.15,1-1.73-.2-1.66.14-2.24,1.28-.79,1.64-1.36.86-1,1.23-1.58.87-1,1.26-1.56.15-1.57.56-2.1,1-.94,1.41-1.46,1-.92,1.42-1.42,1.13-.79,1.59-1.28.52-1.35,1-1.83,1.26-.62,1.75-1.07,1.06-.83,1.56-1.27.94-.95,1.45-1.38,1-.87,1.55-1.28.85-1.1,1.39-1.49,1.43-.29,2-.67.87-1.1,1.43-1.46,1-.89,1.61-1.23,1.14-.72,1.73-1.05,1.31-.39,1.91-.7,1.24-.5,1.85-.79,1.34-.25,2-.52,1.11-.78,1.74-1,1.36-.15,2-.38,1-1.31,1.61-1.51,1.49.3,2.14.11,1.16-.83,1.81-1,1.42.19,2.07,0,1.22-.71,1.88-.84,1.31-.32,2-.42,1.29-.48,2-.56,1.34-.23,2-.29,1.41.92,2.08.88,1.3-.79,2-.81,1.34.27,2,.27,1.35-.59,2-.57,1.32.67,2,.71,1.39-.5,2-.44,1.34.24,2,.32,1.27.7,1.93.8,1.3.32,2,.44,1.33.18,2,.33,1.4-.06,2,.11,1.35.21,2,.39,1.28.45,1.91.65S85.37,3.79,86,4s1.16.73,1.79,1,1,.92,1.67,1.19,1.59-.27,2.19,0,1,1,1.61,1.29,1.21.59,1.79.91,1.34.37,1.91.72.8,1.26,1.36,1.62,1.38.34,1.93.71.93,1,1.47,1.41,1.22.59,1.75,1,1.32.52,1.83,1,1.1.8,1.6,1.24.3,1.66.79,2.12,1.4.48,1.87.95,1,.92,1.44,1.41.9,1,1.34,1.5,1.09.85,1.52,1.36.24,1.53.65,2.06,1.43.6,1.83,1.14.45,1.32.83,1.88.51,1.26.87,1.83.64,1.16,1,1.74,1,.94,1.38,1.52.91,1,1.21,1.64.24,1.38.53,2,.56,1.21.83,1.83,1,1,1.22,1.68.39,1.3.61,1.93.52,1.25.73,1.89-.27,1.48-.08,2.13,1,1.13,1.12,1.78.49,1.27.64,1.93.28,1.32.41,2-.18,1.4-.08,2.06.18,1.33.26,2-.31,1.37-.25,2,.22,1.32.26,2-.08,1.33-.06,2S128.05,63.77,128.05,64.44Z" fill="#007130"/><path d="M78.62,10.56c.58-.33.55.38,1.16.65s.71.06,1.32.34.52.48,1.14.76,1.22-.26,1.37.4-.61.49-1,1l-.86,1.08c-.42.55-.44.53-.87,1.08s-.21.71-.63,1.25-.61.4-1,.95-.37.59-.8,1.13-.35.61-.77,1.16-.25,1.3-.89,1,.08-.65.2-1.33.17-.67.29-1.35,0-.71.11-1.39.27-.66.39-1.34.09-.68.21-1.36.18-.68.3-1.36.29-.69.26-1.39S78,10.9,78.62,10.56Z" fill="#fff"/><path d="M87.88,17.24c.67,0,.28.6.67,1.14s.62.38,1,.93.24.65.64,1.2,1.05.41.86,1.06-.61.38-1.26.64-.68.14-1.32.4l-1.28.53c-.64.26-.66.21-1.3.47s-.6.37-1.24.63l-1.28.53c-.65.26-.64.29-1.28.55s-.92.95-1.33.39.52-.46,1-1,.34-.62.78-1.15.51-.48,1-1,.42-.54.86-1.07.42-.56.86-1.09.55-.45,1-1A4.18,4.18,0,0,0,87,18.29C87.35,17.63,87.19,17.23,87.88,17.24Z" fill="#fff"/><path d="M66.83,12.71c.34-.58.64,0,1.31-.09s.67,0,1.34-.1.64-.33,1.31-.4.85-.45,1.31,0,0,.66-.09,1.34-.05.69-.15,1.38-.3.65-.39,1.34,0,.69-.14,1.38-.08.69-.17,1.37,0,.71-.06,1.39-.06.7-.16,1.38.34,1.14-.35,1.22-.18-.53-.42-1.18-.33-.62-.56-1.26-.2-.67-.44-1.32-.11-.69-.35-1.34-.28-.64-.52-1.29-.38-.6-.61-1.25a4.21,4.21,0,0,0-.53-1.25C66.76,13.45,66.48,13.31,66.83,12.71Z" fill="#fff"/><path d="M20.68,36.92c0,.86,0,.86,0,1.72s0,.85,0,1.71,0,.86,0,1.71-.11.86-.11,1.71-.06.86-.06,1.72,0,.85,0,1.71,0,.86,0,1.71.14.86.14,1.71.05.86.05,1.71,0,.85,0,1.71-.2.85-.2,1.71.23.85.23,1.71-.1.86-.1,1.71v1.72c0,.85.13.85.13,1.71s-.22.85-.22,1.71.14.86.14,1.71-.07.86-.07,1.72-.17.85-.17,1.71.29.86.29,1.71-.27.86-.27,1.72.24.85.24,1.71-.08.86-.08,1.72-.06.85-.06,1.71.17.86.17,1.72v1.71c0,.86-.24.86-.24,1.71s0,.86,0,1.72.12.86.12,1.72-.12.85-.12,1.71.27.86.27,1.72-.1.86-.1,1.72v1.72c0,.86-.08.86-.08,1.72s-.51,1.08.1,1.68.82,0,1.68,0,.87,0,1.73,0h1.72c.86,0,.86-.09,1.72-.09s.86,0,1.73,0,.86-.06,1.72-.06.86,0,1.73,0,.86.29,1.72.29.86-.08,1.73-.08.86-.2,1.72-.2.86.22,1.73.22.86-.11,1.72-.11.87-.12,1.73-.12.86,0,1.73,0,.86.09,1.72.09.86.14,1.73.14.86-.22,1.72-.22.87.09,1.73.09.86-.15,1.73-.15.86,0,1.72,0,.87.14,1.74.14.86-.06,1.73-.06.95-.33,1.77,0A2.69,2.69,0,0,0,61,98.53a3.82,3.82,0,0,0,1.44,1,5.14,5.14,0,0,0,1.78.14,5.09,5.09,0,0,0,1.8-.07,3.83,3.83,0,0,0,1.45-1.09,2.86,2.86,0,0,0,.63-1.75c.81-.28.89,0,1.75,0s.87,0,1.73,0,.86.09,1.72.09.86.13,1.72.13h1.73c.86,0,.86-.08,1.72-.08s.86,0,1.72,0,.87-.13,1.73-.13.86-.11,1.73-.11h1.72c.86,0,.86.15,1.73.15S88,97,88.84,97s.87-.27,1.73-.27.86,0,1.73,0,.86.23,1.72.23.86,0,1.73,0,.86,0,1.72,0H99.2c.86,0,.86-.18,1.73-.18s.86.07,1.72.07.87.18,1.74.18.86-.25,1.73-.25,1,.61,1.64,0-.05-.77-.05-1.62.12-.86.12-1.72,0-.85,0-1.71.15-.85.15-1.71-.1-.86-.1-1.71,0-.86,0-1.72.05-.85.05-1.71.08-.85.08-1.71,0-.85,0-1.71-.06-.85-.06-1.7-.16-.86-.16-1.71.15-.86.15-1.72-.18-.85-.18-1.71.11-.86.11-1.71,0-.86,0-1.71-.09-.86-.09-1.71,0-.86,0-1.72.1-.86.1-1.71.06-.86.06-1.71-.08-.86-.08-1.72-.11-.86-.11-1.71.09-.86.09-1.72,0-.86,0-1.71.22-.86.22-1.72-.15-.86-.15-1.71-.1-.86-.1-1.72.17-.85.17-1.71,0-.86,0-1.72-.06-.85-.06-1.71-.13-.86-.13-1.72.14-.86.14-1.72,0-.85,0-1.71-.07-.86-.07-1.72.19-.86.19-1.72-.11-.86-.11-1.73" fill="#007130"/><path d="M20.68,36.92c0,.86,0,.86,0,1.72s0,.85,0,1.71,0,.86,0,1.71-.11.86-.11,1.71-.06.86-.06,1.72,0,.85,0,1.71,0,.86,0,1.71.14.86.14,1.71.05.86.05,1.71,0,.85,0,1.71-.2.85-.2,1.71.23.85.23,1.71-.1.86-.1,1.71v1.72c0,.85.13.85.13,1.71s-.22.85-.22,1.71.14.86.14,1.71-.07.86-.07,1.72-.17.85-.17,1.71.29.86.29,1.71-.27.86-.27,1.72.24.85.24,1.71-.08.86-.08,1.72-.06.85-.06,1.71.17.86.17,1.72v1.71c0,.86-.24.86-.24,1.71s0,.86,0,1.72.12.86.12,1.72-.12.85-.12,1.71.27.86.27,1.72-.1.86-.1,1.72v1.72c0,.86-.08.86-.08,1.72s-.51,1.08.1,1.68.82,0,1.68,0,.87,0,1.73,0h1.72c.86,0,.86-.09,1.72-.09s.86,0,1.73,0,.86-.06,1.72-.06.86,0,1.73,0,.86.29,1.72.29.86-.08,1.73-.08.86-.2,1.72-.2.86.22,1.73.22.86-.11,1.72-.11.87-.12,1.73-.12.86,0,1.73,0,.86.09,1.72.09.86.14,1.73.14.86-.22,1.72-.22.87.09,1.73.09.86-.15,1.73-.15.86,0,1.72,0,.87.14,1.74.14.86-.06,1.73-.06.95-.33,1.77,0A2.69,2.69,0,0,0,61,98.53a3.82,3.82,0,0,0,1.44,1,5.14,5.14,0,0,0,1.78.14,5.09,5.09,0,0,0,1.8-.07,3.83,3.83,0,0,0,1.45-1.09,2.86,2.86,0,0,0,.63-1.75c.81-.28.89,0,1.75,0s.87,0,1.73,0,.86.09,1.72.09.86.13,1.72.13h1.73c.86,0,.86-.08,1.72-.08s.86,0,1.72,0,.87-.13,1.73-.13.86-.11,1.73-.11h1.72c.86,0,.86.15,1.73.15S88,97,88.84,97s.87-.27,1.73-.27.86,0,1.73,0,.86.23,1.72.23.86,0,1.73,0,.86,0,1.72,0H99.2c.86,0,.86-.18,1.73-.18s.86.07,1.72.07.87.18,1.74.18.86-.25,1.73-.25,1,.61,1.64,0-.05-.77-.05-1.62.12-.86.12-1.72,0-.85,0-1.71.15-.85.15-1.71-.1-.86-.1-1.71,0-.86,0-1.72.05-.85.05-1.71.08-.85.08-1.71,0-.85,0-1.71-.06-.85-.06-1.7-.16-.86-.16-1.71.15-.86.15-1.72-.18-.85-.18-1.71.11-.86.11-1.71,0-.86,0-1.71-.09-.86-.09-1.71,0-.86,0-1.72.1-.86.1-1.71.06-.86.06-1.71-.08-.86-.08-1.72-.11-.86-.11-1.71.09-.86.09-1.72,0-.86,0-1.71.22-.86.22-1.72-.15-.86-.15-1.71-.1-.86-.1-1.72.17-.85.17-1.71,0-.86,0-1.72-.06-.85-.06-1.71-.13-.86-.13-1.72.14-.86.14-1.72,0-.85,0-1.71-.07-.86-.07-1.72.19-.86.19-1.72-.11-.86-.11-1.73" fill="none" stroke="#fff" stroke-linecap="round" stroke-linejoin="round" stroke-width="2.01"/><path d="M64.23,92.89c-.55-.14-1.1-.32-1.67-.44s-1.15-.1-1.72-.22-1.08-.49-1.64-.6-1.14-.2-1.71-.3-1.18,0-1.75-.07-1.14-.1-1.72-.19-1.1-.44-1.67-.51-1.17,0-1.74,0-1.14-.28-1.71-.33l-1.73-.12c-.58,0-1.16,0-1.74,0s-1.15-.12-1.73-.13-1.15.23-1.73.24S40.82,90,40.24,90s-1.16.07-1.73.1-1.15.18-1.72.22-1.14.18-1.72.24-1.16,0-1.73.08-1.12.27-1.7.36-1.17,0-1.74.09l-1.7.33c-.56.12-1.1.28-1.66.42,0-.57-.08-1.11-.08-1.68s.1-1.12.1-1.69-.17-1.13-.17-1.69.2-1.13.2-1.7-.15-1.12-.15-1.69.24-1.12.24-1.69-.05-1.13-.05-1.69-.14-1.13-.14-1.69-.1-1.13-.1-1.7.22-1.12.22-1.69-.09-1.13-.09-1.69,0-1.13,0-1.7,0-1.13,0-1.69.14-1.13.14-1.7.05-1.13.05-1.69-.12-1.13-.12-1.7.12-1.13.12-1.7-.2-1.13-.2-1.69,0-1.14,0-1.7,0-1.13,0-1.7.07-1.13.07-1.7-.14-1.13-.14-1.7,0-1.13,0-1.69.12-1.14.12-1.7.18-1.13.18-1.7-.23-1.13-.23-1.7.18-1.13.18-1.69-.1-1.14-.1-1.7.09-1.14.09-1.7-.25-1.13-.25-1.7.22-1.13.22-1.69-.15-1.14-.15-1.7.21-1.13.21-1.69-.2-1.19-.2-1.75c.54-.13,1.18-.05,1.72-.16s1.07-.29,1.61-.39,1.08-.3,1.62-.38,1.1-.21,1.65-.27,1.11,0,1.66,0,1.11,0,1.66,0,1.1-.15,1.65-.16,1.11.07,1.66.07,1.1.08,1.66.09,1.11-.09,1.66-.07,1.11-.08,1.66,0,1.11.1,1.66.15,1.09.24,1.64.3,1.1.09,1.65.16,1.07.3,1.62.38,1.11.06,1.65.15,1.09.24,1.63.34,1.07.3,1.61.41,1.12.05,1.66.16l1.62.38c.54.12,1.09.18,1.63.3s1,.35,1.59.48,1.14.17,1.67.3c0,.57-.16,1.19-.16,1.76s.09,1.14.09,1.71,0,1.14,0,1.72-.12,1.14-.12,1.71.09,1.14.09,1.71,0,1.15,0,1.72-.07,1.14-.07,1.71.27,1.15.27,1.72-.08,1.14-.08,1.71,0,1.14,0,1.72,0,1.14,0,1.71-.08,1.14-.08,1.71,0,1.15,0,1.72-.14,1.14-.14,1.71.24,1.14.24,1.72-.26,1.14-.26,1.71.15,1.14.15,1.71.09,1.15.09,1.72-.09,1.14-.09,1.71-.1,1.15-.1,1.72.25,1.14.25,1.71-.14,1.14-.14,1.72v1.71c0,.57,0,1.14,0,1.71s0,1.15,0,1.72,0,1.14,0,1.71,0,1.14,0,1.72-.19,1.14-.19,1.71.07,1.14.07,1.71.18,1.15.18,1.72-.23,1.14-.23,1.71.11,1.15.11,1.72S64.23,92.32,64.23,92.89Z" fill="#007130"/><path d="M64.29,93c-.54-.13-1.1-.42-1.64-.55s-1.13,0-1.67-.13-1.06-.34-1.6-.45-1.1-.14-1.64-.25l-1.62-.33c-.54-.11-1-.43-1.59-.53s-1.1-.11-1.65-.2-1.1-.13-1.64-.21-1.1-.14-1.65-.21-1.07-.31-1.62-.37-1.12,0-1.67,0-1.09-.23-1.64-.27-1.1-.11-1.66-.14-1.11.12-1.66.11-1.1,0-1.66,0-1.1-.17-1.66-.16l-1.66.07c-.55,0-1.09.19-1.64.24s-1.12-.1-1.67,0l-1.65.2c-.55.08-1.08.26-1.63.35s-1.06.32-1.61.43-1.14.18-1.68.31c0-.57,0-1.19,0-1.77s-.09-1.14-.09-1.71-.06-1.14-.06-1.71,0-1.15,0-1.72.23-1.14.23-1.71-.25-1.15-.25-1.72.08-1.14.08-1.71.07-1.14.07-1.71-.15-1.15-.15-1.72.28-1.14.28-1.71-.26-1.15-.26-1.72,0-1.14,0-1.71,0-1.14,0-1.72.07-1.14.07-1.71.21-1.14.21-1.71-.15-1.15-.15-1.72,0-1.14,0-1.71-.12-1.15-.12-1.72.12-1.14.12-1.71-.09-1.14-.09-1.72.22-1.14.22-1.71-.1-1.14-.1-1.71.13-1.15.13-1.72-.1-1.14-.1-1.71-.13-1.14-.13-1.72.19-1.14.19-1.71-.17-1.14-.17-1.71-.07-1.15-.07-1.72.2-1.14.2-1.71-.1-1.15-.1-1.72-.06-1.14-.06-1.71-.05-1.14-.05-1.72.24-1,.24-1.62c.55-.13,1-.35,1.51-.46s1.1-.18,1.64-.27,1.09-.18,1.64-.26,1.1-.1,1.65-.15,1.09-.21,1.64-.25,1.1-.16,1.65-.19,1.11-.1,1.66-.11,1.11.19,1.66.2,1.11-.06,1.66,0,1.1.2,1.65.22,1.12-.16,1.67-.12,1.1.15,1.65.2,1.08.25,1.63.32,1.13-.09,1.67,0,1.09.26,1.63.34,1.1.15,1.64.24,1.12.06,1.66.16,1.09.19,1.63.3,1.07.34,1.61.45,1.1.17,1.64.29l1.62.34c.54.13,1,.44,1.57.56s1,.21,1.59.33c0,.58.14,1.12.14,1.69s-.13,1.14-.13,1.71.15,1.14.15,1.72,0,1.14,0,1.71-.24,1.14-.24,1.71.15,1.15.15,1.72-.08,1.14-.08,1.71-.09,1.15-.09,1.72,0,1.14,0,1.71,0,1.14,0,1.72.26,1.14.26,1.71-.12,1.14-.12,1.71,0,1.15,0,1.72,0,1.14,0,1.71-.13,1.14-.13,1.72.2,1.14.2,1.71,0,1.14,0,1.71-.2,1.15-.2,1.72.16,1.14.16,1.71-.19,1.15-.19,1.72.23,1.14.23,1.71-.06,1.14-.06,1.72,0,1.14,0,1.71-.17,1.14-.17,1.71.15,1.15.15,1.72,0,1.14,0,1.71v1.72c0,.57,0,1.14,0,1.71s0,1.14,0,1.71-.23,1.15-.23,1.72,0,1.14,0,1.71.15,1.15.15,1.72S64.29,92.38,64.29,93Z" fill="none" stroke="#fff" stroke-linecap="round" stroke-linejoin="round" stroke-width="2.13"/><path d="M102,91.85c-.57-.13-1.18-.15-1.74-.27s-1.09-.45-1.66-.55-1.14-.17-1.71-.25-1.16-.06-1.73-.13-1.12-.37-1.7-.42-1.16,0-1.73,0-1.16-.07-1.73-.1-1.16.08-1.74.07S87.08,90,86.5,90s-1.16-.13-1.73-.12-1.15.32-1.72.34-1.16-.12-1.74-.09-1.16,0-1.73.08-1.16.06-1.73.12-1.14.23-1.71.3-1.14.19-1.71.28-1.15.12-1.72.21-1.15.15-1.71.25-1.11.37-1.67.48-1.16.13-1.72.25-1.15.16-1.71.29-1.2.45-1.76.59c0-.57,0-1.26,0-1.83V89.46c0-.57.06-1.14.06-1.71s-.06-1.14-.06-1.72,0-1.14,0-1.71-.09-1.14-.09-1.71,0-1.15,0-1.72.16-1.14.16-1.71,0-1.14,0-1.72,0-1.14,0-1.71-.11-1.14-.11-1.71.21-1.15.21-1.72-.2-1.14-.2-1.71.07-1.15.07-1.72-.15-1.14-.15-1.71.07-1.14.07-1.72.13-1.14.13-1.71-.14-1.14-.14-1.71.15-1.15.15-1.72-.15-1.14-.15-1.71.18-1.15.18-1.72-.15-1.14-.15-1.71.06-1.14.06-1.71.06-1.15.06-1.72,0-1.14,0-1.71-.18-1.15-.18-1.72.19-1.14.19-1.71-.16-1.14-.16-1.72.11-1.14.11-1.71.11-1.14.11-1.71-.09-1.15-.09-1.72S64.2,38.61,64.2,38V36.29c.55-.13,1.14-.32,1.7-.45s1.16-.09,1.73-.21,1.1-.37,1.66-.48,1.12-.3,1.69-.4,1.14-.17,1.72-.26,1.15-.07,1.72-.15,1.15-.1,1.73-.17,1.13-.24,1.71-.3,1.16,0,1.73,0,1.14-.29,1.72-.33,1.15-.06,1.73-.08,1.15-.11,1.73-.12,1.15.14,1.73.14,1.15.05,1.73.07,1.15,0,1.73.06,1.16-.12,1.74-.08,1.13.38,1.7.43,1.16,0,1.73.11,1.17-.05,1.75,0,1.1.38,1.67.49,1.17,0,1.73.16,1.17.32,1.74.45c0,.57-.09,1.2-.09,1.77s0,1.14,0,1.72.1,1.14.1,1.71-.2,1.14-.2,1.71.2,1.15.2,1.72-.15,1.14-.15,1.71.12,1.14.12,1.72-.17,1.14-.17,1.71.22,1.14.22,1.71-.2,1.15-.2,1.72.17,1.14.17,1.71-.06,1.15-.06,1.72-.1,1.14-.1,1.71.11,1.14.11,1.72-.09,1.14-.09,1.71.09,1.14.09,1.71-.08,1.15-.08,1.72,0,1.14,0,1.71.08,1.14.08,1.72,0,1.14,0,1.71,0,1.14,0,1.71-.21,1.15-.21,1.72.1,1.14.1,1.71.12,1.15.12,1.72,0,1.14,0,1.71,0,1.14,0,1.72,0,1.14,0,1.71,0,1.14,0,1.71-.12,1.15-.12,1.72-.07,1.14-.07,1.71.25,1.15.25,1.72-.18,1.14-.18,1.71S102,91.28,102,91.85Z" fill="#007130"/><path d="M101.9,90.7c-.54-.13-1-.26-1.56-.37s-1.11-.07-1.66-.16-1.06-.34-1.61-.41-1.11,0-1.66-.09-1.1-.18-1.65-.22-1.1-.07-1.65-.09-1.11.07-1.66.06-1.11-.28-1.66-.28-1.11.17-1.66.19-1.1.11-1.65.13-1.11,0-1.66,0-1.12,0-1.67,0-1.08.25-1.63.31-1.09.23-1.64.3-1.12,0-1.66.06-1.1.18-1.64.27-1.07.33-1.61.43-1.08.26-1.62.36-1.11.09-1.65.2-1.11.13-1.65.25-1.07.28-1.61.4-1,.4-1.58.52-1,.07-1.54.2c0-.58,0-1,0-1.61s-.2-1.15-.2-1.72,0-1.14,0-1.71.06-1.14.06-1.72,0-1.14,0-1.71,0-1.14,0-1.71-.05-1.15-.05-1.72,0-1.14,0-1.71,0-1.14,0-1.72.25-1.14.25-1.71-.2-1.14-.2-1.71.21-1.15.21-1.72-.13-1.14-.13-1.71-.08-1.15-.08-1.72.19-1.14.19-1.71,0-1.14,0-1.72-.11-1.14-.11-1.71,0-1.14,0-1.71V60.32c0-.57-.08-1.14-.08-1.71s0-1.15,0-1.72.19-1.14.19-1.71-.26-1.14-.26-1.71.16-1.15.16-1.72.12-1.14.12-1.71,0-1.15,0-1.72-.07-1.14-.07-1.71,0-1.14,0-1.72,0-1.14,0-1.71,0-1.14,0-1.71-.2-1.15-.2-1.72.12-1.14.12-1.71,0-1.12,0-1.69c.54-.13,1.06-.21,1.6-.33s1-.39,1.58-.51,1.11-.11,1.65-.22,1.08-.21,1.62-.32,1-.42,1.59-.52,1.08-.23,1.63-.33,1.13.06,1.67,0,1.07-.3,1.62-.39,1.08-.28,1.63-.35,1.11,0,1.66-.09l1.65-.18c.55,0,1.09-.15,1.65-.19s1.11.1,1.66.07,1.1-.18,1.65-.19,1.1,0,1.66,0,1.11-.15,1.66-.13,1.1.16,1.65.19,1.1.15,1.65.19,1.09.13,1.64.19,1.11.05,1.66.12,1.11,0,1.65.14,1.1.14,1.65.25,1,.38,1.53.51c0,.57,0,1.09,0,1.66s.19,1.15.19,1.72-.22,1.14-.22,1.71,0,1.15,0,1.72.27,1.14.27,1.71-.27,1.14-.27,1.72.11,1.14.11,1.71-.08,1.14-.08,1.71,0,1.15,0,1.72.27,1.14.27,1.71-.06,1.15-.06,1.72-.19,1.14-.19,1.71.23,1.14.23,1.71-.22,1.15-.22,1.72.11,1.14.11,1.71-.16,1.15-.16,1.72,0,1.14,0,1.71.28,1.14.28,1.72,0,1.14,0,1.71v1.71c0,.58-.17,1.15-.17,1.72s0,1.14,0,1.71.17,1.15.17,1.72,0,1.14,0,1.71.1,1.14.1,1.72,0,1.14,0,1.71-.13,1.14-.13,1.71,0,1.15,0,1.72.13,1.14.13,1.71.09,1.14.09,1.72,0,1.14,0,1.71-.25,1.14-.25,1.71S101.9,90.12,101.9,90.7Z" fill="none" stroke="#fff" stroke-linecap="round" stroke-linejoin="round" stroke-width="2.13"/><path d="M35.41,48a1.08,1.08,0,0,1-.76-.26c-.09-.1-.28-.18-.33-.31s0-.31,0-.44a1.21,1.21,0,0,1,.22-.83c.09-.11.31-.07.45-.13a1,1,0,0,1,.74.08c.14.06.35,0,.45.06s0,.3.1.43.22.24.22.39a1.56,1.56,0,0,1,0,.43c-.06.13-.32.13-.44.23a.93.93,0,0,1-.3.2C35.64,47.9,35.56,48,35.41,48Z" fill="#fff"/><path d="M51.34,47a1,1,0,0,1,.94-1.09v.17c.58,0,1.2.31,1.2.92h0a1.07,1.07,0,0,1-1.16.95v0A.83.83,0,0,1,51.34,47Zm-4.22,0a1,1,0,0,1,.94-1.09v.17c.59,0,1.21.31,1.21.92h-.05a1.06,1.06,0,0,1-1.16.95v0A.83.83,0,0,1,47.12,47Zm-4.21,0a1,1,0,0,1,.92-1.09v.17c.6,0,1.22.31,1.22.92h0a1.08,1.08,0,0,1-1.18.95v0A.83.83,0,0,1,42.91,47ZM38.7,47a1,1,0,0,1,.92-1.09v.17c.6,0,1.22.31,1.22.92h0a1.08,1.08,0,0,1-1.18.95v0A.83.83,0,0,1,38.7,47Z" fill="#fff"/><path d="M56.49,48.12c-.15,0-.25-.18-.38-.24s-.32,0-.41-.1a1.24,1.24,0,0,1-.39-.79c0-.29.31-.48.52-.67a.63.63,0,0,1,.3-.21.9.9,0,0,1,1.06.18,1,1,0,0,1,.3.7,1.17,1.17,0,0,1-.19.8A1.3,1.3,0,0,1,56.49,48.12Z" fill="#fff"/><path d="M35.41,57c-.14,0-.27.13-.4.07s-.15-.25-.24-.36-.42,0-.48-.18a1.22,1.22,0,0,1,0-.47c0-.28.29-.48.47-.69s.22-.09.35-.15a.87.87,0,0,1,.73-.1,1.37,1.37,0,0,1,.36.19c.11.09.3.19.35.32s0,.3,0,.43.07.32,0,.45-.28.18-.37.28-.23.1-.36.15A.72.72,0,0,1,35.41,57Z" fill="#fff"/><path d="M51.1,56.07a1.3,1.3,0,0,1,1.18-1.21h0a1.22,1.22,0,0,1,1.08,1.21h0a1,1,0,0,1-1.07,1v0A1.1,1.1,0,0,1,51.1,56.07Zm-4.21,0a1.29,1.29,0,0,1,1.17-1.21h0a1.22,1.22,0,0,1,1.09,1.21h0a1,1,0,0,1-1.08,1v0A1.09,1.09,0,0,1,46.89,56.07Zm-4.21,0a1.29,1.29,0,0,1,1.15-1.21h0a1.22,1.22,0,0,1,1.1,1.21h0a1,1,0,0,1-1.1,1v0A1.08,1.08,0,0,1,42.68,56.07Zm-4.22,0a1.3,1.3,0,0,1,1.16-1.21h0a1.22,1.22,0,0,1,1.1,1.21h0a1,1,0,0,1-1.09,1v0A1.09,1.09,0,0,1,38.46,56.07Z" fill="#fff"/><path d="M56.49,57.1a1.11,1.11,0,0,1-.41,0c-.13-.06-.33,0-.43-.16a1.2,1.2,0,0,1-.22-.84,1.24,1.24,0,0,1,.23-.83c.1-.09.3-.05.43-.11a.92.92,0,0,1,1.06.28c.19.21.5.4.5.66s-.28.51-.47.69-.14.31-.25.36S56.62,57.1,56.49,57.1Z" fill="#fff"/><path d="M35.41,66.35a1.41,1.41,0,0,1-.46,0,1.91,1.91,0,0,1-.41-.26c-.09-.1-.08-.32-.14-.44a1,1,0,0,1-.07-.42c0-.29.22-.48.41-.67a.91.91,0,0,1,.3-.25,1,1,0,0,1,.73,0c.13.06.3,0,.4.11s0,.27.09.4.37.23.37.37a1.91,1.91,0,0,1-.13.45c-.06.11-.32.14-.41.23s-.2.1-.33.15S35.56,66.35,35.41,66.35Z" fill="#fff"/><path d="M51.09,65.18a1.16,1.16,0,0,1,1.19-1.07h0a1.17,1.17,0,0,1,1.19,1.07h0a1.27,1.27,0,0,1-1.16,1.18v-.21A1.1,1.1,0,0,1,51.09,65.18Zm-4.21,0a1.15,1.15,0,0,1,1.18-1.07h0a1.17,1.17,0,0,1,1.2,1.07h0a1.27,1.27,0,0,1-1.17,1.18v-.21A1.09,1.09,0,0,1,46.88,65.18Zm-4.22,0a1.15,1.15,0,0,1,1.17-1.07h0a1.19,1.19,0,0,1,1.22,1.07h0a1.27,1.27,0,0,1-1.18,1.18v-.21A1.09,1.09,0,0,1,42.66,65.18Zm-4.21,0a1.15,1.15,0,0,1,1.17-1.07h0a1.18,1.18,0,0,1,1.21,1.07h0a1.27,1.27,0,0,1-1.18,1.18v-.21A1.09,1.09,0,0,1,38.45,65.18Z" fill="#fff"/><path d="M56.49,66.11a.8.8,0,0,1-.38,0,.81.81,0,0,1-.28-.24c-.11-.09-.29-.12-.35-.24s.09-.28.09-.41c0-.29-.14-.68.07-.87a1.55,1.55,0,0,1,.4-.23,1.17,1.17,0,0,1,1.14.41.91.91,0,0,1,.23.69c0,.13.08.26,0,.39a1.39,1.39,0,0,1-.19.36A1,1,0,0,1,56.49,66.11Z" fill="#fff"/><path d="M35.41,75.45c-.14,0-.27-.14-.4-.2a.85.85,0,0,1-.35-.24c-.1-.09-.31-.15-.36-.28a1.17,1.17,0,0,1-.06-.45,1.4,1.4,0,0,1,.32-.86,1.2,1.2,0,0,1,1.23-.06c.13,0,.35,0,.44.07a1.33,1.33,0,0,1,.4.85,1.86,1.86,0,0,1-.08.45c-.06.13-.28.21-.37.3a.94.94,0,0,1-.35.25C35.7,75.33,35.56,75.45,35.41,75.45Z" fill="#fff"/><path d="M51.09,74.28a1.08,1.08,0,0,1,1.19-1v-.23a1.16,1.16,0,0,1,1,1.19h-.09a.9.9,0,0,1-1,1v.13A1.19,1.19,0,0,1,51.09,74.28Zm-4.22,0a1.08,1.08,0,0,1,1.19-1v-.23a1.17,1.17,0,0,1,1.06,1.19H49a.9.9,0,0,1-1,1v.13A1.19,1.19,0,0,1,46.87,74.28Zm-4.21,0a1.07,1.07,0,0,1,1.17-1v-.23a1.17,1.17,0,0,1,1.07,1.19h-.08a.91.91,0,0,1-1,1v.13A1.18,1.18,0,0,1,42.66,74.28Zm-4.21,0a1.07,1.07,0,0,1,1.17-1v-.23a1.17,1.17,0,0,1,1.07,1.19H40.6a.9.9,0,0,1-1,1v.13A1.18,1.18,0,0,1,38.45,74.28Z" fill="#fff"/><path d="M56.49,75.46c-.15,0-.25-.22-.38-.27s-.35,0-.45-.08a1,1,0,0,1-.4-.85,1.34,1.34,0,0,1,.46-.77,1.25,1.25,0,0,1,.35-.23,1,1,0,0,1,1.09.33,1,1,0,0,1,.31.67.9.9,0,0,1-.12.36c-.06.13,0,.31-.1.42A1.26,1.26,0,0,1,56.49,75.46Z" fill="#fff"/><path d="M72.42,48.16c-.15,0-.24-.24-.37-.3s-.37.06-.46,0-.11-.31-.16-.44a1.28,1.28,0,0,1,0-.39.84.84,0,0,1,.31-.68c.09-.11.12-.29.25-.34a1.42,1.42,0,0,1,.88-.09c.11.06.2.25.29.36a1.06,1.06,0,0,1,.3.75c0,.13.12.31.06.45a1.49,1.49,0,0,1-.28.38A1.34,1.34,0,0,1,72.42,48.16Z" fill="#fff"/><path d="M88.2,47a1.18,1.18,0,0,1,1.08-1.2v0c.6,0,.91.62.91,1.23h.19a1.11,1.11,0,0,1-1.1,1.09h0A1.1,1.1,0,0,1,88.2,47ZM84,47a1.18,1.18,0,0,1,1.07-1.2v0c.59,0,.92.62.92,1.23h.19a1.13,1.13,0,0,1-1.11,1.09h0A1.1,1.1,0,0,1,84,47Zm-4.21,0a1.18,1.18,0,0,1,1.07-1.2v0c.58,0,.92.62.92,1.23H82a1.13,1.13,0,0,1-1.1,1.09h0A1.1,1.1,0,0,1,79.78,47Zm-4.22,0a1.18,1.18,0,0,1,1.08-1.2v0c.58,0,.91.62.91,1.23h.19a1.13,1.13,0,0,1-1.1,1.09h0A1.1,1.1,0,0,1,75.56,47Z" fill="#fff"/><path d="M93.49,47.93c-.13,0-.27.11-.4.06s-.34-.07-.43-.17a1.19,1.19,0,0,1-.24-.83,1,1,0,0,1,.1-.41c0-.14,0-.35.11-.44a1.38,1.38,0,0,1,.42-.25,1.33,1.33,0,0,1,1.28.25c.12.09,0,.33.08.47s.26.23.26.38a1.35,1.35,0,0,1-.32.86C94.16,48,93.77,47.93,93.49,47.93Z" fill="#fff"/><path d="M72.42,57.15c-.15,0-.33.09-.46,0a1,1,0,0,1-.4-.25c-.21-.18,0-.58,0-.86s-.15-.27-.11-.4a1.07,1.07,0,0,1,.24-.38,1,1,0,0,1,.35-.23,1.23,1.23,0,0,1,1.27.17c.09.1,0,.36,0,.49s.3.22.3.35a1.23,1.23,0,0,1-.42.75c-.1.12-.27.11-.38.17A1,1,0,0,1,72.42,57.15Z" fill="#fff"/><path d="M88.1,56.07a1.14,1.14,0,0,1,1.18-1v0a1.12,1.12,0,0,1,1.15,1h-.2a1,1,0,0,1-1,1.09v-.09A1.12,1.12,0,0,1,88.1,56.07Zm-4.22,0a1.14,1.14,0,0,1,1.18-1v0a1.13,1.13,0,0,1,1.16,1H86a1,1,0,0,1-1,1.09v-.09A1.13,1.13,0,0,1,83.88,56.07Zm-4.21,0a1.14,1.14,0,0,1,1.18-1v0a1.13,1.13,0,0,1,1.15,1h-.2a1,1,0,0,1-1,1.09v-.09A1.13,1.13,0,0,1,79.67,56.07Zm-4.21,0a1.14,1.14,0,0,1,1.18-1v0a1.13,1.13,0,0,1,1.15,1h-.2a1,1,0,0,1-1,1.09v-.09A1.12,1.12,0,0,1,75.46,56.07Z" fill="#fff"/><path d="M93.49,57.19a1.17,1.17,0,0,1-.78-.34,1.16,1.16,0,0,1-.41-.78c0-.26.31-.46.52-.67a1.14,1.14,0,0,1,1.51-.17,1.27,1.27,0,0,1,.23.84.93.93,0,0,1-.38.69A1,1,0,0,1,93.49,57.19Z" fill="#fff"/><path d="M72.42,66.34c-.15,0-.27-.16-.4-.21a1.3,1.3,0,0,1-.34-.21c-.09-.1-.27-.19-.33-.3s.12-.31.12-.44c0-.29,0-.58.19-.77a1,1,0,0,1,.38-.16,1,1,0,0,1,1.14.17,1.21,1.21,0,0,1,.42.76,1.27,1.27,0,0,1-.06.47c-.05.12-.38.07-.47.17s-.11.31-.22.36A1.19,1.19,0,0,1,72.42,66.34Z" fill="#fff"/><path d="M88.26,65.18a1.07,1.07,0,0,1,1-1.13v0a1.22,1.22,0,0,1,1.15,1.18h0a1.12,1.12,0,0,1-1.14,1v-.14A.91.91,0,0,1,88.26,65.18Zm-4.21,0a1.07,1.07,0,0,1,1-1.13v0a1.23,1.23,0,0,1,1.16,1.18h0a1.12,1.12,0,0,1-1.14,1v-.14A.91.91,0,0,1,84.05,65.18Zm-4.22,0a1.08,1.08,0,0,1,1-1.13v0A1.23,1.23,0,0,1,82,65.18h0a1.13,1.13,0,0,1-1.14,1v-.14A.91.91,0,0,1,79.83,65.18Zm-4.21,0a1.07,1.07,0,0,1,1-1.13v0a1.23,1.23,0,0,1,1.15,1.18h0a1.12,1.12,0,0,1-1.13,1v-.14A.91.91,0,0,1,75.62,65.18Z" fill="#fff"/><path d="M93.49,66.16a1.08,1.08,0,0,1-.4,0c-.13-.06-.35,0-.44-.14a1.34,1.34,0,0,1-.39-.84c0-.29.38-.45.59-.64a1,1,0,0,1,1.41-.14,1.05,1.05,0,0,1,0,1.56A1.08,1.08,0,0,1,93.49,66.16Z" fill="#fff"/><path d="M72.42,75.28c-.15,0-.3.09-.43,0a1.33,1.33,0,0,1-.39-.21,1.41,1.41,0,0,1-.25-.4,1.56,1.56,0,0,1-.07-.44,1.22,1.22,0,0,1,.4-.74c.1-.09.26,0,.39-.09s.54-.34.81-.25c.11.06.18.25.28.35a1.15,1.15,0,0,1,.3.73c0,.15.07.31,0,.45s-.3.13-.39.24-.13.27-.25.33A1.19,1.19,0,0,1,72.42,75.28Z" fill="#fff"/><path d="M88.24,74.28a1.18,1.18,0,0,1,1-1.22v.19a1.15,1.15,0,0,1,1.21,1h0a1.12,1.12,0,0,1-1.18,1v0A1,1,0,0,1,88.24,74.28Zm-4.21,0a1.18,1.18,0,0,1,1-1.22v.19a1.16,1.16,0,0,1,1.21,1h0a1.14,1.14,0,0,1-1.19,1v0A1,1,0,0,1,84,74.28Zm-4.22,0a1.19,1.19,0,0,1,1-1.22v.19a1.17,1.17,0,0,1,1.21,1h0a1.14,1.14,0,0,1-1.18,1v0A1,1,0,0,1,79.81,74.28Zm-4.21,0a1.18,1.18,0,0,1,1-1.22v.19a1.17,1.17,0,0,1,1.21,1h0a1.14,1.14,0,0,1-1.18,1v0A1,1,0,0,1,75.6,74.28Z" fill="#fff"/><path d="M93.49,75.18c-.13,0-.26.13-.39.07s-.32-.07-.42-.18a1.1,1.1,0,0,1-.26-.81,1,1,0,0,1,.39-.68,1.15,1.15,0,0,1,1.53-.17,1.23,1.23,0,0,1,.22.85,1,1,0,0,1-.32.75C94.06,75.22,93.77,75.18,93.49,75.18Z" fill="#fff"/></g></g></svg>