<svg xmlns="http://www.w3.org/2000/svg" width="128.37" height="128.49" viewBox="0 0 128.37 128.49"><title>sec2_icn02</title><g id="レイヤー_2" data-name="レイヤー 2"><g id="レイヤー_2-2" data-name="レイヤー 2"><path d="M127.79,64.2c0,.68.36,1.34.34,2s0,1.34-.06,2,.36,1.38.3,2-.48,1.31-.56,2-.64,1.26-.74,1.92.74,1.49.61,2.15-.85,1.2-1,1.85-.47,1.26-.64,1.91-.48,1.25-.67,1.89-.05,1.38-.26,2-.28,1.32-.51,2-.61,1.2-.86,1.82-.61,1.19-.87,1.81-.06,1.45-.34,2-.87,1.08-1.17,1.67-.86,1.06-1.19,1.65,0,1.55-.33,2.13-1,1-1.31,1.56-.72,1.15-1.09,1.7-.94,1-1.34,1.52-.64,1.2-1,1.73-.84,1.06-1.27,1.57-.64,1.23-1.09,1.73-1,.89-1.49,1.37-1.3.61-1.78,1.09-1,.87-1.5,1.33-.88,1-1.39,1.45-.77,1.16-1.29,1.59-1.47.3-2,.71-.66,1.34-1.2,1.73-1.22.6-1.78,1-.83,1.19-1.4,1.55-1.28.49-1.86.83-1.36.32-2,.64-1,1.06-1.55,1.36-1.43.13-2,.42-1,1-1.63,1.28-1.45,0-2.07.24-1.08.93-1.71,1.16-1.32.27-2,.48-1.34.18-2,.37-1.26.44-1.91.61S79,127,78.38,127.1s-1.45-.36-2.11-.24-1.23.77-1.89.87-1.38-.14-2-.06-1.37-.22-2-.16-1.3.4-2,.45-1.33.3-2,.32-1.34.09-2,.09-1.36.14-2,.12-1.31-.6-2-.64-1.38.37-2,.31-1.38.13-2,.05-1.33-.29-2-.39-1.27-.58-1.93-.71-1.28-.44-1.93-.58-1.39,0-2-.14-1.15-.86-1.79-1-1.49.26-2.12.05-1.27-.46-1.9-.69-1.35-.26-2-.5-1-1-1.66-1.26-1.16-.68-1.77-1-1.21-.57-1.8-.87-1.49-.08-2.07-.4-.71-1.47-1.29-1.81-1.29-.43-1.86-.79-1.51-.15-2.06-.53-.72-1.32-1.26-1.72-1.42-.34-2-.75-1-1-1.5-1.37-.8-1.13-1.3-1.57-1-.85-1.53-1.31-1.2-.69-1.68-1.17-.48-1.4-.93-1.89-1.39-.55-1.84-1-.51-1.33-.94-1.85-1.14-.8-1.55-1.33-.36-1.4-.76-1.94S11.42,101,11,100.4s-.2-1.47-.56-2S9.29,97.52,9,97s-.5-1.27-.82-1.86-.34-1.34-.64-1.93-.93-1-1.21-1.65-.29-1.34-.56-2-.8-1.12-1-1.74-.26-1.34-.48-2-.6-1.21-.81-1.85-.63-1.21-.82-1.85-.44-1.28-.6-1.93-.41-1.3-.56-2,.42-1.46.3-2.12S1.12,74.9,1,74.23.42,73,.34,72.29s-.11-1.35-.17-2,0-1.36,0-2S0,66.9,0,66.23s.15-1.35.15-2,.41-1.33.43-2,.28-1.32.32-2-.75-1.4-.69-2.07S1,56.87,1,56.21s-.31-1.4-.21-2.06.85-1.22,1-1.88-.56-1.48-.41-2.14.62-1.24.79-1.88,0-1.4.21-2,.39-1.3.6-1.94,1.13-1,1.36-1.66.19-1.36.44-2,.34-1.31.61-1.93.48-1.26.76-1.87,1.07-1,1.37-1.56.13-1.45.46-2,1-1,1.36-1.53.81-1.07,1.17-1.64.24-1.45.61-2,.7-1.16,1.1-1.7,1.24-.75,1.65-1.28.81-1.06,1.24-1.58.54-1.3,1-1.81,1.38-.56,1.84-1,.91-1,1.39-1.44.73-1.16,1.22-1.62.72-1.21,1.22-1.65,1.09-.8,1.61-1.23,1.17-.68,1.7-1.1.9-1,1.44-1.43,1-1,1.53-1.34,1.2-.65,1.77-1,1.54,0,2.12-.38S32.68,8,33.27,7.72s1.31-.4,1.91-.71,1.3-.4,1.9-.68,1-1,1.64-1.27,1.58.31,2.2.06.95-1.28,1.58-1.51,1.3-.38,1.94-.59,1.25-.51,1.9-.7,1.36-.14,2-.31,1.46.37,2.11.22,1.2-.75,1.86-.87,1.31-.28,2-.39S55.57.39,56.24.31s1.38.21,2,.15S59.6,0,60.27,0s1.38.69,2,.67,1.32-.37,2-.37,1.32.44,2,.46,1.35-.28,2-.23S69.7.17,70.37.23s1.26.79,1.92.87S73.7.71,74.36.82s1.37,0,2,.12,1.18.91,1.84,1.06,1.38,0,2,.14,1.36.13,2,.31,1.34.25,2,.45,1,1.29,1.61,1.51,1.43,0,2.05.23,1.2.63,1.81.89,1.22.55,1.83.84,1.13.72,1.73,1,1.33.36,1.91.68,1.31.42,1.89.76,1.25.55,1.82.91.73,1.33,1.29,1.7,1.23.58,1.77,1,.76,1.21,1.29,1.62,1.52.24,2,.67.91,1,1.41,1.45.67,1.24,1.16,1.7,1.49.39,2,.86.69,1.21,1.15,1.7,1,.92,1.43,1.42,1.2.75,1.63,1.26.87,1,1.28,1.57.5,1.32.89,1.86.94,1,1.32,1.54.8,1.09,1.16,1.66.16,1.47.5,2.05.77,1.09,1.09,1.68,1.1.94,1.41,1.53.2,1.4.49,2,1,1,1.3,1.62.55,1.24.8,1.86-.26,1.53,0,2.17.91,1.1,1.12,1.73.13,1.37.32,2,.07,1.36.23,2,.27,1.3.41,2,.36,1.27.48,1.93,1.08,1.18,1.18,1.84-.18,1.39-.09,2.05.17,1.33.23,2,.17,1.33.21,2-.36,1.35-.34,2S127.79,63.53,127.79,64.2Z" fill="#007130"/><path d="M92.33,77.58c-.75-.82.08-1.25.08-2.36s.07-1.11.07-2.23-.17-1.11-.17-2.22.07-1.12.07-2.23.15-1.11.15-2.23,0-1.11,0-2.22-.09-1.12-.09-2.23.28-1.12.28-2.23-.3-1.11-.3-2.23-.1-1.11-.1-2.23,0-1.11,0-2.23.1-1.11.1-2.23.15-1.11.15-2.22-.27-1.12-.27-2.23,0-1.11,0-2.23.37-1.11.37-2.23-.4-1.12-.4-2.23.14-1.12.14-2.23.27-1.12.27-2.24,0-1.12,0-2.24A2.8,2.8,0,0,0,91.77,31a2.62,2.62,0,0,0-1.85-.75c-1.11,0-1.11-.06-2.23-.06s-1.11.18-2.22.18-1.11.09-2.22.09H81c-1.11,0-1.11-.32-2.22-.32s-1.12.09-2.23.09H74.36c-1.11,0-1.11,0-2.23,0s-1.11-.06-2.22-.06-1.12.3-2.23.3-1.11-.1-2.22-.1-1.12-.18-2.23-.18-1.11.15-2.23.15-1.11-.17-2.22-.17-1.12.33-2.23.33-1.12-.31-2.23-.31-1.11.17-2.22.17S51,30.2,49.87,30.2s-1.12.05-2.23.05-1.12-.1-2.23-.1-1.12.25-2.23.25-1.12,0-2.23,0H38.71a2.14,2.14,0,0,0-2.44,2.44C36.27,34,36,34,36,35.09s.24,1.11.24,2.22v2.23c0,1.11-.26,1.11-.26,2.23s.16,1.11.16,2.22S36,45.11,36,46.22s-.07,1.11-.07,2.23.19,1.11.19,2.23S36,51.79,36,52.9s0,1.12,0,2.23.07,1.12.07,2.23.21,1.12.21,2.23S36,60.71,36,61.82s.32,1.11.32,2.23S36,65.16,36,66.28s.18,1.11.18,2.23.13,1.11.13,2.23-.06,1.11-.06,2.23-.17,1.12-.17,2.24.82,1.41.06,2.24-1,0-2,0h-2c-1,0-1-.06-2-.06s-1,.21-2.05.21-1.82-1.16-2-.16.84.72,1.71,1.42.79.8,1.66,1.5.88.68,1.75,1.38,1.08.43,1.95,1.13.83.75,1.7,1.45.76.84,1.63,1.54,1,.5,1.9,1.19.77.84,1.64,1.54.82.75,1.7,1.45.79.8,1.66,1.5,1,.56,1.85,1.26.76.84,1.63,1.54.91.66,1.78,1.36l1.74,1.4c.87.7,1,.51,1.89,1.21s.93.62,1.81,1.32.75.85,1.62,1.55,1,.58,1.85,1.28.88.68,1.75,1.38.78.82,1.65,1.52,1,.54,1.89,1.24.5,1.76,1.62,1.76.82-1,1.69-1.66,1-.58,1.83-1.28.93-.63,1.8-1.32.66-1,1.53-1.67,1-.52,1.89-1.21.89-.67,1.77-1.36.93-.62,1.8-1.32.89-.68,1.76-1.38.71-.91,1.58-1.6.85-.73,1.73-1.43l1.74-1.4c.87-.69.85-.72,1.72-1.42s.95-.6,1.82-1.3.94-.62,1.81-1.31.79-.81,1.66-1.51.78-.81,1.65-1.51,1.1-.42,2-1.12.78-.82,1.65-1.52.94-.61,1.81-1.31.85-.74,1.72-1.44,1-.61,1.83-1.31,1.91-.45,1.68-1.54-1.06-.19-2.08-.19-1,0-2,0-1,0-2,0a5.74,5.74,0,0,0-2.07.07C93.37,77.67,93,78.33,92.33,77.58Z" fill="#007130"/><path d="M92.33,77.58c-.75-.82.08-1.25.08-2.36s.07-1.11.07-2.23-.17-1.11-.17-2.22.07-1.12.07-2.23.15-1.11.15-2.23,0-1.11,0-2.22-.09-1.12-.09-2.23.28-1.12.28-2.23-.3-1.11-.3-2.23-.1-1.11-.1-2.23,0-1.11,0-2.23.1-1.11.1-2.23.15-1.11.15-2.22-.27-1.12-.27-2.23,0-1.11,0-2.23.37-1.11.37-2.23-.4-1.12-.4-2.23.14-1.12.14-2.23.27-1.12.27-2.24,0-1.12,0-2.24A2.8,2.8,0,0,0,91.77,31a2.62,2.62,0,0,0-1.85-.75c-1.11,0-1.11-.06-2.23-.06s-1.11.18-2.22.18-1.11.09-2.22.09H81c-1.11,0-1.11-.32-2.22-.32s-1.12.09-2.23.09H74.36c-1.11,0-1.11,0-2.23,0s-1.11-.06-2.22-.06-1.12.3-2.23.3-1.11-.1-2.22-.1-1.12-.18-2.23-.18-1.11.15-2.23.15-1.11-.17-2.22-.17-1.12.33-2.23.33-1.12-.31-2.23-.31-1.11.17-2.22.17S51,30.2,49.87,30.2s-1.12.05-2.23.05-1.12-.1-2.23-.1-1.12.25-2.23.25-1.12,0-2.23,0H38.71a2.14,2.14,0,0,0-2.44,2.44C36.27,34,36,34,36,35.09s.24,1.11.24,2.22v2.23c0,1.11-.26,1.11-.26,2.23s.16,1.11.16,2.22S36,45.11,36,46.22s-.07,1.11-.07,2.23.19,1.11.19,2.23S36,51.79,36,52.9s0,1.12,0,2.23.07,1.12.07,2.23.21,1.12.21,2.23S36,60.71,36,61.82s.32,1.11.32,2.23S36,65.16,36,66.28s.18,1.11.18,2.23.13,1.11.13,2.23-.06,1.11-.06,2.23-.17,1.12-.17,2.24.82,1.41.06,2.24-1,0-2,0h-2c-1,0-1-.06-2-.06s-1,.21-2.05.21-1.82-1.16-2-.16.84.72,1.71,1.42.79.8,1.66,1.5.88.68,1.75,1.38,1.08.43,1.95,1.13.83.75,1.7,1.45.76.84,1.63,1.54,1,.5,1.9,1.19.77.84,1.64,1.54.82.75,1.7,1.45.79.8,1.66,1.5,1,.56,1.85,1.26.76.84,1.63,1.54.91.66,1.78,1.36l1.74,1.4c.87.7,1,.51,1.89,1.21s.93.62,1.81,1.32.75.85,1.62,1.55,1,.58,1.85,1.28.88.68,1.75,1.38.78.82,1.65,1.52,1,.54,1.89,1.24.5,1.76,1.62,1.76.82-1,1.69-1.66,1-.58,1.83-1.28.93-.63,1.8-1.32.66-1,1.53-1.67,1-.52,1.89-1.21.89-.67,1.77-1.36.93-.62,1.8-1.32.89-.68,1.76-1.38.71-.91,1.58-1.6.85-.73,1.73-1.43l1.74-1.4c.87-.69.85-.72,1.72-1.42s.95-.6,1.82-1.3.94-.62,1.81-1.31.79-.81,1.66-1.51.78-.81,1.65-1.51,1.1-.42,2-1.12.78-.82,1.65-1.52.94-.61,1.81-1.31.85-.74,1.72-1.44,1-.61,1.83-1.31,1.91-.45,1.68-1.54-1.06-.19-2.08-.19-1,0-2,0-1,0-2,0a5.74,5.74,0,0,0-2.07.07C93.37,77.67,93,78.33,92.33,77.58Z" fill="none" stroke="#fff" stroke-linecap="round" stroke-linejoin="round" stroke-width="2.13"/><path d="M73.07,61.54c.74.85,1.23,0,2.35,0s1.4-.87,2.23-.12,0,1,0,2v2c0,1,.76,1.3.07,2s-1,0-1.9,0-1-.21-1.9-.21-.94.28-1.89.28-1.09-.63-1.92-.16-.52.71-.92,1.47-.57.73-.78,1.55.07.82.07,1.59-.6,1.15,0,1.65,1,0,1.92,0,.91,0,1.82,0,.92-.22,1.83-.22.92.13,1.83.13,1.18-.67,1.8,0-.06,1-.06,2,.16,1,.16,2,.54,1.21-.13,1.95-.85-.06-1.76-.06-.92.22-1.83.22-.91,0-1.83,0-.91-.28-1.83-.28-1.18-.48-1.85.14.13.88.13,1.73-.14.85-.14,1.7,0,.86,0,1.71,0,.85,0,1.71.45,1-.15,1.59-.71.1-1.55.1-.83,0-1.66,0-.84.16-1.68.16-.83-.15-1.67-.15-1,.55-1.57-.05.07-.75.07-1.61-.08-.85-.08-1.7-.14-.85-.14-1.71-.07-.85-.07-1.71.81-1.19.18-1.77-1-.07-1.9-.07-.92.21-1.84.21-.92-.24-1.84-.24-.92,0-1.84,0-1.34.92-2,.24.25-1.11.25-2.12-.12-1-.12-2-.62-1.21.06-1.95.85.07,1.77.07.91-.29,1.83-.29.92.07,1.84.07.92.2,1.84.2,1.06.37,1.76-.22.19-.67.19-1.44a4,4,0,0,0-.12-1.54,5,5,0,0,0-.62-1.59c-.4-.76-.11-1.18-.85-1.59s-1,.28-2,.28-.95,0-1.9,0H52.88c-1,0-1.22.51-1.88-.18s.07-1,.07-2-.2-1-.2-2-.55-1.24.06-2.05c.45-.6.79-.12,1.55-.12s.76.05,1.51.05,1.26.82,1.56.12-.36-.88-.78-1.69-.54-.75-1-1.56-.5-.78-.91-1.59-.44-.8-.86-1.62-.17-.94-.58-1.76-.54-.75-1-1.57-.52-.77-.94-1.58-.2-.93-.61-1.75-.45-.8-.87-1.62-1.42-.87-.94-1.66,1,.22,1.89.22.91-.13,1.83-.13h1.82c.92,0,.92-.15,1.83-.15s1.06-.37,1.83.11.23.86.59,1.65.65.66,1,1.45.17.87.54,1.66.31.82.67,1.61.32.81.68,1.6.47.75.83,1.54.41.77.77,1.56.32.82.68,1.61.33.81.69,1.6.53.72.89,1.52-.24,1.63.63,1.63.45-.75.81-1.54.13-.9.49-1.69.46-.75.82-1.54.35-.79.72-1.59.43-.76.79-1.55.3-.82.66-1.61.37-.79.73-1.58.28-.84.64-1.63.42-.77.78-1.56.53-.73.89-1.52,0-1.07.72-1.53.85,0,1.76,0S75.06,45,76,45s.91.23,1.82.23S78.69,45,79.6,45s1.33-.71,1.8.07-.26.88-.67,1.69-.48.77-.89,1.59-.54.76-1,1.57-.27.89-.68,1.7-.57.74-1,1.56-.26.89-.68,1.71-.58.73-1,1.55-.27.89-.68,1.71-.27.92-.88,1.61S72.47,60.84,73.07,61.54Z" fill="#fff"/></g></g></svg>