<svg xmlns="http://www.w3.org/2000/svg" width="128.7" height="128.81" viewBox="0 0 128.7 128.81"><title>sec2_icn01</title><g id="レイヤー_2" data-name="レイヤー 2"><g id="レイヤー_2-2" data-name="レイヤー 2"><path d="M128.4,64.5c0,.67.16,1.34.14,2s0,1.35,0,2-.63,1.3-.69,2,.41,1.39.33,2-.6,1.28-.7,1.94-.36,1.29-.48,2,.32,1.44.17,2.09-.22,1.34-.39,2-.88,1.15-1.07,1.79-.36,1.29-.56,1.93,0,1.41-.25,2-1.07,1-1.32,1.65-.5,1.23-.76,1.84-.26,1.35-.55,2-.22,1.39-.52,2-.73,1.15-1,1.74-.84,1.07-1.18,1.64-.46,1.3-.81,1.87-.56,1.25-.94,1.81-.88,1-1.27,1.58-1.42.6-1.83,1.13-.18,1.58-.6,2.1-1.08.86-1.52,1.36-1.07.85-1.53,1.33-.58,1.31-1,1.79-1.59.29-2.08.75-.41,1.54-.91,2-1.06.84-1.58,1.27-1,.94-1.5,1.35-1.22.63-1.76,1-1.49.21-2,.59-.85,1.14-1.41,1.5-1.12.74-1.7,1.08-1,1-1.55,1.34-1.36.31-2,.62-1.07.87-1.68,1.16-1.52-.14-2.14.13-1.1.84-1.72,1.08-1.39.07-2,.3-1.14.75-1.78,1-1.14.84-1.79,1-1.46-.28-2.11-.11-1.16.88-1.82,1-1.27.51-1.93.63-1.43-.41-2.1-.31-1.27.53-1.94.61-1.31.38-2,.44-1.33.27-2,.31-1.38-.83-2-.81-1.33.54-2,.54-1.34-.14-2-.16-1.34-.06-2-.1-1.32-.25-2-.31-1.37.16-2,.08-1.38.09-2,0-1.37,0-2-.17-1.18-1-1.83-1.11-1.36-.08-2-.24-1.15-.84-1.8-1-1.5.34-2.14.13-1.22-.6-1.84-.83-1.09-.9-1.71-1.15-1.53.18-2.14-.09-1.09-.86-1.69-1.15-1.26-.5-1.85-.8-1.4-.25-2-.57-1.2-.65-1.78-1-.94-1.05-1.5-1.41-1.24-.57-1.79-.94-1.15-.73-1.69-1.13-.69-1.31-1.22-1.72-1.12-.74-1.63-1.16-1.37-.47-1.87-.91-.71-1.23-1.2-1.69-1.32-.56-1.8-1-1-1-1.43-1.44-.32-1.52-.77-2-1.25-.69-1.68-1.2-.62-1.22-1-1.75-.57-1.24-1-1.78-.72-1.11-1.1-1.66-.8-1.06-1.16-1.63-1.44-.69-1.78-1.27S8.56,96,8.24,95.36s-.65-1.18-1-1.77-.66-1.18-.94-1.78-.17-1.4-.44-2-1.14-1-1.39-1.6S3.89,87,3.66,86.36s.2-1.49,0-2.13-.91-1.12-1.1-1.77.24-1.46.08-2.11-1.07-1.12-1.21-1.78-.11-1.36-.23-2-.2-1.33-.3-2,.36-1.4.28-2.07S.52,71.21.45,70.54s-.28-1.33-.32-2-.08-1.35-.1-2,.05-1.35.05-2-.1-1.36-.08-2,.81-1.31.85-2,.19-1.33.25-2-.37-1.39-.28-2,.26-1.32.36-2,.38-1.29.5-1.95-.23-1.42-.08-2.08,1.12-1.1,1.29-1.75.29-1.3.47-1.94-.33-1.5-.13-2.14.21-1.36.43-2S5,41.71,5.28,41.09s0-1.47.23-2.08,1-1,1.33-1.6.54-1.21.85-1.81.46-1.26.78-1.85.89-1,1.23-1.6,0-1.59.33-2.16,1.29-.76,1.67-1.31.65-1.17,1.05-1.71.5-1.3.91-1.83.62-1.23,1.05-1.75,1.15-.79,1.59-1.29.62-1.27,1.07-1.76,1.41-.51,1.89-1,1-.93,1.45-1.39.91-1,1.41-1.43S23,15.45,23.47,15s1.23-.61,1.76-1,.73-1.27,1.28-1.66,1.48-.24,2-.61.84-1.16,1.41-1.52,1.55,0,2.13-.37S33.14,9,33.73,8.71s.94-1.06,1.54-1.37S36.34,6.46,37,6.18s1.51.08,2.12-.19,1.13-.77,1.75-1,1.21-.61,1.84-.84,1.27-.42,1.91-.63,1.41,0,2.06-.15,1.31-.2,2-.37,1.21-.68,1.86-.83,1.38.11,2,0,1.19-.92,1.86-1,1.33-.2,2-.28,1.33-.22,2-.28,1.36.14,2,.1,1.32-.57,2-.59,1.36-.06,2-.06,1.34.44,2,.46,1.31.63,2,.67S69.77.45,70.44.52s1.27.74,1.93.82,1.37-.14,2,0,1.27.48,1.93.61,1.49-.56,2.14-.41,1.14,1,1.79,1.2,1.43-.14,2.07,0S83.41,3.82,84,4s1.52-.28,2.15-.06,1,1.21,1.6,1.46,1.33.24,1.95.51,1.39.17,2,.45,1.32.39,1.91.69,1,1,1.6,1.3,1,.92,1.59,1.26,1.32.41,1.89.76,1,1,1.52,1.35,1,.95,1.5,1.34,1.34.43,1.87.84,1.38.44,1.9.87,1,.91,1.5,1.35.73,1.21,1.22,1.67,1.08.82,1.55,1.29.58,1.3,1,1.79,1.19.73,1.63,1.23.75,1.12,1.18,1.64.58,1.24,1,1.77,1.26.72,1.66,1.27.69,1.15,1.07,1.7.92,1,1.28,1.57.39,1.33.74,1.91,1,1,1.3,1.57.14,1.44.44,2,.86,1.07,1.15,1.67.66,1.17.93,1.79.13,1.39.37,2,.77,1.14,1,1.77.34,1.29.55,1.93.18,1.34.37,2,1.24,1,1.41,1.7,0,1.38.19,2,.25,1.32.37,2,.44,1.29.54,2-.09,1.37,0,2,.07,1.34.13,2-.35,1.36-.31,2,.87,1.3.89,2S128.4,63.82,128.4,64.5Z" fill="#007130"/><path d="M58.17,95a4.48,4.48,0,0,1-.92,2.15A6.93,6.93,0,0,1,55.84,99,11.61,11.61,0,0,1,54,100.38a17.32,17.32,0,0,1-2.16.91,20.72,20.72,0,0,1-2.26.57c-.73.19-1.52.15-2.31.28s-1.48.5-2.27.56-1.55,0-2.34,0-1.58.17-2.34.12-1.58-.19-2.32-.31-1.52-.46-2.25-.64a23,23,0,0,1-2.25-.62,17.22,17.22,0,0,1-2.17-.88A11.24,11.24,0,0,1,29.41,99a7.07,7.07,0,0,1-1.47-1.78A4.54,4.54,0,0,1,27.06,95a4.56,4.56,0,0,1,1-2.13,6.7,6.7,0,0,1,1.42-1.79,11.51,11.51,0,0,1,1.86-1.42,17.36,17.36,0,0,1,2.12-1A23.17,23.17,0,0,1,35.69,88c.73-.18,1.52-.22,2.31-.34s1.53,0,2.32-.1,1.52-.08,2.31-.08,1.56-.09,2.32,0,1.54.22,2.29.33,1.58.11,2.31.3a20.39,20.39,0,0,1,2.27.55,17.82,17.82,0,0,1,2.15,1,11.44,11.44,0,0,1,1.84,1.45,6.8,6.8,0,0,1,1.39,1.81A4.49,4.49,0,0,1,58.17,95Z" fill="#007130"/><path d="M58.17,95a4.48,4.48,0,0,1-.92,2.15A6.93,6.93,0,0,1,55.84,99,11.61,11.61,0,0,1,54,100.38a17.32,17.32,0,0,1-2.16.91,20.72,20.72,0,0,1-2.26.57c-.73.19-1.52.15-2.31.28s-1.48.5-2.27.56-1.55,0-2.34,0-1.58.17-2.34.12-1.58-.19-2.32-.31-1.52-.46-2.25-.64a23,23,0,0,1-2.25-.62,17.22,17.22,0,0,1-2.17-.88A11.24,11.24,0,0,1,29.41,99a7.07,7.07,0,0,1-1.47-1.78A4.54,4.54,0,0,1,27.06,95a4.56,4.56,0,0,1,1-2.13,6.7,6.7,0,0,1,1.42-1.79,11.51,11.51,0,0,1,1.86-1.42,17.36,17.36,0,0,1,2.12-1A23.17,23.17,0,0,1,35.69,88c.73-.18,1.52-.22,2.31-.34s1.53,0,2.32-.1,1.52-.08,2.31-.08,1.56-.09,2.32,0,1.54.22,2.29.33,1.58.11,2.31.3a20.39,20.39,0,0,1,2.27.55,17.82,17.82,0,0,1,2.15,1,11.44,11.44,0,0,1,1.84,1.45,6.8,6.8,0,0,1,1.39,1.81A4.49,4.49,0,0,1,58.17,95Z" fill="none" stroke="#fff" stroke-miterlimit="10" stroke-width="2.13"/><path d="M27.14,95c0-1.24.1-1.24.1-2.49s.09-1.24.09-2.49-.24-1.25-.24-2.5-.77-1.67.05-2.6,1.23.25,2.32.25,1.1.06,2.19.06,1.1-.16,2.2-.16,1.09.16,2.19.16,1.1-.37,2.19-.37,1.1.14,2.2.14h2.19c1.09,0,1.09.11,2.19.11S45.91,85,47,85s1.1,0,2.2,0,1.1,0,2.19,0h2.2c1.1,0,1.1-.11,2.2-.11s1.52-.75,2.25.08.09,1.28.09,2.53,0,1.25,0,2.49-.39,1.25-.39,2.5.11,1.24.11,2.49" fill="#007130"/><path d="M27.14,95c0-1.24.1-1.24.1-2.49s.09-1.24.09-2.49-.24-1.25-.24-2.5-.77-1.67.05-2.6,1.23.25,2.32.25,1.1.06,2.19.06,1.1-.16,2.2-.16,1.09.16,2.19.16,1.1-.37,2.19-.37,1.1.14,2.2.14h2.19c1.09,0,1.09.11,2.19.11S45.91,85,47,85s1.1,0,2.2,0,1.1,0,2.19,0h2.2c1.1,0,1.1-.11,2.2-.11s1.52-.75,2.25.08.09,1.28.09,2.53,0,1.25,0,2.49-.39,1.25-.39,2.5.11,1.24.11,2.49" fill="none" stroke="#fff" stroke-linecap="round" stroke-linejoin="round" stroke-width="2.13"/><path d="M58,84.75a4.22,4.22,0,0,1-.67,2.19,6.57,6.57,0,0,1-1.49,1.77A11.71,11.71,0,0,1,53.91,90a15.88,15.88,0,0,1-2.11,1,21.63,21.63,0,0,1-2.29.44,21.76,21.76,0,0,1-2.25.55c-.75.12-1.5.46-2.29.52s-1.55-.22-2.34-.22-1.57.11-2.32,0-1.58-.09-2.33-.21-1.56-.25-2.29-.43a22.13,22.13,0,0,1-2.25-.65,16,16,0,0,1-2.12-1,11.38,11.38,0,0,1-1.85-1.41A6.72,6.72,0,0,1,28,86.88a4,4,0,0,1-.69-2.13A4.07,4.07,0,0,1,28,82.62a6.38,6.38,0,0,1,1.38-1.85,11.34,11.34,0,0,1,1.91-1.35,16,16,0,0,1,2.12-1c.7-.26,1.52-.23,2.3-.43s1.44-.63,2.22-.76,1.55-.07,2.34-.14S41.84,77,42.63,77,44.21,76.89,45,77s1.54.44,2.28.56,1.59.1,2.32.28a22,22,0,0,1,2.21.77,15.54,15.54,0,0,1,2,1.16,13.87,13.87,0,0,1,2.15,1,6.63,6.63,0,0,1,1.25,2A4.17,4.17,0,0,1,58,84.75Z" fill="#fff"/><path d="M58,84.49c-.72.82-1.1.2-2.19.2s-1.1,0-2.19,0-1.1-.16-2.2-.16-1.09.06-2.19.06-1.1-.2-2.19-.2-1.1.15-2.2.15-1.09-.07-2.19-.07-1.09-.13-2.19-.13-1.1.22-2.19.22-1.1,0-2.2,0-1.1.08-2.19.08-1.1-.15-2.2-.15-1.1.15-2.2.15-1.37.64-2.1-.18-.08-1.16-.08-2.4,0-1.25,0-2.5.17-1.24.17-2.49-1-1.55-.13-2.48,1.08,0,2.17,0,1.1.09,2.19.09,1.1-.37,2.2-.37,1.09.12,2.19.12h2.19c1.1,0,1.1-.08,2.2-.08s1.09.12,2.19.12,1.09,0,2.19,0,1.1.19,2.19.19,1.1-.33,2.2-.33,1.1.35,2.19.35,1.1-.2,2.2-.2,1.1-.11,2.2-.11,1.47-.72,2.2.1-.14,1.25-.14,2.49.33,1.25.33,2.49S57.74,80.77,58,82,58.81,83.55,58,84.49Z" fill="#fff"/><path d="M58,84.49c-.72.82-1.1.2-2.19.2s-1.1,0-2.19,0-1.1-.16-2.2-.16-1.09.06-2.19.06-1.1-.2-2.19-.2-1.1.15-2.2.15-1.09-.07-2.19-.07-1.09-.13-2.19-.13-1.1.22-2.19.22-1.1,0-2.2,0-1.1.08-2.19.08-1.1-.15-2.2-.15-1.1.15-2.2.15-1.37.64-2.1-.18-.08-1.16-.08-2.4,0-1.25,0-2.5.17-1.24.17-2.49-1-1.55-.13-2.48,1.08,0,2.17,0,1.1.09,2.19.09,1.1-.37,2.2-.37,1.09.12,2.19.12h2.19c1.1,0,1.1-.08,2.2-.08s1.09.12,2.19.12,1.09,0,2.19,0,1.1.19,2.19.19,1.1-.33,2.2-.33,1.1.35,2.19.35,1.1-.2,2.2-.2,1.1-.11,2.2-.11,1.47-.72,2.2.1-.14,1.25-.14,2.49.33,1.25.33,2.49S57.74,80.77,58,82,58.81,83.55,58,84.49Z" fill="none" stroke="#fff" stroke-linejoin="round" stroke-width="2.13"/><path d="M58,74.51a4.33,4.33,0,0,1-.65,2.23,7.3,7.3,0,0,1-1.66,1.61,11.68,11.68,0,0,1-1.94,1.21,17,17,0,0,1-2,1.08c-.7.26-1.47.33-2.25.53s-1.43.61-2.22.73-1.53.21-2.32.27-1.54.11-2.33.11-1.57-.13-2.32-.19-1.6,0-2.35-.07-1.57-.27-2.29-.46a18.82,18.82,0,0,1-2.19-.85,16,16,0,0,1-2-1.15,14.17,14.17,0,0,1-2.1-1A6.76,6.76,0,0,1,28,76.64a4.13,4.13,0,0,1-.75-2.13A4.18,4.18,0,0,1,28,72.37a6.58,6.58,0,0,1,1.29-2,13.25,13.25,0,0,1,2.1-1,15.84,15.84,0,0,1,2-1.13c.7-.26,1.52-.22,2.3-.42s1.43-.63,2.22-.76,1.56.11,2.35,0,1.52-.2,2.31-.2,1.57-.13,2.33-.07,1.59.06,2.33.18a22,22,0,0,1,2.26.62,21.44,21.44,0,0,1,2.18.8,17.57,17.57,0,0,1,2.17.82,11.52,11.52,0,0,1,1.86,1.38,6.41,6.41,0,0,1,1.43,1.76A4.26,4.26,0,0,1,58,74.51Z" fill="#007130"/><path d="M58,74.51a4.33,4.33,0,0,1-.65,2.23,7.3,7.3,0,0,1-1.66,1.61,11.68,11.68,0,0,1-1.94,1.21,17,17,0,0,1-2,1.08c-.7.26-1.47.33-2.25.53s-1.43.61-2.22.73-1.53.21-2.32.27-1.54.11-2.33.11-1.57-.13-2.32-.19-1.6,0-2.35-.07-1.57-.27-2.29-.46a18.82,18.82,0,0,1-2.19-.85,16,16,0,0,1-2-1.15,14.17,14.17,0,0,1-2.1-1A6.76,6.76,0,0,1,28,76.64a4.13,4.13,0,0,1-.75-2.13A4.18,4.18,0,0,1,28,72.37a6.58,6.58,0,0,1,1.29-2,13.25,13.25,0,0,1,2.1-1,15.84,15.84,0,0,1,2-1.13c.7-.26,1.52-.22,2.3-.42s1.43-.63,2.22-.76,1.56.11,2.35,0,1.52-.2,2.31-.2,1.57-.13,2.33-.07,1.59.06,2.33.18a22,22,0,0,1,2.26.62,21.44,21.44,0,0,1,2.18.8,17.57,17.57,0,0,1,2.17.82,11.52,11.52,0,0,1,1.86,1.38,6.41,6.41,0,0,1,1.43,1.76A4.26,4.26,0,0,1,58,74.51Z" fill="none" stroke="#fff" stroke-miterlimit="10" stroke-width="2.13"/><path d="M27.35,74.51c0-1.24.11-1.24.11-2.49s-.34-1.24-.34-2.49.27-1.25.27-2.5-.89-1.51-.07-2.45,1.05-.12,2.14-.12,1.1-.11,2.19-.11,1.1.15,2.2.15,1.09-.16,2.19-.16,1.1.27,2.19.27h2.2c1.09,0,1.09,0,2.19,0s1.09-.11,2.19-.11,1.1.12,2.19.12,1.1-.22,2.2-.22,1.1.27,2.19.27,1.1-.2,2.2-.2,1.1.32,2.2.32,1.36-.94,2.09-.12S58,65.78,58,67s.12,1.25.12,2.49-.28,1.25-.28,2.5.11,1.24.11,2.49" fill="#007130"/><path d="M27.35,74.51c0-1.24.11-1.24.11-2.49s-.34-1.24-.34-2.49.27-1.25.27-2.5-.89-1.51-.07-2.45,1.05-.12,2.14-.12,1.1-.11,2.19-.11,1.1.15,2.2.15,1.09-.16,2.19-.16,1.1.27,2.19.27h2.2c1.09,0,1.09,0,2.19,0s1.09-.11,2.19-.11,1.1.12,2.19.12,1.1-.22,2.2-.22,1.1.27,2.19.27,1.1-.2,2.2-.2,1.1.32,2.2.32,1.36-.94,2.09-.12S58,65.78,58,67s.12,1.25.12,2.49-.28,1.25-.28,2.5.11,1.24.11,2.49" fill="none" stroke="#fff" stroke-linecap="round" stroke-linejoin="round" stroke-width="2.13"/><path d="M58,64.27a4.29,4.29,0,0,1-.64,2.22,6.86,6.86,0,0,1-1.52,1.76,11.35,11.35,0,0,1-2,1.14,15.66,15.66,0,0,1-2,1.19,22.21,22.21,0,0,1-2.22.76c-.73.18-1.55.07-2.34.2S45.76,72,45,72s-1.55-.16-2.34-.16-1.58.28-2.34.22-1.57-.23-2.32-.34-1.55-.3-2.28-.49a21.2,21.2,0,0,1-2.16-.9,17.14,17.14,0,0,1-2.2-.77,11.87,11.87,0,0,1-2-1.24,6.93,6.93,0,0,1-1.56-1.78,4.46,4.46,0,0,1-.63-2.28A4.53,4.53,0,0,1,27.77,62a7.71,7.71,0,0,1,1.76-1.54,10.94,10.94,0,0,1,1.92-1.24,15.71,15.71,0,0,1,2-1.13,20.08,20.08,0,0,1,2.23-.65A22.73,22.73,0,0,1,38,57c.75-.12,1.5-.41,2.29-.47s1.55.25,2.34.25,1.55,0,2.31.06,1.6-.14,2.34,0a23.42,23.42,0,0,1,2.32.37,20.73,20.73,0,0,1,2.11,1,19.72,19.72,0,0,1,2.21.74,10.61,10.61,0,0,1,1.79,1.46,6.57,6.57,0,0,1,1.51,1.69A4.19,4.19,0,0,1,58,64.27Z" fill="#fff"/><path d="M58.12,64.12c-.72.83-1.23-.3-2.32-.3s-1.1.21-2.19.21-1.1-.06-2.2-.06H49.22c-1.1,0-1.1-.06-2.19-.06s-1.1.12-2.2.12-1.09.11-2.19.11-1.09.07-2.19.07-1.1-.29-2.19-.29-1.1.09-2.2.09-1.1-.2-2.19-.2-1.1.3-2.2.3-1.1-.08-2.2-.08-1.35.69-2.08-.13-.26-1.14-.26-2.38.15-1.25.15-2.5,0-1.24,0-2.49-.94-1.69-.12-2.63,1.25-.08,2.34-.08,1.1.17,2.19.17,1.1-.08,2.2-.08,1.09,0,2.19,0,1.1.26,2.19.26,1.1,0,2.2,0,1.09-.21,2.19-.21,1.09.18,2.19.18,1.1-.21,2.19-.21h2.2c1.1,0,1.1.32,2.19.32s1.1-.2,2.2-.2,1.1.11,2.2.11,1.34-.76,2.07.07-.06,1.13-.06,2.37,0,1.25,0,2.49a7.35,7.35,0,0,0,.33,2.46C58.47,62.82,59,63.18,58.12,64.12Z" fill="#fff"/><path d="M58.12,64.12c-.72.83-1.23-.3-2.32-.3s-1.1.21-2.19.21-1.1-.06-2.2-.06H49.22c-1.1,0-1.1-.06-2.19-.06s-1.1.12-2.2.12-1.09.11-2.19.11-1.09.07-2.19.07-1.1-.29-2.19-.29-1.1.09-2.2.09-1.1-.2-2.19-.2-1.1.3-2.2.3-1.1-.08-2.2-.08-1.35.69-2.08-.13-.26-1.14-.26-2.38.15-1.25.15-2.5,0-1.24,0-2.49-.94-1.69-.12-2.63,1.25-.08,2.34-.08,1.1.17,2.19.17,1.1-.08,2.2-.08,1.09,0,2.19,0,1.1.26,2.19.26,1.1,0,2.2,0,1.09-.21,2.19-.21,1.09.18,2.19.18,1.1-.21,2.19-.21h2.2c1.1,0,1.1.32,2.19.32s1.1-.2,2.2-.2,1.1.11,2.2.11,1.34-.76,2.07.07-.06,1.13-.06,2.37,0,1.25,0,2.49a7.35,7.35,0,0,0,.33,2.46C58.47,62.82,59,63.18,58.12,64.12Z" fill="none" stroke="#fff" stroke-linejoin="round" stroke-width="2.13"/><path d="M58.08,54a4.37,4.37,0,0,1-.73,2.21,6.65,6.65,0,0,1-1.46,1.83A11.4,11.4,0,0,1,54,59.44a16.49,16.49,0,0,1-2.16.91c-.7.26-1.53.19-2.31.39s-1.42.67-2.21.79-1.55.1-2.34.16-1.54,0-2.33,0-1.58.16-2.34.11-1.52-.51-2.27-.63-1.61,0-2.34-.13a22.42,22.42,0,0,1-2.23-.72,18,18,0,0,1-2.16-.91A11.92,11.92,0,0,1,29.39,58a6.61,6.61,0,0,1-1.31-1.9,3.59,3.59,0,0,1-.17-4.3A6.82,6.82,0,0,1,29.34,50a12.17,12.17,0,0,1,2-1.17,15,15,0,0,1,2.08-1.06c.69-.26,1.52-.2,2.3-.4s1.46-.47,2.25-.6,1.53,0,2.32-.09,1.52-.22,2.31-.22,1.57-.15,2.33-.09,1.53.41,2.28.53,1.59.05,2.32.24a20.09,20.09,0,0,1,2.26.6,16.28,16.28,0,0,1,2,1.19,12.27,12.27,0,0,1,2,1.18,7.28,7.28,0,0,1,1.61,1.69A4.44,4.44,0,0,1,58.08,54Z" fill="#007130"/><path d="M58.08,54a4.37,4.37,0,0,1-.73,2.21,6.65,6.65,0,0,1-1.46,1.83A11.4,11.4,0,0,1,54,59.44a16.49,16.49,0,0,1-2.16.91c-.7.26-1.53.19-2.31.39s-1.42.67-2.21.79-1.55.1-2.34.16-1.54,0-2.33,0-1.58.16-2.34.11-1.52-.51-2.27-.63-1.61,0-2.34-.13a22.42,22.42,0,0,1-2.23-.72,18,18,0,0,1-2.16-.91A11.92,11.92,0,0,1,29.39,58a6.61,6.61,0,0,1-1.31-1.9,3.59,3.59,0,0,1-.17-4.3A6.82,6.82,0,0,1,29.34,50a12.17,12.17,0,0,1,2-1.17,15,15,0,0,1,2.08-1.06c.69-.26,1.52-.2,2.3-.4s1.46-.47,2.25-.6,1.53,0,2.32-.09,1.52-.22,2.31-.22,1.57-.15,2.33-.09,1.53.41,2.28.53,1.59.05,2.32.24a20.09,20.09,0,0,1,2.26.6,16.28,16.28,0,0,1,2,1.19,12.27,12.27,0,0,1,2,1.18,7.28,7.28,0,0,1,1.61,1.69A4.44,4.44,0,0,1,58.08,54Z" fill="none" stroke="#fff" stroke-miterlimit="10" stroke-width="2.13"/><path d="M27.16,54c0-1.24.26-1.24.26-2.49s-.34-1.24-.34-2.49.14-1.25.14-2.5-.92-1.68-.09-2.62,1.24-.06,2.33-.06,1.1.3,2.19.3,1.1-.12,2.2-.12S34.94,44,36,44s1.1,0,2.19,0,1.1.21,2.2.21S41.52,44,42.62,44s1.09.17,2.19.17,1.1.06,2.19.06,1.1-.24,2.2-.24,1.1,0,2.19,0,1.1.22,2.2.22h2.2c1.1,0,1.56-1,2.28-.14s-.23,1.32-.23,2.57V49c0,1.25.13,1.25.13,2.5s.16,1.24.16,2.49" fill="#007130"/><path d="M27.16,54c0-1.24.26-1.24.26-2.49s-.34-1.24-.34-2.49.14-1.25.14-2.5-.92-1.68-.09-2.62,1.24-.06,2.33-.06,1.1.3,2.19.3,1.1-.12,2.2-.12S34.94,44,36,44s1.1,0,2.19,0,1.1.21,2.2.21S41.52,44,42.62,44s1.09.17,2.19.17,1.1.06,2.19.06,1.1-.24,2.2-.24,1.1,0,2.19,0,1.1.22,2.2.22h2.2c1.1,0,1.56-1,2.28-.14s-.23,1.32-.23,2.57V49c0,1.25.13,1.25.13,2.5s.16,1.24.16,2.49" fill="none" stroke="#fff" stroke-linecap="round" stroke-linejoin="round" stroke-width="2.13"/><path d="M58,43.79A4.23,4.23,0,0,1,57.35,46a7,7,0,0,1-1.45,1.84,12.5,12.5,0,0,1-2.07,1.07,15.1,15.1,0,0,1-2,1.18,20.72,20.72,0,0,1-2.28.5,21.77,21.77,0,0,1-2.25.61c-.75.12-1.54,0-2.33,0s-1.53.38-2.32.38-1.56-.29-2.32-.35-1.59.08-2.34,0a22.14,22.14,0,0,1-2.27-.55,19.3,19.3,0,0,1-2.18-.81,18.21,18.21,0,0,1-2.17-.82,11.47,11.47,0,0,1-1.87-1.38A7.17,7.17,0,0,1,27.87,46a4.23,4.23,0,0,1-.56-2.23,4.3,4.3,0,0,1,.58-2.21,6.89,6.89,0,0,1,1.48-1.82,11.45,11.45,0,0,1,1.93-1.32,16.75,16.75,0,0,1,2.13-1A22.14,22.14,0,0,1,35.74,37a21.76,21.76,0,0,1,2.25-.6c.74-.12,1.51-.37,2.3-.43s1.55-.07,2.34-.07,1.57.09,2.33.15,1.58.12,2.33.24,1.54.35,2.27.54a19.35,19.35,0,0,1,2.18.84,15.2,15.2,0,0,1,2.06,1,12.29,12.29,0,0,1,2.12,1,6.64,6.64,0,0,1,1.35,1.9A4.12,4.12,0,0,1,58,43.79Z" fill="#fff"/><path d="M58.06,43.59c-.72.82-1.17-.2-2.26-.2s-1.1.2-2.19.2-1.1-.08-2.2-.08-1.09-.09-2.19-.09-1.1,0-2.19,0-1.1.24-2.2.24-1.09-.26-2.19-.26-1.09.21-2.19.21-1.1-.14-2.19-.14-1.1-.15-2.2-.15-1.1.12-2.19.12-1.1.09-2.2.09-1.1,0-2.2,0-1.57.84-2.29,0,.18-1.33.18-2.57-.18-1.25-.18-2.5-.11-1.24-.11-2.49-.74-1.66.08-2.6,1.22.09,2.31.09,1.1.07,2.19.07,1.1-.13,2.2-.13,1.09.21,2.19.21,1.1-.27,2.19-.27h2.2c1.09,0,1.09-.08,2.19-.08s1.09.2,2.19.2,1.1.07,2.19.07h2.2c1.1,0,1.1-.25,2.19-.25s1.1.38,2.2.38,1.1-.12,2.2-.12,1.63-1,2.36-.21-.22,1.39-.22,2.63.23,1.25.23,2.49-.32,1.26-.06,2.48S58.89,42.65,58.06,43.59Z" fill="#fff"/><path d="M58.06,43.59c-.72.82-1.17-.2-2.26-.2s-1.1.2-2.19.2-1.1-.08-2.2-.08-1.09-.09-2.19-.09-1.1,0-2.19,0-1.1.24-2.2.24-1.09-.26-2.19-.26-1.09.21-2.19.21-1.1-.14-2.19-.14-1.1-.15-2.2-.15-1.1.12-2.19.12-1.1.09-2.2.09-1.1,0-2.2,0-1.57.84-2.29,0,.18-1.33.18-2.57-.18-1.25-.18-2.5-.11-1.24-.11-2.49-.74-1.66.08-2.6,1.22.09,2.31.09,1.1.07,2.19.07,1.1-.13,2.2-.13,1.09.21,2.19.21,1.1-.27,2.19-.27h2.2c1.09,0,1.09-.08,2.19-.08s1.09.2,2.19.2,1.1.07,2.19.07h2.2c1.1,0,1.1-.25,2.19-.25s1.1.38,2.2.38,1.1-.12,2.2-.12,1.63-1,2.36-.21-.22,1.39-.22,2.63.23,1.25.23,2.49-.32,1.26-.06,2.48S58.89,42.65,58.06,43.59Z" fill="none" stroke="#fff" stroke-linejoin="round" stroke-width="2.13"/><path d="M57.8,33.55a4.32,4.32,0,0,1-.28,2.31,7.69,7.69,0,0,1-1.73,1.6,11.51,11.51,0,0,1-2,1.22,15.88,15.88,0,0,1-2.12.88,21.26,21.26,0,0,1-2.17.82c-.73.18-1.48.4-2.27.52s-1.52.14-2.32.2-1.53,0-2.32,0-1.58.18-2.33.12S38.74,41,38,40.88s-1.52-.39-2.25-.57-1.62-.14-2.32-.4a16.33,16.33,0,0,1-2.09-1.06,12.21,12.21,0,0,1-1.95-1.29,6.93,6.93,0,0,1-1.47-1.8,4.35,4.35,0,0,1-.72-2.21,4.49,4.49,0,0,1,.65-2.24,7.17,7.17,0,0,1,1.47-1.85,12.4,12.4,0,0,1,2-1.24,17.86,17.86,0,0,1,2.21-.76,22.28,22.28,0,0,1,2.22-.65A22,22,0,0,1,38,26.29c.75-.12,1.5-.36,2.3-.42s1.54.2,2.33.2,1.57-.24,2.33-.18,1.56.24,2.3.36,1.6.08,2.33.26a22,22,0,0,1,2.21.79,17.21,17.21,0,0,1,2.05,1.1,12.22,12.22,0,0,1,2,1.13,7,7,0,0,1,1.37,1.87A4,4,0,0,1,57.8,33.55Z" fill="#007130"/><path d="M57.8,33.55a4.32,4.32,0,0,1-.28,2.31,7.69,7.69,0,0,1-1.73,1.6,11.51,11.51,0,0,1-2,1.22,15.88,15.88,0,0,1-2.12.88,21.26,21.26,0,0,1-2.17.82c-.73.18-1.48.4-2.27.52s-1.52.14-2.32.2-1.53,0-2.32,0-1.58.18-2.33.12S38.74,41,38,40.88s-1.52-.39-2.25-.57-1.62-.14-2.32-.4a16.33,16.33,0,0,1-2.09-1.06,12.21,12.21,0,0,1-1.95-1.29,6.93,6.93,0,0,1-1.47-1.8,4.35,4.35,0,0,1-.72-2.21,4.49,4.49,0,0,1,.65-2.24,7.17,7.17,0,0,1,1.47-1.85,12.4,12.4,0,0,1,2-1.24,17.86,17.86,0,0,1,2.21-.76,22.28,22.28,0,0,1,2.22-.65A22,22,0,0,1,38,26.29c.75-.12,1.5-.36,2.3-.42s1.54.2,2.33.2,1.57-.24,2.33-.18,1.56.24,2.3.36,1.6.08,2.33.26a22,22,0,0,1,2.21.79,17.21,17.21,0,0,1,2.05,1.1,12.22,12.22,0,0,1,2,1.13,7,7,0,0,1,1.37,1.87A4,4,0,0,1,57.8,33.55Z" fill="none" stroke="#fff" stroke-miterlimit="10" stroke-width="2.13"/><path d="M114.14,72c0,.77,0,1.53-.08,2.29s0,1.54-.11,2.29-.3,1.5-.47,2.25-.37,1.48-.59,2.21-.39,1.49-.67,2.2-.55,1.44-.89,2.12-.91,1.25-1.3,1.91-.5,1.49-.94,2.12-1,1.14-1.53,1.73-1.09,1.07-1.61,1.63-1,1.11-1.6,1.63-1.07,1.09-1.67,1.57-1.24.87-1.88,1.3-1.23.9-1.9,1.28-1.35.7-2,1-1.28.88-2,1.16-1.49.39-2.22.61-1.48.4-2.23.57-1.49.27-2.26.38-1.49.38-2.26.44-1.53-.1-2.3-.1-1.53-.07-2.29-.12-1.56.12-2.31,0-1.53-.24-2.27-.41-1.4-.69-2.13-.91-1.51-.33-2.22-.6-1.48-.45-2.17-.78-1.3-.84-2-1.22-1.32-.78-1.95-1.21S65,96.48,64.41,96s-1-1.15-1.58-1.68-1.22-.93-1.74-1.49-1-1.17-1.47-1.77S58.54,90,58.1,89.33s-.69-1.38-1.07-2-.64-1.39-1-2.08-.6-1.39-.88-2.11-.63-1.39-.85-2.12-.59-1.43-.76-2.18-.38-1.49-.5-2.25,0-1.54,0-2.31,0-1.52,0-2.29-.23-1.54-.17-2.3.42-1.5.54-2.25.22-1.51.39-2.25,0-1.59.25-2.32.81-1.34,1.09-2,.46-1.47.79-2.15.78-1.32,1.16-2,.83-1.28,1.27-1.91.6-1.46,1.08-2.06,1-1.13,1.56-1.69,1.24-.93,1.8-1.45,1-1.25,1.55-1.73,1.38-.71,2-1.14,1.2-1,1.87-1.34,1.43-.55,2.12-.89,1.38-.62,2.1-.9,1.31-.88,2-1.1S76,42,76.71,41.82s1.51-.31,2.27-.43,1.55,0,2.32,0,1.52,0,2.29,0,1.55-.2,2.3-.15,1.53.2,2.29.31,1.55.13,2.29.3,1.48.44,2.21.67,1.41.64,2.12.92,1.38.65,2.07,1,1.45.53,2.11.92,1.38.69,2,1.12,1.29.87,1.89,1.35,1,1.23,1.52,1.75,1.22.95,1.74,1.51,1.14,1,1.61,1.65.7,1.39,1.14,2,.87,1.25,1.25,1.91.88,1.27,1.22,2,.36,1.51.64,2.22.67,1.38.89,2.11.44,1.46.61,2.22.49,1.46.6,2.22.06,1.54.12,2.31S114.14,71.18,114.14,72Z" fill="#007130"/><path d="M114.14,72c0,.77,0,1.53-.08,2.29s0,1.54-.11,2.29-.3,1.5-.47,2.25-.37,1.48-.59,2.21-.39,1.49-.67,2.2-.55,1.44-.89,2.12-.91,1.25-1.3,1.91-.5,1.49-.94,2.12-1,1.14-1.53,1.73-1.09,1.07-1.61,1.63-1,1.11-1.6,1.63-1.07,1.09-1.67,1.57-1.24.87-1.88,1.3-1.23.9-1.9,1.28-1.35.7-2,1-1.28.88-2,1.16-1.49.39-2.22.61-1.48.4-2.23.57-1.49.27-2.26.38-1.49.38-2.26.44-1.53-.1-2.3-.1-1.53-.07-2.29-.12-1.56.12-2.31,0-1.53-.24-2.27-.41-1.4-.69-2.13-.91-1.51-.33-2.22-.6-1.48-.45-2.17-.78-1.3-.84-2-1.22-1.32-.78-1.95-1.21S65,96.48,64.41,96s-1-1.15-1.58-1.68-1.22-.93-1.74-1.49-1-1.17-1.47-1.77S58.54,90,58.1,89.33s-.69-1.38-1.07-2-.64-1.39-1-2.08-.6-1.39-.88-2.11-.63-1.39-.85-2.12-.59-1.43-.76-2.18-.38-1.49-.5-2.25,0-1.54,0-2.31,0-1.52,0-2.29-.23-1.54-.17-2.3.42-1.5.54-2.25.22-1.51.39-2.25,0-1.59.25-2.32.81-1.34,1.09-2,.46-1.47.79-2.15.78-1.32,1.16-2,.83-1.28,1.27-1.91.6-1.46,1.08-2.06,1-1.13,1.56-1.69,1.24-.93,1.8-1.45,1-1.25,1.55-1.73,1.38-.71,2-1.14,1.2-1,1.87-1.34,1.43-.55,2.12-.89,1.38-.62,2.1-.9,1.31-.88,2-1.1S76,42,76.71,41.82s1.51-.31,2.27-.43,1.55,0,2.32,0,1.52,0,2.29,0,1.55-.2,2.3-.15,1.53.2,2.29.31,1.55.13,2.29.3,1.48.44,2.21.67,1.41.64,2.12.92,1.38.65,2.07,1,1.45.53,2.11.92,1.38.69,2,1.12,1.29.87,1.89,1.35,1,1.23,1.52,1.75,1.22.95,1.74,1.51,1.14,1,1.61,1.65.7,1.39,1.14,2,.87,1.25,1.25,1.91.88,1.27,1.22,2,.36,1.51.64,2.22.67,1.38.89,2.11.44,1.46.61,2.22.49,1.46.6,2.22.06,1.54.12,2.31S114.14,71.18,114.14,72Z" fill="none" stroke="#fff" stroke-miterlimit="10" stroke-width="2.13"/><path d="M98.79,70.67a13.57,13.57,0,0,1-2.27,3.85,10.16,10.16,0,0,1-1.93,1.33,12.08,12.08,0,0,1-2,1.21,12.48,12.48,0,0,1-2.6.52,15.88,15.88,0,0,1-2.61.1c-1.2,0-1.2.28-2.39.28s-1.2-.23-2.4-.23-1.48-.66-2.33.17.09,1.11.09,2.28S80,81.35,80,82.52s0,1.17,0,2.34.06,1.17.06,2.34,0,1.17,0,2.34,1,1.6.17,2.42-1.28-.18-2.49-.18-1.22.16-2.43.16-1.5.73-2.41-.09,0-1.06,0-2.16-.16-1.09-.16-2.19.34-1.09.34-2.19-.21-1.1-.21-2.19-.09-1.1-.09-2.19.12-1.1.12-2.2.18-1.09.18-2.19-.18-1.1-.18-2.19-.13-1.1-.13-2.2S73,71.06,73,70s0-1.1,0-2.19-.19-1.1-.19-2.19-.07-1.1-.07-2.2.17-1.1.17-2.2.13-1.09.13-2.19,0-1.1,0-2.2-1-1.54-.17-2.29,1.28.27,2.48.27,1.21-.08,2.41-.08,1.21-.27,2.41-.27,1.21,0,2.41,0,1.21.09,2.41.09l2.42,0a14.64,14.64,0,0,1,2.63.27,10.22,10.22,0,0,1,4.65,1.74,11,11,0,0,1,1.86,1.44,11.84,11.84,0,0,1,1.14,2,11.17,11.17,0,0,1,1.26,1.85A12.09,12.09,0,0,1,99.27,64a12.22,12.22,0,0,1,.39,2.24,12.49,12.49,0,0,1-.11,2.3A12.05,12.05,0,0,1,98.79,70.67ZM91,62.45a4.8,4.8,0,0,0-1.87-1.06A6.91,6.91,0,0,0,87,61.24c-1.13,0-1.13-.17-2.27-.17s-1.13.15-2.27.15S81,60.28,80.16,61,80,62.1,80,63.12s.28,1,.28,2-.23,1-.23,2,.2,1,.2,2-.74,1.25,0,1.93,1,.28,2.17.28h2.27c1.13,0,1.13,0,2.27,0a7.13,7.13,0,0,0,2.15-.33,7.71,7.71,0,0,0,3-2.83,6,6,0,0,0,.18-2,5.94,5.94,0,0,0-.24-2A4.81,4.81,0,0,0,91,62.45Z" fill="#fff"/></g></g></svg>