<svg xmlns="http://www.w3.org/2000/svg" width="128.72" height="128.38" viewBox="0 0 128.72 128.38"><title>sec2_icn04</title><g id="レイヤー_2" data-name="レイヤー 2"><g id="レイヤー_2-2" data-name="レイヤー 2"><path d="M128.72,64.14c0,.67-.39,1.35-.41,2s-.47,1.31-.52,2-.14,1.33-.2,2-.21,1.32-.29,2,.8,1.47.69,2.13-.89,1.22-1,1.87-.42,1.28-.56,1.93-.43,1.27-.6,1.92.44,1.51.26,2.15-.57,1.24-.77,1.88-.58,1.22-.8,1.85-.76,1.14-1,1.77,0,1.45-.25,2.07-1,1-1.24,1.65-.68,1.15-1,1.74-.53,1.24-.85,1.82-.63,1.18-1,1.76-.39,1.33-.75,1.9-1.22.79-1.6,1.35-.41,1.35-.8,1.89-.64,1.2-1,1.73-.79,1.09-1.22,1.61-1.08.85-1.52,1.35-1,.93-1.43,1.41-1.16.74-1.64,1.21-.75,1.14-1.23,1.6-1.22.64-1.72,1.09-.42,1.57-.94,2-1.49.27-2,.68-.78,1.2-1.32,1.59-1.4.34-2,.72-.87,1.11-1.43,1.47-1.1.78-1.68,1.13-1,.92-1.61,1.24-1.16.71-1.76,1-1.65-.33-2.26,0-.92,1.21-1.53,1.47-1.35.25-2,.5-1,1-1.67,1.27-1.47-.14-2.11.07-1.1,1-1.75,1.16-1.33.27-2,.44-1.42-.18-2.08,0-1.32.18-2,.31-1.3.31-2,.42-1.27.56-1.94.64-1.32.3-2,.36-1.35.06-2,.1-1.35,0-2,0-1.35-.25-2-.25-1.33-.48-2-.5-1.38.84-2,.8-1.31-.55-2-.61-1.33-.1-2-.18-1.38.15-2,0-1.21-.88-1.86-1-1.41.2-2.06,0-1.24-.59-1.89-.76-1.35-.1-2-.29-1.41,0-2.05-.19-1.31-.34-1.94-.57-.9-1.44-1.52-1.68-1.47.07-2.09-.2-1.25-.5-1.85-.78-1.21-.6-1.81-.9-1.32-.39-1.9-.72-.79-1.33-1.36-1.67-1.56,0-2.12-.39-.91-1.07-1.47-1.45-.93-1-1.47-1.38-1-.85-1.56-1.26-1.32-.49-1.84-.92-1.23-.63-1.73-1.07-.73-1.2-1.22-1.66-1-.92-1.45-1.4-1.29-.62-1.75-1.11-.84-1.07-1.28-1.57-.94-1-1.37-1.49-.3-1.48-.71-2-1.31-.69-1.7-1.24-.93-1-1.31-1.55-.75-1.13-1.11-1.7-.35-1.36-.7-1.94-.65-1.17-1-1.76-.22-1.39-.52-2-.69-1.14-1-1.75S6.17,90,5.91,89.39s-1-1-1.22-1.67,0-1.44-.19-2.07-1.4-.93-1.61-1.57-.26-1.34-.45-2,.28-1.47.12-2.12-.14-1.33-.29-2-.63-1.23-.75-1.89-.38-1.29-.49-2S.44,72.88.36,72.22s.27-1.39.21-2.06-.5-1.3-.55-2,.42-1.36.4-2,.25-1.34.25-2S0,62.79,0,62.12s.63-1.31.67-2-.4-1.38-.34-2,0-1.37,0-2,1-1.22,1.06-1.88.22-1.31.35-2,.11-1.34.26-2,.26-1.31.43-1.95-.13-1.43,0-2.08.88-1.13,1.09-1.77,0-1.4.27-2,.68-1.18.93-1.8.44-1.27.71-1.88.17-1.41.45-2,1.37-.83,1.67-1.42.15-1.43.48-2,.45-1.29.79-1.86,1-1,1.32-1.56,1.09-.88,1.46-1.43.39-1.36.79-1.9.54-1.28.95-1.81,1.3-.68,1.72-1.19S16,22.48,16.43,22s.56-1.31,1-1.8.79-1.11,1.26-1.58S20,18,20.47,17.51s1.2-.66,1.7-1.11.92-1,1.43-1.4.72-1.25,1.25-1.66,1.51-.22,2-.61,1-1,1.52-1.32.74-1.31,1.31-1.67S30.85,9,31.42,8.63s1.28-.5,1.87-.82,1.16-.69,1.76-1,1.26-.49,1.87-.77,1.15-.72,1.77-1,1.27-.46,1.89-.7,1.23-.57,1.86-.8,1.54.37,2.18.16,1.08-1,1.72-1.23,1.47.33,2.12.16,1.18-.77,1.84-.92,1.26-.52,1.92-.64,1.42.36,2.08.26,1.31-.22,2-.3S57.56.54,58.23.48s1.34,0,2,0,1.33-.07,2-.09,1.34-.28,2-.28S65.6,0,66.27,0s1.31.69,2,.74S69.65,0,70.31.05s1.29.64,2,.73,1.27.56,1.93.67,1.32.15,2,.28,1.35,0,2,.18,1.26.46,1.91.62,1.33.17,2,.36,1.25.49,1.88.69,1.49-.19,2.12,0,1.12.85,1.74,1.09,1.22.56,1.83.82,1.17.65,1.78.94,1.41.17,2,.47,1,1,1.55,1.35,1.12.73,1.7,1.07,1.49.13,2,.49,1.16.7,1.72,1.08.62,1.44,1.16,1.84,1.31.47,1.84.88,1.3.52,1.82.95.77,1.17,1.27,1.61,1,.87,1.51,1.33,1.07.82,1.54,1.3.52,1.36,1,1.84,1.22.69,1.67,1.19.78,1.09,1.21,1.6,1.23.74,1.64,1.27.46,1.33.86,1.87.53,1.25.91,1.81.65,1.15,1,1.72.93,1,1.27,1.57,1,.94,1.36,1.53.81,1.1,1.11,1.7,0,1.47.34,2.07.43,1.27.7,1.88,1.12,1,1.37,1.61-.19,1.5,0,2.13.52,1.22.73,1.86,1.25,1,1.44,1.66-.49,1.53-.32,2.18.66,1.21.81,1.86,0,1.36.16,2,.1,1.33.2,2,1.08,1.2,1.16,1.87-.05,1.36,0,2-.51,1.38-.46,2,.83,1.31.85,2S128.72,63.47,128.72,64.14Z" fill="#007130"/><path d="M97.3,98.53c-1.13,0-1.13-.28-2.27-.28s-1.14.27-2.28.27-1.14-.09-2.28-.09-1.14.2-2.28.2-1.14-.1-2.28-.1-1.13-.17-2.27-.17-1.14.19-2.28.19-1.14-.21-2.28-.21-1.13.2-2.27.2-1.14-.23-2.28-.23-1.14.2-2.28.2-1.13-.08-2.27-.08-1.14-.09-2.28-.09-1.14,0-2.28,0-1.14.25-2.28.25-1.14-.26-2.28-.26-1.14.21-2.28.21-1.14-.14-2.28-.14-1.14-.15-2.28-.15-1.14.12-2.28.12-1.14.09-2.28.09-1.14,0-2.28,0-1.14.06-2.28.06-1.14-.22-2.28-.22-1.14.19-2.28.19-1.14.11-2.28.11-1.15-.05-2.29-.05-1.14-.14-2.28-.14-1.15-.08-2.29-.08a5.46,5.46,0,0,1-2.08-.27,5.53,5.53,0,0,1-1.61-1.33,5.62,5.62,0,0,1-1.38-1.58,5.65,5.65,0,0,1-.4-2.1c0-1.1-.09-1.1-.09-2.21s.21-1.1.21-2.21.07-1.1.07-2.21,0-1.1,0-2.21-.25-1.1-.25-2.21S26,81,26,79.84s-.12-1.11-.12-2.21-.28-1.11-.28-2.21.27-1.11.27-2.21-.23-1.11-.23-2.21.06-1.11.06-2.21.13-1.11.13-2.21,0-1.11,0-2.22-.13-1.11-.13-2.21S26,61,26,59.93s-.26-1.11-.26-2.22a5.42,5.42,0,0,1,.59-2,5.37,5.37,0,0,1,1-1.82,5.76,5.76,0,0,1,1.85-1,5.4,5.4,0,0,1,2-.68c1.14,0,1.14.26,2.28.26s1.13-.23,2.27-.23,1.14.08,2.28.08,1.14.14,2.28.14,1.14-.15,2.28-.15,1.14.12,2.28.12,1.14-.12,2.27-.12,1.14.1,2.28.1,1.14-.07,2.27-.07,1.14-.09,2.28-.09,1.14,0,2.28,0,1.14,0,2.28,0,1.13.29,2.27.29,1.14-.14,2.28-.14,1.14-.15,2.28-.15h2.28c1.14,0,1.14.06,2.28.06s1.14,0,2.28,0,1.14.07,2.28.07,1.14.16,2.28.16,1.14.09,2.28.09,1.14-.34,2.28-.34,1.14.25,2.28.25,1.14-.2,2.28-.2,1.14.25,2.28.25,1.14-.33,2.29-.33,1.14.13,2.28.13,1.14-.13,2.29-.13H97.3a6.14,6.14,0,0,1,5,3.46,5.52,5.52,0,0,1,.44,2.07c0,1.11-.21,1.11-.21,2.21s.22,1.11.22,2.21-.17,1.11-.17,2.21-.06,1.1-.06,2.21.24,1.1.24,2.21,0,1.11,0,2.21-.22,1.11-.22,2.21,0,1.11,0,2.21.17,1.11.17,2.21-.26,1.11-.26,2.21V82c0,1.11.13,1.11.13,2.22s.16,1.1.16,2.21-.05,1.11-.05,2.21-.08,1.11-.08,2.22.11,1.11.11,2.22a5.8,5.8,0,0,1-.33,2.13,4.22,4.22,0,0,1-3.15,2.66A5.12,5.12,0,0,1,97.3,98.53Z" fill="#007130"/><path d="M97.3,98.53c-1.13,0-1.13-.28-2.27-.28s-1.14.27-2.28.27-1.14-.09-2.28-.09-1.14.2-2.28.2-1.14-.1-2.28-.1-1.13-.17-2.27-.17-1.14.19-2.28.19-1.14-.21-2.28-.21-1.13.2-2.27.2-1.14-.23-2.28-.23-1.14.2-2.28.2-1.13-.08-2.27-.08-1.14-.09-2.28-.09-1.14,0-2.28,0-1.14.25-2.28.25-1.14-.26-2.28-.26-1.14.21-2.28.21-1.14-.14-2.28-.14-1.14-.15-2.28-.15-1.14.12-2.28.12-1.14.09-2.28.09-1.14,0-2.28,0-1.14.06-2.28.06-1.14-.22-2.28-.22-1.14.19-2.28.19-1.14.11-2.28.11-1.15-.05-2.29-.05-1.14-.14-2.28-.14-1.15-.08-2.29-.08a5.46,5.46,0,0,1-2.08-.27,5.53,5.53,0,0,1-1.61-1.33,5.62,5.62,0,0,1-1.38-1.58,5.65,5.65,0,0,1-.4-2.1c0-1.1-.09-1.1-.09-2.21s.21-1.1.21-2.21.07-1.1.07-2.21,0-1.1,0-2.21-.25-1.1-.25-2.21S26,81,26,79.84s-.12-1.11-.12-2.21-.28-1.11-.28-2.21.27-1.11.27-2.21-.23-1.11-.23-2.21.06-1.11.06-2.21.13-1.11.13-2.21,0-1.11,0-2.22-.13-1.11-.13-2.21S26,61,26,59.93s-.26-1.11-.26-2.22a5.42,5.42,0,0,1,.59-2,5.37,5.37,0,0,1,1-1.82,5.76,5.76,0,0,1,1.85-1,5.4,5.4,0,0,1,2-.68c1.14,0,1.14.26,2.28.26s1.13-.23,2.27-.23,1.14.08,2.28.08,1.14.14,2.28.14,1.14-.15,2.28-.15,1.14.12,2.28.12,1.14-.12,2.27-.12,1.14.1,2.28.1,1.14-.07,2.27-.07,1.14-.09,2.28-.09,1.14,0,2.28,0,1.14,0,2.28,0,1.13.29,2.27.29,1.14-.14,2.28-.14,1.14-.15,2.28-.15h2.28c1.14,0,1.14.06,2.28.06s1.14,0,2.28,0,1.14.07,2.28.07,1.14.16,2.28.16,1.14.09,2.28.09,1.14-.34,2.28-.34,1.14.25,2.28.25,1.14-.2,2.28-.2,1.14.25,2.28.25,1.14-.33,2.29-.33,1.14.13,2.28.13,1.14-.13,2.29-.13H97.3a6.14,6.14,0,0,1,5,3.46,5.52,5.52,0,0,1,.44,2.07c0,1.11-.21,1.11-.21,2.21s.22,1.11.22,2.21-.17,1.11-.17,2.21-.06,1.1-.06,2.21.24,1.1.24,2.21,0,1.11,0,2.21-.22,1.11-.22,2.21,0,1.11,0,2.21.17,1.11.17,2.21-.26,1.11-.26,2.21V82c0,1.11.13,1.11.13,2.22s.16,1.1.16,2.21-.05,1.11-.05,2.21-.08,1.11-.08,2.22.11,1.11.11,2.22a5.8,5.8,0,0,1-.33,2.13,4.22,4.22,0,0,1-3.15,2.66A5.12,5.12,0,0,1,97.3,98.53Z" fill="none" stroke="#fff" stroke-miterlimit="10" stroke-width="2.13"/><path d="M42.23,52.37c0-1.1-.08-1.1-.08-2.19V48c0-1.1-.11-1.1-.11-2.2s.07-1.09.07-2.19.21-1.1.21-2.2,0-1.09,0-2.19-.05-1.1-.05-2.2" fill="none" stroke="#fff" stroke-miterlimit="10" stroke-width="4.27"/><path d="M64.29,52.37c0-1.1,0-1.1,0-2.19s-.22-1.1-.22-2.19.13-1.1.13-2.2.11-1.09.11-2.19-.31-1.1-.31-2.2.12-1.09.12-2.19,0-1.1,0-2.2" fill="none" stroke="#fff" stroke-miterlimit="10" stroke-width="4.27"/><path d="M86.27,52.37c0-1.1.19-1.1.19-2.19s-.39-1.1-.39-2.19.24-1.1.24-2.2.07-1.09.07-2.19.06-1.1.06-2.2-.14-1.09-.14-2.19-.06-1.1-.06-2.2" fill="none" stroke="#fff" stroke-miterlimit="10" stroke-width="4.27"/><path d="M46.48,29.86a5.5,5.5,0,0,1-.28,2.3,3.6,3.6,0,0,1-1.61,1.74,5.78,5.78,0,0,1-2.35.5A5.33,5.33,0,0,1,40,33.64a3.31,3.31,0,0,1-1.73-1.49,5.21,5.21,0,0,1-.6-2.29,5.63,5.63,0,0,1,.78-2,11.46,11.46,0,0,1,1-1.88c.43-.62.78-1.3,1.2-1.79.82-.94.48-1.28,1.56-1.28s.62.44,1.43,1.38A19,19,0,0,1,45,25.94a11.63,11.63,0,0,1,1.23,1.79A5.26,5.26,0,0,1,46.48,29.86Z" fill="#fff"/><path d="M68.5,29.86a5.42,5.42,0,0,1-.32,2.29,3.23,3.23,0,0,1-1.73,1.42,5,5,0,0,1-2.2.42,5.87,5.87,0,0,1-2.35-.1,3.7,3.7,0,0,1-1.73-1.68,5.55,5.55,0,0,1-.47-2.35,5.58,5.58,0,0,1,.73-2.05A11.6,11.6,0,0,1,61.54,26c.43-.62.72-1.35,1.14-1.84.82-.93.5-1.53,1.57-1.53s.81.55,1.63,1.49c.42.49.84,1.12,1.28,1.75a11.91,11.91,0,0,1,.91,1.95A5,5,0,0,1,68.5,29.86Z" fill="#fff"/><path d="M90.53,29.86a4.78,4.78,0,0,1-.5,2.21,3.4,3.4,0,0,1-1.44,1.76,5.67,5.67,0,0,1-2.32.17,5,5,0,0,1-2.21-.4,3.47,3.47,0,0,1-1.89-1.38,6.09,6.09,0,0,1-.12-2.36,5,5,0,0,1,.36-2.07A11.92,11.92,0,0,1,83.55,26c.44-.62.94-1.16,1.36-1.65.82-.94.28-1.85,1.36-1.84s.74.73,1.56,1.66c.42.49.69,1.22,1.12,1.85a11.83,11.83,0,0,1,1.33,1.72A5.14,5.14,0,0,1,90.53,29.86Z" fill="#fff"/><path d="M25.85,65.55a5.25,5.25,0,0,1,2.18.5,6.52,6.52,0,0,1,1.81,1.29,14.25,14.25,0,0,1,1.09,1.93c.4.6,1,1.09,1.38,1.72s.52,1.42.92,2a12.34,12.34,0,0,0,1.52,1.62,6.06,6.06,0,0,0,1.8,1.21,4.93,4.93,0,0,0,2.09.69,5.27,5.27,0,0,0,2.2-.48,6.23,6.23,0,0,0,1.7-1.43,11.64,11.64,0,0,0,1.4-1.69c.4-.6.78-1.24,1.16-1.87s.67-1.32,1.07-1.92a13.33,13.33,0,0,1,1.34-1.74,5.92,5.92,0,0,1,1.89-1.08,4.79,4.79,0,0,1,2-.77,5,5,0,0,1,2.11.65,6.08,6.08,0,0,1,1.62,1.39,12,12,0,0,1,1.35,1.68c.41.6.86,1.18,1.24,1.81s.71,1.3,1.11,1.9a12.54,12.54,0,0,0,1.42,1.7A6.18,6.18,0,0,0,62.06,76a5.11,5.11,0,0,0,2.18.21,5,5,0,0,0,2.14-.3,6.06,6.06,0,0,0,1.79-1.28,13.06,13.06,0,0,0,1.4-1.7c.4-.6.62-1.33,1-2s.92-1.17,1.32-1.77a12.68,12.68,0,0,1,1.37-1.68,6.3,6.3,0,0,1,1.6-1.5A5.25,5.25,0,0,1,77,65.55a4.8,4.8,0,0,1,2,.78,5.76,5.76,0,0,1,1.82,1.14,12.84,12.84,0,0,1,1.49,1.62c.4.6.64,1.32,1,2s.77,1.26,1.18,1.85A12.33,12.33,0,0,0,86,74.59a6.58,6.58,0,0,0,1.64,1.49,5.42,5.42,0,0,0,2.22.3A5.06,5.06,0,0,0,92,76a6.07,6.07,0,0,0,1.64-1.45,10.85,10.85,0,0,0,1.49-1.6c.4-.6.88-1.17,1.26-1.81s.79-1.23,1.19-1.83a12.56,12.56,0,0,1,1.26-1.76,5.87,5.87,0,0,1,1.66-1.42,5,5,0,0,1,2.15-.54" fill="none" stroke="#fff" stroke-miterlimit="10" stroke-width="2.13"/><path d="M25.85,76.43a4.68,4.68,0,0,1,2,.66,6.14,6.14,0,0,1,2,1,13.46,13.46,0,0,1,1.32,1.78c.41.6.56,1.37.94,2s.7,1.31,1.1,1.91a12.31,12.31,0,0,0,1.48,1.64,6,6,0,0,0,1.8,1.26,4.94,4.94,0,0,0,2.12.3,5,5,0,0,0,2.14-.29,6,6,0,0,0,1.65-1.41,11.39,11.39,0,0,0,1.5-1.59c.4-.59.88-1.17,1.26-1.8s.52-1.42.92-2a12,12,0,0,1,1.54-1.57,6,6,0,0,1,1.63-1.45,5.17,5.17,0,0,1,2.16-.53,4.78,4.78,0,0,1,2.06.76,5.46,5.46,0,0,1,1.7,1.26A10.82,10.82,0,0,1,56.59,80c.4.6.79,1.22,1.17,1.85s.93,1.16,1.33,1.76a12.78,12.78,0,0,0,1.2,1.85,6.17,6.17,0,0,0,1.85,1.17,4.87,4.87,0,0,0,2.1.54,5,5,0,0,0,2.13-.48A6.14,6.14,0,0,0,68,85.25a11.39,11.39,0,0,0,1.62-1.5c.4-.6.61-1.34,1-2s.68-1.32,1.08-1.91a11.7,11.7,0,0,1,1.46-1.65A5.56,5.56,0,0,1,75,77.08,4.61,4.61,0,0,1,77,76.45a5.08,5.08,0,0,1,2.18.35,6,6,0,0,1,1.62,1.48A12.72,12.72,0,0,1,82.2,80c.4.6.94,1.13,1.32,1.77s.82,1.22,1.22,1.81A12.24,12.24,0,0,0,86,85.37a6.23,6.23,0,0,0,1.71,1.42,5.22,5.22,0,0,0,2.19.42,4.9,4.9,0,0,0,2.08-.66,6.17,6.17,0,0,0,1.93-1.06,13.52,13.52,0,0,0,1.31-1.79c.4-.6.55-1.37.93-2s.75-1.28,1.15-1.88a12.55,12.55,0,0,1,1.44-1.69,6.19,6.19,0,0,1,1.78-1.33,5.24,5.24,0,0,1,2.18-.42" fill="none" stroke="#fff" stroke-miterlimit="10" stroke-width="2.13"/></g></g></svg>