<svg xmlns="http://www.w3.org/2000/svg" width="425.41" height="132.39" viewBox="0 0 425.41 132.39"><title>ttl04</title><g id="レイヤー_2" data-name="レイヤー 2"><g id="レイヤー_2-2" data-name="レイヤー 2"><path d="M81.25,5.42a1.27,1.27,0,0,1-.81,1.35,12.51,12.51,0,0,1-1.37,0,8.53,8.53,0,0,1-1.1,0c-.56,0-.82,0-1.35,0a12.1,12.1,0,0,1-1.37,0,7.33,7.33,0,0,0-1.39,0,1,1,0,0,0-.81,1c0,.62,0,.84,0,1a6.78,6.78,0,0,0,.12,1.72,6.18,6.18,0,0,1,.36.94,7.86,7.86,0,0,1,.26.94,5.17,5.17,0,0,1,.15.88c0,.27.05.65.05.84a6.44,6.44,0,0,1-.15,1.61,2.53,2.53,0,0,1-.17.79,2.56,2.56,0,0,0-.24.75,2.24,2.24,0,0,1-.31.77,3.14,3.14,0,0,1-.38.69c-.15.29-.36.46-.46.65s-.36.43-.55.63a8.17,8.17,0,0,1-.72.67c-.34.29-.77.43-1,.77a8.55,8.55,0,0,1-1.11.62,2.41,2.41,0,0,1-1,.26.92.92,0,0,1-1-.4,1.76,1.76,0,0,1-.44-1,1.67,1.67,0,0,1,.46-1,4.64,4.64,0,0,1,.91-.53,6.05,6.05,0,0,0,1-.57,3.16,3.16,0,0,0,.91-.67l.48-.53a.5.5,0,0,0,.19-.63c-.07-.14-.28-.14-.52-.09a6,6,0,0,1-.7,0,4.49,4.49,0,0,1-1.49-.26c-.31-.1-.6-.15-.72-.36a2.11,2.11,0,0,1-.62-.51c-.29-.09-.41-.55-.55-.72a2,2,0,0,1-.39-.79c-.09-.17,0-.45-.19-.86s0-.48-.07-.89A3.18,3.18,0,0,1,65.41,11a3.78,3.78,0,0,0,.36-.74,2.59,2.59,0,0,1,.51-.65,1.73,1.73,0,0,1,.57-.46c.29-.09.41-.26.65-.33a2.55,2.55,0,0,1,.74-.2,7.83,7.83,0,0,1,1,0c.62,0,1.05,0,1.05-.53s0-.55-.17-.82-.45-.24-1-.19c-.31,0-.65,0-.91,0a4.81,4.81,0,0,0-.91.05,12,12,0,0,0-1.83.1,9.9,9.9,0,0,0-1.75.09,5.31,5.31,0,0,1-1.34.12,9,9,0,0,1-1.42,0,1,1,0,0,1-1-.41,1.66,1.66,0,0,1-.38-1A1.24,1.24,0,0,1,60.06,5a3.37,3.37,0,0,1,1.22-.34,15.47,15.47,0,0,1,1.61,0,6.63,6.63,0,0,0,1.35-.09c.4-.08.91,0,1.32,0s1,0,1.6-.07c.39-.08.72,0,1-.08s.75,0,1.2,0a1.37,1.37,0,0,0,.82-1.11c0-.84,0-1.17,0-1.8a1,1,0,0,1,.46-.91,1.38,1.38,0,0,1,1-.34,1.26,1.26,0,0,1,1.12.51A1.69,1.69,0,0,1,73,1.73c0,.53,0,.81,0,1.15a1.42,1.42,0,0,0,.17.79.91.91,0,0,0,.79.48,8.75,8.75,0,0,0,1.35,0c.48,0,.65,0,1.27,0a8.43,8.43,0,0,1,1.73,0,7.43,7.43,0,0,1,1.7,0c.43,0,.67.26.91.4A1.29,1.29,0,0,1,81.25,5.42ZM70.33,11.64a1.59,1.59,0,0,0-1.2-.55,1.36,1.36,0,0,0-1,.5,1.23,1.23,0,0,0-.33,1.13A2.57,2.57,0,0,0,68.27,14a1.47,1.47,0,0,0,1.13.57,1,1,0,0,0,1.08-.5A3.71,3.71,0,0,0,70.77,13,1.9,1.9,0,0,0,70.33,11.64Z" fill="#007130"/><path d="M100.66,19.66a1.48,1.48,0,0,1-.48,1.1,1.35,1.35,0,0,1-1.13.39,11,11,0,0,1-1.66-.22,2.54,2.54,0,0,1-.79-.24c-.22-.1-.51-.14-.79-.29a1.42,1.42,0,0,1-.75-.38c-.21-.12-.55-.22-.69-.44-.29-.21-.44-.21-.65-.5a3.34,3.34,0,0,1-.6-.58,3.91,3.91,0,0,1-.82-1.08,3.81,3.81,0,0,1-.6-1.19A2.77,2.77,0,0,1,91.34,15c0-.38-.07-1-.12-1.34a3.08,3.08,0,0,1,.1-1.27c.09-.46.24-.84.29-1.23a6.6,6.6,0,0,0,.45-1.2,5.16,5.16,0,0,1,.63-1.1c.21-.36.36-.43.52-.77s.32-.34.63-.7A4.31,4.31,0,0,0,94.22,7c.19-.14.31-.29.19-.53s-.33-.12-.76,0c-.24,0-.51.08-.68.1a4.57,4.57,0,0,1-1.12.14,6.33,6.33,0,0,0-1.13.17c-.43.1-.7.1-1.13.17s-.84.17-1.15.17a7.66,7.66,0,0,0-1.13.17,11,11,0,0,1-1.13.16c-.41,0-.91.08-1.49.15a1.53,1.53,0,0,1-.91-.43,1.75,1.75,0,0,1-.36-1,1.54,1.54,0,0,1,.46-1c.19,0,.24-.17.57-.29a3.35,3.35,0,0,0,1.06-.17c.62,0,1.13-.16,1.58-.19a8.52,8.52,0,0,0,1.56-.19,3.55,3.55,0,0,0,1.06-.12,9.94,9.94,0,0,1,1-.12A2.61,2.61,0,0,1,91.8,4c.26.07.67-.17,1-.12a3.93,3.93,0,0,0,1-.1,2.68,2.68,0,0,0,1-.12A1.84,1.84,0,0,0,96,3.5c.29,0,.65,0,1.06-.09a2.85,2.85,0,0,1,.93-.1,8.31,8.31,0,0,0,1-.12,6.12,6.12,0,0,0,1-.09,8,8,0,0,0,1-.08,1.47,1.47,0,0,1,1,.36,1.49,1.49,0,0,1,.45,1,2.87,2.87,0,0,1-.31.89c-.14.28-.53.38-.82.45-.72.22-1.12.31-1.51.43a4.9,4.9,0,0,1-1.15.56c-.41.28-.77.33-1,.62a5.5,5.5,0,0,0-1,.82c-.31.38-.62.62-.86.91a6.23,6.23,0,0,1-.7,1c-.24.33-.26.67-.4.81-.1.41-.32.65-.27.87a3.7,3.7,0,0,0-.14.91,7.34,7.34,0,0,0-.1.86,4.38,4.38,0,0,0,.15,1.08,3.59,3.59,0,0,0,.33.91,2.5,2.5,0,0,0,.55.84c.29.22.48.44.77.68a3.78,3.78,0,0,0,1.08.6,3.78,3.78,0,0,0,1.18.36,6.7,6.7,0,0,1,1.15.19,3,3,0,0,1,1,.5A1.35,1.35,0,0,1,100.66,19.66Zm1.94-7.61a1.12,1.12,0,0,1-.31.7.93.93,0,0,1-.7.31,1.2,1.2,0,0,1-.93-.58c-.22-.24-.58-.72-.82-1s-.5-.56-.86-1a.79.79,0,0,1-.29-.63A1.41,1.41,0,0,1,99,9.24a1.16,1.16,0,0,1,1.71.19,8.38,8.38,0,0,0,.74.79c.22.32.46.44.72.82A2.28,2.28,0,0,1,102.6,12.05Zm2.14-1.25a2.25,2.25,0,0,1-.72.29,1.53,1.53,0,0,1-.89-.43,7,7,0,0,0-.51-.6c-.16-.08-.21-.24-.45-.53a3.47,3.47,0,0,0-.84-.91.66.66,0,0,1-.27-.63c0-.29.12-.41.34-.67a1.53,1.53,0,0,1,.72-.26,1.25,1.25,0,0,1,1,.45c.29.27.57.63.74.77a2.54,2.54,0,0,0,.75.82,1.3,1.3,0,0,1,.43,1A.94.94,0,0,1,104.74,10.8Z" fill="#007130"/><path d="M111.85,3.41a2.06,2.06,0,0,1-.08.91c-.07.26-.12.67-.19.86a3.08,3.08,0,0,0-.19,1c0,.34-.24.77-.17,1-.14.41,0,.72-.12,1a5.14,5.14,0,0,0-.12,1,3.72,3.72,0,0,0-.09,1.27c0,.41-.1.79-.1,1.3s-.05.86-.05,1.24a4.54,4.54,0,0,1,0,1.28c0,.72,0,1.1.05,1.77,0,.24,0,.51.07.89a4.27,4.27,0,0,0,.07.89,3.15,3.15,0,0,0,.1.86c.07.24,0,.53.1.89a1.36,1.36,0,0,1,0,.72,1,1,0,0,1-.48.84,1.93,1.93,0,0,1-1,.34,2.54,2.54,0,0,1-.81-.22,1.91,1.91,0,0,1-.55-.65,4.72,4.72,0,0,1-.24-1.27,3.86,3.86,0,0,0-.08-.89,3.24,3.24,0,0,1-.07-1,4.11,4.11,0,0,0,0-1,1.85,1.85,0,0,0-.05-.91,4.32,4.32,0,0,1,0-1.34c-.07-.32,0-.75,0-1.16a3.11,3.11,0,0,0,0-1.17c0-.34.12-.79.07-1.15a3.29,3.29,0,0,1,.07-1.16,6.9,6.9,0,0,1,.12-1.17,8.6,8.6,0,0,0,.15-1.15,7.73,7.73,0,0,1,.14-1.16,8.29,8.29,0,0,0,.17-1.15,4.52,4.52,0,0,0,.17-1.05A2.77,2.77,0,0,1,109.09,3c.09-.22.36-.41.52-.58a.87.87,0,0,1,.8-.21,1.94,1.94,0,0,1,1,.33A1.38,1.38,0,0,1,111.85,3.41ZM126.56,18a3.79,3.79,0,0,1-.19.75,1.2,1.2,0,0,1-.56.48,3.11,3.11,0,0,1-1,.26c-.5.07-.84.07-1.25.17s-.81.07-1.27.07a5.19,5.19,0,0,1-1,.05,14,14,0,0,0-1.42-.05,2.79,2.79,0,0,1-1.46-.19c-.41-.22-.91-.17-1.37-.46-.26-.14-.41-.09-.62-.36a1.85,1.85,0,0,1-.56-.45c-.28-.27-.45-.41-.5-.6-.22-.1-.26-.56-.36-.7a2.68,2.68,0,0,1-.34-1.56,1.17,1.17,0,0,1,.41-1.06,1.3,1.3,0,0,1,1.06-.43,1.08,1.08,0,0,1,.84.29c.31.24.29.43.43.77a5.88,5.88,0,0,0,.31.93,1.74,1.74,0,0,0,.67.65,2.59,2.59,0,0,0,1.42.36,3.46,3.46,0,0,0,1.51,0,7.38,7.38,0,0,0,1.59,0,5.91,5.91,0,0,0,1.58-.21,2.43,2.43,0,0,1,1-.08,1.43,1.43,0,0,1,.72.39A1.77,1.77,0,0,1,126.56,18ZM115.64,6.24a.78.78,0,0,1,.19-.74,1.24,1.24,0,0,1,.58-.51,4.05,4.05,0,0,1,1.65-.17,2.15,2.15,0,0,0,.94,0,2,2,0,0,0,1,0c.19-.07.65,0,1-.1a4.62,4.62,0,0,1,.93-.09c.41,0,.72-.12,1-.15a6.85,6.85,0,0,0,1.08,0,1.69,1.69,0,0,1,.86.44,1.6,1.6,0,0,1,.34.88,1.66,1.66,0,0,1-.32.89,2.21,2.21,0,0,1-.76.46c-.24.14-.63,0-1,.19a7.82,7.82,0,0,0-.87.07,5.61,5.61,0,0,1-1.7.15c-.67.07-1.11.09-1.73.12a6.14,6.14,0,0,1-1.75,0,2.31,2.31,0,0,1-1-.36A1.34,1.34,0,0,1,115.64,6.24Z" fill="#007130"/><path d="M147.37,8.71c0,.7-.09,1.18,0,1.75-.14.6,0,1.23-.07,1.73,0,.68-.12,1.11-.15,1.73a8.8,8.8,0,0,0-.19,1.73,4.2,4.2,0,0,0-.14,1,7.52,7.52,0,0,1-.19,1.08,4.28,4.28,0,0,1-.34,1,3.38,3.38,0,0,1-.5.94,1.61,1.61,0,0,1-.75.69,6.13,6.13,0,0,1-.86.43,1.92,1.92,0,0,1-.94.22c-.26,0-.55.07-1,.07-.15,0-.31,0-.65-.05a5.48,5.48,0,0,1-1.08-.14c-.19-.17-.38-.17-.65-.36a1.38,1.38,0,0,1-.43-1,1.34,1.34,0,0,1,.34-1,1.14,1.14,0,0,1,.88-.46,6.71,6.71,0,0,0,1.66.1,1,1,0,0,0,1.18-.55.91.91,0,0,0,.26-.68c.07-.36.12-.57.22-1a5.24,5.24,0,0,1,.16-1.22c.08-.44,0-.84.12-1.33a6.89,6.89,0,0,1,.1-1.34,7.77,7.77,0,0,0,.05-1.25c-.05-.69.14-1.39,0-1.77,0-.56-.24-.77-.89-.75a3.05,3.05,0,0,0-1.06,0,3.69,3.69,0,0,0-1.05,0c-.39.05-.77-.07-1.32,0a.74.74,0,0,0-.56.27,1.34,1.34,0,0,0-.33.84,5.24,5.24,0,0,1-.19,1.08,4,4,0,0,0-.2.81c0,.48-.38,1.06-.43,1.49a1.53,1.53,0,0,0-.26.72,2.71,2.71,0,0,1-.29.72,3.09,3.09,0,0,1-.48.94,3.06,3.06,0,0,1-.55.93,2,2,0,0,0-.6.89c-.29.43-.44.5-.67.87a8.21,8.21,0,0,0-.73.81c-.23.39-.4.63-.76.75s-.39.36-.82.69a9.86,9.86,0,0,0-.86.63,2.48,2.48,0,0,1-1.4.5A1.38,1.38,0,0,1,129.59,20a1.37,1.37,0,0,1,.26-.82c.07-.19.43-.43.63-.6a4.07,4.07,0,0,0,.67-.48,3.73,3.73,0,0,1,.62-.51,5.37,5.37,0,0,1,.6-.55,2.75,2.75,0,0,0,.58-.55c.17-.12.29-.38.53-.6s.4-.34.5-.65a1.17,1.17,0,0,0,.43-.67,5,5,0,0,1,.41-.72,2.92,2.92,0,0,0,.6-1.32,9.14,9.14,0,0,1,.46-1.34c0-.32.12-.39.17-.75.12-.19,0-.45.19-1a.86.86,0,0,0-.82-1c-.84-.05-1.18.1-1.63,0a7.6,7.6,0,0,0-1.35,0,3.93,3.93,0,0,1-1.41,0,1,1,0,0,1-.91-.38,2.08,2.08,0,0,1-.36-.94c.09-.24.12-.67.36-.91a1.29,1.29,0,0,1,.88-.38,14.19,14.19,0,0,1,1.47,0,4.47,4.47,0,0,0,1.41,0,8.48,8.48,0,0,0,1.76,0,1.27,1.27,0,0,0,1-.72,5.49,5.49,0,0,0,0-1.58c0-.41,0-1.18,0-1.66a1,1,0,0,1,.48-.89,1.71,1.71,0,0,1,1-.29,1.35,1.35,0,0,1,1,.29,1.26,1.26,0,0,1,.46.89c0,.48-.05,1.1,0,1.66a4.94,4.94,0,0,0,0,.86,1.55,1.55,0,0,0,.07,1,.71.71,0,0,0,.7.41c.57.07.91,0,1.39,0a6.31,6.31,0,0,1,1.15,0,2.63,2.63,0,0,0,1.15,0,2.74,2.74,0,0,1,1.37.17,2,2,0,0,1,1.2.69,1.36,1.36,0,0,1,.53,1A5.26,5.26,0,0,1,147.37,8.71Z" fill="#007130"/><path d="M171.08,12.53a1,1,0,0,1-1,.43A6,6,0,0,1,169,13a4,4,0,0,1-1.1,0c-.32-.07-.68.12-1.08,0a3.43,3.43,0,0,1-1.11,0,4.87,4.87,0,0,1-1.08,0,10.09,10.09,0,0,1-1.1,0c-.36-.05-.77.07-1.11,0a3.38,3.38,0,0,1-1.1,0,4.5,4.5,0,0,1-1.1,0,8.22,8.22,0,0,1-1.11,0c-.38-.07-.84.12-1.08,0a8.06,8.06,0,0,1-1.1,0,4.52,4.52,0,0,1-1.11,0c-.48,0-.62-.05-1.08,0a10,10,0,0,0-1.1,0,1.3,1.3,0,0,1-.46,0c-.21,0-.48,0-.67,0a1.1,1.1,0,0,1-1-.43,1.64,1.64,0,0,1-.36-1,1.85,1.85,0,0,1,.36-1,2.22,2.22,0,0,1,1-.44,3.43,3.43,0,0,0,1.1,0,8,8,0,0,0,1.1,0,5.55,5.55,0,0,1,1.08,0,4.58,4.58,0,0,0,1.11,0c.26,0,.77,0,1.1,0a3.22,3.22,0,0,0,1.08,0,3.41,3.41,0,0,0,1.11,0c.43,0,.67,0,1.1,0a8.07,8.07,0,0,0,1.1,0c.27,0,.82,0,1.11,0a4,4,0,0,1,1.1,0c.46,0,.79,0,1.08,0a3.44,3.44,0,0,0,1.11,0,3.25,3.25,0,0,1,1.08,0,4,4,0,0,1,1.1,0,4.82,4.82,0,0,1,1.13,0,1.13,1.13,0,0,1,1,.44.87.87,0,0,1,.36,1A1.26,1.26,0,0,1,171.08,12.53Z" fill="#007130"/><path d="M188.1,12.1a1.4,1.4,0,0,1,.26.86,2.86,2.86,0,0,1-.4,1,2.49,2.49,0,0,1-1,.46c-.32.05-.53-.17-.75-.19l-.65-.43c-.28-.32-.62-.37-1-.7a4.06,4.06,0,0,1-1-.67,11.89,11.89,0,0,1-1.08-.65,5.15,5.15,0,0,0-1.08-.67c-.29-.1-.5.21-.53.5,0,.48,0,.86,0,1.39a8,8,0,0,0,0,1.3,5.14,5.14,0,0,0,0,1.3c0,.4,0,.81,0,1.29s0,.91,0,1.3a7,7,0,0,1,0,1.29c0,.34,0,.72,0,1.28a1.08,1.08,0,0,1-.48,1,1.13,1.13,0,0,1-1,.34,1.32,1.32,0,0,1-1.1-.34,1.07,1.07,0,0,1-.38-1c0-.38,0-.69,0-1.17s0-.79,0-1.13a4.91,4.91,0,0,0,0-1.15,3.88,3.88,0,0,0,0-1.13c0-.46,0-.75,0-1.15a3.41,3.41,0,0,1,0-1.15,5.62,5.62,0,0,1,0-1.16,3.41,3.41,0,0,1,0-1.15,11,11,0,0,0,0-1.15,5.52,5.52,0,0,1,0-1.15,7.07,7.07,0,0,1,0-1.13c0-.31-.05-.67,0-1.15a3.76,3.76,0,0,1,0-1.16,6,6,0,0,0,0-1.12,7.4,7.4,0,0,1,0-1.16c0-.26-.05-.74,0-1.22a1.09,1.09,0,0,1,.51-.91,1.48,1.48,0,0,1,1-.34,3.54,3.54,0,0,1,1,.34,1.09,1.09,0,0,1,.46,1c0,.55,0,1.2,0,1.73a7.25,7.25,0,0,1,0,1.68c0,.69,0,1.22,0,1.82s0,1,.36,1a1.38,1.38,0,0,1,.75-.24,1,1,0,0,1,.64.15,4.89,4.89,0,0,1,.89.43c.39.19.51.29.87.46a3.57,3.57,0,0,0,.86.5c.31.26.53.29.84.53a11.4,11.4,0,0,1,1.1.69c.27.1.37.36.56.46A2.13,2.13,0,0,0,188.1,12.1Zm0-6.89c.19.29.5.67.41,1a1.56,1.56,0,0,1-.32.7.64.64,0,0,1-.71.31c-.41,0-.65-.24-.92-.6s-.55-.65-.81-1a3.06,3.06,0,0,1-.87-1,.6.6,0,0,1-.29-.63,1.9,1.9,0,0,1,.34-.67.86.86,0,0,1,.72-.29c.43,0,.62.27,1,.46s.6.6.77.82A6.31,6.31,0,0,0,188.1,5.21ZM191,4.3a.83.83,0,0,1-.32.69,1.14,1.14,0,0,1-.69.29,1.1,1.1,0,0,1-.91-.46c-.22-.26-.44-.4-.51-.6s-.36-.31-.45-.5a3.58,3.58,0,0,0-.85-.94.68.68,0,0,1-.26-.6A1,1,0,0,1,188,1.25a1.6,1.6,0,0,1,1,.45c.26.27.64.51.76.77s.44.48.72.79A2.2,2.2,0,0,1,191,4.3Z" fill="#007130"/><path d="M212.77,10.1a1.22,1.22,0,0,1-.62,1.13c-.29.15-.89.24-1.15.41a12.69,12.69,0,0,0-1.42.38,8.87,8.87,0,0,1-1.32.51c-.17.1-.53.14-.74.26a8.55,8.55,0,0,0-1,.34c-.29.19-.51.26-.7.6a1.27,1.27,0,0,0-.17.84c.08.62.05.89.08,1.22a7.36,7.36,0,0,1,0,.94,1.28,1.28,0,0,1-.44.94,1.91,1.91,0,0,1-1,.33,1.18,1.18,0,0,1-.91-.29c-.24-.09-.41-.38-.41-.84S203,16,203,15.48a.49.49,0,0,0-.7-.48,8.71,8.71,0,0,0-1.25.82c-.29.33-.62.64-.77.86a1.53,1.53,0,0,0-.28,1.08c0,.36.07.67.4.82.15.29.53.29,1,.43s.79,0,1.17.14.68,0,1,0,.74,0,1,0a3.65,3.65,0,0,0,1-.05,7.16,7.16,0,0,1,1-.09,9.94,9.94,0,0,0,1-.15,3.69,3.69,0,0,1,1-.12,1.63,1.63,0,0,1,.79.41,1.49,1.49,0,0,1,.39,1,1,1,0,0,1-.22.75c-.26.29-.41.43-.6.48-.33.24-.67.12-1.13.29s-1,.09-1.51.14a6.94,6.94,0,0,1-1.53.07,5.84,5.84,0,0,0-1.2,0c-.27,0-.77-.08-1,0-.27-.12-.8.07-1.08-.12-.46-.12-.75,0-1.08-.19a1.72,1.72,0,0,1-1.06-.36,1.81,1.81,0,0,1-.91-.5,1.4,1.4,0,0,1-.72-.7,1.92,1.92,0,0,1-.51-.89,3.16,3.16,0,0,1-.16-1.15,7.57,7.57,0,0,1,.14-1.08c0-.34.26-.55.38-1s.41-.7.58-.86a3,3,0,0,1,.74-.77c.24-.15.48-.41.87-.7.21-.17.53-.29.89-.58a8.31,8.31,0,0,0,1.37-.74c.26-.14.31-.6-.05-.94a1.14,1.14,0,0,0-1.13-.28,3.51,3.51,0,0,0-1.06.19,7.76,7.76,0,0,1-1.13.46c-.26.09-.62.4-1,.59a3.12,3.12,0,0,0-.89.61,4.42,4.42,0,0,0-.82.62,2,2,0,0,1-.91.31,2,2,0,0,1-.94-.41,1.29,1.29,0,0,1-.4-.91,1.26,1.26,0,0,1,.55-1.1,3.85,3.85,0,0,0,.57-.53,1.42,1.42,0,0,0,.48-.46c.1-.12.34-.29.48-.48a4.31,4.31,0,0,0,.89-1,6.6,6.6,0,0,0,.87-1.08c.14-.21.33-.48.31-.67s-.22-.31-.65-.29-.53,0-.82,0a2,2,0,0,1-.64.05,1,1,0,0,1-.94-.41,1.15,1.15,0,0,1-.41-.94,1.37,1.37,0,0,1,.36-.89,1.46,1.46,0,0,1,.89-.38c.5,0,1,0,1.54-.05a3.44,3.44,0,0,0,1,0,4.43,4.43,0,0,0,.94,0,1.63,1.63,0,0,0,.72-.58,5.72,5.72,0,0,0,.38-1c.17-.48.29-.74.46-1.27a1,1,0,0,1,.48-.65A1.12,1.12,0,0,1,202,.48c.36,0,.65.19.93.31a1.39,1.39,0,0,1,.46.84,2,2,0,0,1-.21.89c-.08.19-.2.41-.32.72s.19.6.6.53c.58-.1,1.11-.1,1.44-.17a9.1,9.1,0,0,1,1.49-.24.91.91,0,0,1,.82.36,1.43,1.43,0,0,1,.33.84.93.93,0,0,1-.24.74,1.18,1.18,0,0,1-.55.41,5.72,5.72,0,0,1-1.51.31c-.36.05-.86.12-1.27.2a8.54,8.54,0,0,1-1.3.16,3.29,3.29,0,0,0-1.25.27,1.33,1.33,0,0,0-.53.62c-.12.19-.33.48-.43.65a2.91,2.91,0,0,1-.28.41c-.15.21-.22.33-.1.48s.19.14.67,0a5.39,5.39,0,0,1,.91-.12,4.4,4.4,0,0,1,1.3.14,2,2,0,0,1,1.15.6,6.54,6.54,0,0,1,.7.91.94.94,0,0,0,1.08.32,3.4,3.4,0,0,0,1.08-.46c.19,0,.36-.22.69-.26A9.08,9.08,0,0,1,209,9.46c.41-.1,1-.34,1.37-.46s.81-.29,1.15-.26a1.37,1.37,0,0,1,.93.4A1.38,1.38,0,0,1,212.77,10.1Z" fill="#007130"/><path d="M233.07,14.11a11.43,11.43,0,0,1,.14,1.2,11.77,11.77,0,0,0-.11,1.25,4.61,4.61,0,0,1-.41,1.18c-.19.36-.48.72-.67,1.05-.39.36-.56.68-1,.87a1.88,1.88,0,0,1-.86.5c-.31.1-.69.34-1,.46s-.84.12-1.11.29a3.1,3.1,0,0,1-1,0c-.29-.07-.72-.26-.8-.46a1.49,1.49,0,0,1-.31-.86.84.84,0,0,1,.31-.86,1.14,1.14,0,0,1,.82-.46,3.24,3.24,0,0,0,.82-.17,2.8,2.8,0,0,0,1.05-.41,2.09,2.09,0,0,0,.87-.72c.09-.21.4-.53.4-.79a1.15,1.15,0,0,0,.13-.86,1.51,1.51,0,0,0-.34-1.11c-.26-.31-.6-.48-.82-.74a4.59,4.59,0,0,0-1.1-.41A3.27,3.27,0,0,0,226.9,13c-.4.12-.69-.09-1.05,0a2.51,2.51,0,0,0-1,.12,9.43,9.43,0,0,1-1.32.24.93.93,0,0,0-.67.91c0,.58,0,1.1,0,1.37a9.31,9.31,0,0,0,0,1.06,2.45,2.45,0,0,1,0,1.08,4.4,4.4,0,0,1-.17,1.46,1.19,1.19,0,0,1-.29.7,1.47,1.47,0,0,1-.46.6,1.57,1.57,0,0,1-1.17.57,6.4,6.4,0,0,1-1.3.15A3.26,3.26,0,0,1,217.9,21c-.21,0-.65-.27-.79-.31-.14-.24-.55-.17-.7-.46-.31-.24-.43-.26-.62-.55s-.43-.31-.46-.67a2,2,0,0,1-.31-.72,1.3,1.3,0,0,1-.12-.82c0-.48.15-.74.12-1.06s.27-.52.39-.91.38-.67.55-.84a3.34,3.34,0,0,1,.72-.74,7.71,7.71,0,0,0,.81-.63c.2-.31.53-.26.89-.57a3.2,3.2,0,0,0,1.11-.58,2.27,2.27,0,0,0,.62-1,10.89,10.89,0,0,1,0-1.29c-.05-.39,0-.56,0-1.23,0-.31-.46-.72-.7-.65a7.31,7.31,0,0,1-1,.08,4.06,4.06,0,0,1-1.54,0,.91.91,0,0,1-.86-.38c-.31-.19-.29-.53-.34-.89a1,1,0,0,1,.34-.91,1.09,1.09,0,0,1,.86-.41,3.2,3.2,0,0,0,1,0A2.8,2.8,0,0,0,219,5.35a1.77,1.77,0,0,0,.79-.48,1.88,1.88,0,0,0,.29-1,4.64,4.64,0,0,0,0-1.29,7.68,7.68,0,0,1,0-1c.1-.24.15-.67.41-.89a1.92,1.92,0,0,1,.94-.31,2.18,2.18,0,0,1,.93.31c.29.26.46.38.41.89,0,.24,0,.69,0,.89a3.78,3.78,0,0,0,0,1.12,1.11,1.11,0,0,0,.43.8,1.27,1.27,0,0,0,.84.21l1.27-.26a1.57,1.57,0,0,1,1,.38,3.11,3.11,0,0,1,.41.91c0,.58-.26.75-.58,1a4.21,4.21,0,0,1-1.17.39c-.34.19-.43.16-1.13.24a1.52,1.52,0,0,0-.77.5,1.15,1.15,0,0,0-.33,1,7,7,0,0,0,0,.8,1.47,1.47,0,0,0,.21.86.61.61,0,0,0,.63.29,3.59,3.59,0,0,1,1.1-.15,3.24,3.24,0,0,0,1.06-.09,3.82,3.82,0,0,0,1,0,2.41,2.41,0,0,0,1.05,0,2.08,2.08,0,0,1,1.06.15,2.62,2.62,0,0,1,1,.28c.31.22.58.22,1,.46s.63.55.94.72.53.7.72.94A2.15,2.15,0,0,1,233.07,14.11Zm-13,1.71c0-.65-.26-.89-.65-.77a6.37,6.37,0,0,0-.91.65,1.64,1.64,0,0,0-.6.74,1.26,1.26,0,0,0-.22.94c-.07.5.34.74.56.91a1.15,1.15,0,0,0,1.12.29c.63,0,.65-.34.7-1A12.73,12.73,0,0,1,220.11,15.82Zm14.62-8.45a3.09,3.09,0,0,1-.43,1,1.22,1.22,0,0,1-1,.43,1.93,1.93,0,0,1-1-.41c-.14-.24-.45-.29-.62-.53a1.6,1.6,0,0,1-.62-.5,3.67,3.67,0,0,1-.67-.46,2.18,2.18,0,0,1-.68-.43,1.39,1.39,0,0,1-.79-.65c-.29-.19-.17-.36-.24-.67a1.72,1.72,0,0,1,.43-1,1.49,1.49,0,0,1,1-.46,7.58,7.58,0,0,1,1.17.41c.46.19.75.58,1,.65s.77.6,1.11.77c.17.14.26.36.55.45a2.18,2.18,0,0,1,.48.48A.89.89,0,0,1,234.73,7.37Z" fill="#007130"/><path d="M245.16,12.22c-.09.36,0,.55-.29.74a1.91,1.91,0,0,1-.69.48,10.33,10.33,0,0,0-1.27.53c-.08,0-.15.09-.22.26a1.59,1.59,0,0,0,0,.84c0,.92,0,1.51,0,1.9a5.7,5.7,0,0,1,0,1.49,8.9,8.9,0,0,0,0,1.46,5.21,5.21,0,0,1-.15,1.06,1.52,1.52,0,0,1-.57.89,2,2,0,0,1-1,.52,2,2,0,0,1-1.11.12,3.83,3.83,0,0,1-1.58-.21c-.27.05-.53-.22-.63-.41a.88.88,0,0,1-.24-.74,1.73,1.73,0,0,1,.32-.89,1.83,1.83,0,0,1,.81-.41c.6,0,.82,0,1,.07s.31-.05.43-.48a5.05,5.05,0,0,1,0-1.1,2.87,2.87,0,0,1,0-1.13,10,10,0,0,0,0-1.34c0-.34-.2-.44-.7-.63-.67.31-1.06.39-1.25.29a.74.74,0,0,1-.86-.41,1,1,0,0,1-.34-.91,6.52,6.52,0,0,1,.22-.75c.24-.09.33-.38.62-.45s.82-.29,1.37-.41a2.23,2.23,0,0,0,.79-1,10.13,10.13,0,0,1,.1-1.56,4.1,4.1,0,0,1,0-1.46c-.1-.24-.36-.75-.8-.82s-.88,0-1.12,0-.58-.07-.75-.39a.73.73,0,0,1-.24-.81c0-.22.05-.65.24-.82s.31-.26.75-.41c.28,0,.74,0,1.22,0s.67-.31.7-.72c0-.62,0-.91,0-1.24s.07-.63,0-1a1.71,1.71,0,0,1,0-1c.05-.24.07-.63.43-.79.12-.17.65-.2.89-.27a1.8,1.8,0,0,1,.89.27.91.91,0,0,1,.43.79,2,2,0,0,1,0,1,3.62,3.62,0,0,0,0,1,3.41,3.41,0,0,0,0,1.24c-.1.77.5.84,1.22.72a1,1,0,0,1,.91.39c.22.19.15.48.27.84-.08.38,0,.6-.27.81a1.84,1.84,0,0,1-.91.39c-.31-.1-.89-.17-1.15.17a3.55,3.55,0,0,0-.07,1.24,9.29,9.29,0,0,0,0,1.52c0,.57.26.57.43.55.5-.12.69,0,1-.05a1.11,1.11,0,0,1,.62.22A.71.71,0,0,1,245.16,12.22Zm14.11-3.39a1.56,1.56,0,0,1-.28.82,2.3,2.3,0,0,1-.77.38c-.58,0-1.06.05-1.54,0a5.09,5.09,0,0,0-1.51,0,3.93,3.93,0,0,1-1.49,0,9.51,9.51,0,0,0-1.51,0,6.92,6.92,0,0,1-1.51,0,5.09,5.09,0,0,0-1.51,0,4.13,4.13,0,0,1-1.49,0c-.46,0-1.06-.08-1.54,0a1.92,1.92,0,0,1-.77-.38c-.26-.17-.26-.41-.28-.82a1.42,1.42,0,0,1,.28-.84c.05-.26.44-.26.77-.38a3.57,3.57,0,0,0,1.13,0,2.27,2.27,0,0,0,1.1,0,11.34,11.34,0,0,1,1.73,0c.31,0,.41-.53.39-1a.9.9,0,0,0-.22-.82,1.29,1.29,0,0,0-.91-.12,1.61,1.61,0,0,1-1.08,0c-.31-.05-.7.12-.84,0-.46.07-.58-.12-.77-.39a1.22,1.22,0,0,1-.29-.81c.1-.27,0-.58.29-.84s.48-.24.77-.39.57.08.84,0a3,3,0,0,1,1.08,0c.57,0,1.15,0,1.13-.72a4,4,0,0,0,0-1.29,1.09,1.09,0,0,1,.41-.84,1.57,1.57,0,0,1,.93-.29c.41,0,.56.17.92.29.14.26.5.5.4.84s.08.72,0,1.29c-.07.29.67.63,1.2.72s.77.05,1.17,0,.65.08.92,0c.38.15.67.17.76.39s.2.53.29.84a1.28,1.28,0,0,1-.29.81.66.66,0,0,1-.76.39,2.81,2.81,0,0,0-.92,0c-.24-.07-.74.12-1.17,0a1.32,1.32,0,0,0-.94.1c-.33.12-.19.6-.26.84a1.07,1.07,0,0,0,.91,1c.58-.05,1.08,0,1.54,0s.86.12,1.27,0a9.58,9.58,0,0,0,1.32,0A.83.83,0,0,1,259,8,3,3,0,0,1,259.27,8.83Zm-.36,4.75a1,1,0,0,1-.28.84c-.24.25-.58.46-.77.39a9,9,0,0,1-1.42,0c-.38-.07-.84.48-.77.84a11.27,11.27,0,0,1,0,1.44c0,.31.05.8,0,1.2a3.11,3.11,0,0,1,0,1.18c0,.34-.07.79-.14,1.2s-.22.89-.62,1.06-.72.38-1,.5c-.43.22-.74,0-1.1.12-.17-.1-.65.12-.91,0-.41-.1-.68,0-1-.15-.26,0-.67-.12-.79-.43a1.15,1.15,0,0,1-.31-.86,3.6,3.6,0,0,1,.29-.92,1.17,1.17,0,0,1,.84-.43,4,4,0,0,0,1.46.15c.41,0,.58,0,.55-.56a3.91,3.91,0,0,0,0-1.08c0-.43,0-.67,0-1.1a6.83,6.83,0,0,1,0-1.37,1.52,1.52,0,0,0-.26-.57c-.22-.22-.75-.1-1.11-.2a10.58,10.58,0,0,1-1.8,0,5,5,0,0,1-1.63,0,5.81,5.81,0,0,0-1.66,0,1,1,0,0,1-.79-.39c-.26-.19-.21-.45-.26-.84a.87.87,0,0,1,.29-.83c.21-.17.45-.49.76-.39.58-.07,1,.05,1.66,0s1,.1,1.63,0c.17.12.46,0,.87,0,.19-.07.62.12,1.13,0,.19.1.79.12.93-.1s.17-.59.24-.69c0-.41.1-.84.48-.82a1.54,1.54,0,0,1,.89-.26,1.62,1.62,0,0,1,.89.29c.26,0,.41.36.43.79s.36.84.79.79,1.08.1,1.42,0a1.13,1.13,0,0,1,.77.39A.88.88,0,0,1,258.91,13.58Zm-8.49,5.26a1.33,1.33,0,0,1-1,.41c-.36.12-.75-.29-1-.53a10,10,0,0,1-.67-.81,2.55,2.55,0,0,1-.6-.7c-.29-.1-.27-.46-.32-.79a1.1,1.1,0,0,1,.41-.87,2.11,2.11,0,0,1,.89-.33c.24-.05.43.16.82.28.19.1.55.58.86.73a7,7,0,0,1,.7.91c.26.38.16.5.28.79S250.59,18.6,250.42,18.84Z" fill="#007130"/><path d="M279,16.61a1.53,1.53,0,0,1-.27.7c-.12.33-.29.43-.36.62a1.75,1.75,0,0,1-.43.57c-.22.2-.38.41-.5.53a3.81,3.81,0,0,0-.56.48,2.67,2.67,0,0,1-.62.41,2.54,2.54,0,0,1-.67.39c-.24.12-.39.31-.7.31a.92.92,0,0,1-.72.26c-.29.05-.53.19-.72.22a9.52,9.52,0,0,1-1.51.29c-.6,0-1,0-1.46.07a1.14,1.14,0,0,1-1-.36.82.82,0,0,1-.41-1c-.12-.29.22-.67.31-.84a1.43,1.43,0,0,1,.77-.41,11.94,11.94,0,0,0,1.27-.17,3.61,3.61,0,0,0,1.23-.19c.43-.12.81-.24,1.34-.41a2.11,2.11,0,0,1,.6-.31.59.59,0,0,0,.58-.39,2.47,2.47,0,0,0,.86-1,2.45,2.45,0,0,0,.34-1.34,2.63,2.63,0,0,0-.15-.82c-.12-.33-.38-.36-.48-.7-.21-.12-.69-.38-.93-.48a10,10,0,0,1-1.13-.12,14.42,14.42,0,0,0-1.44.12,9.91,9.91,0,0,0-1.42.34,7.26,7.26,0,0,0-1.37.55.79.79,0,0,0-.64.36c-.29.24-.44.17-.65.39a8.07,8.07,0,0,1-.82.64c-.26.22-.6.58-.86.77a1.09,1.09,0,0,1-1,.36,1.15,1.15,0,0,1-1-.38,1.2,1.2,0,0,1-.43-.94,4.53,4.53,0,0,1,.38-1.46,1.45,1.45,0,0,0,.22-.7,1.72,1.72,0,0,0,.24-.74c.09-.43.26-1,.38-1.49.1-.26.05-.46.19-.79s.17-.48.22-1c.05-.36.1-.5-.12-.76a1.07,1.07,0,0,0-.89-.29c-.5,0-.86,0-1.17,0a5.27,5.27,0,0,1-.8,0,1.48,1.48,0,0,1-.91-.39,1.84,1.84,0,0,1-.36-.93,2,2,0,0,1,.36-.89.92.92,0,0,1,.87-.39,9.1,9.1,0,0,0,1,0,3.39,3.39,0,0,0,1,0,10.79,10.79,0,0,0,1.1-.17,1,1,0,0,0,.58-.38,3.44,3.44,0,0,0,.28-.74,5.58,5.58,0,0,0,.2-1.68A2.26,2.26,0,0,1,267.09,1a2.1,2.1,0,0,1,1.1-.46c.29,0,.82.1,1,.36a.81.81,0,0,1,.36,1c0,.39-.12.68-.1.87a5.42,5.42,0,0,0-.14,1.1c0,.34.05.63.24.75a1,1,0,0,0,.67.24,13.35,13.35,0,0,0,1.63-.27,5,5,0,0,0,1.3-.24A10.47,10.47,0,0,1,274.43,4a1.69,1.69,0,0,1,1.2.36,1.8,1.8,0,0,1,.41.89,1.27,1.27,0,0,1-.29.79,1.13,1.13,0,0,1-.7.46,3.62,3.62,0,0,0-.93.24c-.22.05-.65.07-.89.14-.41.12-.6.07-1,.17a3.91,3.91,0,0,1-.84.17c-.31.09-.43,0-.75.12a7.17,7.17,0,0,1-.93.17,1.44,1.44,0,0,0-.77.38,1.48,1.48,0,0,0-.41.6c-.14.55-.24,1.08-.31,1.42-.12.52-.26.77-.34,1.22a.46.46,0,0,0,.36.53,1.07,1.07,0,0,0,.68-.17,4.91,4.91,0,0,0,.76-.31,4,4,0,0,1,.77-.24c.51-.05,1-.31,1.59-.34a5.09,5.09,0,0,1,1.6-.12c.34.05.82,0,1.23.07a7.93,7.93,0,0,0,1.2.24,2.54,2.54,0,0,1,1.1.48,3.12,3.12,0,0,1,1,.8,6.35,6.35,0,0,0,.48.65,1.22,1.22,0,0,1,.34.71,10.18,10.18,0,0,1,.26,1.61A3.72,3.72,0,0,1,279,16.61Z" fill="#007130"/><path d="M303.16,12.6a3.38,3.38,0,0,1-.14.94c0,.41-.24.55-.22.93a5.25,5.25,0,0,1-.33.89c-.22.22-.27.67-.41.84a2.77,2.77,0,0,1-.51.82,1.76,1.76,0,0,1-.57.74c-.24.36-.53.46-.7.7s-.55.41-.84.65-.81.45-1.05.64c-.43.24-.8.39-1.11.53s-.65.24-1,.34a1.49,1.49,0,0,1-1.3-.39,1,1,0,0,1-.46-1c-.09-.22.15-.58.29-.84s.48-.32.75-.53a4,4,0,0,0,.93-.41,6.41,6.41,0,0,0,.84-.46,6.31,6.31,0,0,0,.82-.53,2.76,2.76,0,0,0,.72-.67c.31-.14.38-.57.65-.91.07-.29.41-.58.45-1a6.56,6.56,0,0,0,.27-1.1,4.43,4.43,0,0,1,.07-1.13c-.12-.31,0-.7-.1-1.1a7.86,7.86,0,0,0-.28-1.08,5,5,0,0,0-.49-1,6.61,6.61,0,0,0-.64-.86,4.12,4.12,0,0,0-1-.87,5,5,0,0,0-1.15-.6,2.41,2.41,0,0,0-1-.26,1.11,1.11,0,0,0-1.08.77c-.15.72-.1,1.1-.2,1.44s-.16.91-.19,1.2a6.89,6.89,0,0,0-.24,1.22,6.7,6.7,0,0,1-.31,1.18c-.19.45-.22.91-.36,1.18-.14.5-.41.84-.46,1.15s-.33.65-.5,1.12a2.58,2.58,0,0,1-.46.85,1.69,1.69,0,0,1-.5.79,2.84,2.84,0,0,1-.62.74,3.39,3.39,0,0,0-.72.63,6,6,0,0,1-1.32.6,4.58,4.58,0,0,1-1.42.21,2.52,2.52,0,0,1-1.61-.33,4,4,0,0,1-.72-.39c-.33-.12-.36-.33-.65-.53a3,3,0,0,1-.74-1,1.84,1.84,0,0,1-.5-1.13,12.2,12.2,0,0,0-.27-1.22,7.25,7.25,0,0,1-.07-1.23,4.65,4.65,0,0,0,.05-1,3.71,3.71,0,0,0,.14-.93,3.76,3.76,0,0,1,.24-.92,1.76,1.76,0,0,1,.31-.88,4.24,4.24,0,0,1,.41-.87,2.74,2.74,0,0,1,.48-.79c.22-.22.36-.62.58-.77a2.68,2.68,0,0,1,.62-.69c.36-.36.65-.53.87-.77a1.68,1.68,0,0,1,1-.67c.24-.08.64-.48,1-.56a3.89,3.89,0,0,1,1.06-.45,2,2,0,0,0,1.1-.34c.41-.19.77-.09,1.13-.24s.62-.05,1.13-.14a4.13,4.13,0,0,1,1.15,0,9.16,9.16,0,0,0,1,0,6,6,0,0,1,.94.12c.4,0,.59.17.93.17a3,3,0,0,0,.91.27,4,4,0,0,0,.89.36,3.19,3.19,0,0,0,.84.45,9,9,0,0,0,.79.53c.31.24.51.46.72.65s.32.43.56.6a4.63,4.63,0,0,0,.48.67,5,5,0,0,0,.38.72c.05.31.29.5.33.74a1.14,1.14,0,0,1,.27.8c0,.28.19.48.17.79a6.7,6.7,0,0,1,.14,1.63A2.86,2.86,0,0,0,303.16,12.6ZM291.55,6.74a.69.69,0,0,0-.8-.52,2.19,2.19,0,0,0-.76.21c-.24.12-.48.29-.7.39s-.46.43-.74.48c-.32.26-.48.31-.65.55s-.29.38-.58.62-.31.55-.5.67-.24.39-.43.75a2.3,2.3,0,0,0-.34.77,2.55,2.55,0,0,0-.24.81,4.44,4.44,0,0,0-.22,1.68,4.31,4.31,0,0,1,.08.91c.07.22,0,.68.24,1a3.44,3.44,0,0,0,.5.76,1.21,1.21,0,0,0,.84.32,2.58,2.58,0,0,0,.89-.24c.19-.12.36-.41.65-.61s.36-.57.55-.81a5.07,5.07,0,0,0,.41-.84,4.44,4.44,0,0,1,.4-.91c.1-.36.27-.65.34-1a4.51,4.51,0,0,0,.31-1,2.36,2.36,0,0,1,.24-1,4.88,4.88,0,0,1,.19-1,7.89,7.89,0,0,0,.17-1A5.56,5.56,0,0,0,291.55,6.74Z" fill="#007130"/><path d="M326.28,5.5a3.36,3.36,0,0,1-.29.86,1.93,1.93,0,0,1-.79.41,3,3,0,0,1-1.2,0c-.48-.1-.82.12-1.13,0a7.48,7.48,0,0,1-1.16,0c-.33.09-.91-.07-1.17,0-.29-.1-.84.12-1.15,0-.48-.07-.77.09-1.15,0a3.53,3.53,0,0,1-1.42,0,.64.64,0,0,0-.6.31,1.32,1.32,0,0,0-.31.94,2.66,2.66,0,0,0,0,1,.54.54,0,0,0,.63.31c.55.09.84,0,1.29,0a5.15,5.15,0,0,1,1.11,0,2.8,2.8,0,0,0,1.08,0c.43.12,1.08.05,1.53.14s.48.27.75.29a2.94,2.94,0,0,1,.6.48,1,1,0,0,1,.45,1,1.61,1.61,0,0,1,.1,1.06c-.12.53,0,1.08-.1,1.66a2.6,2.6,0,0,0-.09,1,8.54,8.54,0,0,1-.15,1,4.74,4.74,0,0,0-.16,1c-.17.39-.08.72-.2,1s-.19.67-.21.84c-.19.22-.15.63-.24.72a2.89,2.89,0,0,1-.6,1.2,3.24,3.24,0,0,1-1,.92,1.93,1.93,0,0,1-1.17.43,6.49,6.49,0,0,1-1.23.09,10.45,10.45,0,0,1-1.46,0,2.16,2.16,0,0,1-1.42-.36,2,2,0,0,1-.74-1.18,1.78,1.78,0,0,1,.36-1,1.9,1.9,0,0,1,.91-.41,3.66,3.66,0,0,0,1.27.19,3,3,0,0,0,1,.08,1.6,1.6,0,0,0,1-.32c.35-.07.43-.5.6-.88s.14-.7.33-1.28a5.49,5.49,0,0,1,.27-1.53,8.45,8.45,0,0,0,.16-1.54,4,4,0,0,0,.07-1.32c0-.55-.23-.58-.69-.67s-.91.07-1.2,0a3.39,3.39,0,0,0-1.23,0c-.4,0-.84,0-1.51,0s-.91.19-1,.53a4.21,4.21,0,0,0-.37,1,8.21,8.21,0,0,1-.31.77,2.67,2.67,0,0,1-.33.79,1.44,1.44,0,0,1-.39.74c-.12.2-.29.53-.41.75s-.38.38-.45.72-.43.5-.51.69a5.44,5.44,0,0,0-.5.63,1.83,1.83,0,0,1-.55.62,3.13,3.13,0,0,1-.58.58,1.2,1.2,0,0,0-.6.55c-.26.31-.41.26-.62.53a2.17,2.17,0,0,0-.65.5c-.24.27-.36.41-.67.46s-.46.38-.72.41a.92.92,0,0,1-.84.24,1,1,0,0,1-1-.41c-.36-.19-.31-.65-.41-1s-.05-.41.22-.72.33-.29.57-.53a2.56,2.56,0,0,0,1-.67,5.23,5.23,0,0,1,1-.72c.39-.29.51-.46.92-.82a3.94,3.94,0,0,0,.81-.86,9,9,0,0,0,.84-1.08,11.28,11.28,0,0,1,.67-1.16c.24-.43.32-.79.58-1.2a7.68,7.68,0,0,0,.46-1.24c.14-.36.19-.84.36-1.3a5.44,5.44,0,0,0,.26-1.3,5.1,5.1,0,0,0,.24-1.63,1.45,1.45,0,0,0-.26-.69,1.12,1.12,0,0,0-1-.29c-.43-.1-.91.12-1.27,0a5.26,5.26,0,0,1-1,0,11.41,11.41,0,0,0-1.85,0,6.89,6.89,0,0,1-1.87,0,.75.75,0,0,1-.77-.41,1.29,1.29,0,0,1-.28-.86,1.37,1.37,0,0,1,.28-.84c.22-.12.34-.41.77-.41a7.37,7.37,0,0,1,1.06,0,7.07,7.07,0,0,1,1,0c.24.07.62,0,1,0a2.74,2.74,0,0,1,1,0,3.8,3.8,0,0,0,1,0,3.49,3.49,0,0,1,1,0c.24.09.72-.1,1.25,0,.43-.07.67-.58.72-1.15A3.06,3.06,0,0,1,314,2c0-.36,0-.58,0-.84a1.34,1.34,0,0,1,.43-.84c.31-.1.53-.19.93-.29.24.12.73.14.94.29a1,1,0,0,1,.43.84,1.43,1.43,0,0,1,0,.84,4.24,4.24,0,0,0,0,1.13c0,.72.14,1.2.74,1.15a3.27,3.27,0,0,0,1.3,0,3.07,3.07,0,0,0,1,0,7.5,7.5,0,0,0,1.06,0c.31,0,.74.12,1.08,0s.74.09,1.06,0a4.1,4.1,0,0,0,1,0,3.4,3.4,0,0,1,1.11,0c.38,0,.48.12.79.41A1.25,1.25,0,0,1,326.28,5.5Z" fill="#007130"/><path d="M345.41,14.71c0,.39.19.72.09,1.13s-.07.74-.09,1.27-.27.77-.34,1.2a9.72,9.72,0,0,1-.55,1.13,3,3,0,0,1-.87,1,6.37,6.37,0,0,1-1.1.77,2.77,2.77,0,0,1-1.27.48,2.64,2.64,0,0,1-1.32.29,6.06,6.06,0,0,0-1.35.07,8.08,8.08,0,0,1-1.27-.1,2.75,2.75,0,0,1-1.25-.26,2.09,2.09,0,0,1-1.15-.55,2.27,2.27,0,0,1-1-.82,3,3,0,0,1-.68-1,3.88,3.88,0,0,1-.43-1.1,2.59,2.59,0,0,1-.21-1.15c0-.34-.08-.87-.08-1.16s0-.74.05-1.34a1.1,1.1,0,0,0-.89-1.13,6.24,6.24,0,0,0-.93-.17,2.25,2.25,0,0,1-.72-.14,1.09,1.09,0,0,1-.91-.48,1.23,1.23,0,0,1-.36-.94,1.35,1.35,0,0,1,.36-1,1.14,1.14,0,0,1,.91-.43,1.31,1.31,0,0,1,.79.12,7.87,7.87,0,0,0,1.49.29.87.87,0,0,0,.74-.6c.08-.6.15-.94.22-1.42a1.05,1.05,0,0,0-.17-.81,1.33,1.33,0,0,0-.65-.39c-.36-.09-.69-.09-1-.17s-.43-.21-.69-.21a.75.75,0,0,1-.6-.46A1.08,1.08,0,0,1,330,6a1.54,1.54,0,0,1,.36-.93,1.27,1.27,0,0,1,.89-.44c.28,0,.67.22,1,.15s.67.19,1,.17a.74.74,0,0,0,.91-.51c.1-.48.12-.79.2-1.08a3.13,3.13,0,0,0,.14-.86,4.81,4.81,0,0,0,.17-.89,1,1,0,0,1,.5-.77A2,2,0,0,1,336,.53,1.87,1.87,0,0,1,337,.91a1,1,0,0,1,.34,1,3.05,3.05,0,0,0-.15.87c0,.31-.14.72-.19,1.1a.94.94,0,0,0,.17,1c.14.14.31.21.79.21.79,0,1-.14,1.44-.12a1.39,1.39,0,0,1,.94.36,1.38,1.38,0,0,1,.36,1,1.09,1.09,0,0,1-.29.84,1,1,0,0,1-.77.43,8.19,8.19,0,0,1-1.37.12,8.44,8.44,0,0,1-1,0c-.41,0-.74.38-.88.57a1.22,1.22,0,0,0-.17.65,9,9,0,0,0-.24,1.27c-.08.51.5.77,1,.72l1.51-.09c.75,0,1.08-.31,1.73-.19a1.73,1.73,0,0,1,.84.43c.31.26.26.62.31.89a2.41,2.41,0,0,1-.19.72c-.14.24-.29.45-.53.5a3.12,3.12,0,0,1-1,.24,12.31,12.31,0,0,0-1.27.17,11.83,11.83,0,0,0-1.3.07,1.57,1.57,0,0,0-1.18.22,1.21,1.21,0,0,0-.48.81c0,.51,0,.7-.05,1a4.19,4.19,0,0,0,.17,1.51c.12.21,0,.55.27.7,0,.26.36.4.45.57a2,2,0,0,0,1,.53,2.29,2.29,0,0,0,1.2.12c.31-.05.48,0,.88-.05a3.53,3.53,0,0,0,.89-.14,1.17,1.17,0,0,0,.82-.31c.26-.22.38-.32.67-.53s.46-.7.58-1a6.58,6.58,0,0,0,.14-1.18c0-.34-.12-.65-.07-.89s-.24-.67-.22-.91a1.54,1.54,0,0,1,.43-1.2,1.3,1.3,0,0,1,1-.36,1.4,1.4,0,0,1,.92.29c.28.24.52.4.55.76A3.85,3.85,0,0,1,345.41,14.71Z" fill="#007130"/><path d="M356.24,20.31a1.71,1.71,0,0,1-1.34.52,1.62,1.62,0,0,1-1.35-.52A2.18,2.18,0,0,1,353,19a2.38,2.38,0,0,1,.55-1.32,1.9,1.9,0,0,1,2.69,0,1.58,1.58,0,0,1,.55,1.32A2,2,0,0,1,356.24,20.31ZM353.12,3.53c.05-.19,0-.6.14-.84,0-.22.32-.39.39-.6A2.3,2.3,0,0,1,355,1.61a2.88,2.88,0,0,1,1.17.45,1.73,1.73,0,0,1,.53,1.2c-.12.44.07.72,0,1.13a2,2,0,0,1-.1,1,3.45,3.45,0,0,1-.07,1,4,4,0,0,0-.07.93c0,.67-.1,1.08-.1,1.68a6.63,6.63,0,0,0-.07,1.71,10.55,10.55,0,0,1-.07,1.7,5.8,5.8,0,0,0-.07,1.7,1.61,1.61,0,0,1-.34,1.37,1.13,1.13,0,0,1-.89.27c-.55,0-1-.15-1.05-.67a2,2,0,0,1-.12-1,8.37,8.37,0,0,1-.05-1.56c0-.38,0-1.08-.07-1.53a3.14,3.14,0,0,1-.05-1,6.85,6.85,0,0,0,0-1.06,6.4,6.4,0,0,1-.07-1.34c0-.48-.1-1-.1-1.35a5.54,5.54,0,0,0-.12-1.32A7.68,7.68,0,0,1,353.12,3.53Z" fill="#007130"/><path d="M29.64,54.84c.08,1.16-.16,2,0,2.92-.24,1,0,2-.12,2.88,0,1.12-.2,1.84-.24,2.88a14.76,14.76,0,0,0-.32,2.88,7.35,7.35,0,0,0-.24,1.72,11.17,11.17,0,0,1-.32,1.8,6.91,6.91,0,0,1-.56,1.68A5.33,5.33,0,0,1,27,73.16a2.72,2.72,0,0,1-1.24,1.16,11.85,11.85,0,0,1-1.44.72,3.28,3.28,0,0,1-1.55.36c-.44,0-.92.12-1.64.12-.24,0-.52,0-1.08-.08a9.36,9.36,0,0,1-1.8-.24c-.32-.28-.64-.28-1.08-.6A2.48,2.48,0,0,1,17,71.28a1.94,1.94,0,0,1,1.48-.76,11.57,11.57,0,0,0,2.76.16,1.67,1.67,0,0,0,2-.92,1.5,1.5,0,0,0,.44-1.12c.11-.6.19-1,.35-1.64a9.89,9.89,0,0,1,.28-2c.12-.72,0-1.4.2-2.2a10.75,10.75,0,0,1,.16-2.24,12.52,12.52,0,0,0,.08-2.08c-.08-1.16.24-2.31.08-3,.08-.92-.4-1.27-1.48-1.23a5.06,5.06,0,0,0-1.76,0,6.41,6.41,0,0,0-1.75,0c-.64.08-1.28-.12-2.2,0a1.27,1.27,0,0,0-.92.43,2.34,2.34,0,0,0-.56,1.4,8.2,8.2,0,0,1-.32,1.8,6.92,6.92,0,0,0-.32,1.36c-.08.8-.64,1.76-.72,2.48a2.57,2.57,0,0,0-.44,1.2,4.68,4.68,0,0,1-.48,1.2,4.79,4.79,0,0,1-.8,1.56,5,5,0,0,1-.92,1.56,3.37,3.37,0,0,0-1,1.48c-.48.72-.72.84-1.12,1.44a13.24,13.24,0,0,0-1.2,1.36c-.4.64-.68,1-1.28,1.24-.36.24-.64.6-1.36,1.16-.6.36-1.16.84-1.44,1a4,4,0,0,1-2.32.84,2.07,2.07,0,0,1-1.64-.64A2,2,0,0,1,0,73.56,2.29,2.29,0,0,1,.45,72.2c.12-.32.72-.72,1-1a5.68,5.68,0,0,0,1.12-.8,6.62,6.62,0,0,1,1-.84,7.38,7.38,0,0,1,1-.92,5.23,5.23,0,0,0,1-.92c.28-.2.48-.64.88-1,.24-.32.68-.56.84-1.08a2,2,0,0,0,.72-1.12,7.48,7.48,0,0,1,.68-1.2,4.85,4.85,0,0,0,1-2.2,16.32,16.32,0,0,1,.76-2.24c-.08-.52.2-.64.28-1.24.2-.32,0-.76.32-1.6a1.4,1.4,0,0,0-1.36-1.71c-1.4-.08-2,.15-2.72,0a10.48,10.48,0,0,0-2.24,0,6.92,6.92,0,0,1-2.36,0,1.64,1.64,0,0,1-1.52-.65,3.45,3.45,0,0,1-.6-1.55c.16-.4.2-1.12.6-1.52A2.22,2.22,0,0,1,2.37,50c.84-.08,1.52,0,2.44,0a7.84,7.84,0,0,0,2.36,0,14,14,0,0,0,2.92,0c.92-.24,1.44-.56,1.68-1.2a8.88,8.88,0,0,0,.08-2.64c0-.68,0-2,0-2.76a1.75,1.75,0,0,1,.8-1.48,2.74,2.74,0,0,1,1.64-.48,2.18,2.18,0,0,1,1.68.48,2,2,0,0,1,.76,1.48c.08.8-.08,1.84,0,2.76a8.65,8.65,0,0,0,0,1.44,2.54,2.54,0,0,0,.12,1.64,1.2,1.2,0,0,0,1.16.68c1,.12,1.52-.08,2.32,0a10.26,10.26,0,0,1,1.92,0,4.41,4.41,0,0,0,1.91,0,4.76,4.76,0,0,1,2.28.28,3.36,3.36,0,0,1,2,1.16,2.27,2.27,0,0,1,.88,1.67A9.36,9.36,0,0,1,29.64,54.84Z" fill="#007130"/><path d="M68.89,61.2a1.62,1.62,0,0,1-1.6.72,9.64,9.64,0,0,1-1.88,0,7.07,7.07,0,0,1-1.84,0c-.52-.12-1.12.2-1.8,0a5.66,5.66,0,0,1-1.84,0,9,9,0,0,1-1.8,0,14.12,14.12,0,0,1-1.84,0c-.6-.08-1.28.12-1.84,0a5.67,5.67,0,0,1-1.84,0,7.08,7.08,0,0,1-1.84,0,14.12,14.12,0,0,1-1.84,0c-.64-.12-1.4.2-1.8,0a13.94,13.94,0,0,1-1.83,0,7,7,0,0,1-1.84,0c-.8.08-1-.08-1.8,0a14,14,0,0,0-1.84,0,2.22,2.22,0,0,1-.76.08c-.36,0-.8-.08-1.12-.08a1.84,1.84,0,0,1-1.6-.72,2.7,2.7,0,0,1-.6-1.68,2.93,2.93,0,0,1,.6-1.64A3.68,3.68,0,0,1,38,57.16a5.78,5.78,0,0,0,1.84,0,14.06,14.06,0,0,0,1.84,0,9,9,0,0,1,1.8,0,7.08,7.08,0,0,0,1.84,0c.43,0,1.27,0,1.83,0a5.37,5.37,0,0,0,1.8,0,5.63,5.63,0,0,0,1.84,0c.72,0,1.12,0,1.84,0a14.11,14.11,0,0,0,1.84,0c.44,0,1.36,0,1.84,0a7,7,0,0,1,1.84,0c.76,0,1.32,0,1.8,0a5.68,5.68,0,0,0,1.84,0,5.41,5.41,0,0,1,1.8,0,7.08,7.08,0,0,1,1.84,0,7.53,7.53,0,0,1,1.88,0,1.9,1.9,0,0,1,1.6.72,1.46,1.46,0,0,1,.6,1.64A2.12,2.12,0,0,1,68.89,61.2Z" fill="#007130"/><path d="M96.89,60.48a2.37,2.37,0,0,1,.44,1.44,5.14,5.14,0,0,1-.68,1.72A4,4,0,0,1,95,64.4c-.52.08-.88-.28-1.24-.32-.44-.28-.76-.48-1.08-.72-.48-.52-1-.6-1.72-1.16a6.38,6.38,0,0,1-1.72-1.12A17.84,17.84,0,0,1,87.41,60a9.31,9.31,0,0,0-1.8-1.12c-.48-.16-.84.36-.88.84,0,.8,0,1.44,0,2.32a12.92,12.92,0,0,0,0,2.16,7.81,7.81,0,0,0,0,2.16c0,.68,0,1.36,0,2.16s0,1.52,0,2.16a13,13,0,0,1,0,2.16c0,.56,0,1.2,0,2.12a1.83,1.83,0,0,1-.8,1.68,1.91,1.91,0,0,1-1.68.56,2.18,2.18,0,0,1-1.83-.56,1.82,1.82,0,0,1-.65-1.6c0-.64,0-1.16,0-2s0-1.32,0-1.88a6.85,6.85,0,0,0,0-1.92,5.37,5.37,0,0,0,0-1.88c0-.76,0-1.24,0-1.92a6.85,6.85,0,0,1,0-1.92,12.3,12.3,0,0,1,0-1.92,6.86,6.86,0,0,1,0-1.92,13.66,13.66,0,0,0,0-1.92,11.19,11.19,0,0,1,0-1.92c-.15-.56.09-1.12,0-1.88,0-.51-.07-1.12,0-1.92a6.43,6.43,0,0,1,0-1.91,9,9,0,0,0,0-1.88c-.11-.56,0-1.08,0-1.92,0-.44-.07-1.24,0-2a1.81,1.81,0,0,1,.84-1.52,2.47,2.47,0,0,1,1.67-.56,5.93,5.93,0,0,1,1.68.56,1.82,1.82,0,0,1,.76,1.6c0,.92,0,2,0,2.88a13.08,13.08,0,0,1,0,2.8c0,1.16,0,2,0,3,0,1.2.08,1.71.6,1.63a2.15,2.15,0,0,1,1.24-.39,1.67,1.67,0,0,1,1.08.23,8.46,8.46,0,0,1,1.48.72c.64.32.84.48,1.44.76a5.88,5.88,0,0,0,1.44.84c.52.44.88.48,1.4.88.56.24,1,.64,1.84,1.16.44.16.6.6.92.76A3.29,3.29,0,0,0,96.89,60.48Zm0-11.47c.32.48.84,1.12.68,1.72a2.58,2.58,0,0,1-.52,1.16,1.11,1.11,0,0,1-1.2.52c-.68,0-1.08-.41-1.52-1-.28-.36-.92-1.08-1.36-1.6a5,5,0,0,1-1.44-1.6,1,1,0,0,1-.48-1,2.92,2.92,0,0,1,.56-1.12,1.39,1.39,0,0,1,1.2-.48c.72,0,1,.44,1.64.76.36.52,1,1,1.28,1.36A10.09,10.09,0,0,0,96.89,49Zm4.76-1.52a1.39,1.39,0,0,1-.52,1.16,2,2,0,0,1-1.16.48,1.89,1.89,0,0,1-1.52-.76c-.36-.44-.72-.68-.84-1s-.6-.52-.76-.84A5.7,5.7,0,0,0,95.45,45,1.12,1.12,0,0,1,95,44a1.68,1.68,0,0,1,1.76-1.56,2.62,2.62,0,0,1,1.68.76c.44.44,1.08.84,1.28,1.28.28.24.72.8,1.2,1.32A3.56,3.56,0,0,1,101.65,47.49Z" fill="#007130"/><path d="M134.32,73.08a2.41,2.41,0,0,1-.8,1.84,2.18,2.18,0,0,1-1.88.64,17.81,17.81,0,0,1-2.76-.36,4.5,4.5,0,0,1-1.32-.4c-.36-.16-.84-.24-1.32-.48a2.32,2.32,0,0,1-1.24-.64c-.36-.2-.92-.36-1.16-.72-.48-.36-.72-.36-1.08-.84a5.78,5.78,0,0,1-1-1,6.67,6.67,0,0,1-1.36-1.8,6.26,6.26,0,0,1-1-2,4.46,4.46,0,0,1-.6-2.12c0-.64-.12-1.64-.2-2.24a5.22,5.22,0,0,1,.16-2.12c.16-.76.4-1.4.48-2a10.88,10.88,0,0,0,.76-2A9.13,9.13,0,0,1,121,55a14.73,14.73,0,0,0,.88-1.28c.2-.39.52-.55,1-1.15a7.94,7.94,0,0,0,.64-.65c.32-.23.52-.47.32-.87-.12-.24-.56-.2-1.28-.08-.4.08-.84.11-1.12.16a8.07,8.07,0,0,1-1.88.24,9.72,9.72,0,0,0-1.88.28c-.72.16-1.16.16-1.88.27s-1.4.29-1.92.29a13.25,13.25,0,0,0-1.88.28c-.48,0-1.28.31-1.88.28s-1.52.11-2.48.23a2.44,2.44,0,0,1-1.51-.71,2.79,2.79,0,0,1-.6-1.64,2.58,2.58,0,0,1,.75-1.72c.33-.08.4-.28,1-.48a5.57,5.57,0,0,0,1.76-.28c1-.08,1.88-.28,2.64-.32a14.89,14.89,0,0,0,2.6-.32,6.08,6.08,0,0,0,1.76-.2c.68-.2,1.24-.08,1.72-.2a4.33,4.33,0,0,1,1.76-.2c.44.12,1.12-.28,1.72-.2a6.87,6.87,0,0,0,1.72-.16,4.84,4.84,0,0,0,1.72-.2,3.17,3.17,0,0,0,1.76-.2c.48-.08,1.08,0,1.76-.16a4.56,4.56,0,0,1,1.56-.16,14.59,14.59,0,0,0,1.68-.2,10.84,10.84,0,0,0,1.6-.16,13.84,13.84,0,0,0,1.72-.12,2.39,2.39,0,0,1,1.72.6,2.42,2.42,0,0,1,.76,1.64,4.7,4.7,0,0,1-.52,1.48c-.24.48-.88.64-1.36.76-1.2.36-1.88.52-2.52.72a8.48,8.48,0,0,1-1.92.92c-.68.47-1.28.55-1.72,1a8.78,8.78,0,0,0-1.72,1.35c-.52.64-1,1-1.44,1.52a10,10,0,0,1-1.16,1.68c-.4.56-.44,1.12-.68,1.36-.16.68-.52,1.08-.44,1.44a6.35,6.35,0,0,0-.24,1.52,11.21,11.21,0,0,0-.16,1.44,7.26,7.26,0,0,0,.24,1.8,6.45,6.45,0,0,0,.56,1.52,4.26,4.26,0,0,0,.92,1.4c.48.36.8.72,1.28,1.12a5.81,5.81,0,0,0,1.8,1,6.23,6.23,0,0,0,2,.6,12.79,12.79,0,0,1,1.92.32,5.12,5.12,0,0,1,1.6.84A2.22,2.22,0,0,1,134.32,73.08Zm3.24-12.68a1.85,1.85,0,0,1-.52,1.16,1.5,1.5,0,0,1-1.16.52,2,2,0,0,1-1.56-1c-.36-.4-1-1.2-1.36-1.64-.52-.6-.84-.92-1.44-1.6a1.29,1.29,0,0,1-.48-1,2.28,2.28,0,0,1,.56-1.12,1.92,1.92,0,0,1,1.2-.47,2,2,0,0,1,1.64.79,13.57,13.57,0,0,0,1.24,1.32c.36.52.76.72,1.2,1.36A3.74,3.74,0,0,1,137.56,60.4Zm3.56-2.08a3.57,3.57,0,0,1-1.2.48,2.47,2.47,0,0,1-1.48-.72c-.4-.48-.6-.76-.84-1s-.36-.4-.76-.88a5.77,5.77,0,0,0-1.4-1.52,1.06,1.06,0,0,1-.44-1c0-.47.2-.68.56-1.11a2.7,2.7,0,0,1,1.2-.45,2.13,2.13,0,0,1,1.68.76c.48.45,1,1,1.24,1.29a4.34,4.34,0,0,0,1.24,1.35,2.17,2.17,0,0,1,.72,1.72A1.57,1.57,0,0,1,141.12,58.32Z" fill="#007130"/><path d="M150.75,70.72a7.3,7.3,0,0,1-.6,1.88c-.32.72-.52,1.48-.88,1.68a10.86,10.86,0,0,0-.88,1.52,4.55,4.55,0,0,1-1.2,1.4c-.32.52-.92.48-1.44.48s-1-.24-1.52-.56a1.26,1.26,0,0,1-.68-1.4c0-.56.28-.8.52-1.36a17.52,17.52,0,0,0,1.28-1.8,7.08,7.08,0,0,0,1-1.92,16.73,16.73,0,0,1,1-1.36,1.82,1.82,0,0,1,1.16-.4,2.27,2.27,0,0,0,1.44.52A2.82,2.82,0,0,1,150.75,70.72Zm.48-2.48a3.71,3.71,0,0,1-1.76,0,2.9,2.9,0,0,1-1.8-.2,2.6,2.6,0,0,1-1.56-.92,3.25,3.25,0,0,1-.72-1.44c-.28-.48-.08-1-.16-1.6a10.11,10.11,0,0,0,0-2.2c0-.8,0-1.36,0-2.2a10.48,10.48,0,0,1,0-2.24,20,20,0,0,0,0-2.19c-.08-.92.08-1.49,0-2.25a6.7,6.7,0,0,0,0-2.19,14,14,0,0,1,0-2.24c.16-.8-.2-1.28,0-2.2a3.29,3.29,0,0,1,.2-1.72,4,4,0,0,1,.88-1.52c.6-.16.92-.6,1.52-.76.44,0,.92-.12,1.64-.16a6.48,6.48,0,0,0,1.76,0,6.13,6.13,0,0,1,1.72,0,7.1,7.1,0,0,1,1.8.2,2.31,2.31,0,0,1,1.6.92c.52.36.56,1.08.72,1.44a4.93,4.93,0,0,0,.16,1.6,13.46,13.46,0,0,0,0,2.2,10.42,10.42,0,0,0,0,2.24c-.08.92.12,1.6,0,2.19-.12.8.08,1.33,0,2.25a13.29,13.29,0,0,0,0,2.19,10.42,10.42,0,0,1,0,2.24,6.69,6.69,0,0,0,0,2.2c.08.76,0,1.4,0,2.2a4.94,4.94,0,0,1-.24,1.76,6.28,6.28,0,0,1-.88,1.48c-.32.6-1.12.64-1.52.76a3.38,3.38,0,0,1-1.64.16C152.23,68.4,151.83,68.08,151.23,68.24Zm1-3.76c.8-.08.68-.36.88-1.32a4,4,0,0,0-.48-2.28c-.4-.64-.84-.24-1.4-.36-.6.16-1.4.16-1.64.48a3,3,0,0,0-.24,2.12c0,1.24.48,1.12.88,1.36C150.87,64.88,151.51,64.44,152.23,64.48Zm-2.52-7.8a1.73,1.73,0,0,0,1.52.2,1.5,1.5,0,0,0,1.6-.28c.52-.47.2-1,.28-1.52-.08-.36.24-1-.24-1.44a1.58,1.58,0,0,0-1.64-.39c-.68-.08-1.44,0-1.64.36a2.76,2.76,0,0,0-.24,1.47A1.65,1.65,0,0,0,149.71,56.68Zm-.36-9.31a5.72,5.72,0,0,0,.24,2c.24.32,1.12.4,1.64.32s1.28.2,1.52-.36c.44-.56.2-1.44.36-1.92,0-1.08-.32-1.4-.88-1.32s-1.48,0-2,0C149.39,46,149.27,46.25,149.35,47.37Zm8.08,24.91a4.35,4.35,0,0,1,.68,2c-.2.48-.28,1.28-.68,1.48a1.44,1.44,0,0,1-1.52.6c-.32.16-.64.08-1.2-.36-.2-.4-.76-.4-.84-1a4.38,4.38,0,0,1-.72-1.52c-.2-.36-.56-1-.84-1.48a2.25,2.25,0,0,1-.56-1.6c-.08-.6.32-.76.68-1.28.28-.24,1-.08,1.44-.24a2,2,0,0,1,1.24.16c.4.28.52.72.92,1a1.53,1.53,0,0,0,.76,1.16A1.61,1.61,0,0,0,157.43,72.28ZM180.94,59a14.32,14.32,0,0,0-.44,1.4c-.44.6-.72.48-1.28.68-.8,0-1.32.2-1.88,0a3.73,3.73,0,0,1-1.76,0,5.09,5.09,0,0,0-2.2,0c-.44-.28-.68.36-.84.8a3.53,3.53,0,0,0-.4,1.48,7.5,7.5,0,0,0,0,2.12,11.22,11.22,0,0,1,0,1.64,9.93,9.93,0,0,0,0,3.08,11,11,0,0,1,0,3,7.88,7.88,0,0,1-.24,2c-.4.56-.48,1.4-1,1.72a5.63,5.63,0,0,1-1.6.84,3.53,3.53,0,0,1-1.8.16,12.21,12.21,0,0,1-1.75,0,13,13,0,0,1-1.8-.36,1.75,1.75,0,0,1-1-.8,1.58,1.58,0,0,1-.36-1.28,6.82,6.82,0,0,1,.52-1.52,1.76,1.76,0,0,1,1.44-.72,4.56,4.56,0,0,0,2.36.16c.59.16.59,0,.72-.76a9.92,9.92,0,0,1,0-2.88,23.7,23.7,0,0,0,0-2.92c.16-.56-.08-.84,0-1.56a4.67,4.67,0,0,1,0-2c.16-.52-.24-1-.44-1.4-.44-.48-.48-.68-.88-.72a8.58,8.58,0,0,1-2.28,0,3.59,3.59,0,0,1-1.84,0,7.71,7.71,0,0,0-1.92,0A1.4,1.4,0,0,1,159,60.4a5.7,5.7,0,0,1-.44-1.4,4.05,4.05,0,0,1,.4-1.4c.2-.36.52-.52,1.28-.64a7.84,7.84,0,0,1,2.4,0,9.32,9.32,0,0,0,2.36,0,9.28,9.28,0,0,1,2.36,0,15.24,15.24,0,0,0,2.35,0,15.49,15.49,0,0,1,2.36,0,5.85,5.85,0,0,0,2.36,0,11.21,11.21,0,0,0,2.32,0,5.45,5.45,0,0,0,2.44,0,1.43,1.43,0,0,1,1.24.64C180.78,58.2,181.1,58.72,180.94,59ZM159,50.49a3,3,0,0,1,.2-1.68,2.05,2.05,0,0,1,.84-1.48,3.25,3.25,0,0,1,1.68-.8,7.48,7.48,0,0,0,1.84-.16,20.94,20.94,0,0,1,2.32,0c.4.08,1.24-.6,1.4-1.28a15.3,15.3,0,0,0,0-2.4c.16-.52.23-1,.75-1.28a3.89,3.89,0,0,1,1.53-.4c.27.12,1.07.24,1.47.4a1.58,1.58,0,0,1,.76,1.28,7.88,7.88,0,0,0,0,2.36c.16.68.76,1.48,1.4,1.32,1,0,1.8-.12,2.44,0l2,.2a3.28,3.28,0,0,1,1.68,1c.32.6.48,1,.72,1.4a3.91,3.91,0,0,0,.16,1.56c-.12,1,0,1.88,0,2.76.12.55-.48,1.16-.72,1.31a1.83,1.83,0,0,1-1.48.44c-.44.21-1-.16-1.48-.44s-.88-.76-.76-1.31a5,5,0,0,0,0-2c.24-.8-.36-1-1.16-.88-1,0-1.64,0-2.48,0a17.45,17.45,0,0,1-2.51,0c-.84-.08-1.61,0-2.48,0a16.56,16.56,0,0,1-2.44,0c-.72,0-1.28.08-1.16.88a5.86,5.86,0,0,1,0,2.2c0,.55-.36.92-.72,1.31a1.58,1.58,0,0,1-1.48.41,4.55,4.55,0,0,1-1.48-.45,1.18,1.18,0,0,1-.76-1.27C158.83,52.49,159.15,51.41,159,50.49Z" fill="#007130"/><path d="M217,61.32a18.47,18.47,0,0,1-.24,2.8c-.24.32-.16,1-.28,1.32,0,.6-.44,1.08-.44,1.32a2.54,2.54,0,0,1-.56,1.28c-.24.6-.52.8-.68,1.2s-.64.84-.8,1.12c-.4.28-.6.88-1,1a7.52,7.52,0,0,1-1.4,1.16,7.26,7.26,0,0,0-1.6,1,8.57,8.57,0,0,0-1.72.84,8,8,0,0,1-1.76.56,2.7,2.7,0,0,1-2.52-.56,2.14,2.14,0,0,1-.8-1.72,2.25,2.25,0,0,1,.52-1.4,3.1,3.1,0,0,1,1.24-.84,5.44,5.44,0,0,0,1.36-.56c.24-.28.88-.24,1.28-.64s.84-.56,1.2-.76a2.6,2.6,0,0,0,1.08-1c.28-.28.64-.92,1-1.32a5.58,5.58,0,0,0,.68-1.52c.2-.56.2-1.08.4-1.64-.08-.48.2-1,.12-1.72s0-1.88-.48-2.64c-.16-.36-.48-1-.56-1.24s-.64-.68-.8-1.08a3.14,3.14,0,0,0-1.12-1,9.58,9.58,0,0,0-1.28-.72,4.67,4.67,0,0,0-1.52-.6,1.94,1.94,0,0,0-1.8,1.21,7.41,7.41,0,0,1-.68,1.91,5.64,5.64,0,0,0-.68,1.72,6.25,6.25,0,0,0-.76,1.68,10.53,10.53,0,0,0-.84,1.64c-.24.44-.6,1-1,1.6a3.67,3.67,0,0,0-.52.84,11.23,11.23,0,0,0-.84,1.2,1.93,1.93,0,0,0-.2,2c.48,1.12.68,1.24.88,1.8a1.12,1.12,0,0,1,.28,1.16A2.33,2.33,0,0,1,198,73a2.38,2.38,0,0,1-2-1.28c-.36-.76-1.12-1.44-1.8-1-.52.36-1.32.76-1.68,1-.72.28-.92.52-1.56.52a5,5,0,0,1-1.72.2,8.12,8.12,0,0,1-2.24-.36,3.31,3.31,0,0,1-1.92-1.32,1.73,1.73,0,0,1-.72-1,2.23,2.23,0,0,1-.44-1.12,14.11,14.11,0,0,1-.32-2.44,11,11,0,0,1,.16-1.92c.2-.68.2-1.12.44-1.88.32-.6.4-1.2.76-1.84a18,18,0,0,1,1-1.68,2.75,2.75,0,0,1,.88-1.24c.48-.32.56-.68,1-1.16s.8-.52,1.44-1.35c.44-.13.32-1.45.4-1.88-.4-1.08-.2-1.8-.44-2.36s-.2-1.08-.32-1.84c-.08-.6-.2-1.32-.24-1.88a1.58,1.58,0,0,1,.64-1.64,3.4,3.4,0,0,1,1.68-.6,3.26,3.26,0,0,1,1.32.4,1.51,1.51,0,0,1,.76,1.16c0,.48.28.92.2,1.32a4.22,4.22,0,0,0,.44,2.12c.08.64,1,1.36,1.64,1a12,12,0,0,0,2.2-.52c.6,0,1.16-.36,2.48-.56a3.86,3.86,0,0,0,1-.68,2.3,2.3,0,0,0,.64-1.08c0-1.12.32-1.76.32-2.36a2.81,2.81,0,0,1,.6-2.08,4.9,4.9,0,0,1,1.8-.76,2,2,0,0,1,1.72.64,2.14,2.14,0,0,1,.64,1.68,4.58,4.58,0,0,1-.16,1.2c-.2.6,0,.88-.24,1.68A1.56,1.56,0,0,0,207.46,50a17.39,17.39,0,0,0,1.76.52c.56,0,.88.4,1.56.64s.8.64,1.48.83c.2.12.84.73,1.08.88.24.45.76.69,1,1a1.49,1.49,0,0,1,.79,1c.21.48.61.76.69,1.2a3.05,3.05,0,0,0,.52,1.24c.2.32.12.84.36,1.28A18.41,18.41,0,0,1,217,61.32Zm-24.08,5c.72-.72.16-1.44,0-1.92a14.58,14.58,0,0,0-.48-1.44,1.44,1.44,0,0,1-.36-1c-.28-.6-.32-1.24-.6-1.92a.77.77,0,0,0-1.28,0A8.14,8.14,0,0,0,189,62c-.36.6-.44,1.32-.72,1.76a10,10,0,0,0-.24,1.92,4.07,4.07,0,0,0,.28,1.6,1.44,1.44,0,0,0,1.08.72,4.15,4.15,0,0,0,2.24-.68A4.9,4.9,0,0,0,192.9,66.36Zm6.92-10.68c.28-1-.24-1.55-.72-1.47a13.6,13.6,0,0,0-1.6.43,6.06,6.06,0,0,0-1.64.88,1.92,1.92,0,0,0-.64,1.88,7.3,7.3,0,0,0,.56,1.92c.2.4.2.92.52,1.56s1,.32,1.36-.24a7.61,7.61,0,0,0,.64-1.32,11.59,11.59,0,0,1,.52-1.08,3.67,3.67,0,0,0,.44-1.16C199.38,56.64,199.62,56.28,199.82,55.68Z" fill="#007130"/><path d="M235.64,52.33c-.4.32-.92.12-1.92.51a2.11,2.11,0,0,0-1.2.65A3.59,3.59,0,0,0,232,54.8a7,7,0,0,0-.52,1.92,10.71,10.71,0,0,1-.32,1.32,17.48,17.48,0,0,0-.68,2.48,17.35,17.35,0,0,1-.64,2.48c-.24.92-.56,1.68-.68,2.44a17.68,17.68,0,0,1-.72,2.44,9,9,0,0,1-.72,2.4,15.25,15.25,0,0,0-.84,2.36c-.12.4-.32.72-.44,1.2a2.22,2.22,0,0,1-.6,1.08c-.4.24-.52.8-.88.84a1.15,1.15,0,0,1-1.24.32,4.14,4.14,0,0,1-1.59-.6,2.32,2.32,0,0,1-.72-1.52,1.39,1.39,0,0,1,.24-1.16c.35-.8.52-1.56.76-2,.31-.68.39-1.28.76-2,.16-.76.51-1.16.67-2.08s.52-1.2.64-2.08c.08-.56.48-1.36.61-2.08a7.64,7.64,0,0,0,.51-2.12c.08-.64.44-1.44.48-2.12s.36-1.44.56-2.52a1.16,1.16,0,0,0-1.28-1.35,13,13,0,0,1-3,.23,2.66,2.66,0,0,1-1.64-.6,2.44,2.44,0,0,1-.64-1.59,2.12,2.12,0,0,1,.6-1.56,2.18,2.18,0,0,1,1.48-.76c.59-.12,1,0,1.67-.12.48-.08,1.16-.16,2.2-.28.32-.16.88-.12,1.2-.4s.52-.32.72-.84a13.63,13.63,0,0,0,.24-1.88c-.08-.44.16-.84.16-1.52,0-.28.08-1,.2-1.52a2.68,2.68,0,0,1,.72-1.56,2.29,2.29,0,0,1,1.6-.56,2.93,2.93,0,0,1,1.72.64,1.85,1.85,0,0,1,.68,1.32,5.79,5.79,0,0,1-.2,1.76,15.08,15.08,0,0,1-.2,1.64c-.2,1-.08,1.2.24,1.48s.72,0,1.8-.28a3.53,3.53,0,0,1,1.64-.32,1.53,1.53,0,0,1,1.48.68,2.09,2.09,0,0,1,.6,1.56,2.31,2.31,0,0,1-1,1.76A8,8,0,0,1,235.64,52.33Zm17.8,20a2.32,2.32,0,0,1-.36,1.2,1.72,1.72,0,0,1-1,.84l-1.4.36a6.15,6.15,0,0,1-1.88.2A4.32,4.32,0,0,1,247,75c-.76-.08-1.08.16-1.48,0-.64.08-1.36-.16-1.8,0a11.77,11.77,0,0,1-1.84-.2,7,7,0,0,1-1.84-.4c-.48-.12-1.12-.6-1.68-.72a3.7,3.7,0,0,1-1.4-1.08c-.36-.48-.64-.88-1-1.36-.16-.48-.4-1-.6-1.6a5.88,5.88,0,0,1-.24-1.8,1.83,1.83,0,0,1,.68-1.68,2.17,2.17,0,0,1,1.68-.68,1.35,1.35,0,0,1,1.36.48,2.19,2.19,0,0,1,.64,1.24,5.24,5.24,0,0,0,.48,1.52,2.19,2.19,0,0,0,1.12,1.2,4.52,4.52,0,0,0,2.08.44,6.44,6.44,0,0,0,2.32.08,7.67,7.67,0,0,0,1.92,0,9.82,9.82,0,0,0,1.92-.16,18.83,18.83,0,0,0,2.16-.2,1.7,1.7,0,0,1,1.48.76A3.21,3.21,0,0,1,253.44,72.36ZM238.84,54.6a18.66,18.66,0,0,1,2.24-.43,8.16,8.16,0,0,0,2.08-.29c.84-.2,1.52-.12,2.08-.24a6,6,0,0,1,2.12-.15,6.46,6.46,0,0,1,2.16,0,5,5,0,0,1,1.56.68c.48.59.76.95.64,1.59a2.65,2.65,0,0,1-.6,1.52,2.29,2.29,0,0,1-1.48.6,3.09,3.09,0,0,0-1.24.08,5.79,5.79,0,0,0-1.88.08,7.17,7.17,0,0,1-1.88.16c-.56-.08-1.24.32-1.92.24-.72.08-1.44.32-1.84.32a4.66,4.66,0,0,0-1.12.2,2,2,0,0,1-1.92-.64,1.93,1.93,0,0,1-.64-1.52,1.82,1.82,0,0,1,.48-1.32C238.08,55,238.12,54.8,238.84,54.6Z" fill="#007130"/><path d="M266.39,64.08c-.36.24-.48,1-.64,1.16-.12.52-.48.68-.68,1.12s-.68.6-.76,1.08a6.55,6.55,0,0,1-.8,1c-.44.2-.56.8-.84,1a2.34,2.34,0,0,1-.92,1,2.18,2.18,0,0,1-2,.88c-.56-.16-1.16-.08-1.72-.68a2.19,2.19,0,0,1-.76-1.6c0-.76.4-1.16.84-1.84.44-.44,1-.76,1.32-1.4a3.64,3.64,0,0,0,1.16-1.56c.32-.56.64-1,1-1.64a4.2,4.2,0,0,0,.88-1.68,3.86,3.86,0,0,0,.48-1A2.43,2.43,0,0,1,264,58.8c.44-.08.68-.4,1.32-.4A3.16,3.16,0,0,1,267,59a2,2,0,0,1,.76,1.6c.08.52-.2.6-.2,1a6.06,6.06,0,0,0-.52,1.2C266.75,63.48,266.47,63.8,266.39,64.08Zm14.8-9.24c-.4,0-1.36,0-2,0a2.1,2.1,0,0,0-1.56.41,2.25,2.25,0,0,0-.68,1.43,16.51,16.51,0,0,0,.08,2.24,4.56,4.56,0,0,0,0,2.08,12.5,12.5,0,0,0,0,2.12,6.29,6.29,0,0,0,0,2.12,12,12,0,0,1,0,2.08c-.08.72.08,1.56,0,2.12a6,6,0,0,1,0,2.08,6.84,6.84,0,0,1-.32,2.4,2.34,2.34,0,0,0-.48,1.12c-.08.16-.44.84-.76,1a12.53,12.53,0,0,1-1.92,1c-.6.08-1.6.16-2.12.24a4.29,4.29,0,0,0-1.6,0,16.29,16.29,0,0,0-1.68-.28,1.84,1.84,0,0,1-1.28-.8,2.49,2.49,0,0,1-.52-1.52,2.81,2.81,0,0,1,.6-1.72,1.5,1.5,0,0,1,1.56-.8,8.27,8.27,0,0,1,2.4.2c.88,0,1.08-.52,1.08-1.32-.12-.52.08-1.32,0-2a16.55,16.55,0,0,0,0-2,8.7,8.7,0,0,1,0-2,5.81,5.81,0,0,1,0-2c0-.76,0-1.36,0-2a16.68,16.68,0,0,1,0-2c0-.68-.08-1.48-.08-2.28a1.79,1.79,0,0,0-.64-1.16,1.94,1.94,0,0,0-1.36-.4,7.79,7.79,0,0,1-2.08-.08c-.72,0-1.16.16-1.52,0-.84-.08-2,.12-2.92,0a14.56,14.56,0,0,1-3,0,4.41,4.41,0,0,1-1.44-.67,9.16,9.16,0,0,1-.52-1.56c.12-.44.16-1.16.52-1.52a1.91,1.91,0,0,1,1.44-.68c.88,0,1.88.08,3,0s1.8,0,2.92,0c.52-.12.8.08,1.52,0a19.22,19.22,0,0,0,2-.08c.6-.16,1-.12,1.44-.68a2.26,2.26,0,0,0,.72-1.44,12.47,12.47,0,0,0,0-2.12,7,7,0,0,1,0-1.6,4,4,0,0,1,.84-1.56,2.75,2.75,0,0,1,1.72-.52c.44,0,1.36.08,1.68.48a2.42,2.42,0,0,1,.76,1.52,5.8,5.8,0,0,0,0,1.64,9.36,9.36,0,0,0,0,2.12,2.2,2.2,0,0,0,.6,1.64,2,2,0,0,0,1.48.6c.64,0,1.52,0,2,0s1.32,0,1.8.08c1.12-.08,1.84,0,2.6,0s2,0,2.88,0a1.84,1.84,0,0,1,1.56.63,2.48,2.48,0,0,1,.44,1.49,3.26,3.26,0,0,1-.52,1.56,1.91,1.91,0,0,1-1.44.67,10.28,10.28,0,0,1-2.92,0,17.31,17.31,0,0,1-2.88,0C282,54.92,281.71,54.8,281.19,54.84Zm9.08,15.44c-.32.64-1.12.68-1.76.72a1.42,1.42,0,0,1-1.28-.36c-.6-.16-.6-.64-1-.92a8.6,8.6,0,0,0-1.28-1.84,5.38,5.38,0,0,1-.84-1.24,4.09,4.09,0,0,1-.84-1.4,7,7,0,0,1-.8-1.4,8.23,8.23,0,0,1-.68-1.32c-.56-1-.8-1.64-.64-2,0-.76.12-1,.76-1.56a3.65,3.65,0,0,1,1.64-.56,7.13,7.13,0,0,1,1.32.36,3.39,3.39,0,0,1,1,1c.4.76.76,1.24,1.16,2A17.84,17.84,0,0,0,288,63.6a8.19,8.19,0,0,0,1.08,1.56c.48.36.8,1.16,1.16,1.48.32.76.56,1.36.76,1.92A1.84,1.84,0,0,1,290.27,70.28Zm2.12-23.51a8.46,8.46,0,0,1-.92,1.4c-.56.48-.8.84-1.4,1a2.24,2.24,0,0,1-1.72.36,5.71,5.71,0,0,1-1.72-.36,4.1,4.1,0,0,1-1.44-1,3,3,0,0,1-1-1.44,2.42,2.42,0,0,1-.32-1.68,3.25,3.25,0,0,1,.32-1.76,2.82,2.82,0,0,1,1-1.36,6.41,6.41,0,0,1,1.44-1c.64-.16,1.2-.24,1.72-.32s1.16.28,1.72.32a2.62,2.62,0,0,1,1.4,1c.28.48.76,1.08.92,1.4.24.72.16,1.24.36,1.72A3.43,3.43,0,0,1,292.39,46.77Zm-2.52-3.28a3.65,3.65,0,0,0-1.6-.64,2.19,2.19,0,0,0-1.48.64,2,2,0,0,0-.72,1.68,1.73,1.73,0,0,0,.76,1.44,1.66,1.66,0,0,0,1.48.64,2.35,2.35,0,0,0,1.56-.52,1.81,1.81,0,0,0,.64-1.68A1.81,1.81,0,0,0,289.87,43.49Z" fill="#007130"/><path d="M320.06,43.13c.52.64.8.88.8,1.68a6.92,6.92,0,0,1-.6,1.64c-.28.4-.92.88-1.08,1.32-.32.52-.72.6-.88,1a10.92,10.92,0,0,0-.88,1,3.51,3.51,0,0,1-.88,1,1.8,1.8,0,0,1-.92,1,3.14,3.14,0,0,0-1,1c-.16.23-.8.72-.92.88a5.7,5.7,0,0,0-1.12,1c-.24.4.12,1,.56,1.2a1.76,1.76,0,0,1,.72,1.52c-.12.72.08,1.6,0,2.2,0,.84-.08,1.64,0,2.2a8.1,8.1,0,0,0,0,2.2,13.43,13.43,0,0,1,0,2.2,19.94,19.94,0,0,0,0,2.2,8,8,0,0,0,0,2.2c0,.68,0,1.32,0,2.2a13.87,13.87,0,0,0,0,2.24,1.9,1.9,0,0,1-.8,1.6,2.7,2.7,0,0,1-1.68.56,2.66,2.66,0,0,1-1.68-.56,1.82,1.82,0,0,1-.8-1.6c0-.68.08-1.4,0-2.24s0-1.4,0-2.16a8.1,8.1,0,0,1,0-2.2,13,13,0,0,1,0-2.16,8.1,8.1,0,0,1,0-2.2,20.17,20.17,0,0,0,0-2.2c0-.76,0-1.68,0-2.44,0-.36-.52-1.12-1.16-.76a2.24,2.24,0,0,0-.84.64c-.56.28-.64.64-1.12.8-.36.44-.8.44-1.12.76-.44.16-.52.6-1.16.8a3.6,3.6,0,0,1-1.16.72c-.56.36-.92.52-1.16.72-.6.32-.64.4-1.2.68a2.67,2.67,0,0,1-1.2.64,4.56,4.56,0,0,1-1.32.32,1.79,1.79,0,0,1-1.6-.72,2.73,2.73,0,0,1-.68-1.64,3.36,3.36,0,0,1,.44-1.36,2.3,2.3,0,0,1,1.12-1,5.63,5.63,0,0,0,1.2-.68,10,10,0,0,1,1.16-.68c.56-.16.68-.4,1.16-.72s.84-.28,1.12-.72a7.15,7.15,0,0,0,1.16-.72,5,5,0,0,0,1.08-.8,4.92,4.92,0,0,0,1.12-.8,8.33,8.33,0,0,0,1.08-.8c.36-.39,1-.67,1.2-1a3.64,3.64,0,0,0,1-1c.24-.27.84-.63,1.12-1,.2-.19.68-.59,1.12-1a8.55,8.55,0,0,0,1-1c.52-.16.64-.72,1-1a8.85,8.85,0,0,1,1-1.08c.28-.28.56-.72,1-1.12a2.3,2.3,0,0,0,.92-1.12c.4-.44.52-.76,1-1.2a2.36,2.36,0,0,1,2.08-1A2.26,2.26,0,0,1,320.06,43.13Z" fill="#007130"/><path d="M330.41,50.69a4.29,4.29,0,0,1-1.28-1.28,1.87,1.87,0,0,1-.36-1.12,2.79,2.79,0,0,1,.84-1.8,4.1,4.1,0,0,1,1.8-.76,1.86,1.86,0,0,1,1.16.28,5.55,5.55,0,0,1,1.12.64c.24.28.8.52,1,.76.12.4.64.48.88.72s.4.56,1,.8a3.3,3.3,0,0,0,1,.84c.32.24.84.56,1,.92.48.36.52.76.84,1a1.44,1.44,0,0,1,.44,1.48,2.81,2.81,0,0,1-2.68,2.71,3.09,3.09,0,0,1-1.84-.8c-.28-.28-.84-.79-1.2-1.12-.52-.43-.64-.84-1.2-1.12a4,4,0,0,0-1.2-1.07C331.41,51.57,330.81,51.05,330.41,50.69Zm28.27,3c-.32.84-.92,1.28-1.12,1.84a8.48,8.48,0,0,1-1.2,1.76A7.21,7.21,0,0,1,355.12,59c-.6.68-.8,1.16-1.28,1.64a13.82,13.82,0,0,1-1.4,1.6A16,16,0,0,1,351,63.8c-.48.4-1.08,1.12-1.51,1.44-.44.68-1.24,1-1.64,1.44s-1.2.76-1.56,1.24c-.52.4-1.12.72-1.64,1.2A6.7,6.7,0,0,1,343,70.28a4.85,4.85,0,0,1-1.76,1.08,7.53,7.53,0,0,0-1.76,1,15.77,15.77,0,0,1-1.84.92,5.85,5.85,0,0,1-1.84.84c-.52.32-1.32.52-1.92.8a2.63,2.63,0,0,1-1.12.16,2.37,2.37,0,0,1-1.76-.76,2.93,2.93,0,0,1-.72-1.8,2.07,2.07,0,0,1,1-1.8,10.27,10.27,0,0,1,2-1c.24-.16.52-.2,1.12-.48a2.72,2.72,0,0,1,1.08-.52,7.31,7.31,0,0,1,1.12-.56c.32-.12.56-.52,1.08-.56.4-.2.56-.36,1.08-.6a4.71,4.71,0,0,1,1-.64c.44-.16.68-.6,1-.68a4.86,4.86,0,0,1,1-.68c.2-.16.76-.36,1-.72a2.21,2.21,0,0,0,1-.76c.16-.32.64-.32,1-.76s.64-.6,1-.8a2.59,2.59,0,0,0,.92-.8c.28-.08.4-.44.88-.84.32-.4.55-.76.88-.88.24-.32.47-.76.84-.92.28-.44,1-.88,1.35-1.52.44-.36.8-1.16,1.24-1.6a9.64,9.64,0,0,1,1.16-1.68c.52-.64.6-1,1.08-1.72.32-.47.76-.87,1-1.31.48-.4.76-.72,1.52-.6a3.74,3.74,0,0,1,1.76.64,2.39,2.39,0,0,1,.8,1.68A4.65,4.65,0,0,1,358.68,53.72Z" fill="#007130"/><path d="M386.9,61.48a2.75,2.75,0,0,1-.68,1.68,2.13,2.13,0,0,1-1.68.76,2,2,0,0,1-1.24-.28c-.36-.16-.6-.48-1.08-.72a14.46,14.46,0,0,1-1.72-1.2c-.56-.4-1.24-.76-1.72-1.12a9,9,0,0,0-1.8-1.08,10.34,10.34,0,0,0-1.68-1,.71.71,0,0,0-1,.76c0,.8,0,1.72,0,2.32a19.36,19.36,0,0,0,0,2.16c-.2.76.12,1.56,0,2.16,0,.88,0,1.36,0,2.16a6.52,6.52,0,0,0,0,2.16,9.74,9.74,0,0,1,0,2.16,6.83,6.83,0,0,0,0,2.2c0,.6-.44,1.12-.76,1.56a3.65,3.65,0,0,1-1.68.56,2.2,2.2,0,0,1-1.68-.56,1.71,1.71,0,0,1-.76-1.56,16.93,16.93,0,0,1,0-2,10.2,10.2,0,0,1,0-1.92,5.91,5.91,0,0,1,0-1.88c0-.68,0-1.36,0-1.92s0-1.2,0-1.92a6.14,6.14,0,0,0,0-1.92,9.82,9.82,0,0,1,0-1.88c.12-.68-.2-1.16,0-1.92-.16-.52.16-1.24,0-1.92a7.56,7.56,0,0,1,0-1.92,3.85,3.85,0,0,1,0-1.91,15.32,15.32,0,0,0,0-1.92,7.39,7.39,0,0,0,0-1.88,7.66,7.66,0,0,1,0-1.92c.08-.68,0-1.08,0-1.92.12-.6-.08-1.24,0-1.92a2.31,2.31,0,0,1,.76-1.6,2.42,2.42,0,0,1,1.68-.6,2.75,2.75,0,0,1,1.68.6,1.75,1.75,0,0,1,.84,1.52,11.8,11.8,0,0,1,0,2.92,11.24,11.24,0,0,1,0,2.84,25.69,25.69,0,0,1,0,3c0,1.23.6,1.6,1.64,1.19a1.75,1.75,0,0,1,1.4.33c.36.24,1,.39,1.36.63a3.37,3.37,0,0,0,1.48.8c.56.32,1,.64,1.4.8.56.28.8.64,1.4.88a15.63,15.63,0,0,0,1.8,1.2c.72.48,1.12,1.08,1.68,1.48A2.59,2.59,0,0,1,386.9,61.48Z" fill="#007130"/><path d="M425.4,57.16a2.06,2.06,0,0,1-1,1.88c-.48.24-1.48.4-1.92.68a18.35,18.35,0,0,0-2.36.64,15.28,15.28,0,0,1-2.2.84c-.28.16-.88.24-1.24.44a15.24,15.24,0,0,0-1.59.56c-.48.32-.84.44-1.16,1a2.07,2.07,0,0,0-.28,1.4c.12,1,.08,1.48.12,2a10.14,10.14,0,0,1,0,1.56,2.11,2.11,0,0,1-.72,1.56,3.09,3.09,0,0,1-1.64.56,2.05,2.05,0,0,1-1.52-.48c-.4-.16-.68-.64-.68-1.4s-.08-1.44-.12-2.32a.82.82,0,0,0-1.16-.8,15.66,15.66,0,0,0-2.08,1.36c-.48.56-1,1.08-1.28,1.44a2.48,2.48,0,0,0-.48,1.8c0,.6.12,1.12.68,1.36.24.48.88.48,1.64.72s1.32,0,2,.24c.64,0,1.12,0,1.64,0s1.24,0,1.68,0a5.75,5.75,0,0,0,1.72-.08,12.36,12.36,0,0,1,1.72-.16,16.33,16.33,0,0,0,1.67-.24,5.85,5.85,0,0,1,1.72-.2,2.63,2.63,0,0,1,1.32.68,2.53,2.53,0,0,1,.64,1.64,1.55,1.55,0,0,1-.36,1.24c-.44.48-.68.72-1,.8-.56.4-1.12.2-1.87.48-.84,0-1.68.16-2.52.24a11.68,11.68,0,0,1-2.56.12,10.9,10.9,0,0,0-2,0c-.44,0-1.28-.12-1.68,0-.44-.2-1.32.12-1.8-.2-.76-.2-1.24,0-1.8-.32a2.84,2.84,0,0,1-1.76-.6,3.07,3.07,0,0,1-1.52-.84,2.27,2.27,0,0,1-1.2-1.16,3.2,3.2,0,0,1-.84-1.48,5.26,5.26,0,0,1-.28-1.92,14.17,14.17,0,0,1,.24-1.8c0-.56.44-.92.64-1.6.4-.52.68-1.16,1-1.44a5.34,5.34,0,0,1,1.24-1.28c.4-.24.8-.68,1.44-1.16.36-.28.88-.48,1.48-1a14.09,14.09,0,0,0,2.28-1.24c.44-.24.52-1-.08-1.56a1.9,1.9,0,0,0-1.88-.48,6,6,0,0,0-1.76.32,12.21,12.21,0,0,1-1.88.76c-.44.16-1,.68-1.68,1a5,5,0,0,0-1.48,1,7.7,7.7,0,0,0-1.36,1,3.28,3.28,0,0,1-1.52.52,3.34,3.34,0,0,1-1.56-.68c-.24-.36-.76-.8-.68-1.52a2.12,2.12,0,0,1,.92-1.84,6.2,6.2,0,0,0,1-.88,2.45,2.45,0,0,0,.8-.76c.16-.2.56-.48.8-.8a7.61,7.61,0,0,0,1.48-1.67,12.34,12.34,0,0,0,1.44-1.8c.24-.37.56-.8.52-1.12,0-.48-.36-.52-1.08-.48-.48,0-.88,0-1.36,0a3.58,3.58,0,0,1-1.08.08,1.67,1.67,0,0,1-1.56-.68,1.92,1.92,0,0,1-.68-1.56,2.22,2.22,0,0,1,.6-1.48,2.41,2.41,0,0,1,1.48-.64c.84,0,1.72,0,2.56-.08a6,6,0,0,0,1.64-.08,7.15,7.15,0,0,0,1.56-.08,2.58,2.58,0,0,0,1.2-1,8.66,8.66,0,0,0,.64-1.6c.28-.8.48-1.24.76-2.12a1.64,1.64,0,0,1,.8-1.08,1.86,1.86,0,0,1,1.32-.4c.6-.08,1.08.32,1.56.52a2.45,2.45,0,0,1,.76,1.4,3.37,3.37,0,0,1-.36,1.48c-.12.32-.32.68-.52,1.2s.32,1,1,.88c1-.16,1.84-.16,2.4-.28a14.61,14.61,0,0,1,2.48-.4,1.49,1.49,0,0,1,1.36.6,2.42,2.42,0,0,1,.55,1.4,1.69,1.69,0,0,1-.39,1.24,2.18,2.18,0,0,1-.92.68,10.11,10.11,0,0,1-2.52.52c-.6.08-1.44.2-2.12.32a13.9,13.9,0,0,1-2.16.28,5.55,5.55,0,0,0-2.08.44,2.13,2.13,0,0,0-.88,1c-.2.32-.56.8-.72,1.08a6.67,6.67,0,0,1-.48.68c-.24.35-.36.55-.16.79s.32.25,1.12,0a9.28,9.28,0,0,1,1.52-.2A7.3,7.3,0,0,1,409,55a3.39,3.39,0,0,1,1.92,1,10,10,0,0,1,1.16,1.52,1.56,1.56,0,0,0,1.8.52,5.26,5.26,0,0,0,1.79-.76c.32,0,.61-.36,1.16-.44a15.72,15.72,0,0,1,2.24-.8c.68-.16,1.64-.56,2.28-.76.44,0,1.36-.48,1.92-.44a2.19,2.19,0,0,1,2.16,2.28Z" fill="#007130"/><path d="M66.08,103a4.06,4.06,0,0,1-.4,1.88,6.32,6.32,0,0,1-1,1.84,20.75,20.75,0,0,1-1.28,1.72c-.36.72-1,1-1.24,1.39a3.62,3.62,0,0,0-.88.92c-.16.44-.72.76-1,1s-.6.84-1,.92c-.56.4-.68.64-1.08.76a4.58,4.58,0,0,1-1.32.36,1.89,1.89,0,0,1-1.56-.72,3.06,3.06,0,0,1-.68-1.6c0-.64,0-.88.32-1.2.36-.6.64-.64.84-.92a5.25,5.25,0,0,1,1.32-1.15c.6-.53.8-.84,1.44-1.44.32-.4,1.08-1,1.2-1.48a.8.8,0,0,0-.08-1A2.86,2.86,0,0,0,58,104c-.6-.08-1.08,0-1.48,0-1,.08-2-.12-2.84,0-.88,0-2,0-2.8,0-1.12.12-2,0-2.88,0s-1.91-.16-2.83,0c-1,0-2,0-2.88,0a13.48,13.48,0,0,1-2.84,0,8.7,8.7,0,0,1-2.88,0c-.52-.16-1.12-.16-1.56-.68a2.87,2.87,0,0,1-.6-1.6,2.64,2.64,0,0,1,.6-1.6,2.57,2.57,0,0,1,1.56-.72,26,26,0,0,1,3.08,0,9.34,9.34,0,0,0,3,0c1.08-.16,2,.12,3,0a24.7,24.7,0,0,0,3,0c.84,0,2-.12,3,0,1-.08,2.12,0,3,0a24.43,24.43,0,0,0,3,0c1-.12,2,0,3,0,.4,0,1.32.16,1.84.16a8,8,0,0,1,1.72.64c.48.16.8.88,1.28,1.16S66.08,102.45,66.08,103Zm-13.92,5.67a14.36,14.36,0,0,0,0,2c-.12.68,0,1.4-.08,1.84a13.25,13.25,0,0,0-.2,1.84c-.08.52-.24,1-.32,1.8a13.72,13.72,0,0,0-.48,1.76c-.2.76-.56,1.08-.6,1.72-.2.52-.52,1-.8,1.68a7.34,7.34,0,0,1-.92,1.6,3.32,3.32,0,0,1-1.08,1.48,20.91,20.91,0,0,1-1.36,1.6,7.1,7.1,0,0,1-1.51,1.44c-.72.48-1,.88-1.64,1.28a19.21,19.21,0,0,1-1.8,1.12,3.1,3.1,0,0,1-1.44.4,2.51,2.51,0,0,1-1.68-.72,2.22,2.22,0,0,1-.28-3,3.17,3.17,0,0,1,1.08-1,10.18,10.18,0,0,0,1.56-1.08c.68-.16,1-.76,1.48-1.16s.72-.8,1.32-1.32c.36-.4.76-1,1.16-1.48.08-.44.48-.56.68-1.12a5.77,5.77,0,0,0,.59-1.16,2.13,2.13,0,0,0,.44-1.2,2.18,2.18,0,0,0,.4-1.24,16.74,16.74,0,0,1,.44-2.52c.08-.72.16-1.84.16-2.6a16.35,16.35,0,0,1,0-2,1.6,1.6,0,0,1,.76-1.51,2.53,2.53,0,0,1,1.64-.52c.68.12,1.24,0,1.64.52A2.27,2.27,0,0,1,52.16,108.68Z" fill="#007130"/><path d="M100.23,105.33a4.88,4.88,0,0,1-.28,2.31,18.55,18.55,0,0,0-.48,1.8c-.16.64-.52,1.32-.6,1.8a14.61,14.61,0,0,1-.72,1.76c-.44.4-.44,1.28-.8,1.68a15,15,0,0,1-.92,1.64,6.19,6.19,0,0,1-1,1.56,11,11,0,0,1-1.12,1.56,10.75,10.75,0,0,0-1.16,1.44,10.4,10.4,0,0,0-1.28,1.4,8.24,8.24,0,0,1-1.32,1.32,17.87,17.87,0,0,1-1.4,1.28,5.92,5.92,0,0,1-1.48,1.2,3.15,3.15,0,0,1-1.52,1.08c-.6.32-1.12.76-1.56,1a4.71,4.71,0,0,1-1.64.92,16.31,16.31,0,0,1-1.68.84,4.44,4.44,0,0,1-1.4.32,2.46,2.46,0,0,1-2.4-2.44,3.25,3.25,0,0,1,.36-1.24c.28-.56.72-.68.92-.92.56-.28.68-.36,1.32-.72a5,5,0,0,0,1.24-.72,3.11,3.11,0,0,0,1.24-.76c.24-.16.64-.48,1.2-.8a4.25,4.25,0,0,0,1.36-1c.24-.44.84-.56,1.28-1.08s.84-.84,1.24-1.16c.24-.32.8-.6,1.16-1.24.36-.2.52-.68,1.08-1.24a6.66,6.66,0,0,1,1-1.36,5.1,5.1,0,0,1,1-1.4,8.37,8.37,0,0,1,.84-1.48c.28-.44.44-.92.68-1.28A7.85,7.85,0,0,0,94,110c.2-.52.36-.92.52-1.4a8.53,8.53,0,0,0,.36-1.43c.08-1-.88-1.32-1.52-1.32-.92-.08-1.52.07-2.4,0s-1.64.07-2.4,0a24.17,24.17,0,0,0-2.44,0c-.76,0-1.76,0-2.4,0-.92.12-1.68-.07-2.44,0s-1.6-.11-2.4,0c-.8,0-1.72,0-2.4,0A9.06,9.06,0,0,1,74,106a2.51,2.51,0,0,1-1.72-.71,2.47,2.47,0,0,1-.68-1.72,2.77,2.77,0,0,1,.6-1.64,2.17,2.17,0,0,1,1.56-.68c.8,0,1.6-.08,2.6,0,.8,0,1.68-.16,2.56,0a18.2,18.2,0,0,1,2.56,0,5.49,5.49,0,0,0,2.56,0c.92-.16,1.76.16,2.56,0s1.48.08,2.56,0c.64,0,1.64-.12,2.56,0,.88-.08,1.8,0,2.52,0a4.85,4.85,0,0,1,2.12.12,7.79,7.79,0,0,1,1.84.84,3.16,3.16,0,0,1,1.4,1.48C100.15,103.89,100.07,104.57,100.23,105.33Zm6-5.76a12.17,12.17,0,0,1-.92,1.4,2.76,2.76,0,0,1-1.4,1,3,3,0,0,1-1.72.36,3.26,3.26,0,0,1-1.72-.36c-.48-.32-1-.44-1.44-1a3.71,3.71,0,0,1-.92-1.4,3.5,3.5,0,0,1-.36-1.72,3.81,3.81,0,0,1,.36-1.72c.28-.68.64-.84,1-1.4a7.59,7.59,0,0,1,1.4-1,4.24,4.24,0,0,1,1.72-.32,3.76,3.76,0,0,1,1.72.32,2.46,2.46,0,0,1,1.4,1,4.18,4.18,0,0,1,.92,1.4,13.34,13.34,0,0,1,.32,1.76A4.34,4.34,0,0,1,106.23,99.57Zm-1.88-1.72a2.42,2.42,0,0,0-.64-1.56,1.79,1.79,0,0,0-1.56-.64,2.21,2.21,0,0,0-1.52.64,1.82,1.82,0,0,0-.64,1.56,1.57,1.57,0,0,0,.64,1.52,1.71,1.71,0,0,0,1.52.68,1.61,1.61,0,0,0,1.56-.64A3.08,3.08,0,0,0,104.35,97.85Z" fill="#007130"/><path d="M117.55,115.8a2.56,2.56,0,0,1-.8,1.6A3,3,0,0,1,115,118a2.55,2.55,0,0,1-1.72-.56,1.87,1.87,0,0,1-.76-1.6c0-.72,0-1.32,0-2a16,16,0,0,0,0-2c0-.8,0-1.28,0-2a6.7,6.7,0,0,1,0-2,10.69,10.69,0,0,1,0-2,6.37,6.37,0,0,1,0-2,16.67,16.67,0,0,0,0-2,8.37,8.37,0,0,1,0-2,2.41,2.41,0,0,1,.76-1.6,2.34,2.34,0,0,1,1.72-.56c.76.12,1.28.12,1.72.56a2.37,2.37,0,0,1,.8,1.6,17.34,17.34,0,0,1,0,2c0,.76-.09,1.44,0,2a6.37,6.37,0,0,0,0,2,10.66,10.66,0,0,1,0,2,14.67,14.67,0,0,0,0,2,6.37,6.37,0,0,0,0,2c0,.56,0,1.16,0,2A9.52,9.52,0,0,0,117.55,115.8Zm15.35-4.56c0,.84-.08,1.44-.08,2a4.62,4.62,0,0,1-.2,2,13.37,13.37,0,0,0-.32,2c0,.64-.52,1.44-.52,2-.36.76-.28,1.32-.68,1.88-.32.8-.68,1.36-.88,1.8a11.43,11.43,0,0,0-1.08,1.68,5.65,5.65,0,0,1-1.28,1.6,4.61,4.61,0,0,1-1.6,1.56c-.32.44-.76.44-.92.8a6.65,6.65,0,0,0-1,.72,8.78,8.78,0,0,0-1,.68,3.1,3.1,0,0,0-1,.64,12.91,12.91,0,0,1-2.08.88,2.52,2.52,0,0,1-2.36-.6,2.3,2.3,0,0,1-.83-1.72,2.68,2.68,0,0,1,.43-1.28c.13-.16.76-.6,1.09-.88a4.89,4.89,0,0,1,1.07-.6,6.34,6.34,0,0,0,1.08-.64c.16-.16.76-.44,1-.64s.56-.4,1-.76a5.84,5.84,0,0,0,1.12-1.08c.52-.2.64-.8,1-1.2a12.3,12.3,0,0,1,.88-1.32,11.84,11.84,0,0,1,.72-1.4,19.79,19.79,0,0,1,.68-2,4.24,4.24,0,0,0,.48-2.12c0-.56.2-1.4.2-2.16a9.59,9.59,0,0,0,.08-2.16c0-1,0-1.75,0-2.84a23.45,23.45,0,0,0,0-2.91c0-1,.12-1.8,0-2.88,0-.8,0-2,0-3a1.79,1.79,0,0,1,.8-1.56,2.37,2.37,0,0,1,1.72-.52,2.82,2.82,0,0,1,1.68.56,1.79,1.79,0,0,1,.76,1.52c0,1.16.08,2.24,0,3,0,1.12,0,2,0,3s0,2.16,0,3C133,109.32,132.82,110.28,132.9,111.24Z" fill="#007130"/><path d="M148.37,100a3.48,3.48,0,0,1-.12,1.52c-.12.44-.2,1.12-.32,1.44a5.23,5.23,0,0,0-.32,1.68c0,.56-.4,1.27-.28,1.72-.24.67,0,1.2-.2,1.71a8,8,0,0,0-.2,1.72,6.49,6.49,0,0,0-.16,2.12c0,.68-.16,1.32-.16,2.16s-.08,1.44-.08,2.08a7.47,7.47,0,0,1,0,2.12c0,1.2,0,1.84.08,3,0,.4,0,.84.12,1.48a6.86,6.86,0,0,0,.12,1.48,4.94,4.94,0,0,0,.16,1.44c.12.4,0,.88.16,1.48a2.23,2.23,0,0,1,.08,1.2,1.74,1.74,0,0,1-.8,1.4,3.22,3.22,0,0,1-1.6.56,4.31,4.31,0,0,1-1.36-.36,3.62,3.62,0,0,1-.92-1.08,8.48,8.48,0,0,1-.4-2.12,5.65,5.65,0,0,0-.12-1.48,5.11,5.11,0,0,1-.12-1.6,7.62,7.62,0,0,0-.08-1.6,3.21,3.21,0,0,0-.08-1.52,7.05,7.05,0,0,1,0-2.24,16,16,0,0,1,0-1.92,5.44,5.44,0,0,0,0-2c0-.56.2-1.32.12-1.92a5.25,5.25,0,0,1,.12-1.92,9.92,9.92,0,0,1,.2-2,14.66,14.66,0,0,0,.24-1.91,12.54,12.54,0,0,1,.24-1.92,12.25,12.25,0,0,0,.28-1.92,7.37,7.37,0,0,0,.28-1.76,5,5,0,0,1,.48-1.76,4,4,0,0,1,.88-1A1.42,1.42,0,0,1,146,98a3.09,3.09,0,0,1,1.64.56A2.22,2.22,0,0,1,148.37,100Zm24.51,24.31a4.93,4.93,0,0,1-.32,1.24,1.92,1.92,0,0,1-.92.8,5.28,5.28,0,0,1-1.64.44c-.84.12-1.4.12-2.08.28-.72,0-1.36.12-2.12.12a8.39,8.39,0,0,1-1.72.08c-.84-.08-1.6-.08-2.36-.08a4.54,4.54,0,0,1-2.44-.32c-.68-.36-1.52-.28-2.28-.76-.44-.24-.68-.16-1-.6a2.78,2.78,0,0,1-.91-.76c-.48-.44-.77-.68-.84-1-.37-.16-.44-.92-.6-1.16a4.45,4.45,0,0,1-.56-2.6,1.9,1.9,0,0,1,.68-1.76,2.16,2.16,0,0,1,1.75-.72,1.82,1.82,0,0,1,1.4.48c.52.4.48.72.72,1.28a10,10,0,0,0,.52,1.56,2.89,2.89,0,0,0,1.12,1.08,4.33,4.33,0,0,0,2.36.6,5.89,5.89,0,0,0,2.52.08,12.16,12.16,0,0,0,2.64-.08,9.56,9.56,0,0,0,2.64-.36,4.17,4.17,0,0,1,1.68-.12,2.36,2.36,0,0,1,1.2.64A3,3,0,0,1,172.88,124.32Zm-18.2-19.59a1.37,1.37,0,0,1,.32-1.24,2,2,0,0,1,1-.84,6.52,6.52,0,0,1,2.76-.28,3.47,3.47,0,0,0,1.56-.08,3.11,3.11,0,0,0,1.6-.08c.32-.12,1.08,0,1.6-.16a7.64,7.64,0,0,1,1.56-.16c.68-.08,1.2-.2,1.72-.24a11.85,11.85,0,0,0,1.8-.08,2.74,2.74,0,0,1,1.44.72,2.62,2.62,0,0,1,.56,1.48,2.8,2.8,0,0,1-.52,1.48,3.43,3.43,0,0,1-1.28.75c-.4.25-1,.08-1.6.33a11.48,11.48,0,0,0-1.44.12,9.25,9.25,0,0,1-2.84.24c-1.12.11-1.84.15-2.88.19a10.42,10.42,0,0,1-2.92.08,4.19,4.19,0,0,1-1.72-.59A2.38,2.38,0,0,1,154.68,104.73Z" fill="#007130"/><path d="M192.15,119.72a14.71,14.71,0,0,0-.28,2.32,16.59,16.59,0,0,1-.4,2.32,16.29,16.29,0,0,0-.52,2.12,7.46,7.46,0,0,1-.84,2c-.48.52-.92,1-1.48,1.6a6.22,6.22,0,0,1-1.92.84,7.62,7.62,0,0,1-2.08.24,11.37,11.37,0,0,1-2.24-.12,6.84,6.84,0,0,1-2.2-.52,3.2,3.2,0,0,1-1.2-2,6.37,6.37,0,0,1,.56-1.6,2,2,0,0,1,1.52-.72,15.76,15.76,0,0,0,2,.28,2,2,0,0,0,1.32.12,3.82,3.82,0,0,0,1.28-.28c.44-.08.44-.32.68-1a5.5,5.5,0,0,0,.48-1.8,3.82,3.82,0,0,0,.36-1.8c.12-.76.16-1.2.24-1.84a6.72,6.72,0,0,1,.16-1.84c.16-.84-.4-1-1.24-.92a3,3,0,0,1-1.68,0,10.77,10.77,0,0,0-2.28,0,1.93,1.93,0,0,0-1.76.48l-1.52,1.08a2.42,2.42,0,0,1-1.56.52,2,2,0,0,1-1.6-.56,1.11,1.11,0,0,1-.52-1.52,5,5,0,0,1,.48-2.28,15.56,15.56,0,0,1,.48-2.2,12.29,12.29,0,0,1,.48-2.24,6.87,6.87,0,0,0,.48-2.19c-.12-.41.4-1,.44-1.37a11.46,11.46,0,0,1,.92-1.15,11.28,11.28,0,0,1,1.4-.56c.36,0,.92-.08,1.48-.12a6.65,6.65,0,0,0,2.52,0,8.86,8.86,0,0,1,2.52,0c.52.2.88-.08,1-.76,0-1,0-1.72,0-2.84.2-.44-.52-.56-1-.72a5.46,5.46,0,0,1-2.28,0c-.84,0-1.6.08-2.28,0a10.83,10.83,0,0,1-2.28,0,22.2,22.2,0,0,0-2.36,0c-.48.16-1-.36-1.16-.68-.32-.48-.6-.68-.4-1.32.08-.28,0-1,.4-1.36,0-.36.76-.52,1.16-.68.88-.08,1.56,0,2.56,0s1.64.12,2.48,0a13.24,13.24,0,0,0,2.52,0,10.28,10.28,0,0,0,2.48,0,12.21,12.21,0,0,1,2.08.2,3.77,3.77,0,0,1,1.84,1c.12.48.6.88.68,1.24a4.43,4.43,0,0,1,.16,1.4,17.07,17.07,0,0,1,0,2.48c-.12.92,0,1.88,0,2.48a2.5,2.5,0,0,1-.2,1.39c0,.37-.28,1.12-.72,1.25a1.77,1.77,0,0,1-1.52.71A4.75,4.75,0,0,1,188,109a7.57,7.57,0,0,1-2.6,0,24.13,24.13,0,0,1-2.56,0c-.64.21-1.12.21-1.16.8-.28.64-.16,1.28-.44,2.12-.36.52.28,1.36.88,1.36,1-.16,1.48.16,2,0a7.7,7.7,0,0,0,1.68,0,11.64,11.64,0,0,1,1.68,0c.72.2,1.44-.08,2.16.2.56.4,1.44.6,1.84,1.08.4.32.4.8.68,1.36.16.4-.08,1,.12,1.52C192.31,118.2,192.07,119,192.15,119.72Zm14.2,7.48a6.77,6.77,0,0,0,0,2c.12.6-.48,1.28-.72,1.52a1.86,1.86,0,0,1-1.6.56c-.52.2-1.08-.2-1.6-.56-.4-.52-.88-.88-.76-1.52a11.12,11.12,0,0,0,0-2,3.89,3.89,0,0,1,0-1.92,4.61,4.61,0,0,0,0-2,8,8,0,0,1,0-2,5.37,5.37,0,0,1,0-2c0-.72,0-1.28,0-2s.12-1.24,0-2a4,4,0,0,1,0-2,5.3,5.3,0,0,1,0-2,4.06,4.06,0,0,1,0-2,10.69,10.69,0,0,1,0-2,5.32,5.32,0,0,1,0-2,10.65,10.65,0,0,0,0-2c-.08-.64.08-1.12,0-1.92a5.35,5.35,0,0,0,0-2,11.13,11.13,0,0,1,0-2,1.88,1.88,0,0,1,.76-1.52,6.26,6.26,0,0,1,1.6-.52,2,2,0,0,1,1.6.52,3.17,3.17,0,0,1,.72,1.52,10.43,10.43,0,0,0,0,2,5.38,5.38,0,0,0,0,2c.08.8,0,1.24,0,1.92.12.84-.2,1.2,0,2,.16.48-.12,1.52,0,2a8,8,0,0,0,0,2,15.78,15.78,0,0,0,0,2,15.84,15.84,0,0,1,0,2,8,8,0,0,0,0,2,16,16,0,0,0,0,2c-.08.6,0,1.52,0,2-.2.48.08,1.48,0,2-.12.76.08,1.36,0,2a4.59,4.59,0,0,1,0,2C206.27,126,206.47,126.52,206.35,127.2Z" fill="#007130"/><path d="M241.53,108.45a1.56,1.56,0,0,1-.8,1.47,4,4,0,0,1-1.72.72,11.19,11.19,0,0,0-1.48.4,3.91,3.91,0,0,1-1.52.4,7.69,7.69,0,0,1-1.76.4c-.68.24-.6,1.12-.36,1.56a7,7,0,0,0,1,1.56,8,8,0,0,0,1.08,1.36c.44.56.68.72,1.08,1.32a5.56,5.56,0,0,1,1.12,2,2.63,2.63,0,0,1-.56,2,2.78,2.78,0,0,1-1.6.64,3.43,3.43,0,0,1-1.08-.2c-.28.12-.72-.2-1.08-.36a6.74,6.74,0,0,0-1.84-.52c-.48-.12-1.16-.2-1.92-.36a10.5,10.5,0,0,0-1.92-.24c-.68,0-1.44-.08-1.92,0s-1.12,0-1.84,0-1.36.36-2,.4a3.37,3.37,0,0,0-1.68.88c-.6.4-.68.88-.64,1.68a3.46,3.46,0,0,0,.84,1.76,5.69,5.69,0,0,0,2,1c.68.4,1.68.12,2.48.32.72,0,1.52,0,2.08.08a5.28,5.28,0,0,0,2-.08,6,6,0,0,0,2-.08,3.44,3.44,0,0,1,1.72.52,2.32,2.32,0,0,1,.72,1.64,1.52,1.52,0,0,1-.4,1.2,2.1,2.1,0,0,1-1,.76,7.39,7.39,0,0,1-2.48.36c-1-.08-2.12.24-2.52,0a6.25,6.25,0,0,1-1.92,0,3.63,3.63,0,0,1-1.92-.16,12.24,12.24,0,0,1-1.88-.32A6.34,6.34,0,0,1,220,130a4.11,4.11,0,0,1-2-1,4.16,4.16,0,0,1-1.6-1.52,5.3,5.3,0,0,1-.92-1.84,6.54,6.54,0,0,1-.28-2,4.74,4.74,0,0,1,.28-2,5.77,5.77,0,0,1,.8-1.56c.2-.64.68-.68,1.2-1.24.56-.2.92-.72,1.52-.92s1-.6,1.72-.64c.8-.36,1.12-.12,1.88-.44.44-.2,1.2,0,1.84-.2a3.75,3.75,0,0,0,1.76,0,19.31,19.31,0,0,1,2.84.2c.6.12,1.2.16,1.44-.16s-.08-1-.44-1.56a8.69,8.69,0,0,0-1-1.44,2.74,2.74,0,0,0-1.56-.6,8.45,8.45,0,0,0-1.8.32c-.6.12-.88.08-1.52.2a15.2,15.2,0,0,1-1.52.16,5.87,5.87,0,0,1-1.56.16,6.87,6.87,0,0,0-1.56.16c-.44-.08-1,.32-1.52.16a3.82,3.82,0,0,1-1.64,0,1.49,1.49,0,0,1-1.52-.6,2.23,2.23,0,0,1-.6-1.52c-.16-.44.37-1,.52-1.44a5.63,5.63,0,0,1,1.36-.64c.44-.08.92.09,1.32-.08a11.76,11.76,0,0,0,2.36-.2c.6-.2,1.64,0,2.36-.24a12.54,12.54,0,0,0,2.8-.35c.32,0,.8,0,1.08-.57a2.18,2.18,0,0,0-.24-1.68,1.91,1.91,0,0,0-2.2-1.35,19.28,19.28,0,0,1-2.72.35,5.22,5.22,0,0,1-2.08.25,3.64,3.64,0,0,1-2,.12c-.52.2-1-.25-1.47-.6-.37-.56-.76-.92-.61-1.52a1.86,1.86,0,0,1,.48-1.4,2.73,2.73,0,0,1,1.28-.64,11.61,11.61,0,0,0,2.16-.16,6.15,6.15,0,0,0,1.88-.2c.64-.08,1-.08,2.08-.28a.85.85,0,0,0,.76-1A4.72,4.72,0,0,0,223,99a12.84,12.84,0,0,1-.44-2.16c.08-.68.16-1.12.76-1.36a1.88,1.88,0,0,1,1.56-.44,1.94,1.94,0,0,1,2,1.2,11.22,11.22,0,0,1,.36,1.24,9.47,9.47,0,0,0,.56,1.88,2.7,2.7,0,0,0,1.4.84,4.27,4.27,0,0,0,2.2-.32,4.6,4.6,0,0,1,1.64-.32,5.46,5.46,0,0,1,1.68-.44c.48-.2.8-.36,1-.2a1.79,1.79,0,0,1,1.48.64c.24.56.68,1,.6,1.48-.16.88-.28,1.28-1,1.64a14.29,14.29,0,0,1-2,.68,3.9,3.9,0,0,1-1.68.44,13.11,13.11,0,0,1-2.28.52c-.6.16-1.08.68-.64,1.75.24.41.68,1.45,1.08,1.53.28.39.6.31,1.08.27,1-.31,1.8-.2,2.44-.51a10.43,10.43,0,0,1,1.92-.49c.52-.11,1.24-.35,2-.55a2.27,2.27,0,0,1,2.08.55A1.79,1.79,0,0,1,241.53,108.45Z" fill="#007130"/><path d="M259.93,114c.08.76.48,1,.32,1.28s-.32,1.12-.64,1.24a1.61,1.61,0,0,1-1.32.48,1,1,0,0,1-1.08-.36c-.24-.12-.48-.52-1-1.08a1.56,1.56,0,0,0-1.76.88,15.88,15.88,0,0,0,0,2.8,9.53,9.53,0,0,0-.12,2,6.43,6.43,0,0,0,0,2,15.18,15.18,0,0,1,.12,1.84,5.08,5.08,0,0,0,0,1.92,6.18,6.18,0,0,0,0,1.92,10.84,10.84,0,0,1,0,2c.08.4-.2,1.12-.68,1.2a1.69,1.69,0,0,1-1.36.36,1.42,1.42,0,0,1-1.36-.4,1.29,1.29,0,0,1-.68-1.16,3.83,3.83,0,0,1,0-1.92,4.26,4.26,0,0,1,0-1.88,4.07,4.07,0,0,1,0-1.84,14.74,14.74,0,0,0,0-1.88,14.74,14.74,0,0,1,0-1.88c-.08-.72,0-1.12,0-1.84a20.55,20.55,0,0,0,0-2.24,1.8,1.8,0,0,0-1.52-1.24c-1,.16-1.2.16-1.44.08a2.71,2.71,0,0,1-2.24-.56c-.48-.16-.72-.68-.6-1.4,0-1.24.28-1.56,1.08-1.76a9.79,9.79,0,0,1,2.2-.2,11.16,11.16,0,0,0,1-1.6,4.94,4.94,0,0,0,1.12-1.72,6,6,0,0,1-.88-1.31c-.36-.44-.84-.77-1-1.32a11.32,11.32,0,0,0-1-1.24,9.86,9.86,0,0,1-1.08-1.12,8.71,8.71,0,0,1-.76-1.48,3.12,3.12,0,0,1,.6-1.32c.52-.16.92-.84,1.48-.56s1,.16,1.48-.44a5.62,5.62,0,0,0,.64-1.36,2.11,2.11,0,0,1,.48-1.16,1.73,1.73,0,0,0,.48-1.2,1.71,1.71,0,0,1,.76-1.08,1.73,1.73,0,0,1,1.24-.44c.48-.12.84.4,1.44.48a1.43,1.43,0,0,1,.64,1.32c.12.32-.28.72-.4,1.56a8.27,8.27,0,0,0-1,2.08,4.8,4.8,0,0,0-.56,1.12c-.4.52-.36.8-.8,1.44-.12.68-.16,1.48.52,1.52a5.1,5.1,0,0,0,.92-1.36c.12-.28.48-.84.56-1.08a3.89,3.89,0,0,1,.88-1.12c.36-.16.56-.48,1-.36a5,5,0,0,1,1.4.52,1.79,1.79,0,0,1,.68,1.32c.12.52-.4,1.24-.76,2a4.38,4.38,0,0,0-.76,1.44,3.11,3.11,0,0,1-.92,1.52c-.36.59-.64.92-1,1.59a10.61,10.61,0,0,1-.84,1.33c-.72.47-.52.63-.8,1s-.28.48.08.84.76,0,1.24-.16c1,0,.76-.72.6-.88a2.51,2.51,0,0,1,.36-1.88c.4-.16.6-.52,1.2-.52a1.69,1.69,0,0,1,1.52.84c-.12.64.32.84.68,1.16a4.82,4.82,0,0,0,.8,1.64A13.67,13.67,0,0,0,259.93,114Zm-10,5.64a7.24,7.24,0,0,1-.2,1.92,9.18,9.18,0,0,0-.32,2,19.76,19.76,0,0,1-.52,1.92,5.32,5.32,0,0,1-.64,1.84c-.28.92-1,1-1.72,1.16-.8-.08-2-.68-1.8-1.52,0-.52,0-.84.32-1.16a8.17,8.17,0,0,0,.68-2.36,7.28,7.28,0,0,1,.48-2.36c0-.8,0-2,.6-2.56a2.84,2.84,0,0,1,1.36-.6c.4.2,1,0,1.28.48A2.11,2.11,0,0,1,250,119.6Zm9.56,4.76a1.41,1.41,0,0,1-.44,1.36,1.19,1.19,0,0,1-1.32.56c-.72.2-1.08-.2-1.44-.8a1.78,1.78,0,0,1-.44-1.56,4.74,4.74,0,0,1-.24-1.6,10.6,10.6,0,0,0-.36-1.48,10.34,10.34,0,0,0-.36-1.6,4.37,4.37,0,0,1,.56-1.32c.4-.48.72-.32,1.08-.48.92,0,1.48.8,1.72,1.48.16.36.24,1,.4,1.36,0,.48.24.84.36,1.32C259.25,122.36,259.37,123.44,259.53,124.36Zm22.6,4.84a3.58,3.58,0,0,1-.45,1.36,1.13,1.13,0,0,1-1.23.6c-.65,0-1.45.12-2,0-.8.12-1.12-.08-1.84,0a5,5,0,0,1-1.88,0,4.43,4.43,0,0,1-1.92,0,14.61,14.61,0,0,1-1.88,0,14.71,14.71,0,0,1-1.88,0,9.4,9.4,0,0,0-1.84,0c-.8-.08-1.16,0-1.88,0a4.8,4.8,0,0,1-2.12-.2,8.08,8.08,0,0,1-1.88-1,2.07,2.07,0,0,1-.76-1.48c-.16-.68,0-1.12-.16-1.6s.16-1,0-1.88a9.31,9.31,0,0,0,0-1.84c-.08-.72.12-1.32,0-1.84a4.74,4.74,0,0,1,0-1.84,9.64,9.64,0,0,0,0-1.88,5.56,5.56,0,0,1,0-1.84,4.74,4.74,0,0,0,0-1.84,7.33,7.33,0,0,0,0-1.88c0-.4,0-1.28,0-1.84s0-1.4,0-1.87c-.12-.76.12-1.33,0-1.84a4.86,4.86,0,0,0,0-1.88c0-.72,0-1,0-1.84s.12-1.28,0-1.84a7.05,7.05,0,0,1,0-1.84,4.48,4.48,0,0,1,0-1.92c-.16-.68.28-.84.68-1.32.48-.16.8-.24,1.48-.44.64.16.84,0,1.44.48.56.12.56.92.68,1.28,0,.72.08,1.44,0,1.88a12.89,12.89,0,0,0,0,1.76c.08.68-.16,1.4,0,1.8a4.54,4.54,0,0,1,0,1.8c.08.6,0,1.08,0,1.84s-.12,1.39,0,1.79a3.89,3.89,0,0,0,0,1.8c.16.44-.08,1.28,0,1.8-.2.56.08,1.4,0,1.8a9.42,9.42,0,0,0,0,1.84,13.5,13.5,0,0,0,0,1.8c.12.68-.08,1.24,0,1.8a3.91,3.91,0,0,0,0,1.8,2.74,2.74,0,0,0,0,1.8,3.91,3.91,0,0,0,0,1.8,3.73,3.73,0,0,0,0,1.76c0,1.2.48,1.12,1.56,1.16.72-.08,1.08,0,1.72,0a12.91,12.91,0,0,1,1.76,0,3.74,3.74,0,0,1,1.76,0c.48-.12,1.2.08,1.76,0a3.74,3.74,0,0,0,1.76,0,3.28,3.28,0,0,1,1.76,0,3.13,3.13,0,0,0,1.72,0,5.61,5.61,0,0,1,1.84,0c.35-.16.88.44,1.23.6A2.16,2.16,0,0,1,282.13,129.2ZM269.77,113c.08-.44-.08-1.28-.72-1.4-1,0-1.44-.12-2.08,0-.56-.16-.92-.32-1-.6a6.79,6.79,0,0,1-.44-1.24c.32-.63.32-1.68,1.4-1.84a16.71,16.71,0,0,1,2.64,0c.48.16.6-.2,1-.67s.68-1,.52-1.32c0-.68,0-1.52,0-2a2.91,2.91,0,0,1,0-1.44c-.12-.92.08-2,0-2.8a17.13,17.13,0,0,1,0-2.84c-.12-.44.32-.76.64-1.2a11,11,0,0,1,1.36-.44c.28-.08,1,.32,1.36.44.52.16.64.6.64,1.2a22.91,22.91,0,0,0,0,2.84c-.08,1.12.12,2,0,2.8,0,.28-.2,1,0,1.44a10.63,10.63,0,0,0,0,2,1.44,1.44,0,0,0,.52,1.32,2.8,2.8,0,0,0,1,.67,7.82,7.82,0,0,0,2.72,0c.31-.08,1,.41,1.08.6.35.28.15.8.35,1.24s-.24.84-.35,1.24c-.4.56-.49.64-1.08.6a7.68,7.68,0,0,1-2.72,0c-.68,0-1.6.72-1.52,1.36a11,11,0,0,0,1.36,1.28c.44.36.56.72,1,.88a1.49,1.49,0,0,0,.92.92c.2.2.4.44.84.92s.36.72.71,1a2.69,2.69,0,0,1,.68,1.68c-.15.6-.15,1.08-.59,1.28a1.17,1.17,0,0,1-1.28.52c-.77.2-1.32-.48-1.76-1.12s-.88-1.08-1.28-1c-.84.2-.76,1.44-.56,2a3.53,3.53,0,0,0,0,1.84,15.06,15.06,0,0,0,0,1.88,2.16,2.16,0,0,1-.64,1.24c-.32.12-.88,0-1.36.16s-1.12-.28-1.36-.16c-.32-.28-.8-.68-.64-1.24.12-.92-.12-1.84,0-2.88.08-.44,0-.76.08-1.36s.36-1.68-.12-1.8c-.28-.08-.52.76-.88,1-.2.56-.44.4-.4.68s-.56.32-.68,1c-.28.52-.72.64-.88,1a3.05,3.05,0,0,1-1.24.44,5.75,5.75,0,0,1-1.2-.48,1.58,1.58,0,0,1-.56-1.2,1.77,1.77,0,0,1,.52-1.44c.08-.28.56-.64.68-.92a8.1,8.1,0,0,0,1.2-1.76,14.17,14.17,0,0,1,1-1.88,2.54,2.54,0,0,0,.52-1A1.75,1.75,0,0,1,269.77,113Zm-4-11.27c-.28-1,.2-1.2.44-1.72a2.49,2.49,0,0,1,1.24-.52,1.51,1.51,0,0,1,1.72,1.2c.36.64.52,1.32.88,1.84.16.56.52,1.48.6,2a1.38,1.38,0,0,1-.4,1.51,1.58,1.58,0,0,1-1.48.65c-.92,0-1.2-.56-1.6-1.2a4.37,4.37,0,0,0-.68-2C266.17,103,266.13,102.29,265.77,101.77Zm9.72,3.6c0-.32.32-.76.44-1.48.24-.44.68-.88.68-1.4a5,5,0,0,0,.4-1.24,6.14,6.14,0,0,1,.52-1.28,2.05,2.05,0,0,1,1.52-.84,4.33,4.33,0,0,1,1.32.44c.39.2.47.68.63,1.2a6.86,6.86,0,0,1-.51,1.84,6.17,6.17,0,0,0-.49,1.16c-.24.52-.51.8-.47,1.16-.32.44-.57,1.07-.8,1.36a1.27,1.27,0,0,1-1.4.59c-.56,0-.76-.31-1.16-.43S275.65,105.65,275.49,105.37Z" fill="#007130"/><path d="M292,98.21a1.78,1.78,0,0,1,.8,1.52,7,7,0,0,1-.52,2.56c0,.72-.44,1-.36,1.68.08.4-.32,1.32-.28,1.68a6.77,6.77,0,0,0-.24,1.72c0,.67-.28,1.35-.2,1.71a9.86,9.86,0,0,1-.12,1.72,5.33,5.33,0,0,0-.12,1.72,13,13,0,0,0-.08,1.72c-.08.52,0,1.36,0,1.72a9.61,9.61,0,0,0,0,2.4,17.51,17.51,0,0,1,.16,2.36,7.9,7.9,0,0,1,.24,2.4,10.62,10.62,0,0,0,.4,2.4,3.18,3.18,0,0,1-.68,2.16,2,2,0,0,1-1.68.68,1.38,1.38,0,0,1-1.28-.32c-.32,0-.6-.56-.88-1a11,11,0,0,1-.6-2.28c-.24-.32-.12-1.16-.2-1.52a3.9,3.9,0,0,1-.16-1.64,3.81,3.81,0,0,1-.12-1.64c0-.4-.08-1.12-.08-1.56a16.38,16.38,0,0,0,0-2.44,3,3,0,0,1,0-1.76,3.94,3.94,0,0,1,0-1.8,3.11,3.11,0,0,1,.12-1.72,6.6,6.6,0,0,1,.16-1.8,3.77,3.77,0,0,1,.2-1.75,11.53,11.53,0,0,0,.24-1.76c0-.6.24-1,.28-1.76a4.94,4.94,0,0,0,.32-1.72,4.3,4.3,0,0,1,.32-1.48,4.63,4.63,0,0,1,.44-1.48c.2-.52.48-.92.92-1a1.44,1.44,0,0,1,1.28-.32A5.3,5.3,0,0,1,292,98.21Zm25.6,9c-.2.91-.24,1.47-.88,1.67-.48.48-1.24.41-1.92.6a6.54,6.54,0,0,0-1.76.32,2.13,2.13,0,0,0-1.12.88,2.93,2.93,0,0,0-.6,1.44,17,17,0,0,1,0,2,9.78,9.78,0,0,0,0,1.52c0,1-.32,1.72-.32,2.8a7.72,7.72,0,0,1-.24,1.44,9.38,9.38,0,0,0-.32,1.4c-.2.56-.48,1.56-.72,2.36-.36.24-.28,1-.52,1.28-.32.56-.32.92-.6,1.32a3.23,3.23,0,0,1-.68,1.24,6.8,6.8,0,0,1-.72,1.2,5.45,5.45,0,0,0-.76,1c-.24.28-.76.64-.88.88a1.67,1.67,0,0,1-1.6.56,2.36,2.36,0,0,1-1.64-.64,1.61,1.61,0,0,1-.72-1.56,3.06,3.06,0,0,1,.64-1.68,5,5,0,0,1,.92-1.2,3.33,3.33,0,0,1,.8-1.2,4.45,4.45,0,0,0,.68-1.28,2.69,2.69,0,0,0,.6-1.32c.16-.56.52-1.64.72-2.24.12-.88.32-1.6.48-2.36a21.85,21.85,0,0,0,.24-2.36c.08-.92.08-1.56.08-2.4a3,3,0,0,0-.44-1.56,2.47,2.47,0,0,0-1.44-.72c-1,0-1.76,0-2.52,0s-1.12,0-2,0c-.64-.16-1.36-.08-2-.24a1.26,1.26,0,0,1-1.12-.76,5.91,5.91,0,0,1-.28-1.31,1.88,1.88,0,0,1,.64-1.64,2.09,2.09,0,0,1,1.48-.52,6,6,0,0,0,1.68,0,9.9,9.9,0,0,0,1.56,0c.72-.08,1.68,0,2.8,0a2,2,0,0,0,1.56-1.52c0-.88-.08-1.6,0-2.2,0-.28-.12-.88-.16-1.2.08-.84-.2-1.68-.16-2.32a2.14,2.14,0,0,1,.68-1.48,3.38,3.38,0,0,1,1.64-.56,2.34,2.34,0,0,1,1.72.6,1.93,1.93,0,0,1,.64,1.4,9.69,9.69,0,0,1,.08,1.56c.12.52,0,1.16.08,1.8a6.84,6.84,0,0,0,.16,2.08,1.74,1.74,0,0,0,1.64,1,10,10,0,0,0,1.84-.32,4.56,4.56,0,0,1,1-.08c.48-.08.88.24,1.36.68A2.77,2.77,0,0,1,317.61,107.17Zm-5.76-9.32c-.6-1.24-.32-1.68.08-2.12a2.18,2.18,0,0,1,1.24-.52,1.93,1.93,0,0,1,1.52.92,12.53,12.53,0,0,0,.84,1.64,8.76,8.76,0,0,1,.68,1.52,13.31,13.31,0,0,0,.44,1.64,1.4,1.4,0,0,1-.52,1.32,1.54,1.54,0,0,1-1.16.48c-.64.2-1.32-.48-1.6-1.16s-.52-1.12-.72-1.88C312.53,99.13,312.05,98.53,311.85,97.85Zm9,2.4a1.75,1.75,0,0,1-1.16.64,1.73,1.73,0,0,1-1.68-1.36,12.07,12.07,0,0,1-.84-1.92,11.2,11.2,0,0,1-1-2,1.25,1.25,0,0,1,.36-1.68,1.21,1.21,0,0,1,1.08-.48,2.22,2.22,0,0,1,1.44.68c.28.48.56,1.32.92,2a13,13,0,0,1,.72,1.8A2.3,2.3,0,0,1,320.89,100.25Z" fill="#007130"/><path d="M352.3,123.52a2,2,0,0,1,.76,1.72,2.39,2.39,0,0,1-.72,1.72,2.66,2.66,0,0,1-1.72.76c-.72.2-1.36-.4-2-.8a5,5,0,0,0-1.64-1c-.72-.48-1.28-.68-1.68-.92-.72-.08-1.16-.72-2-1a1,1,0,0,0-1.44.76,4.17,4.17,0,0,1-.68,1.8,11.84,11.84,0,0,1-1,1.28,2.43,2.43,0,0,1-1.28,1,3.64,3.64,0,0,1-1.28.6,2.7,2.7,0,0,1-1.36.4,7.64,7.64,0,0,1-2.84.28,9,9,0,0,1-2.76-.28c-.4-.16-1.08-.2-1.32-.36s-.92-.24-1.28-.6c-.56-.12-.8-.52-1.24-.92a3.85,3.85,0,0,0-.92-1.2c-.36-.36-.36-1-.6-1.4a2.17,2.17,0,0,1-.2-1.52,3.07,3.07,0,0,1,.2-1.52,3.64,3.64,0,0,1,.6-1.36c.16-.48.6-.6.92-1.16.2-.32.84-.52,1.2-.92.52-.16.68-.48,1.4-.64.48-.12,1-.24,1.44-.4a5.65,5.65,0,0,1,1.48-.24c.44,0,1.12,0,1.48,0,.6-.16.92,0,1.92.08.72,0,1.08-.4,1-1.36,0-.56-.08-1.2-.12-1.48s-.68-1.08-1-1.08a7.55,7.55,0,0,0-1.28,0c-.36,0-.8,0-1.36,0a16.69,16.69,0,0,1-2,0c-.52-.16-1.48.16-2-.12-.76-.16-1.12,0-1.44-.28a1.25,1.25,0,0,1-1-.8,4.69,4.69,0,0,1-.36-1.24,1.68,1.68,0,0,1,.52-1.48A1.64,1.64,0,0,1,328,109c.88-.12,1.92.29,2.72.17a5.24,5.24,0,0,1,1.8.08,6.84,6.84,0,0,1,1.28,0c.64,0,.92,0,1.36,0a1.26,1.26,0,0,0,1.16-1.45,10.13,10.13,0,0,0-.12-1.76,1.22,1.22,0,0,0-1.12-.79c-.56,0-1.36.08-1.88,0a4.67,4.67,0,0,1-1.84,0,4.75,4.75,0,0,1-1.8.08,8.53,8.53,0,0,1-2.84.12,4.33,4.33,0,0,1-1.52-.68c-.48-.32-.56-.76-.6-1.56a2.32,2.32,0,0,1,.44-1.44c.2-.32.56-.4,1-.64.72-.36,2-.08,2.84-.28.52-.08,1.64,0,2.32-.08.44,0,1.4,0,1.84,0,.24,0,.72,0,1.72,0a1.47,1.47,0,0,0,1.32-1.48,16.69,16.69,0,0,1,0-2.56c.08-.52.32-1.24.76-1.4a2.41,2.41,0,0,1,1.56-.44,2.26,2.26,0,0,1,1.56.48,1.82,1.82,0,0,1,.72,1.36v1.68a3,3,0,0,0,.32,1.72,1.61,1.61,0,0,0,1.08.48c.8.08,1,0,1.48,0a12.92,12.92,0,0,1,1.76,0,14.77,14.77,0,0,1,2.28,0,9.46,9.46,0,0,1,1.52,0,3,3,0,0,1,1.48.24,1.69,1.69,0,0,1,1,.84,2.49,2.49,0,0,1,.32,1.24,2,2,0,0,1-.6,1.52,2,2,0,0,1-1.48.6,11.52,11.52,0,0,1-2.44,0,5.71,5.71,0,0,0-1.92.08,14.48,14.48,0,0,1-1.8-.08c-.8.12-1.52,0-2,.12a1.24,1.24,0,0,0-.72,1,5.22,5.22,0,0,0,.08,1.55c0,.84.52,1.24,1.36,1.28a10.82,10.82,0,0,0,2.36-.2c.48,0,1,0,1.4-.12,1,.08,1.8-.31,2.84-.24a3.41,3.41,0,0,1,1.4.69,1.94,1.94,0,0,1,.56,1.47,2.55,2.55,0,0,1-.4,1.28,1.4,1.4,0,0,1-1,.72,16.37,16.37,0,0,1-2.56.44c-.48.12-1.2.08-1.92.2a9.73,9.73,0,0,1-1.52.12,2.59,2.59,0,0,0-1.76.44,2,2,0,0,0-.32,1.68,7.64,7.64,0,0,0,.32,2.28,3.36,3.36,0,0,0,.84.72,2.08,2.08,0,0,0,1.2.52,1.56,1.56,0,0,0,1.2.56c.2.2.64.2,1.16.52.2.2.8.24,1.12.52s.68.28,1.12.56a2.54,2.54,0,0,1,1.08.56,5.1,5.1,0,0,0,1.08.64A10.67,10.67,0,0,1,352.3,123.52Zm-15.68,1.16a1.93,1.93,0,0,0,.4-2c-.4-.64-.8-.52-1.4-.64a10.63,10.63,0,0,0-1.8-.16,17.31,17.31,0,0,0-2.52.32,2.52,2.52,0,0,0-1,.64c-.36.4-.32.44-.36,1,.08.92.48,1.2,1.28,1.56a6.35,6.35,0,0,0,2.2.36,8.51,8.51,0,0,0,1.8-.24A3.69,3.69,0,0,0,336.62,124.68Z" fill="#007130"/><path d="M393.6,103.37a2.12,2.12,0,0,1-1.35,2.24,21.66,21.66,0,0,1-2.28,0,15.21,15.21,0,0,1-1.84,0c-.92.08-1.36,0-2.24,0a21,21,0,0,1-2.28.08,11.41,11.41,0,0,0-2.32,0,1.64,1.64,0,0,0-1.36,1.6c0,1,.08,1.39,0,1.67a11.12,11.12,0,0,0,.2,2.88,9.54,9.54,0,0,1,.6,1.56c.16.6.4,1.2.44,1.56a10,10,0,0,1,.24,1.48c0,.44.08,1.08.08,1.4a10.44,10.44,0,0,1-.24,2.68A4.85,4.85,0,0,1,381,122a3.68,3.68,0,0,0-.4,1.24,3.89,3.89,0,0,1-.52,1.28,5.58,5.58,0,0,1-.64,1.16c-.24.48-.6.76-.76,1.08a12.12,12.12,0,0,1-.92,1,11.2,11.2,0,0,1-1.2,1.12c-.56.48-1.28.72-1.72,1.28a14.88,14.88,0,0,1-1.84,1,4.32,4.32,0,0,1-1.72.44,1.55,1.55,0,0,1-1.64-.68,2.85,2.85,0,0,1-.72-1.64,2.73,2.73,0,0,1,.76-1.6,6.9,6.9,0,0,1,1.52-.88,10.44,10.44,0,0,0,1.68-1,5.35,5.35,0,0,0,1.52-1.12c.16-.2.48-.52.8-.88a.83.83,0,0,0,.32-1c-.12-.24-.48-.24-.88-.16s-.84,0-1.16,0a7.53,7.53,0,0,1-2.48-.44c-.52-.16-1-.24-1.2-.6a3.37,3.37,0,0,1-1-.84c-.48-.16-.68-.92-.92-1.2a3.63,3.63,0,0,1-.64-1.32c-.16-.28-.08-.76-.32-1.44,0-.64-.08-.8-.12-1.48a5.35,5.35,0,0,1,.44-2.68,6.85,6.85,0,0,0,.6-1.24,4.41,4.41,0,0,1,.84-1.08,2.78,2.78,0,0,1,1-.76c.48-.16.68-.43,1.08-.56a4.73,4.73,0,0,1,1.24-.32,14.37,14.37,0,0,1,1.6-.08c1,.08,1.76,0,1.76-.88,0-.67.08-.92-.28-1.35s-.76-.41-1.6-.32a14.78,14.78,0,0,0-1.52,0,8.48,8.48,0,0,0-1.52.08,18.62,18.62,0,0,0-3,.16,17.16,17.16,0,0,0-2.92.16,10.8,10.8,0,0,1-2.24.2,18.15,18.15,0,0,1-2.36.07,1.71,1.71,0,0,1-1.68-.67,2.76,2.76,0,0,1-.64-1.72,2.06,2.06,0,0,1,.8-1.76,5.7,5.7,0,0,1,2-.56,26.58,26.58,0,0,1,2.68-.08,11.54,11.54,0,0,0,2.24-.16c.68-.12,1.52,0,2.2-.08.92-.12,1.76-.08,2.68-.12.64-.12,1.2,0,1.68-.12s1.24,0,2-.08a2.27,2.27,0,0,0,1.36-1.84c.08-1.4-.08-2,0-3a1.65,1.65,0,0,1,.76-1.52,2.31,2.31,0,0,1,1.6-.56,2.12,2.12,0,0,1,1.88.84,2.88,2.88,0,0,1,.44,1.8c0,.88-.08,1.36,0,1.92a2.39,2.39,0,0,0,.28,1.32,1.5,1.5,0,0,0,1.32.8,14,14,0,0,0,2.24,0c.8-.08,1.08,0,2.12-.08a14.06,14.06,0,0,1,2.88,0,13.48,13.48,0,0,1,2.84,0c.72,0,1.11.44,1.51.68A2.23,2.23,0,0,1,393.6,103.37Zm-18.19,10.35a2.71,2.71,0,0,0-2-.92,2.25,2.25,0,0,0-1.6.84,2.05,2.05,0,0,0-.56,1.88,4.33,4.33,0,0,0,.72,2.08,2.49,2.49,0,0,0,1.88,1,1.61,1.61,0,0,0,1.8-.84,5.93,5.93,0,0,0,.48-1.8A3.17,3.17,0,0,0,375.41,113.72Z" fill="#007130"/></g></g></svg>