<svg xmlns="http://www.w3.org/2000/svg" width="566.12" height="30.24" viewBox="0 0 566.12 30.24"><title>ttl_h2</title><g id="レイヤー_2" data-name="レイヤー 2"><g id="レイヤー_2-2" data-name="レイヤー 2"><path d="M11.07,10.14a17.56,17.56,0,0,1-.57,1.95,4,4,0,0,1-.35,1,1.72,1.72,0,0,0-.36,1,5.44,5.44,0,0,0-.41,1c-.26.36-.19.71-.39.93a5.93,5.93,0,0,1-.44.93c-.32.22-.32.7-.45.9a8.75,8.75,0,0,1-.51.89c-.26.35-.29.74-.48.87-.16.41-.52.64-.52.83a2.27,2.27,0,0,0-.54.8,1.67,1.67,0,0,0-.54.77c-.23.38-.52.44-.58.73A15.15,15.15,0,0,0,3.78,24c-.35.35-.58.38-.8.61a1.61,1.61,0,0,1-1,.22,1.87,1.87,0,0,1-1.41-.58A1.86,1.86,0,0,1,0,22.88a2.53,2.53,0,0,1,.64-1.51c.26-.22.45-.67.87-1.05.22-.29.48-.67.83-1.06s.64-.73.73-1.09c.39-.32.42-.64.71-1.12a8.45,8.45,0,0,1,.8-1.37c.13-.42.64-1,.77-1.47A5.63,5.63,0,0,0,6,12.73c.32-.31.35-1,.57-1.5A12.19,12.19,0,0,0,7.11,9.7c.12-.29.41-.87.73-1A3,3,0,0,1,9,8.32a2.3,2.3,0,0,1,1.4.51A1.31,1.31,0,0,1,11.07,10.14Zm16.51,13.7a2.22,2.22,0,0,1-1.47.57A1.73,1.73,0,0,1,24.9,24c-.48-.16-.61-.61-.8-1a13.92,13.92,0,0,1-.61-1.41c-.06-.32-.42-.71-.51-1.12a6.55,6.55,0,0,0-.55-1.09c-.35-.26-.35-.64-.57-1.06s-.42-.57-.58-1.08c-.09-.29-.48-.64-.64-1s-.45-.61-.64-1a4.21,4.21,0,0,1-.64-1c-.38-.32-.35-.57-.67-1a3,3,0,0,0-.9-1.28,5.33,5.33,0,0,0-1-1.28,2.18,2.18,0,0,1-.38-1.12,2.09,2.09,0,0,1,.61-1.25,2.17,2.17,0,0,1,1.31-.48,3.51,3.51,0,0,1,1.73.84,4.59,4.59,0,0,1,.61.7c.19.16.35.51.57.73s.23.61.58.74c.06.35.48.54.54.77a4.6,4.6,0,0,0,.51.77c.23.25.23.57.55.8.13.41.22.64.48.8a1.18,1.18,0,0,0,.51.76c.19.26.29.48.48.8a2.58,2.58,0,0,0,.48.84c.22.44.42.54.48.83s.19.57.45.83c0,.29.25.51.45.86a2.06,2.06,0,0,1,.41.84,8.28,8.28,0,0,1,.8,1.79,9.36,9.36,0,0,1,.23,1A1.43,1.43,0,0,1,27.58,23.84Z" fill="#fff"/><path d="M34.82,9a3.38,3.38,0,0,1-1-1,1.51,1.51,0,0,1-.29-.9,2.23,2.23,0,0,1,.67-1.44A3.44,3.44,0,0,1,35.62,5a1.52,1.52,0,0,1,.93.23,4.38,4.38,0,0,1,.89.51c.2.22.64.41.83.61s.52.38.71.57.32.45.77.64a2.42,2.42,0,0,0,.77.67c.25.2.67.45.76.74.39.29.42.61.67.77a1.17,1.17,0,0,1,.36,1.18,2.74,2.74,0,0,1-.64,1.51,2.77,2.77,0,0,1-1.51.67,2.49,2.49,0,0,1-1.47-.64c-.22-.23-.67-.64-1-.9s-.51-.67-1-.89a3.15,3.15,0,0,0-1-.87A11.73,11.73,0,0,1,34.82,9Zm22.62,2.43c-.25.67-.73,1-.89,1.47a7.09,7.09,0,0,1-1,1.41,5.9,5.9,0,0,1-1,1.38c-.48.54-.64.93-1,1.31a11.79,11.79,0,0,1-1.12,1.28,14.89,14.89,0,0,1-1.15,1.22c-.39.32-.87.89-1.22,1.15-.35.54-1,.77-1.31,1.15s-1,.61-1.25,1-.89.58-1.31,1a5.34,5.34,0,0,1-1.34.93,3.85,3.85,0,0,1-1.41.86,6.22,6.22,0,0,0-1.41.77,11.91,11.91,0,0,1-1.47.74,4.73,4.73,0,0,1-1.47.67,15.47,15.47,0,0,1-1.54.64,2.05,2.05,0,0,1-.89.13,1.88,1.88,0,0,1-1.41-.61,2.35,2.35,0,0,1-.58-1.44A1.65,1.65,0,0,1,35.46,25a7.9,7.9,0,0,1,1.6-.77c.19-.13.42-.16.9-.38a2.15,2.15,0,0,1,.86-.42,8.27,8.27,0,0,1,.89-.45c.26-.09.45-.41.87-.44s.45-.29.86-.48a3.74,3.74,0,0,1,.83-.52c.36-.12.55-.48.84-.54a3.6,3.6,0,0,1,.8-.54c.16-.13.6-.29.8-.58a1.86,1.86,0,0,0,.76-.61c.13-.25.52-.25.77-.61s.51-.48.77-.64a2,2,0,0,0,.74-.64c.22-.06.32-.35.7-.67s.45-.61.7-.7c.2-.26.39-.61.68-.74.22-.35.83-.7,1.08-1.21.36-.29.64-.93,1-1.28a6.75,6.75,0,0,1,.92-1.35c.42-.51.48-.83.87-1.37s.61-.71.8-1.06c.38-.32.61-.57,1.21-.48A3.14,3.14,0,0,1,57.12,9a1.92,1.92,0,0,1,.64,1.35A3.45,3.45,0,0,1,57.44,11.42Z" fill="#fff"/><path d="M88.16,27a1.52,1.52,0,0,1-.67,1.41,2.14,2.14,0,0,1-1.44.58c-.7.16-1.18-.35-1.6-.77s-.48-.58-.8-.93-.42-.64-.8-.89a3.18,3.18,0,0,1-.83-.9c-.26-.35-.71-.58-.87-.86s-.6-.45-.86-.84a2.63,2.63,0,0,1-.89-.8,5.38,5.38,0,0,1-.93-.8c-.36-.28-.61-.41-1-.76a1.1,1.1,0,0,0-1.53,0,4,4,0,0,0-.77.8,4.39,4.39,0,0,1-.58.54c-.48.42-.7.83-1.12,1a7.11,7.11,0,0,1-1.15,1,5.78,5.78,0,0,0-1.18.9,4.37,4.37,0,0,0-1.22.86c-.45.42-1,.48-1.25.8a10.62,10.62,0,0,0-1.31.77,9.28,9.28,0,0,0-1,.54,3.33,3.33,0,0,1-1.12.26,1.91,1.91,0,0,1-1.34-.58,2.56,2.56,0,0,1-.58-1.37,1.5,1.5,0,0,1,.29-1,1.18,1.18,0,0,1,.7-.67,4.34,4.34,0,0,0,1-.58,5.72,5.72,0,0,0,1-.54,7.84,7.84,0,0,0,1-.55c.38,0,.51-.41.93-.61s.73-.54,1.28-.89a11.59,11.59,0,0,1,1.21-.93c.45-.26.8-.77,1.19-1s.67-.67,1.12-1c.25-.32.8-.64,1.08-1.12a4.15,4.15,0,0,0,1-1.12c.16-.44.64-.67,1-1.21s.57-.9.86-1.28c0-.39.22-.51.58-.9a6.18,6.18,0,0,0,.7-1.28,5.48,5.48,0,0,0,.67-1.28c.07-.25.26-.35.29-.64.23-.64-.29-.8-.67-.83s-1,.13-1.31,0a4,4,0,0,1-1.44,0,5.43,5.43,0,0,1-1.44,0c-.45,0-1.06.07-1.44,0-.55-.07-.93.16-1.44,0s-.9.16-1.44,0a4.19,4.19,0,0,1-1.41,0,8.76,8.76,0,0,0-1.5,0,2.1,2.1,0,0,1-1.19-.58c-.45-.35-.38-.73-.45-1.24a2.15,2.15,0,0,1,.42-1.28A1.44,1.44,0,0,1,67,6a5.89,5.89,0,0,1,1.64-.06c.41.12,1.12-.13,1.6,0a3.49,3.49,0,0,0,1.6,0,5.3,5.3,0,0,0,1.6,0,12.24,12.24,0,0,0,1.6,0c.63.1.89-.13,1.59,0,.68-.16,1,.13,1.6,0,.39-.1,1.06.09,1.57,0a6.12,6.12,0,0,1,1.73.19A3,3,0,0,1,83,6.72a2.43,2.43,0,0,1,.67,1.82,2.26,2.26,0,0,1-.12,1.09,6.25,6.25,0,0,0-.39,1.18c-.16.52-.38.8-.57,1.32a7.67,7.67,0,0,1-.71,1.34,3.81,3.81,0,0,1-.77,1.31c-.25.32-.57.87-.79,1.22s-.45.61-.74,1.12a1.16,1.16,0,0,0,.19,1.37,3.77,3.77,0,0,0,1.25.9c.45.35.73.61,1,.83a3.38,3.38,0,0,1,1,.83,10.94,10.94,0,0,0,1,.87c.22.48.64.48,1,.93.25.22.61.57.93.92a4.49,4.49,0,0,0,.92,1c.1.39.52.71.84,1A1.58,1.58,0,0,1,88.16,27ZM83.27,4.48c-.61-.8-.61-1.38,0-1.82a1.68,1.68,0,0,1,1-.42,1.65,1.65,0,0,1,1.25.67c.32.42.83.83.92,1.19.2.19.52.86.8,1.11a2.17,2.17,0,0,1,.48,1.32c0,.38-.09.76-.41.93-.39.38-.74.51-1,.41a1.28,1.28,0,0,1-1.19-.74,6.64,6.64,0,0,1-.89-1.34C83.81,5.12,83.46,4.74,83.27,4.48Zm7.93-.19a1.44,1.44,0,0,1-.41.92,4.05,4.05,0,0,1-.93.39c-.45.16-1-.32-1.28-.74-.35-.22-.29-.57-.58-.86s-.35-.58-.54-.74c-.39-.51-.67-.8-1-1.34a1.14,1.14,0,0,1,.2-1.5A1.12,1.12,0,0,1,87.52,0a1.54,1.54,0,0,1,1.12.45c.26.25.42.51.71.77l.8,1c.19.29.51.64.76,1.09A1.63,1.63,0,0,1,91.2,4.29Z" fill="#fff"/><path d="M115.65,10.05a3,3,0,0,1-.29,1.69,16,16,0,0,1-.64,1.86c-.25.77-.57,1.34-.73,1.79a3.67,3.67,0,0,1-.42.9c-.13.38-.38.6-.45.83s-.25.73-.45.86-.25.67-.51.83c-.19.32-.22.68-.51.8-.16.39-.22.71-.54.8-.29.39-.32.58-.58.8A3.2,3.2,0,0,1,110,22a7,7,0,0,0-.64.74,1.51,1.51,0,0,1-.6.73,3.32,3.32,0,0,1-.68.71,1.13,1.13,0,0,0-.67.7,2.1,2.1,0,0,0-.73.71,2.29,2.29,0,0,0-.8.7c-.29.38-.68.42-.83.74a7,7,0,0,0-.87.7,2.77,2.77,0,0,1-.9.67c-.22.39-.51.42-.89.64a2,2,0,0,0-.9.51,2.52,2.52,0,0,1-1,.48,1.9,1.9,0,0,1-1,.23,1.87,1.87,0,0,1-1.34-.58,2.06,2.06,0,0,1-.54-1.34,1.86,1.86,0,0,1,.28-1c.07-.26.58-.58.74-.74a10.78,10.78,0,0,1,1-.61,8.24,8.24,0,0,1,.9-.57c.41-.26.67-.45.89-.61.42-.07.55-.42.87-.64s.7-.71,1-.9a13.68,13.68,0,0,1,1-.93c.22-.25.73-.54,1-1a4.36,4.36,0,0,0,1-1c.13-.42.57-.58.86-1.09s.58-.8.83-1.12a7.05,7.05,0,0,0,.77-1.15c.22-.23.29-.71.67-1.22,0-.19.39-.48.48-1,.23-.29.35-.93.58-1.31a8.27,8.27,0,0,1,.54-1.31,2,2,0,0,0,.26-1,.66.66,0,0,0-.67-.64c-.71,0-1.28,0-1.76,0-.71-.07-1.25.12-1.8,0s-1.21.06-1.79,0a3.74,3.74,0,0,0-1.6.19,1.59,1.59,0,0,0-.64.57c-.22.29-.48.36-.54.74-.29.64-.86,1-1.12,1.44-.16.22-.54.48-.61.67a5.52,5.52,0,0,0-.61.67,6.48,6.48,0,0,1-.6.68,3.31,3.31,0,0,0-.68.64,2.43,2.43,0,0,1-1,.8,2.32,2.32,0,0,1-1.15.35,1.63,1.63,0,0,1-1.28-.51c-.38-.42-.64-.71-.57-1.25a2.89,2.89,0,0,1,.8-1.63,9.36,9.36,0,0,0,1.12-1.06c.16-.13.54-.7.83-.86a3.66,3.66,0,0,1,.83-1,1.92,1.92,0,0,0,.83-1.09,7.87,7.87,0,0,0,.83-1.09,4.73,4.73,0,0,1,.77-1.18,3.79,3.79,0,0,1,.67-1.09,5.62,5.62,0,0,0,.64-1.12,2.61,2.61,0,0,0,.55-1.12c.06-.32.48-.9.64-1.44a2.52,2.52,0,0,1,.76-.9,2,2,0,0,1,1.09-.35,2.32,2.32,0,0,1,1.35.48,2.1,2.1,0,0,1,.64,1.28,2.59,2.59,0,0,1-.52,1.54c-.06.41-.22.41-.44,1-.23.41-.13,1.15.51,1.12.8,0,1.31.06,1.73,0a8.24,8.24,0,0,0,1.5,0c.54-.07,1,.09,1.5,0a4,4,0,0,1,1.83.19,2,2,0,0,1,1.57.89,2.88,2.88,0,0,1,.54.9A3.69,3.69,0,0,1,115.65,10.05Z" fill="#fff"/><path d="M144.87,16.19a8,8,0,0,1-.55,1.44,11.58,11.58,0,0,1-.7,1.41c-.16.61-.64.89-.77,1.34-.45.45-.51.93-.93,1.25a9.07,9.07,0,0,1-1,1.18,11.09,11.09,0,0,0-1.05,1.12A5.93,5.93,0,0,1,138.72,25c-.51.42-.89.67-1.21,1-.61.38-.8.61-1.44,1-.45.29-.51.42-.83.52a2.29,2.29,0,0,1-.84.51,12.37,12.37,0,0,1-1.72.89,6.19,6.19,0,0,1-1.73.58,2.26,2.26,0,0,1-1.76-.51,1.83,1.83,0,0,1-.64-1.35,1.65,1.65,0,0,1,.38-1.12,3.31,3.31,0,0,1,1-.7c.26,0,.51-.26,1-.45.26-.06.58-.29,1-.41a3.54,3.54,0,0,0,1.44-.71,7,7,0,0,1,1.38-.89,9.42,9.42,0,0,0,1.34-1,6.27,6.27,0,0,0,1.28-1.12,6,6,0,0,0,1.16-1.25,10.84,10.84,0,0,1,1-1.34,5,5,0,0,0,.83-1.38,5.09,5.09,0,0,0,.64-1.44.77.77,0,0,0-.77-1,13.47,13.47,0,0,0-2,0,15.06,15.06,0,0,1-2,0,13.74,13.74,0,0,1-2,0c-.76,0-1.5.1-2,0-.83,0-1.38-.06-2,0s-1.25,0-2,0a14.55,14.55,0,0,1-2,0,20.62,20.62,0,0,0-2.08,0,1.41,1.41,0,0,1-1.22-.55,1.57,1.57,0,0,1-.45-1.24,2.77,2.77,0,0,1,.42-1.28,1.46,1.46,0,0,1,1.18-.55,15.55,15.55,0,0,0,2.15,0,9.26,9.26,0,0,0,2.11,0,6,6,0,0,0,2.11,0c.64-.07,1.35,0,2.11,0a9.5,9.5,0,0,0,2.15,0c.8-.09,1.5,0,2.11,0a9.39,9.39,0,0,1,2.08,0c.61.16,1.41-.13,2.11,0a11.31,11.31,0,0,1,1.5.1,4.72,4.72,0,0,1,1.48.51,3,3,0,0,1,1.08,1.12,3.89,3.89,0,0,1,.36,1.5A3.5,3.5,0,0,1,144.87,16.19ZM125.41,6a1.44,1.44,0,0,1,.45-1.25c.38-.35.51-.64,1.15-.57a7.76,7.76,0,0,1,1.79,0,4.79,4.79,0,0,0,1.73,0,4.34,4.34,0,0,0,1.76,0,5.2,5.2,0,0,1,1.76,0,6.09,6.09,0,0,1,1.76,0c.55.12,1-.07,1.73,0a9.41,9.41,0,0,1,1.76,0,5.93,5.93,0,0,0,1.79,0,2,2,0,0,1,1.18.54A2.24,2.24,0,0,1,142.72,6a1.37,1.37,0,0,1-.45,1.25c-.22.48-.7.54-1.18.54a16.54,16.54,0,0,0-1.79,0c-.55,0-1.28,0-1.76,0-.67.09-1.22-.07-1.73,0a14.76,14.76,0,0,0-1.76,0c-.57,0-1.28,0-1.76,0a6.91,6.91,0,0,1-1.76,0,4.79,4.79,0,0,1-1.73,0,17,17,0,0,1-1.79,0,1.53,1.53,0,0,1-1.15-.54A1.57,1.57,0,0,1,125.41,6Z" fill="#fff"/><path d="M174.5,9.57a6.21,6.21,0,0,1-.23,1.85,8.1,8.1,0,0,1-.38,1.44,15.1,15.1,0,0,1-.48,1.44,3.72,3.72,0,0,1-.58,1.41,9.67,9.67,0,0,1-.64,1.34,8.61,8.61,0,0,0-.73,1.32,9.68,9.68,0,0,0-.8,1.24,7.58,7.58,0,0,1-.9,1.25c-.28.48-.7.8-.93,1.15-.38.42-.57.9-1,1.12-.35.48-.57.9-1.05,1.06-.45.32-.8.77-1.12,1a3.59,3.59,0,0,1-1.19.93,8.44,8.44,0,0,1-1.21.9,3,3,0,0,0-1.28.83c-.52.42-.84.35-1.28.74a5.67,5.67,0,0,0-1.35.67,4.15,4.15,0,0,1-1.12.25,1.84,1.84,0,0,1-1.34-.57,3.24,3.24,0,0,1-.58-1.38,1.43,1.43,0,0,1,.29-1,5.16,5.16,0,0,1,.74-.74c.25-.19.67-.28,1-.57.42,0,.54-.39,1-.58.16-.16.77-.32,1-.61.35-.06.6-.48,1-.64s.76-.38,1.08-.83c.36-.13.52-.48,1-.86a3.71,3.71,0,0,1,1-.93,3.83,3.83,0,0,1,.93-1c.25-.19.45-.74.86-1s.51-.76.8-1a7.37,7.37,0,0,0,.77-1.12,2.71,2.71,0,0,0,.67-1.19c.26-.44.45-.51.58-1,0-.26.35-.67.48-1.09a4.53,4.53,0,0,0,.41-1.12,2.08,2.08,0,0,0,.29-1.15A1.08,1.08,0,0,0,169,10c-.61,0-1.41,0-1.92,0-.74.1-1.35,0-1.92,0a14.56,14.56,0,0,0-2,0c-.64,0-1.37,0-1.92,0a7.09,7.09,0,0,1-1.95,0,5.64,5.64,0,0,1-1.92,0c-.8-.06-1.28.13-1.92,0s-1.28,0-2,0a2.24,2.24,0,0,1-1.38-.57,2,2,0,0,1-.54-1.41,1.37,1.37,0,0,1,.48-1.28,1.49,1.49,0,0,1,1.25-.55,8.74,8.74,0,0,0,2.08,0c.77-.13,1.41.1,2,0a10.92,10.92,0,0,0,2,0,19.94,19.94,0,0,1,2,0c.71-.07,1.47,0,2.05,0a15.53,15.53,0,0,0,2,0,15.35,15.35,0,0,1,2.05,0c.64.07,1.21-.12,2,0a8.45,8.45,0,0,1,1.7.13c.48.23,1.24.19,1.63.55A6.37,6.37,0,0,1,174.15,8,2,2,0,0,1,174.5,9.57Zm2-4.39c.1.52.61.87.48,1.32,0,.7-.64,1.47-1.4,1.34-.61.16-.84-.22-1.16-.71s-.67-1-.89-1.37a5.2,5.2,0,0,0-1-1.28c-.58-.83-.52-1.41-.16-1.79a1.62,1.62,0,0,1,1.05-.51,1.5,1.5,0,0,1,1.35.7,14.77,14.77,0,0,1,.92,1.22A3,3,0,0,0,176.51,5.18Zm3.56,0a2,2,0,0,1-.93.39A1.25,1.25,0,0,1,178.05,5c-.22-.42-.67-.74-.74-1s-.32-.52-.48-.74a8.78,8.78,0,0,0-1.12-1.31,1,1,0,0,1,.1-1.47,1.38,1.38,0,0,1,1-.42c.51,0,.74.29,1.12.45s.32.41.71.73.41.74.83,1a4.66,4.66,0,0,0,.64,1.08,3.6,3.6,0,0,1,.38,1A1.25,1.25,0,0,1,180.07,5.18Z" fill="#fff"/><path d="M191.36,5.25a2.63,2.63,0,0,1-.09,1.21c-.1.36-.16.9-.26,1.16A4,4,0,0,0,190.76,9c0,.45-.32,1-.23,1.37-.19.55,0,1-.16,1.38a7,7,0,0,0-.16,1.38,5.5,5.5,0,0,0-.13,1.69c0,.55-.12,1.06-.12,1.73s-.07,1.15-.07,1.66a5.65,5.65,0,0,1,0,1.7c0,1,0,1.47.07,2.37,0,.32,0,.67.09,1.18a5.33,5.33,0,0,0,.1,1.19,3.58,3.58,0,0,0,.13,1.15c.09.32,0,.7.12,1.18a1.78,1.78,0,0,1,.07,1,1.42,1.42,0,0,1-.64,1.12,2.57,2.57,0,0,1-1.28.45,3.48,3.48,0,0,1-1.09-.29,2.93,2.93,0,0,1-.74-.86,6.88,6.88,0,0,1-.32-1.7,4.34,4.34,0,0,0-.09-1.18,4,4,0,0,1-.1-1.28,5.82,5.82,0,0,0-.06-1.28,2.61,2.61,0,0,0-.07-1.22,5.69,5.69,0,0,1,0-1.79c-.09-.42.07-1,0-1.54a4.37,4.37,0,0,0,0-1.56c0-.45.16-1.06.09-1.54a4.28,4.28,0,0,1,.1-1.54,7.55,7.55,0,0,1,.16-1.56,12.7,12.7,0,0,0,.19-1.54,9.6,9.6,0,0,1,.19-1.54,10.12,10.12,0,0,0,.23-1.53,6.23,6.23,0,0,0,.22-1.41,4.25,4.25,0,0,1,.38-1.41,3.18,3.18,0,0,1,.71-.76,1.11,1.11,0,0,1,1.05-.29,2.45,2.45,0,0,1,1.32.45A1.77,1.77,0,0,1,191.36,5.25ZM211,24.7a3.53,3.53,0,0,1-.26,1,1.51,1.51,0,0,1-.73.64,4.3,4.3,0,0,1-1.31.36,16.66,16.66,0,0,0-1.67.22c-.57,0-1.09.1-1.69.1a7.19,7.19,0,0,1-1.38.06c-.67-.06-1.28-.06-1.89-.06a3.67,3.67,0,0,1-2-.26c-.54-.29-1.22-.22-1.82-.61-.36-.19-.55-.13-.84-.48a2.33,2.33,0,0,1-.73-.61c-.39-.35-.61-.54-.67-.8-.29-.12-.36-.73-.48-.92a3.54,3.54,0,0,1-.45-2.08,1.52,1.52,0,0,1,.54-1.41,1.76,1.76,0,0,1,1.41-.58,1.45,1.45,0,0,1,1.12.39c.42.32.38.57.58,1a7.94,7.94,0,0,0,.41,1.25,2.32,2.32,0,0,0,.9.86,3.42,3.42,0,0,0,1.89.48,4.81,4.81,0,0,0,2,.07,9.75,9.75,0,0,0,2.11-.07A7.39,7.39,0,0,0,208.2,23a3.33,3.33,0,0,1,1.34-.09,1.92,1.92,0,0,1,1,.51A2.35,2.35,0,0,1,211,24.7ZM196.42,9a1.07,1.07,0,0,1,.26-1,1.6,1.6,0,0,1,.76-.67,5.25,5.25,0,0,1,2.21-.23,2.67,2.67,0,0,0,1.25-.06A2.53,2.53,0,0,0,202.18,7c.26-.1.86,0,1.28-.13a5.84,5.84,0,0,1,1.25-.13c.54-.06,1-.16,1.37-.19a10,10,0,0,0,1.44-.06,2.16,2.16,0,0,1,1.16.57,2.11,2.11,0,0,1,.44,1.18,2.25,2.25,0,0,1-.41,1.19,3,3,0,0,1-1,.61c-.32.19-.83.06-1.28.25a9.65,9.65,0,0,0-1.15.1,7.56,7.56,0,0,1-2.27.19c-.9.1-1.47.13-2.3.16a8.13,8.13,0,0,1-2.34.06,3.25,3.25,0,0,1-1.38-.48A1.86,1.86,0,0,1,196.42,9Z" fill="#fff"/><path d="M244.16,28.93a2,2,0,0,1-1.37.6,2.14,2.14,0,0,1-1-.25,2,2,0,0,1-1-.64c-.48-.19-.54-.39-.9-.71-.22-.12-.51-.51-.67-.6s-.57-.52-.93-.87c-.19-.41-.51-.57-.89-.93a5.94,5.94,0,0,1-.87-1c-.35-.16-.54-.76-.8-1a12.12,12.12,0,0,1-.76-1c-.26-.16-.36-.51-.74-1.06-.16-.48-.42-.57-.67-1.09a1.87,1.87,0,0,1-.64-1.08c-.23-.58-.58-.93-.8-1.6s-.58-1.06-.74-1.64c-.19-.19-.16-.51-.38-.86,0-.38-.39-.9-.71-.86s-.57.32-.8,1.05c-.28.55-.22.93-.54,1.31-.19.61-.45,1-.54,1.32a3.34,3.34,0,0,0-.64,1.24,4.86,4.86,0,0,1-.71,1.25,3.78,3.78,0,0,1-.77,1.22c-.41.48-.48.83-.8,1.15s-.57.64-.64.8a3,3,0,0,0-.64.8,2,2,0,0,0-.7.77c-.26.35-.61.41-.7.73a3.08,3.08,0,0,0-.74.71,2.5,2.5,0,0,1-.8.67c-.19.38-.42.45-.8.64a2.7,2.7,0,0,0-.8.61c-.58.38-1,.86-1.41.93-.32.38-.7.32-1.09.32s-.92-.32-1.28-.55-.48-.7-.54-1.28a2.23,2.23,0,0,1,.93-1.57,2,2,0,0,0,.93-.7c.38-.26.54-.42,1-.67a8.22,8.22,0,0,1,1-.8c.38-.19.67-.71,1-.87a8.88,8.88,0,0,1,.89-1c.19-.28.67-.6.9-1a4.88,4.88,0,0,0,.8-1.09c.09-.42.51-.61.77-1.09s.44-.8.67-1.12.45-.57.61-1.09a6.06,6.06,0,0,0,.73-1.53c.35-.35.39-1,.61-1.57a7.94,7.94,0,0,1,.54-1.57,11,11,0,0,1,.48-1.66,2.42,2.42,0,0,1,.84-1.51c.16-.16.54-.19.73-.67A1.91,1.91,0,0,0,229,7.33a1.16,1.16,0,0,0-1.15-1.19c-.77,0-1.21,0-1.92,0a6.61,6.61,0,0,1-2,0,1.61,1.61,0,0,1-1.06-.54c-.19-.39-.54-.8-.38-1.15-.1-.29.19-.84.38-1.19a.94.94,0,0,1,1.06-.51,14.06,14.06,0,0,1,2.33,0,14.33,14.33,0,0,0,2.27,0,4.29,4.29,0,0,1,1.83.29c.32.06.45.28.83.48s.42.51.61.73.35.55.35.93a2.7,2.7,0,0,0,.22,1.12,5.61,5.61,0,0,1,.32,2,5.13,5.13,0,0,0,.39,1.76,13.34,13.34,0,0,1,.51,1.82,15,15,0,0,1,.64,1.76c.22.48.45,1.15.74,1.7a6.14,6.14,0,0,0,.86,1.66,7.82,7.82,0,0,0,.93,1.57,2,2,0,0,0,.54.77,4.52,4.52,0,0,0,.55.76,3.24,3.24,0,0,0,.57.74,2.76,2.76,0,0,0,.58.7c.35.32.57,1,1.15,1.19s.77.86,1.18,1.09a3.55,3.55,0,0,0,1.25,1.05c.26.39,1,.58,1.31,1a2.66,2.66,0,0,1,.9,1.67A1.76,1.76,0,0,1,244.16,28.93Z" fill="#fff"/><path d="M271.91,19.07a10.92,10.92,0,0,1-.16,1.63,3.06,3.06,0,0,1-.45,1.57c-.16.38-.58,1-.74,1.44a8.55,8.55,0,0,1-1,1.28,16.46,16.46,0,0,0-1.25,1.09,8.7,8.7,0,0,0-1.44.86c-.51.39-1.12.42-1.5.67s-1.09.32-1.57.52a6.18,6.18,0,0,1-1.47.38,3.86,3.86,0,0,1-1.57.19,1.39,1.39,0,0,1-1.31-.54,1.67,1.67,0,0,1-.42-1.09,1,1,0,0,1,.39-1c.32-.16.54-.48,1-.55a8.75,8.75,0,0,1,2-.45,2.24,2.24,0,0,0,1.09-.28,10.75,10.75,0,0,0,1-.36,6,6,0,0,0,1-.48,1.7,1.7,0,0,0,.93-.57c.48-.1.6-.55.92-.87.16-.19.29-.6.61-1,.13-.29.26-.74.39-1.15a10.6,10.6,0,0,0,.12-1.22,4.4,4.4,0,0,0-.29-1.41,2.55,2.55,0,0,0-.79-1.12,6.56,6.56,0,0,0-1.61-.83,11.27,11.27,0,0,1-1.85-.22,11.78,11.78,0,0,0-2.27.16,4.07,4.07,0,0,1-1.12.16,2.55,2.55,0,0,1-1.15.22c-.52,0-.74.29-1.09.26a5.67,5.67,0,0,0-1.12.32,2.34,2.34,0,0,1-1.09.35,2.16,2.16,0,0,1-1.09.38,5.21,5.21,0,0,1-1.63.61,11.11,11.11,0,0,1-1.63.71,1.69,1.69,0,0,1-1.76-.36c-.32-.12-.55-.76-.55-1.08a.94.94,0,0,1,.32-1c.23-.36.36-.55.8-.64a14.71,14.71,0,0,1,1.73-.74c.71-.29,1.15-.32,1.76-.64.45-.1,1.09-.35,1.76-.54a15.85,15.85,0,0,1,1.83-.48,7.92,7.92,0,0,1,1.53-.36c.61-.09.93-.16,1.6-.25.35,0,1.12-.13,1.57-.16a8.57,8.57,0,0,1,1.6-.06,4.43,4.43,0,0,1,1.5.09c.35,0,1,.22,1.48.29s.92.45,1.4.54a12.66,12.66,0,0,1,1.31.8c.23.42.84.67,1,1,.26.51.55.83.74,1.18s.19.9.42,1.31A4.84,4.84,0,0,1,271.91,19.07Z" fill="#fff"/><path d="M301.6,7.78a1.49,1.49,0,0,1-1.08.64,12.17,12.17,0,0,0-2,.57A7.5,7.5,0,0,0,297,9.7a12.41,12.41,0,0,1-1.37.83,8.36,8.36,0,0,0-1.38,1.12,8,8,0,0,0-1.15,1.18c-.22.42-.61.83-.93,1.38-.16.51-.51.7-.51,1.08-.32.42-.19.87-.38,1.16,0,.51-.2.7-.2,1.18-.06.29-.22,1-.06,1.22a2.71,2.71,0,0,0,.16,1.37,5.91,5.91,0,0,0,.42,1.25,5.28,5.28,0,0,0,.73,1.12c.32.26.61.74,1,.9a9.81,9.81,0,0,0,1.44.8,6,6,0,0,0,1.56.44,5.33,5.33,0,0,0,1.54.29c.35.19.9.39,1.28.64a1.59,1.59,0,0,1,.51,1.35,1.56,1.56,0,0,1-.64,1.44,2,2,0,0,1-1.5.51,7.91,7.91,0,0,1-2.21-.29,1.49,1.49,0,0,1-1.06-.29c-.28-.25-.67-.13-1.05-.41s-.83-.23-1-.48a4.37,4.37,0,0,1-.93-.61,7.94,7.94,0,0,0-.87-.67c-.19-.2-.48-.42-.8-.77-.54-.35-.64-.87-1.08-1.41a3,3,0,0,1-.8-1.6,2.89,2.89,0,0,1-.48-1.73c0-.51-.23-1.12-.16-1.79a9.22,9.22,0,0,1,.12-1.7,7.36,7.36,0,0,0,.39-1.63A4.48,4.48,0,0,1,288.2,14a10.38,10.38,0,0,1,.83-1.5c.19-.22.32-.74.7-1a5.43,5.43,0,0,1,.83-.93,5.36,5.36,0,0,0,.39-.42.58.58,0,0,0,.19-.73c-.1-.23-.45-.23-.7-.2a2.49,2.49,0,0,0-1,.2c-.51,0-1.05.19-1.5.22s-1.15,0-1.51.22l-1.5.2c-.61.19-1.09.09-1.54.25a13.56,13.56,0,0,0-1.5.2c-.48.06-1.09.15-1.5.22a17.65,17.65,0,0,0-2,.22c-.6.13-.86-.19-1.21-.61a2,2,0,0,1-.48-1.28,1.77,1.77,0,0,1,.61-1.4c.16,0,.32-.23.76-.39A3.21,3.21,0,0,0,279.46,7a11.6,11.6,0,0,1,2.11-.26,19.71,19.71,0,0,0,2.08-.25,2.82,2.82,0,0,0,1.41-.16,2.67,2.67,0,0,0,1.38-.13,2.9,2.9,0,0,1,1.4-.16,3.06,3.06,0,0,1,1.38-.16,4.37,4.37,0,0,0,1.38-.16A2.75,2.75,0,0,0,292,5.6c.29-.1.9,0,1.38-.13a5.5,5.5,0,0,1,1.41-.16c.51.13.77-.06,1.25-.13a4.29,4.29,0,0,0,1.34-.12c.35,0,.8-.1,1.28-.13a7,7,0,0,1,1.38-.1,1.69,1.69,0,0,1,1.4.45A1.57,1.57,0,0,1,302,6.59,1.33,1.33,0,0,1,301.6,7.78Z" fill="#fff"/><path d="M325.09,17.82c-.09.61-.29,1.31-.35,1.95-.29.71-.32,1.38-.61,1.89a2.16,2.16,0,0,1-.38.9c-.19.32-.29.64-.42.89a9.26,9.26,0,0,0-.51.87,2.62,2.62,0,0,0-.51.86,2.11,2.11,0,0,1-.61.77c-.22.22-.38.67-.61.77a2.85,2.85,0,0,0-.7.73,5.11,5.11,0,0,0-.71.68,6.15,6.15,0,0,1-.76.64,1.86,1.86,0,0,1-.84.57,1.42,1.42,0,0,1-1.28.45,1.53,1.53,0,0,1-1.31-.54,1.58,1.58,0,0,1-.57-1.32,1.08,1.08,0,0,1,.25-.92,8.27,8.27,0,0,0,.71-.74c.48-.35.57-.51,1.08-.9.23-.22.84-.6,1-1a5.21,5.21,0,0,0,.89-1.05,6.16,6.16,0,0,1,.8-1.19c.32-.51.48-1,.74-1.47a9.06,9.06,0,0,0,.51-1.57,3.58,3.58,0,0,0,.29-1.63c.1-.64,0-1.09.1-1.63-.13-.42,0-.9-.16-1.28a9.32,9.32,0,0,1-.64-1.06,1.83,1.83,0,0,0-1.28-.6c-.36-.07-1.06,0-1.44-.13a5.18,5.18,0,0,0-2,.13c-.7.22-1.47.19-2,.41a5.17,5.17,0,0,0-1,.29,7.64,7.64,0,0,0-1,.32c-.29.1-.77.26-1,.35a4.77,4.77,0,0,1-1,.39,1.53,1.53,0,0,1-.87.19,1.6,1.6,0,0,1-1.28-.58,2.09,2.09,0,0,1-.54-1.31,1.72,1.72,0,0,1,.35-1c.1-.23.64-.51.86-.64a4.18,4.18,0,0,0,1.09-.48c.19-.23.74-.16,1.12-.42a3.88,3.88,0,0,1,1.15-.35c.29-.07.74-.23,1.19-.32a8.7,8.7,0,0,0,1.21-.26,2.31,2.31,0,0,1,1.19-.16c.83,0,1.53-.22,2.33-.16l1.63.1a14,14,0,0,1,1.57.29c.61.32.9.35,1.51.64.32.29,1,.7,1.28,1s.48.74.73,1a2.84,2.84,0,0,1,.45,1.13,4.68,4.68,0,0,0,.26,1.21,9.37,9.37,0,0,1,.06,1.25A8.48,8.48,0,0,1,325.09,17.82ZM312.81,3.55a2.25,2.25,0,0,1,.6-1.5A3.26,3.26,0,0,1,315,1.57c.54,0,1,.32,1.76.25s1.15.39,1.76.42a6.67,6.67,0,0,0,1.73.54c.41.23,1.24.32,1.63.58a2.55,2.55,0,0,1,1.25.7c.38.26.51.61.54,1.28a1.63,1.63,0,0,1-.48,1.35,2.28,2.28,0,0,1-1.25.64A2.62,2.62,0,0,1,320.58,7c-.29,0-.64-.26-.93-.32a3.32,3.32,0,0,0-1.15-.36A4.28,4.28,0,0,1,317.35,6a2.69,2.69,0,0,1-1.15-.31A10.41,10.41,0,0,1,315,5.44a12.23,12.23,0,0,1-1.76-.67A2,2,0,0,1,312.81,3.55Z" fill="#fff"/><path d="M360.77,21.34a2,2,0,0,1,.58,1.28,3,3,0,0,1-.61,1.41c-.35.45-.83.83-1.25,1.28a4.1,4.1,0,0,1-1.47,1,2.83,2.83,0,0,1-1.6.71c-.54,0-1.28.25-1.76.25s-1.15-.06-1.89-.25a5.07,5.07,0,0,1-1.6-1,3.82,3.82,0,0,1-.73-1.56c-.23-.52,0-1.19-.1-1.7s.06-.74.06-1.34.13-.8.07-1.38c-.07-.35.13-.86.09-1.34a3.53,3.53,0,0,0,.07-1.38c0-.38.13-1,.06-1.38a3.87,3.87,0,0,1,.07-1.34,6,6,0,0,1,.09-1.38c.1-.51,0-.83.07-1.34a1.71,1.71,0,0,0-.13-1.15c0-.26-.39-.42-.8-.45a3.1,3.1,0,0,0-1.54.51,14.86,14.86,0,0,0-1.37,1c-.29.25-.61.25-.74.61a8.83,8.83,0,0,0-.74.63c-.32.33-.54.39-.7.68s-.48.32-.7.67a3.1,3.1,0,0,0-.74.7c-.35.29-.42.58-.7.71a2.52,2.52,0,0,1-.68.7,1.45,1.45,0,0,0-.47.64,3.18,3.18,0,0,0-.17,1.28c.13.61-.12.83,0,1.38.13.32-.09,1.05,0,1.34a5.31,5.31,0,0,0,0,1.38c.07.54-.12,1,0,1.34a7.84,7.84,0,0,1,0,1.38,5,5,0,0,0,0,1.34c0,.45-.09,1,0,1.38a1.36,1.36,0,0,1-.54,1.21,1.28,1.28,0,0,1-1.25.48,1.17,1.17,0,0,1-1.25-.48,1.22,1.22,0,0,1-.54-1.21,18.31,18.31,0,0,1,0-1.86,11.85,11.85,0,0,1,0-1.79c0-.48,0-1.35,0-1.95a.36.36,0,0,0-.64-.29c-.12.22-.25.35-.38.57-.29.39-.42.71-.61.93a7.07,7.07,0,0,0-.61,1,1.39,1.39,0,0,1-1.44.83,2.92,2.92,0,0,1-1.24-.51,1.75,1.75,0,0,1-.58-1.21,4.17,4.17,0,0,1,.64-1.51,4.77,4.77,0,0,1,.67-1,1.57,1.57,0,0,0,.67-1.06c.29-.48.48-.54.64-1a3.26,3.26,0,0,1,.68-1.09c.25-.38.38-.8.6-1.09a3.85,3.85,0,0,0,.55-1,2.51,2.51,0,0,0,.6-1.09,4.06,4.06,0,0,0,.45-1.08c.07-.32.16-1.06-.22-1.38a1.22,1.22,0,0,0-1-.19,12.61,12.61,0,0,0-1.35.26c-.44.06-.6.15-1.05.19a1.5,1.5,0,0,1-1.28-.39,1.83,1.83,0,0,1-.48-1.34,1.29,1.29,0,0,1,.32-1.09c.32-.41.54-.38,1-.58A3.87,3.87,0,0,1,335,9c.29,0,.87-.22,1.57-.29.42-.16.83-.12,1.22-.57a1.64,1.64,0,0,0,.38-1c0-.64,0-1.63,0-2.27,0-.48,0-1,0-1.37a1.41,1.41,0,0,1,.61-1.13A2.06,2.06,0,0,1,340,1.92a2.16,2.16,0,0,1,1.22.38,1.31,1.31,0,0,1,.55,1.16c-.07.41,0,1,0,1.24a10.88,10.88,0,0,0,0,1.51c0,.76,0,1.34.32,1.53a1.6,1.6,0,0,1,.74,1.31,1.84,1.84,0,0,1-.39,1.25c-.12.42-.51.71-.7,1.06-.09.16-.06.32.07.38s.41.07.67-.25c.54-.48.86-.8,1.34-1.25s.86-.54,1.22-1.06c.25-.25.89-.6,1.31-1,.41-.26.48-.35,1-.64.22-.13.83-.39,1.09-.58a3.09,3.09,0,0,0,1.12-.41c.25,0,.67-.1,1.21-.13.48.16,1.25.16,1.73.29a4.26,4.26,0,0,1,1.44,1c.48.42.51,1,.8,1.67a5.41,5.41,0,0,1,.16,1.85,7.07,7.07,0,0,0-.09,1.41,6.92,6.92,0,0,1-.07,1.41,4.66,4.66,0,0,1-.06,1.4,5.27,5.27,0,0,0-.1,1.41,4.08,4.08,0,0,1-.06,1.41,4.24,4.24,0,0,1-.07,1.41,2.53,2.53,0,0,0-.09,1.41,7.46,7.46,0,0,0-.07,1.4c.07.52.2.74.68.87a4.63,4.63,0,0,0,1.66-.61c.38-.19.58-.54.74-.61.38-.35.48-.57.64-.67a1.84,1.84,0,0,1,1.5-.67A3.42,3.42,0,0,1,360.77,21.34Z" fill="#fff"/><path d="M388.07,21.44a1.66,1.66,0,0,1-.45,1.25c-.29.28-.38.64-.61.76s-.41.42-.61.71-.41.61-.67.67c-.22.38-.48.32-.7.64a1.82,1.82,0,0,0-.74.61c-.29.16-.57.22-.77.54s-.64.29-.79.51a7.55,7.55,0,0,0-.81.45,6.15,6.15,0,0,1-1.44.64,10.42,10.42,0,0,1-1.5.45,4.1,4.1,0,0,1-1.57.26,4.38,4.38,0,0,1-1.56.09,4.13,4.13,0,0,1-1.51-.09c-.41-.16-.93,0-1.47-.32a2.48,2.48,0,0,1-1.34-.61c-.36-.32-.84-.48-1.16-1-.35-.2-.35-.42-.57-.77a1.67,1.67,0,0,1-.45-.8c-.38-.48-.29-1.15-.58-1.83a5.1,5.1,0,0,1-.25-1.85,3.76,3.76,0,0,1-.07-1.86c0-.54,0-1.28,0-2a8.32,8.32,0,0,0,.07-2,10.49,10.49,0,0,1,.06-2,13.57,13.57,0,0,1,.07-2c.09-.71,0-1.31.12-2.05a18.53,18.53,0,0,0,.1-2c.1-.52,0-1.19.1-2a4.41,4.41,0,0,1,.22-2,1.29,1.29,0,0,1,.64-1.09,2.34,2.34,0,0,1,1.25-.39c.57.17,1,.1,1.37.49s.64.83.58,1.34a12.75,12.75,0,0,1-.1,1.7,12.92,12.92,0,0,0-.09,1.63,4.33,4.33,0,0,0-.13,1.63,5.25,5.25,0,0,1-.1,1.63,16.54,16.54,0,0,1-.09,2.3,8,8,0,0,0-.1,2.31,14.81,14.81,0,0,0,0,2.3c-.06.67.1,1.47,0,2.27a6.14,6.14,0,0,0,.09,1.83,4.37,4.37,0,0,0,.45,1.76c0,.38.42.51.48.8a2.54,2.54,0,0,1,.67.54,5.89,5.89,0,0,0,1.8.42,6,6,0,0,0,1.82-.19,7.71,7.71,0,0,0,1.69-.52,4.76,4.76,0,0,0,1.6-.83,11.59,11.59,0,0,0,1.44-1.09,3.5,3.5,0,0,0,1.12-1.12,7.87,7.87,0,0,0,1.06-1.21c.48-.48,1.06-.83,1.5-.71a3.4,3.4,0,0,1,1.38.55A1.31,1.31,0,0,1,388.07,21.44Z" fill="#fff"/><path d="M407.52,21.31c0,.61-.38,1.15-.44,1.6-.32.54-.23.9-.52,1.38a3.42,3.42,0,0,1-.63,1.18c-.13.54-.55.74-.84,1a2.84,2.84,0,0,1-1.44,1c-.57.16-1.12.25-1.66.35s-.9-.16-1.28-.13c-.48-.19-.8-.29-1.15-.45s-.55-.25-1-.67c-.25-.42-.54-.45-.86-.93a3.07,3.07,0,0,1-.7-1.05c-.26-.48-.45-.87-.61-1.25a8.26,8.26,0,0,0-.51-1.35,9.13,9.13,0,0,0-.42-1.4c-.13-.61-.25-1-.32-1.51a4.76,4.76,0,0,1-.25-1.5,5.38,5.38,0,0,1-.16-1.51,3.65,3.65,0,0,1-.13-1.44,9.15,9.15,0,0,0-.1-1.37,4.29,4.29,0,0,1,0-1.28,12,12,0,0,1,0-2.15c0-.67.09-1.37,0-1.85a6.71,6.71,0,0,0,.16-1.54c.19-.35.26-.67.38-.86A1.83,1.83,0,0,1,396.52,5a2.47,2.47,0,0,1,1.41.51c.22.35.7.74.57,1.35,0,.8-.06,1.18-.09,1.66a10.52,10.52,0,0,0,0,1.28,3.32,3.32,0,0,0,0,1.09,6.85,6.85,0,0,0,0,2c.09.55.06,1.34.22,2.11-.1.45.13.9.1,1.22a7.72,7.72,0,0,0,.16,1.25,2.35,2.35,0,0,0,.22,1.18,5.63,5.63,0,0,1,.22,1.18,3.34,3.34,0,0,0,.29,1.09,3.31,3.31,0,0,0,.35,1,3.75,3.75,0,0,0,.84,1.44,1,1,0,0,0,1.05.55,1.36,1.36,0,0,0,1.44-1.09,9.91,9.91,0,0,1,.39-1,2.48,2.48,0,0,0,.28-1,3.5,3.5,0,0,1,.61-.86,4.23,4.23,0,0,1,1-.35A1.63,1.63,0,0,1,407,20,1.49,1.49,0,0,1,407.52,21.31Zm12.74-.8a1.67,1.67,0,0,1-1.28.58,4.36,4.36,0,0,1-.93-.26,2.13,2.13,0,0,1-.7-.67c-.19-.42-.19-.77-.48-1.09a2.3,2.3,0,0,1-.45-1,4.53,4.53,0,0,0-.48-.93c-.19-.35-.42-.74-.51-.93a2.06,2.06,0,0,1-.55-.9,4.76,4.76,0,0,0-.6-.89,3,3,0,0,1-.61-.87c-.13-.09-.32-.54-.64-.83s-.58-.54-.67-.8-.64-.44-.74-.8a1.06,1.06,0,0,1-.51-1.21,1.71,1.71,0,0,1,.61-1.22A2.51,2.51,0,0,1,413,8.16a3.63,3.63,0,0,1,1,.29,3.74,3.74,0,0,1,.92.67c.23.16.36.7.74.8s.45.67.61.73c.41.39.67,1,1,1.32.42.48.55.92.93,1.34s.51,1,.83,1.44c.32.64.51.9.74,1.44a10,10,0,0,0,.54,1.18,8.61,8.61,0,0,1,.45,1.32C420.87,19.58,420.71,20.22,420.26,20.51Z" fill="#fff"/><path d="M444.93,22.11a4.82,4.82,0,0,1-.41,1.41,6.63,6.63,0,0,1-.64,1.31c-.23.58-.71.83-1,1.18-.55.48-1,.8-1.38,1.09a4.2,4.2,0,0,1-1.57.74c-.51.09-1.05.48-1.69.41a4.12,4.12,0,0,1-1.76.16c-.55-.12-1.31-.06-1.79-.12a6.33,6.33,0,0,1-1.76-.36,5,5,0,0,1-1.7-.6,2.69,2.69,0,0,1-1.54-1,3.74,3.74,0,0,1-.7-1.53c.06-.55,0-1,.51-1.25a1.75,1.75,0,0,1,1.25-.48,1.14,1.14,0,0,1,1,.26,5.05,5.05,0,0,0,1.34.76c.42.2.77.32,1.19.55a1.82,1.82,0,0,0,1.12.29,2.32,2.32,0,0,0,1.12.06c.54-.06,1.15-.19,1.79-.29a8.17,8.17,0,0,0,1.54-1,2.29,2.29,0,0,0,.89-1.34,4.81,4.81,0,0,0,.29-1.6c-.13-.51,0-1.12-.29-1.57a1.67,1.67,0,0,0-.86-1.28,4.56,4.56,0,0,0-1.57-.83,11.47,11.47,0,0,0-1.66-.23,9,9,0,0,1-2.08,0c-.64,0-.93-.12-1.12-.51A1.6,1.6,0,0,1,433,15.2a1.74,1.74,0,0,1,.42-1.15,1.56,1.56,0,0,1,1.12-.48c.64-.07,1.31.09,1.88,0a4.37,4.37,0,0,0,1.6-.19,4.61,4.61,0,0,0,1.47-.89,3.16,3.16,0,0,0,.61-1.12,9.94,9.94,0,0,1,.2-1.32A6.51,6.51,0,0,0,440,8.7a6.33,6.33,0,0,1-.84-1A1.79,1.79,0,0,0,438,7.17a2.49,2.49,0,0,0-1.38-.23,5,5,0,0,0-2.08.48c-.48.07-.64.42-.92.48a5.09,5.09,0,0,0-.87.64,1.24,1.24,0,0,1-1.21.48,1.31,1.31,0,0,1-1.32-.54c-.48-.29-.41-.86-.54-1.31A1.79,1.79,0,0,1,430.15,6c.51-.32.93-.86,1.44-1a5.62,5.62,0,0,1,1.6-.74c.42-.16,1.18-.25,1.7-.48a7.85,7.85,0,0,0,1.72-.13,7.25,7.25,0,0,1,1.6.1,6.84,6.84,0,0,1,1.6.35c.55.16.87.42,1.48.64.35.39.83.54,1.27,1a3,3,0,0,0,.74.9c.06.35.35.61.55,1a2.27,2.27,0,0,1,.28,1.12,1.92,1.92,0,0,1,.13,1.15,4.14,4.14,0,0,1-.32,2.08c-.13.49-.13.8-.45.93a4.65,4.65,0,0,1-.64.83,4.14,4.14,0,0,1-1.15.84c-.35.19-.41.64.19.92a2.53,2.53,0,0,1,.87.58c.25.26.48.22.7.58s.58.67.67.86a6.82,6.82,0,0,1,.52,1,10.72,10.72,0,0,1,.41,2.15A7,7,0,0,1,444.93,22.11Z" fill="#fff"/><path d="M477.44,15.33a10.89,10.89,0,0,1-.19,2,3.56,3.56,0,0,1-.54,1.89,3.71,3.71,0,0,0-.39.93c-.09.35-.32.44-.51.86a3.09,3.09,0,0,0-.57.8c-.36.32-.39.61-.68.74a2.14,2.14,0,0,0-.73.7,10.08,10.08,0,0,1-.8.64,1.94,1.94,0,0,1-.83.54,4.8,4.8,0,0,0-.9.48c-.35.23-.74.2-.93.45s-.73.29-.93.39c-.6.22-1.31.38-1.88.64-.55.09-1.38.32-1.83.44a4.55,4.55,0,0,1-1.88.26,3,3,0,0,1-1.57-.64,2.3,2.3,0,0,1-.51-1.25,1.39,1.39,0,0,1,.48-1.21,2.93,2.93,0,0,1,1.18-.64c.29-.07,1-.23,1.25-.26a5.23,5.23,0,0,1,1.25-.26,3.3,3.3,0,0,0,1.31-.35c.28-.09.93-.29,1.28-.45a7.33,7.33,0,0,0,1.21-.6,2.41,2.41,0,0,0,1.16-.71c.57-.16.8-.67,1.15-1.09.25-.25.41-.76.8-1.28.16-.38.32-.92.48-1.44a4.58,4.58,0,0,0,.16-1.56,11.39,11.39,0,0,1-.29-1.6,3.42,3.42,0,0,0-.87-1.35c-.16-.35-.63-.41-1-.73a3.8,3.8,0,0,1-1.12-.48c-.54-.07-.67-.26-1.21-.26a3.49,3.49,0,0,0-1.25-.06,9.87,9.87,0,0,1-1.7.06c-.73.06-1.05.19-1.69.19a14.38,14.38,0,0,1-1.7.29c-.57,0-1.28.42-1.66.38a5.87,5.87,0,0,1-1.51.42,8,8,0,0,1-1.53.48,12.77,12.77,0,0,1-1.47.51c-.48.13-1,.48-1.48.61-.28.1-.76.32-1,.42s-.7.25-1.06.44a6.43,6.43,0,0,1-1,.16A1.84,1.84,0,0,1,450.12,13a1.93,1.93,0,0,1,.89-1.57c.55-.41,1.22-.48,1.73-.83a6.6,6.6,0,0,0,1.79-.67c.42-.29,1.19-.32,1.83-.64a9.31,9.31,0,0,1,1.85-.58,8.24,8.24,0,0,0,1.86-.48A7.06,7.06,0,0,0,462,7.81a4.89,4.89,0,0,1,1.89-.29,5.49,5.49,0,0,1,1.95-.19c.61.06,1.15-.13,1.92-.07.48.07,1.09.07,1.82.1s1.16.26,1.83.35a11,11,0,0,1,1.72.67c.32,0,.55.39.8.45a1.82,1.82,0,0,0,.74.55c.51.22.74.73,1.22,1.21s.48,1,.86,1.44c.1.58.54,1.06.51,1.6C477.35,14.33,477.35,14.85,477.44,15.33Z" fill="#fff"/><path d="M511.27,17.5a5.13,5.13,0,0,1-.19,1.25c0,.54-.32.74-.29,1.25a8,8,0,0,1-.45,1.18c-.29.29-.35.9-.54,1.12a3.54,3.54,0,0,1-.68,1.09,2.48,2.48,0,0,1-.76,1c-.32.48-.71.61-.93.93s-.74.54-1.12.86-1.09.61-1.41.87c-.58.32-1.06.51-1.47.7s-.87.32-1.41.45a2,2,0,0,1-1.73-.51,1.36,1.36,0,0,1-.6-1.35c-.13-.28.19-.76.38-1.12s.64-.41,1-.7c.54-.26.83-.22,1.25-.54.25-.1.67-.36,1.12-.61a10.61,10.61,0,0,0,1.09-.71,3.78,3.78,0,0,0,1-.89c.41-.19.51-.77.86-1.22.1-.38.54-.77.61-1.34a9.61,9.61,0,0,0,.35-1.47,6.09,6.09,0,0,1,.1-1.51c-.16-.41,0-.93-.13-1.47a10.51,10.51,0,0,0-.39-1.44,6.3,6.3,0,0,0-.64-1.31,8.61,8.61,0,0,0-.86-1.15A5.08,5.08,0,0,0,504,9.7a6.84,6.84,0,0,0-1.54-.81,3.17,3.17,0,0,0-1.28-.35,1.49,1.49,0,0,0-1.44,1c-.19,1-.13,1.47-.26,1.92,0,.64-.22,1.21-.25,1.6a8.34,8.34,0,0,0-.32,1.63,9.54,9.54,0,0,1-.42,1.57c-.25.6-.29,1.21-.48,1.56-.19.68-.54,1.12-.61,1.54s-.44.86-.67,1.5a3.23,3.23,0,0,1-.61,1.12,2.21,2.21,0,0,1-.67,1.06,3.75,3.75,0,0,1-.83,1,5.17,5.17,0,0,0-1,.83,6.82,6.82,0,0,1-1.76.8,5.73,5.73,0,0,1-1.89.29,3.21,3.21,0,0,1-2.14-.45,4.79,4.79,0,0,1-1-.51c-.45-.16-.48-.45-.86-.7a3.85,3.85,0,0,1-1-1.31,2.59,2.59,0,0,1-.67-1.51,14.36,14.36,0,0,0-.35-1.63,10,10,0,0,1-.1-1.63A5.8,5.8,0,0,0,484,17a4.75,4.75,0,0,0,.19-1.25,4.76,4.76,0,0,1,.32-1.22,2.25,2.25,0,0,1,.42-1.18,5.14,5.14,0,0,1,.54-1.15,3.48,3.48,0,0,1,.64-1.06c.29-.29.48-.83.77-1a3.81,3.81,0,0,1,.83-.93c.48-.48.86-.7,1.15-1a2.45,2.45,0,0,1,1.28-.9c.32-.1.87-.64,1.31-.73a5.1,5.1,0,0,1,1.41-.61,2.63,2.63,0,0,0,1.47-.45c.55-.26,1-.13,1.51-.32s.83-.06,1.5-.19a5.68,5.68,0,0,1,1.54-.07c.35,0,.73.07,1.28,0a5.4,5.4,0,0,1,1.24.16c.55,0,.8.22,1.25.22a3.82,3.82,0,0,0,1.22.35,4.72,4.72,0,0,0,1.18.48,4,4,0,0,0,1.12.61,11.49,11.49,0,0,0,1.06.7c.41.32.67.61,1,.87s.41.57.73.8a7.61,7.61,0,0,0,.64.89,7.54,7.54,0,0,0,.52,1c.06.42.38.67.44,1a1.59,1.59,0,0,1,.36,1.06c0,.39.25.64.22,1.06a8.29,8.29,0,0,1,.19,2.17A3.49,3.49,0,0,0,511.27,17.5ZM495.78,9.7a.91.91,0,0,0-1-.71,3,3,0,0,0-1,.29c-.32.16-.64.38-.93.51s-.6.58-1,.64c-.42.35-.64.42-.86.74-.29.16-.39.51-.77.83s-.42.73-.67.89c-.07.32-.32.52-.58,1a3.09,3.09,0,0,0-.45,1,3.28,3.28,0,0,0-.32,1.09,5.86,5.86,0,0,0-.28,2.24,5.81,5.81,0,0,1,.09,1.21c.1.29,0,.9.32,1.28a4.45,4.45,0,0,0,.67,1,1.62,1.62,0,0,0,1.12.41,3.2,3.2,0,0,0,1.19-.32c.25-.16.48-.54.86-.8s.48-.76.74-1.08a6.54,6.54,0,0,0,.54-1.12,6.14,6.14,0,0,1,.55-1.22c.12-.48.35-.86.44-1.28a5.65,5.65,0,0,0,.42-1.28,3.14,3.14,0,0,1,.32-1.31,6.09,6.09,0,0,1,.25-1.31,9.78,9.78,0,0,0,.23-1.35C495.59,10.69,495.85,10.37,495.78,9.7Z" fill="#fff"/><path d="M539.72,26.21a1.22,1.22,0,0,1-.77.67c-.23.19-.61.13-1,.35-.35.06-.8.16-1.09.22-.93.2-1.38.13-2.08.29a11.75,11.75,0,0,1-1.47.16,6.27,6.27,0,0,1-1.47.13,7.72,7.72,0,0,0-1.44.06c-.55,0-1,0-1.47,0a6,6,0,0,1-1.86-.07,4,4,0,0,1-1.89-.13,7.16,7.16,0,0,1-1.85-.35c-.52-.22-1.22-.41-1.76-.61-.36-.28-.9-.35-1.32-.76a2,2,0,0,1-1.08-1.06c-.16-.26-.48-.51-.48-.83a1.68,1.68,0,0,1-.36-.93,11.94,11.94,0,0,1-.22-1.92c0-.38.13-.7.1-1.22a10.18,10.18,0,0,1,.28-1.24c.16-.48.29-.77.71-1a2.2,2.2,0,0,1,1.15-.36,2,2,0,0,1,1.25.42,1.12,1.12,0,0,1,.57,1.12c-.09,1.09-.22,1.7-.22,2.11a2.17,2.17,0,0,0,.13,1,3,3,0,0,0,.61.92,3.08,3.08,0,0,0,1.31.58,5.51,5.51,0,0,0,1.69.35,5.61,5.61,0,0,0,1.76.1,2.34,2.34,0,0,0,1.48,0,11.27,11.27,0,0,0,1.69-.06,14.34,14.34,0,0,1,1.73-.1c.54.06,1.09-.19,1.69-.19a10.36,10.36,0,0,0,1.67-.23,7.47,7.47,0,0,1,1.21-.25,10.58,10.58,0,0,1,1.28-.16,1.66,1.66,0,0,1,1.25.54,2.05,2.05,0,0,1,.51,1.28A2.49,2.49,0,0,1,539.72,26.21Zm-19-19.49c0-.55,0-1,.48-1.31a1.4,1.4,0,0,1,1.22-.58,6.26,6.26,0,0,1,2.24.32,12.7,12.7,0,0,0,2.24.26,19.84,19.84,0,0,1,2.27.06,16.58,16.58,0,0,1,2.2,0c.87,0,1.57-.13,2.21-.16a8.77,8.77,0,0,1,2.12-.22,2,2,0,0,1,1.18.6c.16.39.57.77.45,1.25.06,1-.32,1.47-1,1.63a6.25,6.25,0,0,1-2,.39,3.52,3.52,0,0,1-1.6.16,10.07,10.07,0,0,1-1.76.09,6.25,6.25,0,0,1-1.73,0,6.87,6.87,0,0,1-1.63,0,8.63,8.63,0,0,1-2.18-.1,12,12,0,0,1-2.14-.25,2.59,2.59,0,0,1-1.54-.38c-.29,0-.57-.52-.73-.71A2,2,0,0,1,520.71,6.72Z" fill="#fff"/><path d="M566.12,26.65a2.07,2.07,0,0,1-.29,1.16,1.76,1.76,0,0,1-.93.67,4.8,4.8,0,0,1-1.7.35,18.21,18.21,0,0,1-2,.22,9.12,9.12,0,0,1-2.11.1,8.15,8.15,0,0,1-1.76,0,7.61,7.61,0,0,1-1.89-.06,8.62,8.62,0,0,1-1.92-.23,4.39,4.39,0,0,1-1.86-.41,6.26,6.26,0,0,1-1.76-.77c-.35-.29-1-.48-1.18-.93-.48-.25-.51-.73-.87-1.18a2.14,2.14,0,0,1-.54-1.38,2.16,2.16,0,0,1-.16-1.5,2.88,2.88,0,0,1,.13-1.31,2.57,2.57,0,0,1,.32-1.22A2.72,2.72,0,0,0,548,19.1a7.39,7.39,0,0,0,.67-1,3.11,3.11,0,0,1,.8-1,2.6,2.6,0,0,1,.9-.87,8.06,8.06,0,0,1,1.15-1,1.68,1.68,0,0,0,.51-1.76c-.16-.77-.22-1.18-.29-1.53a9.54,9.54,0,0,1-.19-1.38,3.43,3.43,0,0,1-.16-1.44c0-.48-.13-1-.13-1.41s-.09-.86-.09-1.41a5.42,5.42,0,0,0,0-1.43,4.57,4.57,0,0,1,0-1.48,1.36,1.36,0,0,1,.58-1.28,1.72,1.72,0,0,1,1.34-.48c.58.16,1,.16,1.35.48a2.87,2.87,0,0,1,.61,1.28c.06.8-.07,1.64.06,2.4s.06,1.54.13,2.34a4.16,4.16,0,0,1,.09,1.18,5.31,5.31,0,0,0,.13,1.16,4.2,4.2,0,0,0,.23,1.31,1.08,1.08,0,0,0,1.28.35,10.47,10.47,0,0,1,1.12-.48,4.72,4.72,0,0,0,1-.45,2.55,2.55,0,0,0,1.06-.42c.16-.19.64-.09,1-.31a11.23,11.23,0,0,1,1.44-.33,2,2,0,0,1,1.25.58,2,2,0,0,1,.47,1.28c.07.35-.28.7-.32,1-.19.45-.54.42-.89.64a3.06,3.06,0,0,0-1.09.36c-.77.28-1.31.48-1.89.67a2.3,2.3,0,0,1-1,.38,4.17,4.17,0,0,0-.92.39c-.36.22-.77.16-1,.44s-.74.36-.9.48c-.38.26-.67.26-.8.42s-.61.26-.9.58a8.93,8.93,0,0,0-1.34,1,9.36,9.36,0,0,0-1.18,1.18c-.23.48-.71,1-.84,1.38a3.48,3.48,0,0,0-.32,1.6,2,2,0,0,0,.45,1.47,3.15,3.15,0,0,0,1.28.89,2.2,2.2,0,0,0,1.12.29c.32.23.58.16,1.15.16a8.1,8.1,0,0,0,2.31.1,13.45,13.45,0,0,0,1.47,0,6.18,6.18,0,0,0,1.5-.07c.36,0,1.12-.16,1.51-.16l1.47-.22a3.18,3.18,0,0,1,1.41-.1,1.61,1.61,0,0,1,.86.55A2.6,2.6,0,0,1,566.12,26.65Z" fill="#fff"/></g></g></svg>