<svg xmlns="http://www.w3.org/2000/svg" width="405.05" height="77.34" viewBox="0 0 405.05 77.34"><title>ttl_h1_sub</title><g id="レイヤー_2" data-name="レイヤー 2"><g id="レイヤー_2-2" data-name="レイヤー 2"><path d="M106.52,2.87c-.2.57-.07.76-.29,1.15a4.25,4.25,0,0,1-.32,1.09c0,.35-.29.57-.29,1a1.8,1.8,0,0,0-.35,1.06,3.89,3.89,0,0,1-.35,1,6.14,6.14,0,0,0-.45,1.18c-.26.8.64.74.86,1.6.13.52,0,1.19.07,1.48a4.81,4.81,0,0,1,0,1.12c-.1.76.06,1.31,0,2.14a15.22,15.22,0,0,0,0,2.14,13.17,13.17,0,0,1,0,2.18,7.61,7.61,0,0,0,0,2.14c.06.71,0,1.38,0,2.15a11.77,11.77,0,0,1,0,2.14c0,.67-.07,1.57,0,2.21,0,.41-.29.7-.61,1a1.25,1.25,0,0,1-1.15.32,4.63,4.63,0,0,1-1.19-.32.86.86,0,0,1-.57-1c-.07-.58,0-1.34,0-1.82a13.36,13.36,0,0,1,0-1.8,8.88,8.88,0,0,1,0-1.79,4.28,4.28,0,0,1,0-1.76,11.88,11.88,0,0,1,0-1.79,24,24,0,0,1,0-2.94c-.06-.42,0-.77-.28-1-.55-.45-.58.26-1.41.26a1.68,1.68,0,0,1-1.35-.45,1.08,1.08,0,0,1-.54-1.15,2.54,2.54,0,0,1,.32-1.09,8.29,8.29,0,0,0,.64-1.12c.19-.29.32-.74.61-1.15a3.67,3.67,0,0,0,.48-1.06,2.41,2.41,0,0,0,.48-1.15,4.62,4.62,0,0,0,.54-1.47,11.12,11.12,0,0,0,.51-1.47,7.17,7.17,0,0,1,.45-1.51,7.69,7.69,0,0,1,.39-1.5,4.81,4.81,0,0,1,.38-1.6c-.06-.48.32-.61.64-1A1.37,1.37,0,0,1,104.82,0a4.24,4.24,0,0,1,1.31.45,1.88,1.88,0,0,1,.61,1.18A1.94,1.94,0,0,0,106.52,2.87ZM119.19,6c.22.32.54.26,1.21.23,1.06,0,1.6,0,2.34,0a8.17,8.17,0,0,1,1.69.19,8.7,8.7,0,0,1,1.48.83,1.63,1.63,0,0,1,.57,1.09c.23.42.1.9.16,1.18s-.09,1.06,0,1.35a4.42,4.42,0,0,0,0,1.31c.07.54-.13,1.06,0,1.34a9.58,9.58,0,0,1,0,1.32,8.91,8.91,0,0,0-.19,1.34,3.53,3.53,0,0,1-.74,1.12,2.76,2.76,0,0,1-1.4.7c-.39.29-1.12.16-1.57.16a1.92,1.92,0,0,0-1.09,0,8.32,8.32,0,0,0-1.5,0c-.87,0-1.28.29-1.38.8a6.67,6.67,0,0,1-.54,1.64c-.32.48-.39,1-.74,1.5s-.06,1.15.29,1.18c.41.26.8.29,1.25.52.22.16.73.16,1,.38s.64.19,1.06.35a2.22,2.22,0,0,1,1,.29,2.72,2.72,0,0,0,1.09.26c.51.06.8,0,1.09.19s.77,0,1.12.16a4.53,4.53,0,0,1,1.25.13,8.91,8.91,0,0,1,1.31.54c.19.38.7.67.58,1.28a2.7,2.7,0,0,1-.61,1.34,1.56,1.56,0,0,1-1.41.45,3.88,3.88,0,0,1-1.57-.13,13.07,13.07,0,0,1-1.5-.22,4.53,4.53,0,0,1-1.47-.32c-.55-.19-1-.26-1.48-.39a7.87,7.87,0,0,1-1.47-.48,2.34,2.34,0,0,1-1.41-.54,3.77,3.77,0,0,1-1.76-.83c-.54-.32-1.08-.26-1.79.29-.25.22-.73.54-.93.7s-.44.29-.73.48a4.23,4.23,0,0,0-1.44.77c-.61.41-1,.32-1.5.64-.39.1-.9.25-1.48.38A1.39,1.39,0,0,1,106.9,29a1.65,1.65,0,0,1-.48-1.18,1.78,1.78,0,0,1,.35-1c.32-.13.45-.51.93-.64s1-.28,1.44-.54a2.86,2.86,0,0,0,1.22-.54,10,10,0,0,0,1.21-.74c.42-.16.1-.77-.22-1.25-.39-.16-.45-.41-.77-.73s-.32-.39-.58-.61a2.23,2.23,0,0,1-.64-1.38,1.87,1.87,0,0,1,.58-1.15,2.24,2.24,0,0,1,1.18-.48,1.61,1.61,0,0,1,1.47.8,7.28,7.28,0,0,0,1,1c.41.2.89-.09,1.18-.89.45-1.28,0-1.54-.8-1.47s-1.25-.16-1.73,0a3.83,3.83,0,0,1-1.69-.19c-.51-.25-1-.25-1.51-.86a1.26,1.26,0,0,1-.57-1.06,1.4,1.4,0,0,1-.13-1.21,4.44,4.44,0,0,1,0-1.32,3.18,3.18,0,0,1,0-1.34c.06-.32,0-.9,0-1.31s-.16-1,0-1.35-.13-.8.19-1.31c0-.32.48-.8.71-1.15.48-.19,1-.58,1.44-.7a3.48,3.48,0,0,1,1.56-.13c.45.09,1.06-.07,2.08,0,.26-.07.71.13,1.09-.23a1.47,1.47,0,0,0,.13-1.18c0-.35-.77-.32-1.22-.29a14.17,14.17,0,0,1-2.08,0c-.73-.13-1,.13-1.69,0a7.67,7.67,0,0,1-1.73,0c-.51.13-.67-.19-.93-.51A1.4,1.4,0,0,1,107.57,3a6.84,6.84,0,0,1,.32-1c.32-.29.61-.55.93-.52.64,0,1.57-.06,2.34,0s1.5,0,2.3,0a13.59,13.59,0,0,1,2.3,0,18.22,18.22,0,0,1,2.34,0c.8-.09,1.41.07,2.3,0s1.38.13,2.31,0a13.51,13.51,0,0,0,2.3,0,8.16,8.16,0,0,0,2.37,0,1.47,1.47,0,0,1,1,.51c.06.32.45.68.32,1.09A1,1,0,0,1,128.31,4a1.18,1.18,0,0,1-.93.51,8.23,8.23,0,0,1-2.15,0c-.67,0-1.5.07-2.11,0a4.38,4.38,0,0,0-1.09,0c-.54-.06-.8,0-1.47,0-.32,0-1.25-.09-1.41.26S119.06,5.84,119.19,6Zm-3.56,3.49c-.06-.38-.7-.35-1.18-.29a9.12,9.12,0,0,0-1.82,0c-.55,0-1,0-.93.9,0,.7.61.7,1.5.7a5.68,5.68,0,0,0,.9,0c.29-.09,1,.13,1.37-.22A1.36,1.36,0,0,0,115.63,9.52Zm-.06,4.55c-.06-.61-.64-.55-1.38-.52-.35,0-1.18-.09-1.69-.06s-.74.22-.71,1a.73.73,0,0,0,.84.77,15.65,15.65,0,0,0,2.4,0C115.41,15.19,115.57,14.9,115.57,14.07Zm6.94-.58-1.88,0c-.42,0-1-.13-1.32.07a1.58,1.58,0,0,0-.28.92c0,.64.25.77,1,.77a9.87,9.87,0,0,0,2.33-.06c.58.16.87-.16.87-.77S123.12,13.62,122.51,13.49Zm-3.42-3.23c-.06.57.54.64,1.54.57.28,0,1,0,1.56,0s.87-.06.87-.8-.16-.73-.71-.8c-.73,0-1.85,0-2.75,0C119.06,9.3,119.12,9.68,119.09,10.26Z" fill="#fff"/><path d="M142.61,12.27a1.85,1.85,0,0,0-.09,1.48c-.1.19.32.44.64.76a10.81,10.81,0,0,1,1.34.87,2.58,2.58,0,0,0,1,.7c.35.13.64.64.9.8a2.07,2.07,0,0,1,.89,1.6,1.59,1.59,0,0,1-.45,1.15c-.31.2-.79.55-1.12.52a2.2,2.2,0,0,1-1.37-.74,12.14,12.14,0,0,0-1.12-1c-.26-.23-.77-.39-.77.29a4.65,4.65,0,0,0,.07,1.56,10.38,10.38,0,0,1,0,1.38,4.26,4.26,0,0,0,0,1.34,8.66,8.66,0,0,0,0,1.35c-.07.38,0,1.09,0,1.37s.06,1,0,1.35a11.69,11.69,0,0,0,0,1.41,1.19,1.19,0,0,1-.57,1c-.29.38-.9.35-1.19.35s-.89,0-1.18-.35a1.27,1.27,0,0,1-.61-1,10.82,10.82,0,0,1,0-1.8,6.38,6.38,0,0,1,0-1.69,10.61,10.61,0,0,0,0-1.83,6.71,6.71,0,0,1,0-1.79,1.76,1.76,0,0,1,0-1.09c-.07-.54.09-.89-.2-1s-.28.13-.54.48a1,1,0,0,1-.42.77c-.25.35-.54.93-.8,1.31s-.67.74-.86,1.28c-.19.26-.64.61-.83.93a3.54,3.54,0,0,1-1.12.38c-.51.13-.74-.13-1.09-.45a1.25,1.25,0,0,1-.48-1.05,3.56,3.56,0,0,1,.83-1.7,7.41,7.41,0,0,0,.77-1.09A7.23,7.23,0,0,0,135,19a4.64,4.64,0,0,1,.68-1.15,6,6,0,0,1,.6-1.15,5.37,5.37,0,0,0,.61-1.25c.23-.32.32-.77.58-1.21a5.29,5.29,0,0,0,.54-1.35c.32-.86-.06-1-1.05-.89a12.57,12.57,0,0,1-2.56-.07,3,3,0,0,1-1-.51,4.18,4.18,0,0,1-.32-1.09,1.78,1.78,0,0,1,.32-1.09c.07-.28.64-.54.93-.54s.67.1,1.28,0c.42-.06.83.06,1.63,0a3.68,3.68,0,0,0,1.35-.26c.32-.12.29-.57.38-1.15-.06-1.41-.38-1.37-1.25-1.18s-1.6.22-2.11.22a1,1,0,0,1-1.21-.45,2.26,2.26,0,0,1-.48-1.18,2.85,2.85,0,0,1,.38-1.09c.1-.25.64-.48,1-.51s.77,0,1.12-.19a13.61,13.61,0,0,0,1.76-.26,8,8,0,0,1,1.67-.35c.64-.22,1.31-.32,1.76-.48a6.45,6.45,0,0,0,1.69-.54,2.55,2.55,0,0,0,1-.36,3.09,3.09,0,0,1,1.82.45,1.26,1.26,0,0,1,.51,1.22c.13.7-.25.93-.54,1.21a3.63,3.63,0,0,1-1.25.61c-.22.23-.54.07-1.18.35-.32,0-.68.39-.9.61s-.16.83-.22,1,.06.44,0,.92c.12.16-.13.68.32,1.09a1.2,1.2,0,0,0,1,.29c1,0,1.57,0,2.27,0,.29.1.9.16,1,.54a1,1,0,0,1,.32,1.09,1.22,1.22,0,0,1-.32,1.09,1.17,1.17,0,0,1-1,.51c-.57.07-1.28-.09-2.3,0A2.13,2.13,0,0,0,142.61,12.27Zm10.21,9.67a3.37,3.37,0,0,1-1.25.38,5.43,5.43,0,0,1-1.25-.38,1.34,1.34,0,0,1-.61-1.12c-.06-.67.1-1.35,0-2.11a6,6,0,0,1,0-2.08,8.29,8.29,0,0,1,0-2.12,5.81,5.81,0,0,1,0-2.08,18.56,18.56,0,0,1,0-2.11,8,8,0,0,1,0-2.08,14.37,14.37,0,0,0,0-2.08c-.06-.7.07-1.31,0-2.14-.06-.42.29-.71.61-1.09a6.56,6.56,0,0,1,1.25-.38c.26-.07.9.25,1.25.35A1.09,1.09,0,0,1,153.39,4a8,8,0,0,1,0,2.14,14.44,14.44,0,0,0,0,2.08,10.28,10.28,0,0,0,0,2.08,7.46,7.46,0,0,0,0,2.11c.06.8,0,1.35,0,2.08s-.16,1.32,0,2.12c.12.54-.1,1.53,0,2.08a11.43,11.43,0,0,0,0,2.11C153.36,21.46,153,21.62,152.82,21.94Zm7.39,1.82c-.06.35.06,1,0,1.44s.06,1.12-.19,1.6a2.46,2.46,0,0,1-.83,1.41,8.67,8.67,0,0,1-1.48.7,4.72,4.72,0,0,1-1.63.16,2.94,2.94,0,0,1-1.21,0c-.32-.13-.77,0-1.28-.19s-.9-.35-1-.58c-.35-.13-.38-.8-.41-1.15a2.33,2.33,0,0,1,.41-1.18c.32-.16.74-.55,1.09-.58a7.06,7.06,0,0,0,2.08.13c.64.16.7-.38.7-.93a3.16,3.16,0,0,0,0-1.37,8,8,0,0,1,0-1.38c.13-.54-.16-.8,0-1.41a3,3,0,0,1,0-1.41,5.16,5.16,0,0,1,0-1.37,3.12,3.12,0,0,1,0-1.41c-.09-.32.13-.93,0-1.41.1-.35-.09-.8,0-1.41s-.09-1.05,0-1.4a3.05,3.05,0,0,1,0-1.41,6.64,6.64,0,0,0,0-1.41,2.58,2.58,0,0,1,0-1.38,2.86,2.86,0,0,0,0-1.4,5.54,5.54,0,0,1,0-1.41,3.36,3.36,0,0,1,0-1.38c0-.54,0-1,0-1.44A2.07,2.07,0,0,1,157,1a3.74,3.74,0,0,1,1.28-.38,5.29,5.29,0,0,1,1.25.38,1.32,1.32,0,0,1,.61,1.12,5.31,5.31,0,0,0,0,1.47c0,.52-.16,1.06,0,1.44a2.65,2.65,0,0,0,0,1.44,7.38,7.38,0,0,0,0,1.41,5.29,5.29,0,0,0,0,1.44c-.06.64.1,1.06,0,1.44s.06.83,0,1.47.06,1,0,1.44a5.73,5.73,0,0,1,0,1.44,3.61,3.61,0,0,0,0,1.44c.06.48,0,.9,0,1.44a5.34,5.34,0,0,1,0,1.44c0,.42,0,1.06,0,1.44a5.12,5.12,0,0,0,0,1.41A9.89,9.89,0,0,1,160.21,23.76Z" fill="#fff"/><path d="M189.84,25.78a1.92,1.92,0,0,1-.64,1.47,1.73,1.73,0,0,1-1.5.51,13.79,13.79,0,0,1-2.21-.29,3.41,3.41,0,0,1-1.05-.32c-.29-.12-.68-.19-1.06-.38a1.85,1.85,0,0,1-1-.51c-.29-.16-.74-.29-.93-.58-.38-.29-.58-.29-.86-.67a4.23,4.23,0,0,1-.8-.77,5.12,5.12,0,0,1-1.09-1.44,4.81,4.81,0,0,1-.8-1.6,3.54,3.54,0,0,1-.48-1.69c0-.52-.1-1.32-.16-1.8A4.05,4.05,0,0,1,177.4,16c.12-.61.32-1.12.38-1.63a8.81,8.81,0,0,0,.61-1.6,7.34,7.34,0,0,1,.83-1.48c.29-.48.48-.57.7-1s.42-.45.84-.93c.12-.13.25-.22.51-.51s.41-.38.25-.7-.44-.16-1-.07c-.32.07-.67.1-.9.13a6.29,6.29,0,0,1-1.5.19,7.64,7.64,0,0,0-1.5.23c-.58.12-.93.12-1.51.22s-1.12.22-1.53.22a10,10,0,0,0-1.51.23c-.38,0-1,.25-1.5.22s-1.22.1-2,.19a2,2,0,0,1-1.21-.57,2.23,2.23,0,0,1-.48-1.31,2,2,0,0,1,.61-1.38c.25-.06.32-.22.76-.38a4.42,4.42,0,0,0,1.41-.23c.83-.06,1.51-.22,2.11-.25a11.71,11.71,0,0,0,2.08-.26,4.8,4.8,0,0,0,1.41-.16c.55-.16,1-.06,1.38-.16A3.47,3.47,0,0,1,178,4.85c.35.1.89-.22,1.37-.16a5.45,5.45,0,0,0,1.38-.13,3.85,3.85,0,0,0,1.37-.16,2.5,2.5,0,0,0,1.41-.16c.39-.06.87,0,1.41-.13A3.63,3.63,0,0,1,186.23,4a12.69,12.69,0,0,0,1.34-.16,9.25,9.25,0,0,0,1.28-.13,10.17,10.17,0,0,0,1.38-.1,1.9,1.9,0,0,1,1.37.48,2,2,0,0,1,.61,1.31,3.79,3.79,0,0,1-.42,1.19c-.19.38-.7.51-1.08.61-1,.28-1.51.41-2,.57a6.63,6.63,0,0,1-1.54.74c-.54.38-1,.45-1.37.83a7.17,7.17,0,0,0-1.38,1.09c-.41.51-.83.83-1.15,1.21a8.46,8.46,0,0,1-.93,1.35c-.32.45-.35.89-.54,1.09-.13.54-.42.86-.35,1.15a4.72,4.72,0,0,0-.2,1.21,9.7,9.7,0,0,0-.12,1.16A5.71,5.71,0,0,0,181.3,19a5.25,5.25,0,0,0,.45,1.21,3.34,3.34,0,0,0,.73,1.12c.39.29.64.58,1,.9a4.62,4.62,0,0,0,1.44.8,5.17,5.17,0,0,0,1.56.48,10.89,10.89,0,0,1,1.54.25,4.05,4.05,0,0,1,1.28.68A1.74,1.74,0,0,1,189.84,25.78Zm2.59-10.15a1.47,1.47,0,0,1-.41.93,1.21,1.21,0,0,1-.93.42,1.61,1.61,0,0,1-1.25-.77c-.29-.32-.77-1-1.09-1.31s-.67-.74-1.15-1.28a1.06,1.06,0,0,1-.38-.83,1.83,1.83,0,0,1,.45-.9,1.46,1.46,0,0,1,1-.38,1.63,1.63,0,0,1,1.31.64,10.28,10.28,0,0,0,1,1c.29.42.61.58,1,1.09A2.92,2.92,0,0,1,192.43,15.63ZM195.28,14a2.62,2.62,0,0,1-1,.38,2,2,0,0,1-1.18-.57c-.32-.39-.48-.61-.67-.8s-.29-.32-.61-.71a4.44,4.44,0,0,0-1.12-1.21.86.86,0,0,1-.35-.83c0-.39.16-.55.44-.9a2.11,2.11,0,0,1,1-.35,1.67,1.67,0,0,1,1.35.61c.38.35.77.83,1,1a3.48,3.48,0,0,0,1,1.09,1.72,1.72,0,0,1,.58,1.37A1.28,1.28,0,0,1,195.28,14Z" fill="#fff"/><path d="M224.15,18.39c0,.57.22,1.21.19,1.6a14.5,14.5,0,0,0-.16,1.66,6.13,6.13,0,0,1-.55,1.57c-.25.48-.64,1-.89,1.41-.51.48-.74.89-1.28,1.15a2.71,2.71,0,0,1-1.15.67c-.42.13-.93.45-1.38.61s-1.12.16-1.47.38a3.66,3.66,0,0,1-1.35,0c-.38-.09-1-.35-1.05-.6a2,2,0,0,1-.42-1.16,1.16,1.16,0,0,1,.42-1.15,1.52,1.52,0,0,1,1.09-.61,4.41,4.41,0,0,0,1.08-.22,4,4,0,0,0,1.41-.54,2.74,2.74,0,0,0,1.15-1c.13-.29.55-.71.55-1.06A1.53,1.53,0,0,0,220.5,20a1.94,1.94,0,0,0-.45-1.47c-.35-.42-.8-.64-1.09-1a6.1,6.1,0,0,0-1.47-.54,4.27,4.27,0,0,0-1.57-.16c-.54.16-.93-.13-1.41.06a3.83,3.83,0,0,0-1.34.16,10.88,10.88,0,0,1-1.76.32,1.25,1.25,0,0,0-.89,1.22c0,.77.06,1.47,0,1.82-.1.58.06,1,0,1.41a3.32,3.32,0,0,1,0,1.44,5.71,5.71,0,0,1-.23,1.95,1.53,1.53,0,0,1-.38.93,1.83,1.83,0,0,1-.61.8,2.11,2.11,0,0,1-1.57.77,7.84,7.84,0,0,1-1.73.19,4.15,4.15,0,0,1-2.08-.38c-.28,0-.86-.36-1-.42-.19-.32-.74-.22-.93-.61-.42-.32-.58-.35-.83-.73-.16-.19-.58-.42-.61-.9a2.49,2.49,0,0,1-.42-1,1.73,1.73,0,0,1-.16-1.09c0-.64.2-1,.16-1.4a12.3,12.3,0,0,1,.52-1.22c.32-.42.51-.9.73-1.12a4.68,4.68,0,0,1,1-1,11.34,11.34,0,0,0,1.09-.83c.26-.42.7-.36,1.18-.77a4.46,4.46,0,0,0,1.48-.77,3.08,3.08,0,0,0,.83-1.34,14,14,0,0,1,0-1.73c-.07-.51,0-.74,0-1.63,0-.42-.61-1-.93-.87a10.16,10.16,0,0,1-1.41.1,5.55,5.55,0,0,1-2.05.06,1.23,1.23,0,0,1-1.15-.51c-.41-.26-.38-.7-.45-1.18a1.42,1.42,0,0,1,.45-1.22,1.48,1.48,0,0,1,1.15-.54,4.85,4.85,0,0,0,1.38-.07,4.08,4.08,0,0,0,1.57-.09,2.39,2.39,0,0,0,1-.64,2.68,2.68,0,0,0,.39-1.28,6.26,6.26,0,0,0,0-1.73,9.24,9.24,0,0,1,0-1.35c.13-.32.19-.89.54-1.18a2.65,2.65,0,0,1,1.25-.41,2.8,2.8,0,0,1,1.25.41c.38.35.61.51.54,1.18,0,.33,0,.93,0,1.19a5.32,5.32,0,0,0,0,1.5,1.52,1.52,0,0,0,.57,1.06,1.75,1.75,0,0,0,1.12.29c.86-.2,1.19-.26,1.7-.36a2.05,2.05,0,0,1,1.37.52,4,4,0,0,1,.55,1.21c0,.77-.36,1-.77,1.35a5.36,5.36,0,0,1-1.57.51c-.45.25-.57.22-1.5.32a2.08,2.08,0,0,0-1,.67,1.53,1.53,0,0,0-.44,1.31,9.25,9.25,0,0,0,0,1.06,2,2,0,0,0,.28,1.15.8.8,0,0,0,.84.38,4.62,4.62,0,0,1,1.47-.19,4,4,0,0,0,1.4-.13,4.77,4.77,0,0,0,1.38,0,3.41,3.41,0,0,0,1.41.07,2.62,2.62,0,0,1,1.41.19,3.22,3.22,0,0,1,1.34.38c.42.29.77.29,1.31.61s.83.74,1.25,1c.22.32.7.93,1,1.25A2.94,2.94,0,0,1,224.15,18.39Zm-17.28,2.27c0-.87-.35-1.19-.87-1a9.38,9.38,0,0,0-1.21.87,2.12,2.12,0,0,0-.8,1,1.67,1.67,0,0,0-.29,1.25c-.1.67.45,1,.74,1.21a1.5,1.5,0,0,0,1.5.39c.83-.07.86-.45.93-1.35A18,18,0,0,1,206.87,20.66ZM226.35,9.39a3.7,3.7,0,0,1-.57,1.35,1.59,1.59,0,0,1-1.35.57,2.46,2.46,0,0,1-1.37-.54c-.19-.32-.61-.38-.83-.7a2.16,2.16,0,0,1-.84-.68,4.62,4.62,0,0,1-.89-.6,3,3,0,0,1-.9-.58,1.83,1.83,0,0,1-1-.86c-.39-.26-.23-.48-.32-.9a2.31,2.31,0,0,1,.57-1.38,1.94,1.94,0,0,1,1.31-.6,9.2,9.2,0,0,1,1.57.54c.61.26,1,.77,1.38.86s1,.8,1.47,1c.22.19.35.48.74.61a2.77,2.77,0,0,1,.64.64A1.15,1.15,0,0,1,226.35,9.39Z" fill="#fff"/><path d="M250.32,16.5a2.18,2.18,0,0,1-.54,1.34,1.7,1.7,0,0,1-1.34.61,1.62,1.62,0,0,1-1-.22c-.29-.13-.48-.39-.86-.58a12.4,12.4,0,0,1-1.38-1c-.44-.32-1-.61-1.37-.9a7.32,7.32,0,0,0-1.44-.86,8,8,0,0,0-1.35-.8.57.57,0,0,0-.8.61c0,.64,0,1.37,0,1.85.07.74-.12,1.16,0,1.73-.16.61.1,1.25,0,1.73,0,.7,0,1.09,0,1.73a5.28,5.28,0,0,0,0,1.73,7.6,7.6,0,0,1,0,1.72,5.83,5.83,0,0,0,0,1.76,2.09,2.09,0,0,1-.61,1.25,2.82,2.82,0,0,1-1.34.45,1.74,1.74,0,0,1-1.34-.45,1.35,1.35,0,0,1-.61-1.25,12.14,12.14,0,0,1,0-1.56,7.16,7.16,0,0,1,0-1.54,4.43,4.43,0,0,1,0-1.5c0-.55,0-1.09,0-1.54s0-1,0-1.54a5.2,5.2,0,0,0,0-1.53,7.6,7.6,0,0,1,0-1.51c.09-.54-.16-.92,0-1.53-.13-.42.12-1,0-1.54a5.49,5.49,0,0,1,0-1.53,3.08,3.08,0,0,1,0-1.54c.12-.45-.07-1,0-1.54a6.27,6.27,0,0,0,0-1.5,6.07,6.07,0,0,1,0-1.54c.06-.54,0-.86,0-1.53.09-.48-.07-1,0-1.54a1.84,1.84,0,0,1,.61-1.28,1.93,1.93,0,0,1,1.34-.48,2.21,2.21,0,0,1,1.34.48,1.42,1.42,0,0,1,.68,1.22,9.48,9.48,0,0,1,0,2.33,8.7,8.7,0,0,1,0,2.28,19.7,19.7,0,0,1,0,2.43c0,1,.48,1.28,1.32,1a1.43,1.43,0,0,1,1.12.25c.28.2.76.32,1.08.52a2.92,2.92,0,0,0,1.19.64c.45.25.83.51,1.12.64.45.22.64.51,1.12.7a11.62,11.62,0,0,0,1.44,1c.57.38.89.86,1.34,1.18A2.14,2.14,0,0,1,250.32,16.5Z" fill="#fff"/><path d="M276.24,8.91a3.12,3.12,0,0,1-.28,1.7,14.27,14.27,0,0,1-.65,1.86c-.25.76-.57,1.34-.73,1.79a3.15,3.15,0,0,1-.42.89c-.12.39-.38.61-.44.84s-.26.73-.45.86-.26.67-.51.83c-.2.32-.23.67-.52.8-.16.39-.22.71-.54.8-.29.39-.32.58-.58.8a3.28,3.28,0,0,1-.57.77,5.36,5.36,0,0,0-.64.74,1.58,1.58,0,0,1-.61.73,3.47,3.47,0,0,1-.67.71,1.08,1.08,0,0,0-.67.7,2.08,2.08,0,0,0-.74.7,2.43,2.43,0,0,0-.8.71c-.29.38-.67.41-.83.73a8.27,8.27,0,0,0-.87.71,2.64,2.64,0,0,1-.89.67c-.23.38-.51.41-.9.64a2,2,0,0,0-.89.51,2.69,2.69,0,0,1-1,.48,1.84,1.84,0,0,1-1,.22,1.86,1.86,0,0,1-1.35-.57,2.19,2.19,0,0,1-.54-1.35,1.83,1.83,0,0,1,.29-1c.06-.25.57-.57.73-.73a10,10,0,0,1,1-.61c.13-.13.71-.45.9-.58.41-.25.67-.44.89-.6.42-.07.55-.42.87-.64s.7-.71,1.05-.9.61-.61,1-.93c.22-.25.73-.54,1-1a4.16,4.16,0,0,0,1-1c.13-.42.58-.58.86-1.09s.58-.8.84-1.12a7.11,7.11,0,0,0,.76-1.15c.23-.23.29-.71.68-1.22,0-.19.38-.48.48-1,.22-.29.35-.93.57-1.31a8,8,0,0,1,.55-1.31,2,2,0,0,0,.25-1,.67.67,0,0,0-.67-.64c-.7,0-1.28,0-1.76,0-.7-.06-1.25.13-1.79,0s-1.22.06-1.79,0a3.64,3.64,0,0,0-1.6.2,1.47,1.47,0,0,0-.64.57c-.23.29-.48.35-.55.74-.29.64-.86,1-1.12,1.44-.16.22-.54.48-.61.67a6.25,6.25,0,0,0-.6.67,5.58,5.58,0,0,1-.61.67,3.21,3.21,0,0,0-.67.64,2.41,2.41,0,0,1-1,.8,2.37,2.37,0,0,1-1.16.36,1.65,1.65,0,0,1-1.28-.52c-.38-.41-.64-.7-.57-1.24a3,3,0,0,1,.8-1.64,8.55,8.55,0,0,0,1.12-1.05c.16-.13.54-.71.83-.87a4,4,0,0,1,.83-1,1.83,1.83,0,0,0,.83-1.08,8,8,0,0,0,.84-1.09,4.67,4.67,0,0,1,.76-1.19,3.55,3.55,0,0,1,.68-1.08,6.83,6.83,0,0,0,.64-1.12,2.84,2.84,0,0,0,.54-1.12c.06-.32.48-.9.64-1.44a2.44,2.44,0,0,1,.77-.9A1.94,1.94,0,0,1,265.88.5a2.31,2.31,0,0,1,1.34.48,2.1,2.1,0,0,1,.64,1.28,2.64,2.64,0,0,1-.51,1.53c-.07.42-.23.42-.45,1-.22.41-.13,1.15.51,1.12.8,0,1.31.06,1.73,0a7.38,7.38,0,0,0,1.5,0c.55-.06,1,.1,1.51,0a4.1,4.1,0,0,1,1.82.2,2,2,0,0,1,1.57.89,2.77,2.77,0,0,1,.54.9A3.56,3.56,0,0,1,276.24,8.91Z" fill="#fff"/><path d="M290.29,13.59c-.06.54-.51.73-.54,1.28a8.07,8.07,0,0,1-.55,1.24c-.32.29-.38.93-.6,1.22a8,8,0,0,1-.61,1.22,3.82,3.82,0,0,1-.67,1.18,4.68,4.68,0,0,1-.93,1.38,2.09,2.09,0,0,1-1.44.67,2.21,2.21,0,0,1-1.31-.51,2.26,2.26,0,0,1-.58-1.25,2.33,2.33,0,0,1,.71-1.76,5.93,5.93,0,0,1,.57-1,2.5,2.5,0,0,1,.58-1c.16-.48.48-.71.51-1s.41-.54.51-1a3.59,3.59,0,0,0,.48-1,4.48,4.48,0,0,1,.38-.8,4.87,4.87,0,0,0,.42-1,.84.84,0,0,0-.9-1,4.52,4.52,0,0,1-1.05.06,2.5,2.5,0,0,1-1.95-.54,1.8,1.8,0,0,1-.58-1.28,2.22,2.22,0,0,1,.77-1.51,5.25,5.25,0,0,1,2.24-.32h.67A4.63,4.63,0,0,0,288,6.64c.25-.06,1.21-.73,1.28-1,.09-.52.32-.8.32-1.12,0-.61.41-1.12.44-1.76a2.76,2.76,0,0,1,.68-1.86A1.68,1.68,0,0,1,292,.31a1.8,1.8,0,0,1,1.22.38c.48.32.41.61.6,1.06a3.81,3.81,0,0,1-.22,1.56,6.17,6.17,0,0,1-.35,1.38c-.19.54.06,1.25.51,1.22a5,5,0,0,0,1-.16,11.15,11.15,0,0,1,1.34-.2,2,2,0,0,1,1.16.58,2.27,2.27,0,0,1,.48,1.22,1.31,1.31,0,0,1-.87,1.44,3.74,3.74,0,0,1-1.73.48c-.48.09-.7.09-1.12.16-.25.12-.67.09-1.34.28a3.42,3.42,0,0,0-1.41,1.41c-.29.71-.35.93-.45,1.22A6.16,6.16,0,0,1,290.29,13.59Zm18,10.81a1.81,1.81,0,0,1-.51,1.28c-.36.26-.93.74-1.25.58a1.66,1.66,0,0,1-1.15-.39,1.9,1.9,0,0,0-1-.67c-.41-.16-.54-.41-1.25-.73a1.14,1.14,0,0,0-1.5.89c-.26.71-.51.8-.58,1.22a6,6,0,0,1-.7.77,5.52,5.52,0,0,0-1,.67,9.58,9.58,0,0,1-1.06.38,2.32,2.32,0,0,1-1.15.22c-.38-.06-.8.1-1.15.07a7.52,7.52,0,0,1-2.08-.19c-.29-.19-.64,0-1-.29-.42-.1-.8-.16-1-.42-.48-.35-.8-.48-.93-.73-.35-.13-.48-.71-.67-.9a2.86,2.86,0,0,1-.42-1.05,2.93,2.93,0,0,1-.13-1.16,3,3,0,0,1,.48-2,4.05,4.05,0,0,0,.61-.86c.32-.36.58-.45.77-.68a11.59,11.59,0,0,1,1-.6,4.21,4.21,0,0,0,1.15-.39,2.24,2.24,0,0,0,1.16-.19c.35-.06.73,0,1.47-.06a1.09,1.09,0,0,0,1-1.16c.06-.76-.13-1.47-.1-2a18.35,18.35,0,0,0,.1-2.24c.16-1,.26-1.57.67-1.86a5.55,5.55,0,0,1,1.22-.38c.25.06,1,.06,1.21.35a1,1,0,0,1,.64,1c.1.55-.16,1-.12,1.28,0,.77-.1,1.22-.1,1.76a6.38,6.38,0,0,1,.06,1.15,7.94,7.94,0,0,0,.16,1.57,2.08,2.08,0,0,0,.29,1.06,1.63,1.63,0,0,0,.87.64,12.1,12.1,0,0,0,1.82.7c.48.16.77.42,1.34.67s.87.58,1.32.74.73.61,1,.8C308,23.67,308.21,24,308.31,24.4Zm-10.5-1.6a3.13,3.13,0,0,0-1.57-.32,4.42,4.42,0,0,0-1.82.26,1.26,1.26,0,0,0-1,1.25c-.1.73.32.86.89,1.12a9.86,9.86,0,0,0,1.73.22,2.34,2.34,0,0,0,1.76-.61c.26-.13.32-.25.35-.7A1.5,1.5,0,0,0,297.81,22.8Zm11-11.42c-.48.29-.77.7-1.25.57-.48,0-.58-.16-1-.28a2.26,2.26,0,0,1-1-.58,5.4,5.4,0,0,1-1-.51c-.38-.23-.61-.16-1-.48s-.64-.19-1.06-.45a2.33,2.33,0,0,1-1.31-.77,1.54,1.54,0,0,1,.16-2.27,1.34,1.34,0,0,1,1.31-.54,9.59,9.59,0,0,1,1.47.32c.55.19.8.48,1.35.54a4.85,4.85,0,0,1,1.63.74,2,2,0,0,1,.83.48,5.78,5.78,0,0,0,.74.54,1.3,1.3,0,0,1,.67,1.41A1.69,1.69,0,0,1,308.79,11.38Z" fill="#fff"/><path d="M11.07,57a17.56,17.56,0,0,1-.57,2,4.13,4.13,0,0,1-.35,1,1.69,1.69,0,0,0-.36,1,5.44,5.44,0,0,0-.41,1c-.26.35-.19.71-.39.93a6.41,6.41,0,0,1-.44.93c-.32.22-.32.7-.45.89a7.78,7.78,0,0,1-.51.9c-.26.35-.29.74-.48.86-.16.42-.52.64-.52.84a2.27,2.27,0,0,0-.54.8,1.69,1.69,0,0,0-.54.76c-.23.39-.52.45-.58.74a13.9,13.9,0,0,0-1.15,1.38c-.35.35-.58.38-.8.6a1.55,1.55,0,0,1-1,.23,1.87,1.87,0,0,1-1.41-.58A1.88,1.88,0,0,1,0,69.75a2.53,2.53,0,0,1,.64-1.51c.26-.22.45-.67.87-1a12.81,12.81,0,0,1,.83-1.06c.22-.42.64-.74.73-1.09.39-.32.42-.64.71-1.12a8.45,8.45,0,0,1,.8-1.37c.13-.42.64-1,.77-1.48A5.44,5.44,0,0,0,6,59.6c.32-.32.35-1,.57-1.5a11.86,11.86,0,0,0,.52-1.54c.12-.29.41-.86.73-1A2.69,2.69,0,0,1,9,55.19a2.24,2.24,0,0,1,1.4.51A1.29,1.29,0,0,1,11.07,57Zm16.51,13.7a2.27,2.27,0,0,1-1.47.57,1.78,1.78,0,0,1-1.21-.41c-.48-.16-.61-.61-.8-1a12.83,12.83,0,0,1-.61-1.4c-.06-.32-.42-.71-.51-1.12a6.55,6.55,0,0,0-.55-1.09c-.35-.26-.35-.64-.57-1.06s-.42-.57-.58-1.09c-.09-.28-.48-.64-.64-1S20.19,62.48,20,62a4.13,4.13,0,0,1-.64-1c-.38-.32-.35-.57-.67-1a2.84,2.84,0,0,0-.9-1.28,5,5,0,0,0-1-1.28,2.18,2.18,0,0,1-.38-1.12,1.86,1.86,0,0,1,1.92-1.73,3.58,3.58,0,0,1,1.73.83,5.1,5.1,0,0,1,.61.71c.19.16.35.51.57.73s.23.61.58.74c.06.35.48.54.54.77a4.19,4.19,0,0,0,.51.76c.23.26.23.58.55.8.13.42.22.64.48.8a1.2,1.2,0,0,0,.51.77c.19.26.29.48.48.8a2.42,2.42,0,0,0,.48.83c.22.45.42.55.48.84s.19.57.45.83c0,.29.25.51.45.86a2.09,2.09,0,0,1,.41.83,7.88,7.88,0,0,1,1,2.79A1.43,1.43,0,0,1,27.58,70.71Z" fill="#fff"/><path d="M34.82,55.86a3.4,3.4,0,0,1-1-1,1.48,1.48,0,0,1-.29-.89,2.21,2.21,0,0,1,.67-1.44,3.2,3.2,0,0,1,1.44-.61,1.59,1.59,0,0,1,.93.22,4.36,4.36,0,0,1,.89.52c.2.22.64.41.83.6s.52.39.71.58.32.45.77.64a2.42,2.42,0,0,0,.77.67c.25.19.67.45.76.74.39.29.42.61.67.77a1.17,1.17,0,0,1,.36,1.18,2.68,2.68,0,0,1-.64,1.5,2.71,2.71,0,0,1-1.51.68,2.49,2.49,0,0,1-1.47-.64c-.22-.23-.67-.64-1-.9s-.51-.67-1-.9a3.13,3.13,0,0,0-1-.86C35.62,56.56,35.14,56.15,34.82,55.86Zm22.62,2.43c-.25.67-.73,1-.89,1.47a7.09,7.09,0,0,1-1,1.41,5.9,5.9,0,0,1-1,1.38c-.48.54-.64.92-1,1.31a11.79,11.79,0,0,1-1.12,1.28,13.29,13.29,0,0,1-1.15,1.21c-.39.32-.87.9-1.22,1.16-.35.54-1,.76-1.31,1.15s-1,.61-1.25,1-.89.58-1.31,1a5.62,5.62,0,0,1-1.34.93,4,4,0,0,1-1.41.86,5.85,5.85,0,0,0-1.41.77,13.5,13.5,0,0,1-1.47.74,4.73,4.73,0,0,1-1.47.67c-.42.25-1.06.41-1.54.64a2.05,2.05,0,0,1-.89.13,1.92,1.92,0,0,1-1.41-.61,2.35,2.35,0,0,1-.58-1.44,1.65,1.65,0,0,1,.77-1.44,7.9,7.9,0,0,1,1.6-.77c.19-.13.42-.16.9-.38a2,2,0,0,1,.86-.42,5.73,5.73,0,0,1,.89-.45c.26-.09.45-.41.87-.45s.45-.28.86-.48a4.17,4.17,0,0,1,.83-.51c.36-.13.55-.48.84-.54a3.61,3.61,0,0,1,.8-.55c.16-.12.6-.28.8-.57a1.86,1.86,0,0,0,.76-.61c.13-.26.52-.26.77-.61s.51-.48.77-.64a2.08,2.08,0,0,0,.74-.64c.22-.06.32-.35.7-.67s.45-.61.7-.7c.2-.26.39-.61.68-.74.22-.35.83-.7,1.08-1.22.36-.28.64-.92,1-1.28a7,7,0,0,1,.92-1.34c.42-.51.48-.83.87-1.38.25-.38.61-.7.8-1,.38-.32.61-.58,1.21-.48a2.92,2.92,0,0,1,1.41.51,1.9,1.9,0,0,1,.64,1.34A3.53,3.53,0,0,1,57.44,58.29Z" fill="#fff"/><path d="M88.16,73.84a1.53,1.53,0,0,1-.67,1.41,2.19,2.19,0,0,1-1.44.58c-.7.16-1.18-.36-1.6-.77s-.48-.58-.8-.93-.42-.64-.8-.9a3,3,0,0,1-.83-.89c-.26-.35-.71-.58-.87-.87s-.6-.44-.86-.83a2.63,2.63,0,0,1-.89-.8,5.38,5.38,0,0,1-.93-.8c-.36-.29-.61-.41-1-.77a1.1,1.1,0,0,0-1.53,0,4.6,4.6,0,0,0-.77.8,4.42,4.42,0,0,1-.58.55c-.48.41-.7.83-1.12,1a7.11,7.11,0,0,1-1.15,1,5.78,5.78,0,0,0-1.18.9,4.17,4.17,0,0,0-1.22.86c-.45.41-1,.48-1.25.8a9.49,9.49,0,0,0-1.31.77,7.78,7.78,0,0,0-1,.54,3.59,3.59,0,0,1-1.12.26,1.91,1.91,0,0,1-1.34-.58,2.62,2.62,0,0,1-.58-1.38,1.48,1.48,0,0,1,.29-.95,1.22,1.22,0,0,1,.7-.68,4,4,0,0,0,1-.57,5.19,5.19,0,0,0,1-.55,6.64,6.64,0,0,0,1-.54c.38,0,.51-.42.93-.61s.73-.54,1.28-.89A9.37,9.37,0,0,1,70.69,68c.45-.26.8-.77,1.19-1A14.1,14.1,0,0,1,73,66c.25-.32.8-.64,1.08-1.12a4.31,4.31,0,0,0,1-1.12c.16-.45.64-.67,1-1.21s.57-.9.86-1.28c0-.39.22-.52.58-.9a6.18,6.18,0,0,0,.7-1.28,5.48,5.48,0,0,0,.67-1.28c.07-.26.26-.35.29-.64.23-.64-.29-.8-.67-.83s-1,.13-1.31,0a4.57,4.57,0,0,1-1.44,0,5.43,5.43,0,0,1-1.44,0c-.45,0-1.06.06-1.44,0-.55-.06-.93.16-1.44,0s-.9.16-1.44,0a4.2,4.2,0,0,1-1.41,0,7.83,7.83,0,0,0-1.5,0,2.16,2.16,0,0,1-1.19-.58c-.45-.35-.38-.73-.45-1.25a2.2,2.2,0,0,1,.42-1.28A1.42,1.42,0,0,1,67,52.82a6.37,6.37,0,0,1,1.64-.07c.41.13,1.12-.12,1.6,0a3.35,3.35,0,0,0,1.6,0,5.3,5.3,0,0,0,1.6,0,12.24,12.24,0,0,0,1.6,0c.64.09.89-.13,1.59,0,.68-.16,1,.12,1.6,0,.39-.09,1.06.1,1.57,0a7,7,0,0,1,1.73.19,3.13,3.13,0,0,1,1.47.84,2.42,2.42,0,0,1,.67,1.82,2.27,2.27,0,0,1-.12,1.09,6,6,0,0,0-.39,1.18c-.16.51-.38.8-.57,1.31a7.39,7.39,0,0,1-.71,1.35,3.81,3.81,0,0,1-.77,1.31c-.25.32-.57.86-.79,1.22s-.45.6-.74,1.12a1.16,1.16,0,0,0,.19,1.37,3.77,3.77,0,0,0,1.25.9c.45.35.73.61,1,.83a3.38,3.38,0,0,1,1,.83,10.94,10.94,0,0,0,1,.87c.22.48.64.48,1,.92.25.23.61.58.93.93a4.49,4.49,0,0,0,.92,1c.1.39.52.71.84,1A1.61,1.61,0,0,1,88.16,73.84ZM83.27,51.35c-.61-.8-.61-1.38,0-1.83a1.74,1.74,0,0,1,1-.41,1.65,1.65,0,0,1,1.25.67c.32.41.83.83.92,1.18.2.19.52.87.8,1.12a2.16,2.16,0,0,1,.48,1.31c0,.39-.09.77-.41.93-.39.39-.74.51-1,.42A1.28,1.28,0,0,1,85.15,54a6.94,6.94,0,0,1-.89-1.34C83.81,52,83.46,51.6,83.27,51.35Zm7.93-.2c0,.32-.22.84-.41.93a4.05,4.05,0,0,1-.93.39c-.45.16-1-.32-1.28-.74-.35-.22-.29-.58-.58-.86s-.35-.58-.54-.74c-.39-.51-.67-.8-1-1.34a1.31,1.31,0,0,1,1.09-1.92,1.5,1.5,0,0,1,1.12.45c.26.25.42.51.71.76l.8,1c.19.28.51.64.76,1.08A1.67,1.67,0,0,1,91.2,51.15Z" fill="#fff"/><path d="M122.72,64.37a5.21,5.21,0,0,1-.19,1.25c0,.54-.32.73-.29,1.25a7,7,0,0,1-.45,1.18c-.28.29-.35.9-.54,1.12a3.55,3.55,0,0,1-.67,1.09,2.48,2.48,0,0,1-.77,1c-.32.48-.7.61-.93.93s-.73.54-1.12.86-1.09.61-1.41.87c-.57.31-1,.51-1.47.7s-.86.32-1.41.45a2,2,0,0,1-1.72-.51,1.35,1.35,0,0,1-.61-1.35c-.13-.29.19-.77.38-1.12s.64-.41,1-.7a5.59,5.59,0,0,0,1.25-.55,10.28,10.28,0,0,0,1.12-.6,10.13,10.13,0,0,0,1.09-.71,3.79,3.79,0,0,0,1-.89c.42-.2.51-.77.86-1.22.1-.38.55-.77.61-1.34a8.68,8.68,0,0,0,.35-1.48,6.56,6.56,0,0,1,.1-1.5c-.16-.42,0-.93-.13-1.47a10.36,10.36,0,0,0-.38-1.44,7.16,7.16,0,0,0-.64-1.31,10.63,10.63,0,0,0-.87-1.16,5.49,5.49,0,0,0-1.34-1.15,6.25,6.25,0,0,0-1.54-.8,3,3,0,0,0-1.28-.35,1.52,1.52,0,0,0-1.44,1c-.19,1-.12,1.48-.25,1.92,0,.64-.23,1.22-.26,1.6a9.43,9.43,0,0,0-.32,1.64,9.32,9.32,0,0,1-.41,1.56c-.26.61-.29,1.22-.48,1.57-.2.67-.55,1.12-.61,1.54s-.45.86-.67,1.5a3.62,3.62,0,0,1-.61,1.12,2.29,2.29,0,0,1-.67,1.06,3.94,3.94,0,0,1-.84,1,5.17,5.17,0,0,0-1,.83,6.91,6.91,0,0,1-1.75.8,6.05,6.05,0,0,1-1.89.29,3.31,3.31,0,0,1-2.15-.45,4.79,4.79,0,0,1-1-.51c-.44-.16-.48-.45-.86-.7a4.09,4.09,0,0,1-1-1.32,2.42,2.42,0,0,1-.67-1.5,14.63,14.63,0,0,0-.36-1.63,9,9,0,0,1-.09-1.63,5.77,5.77,0,0,0,.06-1.28,4.75,4.75,0,0,0,.19-1.25A5.2,5.2,0,0,1,96,61.36c.07-.32.13-.93.42-1.18A4.94,4.94,0,0,1,97,59,3.69,3.69,0,0,1,97.6,58c.29-.29.48-.83.77-1A3.83,3.83,0,0,1,99.2,56c.48-.48.87-.71,1.16-1a2.36,2.36,0,0,1,1.28-.89c.32-.1.86-.64,1.31-.74a4.85,4.85,0,0,1,1.41-.61,2.75,2.75,0,0,0,1.47-.44c.54-.26,1-.13,1.5-.32s.83-.07,1.5-.2a6.22,6.22,0,0,1,1.54-.06c.35,0,.74.06,1.28,0a6.9,6.9,0,0,1,1.25.16c.54,0,.8.23,1.25.23a4,4,0,0,0,1.21.35,4.93,4.93,0,0,0,1.19.48,4,4,0,0,0,1.12.61,11.21,11.21,0,0,0,1,.7c.42.32.67.61,1,.86s.42.58.74.8a7,7,0,0,0,.64.9,6.38,6.38,0,0,0,.51,1c.06.42.38.67.45,1a1.59,1.59,0,0,1,.35,1.06c0,.38.26.64.22,1a8.89,8.89,0,0,1,.2,2.18A3.49,3.49,0,0,0,122.72,64.37Zm-15.49-7.81a.9.9,0,0,0-1-.7,3,3,0,0,0-1,.29c-.32.16-.63.38-.92.51s-.61.57-1,.64c-.41.35-.63.41-.86.73-.29.16-.38.52-.77.84s-.41.73-.67.89c-.06.32-.32.51-.57,1a3.24,3.24,0,0,0-.45,1,3.28,3.28,0,0,0-.32,1.09,5.7,5.7,0,0,0-.29,2.24,5.8,5.8,0,0,1,.1,1.21c.09.29,0,.9.32,1.28a4.15,4.15,0,0,0,.67,1,1.65,1.65,0,0,0,1.12.41,3.2,3.2,0,0,0,1.18-.32c.26-.16.48-.54.87-.8s.48-.77.73-1.09a5.88,5.88,0,0,0,.54-1.12,7.06,7.06,0,0,1,.55-1.21c.13-.48.35-.87.45-1.28a6.42,6.42,0,0,0,.41-1.28,3.14,3.14,0,0,1,.32-1.31,5.81,5.81,0,0,1,.26-1.32A11,11,0,0,0,107,58C107,57.55,107.3,57.23,107.23,56.56Z" fill="#fff"/><path d="M154.11,54.51a3.19,3.19,0,0,1-.32,1.51,4.89,4.89,0,0,1-.8,1.47,14.48,14.48,0,0,1-1,1.38c-.29.57-.83.76-1,1.12a2.94,2.94,0,0,0-.71.73c-.12.35-.57.61-.8.8s-.48.67-.83.74c-.45.32-.54.51-.86.61a3.52,3.52,0,0,1-1.06.28,1.46,1.46,0,0,1-1.24-.57,2.41,2.41,0,0,1-.55-1.28c0-.51,0-.71.26-1,.29-.48.51-.51.67-.74a4.51,4.51,0,0,1,1.06-.93c.48-.41.63-.67,1.15-1.15.25-.32.86-.8,1-1.18a.63.63,0,0,0-.07-.83,2.28,2.28,0,0,0-1.28-.23c-.48-.06-.86,0-1.18,0-.77.06-1.63-.1-2.27,0s-1.63,0-2.24,0c-.9.1-1.6,0-2.31,0s-1.53-.12-2.27,0c-.77,0-1.63,0-2.3,0a11.48,11.48,0,0,1-2.27,0,7.16,7.16,0,0,1-2.31,0c-.41-.13-.89-.13-1.25-.55a2.3,2.3,0,0,1-.48-1.28,2.18,2.18,0,0,1,.48-1.28,2.06,2.06,0,0,1,1.25-.57,20,20,0,0,1,2.47,0,7.36,7.36,0,0,0,2.4,0c.86-.12,1.63.1,2.4,0a19.09,19.09,0,0,0,2.4,0c.67,0,1.6-.09,2.43,0s1.69,0,2.4,0a20.87,20.87,0,0,0,2.4,0c.8-.1,1.6,0,2.4,0,.32,0,1,.13,1.47.13a6.05,6.05,0,0,1,1.37.51c.39.13.64.7,1,.93S154.11,54.07,154.11,54.51ZM143,59.06a12.37,12.37,0,0,0,0,1.57c-.09.54,0,1.12-.06,1.47a10,10,0,0,0-.16,1.47c-.07.42-.19.83-.26,1.44a9.79,9.79,0,0,0-.38,1.41c-.16.61-.45.86-.48,1.37s-.42.84-.64,1.35a6,6,0,0,1-.74,1.28,2.66,2.66,0,0,1-.86,1.18c-.39.39-.58.83-1.09,1.28A5.77,5.77,0,0,1,137.12,74c-.57.39-.8.71-1.31,1a15.28,15.28,0,0,1-1.44.89,2.43,2.43,0,0,1-1.15.32,2,2,0,0,1-1.34-.57,1.77,1.77,0,0,1-.23-2.37,2.61,2.61,0,0,1,.87-.8,8.82,8.82,0,0,0,1.24-.86c.55-.13.77-.61,1.19-.93s.57-.64,1.05-1.06c.29-.32.61-.77.93-1.18.07-.35.39-.45.55-.9a5.55,5.55,0,0,0,.48-.93,1.87,1.87,0,0,0,.35-1,1.81,1.81,0,0,0,.32-1,13.1,13.1,0,0,1,.35-2c.06-.58.13-1.48.13-2.08a14,14,0,0,1,0-1.57,1.29,1.29,0,0,1,.61-1.22,2,2,0,0,1,1.31-.41c.54.09,1,0,1.31.41A1.88,1.88,0,0,1,143,59.06Z" fill="#fff"/><path d="M183.14,56.37a4,4,0,0,1-.23,1.86,13.14,13.14,0,0,0-.38,1.44c-.13.51-.42,1-.48,1.44a10.72,10.72,0,0,1-.58,1.4c-.35.32-.35,1-.64,1.35a12.81,12.81,0,0,1-.73,1.31,5.17,5.17,0,0,1-.8,1.25,8.63,8.63,0,0,1-.9,1.25,8.24,8.24,0,0,0-.92,1.15,7.63,7.63,0,0,0-1,1.12,6.52,6.52,0,0,1-1,1c-.39.45-.84.74-1.12,1a4.83,4.83,0,0,1-1.19,1,2.53,2.53,0,0,1-1.21.86c-.48.26-.9.61-1.25.83a3.75,3.75,0,0,1-1.31.74,13,13,0,0,1-1.35.67,3.72,3.72,0,0,1-1.12.26,2.3,2.3,0,0,1-1.34-.58,2.36,2.36,0,0,1-.58-1.37,2.58,2.58,0,0,1,.29-1c.22-.44.58-.54.74-.73.44-.23.54-.29,1-.58a3.88,3.88,0,0,0,1-.57,2.63,2.63,0,0,0,1-.61,9.67,9.67,0,0,1,1-.64,3.44,3.44,0,0,0,1.08-.83c.2-.36.68-.45,1-.87s.67-.67,1-.93.64-.48.93-1c.29-.16.41-.54.86-1a5.4,5.4,0,0,1,.8-1.09,4.36,4.36,0,0,1,.77-1.12,6.8,6.8,0,0,1,.67-1.18c.22-.35.35-.74.54-1a5.4,5.4,0,0,0,.52-1.12c.16-.41.29-.73.41-1.12a6.24,6.24,0,0,0,.29-1.15c.07-.83-.7-1.05-1.22-1.05-.73-.07-1.21.06-1.91,0s-1.32.06-1.92,0a17.76,17.76,0,0,0-2,0l-1.92,0c-.73.1-1.34-.06-1.95,0s-1.28-.09-1.92,0-1.37,0-1.92,0a8.47,8.47,0,0,1-1.95,0,2.08,2.08,0,0,1-1.38-.58,2,2,0,0,1-.54-1.38,2.23,2.23,0,0,1,.48-1.31,1.74,1.74,0,0,1,1.25-.54,19.9,19.9,0,0,1,2.08,0c.64,0,1.34-.13,2.05,0a15.41,15.41,0,0,1,2,0,4.4,4.4,0,0,0,2.05,0c.74-.13,1.41.13,2,0s1.18.07,2.05,0a19,19,0,0,1,2.05,0,19.21,19.21,0,0,1,2,0,3.84,3.84,0,0,1,1.7.09,6.22,6.22,0,0,1,1.47.68,2.48,2.48,0,0,1,1.12,1.18C183.07,55.22,183,55.76,183.14,56.37Zm4.8-4.61a9.45,9.45,0,0,1-.74,1.12,2.14,2.14,0,0,1-1.12.77,2.36,2.36,0,0,1-1.37.29,2.67,2.67,0,0,1-1.38-.29c-.38-.26-.83-.35-1.15-.77a2.88,2.88,0,0,1-.74-1.12,2.84,2.84,0,0,1-.29-1.37,3.26,3.26,0,0,1,.29-1.38c.23-.54.51-.67.77-1.12a6.65,6.65,0,0,1,1.12-.77,3.41,3.41,0,0,1,1.38-.25,3,3,0,0,1,1.37.25,1.94,1.94,0,0,1,1.12.77,3.36,3.36,0,0,1,.74,1.12,9,9,0,0,1,.25,1.41A3.44,3.44,0,0,1,187.94,51.76Zm-1.51-1.37a1.91,1.91,0,0,0-.51-1.25,1.44,1.44,0,0,0-1.25-.51,1.75,1.75,0,0,0-1.21.51,1.44,1.44,0,0,0-.51,1.25,1.22,1.22,0,0,0,.51,1.21,1.37,1.37,0,0,0,1.21.55,1.28,1.28,0,0,0,1.25-.52A2.42,2.42,0,0,0,186.43,50.39Z" fill="#fff"/><path d="M199.08,64.75a2.07,2.07,0,0,1-.64,1.28,2.37,2.37,0,0,1-1.38.45,2,2,0,0,1-1.38-.45,1.48,1.48,0,0,1-.6-1.28c0-.57,0-1,0-1.6a11.58,11.58,0,0,0,0-1.56c0-.64,0-1,0-1.57a5.71,5.71,0,0,1,0-1.6,10.28,10.28,0,0,1,0-1.57,5.51,5.51,0,0,1,0-1.57,12.19,12.19,0,0,0,0-1.6,6.61,6.61,0,0,1,0-1.6,2,2,0,0,1,.6-1.28,1.91,1.91,0,0,1,1.38-.45c.61.1,1,.1,1.38.45a2,2,0,0,1,.64,1.28,14.76,14.76,0,0,1,0,1.63c0,.61-.07,1.16,0,1.57a5.16,5.16,0,0,0,0,1.57,9.11,9.11,0,0,1,0,1.57,12.07,12.07,0,0,0,0,1.6,5.11,5.11,0,0,0,0,1.57c0,.44,0,.92,0,1.56A7.75,7.75,0,0,0,199.08,64.75Zm12.28-3.64c0,.67-.06,1.15-.06,1.63a3.77,3.77,0,0,1-.16,1.6,10.93,10.93,0,0,0-.26,1.57c0,.51-.41,1.15-.41,1.56-.29.61-.23,1.06-.55,1.51-.25.64-.54,1.09-.7,1.44a9.35,9.35,0,0,0-.86,1.34,4.68,4.68,0,0,1-1,1.28,3.66,3.66,0,0,1-1.28,1.25c-.25.35-.61.35-.73.64a4.56,4.56,0,0,0-.77.58,7.46,7.46,0,0,0-.8.54,2.42,2.42,0,0,0-.83.51,10.18,10.18,0,0,1-1.67.71,2,2,0,0,1-1.89-.48,1.87,1.87,0,0,1-.67-1.38,2,2,0,0,1,.35-1c.1-.13.61-.48.87-.71a4.39,4.39,0,0,1,.86-.48,5.13,5.13,0,0,0,.87-.51c.12-.13.6-.35.8-.51s.44-.32.76-.61a4.71,4.71,0,0,0,.9-.86c.42-.16.51-.64.8-1a9.76,9.76,0,0,1,.7-1.06,9.43,9.43,0,0,1,.58-1.12,16.79,16.79,0,0,1,.54-1.6,3.38,3.38,0,0,0,.39-1.7c0-.44.16-1.12.16-1.72a7.59,7.59,0,0,0,.06-1.73c0-.8,0-1.41,0-2.27a18.2,18.2,0,0,0,0-2.34c0-.77.1-1.44,0-2.3,0-.64,0-1.64,0-2.37a1.44,1.44,0,0,1,.64-1.25,1.93,1.93,0,0,1,1.38-.42,2.33,2.33,0,0,1,1.34.45,1.42,1.42,0,0,1,.61,1.22c0,.93.07,1.79,0,2.43,0,.9,0,1.63,0,2.37s0,1.73,0,2.4C211.46,59.57,211.3,60.34,211.36,61.11Z" fill="#fff"/><path d="M244.8,61a1.64,1.64,0,0,1-.83,1.51c-.38.19-1.18.32-1.53.54a15.21,15.21,0,0,0-1.89.51,12.23,12.23,0,0,1-1.76.67c-.23.13-.71.2-1,.36a13,13,0,0,0-1.28.44c-.39.26-.68.36-.93.8a1.65,1.65,0,0,0-.23,1.12c.1.84.07,1.19.1,1.64a8.54,8.54,0,0,1,0,1.24,1.67,1.67,0,0,1-.58,1.25,2.42,2.42,0,0,1-1.31.45,1.66,1.66,0,0,1-1.21-.38,1.12,1.12,0,0,1-.55-1.12c0-.61-.06-1.16-.09-1.86a.66.66,0,0,0-.93-.64,13.14,13.14,0,0,0-1.67,1.09c-.38.45-.83.86-1,1.15a2,2,0,0,0-.38,1.44c0,.48.09.9.54,1.09.19.38.7.38,1.31.57s1.06,0,1.57.2c.51,0,.9,0,1.31,0s1,0,1.35,0a4.22,4.22,0,0,0,1.37-.06,10.73,10.73,0,0,1,1.38-.13c.41,0,.8-.13,1.34-.19a4.59,4.59,0,0,1,1.38-.16,2.12,2.12,0,0,1,1,.54,2,2,0,0,1,.52,1.32,1.26,1.26,0,0,1-.29,1,1.91,1.91,0,0,1-.8.64c-.45.32-.9.16-1.51.38-.67,0-1.34.13-2,.19a9.38,9.38,0,0,1-2,.1,8.38,8.38,0,0,0-1.6,0c-.35,0-1-.1-1.34,0-.36-.16-1.06.1-1.44-.16-.61-.16-1,0-1.44-.26a2.27,2.27,0,0,1-1.41-.48,2.46,2.46,0,0,1-1.22-.67,1.78,1.78,0,0,1-1-.93A2.65,2.65,0,0,1,224.1,73a4.22,4.22,0,0,1-.22-1.54,11.88,11.88,0,0,1,.19-1.44c0-.44.35-.73.51-1.28.32-.41.55-.92.77-1.15a4.32,4.32,0,0,1,1-1c.32-.19.64-.55,1.15-.93.29-.22.71-.38,1.19-.77a11.15,11.15,0,0,0,1.82-1c.35-.19.42-.8-.06-1.25a1.54,1.54,0,0,0-1.51-.38,5.12,5.12,0,0,0-1.41.25,9,9,0,0,1-1.5.61c-.35.13-.83.55-1.34.8a4.16,4.16,0,0,0-1.19.8,6,6,0,0,0-1.08.83,2.58,2.58,0,0,1-1.22.42,2.63,2.63,0,0,1-1.25-.54c-.19-.29-.61-.64-.54-1.22a1.68,1.68,0,0,1,.73-1.47,4.84,4.84,0,0,0,.77-.71,2,2,0,0,0,.64-.6c.13-.16.45-.39.64-.64a6.17,6.17,0,0,0,1.19-1.35A9.19,9.19,0,0,0,224.52,58c.19-.29.44-.64.41-.89s-.28-.42-.86-.39c-.38,0-.7,0-1.09,0a2.51,2.51,0,0,1-.86.07,1.32,1.32,0,0,1-1.25-.55,1.5,1.5,0,0,1-.54-1.24,1.76,1.76,0,0,1,.48-1.19,1.92,1.92,0,0,1,1.18-.51c.67,0,1.38,0,2-.06a4.76,4.76,0,0,0,1.31-.07,5.49,5.49,0,0,0,1.25-.06,2.13,2.13,0,0,0,1-.77,7.58,7.58,0,0,0,.51-1.28c.22-.64.38-1,.61-1.7a1.29,1.29,0,0,1,.64-.86,1.5,1.5,0,0,1,1.05-.32,2.46,2.46,0,0,1,1.25.42,1.93,1.93,0,0,1,.61,1.12,2.67,2.67,0,0,1-.29,1.18c-.1.26-.26.54-.42,1s.26.8.8.7c.77-.12,1.48-.12,1.92-.22a12.37,12.37,0,0,1,2-.32,1.19,1.19,0,0,1,1.09.48,2,2,0,0,1,.44,1.12,1.27,1.27,0,0,1-.32,1,1.61,1.61,0,0,1-.73.55,8.15,8.15,0,0,1-2,.41c-.48.07-1.15.16-1.69.26a10.64,10.64,0,0,1-1.73.22,4.83,4.83,0,0,0-1.67.35,1.76,1.76,0,0,0-.7.84c-.16.25-.45.64-.58.86a3.4,3.4,0,0,1-.38.54c-.19.29-.29.45-.13.64s.26.2.9,0a9.29,9.29,0,0,1,1.21-.16,5.83,5.83,0,0,1,1.73.2,2.63,2.63,0,0,1,1.54.8,8.65,8.65,0,0,1,.93,1.21,1.24,1.24,0,0,0,1.44.42,4.39,4.39,0,0,0,1.44-.61c.25,0,.48-.29.92-.35a11.84,11.84,0,0,1,1.8-.64c.54-.13,1.31-.45,1.82-.61.35,0,1.09-.38,1.54-.35a1.81,1.81,0,0,1,1.24.54A1.85,1.85,0,0,1,244.8,61Z" fill="#fff"/><path d="M257.19,51a8.29,8.29,0,0,1-.39,2.08c0,.32-.25.92-.28,1.28s-.23.86-.23,1.28A9.42,9.42,0,0,0,256.1,57c-.19.44,0,.8-.19,1.28a5.56,5.56,0,0,0-.19,1.6c0,.73-.26,1-.13,1.63s-.19,1.18-.1,1.63a5.37,5.37,0,0,1,0,1.6c0,.7.06,1.25,0,1.73a6.92,6.92,0,0,0,.07,1.73,17.18,17.18,0,0,0,.13,1.72,10,10,0,0,0,.15,1.73c.13.9.16,1.47.26,2.24a2,2,0,0,1-.58,1.89,2.26,2.26,0,0,1-1.27.45,2.12,2.12,0,0,1-1-.26,1.08,1.08,0,0,1-.7-.77,11.21,11.21,0,0,1-.42-2c-.13-.64-.06-1.51-.19-2-.13-.38,0-1-.13-1.6s0-.93-.09-1.63.09-1.19-.07-1.6a3.91,3.91,0,0,1,0-1.6,2.92,2.92,0,0,1,0-1.47,6.13,6.13,0,0,1,.07-1.48,7.08,7.08,0,0,1,.09-1.47,9.94,9.94,0,0,0,.16-1.5,3.45,3.45,0,0,0,.2-1.44,7,7,0,0,1,.22-1.47c.1-.61.13-.87.26-1.48a2.79,2.79,0,0,1,.25-1.44c0-.35.23-.89.23-1.21.16-.29.06-.77.38-1.25a1.38,1.38,0,0,1,.7-.74,3.38,3.38,0,0,1,1-.25,3.34,3.34,0,0,1,1.31.41C256.8,50.13,257.28,50.45,257.19,51Zm20.06,21.76a1.62,1.62,0,0,1-1.25.54,2.81,2.81,0,0,1-1.28-.48,3.42,3.42,0,0,0-.92-.67,4.93,4.93,0,0,0-1.06-.71c-.45-.32-1.34.2-1.5.77a4.84,4.84,0,0,0-.68,1.12c-.22.19-.41.42-.7.71s-.61.32-1,.6a2.67,2.67,0,0,1-1.09.39,2.94,2.94,0,0,1-1.15.22,2.09,2.09,0,0,0-1.16.07,3.32,3.32,0,0,1-1.88-.23,3.17,3.17,0,0,1-1.8-.64,4.92,4.92,0,0,1-1-.74c-.41-.28-.6-.41-.7-.92a5.26,5.26,0,0,1-.45-1.09,4.23,4.23,0,0,1-.13-1.18,11.22,11.22,0,0,0,.16-1.16c.23-.19.16-.73.42-1s.54-.58.7-.9a8.4,8.4,0,0,1,1-.7,4.06,4.06,0,0,0,1-.45c.26-.09.68-.19,1.06-.29s.61,0,1.12-.16a9.71,9.71,0,0,0,1.44,0c.8.13,1.54-.25,1.5-1s0-1.22-.09-1.86a5.81,5.81,0,0,1,0-1.34c0-.38-.07-.8-.1-1.34s-.83-1.06-1.44-1.06a19.58,19.58,0,0,0-2.4,0,11.22,11.22,0,0,1-2.27-.19,1.75,1.75,0,0,1-.77-.64,1.57,1.57,0,0,1-.29-1,2.23,2.23,0,0,1,.48-1.22c.32-.42.64-.32,1.22-.45a14.5,14.5,0,0,1,1.63,0c.77,0,1.41,0,2.43,0a1.27,1.27,0,0,0,1.41-1.15c0-.8,0-1.44,0-2a15.07,15.07,0,0,1,0-1.7,1.74,1.74,0,0,1,.55-1.12,1.6,1.6,0,0,1,1.18-.41,3.17,3.17,0,0,1,1.18.41,1.13,1.13,0,0,1,.55,1.12,13.3,13.3,0,0,0,0,1.67c0,.7,0,1,0,1.88,0,.64.7.71,1.5.64.42-.12,1.12-.16,1.41-.22a2.71,2.71,0,0,1,1-.13,3.47,3.47,0,0,1,1.09.51,1.53,1.53,0,0,1,.45,1.12,1.28,1.28,0,0,1-.26,1,1,1,0,0,1-.76.68,7.54,7.54,0,0,1-2,.44,12.42,12.42,0,0,0-1.6.26,1.38,1.38,0,0,0-.83,1.28c0,.54.1,1,.07,1.5s0,1.19.06,1.8a8.18,8.18,0,0,0,.13,2.36,2.23,2.23,0,0,0,1,1.54,14.6,14.6,0,0,0,1.6.8,10.34,10.34,0,0,1,1.21.67,4.33,4.33,0,0,0,1.12.77,4.47,4.47,0,0,1,1,.86,2.78,2.78,0,0,1,.44,1.19A1.24,1.24,0,0,1,277.25,72.79Zm-9.34-3.27c-.26-.22-.58-.22-.83-.38a3.85,3.85,0,0,1-1.16-.13,3.69,3.69,0,0,0-1.85.29c-.71.19-.9.51-1,1.28a1,1,0,0,0,.76,1.12,1.93,1.93,0,0,0,1.6.25c.32-.09.74.1,1.12-.12s.71-.36.9-.58a1.65,1.65,0,0,0,.54-1.09A.77.77,0,0,0,267.91,69.52Z" fill="#fff"/><path d="M304.87,68.34a2.27,2.27,0,0,1-.45,1.25,1.22,1.22,0,0,0-.61.76c-.29.39-.41.36-.61.71a2.25,2.25,0,0,0-.67.67c-.22.38-.32.58-.7.64-.16.06-.45.51-.74.58a4.64,4.64,0,0,0-.77.57,2.3,2.3,0,0,0-.8.51,8.86,8.86,0,0,1-.8.45,5.25,5.25,0,0,0-1.44.64,5.46,5.46,0,0,0-1.5.45c-.54.26-1.18.13-1.57.26s-1,0-1.57.09-1,.1-1.5-.09a14.55,14.55,0,0,0-1.47-.32,2.21,2.21,0,0,1-1.35-.64,1.81,1.81,0,0,1-1.15-1c-.29-.2-.32-.55-.57-.77a1.26,1.26,0,0,1-.45-.83,5.28,5.28,0,0,1-.58-1.8,6.47,6.47,0,0,1-.25-1.85,11.85,11.85,0,0,1-.07-1.86,9,9,0,0,1,0-2c.07-.71-.09-1.32,0-2a10.89,10.89,0,0,1,.06-2.05c.09-.61.06-1.47.09-2a19.07,19.07,0,0,1,.13-2c.07-.54,0-1.41.1-2s.06-1.4.1-2a8.86,8.86,0,0,1,.19-2c.12-.55.22-.9.67-1.09a1.47,1.47,0,0,1,1.25-.39,2.32,2.32,0,0,1,1.37.48,2,2,0,0,1,.58,1.32c0,.54-.1,1.28-.1,1.72s-.12,1.12-.09,1.64-.13,1.18-.13,1.63c0,.7-.19,1.09-.1,1.63a6.94,6.94,0,0,0-.09,2.3c.09.84-.13,1.6-.1,2.31a14.26,14.26,0,0,1-.06,2.27,13.55,13.55,0,0,0,0,2.3,8.75,8.75,0,0,1,.09,1.83c.19.64.29,1.18.45,1.76,0,.41.42.61.48.8.16.38.32.51.67.54a5.53,5.53,0,0,0,3.62.23,3.16,3.16,0,0,0,1.69-.52c.58-.35,1-.51,1.6-.83a11.87,11.87,0,0,0,1.44-1.09,14.79,14.79,0,0,0,1.12-1.12c.45-.28.68-.83,1.06-1.21a1.7,1.7,0,0,1,1.5-.71,5.13,5.13,0,0,1,1.38.55A1.48,1.48,0,0,1,304.87,68.34Zm-8.64-13.86a1.72,1.72,0,0,1,.45-.89,1.67,1.67,0,0,1,1-.39,2.15,2.15,0,0,1,1.31.64c.29.39.8.77,1,1.06A6.37,6.37,0,0,0,300.9,56a2.09,2.09,0,0,1,.54,1.38c-.09.38-.09.74-.41.93a2.16,2.16,0,0,1-1,.41c-.51.07-.93-.35-1.22-.8-.22-.28-.73-.86-1.09-1.28s-.86-.92-1.15-1.28A1.18,1.18,0,0,1,296.23,54.48Zm3.17-2.56a1.09,1.09,0,0,1,.44-.89,2.26,2.26,0,0,1,1-.36,2.84,2.84,0,0,1,1.35.61c.32.29.86.67,1,1,.23.19.58.73,1,1.08a1.88,1.88,0,0,1,.58,1.38,1.43,1.43,0,0,1-.42.9c-.16.16-.64.48-.93.38a1.31,1.31,0,0,1-1.21-.61,5.13,5.13,0,0,0-.67-.8,7.21,7.21,0,0,0-.61-.67,4.59,4.59,0,0,0-1.12-1.22A.9.9,0,0,1,299.4,51.92Z" fill="#fff"/><path d="M336.77,64.37a13.55,13.55,0,0,1-.19,2.24c-.19.26-.13.83-.22,1.06,0,.48-.36.86-.36,1a2,2,0,0,1-.44,1c-.2.48-.42.64-.55,1s-.51.67-.64.89c-.32.23-.48.71-.77.83a5.65,5.65,0,0,1-1.12.93,6.45,6.45,0,0,0-1.28.83,7,7,0,0,0-1.37.68,6.93,6.93,0,0,1-1.41.44,2.15,2.15,0,0,1-2-.44,1.75,1.75,0,0,1-.64-1.38,1.89,1.89,0,0,1,.42-1.12,2.52,2.52,0,0,1,1-.67,4.27,4.27,0,0,0,1.09-.45c.19-.22.7-.19,1-.51s.68-.45,1-.61a2.08,2.08,0,0,0,.87-.77c.22-.22.51-.73.83-1a4.16,4.16,0,0,0,.54-1.22c.16-.45.16-.86.32-1.31-.06-.39.16-.83.1-1.38s0-1.5-.38-2.11c-.13-.29-.39-.8-.45-1s-.51-.55-.64-.87a2.59,2.59,0,0,0-.9-.83,6.76,6.76,0,0,0-1-.57,3.39,3.39,0,0,0-1.22-.48,1.54,1.54,0,0,0-1.44,1,6,6,0,0,1-.54,1.53,4.69,4.69,0,0,0-.55,1.38,4.94,4.94,0,0,0-.6,1.34,9.53,9.53,0,0,0-.68,1.31c-.19.36-.48.77-.76,1.28a3.2,3.2,0,0,0-.42.68,9,9,0,0,0-.67,1,1.53,1.53,0,0,0-.16,1.63c.38.89.54,1,.7,1.44a.9.9,0,0,1,.23.93,1.87,1.87,0,0,1-1.83,1.72,1.9,1.9,0,0,1-1.56-1c-.29-.61-.9-1.15-1.44-.77s-1.06.61-1.35.8c-.57.23-.73.42-1.25.42-.41.22-.92.09-1.37.16a6.58,6.58,0,0,1-1.79-.29A2.62,2.62,0,0,1,311.27,72a1.36,1.36,0,0,1-.58-.8,1.78,1.78,0,0,1-.35-.89,11.08,11.08,0,0,1-.25-2,8.38,8.38,0,0,1,.12-1.54c.16-.54.16-.9.36-1.5s.32-1,.6-1.48a15.31,15.31,0,0,1,.77-1.34,2.2,2.2,0,0,1,.71-1c.38-.26.44-.55.76-.93a8.14,8.14,0,0,0,1.16-1.09c.35-.09.25-1.15.32-1.5-.32-.87-.16-1.44-.36-1.89s-.16-.86-.25-1.47-.16-1.06-.19-1.51a1.25,1.25,0,0,1,.51-1.31,2.74,2.74,0,0,1,1.34-.48,2.63,2.63,0,0,1,1.06.32,1.23,1.23,0,0,1,.61.93c0,.38.22.74.16,1.06a3.24,3.24,0,0,0,.35,1.69c.06.51.8,1.09,1.31.8a9.64,9.64,0,0,0,1.76-.41c.48,0,.93-.29,2-.45a2.92,2.92,0,0,0,.83-.55,1.82,1.82,0,0,0,.52-.86c0-.9.25-1.41.25-1.89a2.25,2.25,0,0,1,.48-1.66,3.92,3.92,0,0,1,1.44-.61,1.62,1.62,0,0,1,1.38.51,1.71,1.71,0,0,1,.51,1.35,3.83,3.83,0,0,1-.13,1c-.16.48,0,.7-.19,1.34a1.24,1.24,0,0,0,.9,1.47c.8.35,1.08.26,1.4.42.45,0,.71.32,1.25.51s.64.51,1.19.67c.16.1.67.58.86.71.19.35.61.54.77.8a1.2,1.2,0,0,1,.64.83c.16.38.48.61.54,1a2.45,2.45,0,0,0,.42,1c.16.26.09.67.29,1A14.58,14.58,0,0,1,336.77,64.37Zm-19.26,4c.58-.57.13-1.15,0-1.53a11.21,11.21,0,0,0-.38-1.16,1.12,1.12,0,0,1-.29-.76c-.23-.48-.26-1-.48-1.54a.62.62,0,0,0-1,0,6.67,6.67,0,0,0-1,1.5c-.28.48-.35,1.06-.57,1.41a7.78,7.78,0,0,0-.19,1.54,3.28,3.28,0,0,0,.22,1.28,1.14,1.14,0,0,0,.86.57,3.31,3.31,0,0,0,1.8-.54A4.13,4.13,0,0,0,317.51,68.4ZM323,59.86c.23-.8-.19-1.25-.57-1.19a9.89,9.89,0,0,0-1.28.36,4.57,4.57,0,0,0-1.31.7,1.51,1.51,0,0,0-.51,1.5,5.65,5.65,0,0,0,.44,1.54c.16.32.16.74.42,1.25s.83.25,1.09-.19a6.43,6.43,0,0,0,.51-1.06,7,7,0,0,1,.42-.86,3.14,3.14,0,0,0,.35-.93C322.69,60.63,322.89,60.34,323,59.86Z" fill="#fff"/><path d="M365.48,70.87c.19.38.6.8.54,1.34a2.56,2.56,0,0,1-.58,1.38,1.88,1.88,0,0,1-1.34.6c-.8.2-1.31-.38-1.82-.73s-1-.64-1.28-.83a6.15,6.15,0,0,0-1.31-.74,8.35,8.35,0,0,1-1.64-.83,1,1,0,0,0-1.24.45c-.13.48-.32.67-.36,1-.32.35-.22.7-.54.89-.16.42-.48.48-.74.8A3.28,3.28,0,0,1,354,75a3.52,3.52,0,0,1-1.38.57,5.12,5.12,0,0,1-1.44.29,8.08,8.08,0,0,1-1.47.1c-.74-.07-1.66-.13-2.3-.23a3.3,3.3,0,0,1-1.12-.32c-.29-.26-.64-.13-1.06-.51s-.9-.35-1-.77c-.42-.19-.45-.57-.77-1a1.52,1.52,0,0,1-.48-1.15,1.48,1.48,0,0,1-.16-1.25c0-.41-.07-1,.16-1.31a3.34,3.34,0,0,1,.48-1.09,3.26,3.26,0,0,1,.73-.93c.36-.19.61-.64,1-.73a4.28,4.28,0,0,1,1.09-.55,8,8,0,0,0,1.19-.38,3.49,3.49,0,0,0,1.21-.22c.23-.13.8.06,1.19-.07a7.86,7.86,0,0,1,2,.1,1.11,1.11,0,0,0,1.12-1.12,20.21,20.21,0,0,0-.16-2,14.52,14.52,0,0,0-.13-1.7c-.12-.57,0-1.15-.09-1.69s0-1.15-.1-1.73.07-1.15,0-1.73,0-1.05-.06-1.69,0-1.12,0-1.73a14,14,0,0,1,0-2A2.41,2.41,0,0,1,353,49a4.91,4.91,0,0,1,1.31-.38c.32,0,1.05.09,1.28.38.45.13.54.42.61,1.15s0,1.35,0,2.15a5.68,5.68,0,0,0,0,1.34,1.4,1.4,0,0,0,.48,1.25,1.36,1.36,0,0,0,1,.41,9.86,9.86,0,0,0,1.28-.09A10.31,10.31,0,0,0,360.1,55a10.51,10.51,0,0,1,1.92-.36,2.84,2.84,0,0,1,.9-.09c.57,0,.8.25,1.21.57a1.77,1.77,0,0,1,.45,1.28c-.16.48-.19.8-.32,1.06a1,1,0,0,1-.93.64c-.35.32-.89.29-1.6.38a12.91,12.91,0,0,0-1.88.29,10.63,10.63,0,0,1-1.06.1,6.61,6.61,0,0,0-1.22.13,1.47,1.47,0,0,0-1.15,1.37,10.56,10.56,0,0,0,.07,1.44c0,.45.06,1.12.12,1.51a15.32,15.32,0,0,0,.23,2.17,1.7,1.7,0,0,0,.48.93,2.07,2.07,0,0,0,.93.61c.8.32,1.12.51,1.5.61a5.51,5.51,0,0,0,.93.38,2.3,2.3,0,0,1,.93.45,4,4,0,0,1,.92.45,3.36,3.36,0,0,1,.9.51,9.43,9.43,0,0,1,.86.51C364.84,70.29,365.09,70.61,365.48,70.87Zm-12.39-.52c.07-.6-.41-1-1.5-1.24-.67-.1-1.38-.07-1.82-.1a4.87,4.87,0,0,0-1.92.29,1,1,0,0,0-.8.57,1.38,1.38,0,0,0-.32,1,1.26,1.26,0,0,0,1,1.32,2.89,2.89,0,0,0,1.7.38,4,4,0,0,0,1.72-.35c.61-.23.9-.29,1.25-.77A1.29,1.29,0,0,0,353.09,70.35Z" fill="#fff"/><path d="M389.13,64.69c-.1.61-.29,1.31-.36,2-.29.71-.32,1.38-.6,1.89a2.19,2.19,0,0,1-.39.9,9.29,9.29,0,0,0-.41.89,9.47,9.47,0,0,0-.52.87,2.62,2.62,0,0,0-.51.86,2.11,2.11,0,0,1-.61.77c-.22.22-.38.67-.6.77a3.07,3.07,0,0,0-.71.73,4.48,4.48,0,0,0-.7.67,6.2,6.2,0,0,1-.77.64,1.82,1.82,0,0,1-.83.58,1.48,1.48,0,0,1-1.28.45,1.5,1.5,0,0,1-1.31-.55A1.56,1.56,0,0,1,379,74.8a1.11,1.11,0,0,1,.26-.93,9.69,9.69,0,0,0,.7-.73c.48-.35.58-.51,1.09-.9.22-.22.83-.61,1-1a5.54,5.54,0,0,0,.9-1,5.73,5.73,0,0,1,.8-1.19c.32-.51.48-1,.73-1.47A8.22,8.22,0,0,0,385,66a3.46,3.46,0,0,0,.28-1.63c.1-.64,0-1.09.1-1.63-.13-.42,0-.9-.16-1.28s-.38-.71-.64-1.06a1.84,1.84,0,0,0-1.28-.61c-.35-.06-1.06,0-1.44-.12a5.2,5.2,0,0,0-2,.12c-.7.23-1.47.2-2,.42a4.71,4.71,0,0,0-1,.29,8.24,8.24,0,0,0-1,.32,8,8,0,0,0-1,.35,4.59,4.59,0,0,1-1,.38,1.47,1.47,0,0,1-.87.2,1.64,1.64,0,0,1-1.28-.58,2.15,2.15,0,0,1-.54-1.31,1.85,1.85,0,0,1,.35-1c.1-.22.64-.51.87-.64a3.56,3.56,0,0,0,1.08-.48c.2-.22.74-.16,1.12-.41a3.85,3.85,0,0,1,1.16-.35c.28-.07.73-.23,1.18-.32a11,11,0,0,0,1.22-.26,2.07,2.07,0,0,1,1.18-.16c.83,0,1.54-.22,2.34-.16l1.63.1a12.63,12.63,0,0,1,1.57.28c.6.32.89.36,1.5.64.32.29,1,.71,1.28,1s.48.73.73,1a2.86,2.86,0,0,1,.45,1.12,5.24,5.24,0,0,0,.26,1.22,7.94,7.94,0,0,1,.06,1.25A8.46,8.46,0,0,1,389.13,64.69ZM376.84,50.42a2.26,2.26,0,0,1,.61-1.51,3.21,3.21,0,0,1,1.53-.48c.55,0,1,.32,1.76.26s1.15.39,1.76.42a7.22,7.22,0,0,0,1.73.54c.42.22,1.25.32,1.63.58a2.47,2.47,0,0,1,1.25.7c.38.26.51.61.54,1.28a1.54,1.54,0,0,1-.48,1.34,2.19,2.19,0,0,1-1.24.64,2.53,2.53,0,0,1-1.32-.32c-.28,0-.64-.25-.92-.32a3.46,3.46,0,0,0-1.16-.35,4.81,4.81,0,0,1-1.15-.32,2.54,2.54,0,0,1-1.15-.32,8.58,8.58,0,0,1-1.18-.25,12.64,12.64,0,0,1-1.76-.68A2,2,0,0,1,376.84,50.42Z" fill="#fff"/><path d="M404.29,74.64a2.31,2.31,0,0,1-1.79.71,2.19,2.19,0,0,1-1.79-.71,2.93,2.93,0,0,1-.74-1.76,3.22,3.22,0,0,1,.74-1.76,2.63,2.63,0,0,1,1.79-.73,2.57,2.57,0,0,1,1.79.73,2.13,2.13,0,0,1,.74,1.76A2.6,2.6,0,0,1,404.29,74.64Zm-4.16-22.37c.07-.25,0-.8.2-1.12,0-.28.41-.51.51-.8a3.22,3.22,0,0,1,1.76-.64,4,4,0,0,1,1.57.61,2.34,2.34,0,0,1,.7,1.6c-.16.58.1,1,0,1.51a2.72,2.72,0,0,1-.13,1.31,4.77,4.77,0,0,1-.1,1.28,6.43,6.43,0,0,0-.09,1.25c0,.89-.13,1.44-.13,2.24a9.74,9.74,0,0,0-.1,2.27,13,13,0,0,1-.09,2.27,8,8,0,0,0-.1,2.27,2.09,2.09,0,0,1-.45,1.83,1.49,1.49,0,0,1-1.18.35c-.74-.07-1.38-.19-1.41-.9a2.94,2.94,0,0,1-.16-1.28,11.43,11.43,0,0,1-.06-2.08c0-.51-.07-1.44-.1-2a5.05,5.05,0,0,1-.06-1.37,10,10,0,0,0-.07-1.41,9.55,9.55,0,0,1-.09-1.79c0-.64-.13-1.31-.13-1.79a7.53,7.53,0,0,0-.16-1.76A10.75,10.75,0,0,1,400.13,52.27Z" fill="#fff"/></g></g></svg>