<svg xmlns="http://www.w3.org/2000/svg" width="209.41" height="54.37" viewBox="0 0 209.41 54.37"><title>ttl_h2_sp</title><g id="レイヤー_2" data-name="レイヤー 2"><g id="レイヤー_2-2" data-name="レイヤー 2"><path d="M8.31,7.61c-.08.55-.32.93-.44,1.46a2.5,2.5,0,0,1-.26.72,1.2,1.2,0,0,0-.26.72,3.86,3.86,0,0,0-.32.72c-.19.27-.14.53-.28.7a5.81,5.81,0,0,1-.34.7c-.24.16-.24.52-.34.67a5.17,5.17,0,0,1-.38.67c-.19.26-.22.55-.36.65-.12.31-.38.48-.38.62a1.7,1.7,0,0,0-.41.6,1.35,1.35,0,0,0-.41.58c-.17.29-.38.33-.43.55-.31.29-.7.84-.87,1s-.43.29-.6.46a1.21,1.21,0,0,1-.72.17,1.39,1.39,0,0,1-1-.44,1.41,1.41,0,0,1-.46-1A1.89,1.89,0,0,1,.48,16c.19-.16.34-.5.65-.79s.36-.5.62-.79.48-.55.56-.82c.28-.24.31-.48.52-.84a6.65,6.65,0,0,1,.6-1c.1-.31.48-.77.58-1.1a4.29,4.29,0,0,0,.5-1.11c.24-.24.27-.74.44-1.13a11,11,0,0,0,.38-1.15c.1-.21.31-.64.55-.74a2.27,2.27,0,0,1,.89-.29,1.74,1.74,0,0,1,1.06.39A1,1,0,0,1,8.31,7.61ZM20.69,17.88a1.69,1.69,0,0,1-1.1.43,1.29,1.29,0,0,1-.91-.31c-.36-.12-.46-.45-.6-.74a10.25,10.25,0,0,1-.46-1.06c-.05-.24-.31-.53-.38-.84a6.22,6.22,0,0,0-.41-.82c-.27-.19-.27-.47-.43-.79s-.32-.43-.44-.81c-.07-.22-.36-.48-.48-.77s-.33-.46-.48-.79a3.61,3.61,0,0,1-.48-.75c-.28-.24-.26-.43-.5-.76a2.27,2.27,0,0,0-.67-1,4.61,4.61,0,0,0-.72-1,1.55,1.55,0,0,1-.29-.84,1.53,1.53,0,0,1,.46-.93,1.55,1.55,0,0,1,1-.36,2.67,2.67,0,0,1,1.3.62,4.93,4.93,0,0,1,.45.53c.15.12.27.38.43.55s.17.46.44.55c0,.27.36.41.4.58a2.93,2.93,0,0,0,.39.58c.17.19.17.43.41.6.09.31.16.48.36.6a.84.84,0,0,0,.38.57,6.34,6.34,0,0,1,.36.6,1.9,1.9,0,0,0,.36.63c.17.33.31.41.36.62s.14.43.34.62c0,.22.19.39.33.65a1.49,1.49,0,0,1,.31.63,6.07,6.07,0,0,1,.6,1.34,4.73,4.73,0,0,1,.17.75A1,1,0,0,1,20.69,17.88Z" fill="#fff"/><path d="M24.32,6.74A2.52,2.52,0,0,1,23.55,6a1.15,1.15,0,0,1-.22-.68,1.72,1.72,0,0,1,.51-1.08,2.47,2.47,0,0,1,1.08-.45,1.07,1.07,0,0,1,.69.17,3.06,3.06,0,0,1,.67.38c.15.17.49.31.63.46s.38.28.53.43.24.33.57.48a2.21,2.21,0,0,0,.58.5c.19.15.5.34.58.55.28.22.31.46.5.58a.86.86,0,0,1,.26.89,2,2,0,0,1-.48,1.13,2,2,0,0,1-1.13.5,1.84,1.84,0,0,1-1.1-.48c-.17-.17-.5-.48-.72-.67s-.38-.51-.72-.67a2.3,2.3,0,0,0-.72-.65C24.92,7.27,24.56,7,24.32,6.74Zm17,1.83c-.2.5-.56.77-.68,1.1a4.69,4.69,0,0,1-.72,1.06,4.46,4.46,0,0,1-.74,1c-.36.41-.48.7-.77,1a8.75,8.75,0,0,1-.84,1,10.61,10.61,0,0,1-.86.91c-.29.24-.65.67-.91.86-.27.41-.75.58-1,.87s-.72.45-.93.74a10.79,10.79,0,0,0-1,.72,3.93,3.93,0,0,1-1,.7,2.9,2.9,0,0,1-1.05.64,4.75,4.75,0,0,0-1.06.58,8.67,8.67,0,0,1-1.1.55,3.46,3.46,0,0,1-1.11.51c-.31.19-.79.31-1.15.48a1.68,1.68,0,0,1-.67.09,1.41,1.41,0,0,1-1.06-.45,1.82,1.82,0,0,1-.43-1.08,1.23,1.23,0,0,1,.58-1.08,5.56,5.56,0,0,1,1.2-.58,7.25,7.25,0,0,1,.67-.29,1.79,1.79,0,0,1,.65-.31,5.28,5.28,0,0,1,.67-.34c.19-.07.33-.31.65-.33s.33-.22.64-.36a3.32,3.32,0,0,1,.63-.39c.26-.09.41-.36.62-.4a2.75,2.75,0,0,1,.6-.41c.12-.1.46-.22.6-.43a1.42,1.42,0,0,0,.58-.46c.1-.19.38-.19.58-.46s.38-.36.57-.48A1.41,1.41,0,0,0,34,13c.17,0,.24-.26.53-.5s.34-.46.53-.53.29-.46.5-.55c.17-.27.63-.53.82-.91.26-.22.48-.7.74-1a5.45,5.45,0,0,1,.7-1c.31-.39.36-.63.65-1s.45-.53.6-.8.45-.43.91-.36a2.23,2.23,0,0,1,1.06.39,1.44,1.44,0,0,1,.48,1A3,3,0,0,1,41.29,8.57Z" fill="#fff"/><path d="M62.39,20.23a1.15,1.15,0,0,1-.51,1.06,1.62,1.62,0,0,1-1.08.43c-.53.12-.89-.26-1.2-.57s-.36-.44-.6-.7-.31-.48-.6-.67a2.43,2.43,0,0,1-.62-.67c-.19-.27-.53-.44-.65-.65s-.46-.34-.65-.63a1.94,1.94,0,0,1-.67-.6,5,5,0,0,1-.7-.6c-.26-.21-.45-.31-.76-.57a.84.84,0,0,0-1.16,0,3.06,3.06,0,0,0-.57.6,4.26,4.26,0,0,1-.43.41c-.36.31-.53.62-.84.74a6,6,0,0,1-.87.72,4.32,4.32,0,0,0-.89.67,3.47,3.47,0,0,0-.91.65c-.33.31-.72.36-.93.6a6.71,6.71,0,0,0-1,.58,6.22,6.22,0,0,0-.74.4,2.71,2.71,0,0,1-.84.2,1.46,1.46,0,0,1-1-.44,1.91,1.91,0,0,1-.43-1,1.1,1.1,0,0,1,.21-.72.93.93,0,0,1,.53-.5,3,3,0,0,0,.77-.43A3.9,3.9,0,0,0,46,18.1a4.74,4.74,0,0,0,.72-.41c.29,0,.39-.31.7-.46s.55-.4,1-.67a9.64,9.64,0,0,1,.91-.69c.34-.2.6-.58.89-.75s.5-.5.84-.77.6-.48.82-.84a3.12,3.12,0,0,0,.76-.84c.12-.33.48-.5.72-.91s.44-.67.65-1c0-.29.17-.38.43-.67a4,4,0,0,0,.53-1,4.55,4.55,0,0,0,.51-1c0-.19.19-.27.21-.48.17-.48-.21-.6-.5-.63s-.75.1-1,0a3.22,3.22,0,0,1-1.08,0,4.45,4.45,0,0,1-1.08,0c-.33,0-.79,0-1.08,0s-.69.12-1.08,0-.67.12-1.08,0a3.37,3.37,0,0,1-1,0,6.32,6.32,0,0,0-1.13,0,1.63,1.63,0,0,1-.89-.43c-.33-.26-.29-.55-.33-.93a1.56,1.56,0,0,1,.31-1,1.09,1.09,0,0,1,.89-.44,4.31,4.31,0,0,1,1.22,0c.31.09.84-.1,1.2,0a2.57,2.57,0,0,0,1.2,0,4,4,0,0,0,1.2,0,9.62,9.62,0,0,0,1.2,0c.48.08.67-.09,1.2,0,.5-.12.72.1,1.2,0,.29-.08.79.07,1.18,0a4.83,4.83,0,0,1,1.29.15A2.26,2.26,0,0,1,58.55,5a1.83,1.83,0,0,1,.5,1.37,1.6,1.6,0,0,1-.1.81,5,5,0,0,0-.28.89c-.12.39-.29.6-.44,1a5.07,5.07,0,0,1-.52,1,2.88,2.88,0,0,1-.58,1c-.19.24-.43.65-.6.91s-.34.46-.55.84a.86.86,0,0,0,.14,1,2.74,2.74,0,0,0,.94.67c.33.27.55.46.79.63a2.49,2.49,0,0,1,.75.62,7.5,7.5,0,0,0,.74.65c.17.36.48.36.72.7.19.17.46.43.7.69a3.2,3.2,0,0,0,.69.72c.07.29.39.53.62.75A1.23,1.23,0,0,1,62.39,20.23ZM58.71,3.36c-.45-.6-.45-1,0-1.37a1.37,1.37,0,0,1,.75-.31,1.23,1.23,0,0,1,.93.5c.25.32.63.63.7.89a8.47,8.47,0,0,0,.6.84,1.71,1.71,0,0,1,.36,1c0,.28-.07.57-.31.69-.29.29-.55.39-.72.31a1,1,0,0,1-.89-.55,4.44,4.44,0,0,1-.67-1C59.12,3.84,58.86,3.55,58.71,3.36Zm6-.14c0,.24-.17.62-.32.69a2.85,2.85,0,0,1-.69.29c-.34.12-.74-.24-1-.55s-.22-.43-.43-.65-.27-.43-.41-.55c-.29-.39-.51-.6-.77-1A.88.88,0,0,1,61.23.31.86.86,0,0,1,61.91,0a1.15,1.15,0,0,1,.84.34c.19.19.31.38.52.57l.61.77c.14.22.38.48.57.82A1.26,1.26,0,0,1,64.67,3.22Z" fill="#fff"/><path d="M81,7.54a2.29,2.29,0,0,1-.22,1.27,10.66,10.66,0,0,1-.48,1.39c-.19.58-.43,1-.55,1.34a2.31,2.31,0,0,1-.31.68c-.1.28-.29.45-.34.62s-.19.55-.33.65-.19.5-.39.62-.16.51-.38.6c-.12.29-.17.53-.41.6-.21.29-.24.44-.43.6a2.67,2.67,0,0,1-.43.58,4.14,4.14,0,0,0-.48.55,1.14,1.14,0,0,1-.46.55,2.14,2.14,0,0,1-.5.53.86.86,0,0,0-.51.53,1.68,1.68,0,0,0-.55.53,1.74,1.74,0,0,0-.6.53c-.21.28-.5.31-.62.55a4.74,4.74,0,0,0-.65.53,2.2,2.2,0,0,1-.67.5c-.17.29-.39.31-.67.48a1.51,1.51,0,0,0-.68.38,1.87,1.87,0,0,1-.72.36,1.33,1.33,0,0,1-.72.17,1.36,1.36,0,0,1-1-.43,1.54,1.54,0,0,1-.41-1,1.43,1.43,0,0,1,.21-.74c0-.19.44-.43.56-.55a6.25,6.25,0,0,1,.72-.46,5.17,5.17,0,0,1,.67-.43c.31-.19.5-.34.67-.46s.41-.31.65-.48.53-.53.79-.67.46-.46.77-.7.55-.4.74-.74a3.2,3.2,0,0,0,.72-.77c.1-.31.43-.43.65-.82a8.07,8.07,0,0,0,.62-.84,5.45,5.45,0,0,0,.58-.86c.17-.17.22-.53.5-.91,0-.14.29-.36.36-.72s.27-.7.44-1a7,7,0,0,1,.4-1,1.56,1.56,0,0,0,.2-.74.51.51,0,0,0-.51-.48c-.53,0-1,0-1.32,0-.53-.05-.93.09-1.34,0s-.91,0-1.35,0A2.65,2.65,0,0,0,72,8a1.23,1.23,0,0,0-.48.43c-.16.22-.36.27-.4.55-.22.48-.65.73-.84,1.08-.12.17-.41.36-.46.51a3.83,3.83,0,0,0-.46.5,5.47,5.47,0,0,1-.45.51,2.7,2.7,0,0,0-.51.48,1.83,1.83,0,0,1-.72.6,1.67,1.67,0,0,1-.86.26,1.19,1.19,0,0,1-1-.38c-.29-.32-.48-.53-.43-.94a2.21,2.21,0,0,1,.6-1.22,7,7,0,0,0,.84-.79c.12-.1.41-.53.62-.65a2.92,2.92,0,0,1,.63-.72,1.47,1.47,0,0,0,.62-.82,7,7,0,0,0,.62-.81,3.38,3.38,0,0,1,.58-.89,2.77,2.77,0,0,1,.5-.82,4.23,4.23,0,0,0,.48-.84,1.89,1.89,0,0,0,.41-.84c0-.24.36-.67.48-1.08a1.71,1.71,0,0,1,.58-.67,1.41,1.41,0,0,1,.81-.27,1.78,1.78,0,0,1,1,.36,1.53,1.53,0,0,1,.48,1,1.94,1.94,0,0,1-.38,1.16c0,.31-.17.31-.34.74s-.09.86.39.84,1,0,1.29,0a7,7,0,0,0,1.13,0c.41,0,.74.07,1.13,0a3.07,3.07,0,0,1,1.37.14,1.48,1.48,0,0,1,1.17.67,2.32,2.32,0,0,1,.41.67A2.94,2.94,0,0,1,81,7.54Z" fill="#fff"/><path d="M102.53,12.15a6.76,6.76,0,0,1-.41,1.08,9.33,9.33,0,0,1-.53,1c-.12.46-.48.67-.57,1-.34.34-.39.7-.7.94-.22.4-.51.55-.75.88a11,11,0,0,0-.79.84,4.41,4.41,0,0,1-.86.8c-.39.31-.67.5-.91.72-.46.28-.6.45-1.08.76s-.39.32-.63.39a1.6,1.6,0,0,1-.62.38,9.74,9.74,0,0,1-1.3.67,4.57,4.57,0,0,1-1.29.44,1.68,1.68,0,0,1-1.32-.39,1.36,1.36,0,0,1-.48-1,1.23,1.23,0,0,1,.28-.84,2.52,2.52,0,0,1,.72-.52c.2,0,.39-.2.75-.34.19-.05.43-.22.72-.31a2.73,2.73,0,0,0,1.08-.53,5.21,5.21,0,0,1,1-.67,7.52,7.52,0,0,0,1-.77,5.25,5.25,0,0,0,1-.84A4.56,4.56,0,0,0,97.7,15a8.53,8.53,0,0,1,.77-1,4,4,0,0,0,.62-1,3.78,3.78,0,0,0,.48-1.08A.58.58,0,0,0,99,11a10.86,10.86,0,0,0-1.51,0,9.6,9.6,0,0,1-1.52,0,10.84,10.84,0,0,1-1.53,0c-.58,0-1.13.07-1.51,0-.63,0-1,0-1.54,0s-.94,0-1.51,0a10.6,10.6,0,0,1-1.51,0c-.51-.07-1.06,0-1.56,0a1.08,1.08,0,0,1-.92-.41,1.17,1.17,0,0,1-.33-.93,2,2,0,0,1,.31-1,1.08,1.08,0,0,1,.89-.41,10.94,10.94,0,0,0,1.61,0A6.4,6.4,0,0,0,90,8.4a4.41,4.41,0,0,0,1.58,0c.48-.05,1,0,1.59,0a7.75,7.75,0,0,0,1.61,0c.6-.07,1.12,0,1.58,0a6.62,6.62,0,0,1,1.56,0c.46.12,1.06-.1,1.58,0a7.78,7.78,0,0,1,1.13.07,3.58,3.58,0,0,1,1.11.39,2.11,2.11,0,0,1,.81.84,2.93,2.93,0,0,1,.27,1.12A2.63,2.63,0,0,1,102.53,12.15ZM87.93,4.46a1.09,1.09,0,0,1,.34-.93c.29-.27.38-.48.86-.43a6.22,6.22,0,0,1,1.35,0,3.29,3.29,0,0,0,1.29,0,3.08,3.08,0,0,0,1.32,0,4.17,4.17,0,0,1,1.32,0,5.29,5.29,0,0,1,1.32,0,11.22,11.22,0,0,0,1.3,0,8.31,8.31,0,0,1,1.32,0,4.27,4.27,0,0,0,1.34,0,1.48,1.48,0,0,1,.89.4,1.73,1.73,0,0,1,.34,1,1,1,0,0,1-.34.94c-.17.36-.53.41-.89.41s-1-.07-1.34,0-1,0-1.32,0-.91,0-1.3,0-.88-.09-1.32,0-1,0-1.32,0a4.86,4.86,0,0,1-1.32,0,3.29,3.29,0,0,1-1.29,0c-.55,0-.89.07-1.35,0a1.12,1.12,0,0,1-.86-.41A1.18,1.18,0,0,1,87.93,4.46Z" fill="#fff"/><path d="M122.68,7.18a4.67,4.67,0,0,1-.17,1.39,5.82,5.82,0,0,1-.29,1.08,9.72,9.72,0,0,1-.36,1.08,2.79,2.79,0,0,1-.43,1.06,7.64,7.64,0,0,1-.48,1,6,6,0,0,0-.55,1,7,7,0,0,0-.6.93,6,6,0,0,1-.67.94c-.22.36-.53.6-.7.86s-.43.68-.77.84c-.26.36-.43.68-.79.8s-.6.57-.84.76a2.77,2.77,0,0,1-.89.7,6.33,6.33,0,0,1-.91.67,2.3,2.3,0,0,0-1,.63c-.38.31-.62.26-1,.55a4.53,4.53,0,0,0-1,.5,2.94,2.94,0,0,1-.84.19,1.4,1.4,0,0,1-1-.43,2.38,2.38,0,0,1-.43-1,1,1,0,0,1,.22-.74,4.11,4.11,0,0,1,.55-.56,8.34,8.34,0,0,0,.77-.43c.31,0,.41-.29.77-.43.12-.12.57-.24.74-.46.27,0,.46-.36.72-.48s.58-.28.82-.62c.26-.1.38-.36.77-.65a2.51,2.51,0,0,1,.74-.69,3.11,3.11,0,0,1,.69-.75c.2-.14.34-.55.65-.77s.39-.57.6-.79a5,5,0,0,0,.58-.84,2,2,0,0,0,.5-.89c.2-.33.34-.38.44-.79,0-.19.26-.5.36-.82a3.64,3.64,0,0,0,.31-.84,1.55,1.55,0,0,0,.21-.86c0-.55-.48-.79-.91-.79s-1,0-1.44,0c-.55.07-1,0-1.44,0a10.37,10.37,0,0,0-1.46,0c-.48,0-1,0-1.44,0a5.19,5.19,0,0,1-1.47,0,4.1,4.1,0,0,1-1.44,0c-.6,0-1,.1-1.44,0a14.19,14.19,0,0,0-1.46,0,1.67,1.67,0,0,1-1-.43,1.52,1.52,0,0,1-.41-1.06,1,1,0,0,1,.36-1,1.09,1.09,0,0,1,.93-.41,6.54,6.54,0,0,0,1.56,0c.58-.1,1.06.07,1.54,0a8.06,8.06,0,0,0,1.54,0c.38,0,1,0,1.53,0s1.11,0,1.54,0a13.14,13.14,0,0,0,1.54,0,11,11,0,0,1,1.53,0c.48,0,.91-.09,1.51,0a6.8,6.8,0,0,1,1.28.09c.36.17.93.15,1.22.41a4.9,4.9,0,0,1,.82.89A1.54,1.54,0,0,1,122.68,7.18Zm1.51-3.29c.07.38.46.65.36,1,0,.53-.48,1.11-1,1-.46.12-.63-.17-.87-.53s-.5-.72-.67-1a4,4,0,0,0-.74-1c-.44-.62-.39-1.06-.12-1.34a1.22,1.22,0,0,1,.79-.39,1.15,1.15,0,0,1,1,.53c.38.43.5.67.69.91A2.26,2.26,0,0,0,124.19,3.89Zm2.67,0a1.77,1.77,0,0,1-.7.29,1,1,0,0,1-.82-.46c-.16-.31-.5-.55-.55-.77s-.24-.38-.36-.55a6.74,6.74,0,0,0-.84-1,.73.73,0,0,1,.07-1.11,1.07,1.07,0,0,1,.75-.31c.38,0,.55.22.84.34s.24.31.53.55.31.55.62.77a3.76,3.76,0,0,0,.48.81,3.07,3.07,0,0,1,.29.72A1,1,0,0,1,126.86,3.89Z" fill="#fff"/><path d="M133,3.94a2.08,2.08,0,0,1-.08.91c-.07.26-.12.67-.19.86a3,3,0,0,0-.19,1c0,.34-.24.77-.17,1-.14.41,0,.72-.12,1a5.14,5.14,0,0,0-.12,1,3.71,3.71,0,0,0-.09,1.27c0,.41-.1.79-.1,1.29s-.05.87-.05,1.25a4.54,4.54,0,0,1,0,1.28c0,.72,0,1.1.05,1.77,0,.24,0,.51.07.89a4.27,4.27,0,0,0,.07.89,3.15,3.15,0,0,0,.1.86c.07.24,0,.53.1.89a1.35,1.35,0,0,1,0,.72,1,1,0,0,1-.48.84,1.93,1.93,0,0,1-1,.34,2.54,2.54,0,0,1-.81-.22,1.91,1.91,0,0,1-.55-.65A4.72,4.72,0,0,1,129.3,20a3.86,3.86,0,0,0-.08-.89,3.24,3.24,0,0,1-.07-1,4.11,4.11,0,0,0-.05-1,2,2,0,0,0,0-.91,4,4,0,0,1,0-1.34,9.39,9.39,0,0,1,0-1.16,3.31,3.31,0,0,0,0-1.17c0-.34.12-.79.07-1.16a3.24,3.24,0,0,1,.07-1.15,6.9,6.9,0,0,1,.12-1.17,8.54,8.54,0,0,0,.15-1.16,7.77,7.77,0,0,1,.14-1.15,8.29,8.29,0,0,0,.17-1.15A5.11,5.11,0,0,0,130,4.58a2.77,2.77,0,0,1,.29-1.05c.09-.22.36-.41.52-.58a.87.87,0,0,1,.8-.21,1.85,1.85,0,0,1,1,.33A1.38,1.38,0,0,1,133,3.94Zm14.71,14.59a3.66,3.66,0,0,1-.19.74,1.1,1.1,0,0,1-.56.48,3.14,3.14,0,0,1-1,.27c-.5.07-.84.07-1.25.17s-.81.07-1.27.07a5.19,5.19,0,0,1-1,0,14,14,0,0,0-1.42,0,2.79,2.79,0,0,1-1.46-.19c-.41-.22-.91-.17-1.37-.46-.26-.14-.41-.1-.62-.36a1.73,1.73,0,0,1-.56-.46c-.28-.26-.45-.4-.5-.6-.22-.09-.26-.55-.36-.69a2.7,2.7,0,0,1-.34-1.56,1.16,1.16,0,0,1,.41-1.06,1.3,1.3,0,0,1,1.06-.43,1.08,1.08,0,0,1,.84.29c.31.24.29.43.43.76a5.71,5.71,0,0,0,.31.94,1.74,1.74,0,0,0,.67.65,2.59,2.59,0,0,0,1.42.36,3.62,3.62,0,0,0,1.51.05,7.38,7.38,0,0,0,1.59-.05,5.53,5.53,0,0,0,1.58-.22,2.58,2.58,0,0,1,1-.07,1.43,1.43,0,0,1,.72.39A1.75,1.75,0,0,1,147.73,18.53ZM136.81,6.77A.79.79,0,0,1,137,6a1.28,1.28,0,0,1,.58-.5,3.89,3.89,0,0,1,1.65-.17,2,2,0,0,0,.94,0,1.84,1.84,0,0,0,1,0c.19-.08.65,0,1-.1a4.69,4.69,0,0,1,.93-.1c.41,0,.72-.12,1-.14a6.85,6.85,0,0,0,1.08,0,1.75,1.75,0,0,1,.86.43,1.61,1.61,0,0,1,.34.89,1.66,1.66,0,0,1-.32.89,2.21,2.21,0,0,1-.76.46c-.24.14-.63,0-1,.19a7.82,7.82,0,0,0-.87.07,5.27,5.27,0,0,1-1.7.14c-.67.08-1.11.1-1.73.12a6.17,6.17,0,0,1-1.75,0,2.58,2.58,0,0,1-1-.36A1.34,1.34,0,0,1,136.81,6.77Z" fill="#fff"/><path d="M171.33,21.7a1.44,1.44,0,0,1-1,.45,1.51,1.51,0,0,1-.77-.19,1.53,1.53,0,0,1-.77-.48c-.36-.14-.41-.29-.67-.53-.17-.09-.38-.38-.5-.45s-.44-.39-.7-.65-.38-.43-.67-.7a4.55,4.55,0,0,1-.65-.72c-.26-.12-.41-.57-.6-.74s-.41-.53-.58-.77-.26-.38-.55-.79c-.12-.36-.31-.43-.5-.82a1.42,1.42,0,0,1-.48-.81c-.17-.43-.43-.7-.6-1.2s-.43-.8-.55-1.23c-.15-.14-.12-.38-.29-.65s-.29-.67-.53-.64-.43.24-.6.79-.17.69-.41,1c-.14.46-.33.75-.41,1a2.75,2.75,0,0,0-.48.93,3.52,3.52,0,0,1-.52.94,2.91,2.91,0,0,1-.58.91c-.31.36-.36.63-.6.87s-.43.48-.48.6a1.89,1.89,0,0,0-.48.6,1.47,1.47,0,0,0-.53.57c-.19.27-.45.31-.53.55a2.28,2.28,0,0,0-.55.53,1.81,1.81,0,0,1-.6.51c-.14.28-.31.33-.6.48a1.93,1.93,0,0,0-.6.45c-.43.29-.74.65-1.06.7-.24.29-.52.24-.81.24s-.7-.24-1-.41-.36-.53-.41-1a1.65,1.65,0,0,1,.7-1.18,1.41,1.41,0,0,0,.69-.52c.29-.2.41-.32.72-.51a7.55,7.55,0,0,1,.72-.6c.29-.14.51-.53.72-.65a7.52,7.52,0,0,1,.67-.72,5.18,5.18,0,0,0,.68-.79,3.76,3.76,0,0,0,.6-.81c.07-.32.38-.46.57-.82s.34-.6.51-.84.33-.43.45-.82a4.67,4.67,0,0,0,.56-1.15c.26-.26.28-.77.45-1.18a6.14,6.14,0,0,1,.41-1.17A7.34,7.34,0,0,1,158.49,8a1.81,1.81,0,0,1,.62-1.13c.12-.12.41-.14.56-.5a1.47,1.47,0,0,0,.26-.91.86.86,0,0,0-.87-.89c-.57,0-.91,0-1.43,0a5,5,0,0,1-1.52,0,1.17,1.17,0,0,1-.79-.4c-.14-.29-.41-.6-.29-.87-.07-.21.15-.62.29-.89a.72.72,0,0,1,.79-.38,10.31,10.31,0,0,1,1.75,0,10.85,10.85,0,0,0,1.71,0,3.27,3.27,0,0,1,1.37.21c.24,0,.33.22.62.36s.31.39.46.55.26.41.26.7a2,2,0,0,0,.17.84,4.53,4.53,0,0,1,.24,1.54A3.74,3.74,0,0,0,163,7.54a9.87,9.87,0,0,1,.38,1.36,11,11,0,0,1,.48,1.32c.17.36.34.87.55,1.28a5.17,5.17,0,0,0,.65,1.25,5.85,5.85,0,0,0,.7,1.17,1.39,1.39,0,0,0,.41.58,3,3,0,0,0,.4.57,2.42,2.42,0,0,0,.44.56,2,2,0,0,0,.43.52c.26.24.43.72.86.89s.58.65.89.82a2.57,2.57,0,0,0,.94.79c.19.29.74.43,1,.74a2,2,0,0,1,.67,1.25A1.31,1.31,0,0,1,171.33,21.7Z" fill="#fff"/><path d="M188.83,14.31a7.6,7.6,0,0,1-.12,1.22,2.3,2.3,0,0,1-.33,1.18c-.12.28-.43.74-.55,1.08a7.87,7.87,0,0,1-.77,1c-.29.26-.63.48-.94.81a6.59,6.59,0,0,0-1.08.65c-.38.29-.84.31-1.13.5s-.81.24-1.17.39a5,5,0,0,1-1.11.29,2.94,2.94,0,0,1-1.17.14,1,1,0,0,1-1-.41,1.22,1.22,0,0,1-.31-.81.77.77,0,0,1,.29-.77c.24-.12.41-.36.72-.41a6.31,6.31,0,0,1,1.53-.34,1.62,1.62,0,0,0,.82-.21,7.22,7.22,0,0,0,.77-.27A4.28,4.28,0,0,0,184,18a1.22,1.22,0,0,0,.7-.43c.36-.07.45-.41.7-.65s.21-.45.45-.76.19-.56.29-.87a7.16,7.16,0,0,0,.1-.91,3.54,3.54,0,0,0-.22-1.06,2,2,0,0,0-.6-.84,4.82,4.82,0,0,0-1.2-.62,7.89,7.89,0,0,1-1.39-.17,9.78,9.78,0,0,0-1.71.12,2.7,2.7,0,0,1-.84.12,1.94,1.94,0,0,1-.86.17c-.39,0-.55.21-.82.19a5,5,0,0,0-.84.24,1.69,1.69,0,0,1-.81.27,1.69,1.69,0,0,1-.82.28,4,4,0,0,1-1.22.46,9.28,9.28,0,0,1-1.23.53,1.26,1.26,0,0,1-1.32-.27c-.24-.09-.41-.57-.41-.81a.71.71,0,0,1,.24-.72.82.82,0,0,1,.6-.48,12,12,0,0,1,1.3-.56,12.65,12.65,0,0,0,1.32-.47c.34-.08.82-.27,1.32-.41a10.61,10.61,0,0,1,1.37-.36,6.41,6.41,0,0,1,1.15-.27l1.2-.19c.26,0,.84-.1,1.18-.12a6.89,6.89,0,0,1,1.2,0,3.58,3.58,0,0,1,1.12.07c.27,0,.77.17,1.11.22s.7.34,1,.41a8.67,8.67,0,0,1,1,.6c.17.31.62.5.72.77s.41.62.55.88.15.68.31,1A3.11,3.11,0,0,1,188.83,14.31Z" fill="#fff"/><path d="M209.1,5.83a1.1,1.1,0,0,1-.82.48,9.63,9.63,0,0,0-1.51.43,6,6,0,0,0-1.15.53,9.23,9.23,0,0,1-1,.63,7.07,7.07,0,0,0-1,.84,5.56,5.56,0,0,0-.86.89c-.17.31-.46.62-.7,1s-.38.52-.38.81c-.24.32-.15.65-.29.87,0,.38-.14.53-.14.89-.05.21-.17.72-.05.91a2,2,0,0,0,.12,1,4.71,4.71,0,0,0,.31.94,4.69,4.69,0,0,0,.55.84c.24.19.46.55.77.67a6.9,6.9,0,0,0,1.08.6,4.56,4.56,0,0,0,1.18.33,3.82,3.82,0,0,0,1.15.22c.26.14.67.29,1,.48a1.18,1.18,0,0,1,.38,1,1.16,1.16,0,0,1-.48,1.08,1.48,1.48,0,0,1-1.13.38,5.71,5.71,0,0,1-1.65-.21,1.15,1.15,0,0,1-.79-.22c-.22-.19-.51-.1-.8-.31s-.62-.17-.74-.36a3.67,3.67,0,0,1-.7-.46,7.14,7.14,0,0,0-.64-.5c-.15-.15-.36-.31-.6-.58-.41-.26-.48-.65-.82-1a2.47,2.47,0,0,1-.6-1.2,2.24,2.24,0,0,1-.36-1.3c0-.38-.17-.84-.12-1.34a6.26,6.26,0,0,1,.1-1.28,4.88,4.88,0,0,0,.28-1.22,3.68,3.68,0,0,1,.46-1.18,7.56,7.56,0,0,1,.62-1.13c.15-.16.24-.55.53-.76a4.33,4.33,0,0,1,.63-.7c.07-.1.21-.19.28-.31a.45.45,0,0,0,.15-.55c-.07-.17-.34-.17-.53-.15a1.8,1.8,0,0,0-.77.15c-.38,0-.79.14-1.13.16s-.86,0-1.12.17l-1.13.15c-.46.14-.82.07-1.15.19a10.22,10.22,0,0,0-1.13.14L193.16,8a12.36,12.36,0,0,0-1.49.17c-.45.09-.65-.15-.91-.46a1.52,1.52,0,0,1-.36-1,1.35,1.35,0,0,1,.45-1c.12,0,.25-.17.58-.29a2.53,2.53,0,0,0,1.06-.17,7.77,7.77,0,0,1,1.58-.19c.55,0,1-.19,1.56-.19a2.22,2.22,0,0,0,1.06-.12,2,2,0,0,0,1-.1,2.23,2.23,0,0,1,1.06-.12,2.4,2.4,0,0,1,1-.12,3.24,3.24,0,0,0,1-.12,2.08,2.08,0,0,0,1.06-.12,10,10,0,0,0,1-.1A4.45,4.45,0,0,1,204,4c.39.1.58,0,.94-.09a3.3,3.3,0,0,0,1-.1c.26,0,.6-.07,1-.09a4.88,4.88,0,0,1,1-.08A1.26,1.26,0,0,1,209,4a1.21,1.21,0,0,1,.43,1A1,1,0,0,1,209.1,5.83Z" fill="#fff"/><path d="M27.14,45.37c-.07.46-.21,1-.26,1.46-.22.53-.24,1-.46,1.42a1.51,1.51,0,0,1-.29.67c-.14.24-.21.48-.31.67a6.73,6.73,0,0,0-.38.65,2,2,0,0,0-.39.65,1.69,1.69,0,0,1-.45.58c-.17.16-.29.5-.46.57a2.3,2.3,0,0,0-.53.55,3.6,3.6,0,0,0-.52.51,5.48,5.48,0,0,1-.58.48,1.4,1.4,0,0,1-.62.43,1.1,1.1,0,0,1-1,.34,1.16,1.16,0,0,1-1-.41,1.21,1.21,0,0,1-.43-1,.81.81,0,0,1,.19-.69,5.49,5.49,0,0,0,.53-.55c.36-.27.43-.39.82-.68.16-.16.62-.45.76-.72a3.64,3.64,0,0,0,.67-.79,4.58,4.58,0,0,1,.61-.89c.24-.38.35-.76.55-1.1A7.15,7.15,0,0,0,24,46.35a2.61,2.61,0,0,0,.22-1.22c.07-.48,0-.82.07-1.22-.1-.32,0-.68-.12-1a7.06,7.06,0,0,1-.48-.8,1.39,1.39,0,0,0-1-.45c-.27-.05-.79,0-1.08-.1a4,4,0,0,0-1.51.1c-.53.17-1.11.14-1.49.31a4.61,4.61,0,0,0-.75.21,6.7,6.7,0,0,0-.72.24c-.21.08-.57.2-.72.27a3.13,3.13,0,0,1-.72.29,1.07,1.07,0,0,1-.64.14,1.18,1.18,0,0,1-1-.43,1.52,1.52,0,0,1-.41-1A1.32,1.32,0,0,1,14,41c.07-.17.48-.39.65-.48a3.31,3.31,0,0,0,.82-.36c.14-.17.55-.12.84-.32a2.84,2.84,0,0,1,.86-.26c.22-.05.55-.17.89-.24a7.12,7.12,0,0,0,.91-.19,1.6,1.6,0,0,1,.89-.12c.62,0,1.15-.17,1.75-.12l1.23.07a10,10,0,0,1,1.17.22c.46.24.67.26,1.13.48.24.21.74.52,1,.76s.36.56.55.77A2.32,2.32,0,0,1,27,42a3.68,3.68,0,0,0,.19.92,8,8,0,0,1,0,.93A6.4,6.4,0,0,1,27.14,45.37ZM17.92,34.66a1.72,1.72,0,0,1,.46-1.12,2.33,2.33,0,0,1,1.15-.36c.41,0,.75.24,1.32.19s.87.29,1.32.31a5.38,5.38,0,0,0,1.3.41c.31.17.94.24,1.22.43a1.83,1.83,0,0,1,.94.53c.29.19.38.45.41,1a1.24,1.24,0,0,1-.36,1,1.74,1.74,0,0,1-.94.48,2,2,0,0,1-1-.24c-.22,0-.48-.2-.7-.24a2.49,2.49,0,0,0-.86-.27,3.6,3.6,0,0,1-.87-.24,1.91,1.91,0,0,1-.86-.24,5.48,5.48,0,0,1-.89-.19,8.76,8.76,0,0,1-1.32-.5A1.54,1.54,0,0,1,17.92,34.66Z" fill="#fff"/><path d="M53,48a1.49,1.49,0,0,1,.44,1A2.24,2.24,0,0,1,53,50c-.26.33-.62.62-.94,1a3.1,3.1,0,0,1-1.1.74,2.13,2.13,0,0,1-1.2.53c-.41,0-1,.19-1.32.19s-.86-.05-1.42-.19a3.77,3.77,0,0,1-1.2-.75,3,3,0,0,1-.55-1.17c-.17-.39,0-.89-.07-1.27s.05-.56.05-1,.09-.6,0-1c0-.27.09-.65.07-1a2.88,2.88,0,0,0,.05-1c0-.29.09-.73,0-1a3.13,3.13,0,0,1,0-1,4.86,4.86,0,0,1,.07-1c.08-.38,0-.62.05-1A1.27,1.27,0,0,0,45.5,40c0-.19-.29-.31-.6-.33a2.22,2.22,0,0,0-1.16.38c-.5.31-.76.58-1,.77s-.45.19-.55.45a5.89,5.89,0,0,0-.55.48c-.24.24-.41.29-.53.51s-.36.24-.53.5a2.53,2.53,0,0,0-.55.53c-.26.21-.31.43-.53.53a1.66,1.66,0,0,1-.5.52,1.15,1.15,0,0,0-.36.49,2.2,2.2,0,0,0-.12,1c.09.45-.1.62,0,1,.09.24-.07.79,0,1a3.55,3.55,0,0,0,0,1c0,.41-.1.79,0,1a8.73,8.73,0,0,1,0,1,3.4,3.4,0,0,0,0,1c0,.33-.07.74,0,1a1,1,0,0,1-.4.91,1,1,0,0,1-.94.36.87.87,0,0,1-.94-.36.92.92,0,0,1-.4-.91,12.37,12.37,0,0,1,0-1.39,8.66,8.66,0,0,1,0-1.35c0-.36,0-1,0-1.46a.27.27,0,0,0-.48-.22c-.09.17-.19.27-.28.43s-.32.53-.46.7a5.07,5.07,0,0,0-.46.72,1,1,0,0,1-1.08.62,2.13,2.13,0,0,1-.93-.38,1.34,1.34,0,0,1-.44-.91,5.75,5.75,0,0,1,1-1.87,1.2,1.2,0,0,0,.5-.8c.22-.36.36-.4.48-.76a2.48,2.48,0,0,1,.51-.82c.19-.29.29-.6.45-.82a2.66,2.66,0,0,0,.41-.74,2,2,0,0,0,.46-.82,3.54,3.54,0,0,0,.33-.81c0-.24.12-.8-.16-1a1,1,0,0,0-.73-.14,10.07,10.07,0,0,0-1,.19c-.34,0-.46.12-.79.15a1.13,1.13,0,0,1-1-.29,1.38,1.38,0,0,1-.37-1,1,1,0,0,1,.25-.82c.24-.31.4-.28.71-.43a2.87,2.87,0,0,1,.89-.17c.22,0,.65-.16,1.18-.21.31-.12.62-.1.91-.43a1.21,1.21,0,0,0,.29-.77c0-.48,0-1.23,0-1.71s0-.76,0-1a1,1,0,0,1,.46-.84,1.5,1.5,0,0,1,.91-.31,1.57,1.57,0,0,1,.91.29,1,1,0,0,1,.41.86c0,.31,0,.72,0,.94a8.49,8.49,0,0,0,0,1.13c0,.57,0,1,.24,1.15a1.2,1.2,0,0,1,.56,1,1.48,1.48,0,0,1-.29.94c-.1.31-.39.53-.53.79s0,.24,0,.29.31,0,.5-.19c.41-.36.65-.6,1-.94s.65-.41.91-.79c.19-.19.67-.46,1-.77s.36-.26.74-.48c.17-.1.62-.29.82-.43a2.43,2.43,0,0,0,.84-.31,8,8,0,0,1,.91-.1c.36.12.93.12,1.29.22a3.18,3.18,0,0,1,1.08.76c.36.32.39.75.6,1.25a3.75,3.75,0,0,1,.12,1.39,5.76,5.76,0,0,0-.07,1.06,4.46,4.46,0,0,1,0,1.06,3.43,3.43,0,0,1,0,1.05,3.88,3.88,0,0,0-.08,1.06,3.09,3.09,0,0,1,0,1.06,3.41,3.41,0,0,1,0,1,1.86,1.86,0,0,0-.07,1.06,4.71,4.71,0,0,0,0,1c0,.39.14.56.5.65a3.48,3.48,0,0,0,1.25-.45c.29-.15.43-.41.55-.46.29-.26.36-.43.48-.5A1.4,1.4,0,0,1,52,47.6,2.54,2.54,0,0,1,53,48Z" fill="#fff"/><path d="M72.1,48.08a1.26,1.26,0,0,1-.34.94c-.22.21-.29.48-.46.57s-.31.32-.45.53-.31.46-.51.51c-.16.28-.36.24-.52.48a1.31,1.31,0,0,0-.56.45c-.21.12-.43.17-.57.41s-.48.22-.6.38a6.35,6.35,0,0,0-.6.34,4.7,4.7,0,0,1-1.08.48,10.54,10.54,0,0,1-1.13.34,3.2,3.2,0,0,1-1.18.19,3.33,3.33,0,0,1-1.17.07,3.15,3.15,0,0,1-1.13-.07c-.31-.12-.7,0-1.11-.24a1.85,1.85,0,0,1-1-.46c-.27-.24-.63-.36-.87-.74-.26-.15-.26-.31-.43-.58a1.24,1.24,0,0,1-.33-.6c-.29-.36-.22-.86-.44-1.37a3.88,3.88,0,0,1-.19-1.39,2.83,2.83,0,0,1,0-1.39c0-.41,0-1,0-1.51a6.2,6.2,0,0,0,0-1.51,7.64,7.64,0,0,1,0-1.54,9.59,9.59,0,0,1,.05-1.49c.07-.53,0-1,.09-1.54a12.24,12.24,0,0,0,.07-1.51c.08-.38,0-.89.08-1.49a3.39,3.39,0,0,1,.16-1.48,1,1,0,0,1,.48-.82,1.74,1.74,0,0,1,.94-.29c.43.12.77.07,1,.36s.48.63.43,1a8.46,8.46,0,0,1-.07,1.27,10.38,10.38,0,0,0-.07,1.23,3.11,3.11,0,0,0-.09,1.22,3.89,3.89,0,0,1-.08,1.22,11.71,11.71,0,0,1-.07,1.73,6.07,6.07,0,0,0-.07,1.73,10.05,10.05,0,0,0,0,1.73c-.05.5.07,1.1,0,1.7a5.05,5.05,0,0,0,.07,1.37,3.23,3.23,0,0,0,.34,1.32c0,.29.31.39.36.6a2.09,2.09,0,0,1,.5.41,4.41,4.41,0,0,0,1.35.31,4.26,4.26,0,0,0,1.37-.14,6.11,6.11,0,0,0,1.27-.39,3.69,3.69,0,0,0,1.2-.62A9.65,9.65,0,0,0,67.85,49a2.68,2.68,0,0,0,.84-.84,6.37,6.37,0,0,0,.79-.91,1.36,1.36,0,0,1,1.13-.53,2.59,2.59,0,0,1,1,.41A1,1,0,0,1,72.1,48.08Z" fill="#fff"/><path d="M85.32,48c0,.45-.28.86-.33,1.2-.24.4-.17.67-.39,1a2.37,2.37,0,0,1-.48.89c-.09.4-.4.55-.62.76a2.08,2.08,0,0,1-1.08.75,12.11,12.11,0,0,1-1.25.26c-.41.12-.67-.12-1-.09-.36-.15-.6-.22-.86-.34s-.41-.19-.75-.5c-.19-.32-.4-.34-.64-.7a2.29,2.29,0,0,1-.53-.79c-.19-.36-.34-.65-.46-.94a5.94,5.94,0,0,0-.38-1,6.85,6.85,0,0,0-.31-1A9.2,9.2,0,0,1,76,46.33a3.85,3.85,0,0,1-.2-1.13,4.66,4.66,0,0,1-.12-1.13A2.6,2.6,0,0,1,75.63,43a7.7,7.7,0,0,0-.07-1,3.15,3.15,0,0,1,0-1,8.73,8.73,0,0,1,0-1.61c0-.5.07-1,0-1.39a4.51,4.51,0,0,0,.12-1.15c.15-.27.19-.51.29-.65a1.37,1.37,0,0,1,1.13-.48,1.79,1.79,0,0,1,1.05.38c.17.27.53.56.44,1a11.33,11.33,0,0,1-.08,1.25,8.48,8.48,0,0,0,0,1,2.51,2.51,0,0,0,0,.82,5.28,5.28,0,0,0,0,1.49c.08.4,0,1,.17,1.58-.07.33.1.67.07.91s0,.72.12.94A1.91,1.91,0,0,0,79,46a4.29,4.29,0,0,1,.17.88,2.43,2.43,0,0,0,.22.82,2.34,2.34,0,0,0,.26.72,3,3,0,0,0,.62,1.08.75.75,0,0,0,.8.41A1,1,0,0,0,82.16,49a7.46,7.46,0,0,1,.28-.77,1.83,1.83,0,0,0,.22-.72,2.56,2.56,0,0,1,.46-.64,3.15,3.15,0,0,1,.76-.27,1.23,1.23,0,0,1,1,.39A1.09,1.09,0,0,1,85.32,48Zm9.56-.6a1.28,1.28,0,0,1-1,.43,3.11,3.11,0,0,1-.7-.19,1.61,1.61,0,0,1-.53-.51c-.14-.31-.14-.58-.36-.81a1.72,1.72,0,0,1-.33-.77,4,4,0,0,0-.36-.7c-.15-.26-.32-.55-.39-.69a1.51,1.51,0,0,1-.4-.68,4.6,4.6,0,0,0-.46-.67,2.42,2.42,0,0,1-.46-.65,7.35,7.35,0,0,0-.48-.62c-.14-.29-.43-.41-.5-.6s-.48-.34-.55-.6a.8.8,0,0,1-.39-.91,1.31,1.31,0,0,1,.46-.92,1.93,1.93,0,0,1,1-.38,2.58,2.58,0,0,1,.72.22,2.81,2.81,0,0,1,.7.5c.16.12.26.53.55.6s.33.5.45.55c.31.29.51.75.77,1s.41.69.7,1,.38.77.62,1.08c.24.48.38.68.55,1.09a9,9,0,0,0,.41.88,7.3,7.3,0,0,1,.34,1C95.33,46.69,95.21,47.17,94.88,47.39Z" fill="#fff"/><path d="M112.18,48.58a3.75,3.75,0,0,1-.31,1.06,4.77,4.77,0,0,1-.48,1c-.17.43-.53.62-.72.88-.41.36-.77.6-1,.82a3.11,3.11,0,0,1-1.18.55,4.08,4.08,0,0,1-1.27.31,3.14,3.14,0,0,1-1.32.12c-.41-.09-1,0-1.35-.09A4.49,4.49,0,0,1,103.2,53a3.66,3.66,0,0,1-1.27-.45,2,2,0,0,1-1.15-.75,2.7,2.7,0,0,1-.53-1.15c0-.41,0-.74.39-.93a1.29,1.29,0,0,1,.93-.36.84.84,0,0,1,.72.19,3.71,3.71,0,0,0,1,.57c.31.15.58.24.89.41a1.35,1.35,0,0,0,.84.22,1.78,1.78,0,0,0,.84,0c.41,0,.86-.15,1.34-.22a6.11,6.11,0,0,0,1.15-.72,1.72,1.72,0,0,0,.68-1,3.58,3.58,0,0,0,.21-1.2c-.09-.38,0-.84-.21-1.18a1.3,1.3,0,0,0-.65-1,3.51,3.51,0,0,0-1.18-.62,9.47,9.47,0,0,0-1.25-.17,6.77,6.77,0,0,1-1.56,0c-.48,0-.69-.09-.84-.38a1.27,1.27,0,0,1-.31-.89,1.34,1.34,0,0,1,.31-.86,1.17,1.17,0,0,1,.84-.36,13.17,13.17,0,0,0,1.42,0,2.92,2.92,0,0,0,2.3-.81,2.48,2.48,0,0,0,.46-.84,6.63,6.63,0,0,1,.14-1,4.21,4.21,0,0,0-.24-1,5.12,5.12,0,0,1-.62-.72,1.37,1.37,0,0,0-.89-.43,1.76,1.76,0,0,0-1-.17,3.64,3.64,0,0,0-1.56.36c-.36,0-.48.31-.7.36a3.4,3.4,0,0,0-.64.48,1,1,0,0,1-.92.36,1,1,0,0,1-1-.41c-.36-.22-.31-.65-.41-1a1.41,1.41,0,0,1,.36-.92c.38-.24.7-.64,1.08-.76a4.44,4.44,0,0,1,1.2-.56c.31-.12.89-.19,1.27-.36a6.42,6.42,0,0,0,1.3-.09,5.45,5.45,0,0,1,1.2.07,5.81,5.81,0,0,1,1.2.26c.41.12.65.32,1.1.48.27.29.63.41,1,.75a2.18,2.18,0,0,0,.56.67c0,.26.26.46.4.77a1.72,1.72,0,0,1,.22.84,1.49,1.49,0,0,1,.1.86,3.27,3.27,0,0,1-.24,1.56c-.1.36-.1.6-.34.7a3.61,3.61,0,0,1-.48.62,3.17,3.17,0,0,1-.86.63c-.27.14-.32.48.14.69a2,2,0,0,1,.65.44c.19.19.36.16.53.43s.43.5.5.65a4.34,4.34,0,0,1,.38.74,7.74,7.74,0,0,1,.32,1.61A6.3,6.3,0,0,1,112.18,48.58Z" fill="#fff"/><path d="M134.62,43.5a7.79,7.79,0,0,1-.15,1.49,2.65,2.65,0,0,1-.4,1.41,2.48,2.48,0,0,0-.29.7c-.07.26-.24.33-.39.65a2.28,2.28,0,0,0-.43.6c-.26.23-.29.45-.5.55a1.56,1.56,0,0,0-.55.53c-.17.12-.34.31-.6.48a1.52,1.52,0,0,1-.63.4,3.28,3.28,0,0,0-.67.36c-.26.17-.55.15-.7.34s-.55.22-.69.29c-.46.17-1,.29-1.42.48s-1,.24-1.37.33a3.55,3.55,0,0,1-1.41.2,2.31,2.31,0,0,1-1.18-.48,1.74,1.74,0,0,1-.38-.94,1.06,1.06,0,0,1,.36-.91,2.2,2.2,0,0,1,.89-.48c.21,0,.72-.17.93-.19a3.69,3.69,0,0,1,.94-.2,2.41,2.41,0,0,0,1-.26c.22-.07.7-.22,1-.34a5.32,5.32,0,0,0,.91-.45,1.83,1.83,0,0,0,.87-.53c.43-.12.6-.5.86-.82s.31-.57.6-1c.12-.29.24-.69.36-1.08a3.26,3.26,0,0,0,.12-1.17,8.59,8.59,0,0,1-.21-1.2,2.67,2.67,0,0,0-.65-1c-.12-.27-.48-.31-.75-.55a2.75,2.75,0,0,1-.84-.36c-.4-.05-.5-.2-.91-.2a2.7,2.7,0,0,0-.93,0,7,7,0,0,1-1.28,0c-.55,0-.79.15-1.27.15a11.21,11.21,0,0,1-1.27.21c-.43,0-1,.32-1.25.29a4.29,4.29,0,0,1-1.13.31,5.69,5.69,0,0,1-1.15.36,8.45,8.45,0,0,1-1.1.39c-.36.09-.77.36-1.11.45l-.76.32c-.17.17-.53.19-.8.33a4.36,4.36,0,0,1-.72.12,1.28,1.28,0,0,1-1-.4,1.31,1.31,0,0,1-.41-1,1.43,1.43,0,0,1,.67-1.18c.41-.31.92-.36,1.3-.63a4.43,4.43,0,0,0,1.34-.5c.32-.22.89-.24,1.37-.48a7.07,7.07,0,0,1,1.39-.43,7.41,7.41,0,0,0,1.4-.36,5.51,5.51,0,0,0,1.44-.31,3.42,3.42,0,0,1,1.41-.22,4,4,0,0,1,1.47-.14c.45,0,.86-.1,1.44,0,.36,0,.81,0,1.36.07s.87.19,1.37.26a8.19,8.19,0,0,1,1.3.51c.24,0,.41.29.6.34a1.32,1.32,0,0,0,.55.4c.38.17.55.55.91.91s.36.75.65,1.08c.07.44.41.8.38,1.2S134.55,43.14,134.62,43.5Z" fill="#fff"/><path d="M157.69,45.13a3.38,3.38,0,0,1-.14.94c0,.4-.24.55-.22.93a6.76,6.76,0,0,1-.33.89c-.22.22-.27.67-.41.84a2.77,2.77,0,0,1-.51.82,1.85,1.85,0,0,1-.57.74c-.24.36-.53.46-.7.7s-.55.4-.84.64-.81.46-1.05.65c-.44.24-.8.39-1.11.53s-.65.24-1.05.34a1.49,1.49,0,0,1-1.3-.39,1,1,0,0,1-.46-1c-.09-.21.15-.57.29-.84s.48-.31.75-.52.62-.17.93-.41a7.89,7.89,0,0,0,.84-.46,6.31,6.31,0,0,0,.82-.53,2.76,2.76,0,0,0,.72-.67c.31-.14.38-.57.65-.91.07-.29.4-.58.45-1a6.56,6.56,0,0,0,.27-1.1,4.43,4.43,0,0,1,.07-1.13c-.12-.31,0-.7-.1-1.11A7.35,7.35,0,0,0,154.4,42a4.64,4.64,0,0,0-.48-1,6.61,6.61,0,0,0-.64-.86,3.92,3.92,0,0,0-1-.87,5.23,5.23,0,0,0-1.15-.6,2.41,2.41,0,0,0-1-.26,1.1,1.1,0,0,0-1.08.77c-.15.72-.1,1.1-.2,1.44s-.16.91-.19,1.2a6.89,6.89,0,0,0-.24,1.22,6.7,6.7,0,0,1-.31,1.18c-.19.45-.22.91-.36,1.17-.14.51-.41.84-.46,1.15s-.33.65-.5,1.13a2.46,2.46,0,0,1-.46.84,1.75,1.75,0,0,1-.5.8,2.67,2.67,0,0,1-.63.74,3.55,3.55,0,0,0-.71.62,5.13,5.13,0,0,1-1.33.6,4.17,4.17,0,0,1-1.41.22,2.46,2.46,0,0,1-1.61-.34,3.38,3.38,0,0,1-.72-.38c-.34-.12-.36-.34-.65-.53a3,3,0,0,1-.74-1,1.91,1.91,0,0,1-.51-1.13,11.87,11.87,0,0,0-.26-1.22,7.31,7.31,0,0,1-.07-1.23,5.47,5.47,0,0,0,.05-1,3.71,3.71,0,0,0,.14-.93,3.76,3.76,0,0,1,.24-.92A1.83,1.83,0,0,1,138,42a4.43,4.43,0,0,1,.41-.86,2.43,2.43,0,0,1,.48-.79c.22-.22.36-.62.58-.77a2.89,2.89,0,0,1,.62-.7c.36-.36.65-.52.86-.76a1.82,1.82,0,0,1,1-.68c.24-.07.65-.48,1-.55a3.89,3.89,0,0,1,1.06-.45,2,2,0,0,0,1.1-.34c.41-.19.77-.1,1.13-.24s.62-.05,1.13-.14a4.13,4.13,0,0,1,1.15-.05,9.16,9.16,0,0,0,1,0,4.84,4.84,0,0,1,.93.12c.41,0,.6.17.94.17a2.74,2.74,0,0,0,.91.26,3.25,3.25,0,0,0,.89.36,3,3,0,0,0,.84.46c.22.12.48.38.79.53a8.36,8.36,0,0,1,.72.65c.22.19.31.43.55.6a6.47,6.47,0,0,0,.48.67,7.35,7.35,0,0,0,.39.72c0,.31.29.5.33.74a1.17,1.17,0,0,1,.27.8c0,.28.19.47.17.79a6.7,6.7,0,0,1,.14,1.63A2.61,2.61,0,0,0,157.69,45.13Zm-11.61-5.86a.7.7,0,0,0-.8-.53,2.16,2.16,0,0,0-.76.22c-.25.12-.49.29-.7.38s-.46.44-.75.48c-.31.27-.47.32-.64.56s-.29.38-.58.62-.31.55-.5.67-.24.39-.44.75a2.54,2.54,0,0,0-.33.76,2.35,2.35,0,0,0-.24.82,4.44,4.44,0,0,0-.22,1.68,3.7,3.7,0,0,1,.07.91c.08.22,0,.68.24,1a3.68,3.68,0,0,0,.51.77,1.2,1.2,0,0,0,.84.31,2.38,2.38,0,0,0,.89-.24c.19-.12.36-.4.64-.6s.37-.57.56-.81a4.76,4.76,0,0,0,.4-.84,4.55,4.55,0,0,1,.41-.91c.1-.36.27-.65.34-1a4.17,4.17,0,0,0,.31-1,2.33,2.33,0,0,1,.24-1,4.75,4.75,0,0,1,.19-1,7.89,7.89,0,0,0,.17-1A5.56,5.56,0,0,0,146.08,39.27Z" fill="#fff"/><path d="M177.41,51.66a.88.88,0,0,1-.58.5c-.17.15-.46.1-.72.27s-.6.12-.82.16c-.69.15-1,.1-1.56.22a9.21,9.21,0,0,1-1.1.12,5.14,5.14,0,0,1-1.1.1,5.71,5.71,0,0,0-1.09,0c-.4,0-.72,0-1.1,0a4.28,4.28,0,0,1-1.39-.05,3.07,3.07,0,0,1-1.42-.1,5.38,5.38,0,0,1-1.39-.26c-.38-.17-.91-.31-1.32-.46-.26-.21-.67-.26-1-.57a1.51,1.51,0,0,1-.82-.79c-.12-.2-.36-.39-.36-.63a1.18,1.18,0,0,1-.26-.69,7.79,7.79,0,0,1-.17-1.44c0-.29.09-.53.07-.92a8.18,8.18,0,0,1,.22-.93c.12-.36.21-.58.52-.72a1.72,1.72,0,0,1,.87-.27,1.58,1.58,0,0,1,.94.31.87.87,0,0,1,.43.84c-.08.82-.17,1.28-.17,1.59a1.62,1.62,0,0,0,.09.77,1.72,1.72,0,0,0,1.44,1.13,4.47,4.47,0,0,0,1.28.26,4,4,0,0,0,1.32.07,1.73,1.73,0,0,0,1.1,0,9.65,9.65,0,0,0,1.27-.05,9.44,9.44,0,0,1,1.3-.07c.41,0,.81-.15,1.27-.15a8,8,0,0,0,1.25-.17,6.77,6.77,0,0,1,.91-.19,8.34,8.34,0,0,1,1-.12,1.25,1.25,0,0,1,.94.41,1.57,1.57,0,0,1,.38,1A1.85,1.85,0,0,1,177.41,51.66ZM163.15,37c0-.41,0-.74.36-1a1,1,0,0,1,.91-.44,4.65,4.65,0,0,1,1.68.24,10.29,10.29,0,0,0,1.68.2,14.19,14.19,0,0,1,1.7,0,13.45,13.45,0,0,1,1.66,0c.65,0,1.18-.1,1.66-.12a6.89,6.89,0,0,1,1.58-.17,1.55,1.55,0,0,1,.89.46c.12.29.43.57.34.93,0,.72-.24,1.11-.75,1.23a4.77,4.77,0,0,1-1.53.29,2.75,2.75,0,0,1-1.2.12,8.1,8.1,0,0,1-1.32.07,4.71,4.71,0,0,1-1.3,0,5.1,5.1,0,0,1-1.23,0,6.12,6.12,0,0,1-1.63-.07A8.84,8.84,0,0,1,165,38.6a1.9,1.9,0,0,1-1.15-.29c-.21,0-.43-.38-.55-.53A1.46,1.46,0,0,1,163.15,37Z" fill="#fff"/><path d="M197.06,52a1.59,1.59,0,0,1-.22.87,1.27,1.27,0,0,1-.7.5,3.53,3.53,0,0,1-1.27.27,14.56,14.56,0,0,1-1.54.16,7.24,7.24,0,0,1-1.58.08,6.61,6.61,0,0,1-1.32,0,5.76,5.76,0,0,1-1.42,0,6,6,0,0,1-1.44-.17,3.23,3.23,0,0,1-1.39-.31,4.71,4.71,0,0,1-1.32-.57c-.26-.22-.77-.36-.89-.7-.36-.19-.38-.55-.64-.89a1.51,1.51,0,0,1-.41-1A1.59,1.59,0,0,1,182.8,49a2.15,2.15,0,0,1,.09-1,1.92,1.92,0,0,1,.24-.91,1.91,1.91,0,0,0,.36-.82,6,6,0,0,0,.51-.77,2.32,2.32,0,0,1,.6-.72,2,2,0,0,1,.67-.65,6.68,6.68,0,0,1,.86-.74,1.25,1.25,0,0,0,.39-1.32c-.12-.58-.17-.89-.22-1.15a6.83,6.83,0,0,1-.14-1,2.73,2.73,0,0,1-.12-1.08c0-.36-.1-.74-.1-1s-.07-.65-.07-1.06a4.42,4.42,0,0,0,0-1.08,3.37,3.37,0,0,1,0-1.1,1,1,0,0,1,.43-1,1.27,1.27,0,0,1,1-.36c.43.12.74.12,1,.36a2,2,0,0,1,.46,1c.05.6-.05,1.22.05,1.8s0,1.15.09,1.75A3.29,3.29,0,0,1,189,39a3.64,3.64,0,0,0,.09.86,3.67,3.67,0,0,0,.17,1,.81.81,0,0,0,1,.26c.34-.14.53-.26.84-.36a3.24,3.24,0,0,0,.79-.34,1.83,1.83,0,0,0,.79-.31c.12-.14.48-.07.72-.24a10.31,10.31,0,0,1,1.08-.24,1.5,1.5,0,0,1,.94.43,1.55,1.55,0,0,1,.36,1c0,.27-.22.53-.24.77s-.41.31-.67.48a2.24,2.24,0,0,0-.82.27c-.57.21-1,.36-1.41.5a1.9,1.9,0,0,1-.72.29,3,3,0,0,0-.7.29c-.26.17-.58.12-.72.33s-.55.27-.67.36c-.29.19-.51.19-.6.32s-.46.19-.67.43a6.13,6.13,0,0,0-1,.72,6.78,6.78,0,0,0-.89.89c-.17.36-.53.74-.62,1a2.46,2.46,0,0,0-.24,1.2,1.51,1.51,0,0,0,.33,1.1,2.41,2.41,0,0,0,1,.67,1.67,1.67,0,0,0,.84.22c.24.17.43.12.87.12a5.82,5.82,0,0,0,1.72.07,9.69,9.69,0,0,0,1.11,0,4.54,4.54,0,0,0,1.13-.05c.26,0,.84-.12,1.12-.12l1.11-.17a2.28,2.28,0,0,1,1.05-.07,1.18,1.18,0,0,1,.65.41A1.92,1.92,0,0,1,197.06,52Z" fill="#fff"/></g></g></svg>