<svg xmlns="http://www.w3.org/2000/svg" width="531.5" height="214.21" viewBox="0 0 531.5 214.21"><title>ttl_h1</title><g id="レイヤー_2" data-name="レイヤー 2"><g id="レイヤー_2-2" data-name="レイヤー 2"><path d="M40.3,15.2c-.4,1.7-.4,1.7-1.3,8.3-2.1,14.4-4.3,24.1-7.6,33.9-4.4,13-9.3,22-17.7,32.31A54.06,54.06,0,0,0,0,79.5C6.9,72,10.6,66.4,14.3,57.7a131.65,131.65,0,0,0,9-34.2,71.54,71.54,0,0,0,.8-10.1V12.3ZM69,12.3a139.27,139.27,0,0,0,4,22.4A117.24,117.24,0,0,0,83.51,62.4,88.57,88.57,0,0,0,95.11,79a51.54,51.54,0,0,0-13.3,10.81A106.67,106.67,0,0,1,64.7,58.9a174.47,174.47,0,0,1-9.1-36.2,57.86,57.86,0,0,0-1.3-7.6Z" fill="#fff"/><path d="M110.22,11.9c12.9,7.8,18.6,12,26.6,19.4l-10.1,13.1a105.65,105.65,0,0,0-26.3-20.7Zm-9.4,62a95.6,95.6,0,0,0,29.8-7.3c12.7-5.3,21.6-12.8,29.4-24.5a86.64,86.64,0,0,0,10.11-19.9,54.4,54.4,0,0,0,12.7,11.6c-9.9,21.4-21.71,34.6-39.11,43.8A126.49,126.49,0,0,1,114.62,88c-2.5.5-2.5.5-4.4.9a36.49,36.49,0,0,0-5,1.4Z" fill="#fff"/><path d="M257.35,93.61A178.2,178.2,0,0,0,227.64,64.5c-8.9,10.6-22.1,20.51-37.3,28-3.3-6.4-4.7-8.3-9.6-13.41A93.46,93.46,0,0,0,202.94,67a91.55,91.55,0,0,0,26.2-29c1.3-2.2,3-5.8,5.3-10.9l-29.2.6c-8.3.1-10.2.3-14,.8L191,13.3c3.2.5,6,.6,12.3.6h1.8l32.4-.5c5.5-.1,5.9-.2,8.4-1.3l8.61,10c-1.4,1.4-2.1,2.7-3.4,5.6a123.33,123.33,0,0,1-14.21,25.2c12.9,9.2,15.41,11.4,32.51,27.81ZM256.45,5a59.72,59.72,0,0,1,8,13.7l-8.3,3.6a66.71,66.71,0,0,0-8-14ZM267.75.3a57.57,57.57,0,0,1,8,13.1l-8.2,3.9a68,68,0,0,0-7.9-13.6Z" fill="#fff"/><path d="M317.11,6.9a44.46,44.46,0,0,0-2.9,5.9c-.9,2-1.3,2.9-2.4,5.1l26-.3A21.77,21.77,0,0,0,345,16.5l7.3,7.2c-1,1.6-1.4,2.5-2.6,6.5-4.8,15.6-11.8,29.1-20.51,39-9,10.3-20.4,18.41-36.3,25.71-3.3-6.1-5-8.1-10.3-12.91,27-10.5,42.6-26.2,50.8-51.4l-28.4.3a100,100,0,0,1-23.1,25.5c-4.2-5.1-6-6.6-11.9-10.2a78.15,78.15,0,0,0,26.2-29.7c2.9-5.4,4.3-9.2,4.8-12.7Z" fill="#fff"/><path d="M359,32.5c4.3.6,6.2.7,15.1.7h48.2c5.8,0,6.81-.1,9.71-1l6.7,7.4a30.32,30.32,0,0,0-2.8,6.3c-5.1,14.7-12.81,26.2-22.71,34.2-6.8,5.51-13.6,9-27.3,14.41-2.7-5.9-4.1-8-9.4-13.91,12.1-3.1,19.7-6.6,27.1-12.4s11.8-12,15.8-21.7h-45.5A127.8,127.8,0,0,0,359,47Zm8.4-24.6c3.6.6,6.9.8,13.8.8H414c8.1,0,10-.1,13.6-.8V22.4c-3.39-.4-4.89-.5-13.4-.5h-33.3c-6.4,0-10.4.2-13.5.5Z" fill="#fff"/><path d="M519.8,23.1C519,25,519,25,517.6,30.4q-7.05,27.3-24.31,43.9c-8.6,8.3-18.2,14.51-32.6,20.91-3.3-6.4-4.9-8.6-10.6-14.31a81.21,81.21,0,0,0,21.5-9.9c15.4-9.8,25.2-23.5,29.8-41.7h-43.8c-8.2,0-11.4.1-15.5.6V14.6c4.3.6,7.4.7,15.7.7h45.4a49.33,49.33,0,0,0,5.5-.3,49.61,49.61,0,0,0-5.1-8l8.31-3.1a62.6,62.6,0,0,1,7.9,13.4l-3.9,1.5ZM523.6,0a52.57,52.57,0,0,1,7.9,13.1l-8.2,3.5a68.5,68.5,0,0,0-7.81-13.4Z" fill="#fff"/><path d="M221.59,139a15.38,15.38,0,0,0-2.9,4.9c-6.8,14.8-15.21,24.3-28.31,31.9a39.06,39.06,0,0,0-10.5-10.2c-.6,11-2.2,17.6-5.8,24.4-5.7,10.5-14.3,17.6-29.7,24.21-3.2-6.61-4.7-8.71-9.5-13.71,11-3.4,18.1-7.8,23.3-14.4,5-6.3,6.8-13.8,6.8-27.7a28.78,28.78,0,0,0-.5-6.7h16.1c-.3,1.9-.3,2.5-.5,8.5,0,.5,0,1.8-.1,4.7,10.8-5.1,17-10.7,22.1-20.2h-49.5c-6,0-10.9.2-15.4.6v-15c5,.7,7.6.8,15.6.8h51.61c5.7,0,6.7-.1,9.2-1Z" fill="#fff"/><path d="M289.72,134a36.31,36.31,0,0,0,4.3-.2,11.07,11.07,0,1,1,11.11,11.9h-.4l-.4,1.4c-4.2,16.8-10.6,29.8-19.81,40.5s-20.5,18.61-37.7,26.31c-3.3-6.41-4.9-8.61-10.6-14.31a81.21,81.21,0,0,0,21.5-9.9c15.4-9.8,25.2-23.5,29.8-41.7h-43.8c-8.2,0-11.4.1-15.5.6V133.3c4.3.6,7.4.7,15.7.7Zm10.41.6a4.9,4.9,0,1,0,4.9-4.9A4.91,4.91,0,0,0,300.13,134.6Z" fill="#fff"/><path d="M340.41,127.9a109.74,109.74,0,0,0-.6,13.6v19.6c0,6.2.2,11.1.5,13.8h-16.4a122.09,122.09,0,0,0,.6-14V141.5a106.61,106.61,0,0,0-.5-13.6Zm45.81.1a102.07,102.07,0,0,0-.5,13.3v10.6c0,16.6-.4,22.7-2,28.8-2.8,10.8-9.51,18.9-20.61,25.21-5.6,3.19-10.9,5.3-20.1,7.9-2.4-6.4-3.7-8.6-8.6-14.31,8.8-1.8,14-3.5,19.5-6.4,9.2-4.9,13.7-10.7,15.3-20,.7-4,1.1-12.3,1.1-22.1v-9.5c0-7.6-.1-9.4-.6-13.5Z" fill="#fff"/></g></g></svg>