<svg id="レイヤー_1" data-name="レイヤー 1" xmlns="http://www.w3.org/2000/svg" width="65" height="65" viewBox="0 0 65 65"><defs><style>.cls-1{fill:#2bac38;}.cls-2{fill:#fff;}</style></defs><title>btn_line</title><path class="cls-1" d="M63.452,32.5A30.952,30.952,0,1,1,32.5,1.548,30.952,30.952,0,0,1,63.452,32.5Z"/><path class="cls-2" d="M53.088,30.641c0-9.212-9.236-16.707-20.588-16.707s-20.588,7.5-20.588,16.707c0,8.259,7.324,15.176,17.218,16.484.671.145,1.583.442,1.814,1.016A4.226,4.226,0,0,1,31.01,50s-.241,1.452-.294,1.762c-.09.521-.414,2.036,1.783,1.11s11.857-6.982,16.176-11.953h0c2.984-3.272,4.413-6.593,4.413-10.28"/><path class="cls-1" d="M28.317,26.19H26.873a.4.4,0,0,0-.4.4V35.56a.4.4,0,0,0,.4.4h1.444a.4.4,0,0,0,.4-.4V26.59a.4.4,0,0,0-.4-.4"/><path class="cls-1" d="M38.257,26.19H36.813a.4.4,0,0,0-.4.4v5.33L32.3,26.368a.422.422,0,0,0-.031-.041l0,0-.024-.024-.008-.007-.021-.018-.01-.008-.021-.014-.012-.007-.021-.012-.013-.006-.023-.01-.013,0-.024-.008-.014,0L32.04,26.2l-.017,0-.021,0H30.523a.4.4,0,0,0-.4.4V35.56a.4.4,0,0,0,.4.4h1.444a.4.4,0,0,0,.4-.4V30.233l4.116,5.559a.4.4,0,0,0,.1.1l0,0,.025.015.011.007.019.009.02.008.012,0,.027.009h.006a.405.405,0,0,0,.1.014h1.444a.4.4,0,0,0,.4-.4V26.59a.4.4,0,0,0-.4-.4"/><path class="cls-1" d="M24.836,33.715H20.912V26.59a.4.4,0,0,0-.4-.4H19.067a.4.4,0,0,0-.4.4V35.56h0a.4.4,0,0,0,.112.277l.006.006.006.005a.4.4,0,0,0,.277.112h5.77a.4.4,0,0,0,.4-.4V34.115a.4.4,0,0,0-.4-.4"/><path class="cls-1" d="M46.232,28.436a.4.4,0,0,0,.4-.4V26.591a.4.4,0,0,0-.4-.4h-5.77a.4.4,0,0,0-.278.113l0,0-.006.007a.4.4,0,0,0-.111.277h0V35.56h0a.4.4,0,0,0,.112.277l.005.006.006.005a.4.4,0,0,0,.277.112h5.77a.4.4,0,0,0,.4-.4V34.115a.4.4,0,0,0-.4-.4H42.308V32.2h3.924a.4.4,0,0,0,.4-.4V30.353a.4.4,0,0,0-.4-.4H42.308V28.436Z"/></svg>