<svg id="レイヤー_1" data-name="レイヤー 1" xmlns="http://www.w3.org/2000/svg" viewBox="0 0 38 71"><defs><style>.cls-1{fill:#3b0000;fill-rule:evenodd;}</style></defs><title>アートボード 1</title><path class="cls-1" d="M33.27.14c-.36-.05-.54,3.2-.89,6.85s-1.37,13.25-2,16.09c-.77,3.36-1.94,4.92-3.23,6s-7,2.77-11.65,11.77c0,0-1.77,3.48-3.7,7.18C7.18,56.81,8.09,55.93,6.3,58.7,4.14,62,2.81,64,2,65.1c-2.87,3.76-.81,5.76.36,5.19.62-.31,2-1.33,3.74-4.87,1.35-2.78,6.35-13.93,7.42-16.26s3.23-6.34,4.22-8c1.79-3,3.57-5.22,6.55-6.48a31.63,31.63,0,0,0,8.05-5c2.4-2.21,4-6.6,4.59-10.87.74-5.54.63-9.16-.6-13.75C35.58,2.42,34.35.3,33.27.14Z"/></svg>