<svg xmlns="http://www.w3.org/2000/svg" viewBox="0 0 304.288 40.013"><defs><style>.a{fill:#fff;}</style></defs><g transform="translate(160 -356)"><g transform="translate(-160 356)"><path class="a" d="M35.128,26.709a11.915,11.915,0,0,0-5.562-.2,20.2,20.2,0,0,0-5.731,2.036,29.911,29.911,0,0,0-5.829,4.041,1.666,1.666,0,0,1-2.646-1.938L26.516,7.735A1.716,1.716,0,0,1,28.024,6.8a1.675,1.675,0,0,1,1.506.937l9.377,19.114A19.946,19.946,0,0,0,20.07,0,20.007,20.007,0,1,0,37.043,30.652Z"/><path class="a" d="M67.01,52.523c.3-.168.6-.334.937-.5a23.14,23.14,0,0,1,6.7-2.4,16.146,16.146,0,0,1,4.355-.235L73.745,38.66Z" transform="translate(-45.723 -26.379)"/><path class="a" d="M149.924,47.665a1.676,1.676,0,0,1-1.674-1.671V23.081a1.678,1.678,0,0,1,1.674-1.671h9.952a8.144,8.144,0,0,1,1.976.267,8.391,8.391,0,0,1,3.787,2.071,7.718,7.718,0,0,1,1.744,2.672,10.79,10.79,0,0,1,.67,3.872,7.59,7.59,0,0,1-3.853,7.014A14.5,14.5,0,0,1,157,38.84a1.671,1.671,0,1,1,0-3.342,11.31,11.31,0,0,0,5.527-1.1,4.266,4.266,0,0,0,2.179-4.107,6.658,6.658,0,0,0-.737-3.272,4.024,4.024,0,0,0-1.541-1.538,5.632,5.632,0,0,0-2.548-.734H151.6V45.994A1.656,1.656,0,0,1,149.924,47.665Z" transform="translate(-101.156 -14.609)"/><path class="a" d="M236.5,47.374a13.537,13.537,0,0,1-5.362-1.1,13.867,13.867,0,0,1-4.39-2.942,14.263,14.263,0,0,1-2.948-4.342,13.446,13.446,0,0,1-1.074-5.245,12.959,12.959,0,0,1,1.105-5.276,13.638,13.638,0,0,1,2.983-4.308,13.867,13.867,0,0,1,4.39-2.942A14.106,14.106,0,0,1,236.6,20.15a13.565,13.565,0,0,1,13.5,13.6,13.634,13.634,0,0,1-3.923,9.587A13.485,13.485,0,0,1,236.5,47.374Zm.1-23.882a10.751,10.751,0,0,0-4.088.8,10.327,10.327,0,0,0-3.351,2.24,9.454,9.454,0,0,0-2.243,3.272,9.334,9.334,0,0,0-.839,3.942,10.046,10.046,0,0,0,3.05,7.214,10.391,10.391,0,0,0,7.373,3.072,10.256,10.256,0,0,0,9.482-6.312,10.777,10.777,0,0,0,.769-3.977,10.223,10.223,0,0,0-2.913-7.214A10.01,10.01,0,0,0,236.606,23.492Z" transform="translate(-151.976 -13.749)"/><path class="a" d="M339.457,47.665H324.847a1.678,1.678,0,0,1-1.677-1.671V23.081a1.68,1.68,0,0,1,1.677-1.671,1.658,1.658,0,0,1,1.677,1.671V44.326h12.932a1.669,1.669,0,1,1,0,3.339Z" transform="translate(-220.51 -14.609)"/><path class="a" d="M412.887,47.665H398.277a1.678,1.678,0,0,1-1.677-1.671V23.081a1.68,1.68,0,0,1,1.677-1.671,1.658,1.658,0,0,1,1.677,1.671V44.326h12.932a1.669,1.669,0,1,1,0,3.339Z" transform="translate(-270.614 -14.609)"/><path class="a" d="M470.624,47.374a13.537,13.537,0,0,1-5.362-1.1,13.867,13.867,0,0,1-4.39-2.942,14.262,14.262,0,0,1-2.948-4.342,13.446,13.446,0,0,1-1.074-5.245,12.959,12.959,0,0,1,1.105-5.276,13.69,13.69,0,0,1,2.983-4.308,13.867,13.867,0,0,1,4.39-2.942,14.11,14.11,0,0,1,5.4-1.067,13.565,13.565,0,0,1,13.5,13.6,13.633,13.633,0,0,1-3.923,9.587A13.5,13.5,0,0,1,470.624,47.374Zm.1-23.882a10.751,10.751,0,0,0-4.088.8,10.313,10.313,0,0,0-3.348,2.24A9.507,9.507,0,0,0,461.04,29.8a9.383,9.383,0,0,0-.839,3.942,10.046,10.046,0,0,0,3.05,7.214,10.4,10.4,0,0,0,7.373,3.072,10.256,10.256,0,0,0,9.482-6.312,10.777,10.777,0,0,0,.769-3.977,10.223,10.223,0,0,0-2.913-7.214A10,10,0,0,0,470.722,23.492Z" transform="translate(-311.724 -13.749)"/><g transform="translate(187.827 7.154)"><path class="a" d="M600.746,48.864c-7.068,0-9.053-3.323-9.282-3.714a1.649,1.649,0,0,1,.651-2.214,1.629,1.629,0,0,1,2.182.619,3.9,3.9,0,0,0,1.239.978,11.524,11.524,0,0,0,5.213,1.077c2.151,0,3.777-.457,4.689-1.3a2.688,2.688,0,0,0,.88-2.02,3.71,3.71,0,0,0-1.14-2.865c-1.01-1.01-2.77-1.76-5.245-2.246a13.048,13.048,0,0,1-4.593-1.858,7.863,7.863,0,0,1-2.443-2.64,6.869,6.869,0,0,1-.943-3.485,6.347,6.347,0,0,1,2.214-4.689,7.728,7.728,0,0,1,2.475-1.464,9.181,9.181,0,0,1,3.161-.521c6.35,0,8.208,3,8.4,3.355a1.638,1.638,0,0,1-.619,2.214A1.619,1.619,0,0,1,605.4,27.5a4.352,4.352,0,0,0-1.074-.845,9.954,9.954,0,0,0-4.527-.88,5.018,5.018,0,0,0-3.485,1.172,3.2,3.2,0,0,0-1.109,2.313v.064a3.653,3.653,0,0,0,.585,1.89,4.689,4.689,0,0,0,1.5,1.5,9.9,9.9,0,0,0,3.288,1.271c3.126.619,5.375,1.63,6.874,3.094a7.018,7.018,0,0,1,2.116,5.21,6.032,6.032,0,0,1-1.922,4.428C606.121,48.146,603.777,48.864,600.746,48.864Z" transform="translate(-591.271 -22.52)"/><path class="a" d="M662.281,49.231a1.63,1.63,0,0,1-1.468-2.344l10.848-22.345a1.665,1.665,0,0,1,1.464-.912,1.629,1.629,0,0,1,1.464.912L685.5,46.855a1.632,1.632,0,0,1-2.932,1.433l-2.541-5.245a11.593,11.593,0,0,0-5.407-.2,19.519,19.519,0,0,0-5.569,1.989,28.907,28.907,0,0,0-5.667,3.942A1.619,1.619,0,0,1,662.281,49.231ZM673.126,28.97l-6.547,13.517c.292-.162.584-.324.912-.489a22.5,22.5,0,0,1,6.515-2.344,15.635,15.635,0,0,1,4.234-.229Z" transform="translate(-638.606 -23.277)"/><path class="a" d="M771.122,49.224h-14.2a1.635,1.635,0,0,1-1.63-1.63V25.25a1.635,1.635,0,0,1,1.63-1.63,1.615,1.615,0,0,1,1.63,1.63V45.965h12.573a1.63,1.63,0,1,1,0,3.259Z" transform="translate(-703.187 -23.271)"/><path class="a" d="M847.538,47.562a1.615,1.615,0,0,1-1.63,1.63H830.34a1.635,1.635,0,0,1-1.63-1.63V25.25a1.635,1.635,0,0,1,1.63-1.63h15.245a1.63,1.63,0,1,1,0,3.259H831.969v7.85h12.052a1.635,1.635,0,0,1,1.63,1.63,1.615,1.615,0,0,1-1.63,1.63H831.969v7.948h13.939A1.61,1.61,0,0,1,847.538,47.562Z" transform="translate(-753.284 -23.271)"/><path class="a" d="M909.756,48.864c-7.068,0-9.054-3.323-9.282-3.714a1.649,1.649,0,0,1,.651-2.214,1.629,1.629,0,0,1,2.182.619,3.9,3.9,0,0,0,1.239.978,11.524,11.524,0,0,0,5.213,1.077c2.151,0,3.777-.457,4.689-1.3a2.688,2.688,0,0,0,.88-2.02,3.71,3.71,0,0,0-1.14-2.865c-1.01-1.01-2.77-1.76-5.245-2.246a13.048,13.048,0,0,1-4.594-1.858,7.864,7.864,0,0,1-2.443-2.64,6.869,6.869,0,0,1-.943-3.485,6.347,6.347,0,0,1,2.214-4.689,7.729,7.729,0,0,1,2.475-1.464,9.181,9.181,0,0,1,3.161-.521c6.35,0,8.208,3,8.4,3.355a1.638,1.638,0,0,1-.619,2.214,1.619,1.619,0,0,1-2.182-.588,4.352,4.352,0,0,0-1.074-.845,9.954,9.954,0,0,0-4.527-.88,5.018,5.018,0,0,0-3.485,1.172,3.2,3.2,0,0,0-1.109,2.313v.064a3.653,3.653,0,0,0,.585,1.89,4.69,4.69,0,0,0,1.5,1.5,9.9,9.9,0,0,0,3.288,1.271c3.126.619,5.375,1.63,6.874,3.094a7.018,7.018,0,0,1,2.116,5.21,6.032,6.032,0,0,1-1.922,4.428C915.131,48.146,912.784,48.864,909.756,48.864Z" transform="translate(-802.119 -22.52)"/></g></g></g></svg>